<svg xmlns="http://www.w3.org/2000/svg" width="65.341" height="69" viewBox="0 0 65.341 69">
  <g id="colaboracion" transform="translate(0)">
    <path id="Trazado_156899" data-name="Trazado 156899" d="M46.2,37.7a3.549,3.549,0,0,1-2.538,1.21l-15.731.771-1.054-2.386L25.34,33.8a3.725,3.725,0,0,1,1.168-.247l16.787-.823a3.321,3.321,0,0,1,3.611,2.922,2.874,2.874,0,0,1-.7,2.048Zm0,0" fill="#ffc48f"/>
    <path id="Trazado_156900" data-name="Trazado 156900" d="M46.2,37.7a3.549,3.549,0,0,1-2.538,1.21l-15.731.771-1.054-2.386,16.412-.805A3.581,3.581,0,0,1,46.2,37.7Zm0,0" fill="#e59a5c"/>
    <path id="Trazado_156901" data-name="Trazado 156901" d="M9.684,42.335V67.6a3.392,3.392,0,0,0,1.538.365,3.429,3.429,0,0,0,3.43-3.43V42.647" fill="#3b3d4c"/>
    <path id="Trazado_156902" data-name="Trazado 156902" d="M15.262,29.239V39.762H1.03V29.239a7.116,7.116,0,1,1,14.233,0Zm0,0" fill="#e3f4fc"/>
    <path id="Trazado_156903" data-name="Trazado 156903" d="M17.891,8.455A8.352,8.352,0,1,1,3.586,12.893l.932-5.863,6-3.331Zm0,0" fill="#ffc48f"/>
    <path id="Trazado_156904" data-name="Trazado 156904" d="M12.4,22.541a8.36,8.36,0,0,1-8.81-9.647L4.518,7.03l6-3.332L12.71,5.112,8.2,7.616l-.933,5.863A8.356,8.356,0,0,0,12.4,22.541Zm0,0" fill="#e59a5c"/>
    <path id="Trazado_156905" data-name="Trazado 156905" d="M4.518,7.029l-.933,5.864A4.257,4.257,0,0,0,8.458,9.358L8.8,7.236l10.754,1.71c.151.024.3.043.452.057,4.23.383,4.96-5.928.765-6.6l-8.1-1.289A7.118,7.118,0,0,0,4.518,7.029Zm0,0" fill="#f78e39"/>
    <path id="Trazado_156906" data-name="Trazado 156906" d="M17.241,1.846A7.117,7.117,0,0,0,9.183,7.3L8.8,7.236,8.459,9.357a4.259,4.259,0,0,1-4.873,3.536L4.518,7.03a7.118,7.118,0,0,1,8.147-5.911Zm0,0" fill="#e27727"/>
    <path id="Trazado_156907" data-name="Trazado 156907" d="M15.262,39.762A7.121,7.121,0,0,1,11.576,46V64.532a3.429,3.429,0,1,1-6.859,0V46A7.116,7.116,0,0,1,1.03,39.762Zm0,0" fill="#5c5e70"/>
    <path id="Trazado_156908" data-name="Trazado 156908" d="M9.366,22.226a7.119,7.119,0,0,0-5.9,7.013V39.762H1.03V29.239a7.122,7.122,0,0,1,8.337-7.013Zm0,0" fill="#bdd9e5"/>
    <path id="Trazado_156909" data-name="Trazado 156909" d="M9.366,67.738a3.43,3.43,0,0,1-4.649-3.206V46A7.116,7.116,0,0,1,1.03,39.762H3.468A7.117,7.117,0,0,0,7.155,46V64.532a3.428,3.428,0,0,0,2.212,3.206Zm0,0" fill="#3b3d4c"/>
    <path id="Trazado_156910" data-name="Trazado 156910" d="M44.206,50.284H37.027l-3.365,8.5a3.048,3.048,0,1,1-5.668-2.244l3.993-10.086a3.05,3.05,0,0,1,2.312-1.88l6.72-1.17" fill="#34abe0"/>
    <path id="Trazado_156911" data-name="Trazado 156911" d="M30.061,60.607a2.945,2.945,0,0,0,.766.1,3.048,3.048,0,0,0,2.835-1.926l3.364-8.5a2.267,2.267,0,0,0-2.107,1.431l-2.8,7.066a3.041,3.041,0,0,1-2.061,1.826Zm0,0" fill="#1895b7"/>
    <path id="Trazado_156912" data-name="Trazado 156912" d="M40.283,44.117V38.072a8.433,8.433,0,1,1,16.866,0v4.74" fill="#f75772"/>
    <path id="Trazado_156913" data-name="Trazado 156913" d="M46.789,29.859A8.438,8.438,0,0,1,53.3,38.072V43.11l3.851-.3v-4.74a8.442,8.442,0,0,0-10.359-8.212Zm0,0" fill="#e0244c"/>
    <path id="Trazado_156914" data-name="Trazado 156914" d="M51.665,11.118l5.4,4.232v5.937a8.352,8.352,0,1,1-13.431-6.629Zm0,0" fill="#ffc48f"/>
    <path id="Trazado_156915" data-name="Trazado 156915" d="M46.851,29.432a8.361,8.361,0,0,0,10.216-8.144V15.351l-5.4-4.233L49.278,12.17l4.058,3.181v5.937a8.356,8.356,0,0,1-6.486,8.144Zm0,0" fill="#e59a5c"/>
    <path id="Trazado_156916" data-name="Trazado 156916" d="M64.312,54.076a13.9,13.9,0,1,1-13.9-13.9A13.9,13.9,0,0,1,64.312,54.076Zm0,0" fill="#3b3d4c"/>
    <path id="Trazado_156917" data-name="Trazado 156917" d="M60.789,54.076A10.372,10.372,0,1,1,50.417,43.7,10.372,10.372,0,0,1,60.789,54.076Zm0,0" fill="#e6e6e6"/>
    <path id="Trazado_156918" data-name="Trazado 156918" d="M57.067,15.35v5.938a4.257,4.257,0,0,1-4.257-4.257V14.882H45.351A6.648,6.648,0,0,1,38.7,8.233H49.95a7.117,7.117,0,0,1,7.117,7.117Zm0,0" fill="#5c5e70"/>
    <path id="Trazado_156919" data-name="Trazado 156919" d="M45.317,8.233a7.117,7.117,0,0,1,7.1,6.649h.391V17.03a4.258,4.258,0,0,0,4.257,4.257V15.351A7.118,7.118,0,0,0,49.95,8.233Zm0,0" fill="#3b3d4c"/>
    <path id="Trazado_156920" data-name="Trazado 156920" d="M51.052,38.072V44.35l-3.181,3.182a3.048,3.048,0,1,0,4.31,4.31l4.075-4.074a3.048,3.048,0,0,0,.893-2.155V38.072" fill="#ffc48f"/>
    <path id="Trazado_156921" data-name="Trazado 156921" d="M48.5,52.327a3.049,3.049,0,0,0,3.678-.485l4.075-4.074a3.048,3.048,0,0,0,.892-2.155V38.072H54.1v7.541a3.046,3.046,0,0,1-.893,2.155l-4.074,4.074A2.984,2.984,0,0,1,48.5,52.327Zm0,0" fill="#e59a5c"/>
    <path id="Trazado_156922" data-name="Trazado 156922" d="M37.163,64.34a3.632,3.632,0,1,1-3.632-3.632A3.632,3.632,0,0,1,37.163,64.34Zm0,0" fill="#3b3d4c"/>
    <path id="Trazado_156923" data-name="Trazado 156923" d="M23.866,40.061c-4.825,0-10.553-1.077-14.931-5.16a16.711,16.711,0,0,1-2.328-2.688,3.381,3.381,0,0,1,1.926-5.2c.033-.01.066-.018.1-.026A3.361,3.361,0,0,1,12.239,28.3a9.925,9.925,0,0,0,1.63,1.811c2.382,2.076,5.737,3.113,10,3.094.805,0,1.077,6.852,0,6.852Zm0,0" fill="#e3f4fc"/>
    <path id="Trazado_156924" data-name="Trazado 156924" d="M24.5,38.508c-.1.9-.3,1.553-.635,1.553-4.825,0-10.553-1.077-14.931-5.16a16.711,16.711,0,0,1-2.328-2.688L7.77,31.05a16.8,16.8,0,0,0,2.051,2.3c4.3,4.011,9.908,5.121,14.68,5.158Zm0,0" fill="#bdd9e5"/>
    <path id="Trazado_156925" data-name="Trazado 156925" d="M26.934,39.921c-.961.085-1.991.14-3.069.14V33.209q1.208-.006,2.516-.125a3.429,3.429,0,0,1,3.733,3.176,3.472,3.472,0,0,1-3.18,3.661Zm0,0" fill="#ffc48f"/>
    <path id="Trazado_156926" data-name="Trazado 156926" d="M26.934,39.921c-.961.085-1.991.14-3.069.14V38.488c1.077,0,2.107-.055,3.069-.14,1.593-.143,2.874-.927,3.138-2.435a3.252,3.252,0,0,1,.043.347A3.472,3.472,0,0,1,26.934,39.921Zm0,0" fill="#e59a5c"/>
    <path id="Trazado_156927" data-name="Trazado 156927" d="M13.29,14.083a1.069,1.069,0,0,0,.163.013,1.029,1.029,0,0,0,1.015-.867l.306-1.922a1.029,1.029,0,0,0-2.033-.323l-.306,1.922A1.03,1.03,0,0,0,13.29,14.083Zm0,0"/>
    <path id="Trazado_156928" data-name="Trazado 156928" d="M16.652,14.618a1.07,1.07,0,0,0,.163.013,1.028,1.028,0,0,0,1.014-.867l.306-1.922a1.029,1.029,0,1,0-2.032-.323L15.8,13.44a1.029,1.029,0,0,0,.854,1.178Zm0,0"/>
    <path id="Trazado_156929" data-name="Trazado 156929" d="M58.177,41.327V38.072a9.47,9.47,0,0,0-5.188-8.438A9.39,9.39,0,0,0,58.1,21.287s0,0,0,0V15.351A8.155,8.155,0,0,0,49.95,7.2H38.7a1.029,1.029,0,0,0-1.029,1.029,7.683,7.683,0,0,0,4.071,6.775,9.379,9.379,0,0,0,2.693,14.623,9.475,9.475,0,0,0-2.411,1.75c-.129.13-.253.263-.374.4l-2.731.133a1.029,1.029,0,0,0,.049,2.057l.051,0,1.2-.058a9.419,9.419,0,0,0-.962,4.162V38.1l-8.6.422a4.361,4.361,0,0,0,.487-2.33,4.448,4.448,0,0,0-.523-1.807l4.294-.211a1.029,1.029,0,1,0-.1-2.055l-6.307.31a4.428,4.428,0,0,0-2.215-.364c-4.134.377-7.485-.131-10-1.509V29.239a8.121,8.121,0,0,0-2.5-5.862A9.376,9.376,0,0,0,20.24,10.046a4.193,4.193,0,0,0,4.321-3.788,4.258,4.258,0,0,0-3.632-4.866L12.826.1A8.145,8.145,0,0,0,3.5,6.868l-.933,5.864h0a9.387,9.387,0,0,0,3.28,8.692A8.159,8.159,0,0,0,0,29.239V39.762a8.154,8.154,0,0,0,3.688,6.819V64.532a4.458,4.458,0,0,0,6,4.185,4.458,4.458,0,0,0,6-4.185v-8.1a1.029,1.029,0,1,0-2.058,0v8.1a2.4,2.4,0,0,1-1.646,2.277,4.43,4.43,0,0,0,.628-2.277V46.579a8.2,8.2,0,0,0,1.018-.789v6.526a1.029,1.029,0,1,0,2.057,0V42.867a8.122,8.122,0,0,0,.6-2.759,27.72,27.72,0,0,0,7.584.981c1.03,0,2.093-.048,3.16-.143a4.506,4.506,0,0,0,1.121-.246l11.107-.544v2.508l-5.131.893a4.1,4.1,0,0,0-3.092,2.515L27.037,56.158a4.052,4.052,0,0,0,.049,3.12,4.182,4.182,0,0,0,.2.4H25.841a1.029,1.029,0,1,0,0,2.058h3.825a4.66,4.66,0,1,0,7.729,0h.218A14.923,14.923,0,1,0,58.177,41.327ZM5.534,7.191A6.088,6.088,0,0,1,12.5,2.135l8.1,1.289A2.2,2.2,0,0,1,22.518,6a2.125,2.125,0,0,1-2.424,1.974c-.127-.011-.256-.027-.383-.047l-1.4-.223-.01,0L8.957,6.22a1.028,1.028,0,0,0-1.178.854L7.442,9.2a3.234,3.234,0,0,1-2.653,2.678ZM4.516,13.969a5.288,5.288,0,0,0,4.958-4.45L9.65,8.413l7.937,1.263A7.322,7.322,0,1,1,4.516,13.969Zm3.63,9.181a6.094,6.094,0,0,1,6.082,5.9,8.817,8.817,0,0,1-1.143-1.329,1.029,1.029,0,1,0-1.69,1.174,10.945,10.945,0,0,0,1.8,2c2.376,2.07,5.611,3.184,9.644,3.329v4.794c-5.492-.18-9.929-1.814-13.2-4.866a15.662,15.662,0,0,1-2.184-2.522A1.029,1.029,0,1,0,5.761,32.8a17.724,17.724,0,0,0,2.472,2.854,18.656,18.656,0,0,0,4.46,3.08H2.058V29.239a6.1,6.1,0,0,1,6.088-6.088Zm4.3,20.916A6.087,6.087,0,0,1,11.079,45.1a1.029,1.029,0,0,0-.532.9V64.532a2.4,2.4,0,1,1-4.8,0V46a1.03,1.03,0,0,0-.532-.9,6.1,6.1,0,0,1-3.064-4.308h12a6.037,6.037,0,0,1-1.7,3.275Zm12.445-5.053v-4.8q.774-.032,1.581-.105a2.4,2.4,0,0,1,2.613,2.223A2.445,2.445,0,0,1,26.843,38.9c-.654.058-1.306.1-1.948.116Zm31.225,6.6a2.008,2.008,0,0,1-.591,1.428l-4.075,4.074A2.019,2.019,0,0,1,48.6,48.259l3.182-3.182a1.029,1.029,0,0,0,.3-.728V39.1h4.038ZM47.144,46.8a4.076,4.076,0,1,0,5.765,5.765L56.983,48.5a4.062,4.062,0,0,0,.47-.563,9.342,9.342,0,1,1-8.328-3.109ZM39.825,9.262H49.95a6.094,6.094,0,0,1,6.088,6.088v4.74a3.233,3.233,0,0,1-2.2-3.06V14.882a1.029,1.029,0,0,0-1.029-1.029H45.35a5.63,5.63,0,0,1-5.525-4.591Zm1.568,12.025A7.269,7.269,0,0,1,43.9,15.772a7.707,7.707,0,0,0,1.451.14h6.431v1.12a5.3,5.3,0,0,0,4.2,5.173A7.331,7.331,0,0,1,48.73,28.61H48.7a7.331,7.331,0,0,1-7.308-7.323ZM48.7,30.668h.029a7.414,7.414,0,0,1,7.316,6.375H52.082V35.929a1.029,1.029,0,1,0-2.058,0v3.227a14.845,14.845,0,0,0-8.712,3.1V38.072a7.4,7.4,0,0,1,7.389-7.4ZM30.084,59.536a2.019,2.019,0,0,1-1.133-2.621L32.944,46.83a2.034,2.034,0,0,1,1.531-1.246l4.217-.734a14.9,14.9,0,0,0-2.578,4.957c-.016.032-3.409,8.594-3.409,8.594a2.017,2.017,0,0,1-2.621,1.134Zm6.049,4.8a2.6,2.6,0,1,1-2.6-2.6A2.606,2.606,0,0,1,36.133,64.34Zm-1.765-4.661a4.166,4.166,0,0,0,.25-.519l1.066-2.692a14.808,14.808,0,0,0,.9,3.211Zm16.048,7.264a12.867,12.867,0,0,1-.393-25.727v1.469a11.4,11.4,0,1,0,8.151,3.039c0-.037,0-.073,0-.11v-1.8a12.866,12.866,0,0,1-7.761,23.129Zm0,0"/>
    <path id="Trazado_156930" data-name="Trazado 156930" d="M47.3,16.935a1.029,1.029,0,0,0-1.029,1.029V19.91a1.029,1.029,0,0,0,2.058,0V17.963A1.029,1.029,0,0,0,47.3,16.935Zm0,0"/>
    <path id="Trazado_156931" data-name="Trazado 156931" d="M43.891,16.935a1.029,1.029,0,0,0-1.029,1.029V19.91a1.029,1.029,0,1,0,2.057,0V17.963A1.029,1.029,0,0,0,43.891,16.935Zm0,0"/>
    <path id="Trazado_156932" data-name="Trazado 156932" d="M32.959,65.195a1.029,1.029,0,1,0-.388-1.225A1.038,1.038,0,0,0,32.959,65.195Zm0,0"/>
  </g>
</svg>
