<svg xmlns="http://www.w3.org/2000/svg" width="68.983" height="69" viewBox="0 0 68.983 69">
  <g id="discapacidad" transform="translate(0 0)">
    <g id="Grupo_108708" data-name="Grupo 108708">
      <g id="Grupo_108706" data-name="Grupo 108706">
        <g id="Grupo_108691" data-name="Grupo 108691">
          <path id="Trazado_156854" data-name="Trazado 156854" d="M57.374,41.194A23.51,23.51,0,0,1,30.625,61.059C-.231,55.443,5.953,11.177,37.231,14.526A23.683,23.683,0,0,1,57.374,41.194Z" fill="#48deff"/>
          <path id="Trazado_156855" data-name="Trazado 156855" d="M57.374,41.194A23.51,23.51,0,0,1,30.625,61.059C-.231,55.443,5.953,11.177,37.231,14.526A23.683,23.683,0,0,1,57.374,41.194Z" fill="#95ebd9"/>
          <path id="Trazado_156856" data-name="Trazado 156856" d="M37.231,14.526a23.882,23.882,0,0,0-6.145-.1c27.908,3.773,27.975,42.979.293,46.728,30.829,2.453,36.236-41.235,5.851-46.631Z" fill="#6be5cf"/>
          <g id="Grupo_108690" data-name="Grupo 108690">
            <path id="Trazado_156857" data-name="Trazado 156857" d="M33.181,21.228c.509,1.369,2,2.065,3.274,2.792s2.6,1.922,2.388,3.362a5.378,5.378,0,0,1-.918,1.874c-.647,1.119-1.431,2.985-.934,4.25a2.548,2.548,0,0,0,2.821,1.163c2.034-.378,4.1-2.441,6.216-1.334.778.437,1.25,1.307,2.053,1.7a4.642,4.642,0,0,0,2.852.013,18.909,18.909,0,0,1,6.5-.039,23.782,23.782,0,0,0-21-20.584c-1.568,1.663-4.075,4.385-3.247,6.8Z" fill="#ffe589"/>
            <g id="Grupo_108688" data-name="Grupo 108688">
              <path id="Trazado_156858" data-name="Trazado 156858" d="M37.231,14.526c-.269-.039-.537-.072-.8-.1q-.457.455-.881.94A23.748,23.748,0,0,1,52.022,34.882a18.989,18.989,0,0,1,5.406.127,23.759,23.759,0,0,0-20.2-20.482Z" fill="#ffd86d" stroke="#ffd86d" stroke-miterlimit="10" stroke-width="0.135"/>
            </g>
            <path id="Trazado_156859" data-name="Trazado 156859" d="M27.483,55.1a5.58,5.58,0,0,0,1.622-1.952,4.253,4.253,0,0,0-1-4.371,10.3,10.3,0,0,0-4.029-2.455,4.325,4.325,0,0,1-2.565-1.77c-.742-1.544.605-3.686-.543-4.963-1.073-1.193-3.435-.476-4.334-1.8-.72-1.063.138-2.448.191-3.724.044-2.633-2.918-4.114-5.324-3.949A23.659,23.659,0,0,0,22.437,58.3a22.382,22.382,0,0,0,5.046-3.2Z" fill="#ffe589"/>
            <path id="Trazado_156860" data-name="Trazado 156860" d="M54.977,48.679a6.671,6.671,0,0,0-2-.517c-1.441-.135-3.051.154-4.214-.708-.387-.287-.834-.631-1.294-.993a2.716,2.716,0,0,0-4.36,1.614c-.868,5.275-1.449,7.436.133,11.389A23.508,23.508,0,0,0,54.977,48.679Z" fill="#ffe589"/>
            <g id="Grupo_108689" data-name="Grupo 108689">
              <path id="Trazado_156861" data-name="Trazado 156861" d="M52.972,48.162a25.651,25.651,0,0,1-3.039-.195c-.12.26-.239.508-.346.712a23.4,23.4,0,0,1-7.125,8.2,15.439,15.439,0,0,0,.775,2.582A23.509,23.509,0,0,0,54.977,48.679a6.674,6.674,0,0,0-2-.517Z" fill="#ffd86d"/>
            </g>
          </g>
        </g>
        <g id="Grupo_108705" data-name="Grupo 108705">
          <g id="Grupo_108698" data-name="Grupo 108698">
            <g id="Grupo_108695" data-name="Grupo 108695">
              <g id="Grupo_108694" data-name="Grupo 108694">
                <g id="Grupo_108693" data-name="Grupo 108693">
                  <g id="Grupo_108692" data-name="Grupo 108692">
                    <path id="Trazado_156862" data-name="Trazado 156862" d="M5.74,68V31.186a11.451,11.451,0,0,1-4.712-9.259V13.286a2.356,2.356,0,1,1,4.712-.061V13.2a2.356,2.356,0,1,1,4.712-.061,2.356,2.356,0,1,1,4.712,0,2.356,2.356,0,1,1,4.712.061v2.358H21.32A2.779,2.779,0,0,1,24.1,18.338v1.78c0,4.394-1.617,10.069-6.523,11.067V68Z" fill="#ffdab3"/>
                  </g>
                </g>
              </g>
            </g>
            <g id="Grupo_108696" data-name="Grupo 108696">
              <path id="Trazado_156863" data-name="Trazado 156863" d="M5.74,13.088v2.189a2.356,2.356,0,0,0,4.712,0V13.088A2.356,2.356,0,0,0,5.74,13.088Z" fill="#ffc998"/>
              <path id="Trazado_156864" data-name="Trazado 156864" d="M15.158,13.088v2.189a2.356,2.356,0,0,0,4.712,0V13.088A2.356,2.356,0,0,0,15.158,13.088Z" fill="#ffc998"/>
              <path id="Trazado_156865" data-name="Trazado 156865" d="M10.446,13.088v2.189a2.356,2.356,0,0,0,4.712,0V13.088A2.356,2.356,0,0,0,10.446,13.088Z" fill="#ffc998"/>
              <path id="Trazado_156866" data-name="Trazado 156866" d="M1.027,13.088v2.189a2.356,2.356,0,0,0,4.712,0V13.088A2.356,2.356,0,0,0,1.027,13.088Z" fill="#ffc998"/>
            </g>
            <g id="Grupo_108697" data-name="Grupo 108697">
              <path id="Trazado_156867" data-name="Trazado 156867" fill="#ffdab3"/>
              <path id="Trazado_156868" data-name="Trazado 156868" d="M20.085,20.266H12.6a2.352,2.352,0,0,1,0-4.7h8.72A2.779,2.779,0,0,1,24.1,18.338v1.928" fill="#ffdab3"/>
            </g>
          </g>
          <g id="Grupo_108704" data-name="Grupo 108704">
            <g id="Grupo_108702" data-name="Grupo 108702">
              <g id="Grupo_108701" data-name="Grupo 108701">
                <g id="Grupo_108700" data-name="Grupo 108700">
                  <g id="Grupo_108699" data-name="Grupo 108699">
                    <path id="Trazado_156869" data-name="Trazado 156869" d="M17.514,68V56.208A11.451,11.451,0,0,1,12.8,46.949V38.308a2.356,2.356,0,1,1,4.712-.061v-.02a2.356,2.356,0,1,1,4.712-.061,2.356,2.356,0,1,1,4.712,0,2.356,2.356,0,1,1,4.712.061v2.358h1.444a2.779,2.779,0,0,1,2.781,2.776v1.78c0,4.394-1.617,10.069-6.523,11.067V68Z" fill="#ffc998"/>
                  </g>
                </g>
              </g>
            </g>
            <g id="Grupo_108703" data-name="Grupo 108703">
              <path id="Trazado_156870" data-name="Trazado 156870" d="M17.514,38.11V40.3a2.356,2.356,0,0,0,4.712,0V38.11A2.356,2.356,0,0,0,17.514,38.11Z" fill="#f9b87f"/>
              <path id="Trazado_156871" data-name="Trazado 156871" d="M22.226,38.11V40.3a2.356,2.356,0,0,0,4.712,0V38.11A2.356,2.356,0,0,0,22.226,38.11Z" fill="#f9b87f"/>
              <path id="Trazado_156872" data-name="Trazado 156872" d="M12.8,38.11V40.3a2.356,2.356,0,0,0,4.712,0V38.11A2.356,2.356,0,0,0,12.8,38.11Z" fill="#f9b87f"/>
              <path id="Trazado_156873" data-name="Trazado 156873" d="M26.939,38.11V40.3a2.356,2.356,0,0,0,4.712,0V38.11A2.356,2.356,0,0,0,26.939,38.11Z" fill="#f9b87f"/>
              <path id="Trazado_156874" data-name="Trazado 156874" d="M12.8,38.11V40.3a2.356,2.356,0,0,0,4.712,0V38.11A2.356,2.356,0,0,0,12.8,38.11Z" fill="#f9b87f"/>
            </g>
            <path id="Trazado_156875" data-name="Trazado 156875" fill="#ffdab3"/>
            <path id="Trazado_156876" data-name="Trazado 156876" d="M31.859,45.288H24.374a2.352,2.352,0,0,1,0-4.7h8.72a2.779,2.779,0,0,1,2.781,2.776v1.928" fill="#ffc998"/>
          </g>
        </g>
      </g>
      <g id="Grupo_108707" data-name="Grupo 108707">
        <path id="Trazado_156877" data-name="Trazado 156877" d="M67.991,14.762A13.727,13.727,0,0,1,54.264,28.489c-18.189-.673-18.184-26.784,0-27.454A13.727,13.727,0,0,1,67.991,14.762Z" fill="#fbf9f9"/>
        <path id="Trazado_156878" data-name="Trazado 156878" d="M54.264,1.035a13.786,13.786,0,0,0-2.695.264c14.622,3.123,14.612,23.808,0,26.925a13.728,13.728,0,1,0,2.695-27.19Z" fill="#f6eeeb"/>
      </g>
    </g>
    <g id="Grupo_108711" data-name="Grupo 108711">
      <path id="Trazado_156879" data-name="Trazado 156879" d="M5.74,56.546a1.01,1.01,0,0,0-1.011,1.011V68A1.011,1.011,0,0,0,6.75,68V57.556A1.011,1.011,0,0,0,5.74,56.546Z"/>
      <g id="Grupo_108710" data-name="Grupo 108710">
        <g id="Grupo_108709" data-name="Grupo 108709">
          <path id="Trazado_156880" data-name="Trazado 156880" d="M24.227,9.435a1.011,1.011,0,0,0,0,2.021A1.011,1.011,0,0,0,24.227,9.435Z"/>
          <path id="Trazado_156881" data-name="Trazado 156881" d="M28.363,8.313a1.011,1.011,0,0,0,0,2.021A1.011,1.011,0,0,0,28.363,8.313Z"/>
          <path id="Trazado_156882" data-name="Trazado 156882" d="M32.616,7.851a1.011,1.011,0,0,0,0,2.021,1.011,1.011,0,0,0,0-2.021Z"/>
          <path id="Trazado_156883" data-name="Trazado 156883" d="M36.894,8a1.011,1.011,0,0,0,0,2.021A1.011,1.011,0,0,0,36.894,8Z"/>
          <path id="Trazado_156884" data-name="Trazado 156884" d="M62.079,31.938a1.011,1.011,0,0,0,0-2.021A1.011,1.011,0,0,0,62.079,31.938Z"/>
          <path id="Trazado_156885" data-name="Trazado 156885" d="M61.81,35.143a1.011,1.011,0,0,0,2.021,0A1.011,1.011,0,0,0,61.81,35.143Z"/>
          <path id="Trazado_156886" data-name="Trazado 156886" d="M62.929,38.412a1.011,1.011,0,0,0,0,2.021A1.011,1.011,0,0,0,62.929,38.412Z"/>
          <path id="Trazado_156887" data-name="Trazado 156887" d="M62.394,42.658a1.011,1.011,0,0,0,0,2.021A1.011,1.011,0,0,0,62.394,42.658Z"/>
          <path id="Trazado_156888" data-name="Trazado 156888" d="M61.231,46.778a1.011,1.011,0,0,0,0,2.021A1.011,1.011,0,0,0,61.231,46.778Z"/>
          <path id="Trazado_156889" data-name="Trazado 156889" d="M59.476,50.683a1.011,1.011,0,0,0,0,2.021A1.011,1.011,0,0,0,59.476,50.683Z"/>
          <path id="Trazado_156890" data-name="Trazado 156890" d="M57.161,54.283a1.011,1.011,0,0,0,0,2.021A1.011,1.011,0,0,0,57.161,54.283Z"/>
          <path id="Trazado_156891" data-name="Trazado 156891" d="M54.337,57.5a1.011,1.011,0,0,0,0,2.021A1.011,1.011,0,0,0,54.337,57.5Z"/>
          <path id="Trazado_156892" data-name="Trazado 156892" d="M51.065,60.259a1.011,1.011,0,0,0,0,2.021A1.011,1.011,0,0,0,51.065,60.259Z"/>
          <path id="Trazado_156893" data-name="Trazado 156893" d="M47.42,62.5a1.011,1.011,0,0,0,0,2.021A1.011,1.011,0,0,0,47.42,62.5Z"/>
          <path id="Trazado_156894" data-name="Trazado 156894" d="M43.482,64.179a1.011,1.011,0,0,0,0,2.021A1.011,1.011,0,0,0,43.482,64.179Z"/>
          <path id="Trazado_156895" data-name="Trazado 156895" d="M39.339,65.259a1.011,1.011,0,0,0,0,2.021A1.011,1.011,0,0,0,39.339,65.259Z"/>
          <path id="Trazado_156896" data-name="Trazado 156896" d="M35.084,65.718a1.011,1.011,0,0,0,0,2.021A1.011,1.011,0,0,0,35.084,65.718Z"/>
        </g>
        <path id="Trazado_156897" data-name="Trazado 156897" d="M65.174,4.854a1.011,1.011,0,1,0-1.5,1.359c7.4,8.016,1.507,21.343-9.414,21.265A12.731,12.731,0,0,1,41.547,14.762C41.4,5.614,51.464-.77,59.669,3.249a1.01,1.01,0,1,0,.86-1.829C51.317-3.1,39.933,3.751,39.549,13.939a24.774,24.774,0,0,0-15.829,1.47,4.146,4.146,0,0,0-2.833-.857V13.2a3.458,3.458,0,0,0-3.43-3.417,3.358,3.358,0,0,0-2.271.947,3.328,3.328,0,0,0-4.73-.044,3.385,3.385,0,0,0-4.715,0,3.375,3.375,0,0,0-5.723,2.4v8.839a12.532,12.532,0,0,0,4.712,9.758V52.263a1.011,1.011,0,0,0,2.021,0V31.186a1.011,1.011,0,0,0-.414-.816,10.5,10.5,0,0,1-4.3-8.443V18.358a3.4,3.4,0,0,0,3.7-.683,3.393,3.393,0,0,0,3.533.751,3.371,3.371,0,0,0,3.328,2.85h1.766a8.5,8.5,0,0,0-3.019,6.5,1.011,1.011,0,0,0,2.021,0,6.586,6.586,0,0,1,6.717-6.5,1.011,1.011,0,1,0,0-2.021H12.6a1.342,1.342,0,1,1,0-2.683h8.72a1.8,1.8,0,0,1,1.771,1.766v1.78c0,4.112-1.5,9.219-5.714,10.077a1.011,1.011,0,0,0-.809.99v3.871a3.386,3.386,0,0,0-4.776,3.054v8.839A12.532,12.532,0,0,0,16.5,56.707V68a1.011,1.011,0,0,0,2.021,0V56.208a1.011,1.011,0,0,0-.414-.816,10.5,10.5,0,0,1-4.3-8.443V43.38a3.4,3.4,0,0,0,3.7-.683,3.393,3.393,0,0,0,3.533.751,3.371,3.371,0,0,0,3.328,2.85H26.14a8.5,8.5,0,0,0-3.019,6.5,1.011,1.011,0,0,0,2.021,0,6.586,6.586,0,0,1,6.717-6.5,1.011,1.011,0,1,0,0-2.021H24.375a1.341,1.341,0,1,1,0-2.683h8.72a1.77,1.77,0,0,1,1.771,1.766v1.78c0,4.112-1.5,9.219-5.714,10.077a1.011,1.011,0,0,0-.809.99V68a1.011,1.011,0,0,0,2.021,0V62.042l.117.017a25.254,25.254,0,0,0,3.627.263c11.82.2,22.824-9.19,24.268-20.986a24.416,24.416,0,0,0,.061-6.413c0-.027-.006-.054-.01-.081a24.357,24.357,0,0,0-1.4-5.6C68.1,27.283,72.96,13.216,65.174,4.854Zm-47.68,6.954a1.418,1.418,0,0,1,1.372,1.4v1.347H16.175V13.224A1.405,1.405,0,0,1,17.494,11.808ZM3.384,16.618a1.345,1.345,0,0,1-1.346-1.341V13.286a1.417,1.417,0,0,1,1.372-1.4,1.347,1.347,0,0,1,1.32,1.335v2.052A1.345,1.345,0,0,1,3.384,16.618Zm4.712,0A1.345,1.345,0,0,1,6.75,15.276V13.2a1.418,1.418,0,0,1,1.372-1.4,1.346,1.346,0,0,1,1.319,1.335v2.133A1.345,1.345,0,0,1,8.1,16.618Zm3.367-1.868V13.081a1.347,1.347,0,0,1,1.319-1.335,1.464,1.464,0,0,1,1.372,1.478v1.328a8.9,8.9,0,0,0-2.691.2Zm3.7,26.89A1.345,1.345,0,0,1,13.812,40.3V38.307a1.418,1.418,0,0,1,1.372-1.4A1.347,1.347,0,0,1,16.5,38.246V40.3a1.345,1.345,0,0,1-1.346,1.342Zm4.712,0A1.345,1.345,0,0,1,18.525,40.3V38.11A1.4,1.4,0,0,1,19.9,36.83a1.346,1.346,0,0,1,1.319,1.335V40.3A1.345,1.345,0,0,1,19.87,41.64Zm3.366-1.869V38.1a1.347,1.347,0,0,1,1.319-1.335,1.463,1.463,0,0,1,1.372,1.478v1.328a8.909,8.909,0,0,0-2.691.2Zm7.4-.2H27.949V38.246c0-.014,0-.027,0-.041a1.349,1.349,0,0,1,1.32-1.376,1.418,1.418,0,0,1,1.372,1.4Zm13.18,18.521a18.5,18.5,0,0,1-.559-2.426,35.4,35.4,0,0,1,.837-7.412A1.641,1.641,0,0,1,45.156,47c1.189-.449,2.144.636,3,1.271a5.891,5.891,0,0,0,3.612.859,7.718,7.718,0,0,1,1.728.138,22.531,22.531,0,0,1-9.676,8.832ZM56.373,41.052a22.347,22.347,0,0,1-1.9,6.375A9.83,9.83,0,0,0,51.8,47.1a4.31,4.31,0,0,1-2.437-.462c-1.505-1.116-2.913-2.3-4.919-1.538a3.668,3.668,0,0,0-2.331,2.787c-.269,1.464-1.124,6.374-.844,8.1a20.306,20.306,0,0,0,.687,2.9A22.654,22.654,0,0,1,30.77,60.059q-.2-.03-.407-.063V56.988a8.422,8.422,0,0,0,5-4.6,16.842,16.842,0,0,0,1.523-7.056c0-.015,0-.03,0-.045V43.36a3.91,3.91,0,0,0-4.224-3.787V38.226a3.458,3.458,0,0,0-3.431-3.417,3.358,3.358,0,0,0-2.271.947l-.045-.045a3.309,3.309,0,0,0-2.4-.964,3.359,3.359,0,0,0-2.29.965A3.394,3.394,0,0,0,18.588,35V31.967c4.806-1.524,6.478-7.132,6.522-11.655A10.637,10.637,0,0,0,24.9,17.1a22.568,22.568,0,0,1,9.387-1.806q-.514.639-.967,1.314c-1.254,1.869-1.62,3.542-1.088,4.974.583,1.571,2.031,2.376,3.309,3.087,1.561.868,2.892,1.9,1.749,3.7-.93,1.462-2,3.791-1.226,5.548,1.136,2.594,4.347,1.814,6.3.873,1.42-.683,2.687-1.171,3.915.081a4.562,4.562,0,0,0,4.626,1.213,18.213,18.213,0,0,1,5.6-.185A22.415,22.415,0,0,1,56.373,41.052Zm-.15-7.222a19.432,19.432,0,0,0-5.687.263c-1.223.228-1.91.279-2.814-.642-1.878-1.914-3.959-1.582-6.234-.487-.752.362-3,1.449-3.572.136-.46-1.048.538-2.8,1.08-3.652,1.806-2.837.144-5.093-2.471-6.548-1.066-.593-2.073-1.153-2.4-2.025-.624-1.528,1.457-4.106,2.674-5.389a23.307,23.307,0,0,1,2.778.542A14.9,14.9,0,0,0,54.952,29.484a22.345,22.345,0,0,1,1.271,4.346Z"/>
        <path id="Trazado_156898" data-name="Trazado 156898" d="M48.049,17.772A5.733,5.733,0,0,0,58.8,20.525l.13.25a1.05,1.05,0,0,0,1.363.43,1.01,1.01,0,0,0,.43-1.363L58.4,15.379a1.01,1.01,0,0,0-.9-.544h-2.7v-.794h2.7a1.011,1.011,0,1,0,0-2.021h-2.7v-.876a2.671,2.671,0,1,0-2.021,0v.962a5.753,5.753,0,0,0-4.736,5.665Zm8.846-.915.582,1.119a3.726,3.726,0,1,1-4.692-3.8v1.669A1.01,1.01,0,0,0,53.8,16.856ZM53.8,8.023a.651.651,0,0,1,0,1.3A.651.651,0,0,1,53.8,8.023Z"/>
      </g>
    </g>
  </g>
</svg>
