<svg xmlns="http://www.w3.org/2000/svg" width="78" height="78" viewBox="0 0 78 78">
  <g id="Grupo_108926" data-name="Grupo 108926" transform="translate(-266 -790)">
    <circle id="Elipse_4717" data-name="Elipse 4717" cx="39" cy="39" r="39" transform="translate(266 790)" fill="#ffc485"/>
    <g id="Grupo_108925" data-name="Grupo 108925">
      <g id="apoyo" transform="translate(284.102 808)">
        <g id="Grupo_108625" data-name="Grupo 108625">
          <g id="Grupo_108600" data-name="Grupo 108600">
            <path id="Trazado_156719" data-name="Trazado 156719" d="M14.157,9.815a1.343,1.343,0,0,0-1.018-1.308,4.52,4.52,0,0,1-1.557-.728l-.863.58a2.413,2.413,0,0,1-3.344-.667l-.634-.951-.526.526A4.871,4.871,0,0,1,4.294,8.454a1.355,1.355,0,0,0-.924,1.281v.378H2.7a1.953,1.953,0,0,0-.863.2L1.079,8.427A5.658,5.658,0,0,1,6.33.674H11.2a5.653,5.653,0,0,1,5.252,7.753l-.755,1.881a1.953,1.953,0,0,0-.863-.2h-.674Z" fill="#b27946"/>
          </g>
          <g id="Grupo_108601" data-name="Grupo 108601">
            <path id="Trazado_156720" data-name="Trazado 156720" d="M27.64,9.438v.674h-.674a2.02,2.02,0,0,0-2.022,2.022V6.128a5.459,5.459,0,0,1,7.894-4.881l.2.1.2-.1a5.477,5.477,0,0,1,2.44-.573,5.455,5.455,0,0,1,5.454,5.454v6.007A2.02,2.02,0,0,0,39.1,10.112h-.674V9.438l-2.7-2.7L34.381,8.764,33.033,6.741,31.684,8.764,30.336,6.741Z" fill="#b27946"/>
          </g>
          <g id="Grupo_108602" data-name="Grupo 108602">
            <path id="Trazado_156721" data-name="Trazado 156721" d="M14.157,22.361V20.224a6.068,6.068,0,0,1,6.067-6.067h1.348a6.072,6.072,0,0,1,6.067,6.067v2.144a1.869,1.869,0,0,0-.674-.121h-.674v-.3a1.343,1.343,0,0,0-1.018-1.308,4.52,4.52,0,0,1-1.557-.728l-.863.58a2.413,2.413,0,0,1-3.344-.667l-.634-.951-.526.526a4.871,4.871,0,0,1-1.921,1.186,1.355,1.355,0,0,0-.924,1.281v.378h-.674a1.869,1.869,0,0,0-.674.121Z" fill="#656d78"/>
          </g>
          <g id="Grupo_108603" data-name="Grupo 108603">
            <path id="Trazado_156722" data-name="Trazado 156722" d="M23.595,31.01V29.662a4.977,4.977,0,0,0,1.968-1.8,4.828,4.828,0,0,0,.627-1.571h.775a2.019,2.019,0,0,0,.674-3.923V20.9l2.7-.674.034.1a2.812,2.812,0,0,0,2.663,1.921,2.783,2.783,0,0,0,1.638-.533A2.847,2.847,0,0,0,35.7,20.325l.034-.1A7.162,7.162,0,0,1,38.9,21.97a7.152,7.152,0,0,1,2.218,5.164v4.55a1.352,1.352,0,0,0-1.348-1.348,2.713,2.713,0,0,0-1.908.789,2.68,2.68,0,0,0-.634,1.011l-.276-.108a2.3,2.3,0,0,0-2.177-3.04h-.121a2.3,2.3,0,0,0-1.625.674,2.3,2.3,0,0,0-1.625-.674h-.121a2.3,2.3,0,0,0-2.177,3.04l-.276.108a2.68,2.68,0,0,0-.634-1.011,2.713,2.713,0,0,0-1.908-.789,1.348,1.348,0,0,0-1.328,1.119v.007A4.735,4.735,0,0,0,23.595,31.01Z" fill="#e6e9ed"/>
          </g>
          <g id="Grupo_108604" data-name="Grupo 108604">
            <path id="Trazado_156723" data-name="Trazado 156723" d="M16.833,31.455a1.348,1.348,0,0,0-1.328-1.119,2.713,2.713,0,0,0-1.908.789,2.766,2.766,0,0,0-.634,1.011l-.276-.108a2.3,2.3,0,0,0-2.177-3.04h-.121a2.3,2.3,0,0,0-1.625.674,2.3,2.3,0,0,0-1.625-.674H7.018a2.3,2.3,0,0,0-2.177,3.04l-.276.108a2.68,2.68,0,0,0-.634-1.011,2.713,2.713,0,0,0-1.908-.789A1.352,1.352,0,0,0,.674,31.684v-4.55a7.124,7.124,0,0,1,4.793-6.728l1.274,3.189,2.022-1.348,2.022,1.348,1.288-3.216,2.083.519v1.47a2.02,2.02,0,0,0,.674,3.923h.775a4.909,4.909,0,0,0,2.6,3.371V31.01a4.735,4.735,0,0,0-1.368.452Z" fill="#fcd770"/>
          </g>
          <g id="Grupo_108605" data-name="Grupo 108605">
            <path id="Trazado_156724" data-name="Trazado 156724" d="M11.46,20.224l.613.155-1.288,3.216L8.764,22.246,6.741,23.595,5.467,20.406c.2-.067.4-.128.6-.182l2.7,1.348Z" fill="#ffc729"/>
          </g>
          <g id="Grupo_108606" data-name="Grupo 108606">
            <path id="Trazado_156725" data-name="Trazado 156725" d="M14.831,37.077h-.674V35.783q0-.2.02-.4a4.791,4.791,0,0,1,2.656-3.917A4.735,4.735,0,0,1,18.2,31.01l2.7,2.022,2.7-2.022a4.735,4.735,0,0,1,1.368.452,4.806,4.806,0,0,1,2.656,3.917q.02.2.02.4v1.294h-.674a2.015,2.015,0,0,0-1.679.89l-.681-.1a2.269,2.269,0,0,0,.337-1.186,2.3,2.3,0,0,0-2.3-2.3h-.121a2.3,2.3,0,0,0-1.625.674,2.3,2.3,0,0,0-1.625-.674h-.121a2.3,2.3,0,0,0-2.3,2.3,3.437,3.437,0,0,0,.337,1.186l-.681.1a2.015,2.015,0,0,0-1.679-.89Z" fill="#b4dd7f"/>
          </g>
          <g id="Grupo_108607" data-name="Grupo 108607">
            <path id="Trazado_156726" data-name="Trazado 156726" d="M4.564,32.136a2.638,2.638,0,0,1,.155.9,2.693,2.693,0,0,1-2.7,2.7A1.352,1.352,0,0,1,.674,34.381v-2.7a1.352,1.352,0,0,1,1.348-1.348,2.713,2.713,0,0,1,1.908.789A2.68,2.68,0,0,1,4.564,32.136Z" fill="#f0d0b4"/>
          </g>
          <g id="Grupo_108608" data-name="Grupo 108608">
            <path id="Trazado_156727" data-name="Trazado 156727" d="M16.833,31.455v.007a4.791,4.791,0,0,0-2.656,3.917,2.7,2.7,0,0,1-1.368-2.346,2.638,2.638,0,0,1,.155-.9,2.766,2.766,0,0,1,.634-1.011,2.713,2.713,0,0,1,1.908-.789A1.348,1.348,0,0,1,16.833,31.455Z" fill="#f0d0b4"/>
          </g>
          <g id="Grupo_108609" data-name="Grupo 108609">
            <path id="Trazado_156728" data-name="Trazado 156728" d="M14.157,37.077h.674a2.015,2.015,0,0,1,1.679.89,2.04,2.04,0,0,1,.344,1.133,2.025,2.025,0,0,1-2.022,2.022h-.674a1.352,1.352,0,0,1-1.348-1.348V38.426A1.352,1.352,0,0,1,14.157,37.077Z" fill="#f0d0b4"/>
          </g>
          <g id="Grupo_108610" data-name="Grupo 108610">
            <path id="Trazado_156729" data-name="Trazado 156729" d="M28.988,38.426v1.348a1.352,1.352,0,0,1-1.348,1.348h-.674A2.025,2.025,0,0,1,24.943,39.1a2.04,2.04,0,0,1,.344-1.133,2.015,2.015,0,0,1,1.679-.89h.674A1.352,1.352,0,0,1,28.988,38.426Z" fill="#f0d0b4"/>
          </g>
          <g id="Grupo_108611" data-name="Grupo 108611">
            <path id="Trazado_156730" data-name="Trazado 156730" d="M28.833,32.136a2.638,2.638,0,0,1,.155.9,2.7,2.7,0,0,1-1.368,2.346,4.806,4.806,0,0,0-2.656-3.917v-.007a1.348,1.348,0,0,1,1.328-1.119,2.713,2.713,0,0,1,1.908.789A2.68,2.68,0,0,1,28.833,32.136Z" fill="#f0d0b4"/>
          </g>
          <g id="Grupo_108612" data-name="Grupo 108612">
            <path id="Trazado_156731" data-name="Trazado 156731" d="M41.122,31.684v2.7a1.352,1.352,0,0,1-1.348,1.348,2.693,2.693,0,0,1-2.7-2.7,2.638,2.638,0,0,1,.155-.9,2.68,2.68,0,0,1,.634-1.011,2.713,2.713,0,0,1,1.908-.789A1.352,1.352,0,0,1,41.122,31.684Z" fill="#f0d0b4"/>
          </g>
          <g id="Grupo_108613" data-name="Grupo 108613">
            <path id="Trazado_156732" data-name="Trazado 156732" d="M40.529,13.564a2.018,2.018,0,0,1-1.429.593h-.688c.007-.108.013-.209.013-.317V10.112H39.1a2.021,2.021,0,0,1,1.429,3.452Z" fill="#f0d0b4"/>
          </g>
          <g id="Grupo_108614" data-name="Grupo 108614">
            <path id="Trazado_156733" data-name="Trazado 156733" d="M38.426,10.112V13.84c0,.108-.007.209-.013.317A4.874,4.874,0,0,1,35.729,18.2v2.022l-.034.1a2.847,2.847,0,0,1-1.025,1.389,2.783,2.783,0,0,1-1.638.533,2.812,2.812,0,0,1-2.663-1.921l-.034-.1V18.2a4.874,4.874,0,0,1-2.683-4.045c-.007-.108-.013-.209-.013-.317v-4.4l2.7-2.7,1.348,2.022,1.348-2.022,1.348,2.022,1.348-2.022,2.7,2.7Z" fill="#f0d0b4"/>
          </g>
          <g id="Grupo_108615" data-name="Grupo 108615">
            <path id="Trazado_156734" data-name="Trazado 156734" d="M27.64,13.84c0,.108.007.209.013.317h-.688a2.022,2.022,0,1,1,0-4.045h.674Z" fill="#f0d0b4"/>
          </g>
          <g id="Grupo_108616" data-name="Grupo 108616">
            <path id="Trazado_156735" data-name="Trazado 156735" d="M27.64,22.368a2.02,2.02,0,0,1-.674,3.923H26.19a4.846,4.846,0,0,0,.1-.991V22.246h.674A1.869,1.869,0,0,1,27.64,22.368Z" fill="#f0d0b4"/>
          </g>
          <g id="Grupo_108617" data-name="Grupo 108617">
            <path id="Trazado_156736" data-name="Trazado 156736" d="M19.509,19.826a2.413,2.413,0,0,0,3.344.667l.863-.58a4.52,4.52,0,0,0,1.557.728,1.343,1.343,0,0,1,1.018,1.308V25.3a4.851,4.851,0,0,1-.728,2.562,4.977,4.977,0,0,1-1.968,1.8V31.01l-2.7,2.022L18.2,31.01V29.662a4.909,4.909,0,0,1-2.6-3.371,4.846,4.846,0,0,1-.1-.991V21.869a1.355,1.355,0,0,1,.924-1.281A4.871,4.871,0,0,0,18.35,19.4l.526-.526Z" fill="#f0d0b4"/>
          </g>
          <g id="Grupo_108618" data-name="Grupo 108618">
            <path id="Trazado_156737" data-name="Trazado 156737" d="M15.606,26.291h-.775a2.019,2.019,0,0,1-.674-3.923,1.869,1.869,0,0,1,.674-.121h.674V25.3a4.846,4.846,0,0,0,.1.991Z" fill="#f0d0b4"/>
          </g>
          <g id="Grupo_108619" data-name="Grupo 108619">
            <path id="Trazado_156738" data-name="Trazado 156738" d="M14.157,13.84V10.112h.674a1.953,1.953,0,0,1,.863.2,2.022,2.022,0,0,1-.863,3.849h-.688c.007-.108.013-.209.013-.317Z" fill="#f0d0b4"/>
          </g>
          <g id="Grupo_108620" data-name="Grupo 108620">
            <path id="Trazado_156739" data-name="Trazado 156739" d="M7.375,7.692a2.413,2.413,0,0,0,3.344.667l.863-.58a4.52,4.52,0,0,0,1.557.728,1.343,1.343,0,0,1,1.018,1.308V13.84c0,.108-.007.209-.013.317A4.874,4.874,0,0,1,11.46,18.2v2.022l-2.7,1.348-2.7-1.348V18.2a4.874,4.874,0,0,1-2.683-4.045c-.007-.108-.013-.209-.013-.317V9.735a1.355,1.355,0,0,1,.924-1.281A4.871,4.871,0,0,0,6.216,7.267l.526-.526Z" fill="#f0d0b4"/>
          </g>
          <g id="Grupo_108621" data-name="Grupo 108621">
            <path id="Trazado_156740" data-name="Trazado 156740" d="M3.371,13.84c0,.108.007.209.013.317H2.7a2.021,2.021,0,0,1-.863-3.849,1.953,1.953,0,0,1,.863-.2h.674Z" fill="#f0d0b4"/>
          </g>
          <g id="Grupo_108622" data-name="Grupo 108622">
            <path id="Trazado_156741" data-name="Trazado 156741" d="M36.4,29.662a2.3,2.3,0,0,1,.553,2.366,3.574,3.574,0,0,1-.7,1.018l-3.222,2.683L29.81,33.046a2.351,2.351,0,0,1-.7-1.018,2.3,2.3,0,0,1,2.177-3.04h.121a2.3,2.3,0,0,1,1.625.674,2.3,2.3,0,0,1,1.625-.674h.121A2.3,2.3,0,0,1,36.4,29.662Z" fill="#ef7385"/>
          </g>
          <g id="Grupo_108623" data-name="Grupo 108623">
            <path id="Trazado_156742" data-name="Trazado 156742" d="M24.943,36.68a2.269,2.269,0,0,1-.337,1.186,2.194,2.194,0,0,1-.485.573L20.9,41.122l-3.222-2.683a2.194,2.194,0,0,1-.485-.573,3.437,3.437,0,0,1-.337-1.186,2.3,2.3,0,0,1,2.3-2.3h.121a2.3,2.3,0,0,1,1.625.674,2.3,2.3,0,0,1,1.625-.674h.121a2.3,2.3,0,0,1,2.3,2.3Z" fill="#ef7385"/>
          </g>
          <g id="Grupo_108624" data-name="Grupo 108624">
            <path id="Trazado_156743" data-name="Trazado 156743" d="M12.134,29.662a2.3,2.3,0,0,1,.553,2.366,2.351,2.351,0,0,1-.7,1.018L8.764,35.729,5.541,33.046a2.351,2.351,0,0,1-.7-1.018,2.3,2.3,0,0,1,2.177-3.04h.121a2.3,2.3,0,0,1,1.625.674,2.3,2.3,0,0,1,1.625-.674h.121a2.3,2.3,0,0,1,1.625.674Z" fill="#ef7385"/>
          </g>
        </g>
        <g id="Grupo_108626" data-name="Grupo 108626">
          <circle id="Elipse_4906" data-name="Elipse 4906" cx="0.674" cy="0.674" r="0.674" transform="translate(5.393 9.438)"/>
          <circle id="Elipse_4907" data-name="Elipse 4907" cx="0.674" cy="0.674" r="0.674" transform="translate(10.786 9.438)"/>
          <path id="Trazado_156744" data-name="Trazado 156744" d="M6.209,14.6a2.856,2.856,0,0,0,5.109,0l.071-.142-1.206-.6L10.112,14a1.507,1.507,0,0,1-2.7,0l-.071-.142-1.206.6Z"/>
          <path id="Trazado_156745" data-name="Trazado 156745" d="M9.739,12.205l-.825-.412L9.4,10.325,8.124,9.9l-.859,2.577,1.871.936Z"/>
          <circle id="Elipse_4908" data-name="Elipse 4908" cx="0.674" cy="0.674" r="0.674" transform="translate(17.528 21.572)"/>
          <circle id="Elipse_4909" data-name="Elipse 4909" cx="0.674" cy="0.674" r="0.674" transform="translate(22.921 21.572)"/>
          <path id="Trazado_156746" data-name="Trazado 156746" d="M19.55,26.132l-.071-.142-1.206.6.071.142a2.856,2.856,0,0,0,5.109,0l.071-.142-1.206-.6-.071.143a1.507,1.507,0,0,1-2.7,0Z"/>
          <path id="Trazado_156747" data-name="Trazado 156747" d="M20.258,22.033,19.4,24.611l1.871.936.6-1.207-.825-.413.489-1.468Z"/>
          <circle id="Elipse_4910" data-name="Elipse 4910" cx="0.674" cy="0.674" r="0.674" transform="translate(29.662 9.438)"/>
          <circle id="Elipse_4911" data-name="Elipse 4911" cx="0.674" cy="0.674" r="0.674" transform="translate(35.055 9.438)"/>
          <path id="Trazado_156748" data-name="Trazado 156748" d="M34.381,14a1.507,1.507,0,0,1-2.7,0l-.071-.142-1.206.6.071.142a2.856,2.856,0,0,0,5.109,0l.071-.142-1.206-.6Z"/>
          <path id="Trazado_156749" data-name="Trazado 156749" d="M34.008,12.205l-.825-.412.489-1.468L32.393,9.9l-.859,2.577,1.871.936Z"/>
          <path id="Trazado_156750" data-name="Trazado 156750" d="M35.669,0a6.158,6.158,0,0,0-2.636.6,6.128,6.128,0,0,0-8.764,5.532v7.921a6.7,6.7,0,0,0-2.7-.566H20.224a6.745,6.745,0,0,0-6.732,6.555l-1.358-.34V18.6a5.5,5.5,0,0,0,2.6-3.77h.1a2.685,2.685,0,0,0,1.693-4.778l.551-1.377A6.327,6.327,0,0,0,11.2,0H6.327A6.327,6.327,0,0,0,.452,8.677L1,10.053A2.685,2.685,0,0,0,2.7,14.831h.1a5.5,5.5,0,0,0,2.6,3.77v1.116A7.782,7.782,0,0,0,0,27.132v7.249A2.025,2.025,0,0,0,2.022,36.4a3.375,3.375,0,0,0,3.295-2.668l3.447,2.872,3.452-2.877a3.377,3.377,0,0,0,1.27,2c0,.019,0,.037,0,.056v.742a2.02,2.02,0,0,0-1.348,1.9v1.348A2.025,2.025,0,0,0,14.158,41.8h.674a2.694,2.694,0,0,0,2.688-2.612L20.9,42l3.379-2.816A2.694,2.694,0,0,0,26.965,41.8h.674a2.025,2.025,0,0,0,2.022-2.022V38.426a2.02,2.02,0,0,0-1.348-1.9v-.742c0-.019,0-.037,0-.056a3.378,3.378,0,0,0,1.27-2l3.451,2.876,3.447-2.872A3.375,3.375,0,0,0,39.774,36.4,2.025,2.025,0,0,0,41.8,34.381v-7.25a7.781,7.781,0,0,0-1.885-5.086A5.524,5.524,0,0,0,41.8,17.883V6.128A6.135,6.135,0,0,0,35.669,0ZM30.4,1.348a4.8,4.8,0,0,1,2.137.5l.5.249.5-.249a4.78,4.78,0,0,1,6.917,4.275V9.813A2.669,2.669,0,0,0,39.1,9.438V7.695a2.954,2.954,0,0,0-.872-2.1l-.953.953a1.64,1.64,0,0,1,.477,1.151v.116L35.625,5.683,34.381,7.548,33.033,5.526,31.684,7.548,30.441,5.683,28.314,7.811V7.695a1.64,1.64,0,0,1,.477-1.151l-.953-.953a2.954,2.954,0,0,0-.872,2.1V9.438a2.669,2.669,0,0,0-1.348.375V6.128a4.785,4.785,0,0,1,4.78-4.78ZM35.428,17.6l-.373.187v2.33a2.132,2.132,0,0,1-4.045,0v-2.33l-.373-.186a4.181,4.181,0,0,1-2.324-3.76V9.717L30.232,7.8l1.453,2.179,1.348-2.022,1.348,2.022L35.834,7.8l1.918,1.917v4.122a4.181,4.181,0,0,1-2.324,3.76Zm-9.811-5.464a1.35,1.35,0,0,1,1.348-1.348v2.7A1.35,1.35,0,0,1,25.617,12.134ZM39.1,11.065v-.279a1.348,1.348,0,1,1,0,2.7ZM25.617,14.456a2.669,2.669,0,0,0,1.348.375h.1a5.5,5.5,0,0,0,2.6,3.77v1.1l-1.358.339a6.727,6.727,0,0,0-2.687-5.194ZM26.965,36.4a2.662,2.662,0,0,0-1.36.382c0-.036.011-.07.011-.107a2.989,2.989,0,0,0-.871-2.1,2.956,2.956,0,0,0-2.1-.872h-.116a2.951,2.951,0,0,0-1.627.483,2.951,2.951,0,0,0-1.627-.483h-.116a2.976,2.976,0,0,0-2.976,2.972c0,.036.01.07.011.107a2.662,2.662,0,0,0-1.36-.382v-.618a4.142,4.142,0,0,1,3.223-4.043L20.9,33.875l2.844-2.133a4.142,4.142,0,0,1,3.223,4.043Zm-11.46-6.741a3.336,3.336,0,0,0-2.022.692V26.591a2.669,2.669,0,0,0,1.348.375h.263a5.5,5.5,0,0,0,2.434,3.1v.408c-.114.032-.225.069-.336.107A2.012,2.012,0,0,0,15.505,29.662Zm-.674-6.741V25.3c0,.107.015.212.021.318h-.021a1.348,1.348,0,0,1,0-2.7Zm8.4-1.867.495-.33a5.16,5.16,0,0,0,1.383.573.673.673,0,0,1,.511.654V25.3a4.18,4.18,0,0,1-2.324,3.76l-.373.186v1.428L20.9,32.19l-2.022-1.517V29.245l-.373-.186a4.182,4.182,0,0,1-2.324-3.76V21.87a.674.674,0,0,1,.461-.64,5.623,5.623,0,0,0,2.131-1.3l.176.264a3.087,3.087,0,0,0,4.281.857Zm1.377,9.523c-.111-.038-.222-.076-.336-.108v-.408a5.5,5.5,0,0,0,2.434-3.1h.263a2.669,2.669,0,0,0,1.348-.375v3.763a3.336,3.336,0,0,0-2.022-.692A2.011,2.011,0,0,0,24.605,30.577Zm2.36-4.96h-.021c.006-.107.021-.21.021-.318V22.921a1.348,1.348,0,0,1,0,2.7ZM14.831,20.224a5.4,5.4,0,0,1,5.393-5.393h1.348a5.4,5.4,0,0,1,5.393,5.393v1.348h-.038a2.017,2.017,0,0,0-1.494-1.584A3.785,3.785,0,0,1,23.2,18.413l-.39-.586-1.122.748.39.586a5.206,5.206,0,0,0,.543.678l-.139.093a1.784,1.784,0,0,1-2.412-.483L18.98,17.817l-1.11,1.11a4.26,4.26,0,0,1-1.657,1.024,2.018,2.018,0,0,0-1.359,1.621h-.024ZM8,21.944l-.942.628L6.509,21.2Zm3.017-.746-.549,1.374-.942-.628Zm3.813-7.716v-2.7a1.348,1.348,0,0,1,0,2.7ZM1.7,8.176A4.979,4.979,0,0,1,6.327,1.348H11.2a4.979,4.979,0,0,1,4.623,6.828L15.3,9.485a2.686,2.686,0,0,0-.469-.047h-.038A2.017,2.017,0,0,0,13.3,7.854a3.785,3.785,0,0,1-2.235-1.575l-.39-.586-1.122.748.39.586a5.206,5.206,0,0,0,.543.678l-.139.093a1.784,1.784,0,0,1-2.412-.483L6.846,5.683,5.737,6.793A4.26,4.26,0,0,1,4.08,7.817,2.019,2.019,0,0,0,2.72,9.438H2.7a2.686,2.686,0,0,0-.469.047Zm-.356,3.959A1.35,1.35,0,0,1,2.7,10.786v2.7a1.35,1.35,0,0,1-1.348-1.348Zm2.7,1.7v-4.1a.674.674,0,0,1,.461-.64A5.623,5.623,0,0,0,6.637,7.8l.176.264a3.088,3.088,0,0,0,4.282.857l.495-.33a5.16,5.16,0,0,0,1.383.573.673.673,0,0,1,.511.654v4.022A4.182,4.182,0,0,1,11.16,17.6l-.374.185v2.022L8.764,20.819,6.741,19.807V17.785L6.369,17.6a4.182,4.182,0,0,1-2.324-3.76ZM5.09,21.283l1.333,3.334,2.34-1.56,2.34,1.559,1.377-3.442,1,.251v.522a2.688,2.688,0,0,0-1.348,2.322V28.8a2.955,2.955,0,0,0-1.627-.486h-.116a2.951,2.951,0,0,0-1.627.483,2.951,2.951,0,0,0-1.627-.483H7.02a2.952,2.952,0,0,0-1.627.487V25.9a2.958,2.958,0,0,0-.871-2.1l-.954.953A1.618,1.618,0,0,1,4.045,25.9v4.457a3.336,3.336,0,0,0-2.022-.692,2,2,0,0,0-.674.124V27.131A6.433,6.433,0,0,1,5.09,21.283ZM2.022,35.055a.675.675,0,0,1-.674-.674v-2.7a.675.675,0,0,1,.674-.674,2.022,2.022,0,0,1,0,4.045Zm6.741-.2L5.976,32.528A1.623,1.623,0,0,1,7.02,29.662h.116a1.616,1.616,0,0,1,1.151.477l.477.477.477-.477a1.614,1.614,0,0,1,1.15-.477h.116a1.621,1.621,0,0,1,1.046,2.866Zm4.719-1.819a2.025,2.025,0,0,1,2.022-2.022.671.671,0,0,1,.448.174,5.491,5.491,0,0,0-2.193,2.869A2.018,2.018,0,0,1,13.483,33.033Zm1.348,7.415h-.674a.675.675,0,0,1-.674-.674V38.426a.675.675,0,0,1,.674-.674h.674a1.348,1.348,0,1,1,0,2.7Zm6.067-.2L18.11,37.921a1.623,1.623,0,0,1,1.045-2.866h.116a1.616,1.616,0,0,1,1.151.477l.477.477.477-.477a1.614,1.614,0,0,1,1.15-.477h.116a1.621,1.621,0,0,1,1.046,2.866Zm7.415-.471a.675.675,0,0,1-.674.674h-.674a1.348,1.348,0,1,1,0-2.7h.674a.675.675,0,0,1,.674.674Zm-.278-5.721a5.488,5.488,0,0,0-2.193-2.869.671.671,0,0,1,.448-.174,2.021,2.021,0,0,1,1.745,3.043Zm5,.8-2.788-2.323a1.623,1.623,0,0,1,1.045-2.866h.116a1.616,1.616,0,0,1,1.151.477l.477.477.477-.477a1.614,1.614,0,0,1,1.15-.477h.116a1.621,1.621,0,0,1,1.046,2.866Zm7.415-.471a.675.675,0,0,1-.674.674,2.022,2.022,0,1,1,0-4.045.675.675,0,0,1,.674.674Zm0-4.595a2,2,0,0,0-.674-.124,3.336,3.336,0,0,0-2.022.692V25.9a1.614,1.614,0,0,1,.477-1.151l-.954-.953a2.956,2.956,0,0,0-.872,2.1v2.9a2.956,2.956,0,0,0-1.627-.486H34.66a2.951,2.951,0,0,0-1.627.483,2.951,2.951,0,0,0-1.627-.483h-.116a2.952,2.952,0,0,0-1.627.487V24.269a2.688,2.688,0,0,0-1.348-2.322v-.522l1.621-.405a3.478,3.478,0,0,0,6.187.025,6.435,6.435,0,0,1,4.327,6.087Zm-1.505-8.68A7.772,7.772,0,0,0,36.4,19.716V18.6a5.5,5.5,0,0,0,2.6-3.77h.1a2.669,2.669,0,0,0,1.348-.375v3.427a4.187,4.187,0,0,1-1.505,3.222Z"/>
        </g>
      </g>
    </g>
  </g>
</svg>
