<svg xmlns="http://www.w3.org/2000/svg" width="42" height="37.742" viewBox="0 0 42 37.742">
  <g id="apoyo_1_" data-name="apoyo (1)" transform="translate(0 -2.129)">
    <g id="Grupo_108649" data-name="Grupo 108649">
      <path id="Trazado_156773" data-name="Trazado 156773" d="M27.564,17.718a6.583,6.583,0,0,0-6.554-6.564h-.02a6.583,6.583,0,0,0-6.554,6.564v1.641h3.282v4.923h6.564V19.359h3.282Z" fill="#a0e5a5" fill-rule="evenodd"/>
      <g id="Grupo_108648" data-name="Grupo 108648">
        <path id="Trazado_156774" data-name="Trazado 156774" d="M17.718,24.282V19.359H14.436v6.564a1.641,1.641,0,0,0,3.282,0Z" fill="#ffdcd5" fill-rule="evenodd"/>
        <path id="Trazado_156775" data-name="Trazado 156775" d="M24.282,19.359v6.564a1.641,1.641,0,0,0,3.282,0V19.359Z" fill="#ffdcd5" fill-rule="evenodd"/>
        <path id="Trazado_156776" data-name="Trazado 156776" d="M21,12.8a3.282,3.282,0,1,0-2.492-1.146A3.274,3.274,0,0,0,21,12.8Z" fill="#ffdcd5" fill-rule="evenodd"/>
        <path id="Trazado_156777" data-name="Trazado 156777" d="M7.883,9.513a3.3,3.3,0,1,0-.02,0h.02Z" fill="#ffdcd5" fill-rule="evenodd"/>
      </g>
      <path id="Trazado_156778" data-name="Trazado 156778" d="M14.436,16.077A6.583,6.583,0,0,0,7.883,9.513h-.02a6.583,6.583,0,0,0-6.554,6.564v1.641H4.59v4.923h6.564V17.718Z" fill="#dc72a9" fill-rule="evenodd"/>
      <path id="Trazado_156779" data-name="Trazado 156779" d="M4.59,22.641V17.718H1.308v6.564a1.641,1.641,0,0,0,3.282,0Z" fill="#ffdcd5" fill-rule="evenodd"/>
      <path id="Trazado_156780" data-name="Trazado 156780" d="M11.154,22.641H7.872V34.948h3.282V22.641Z" fill="#8aa8bd" fill-rule="evenodd"/>
      <path id="Trazado_156781" data-name="Trazado 156781" d="M7.872,34.948V22.641H4.59V34.948Z" fill="#8aa8bd" fill-rule="evenodd"/>
      <path id="Trazado_156782" data-name="Trazado 156782" d="M7.872,34.948H4.59V37.41a1.641,1.641,0,0,0,3.282,0Z" fill="#fff" fill-rule="evenodd"/>
      <path id="Trazado_156783" data-name="Trazado 156783" d="M7.872,34.948V37.41a1.641,1.641,0,0,0,3.282,0V34.948Z" fill="#fff" fill-rule="evenodd"/>
      <path id="Trazado_156784" data-name="Trazado 156784" d="M14.678,15.956l-.242.121-3.282,1.641,3.282,5.929V17.718a6.508,6.508,0,0,1,.242-1.762Z" fill="#ffdcd5" fill-rule="evenodd"/>
      <path id="Trazado_156785" data-name="Trazado 156785" d="M34.117,9.513a3.3,3.3,0,1,1,.02,0h-.02Z" fill="#ffdcd5" fill-rule="evenodd"/>
      <path id="Trazado_156786" data-name="Trazado 156786" d="M27.564,16.077a6.583,6.583,0,0,1,6.554-6.564h.02a6.583,6.583,0,0,1,6.554,6.564v1.641H37.41v4.923H30.846V17.718Z" fill="#dc72a9" fill-rule="evenodd"/>
      <path id="Trazado_156787" data-name="Trazado 156787" d="M37.41,22.641V17.718h3.282v6.564a1.641,1.641,0,0,1-3.282,0Z" fill="#ffdcd5" fill-rule="evenodd"/>
      <path id="Trazado_156788" data-name="Trazado 156788" d="M30.846,22.641h3.282V34.948H30.846V22.641Z" fill="#8aa8bd" fill-rule="evenodd"/>
      <path id="Trazado_156789" data-name="Trazado 156789" d="M34.128,34.948V22.641H37.41V34.948Z" fill="#8aa8bd" fill-rule="evenodd"/>
      <path id="Trazado_156790" data-name="Trazado 156790" d="M34.128,34.948H37.41V37.41a1.641,1.641,0,0,1-3.282,0Z" fill="#fff" fill-rule="evenodd"/>
      <path id="Trazado_156791" data-name="Trazado 156791" d="M34.128,34.948V37.41a1.641,1.641,0,0,1-3.282,0V34.948Z" fill="#fff" fill-rule="evenodd"/>
      <path id="Trazado_156792" data-name="Trazado 156792" d="M27.322,15.956l.242.121,3.282,1.641-3.282,5.929V17.718a6.514,6.514,0,0,0-.242-1.762Z" fill="#ffdcd5" fill-rule="evenodd"/>
      <path id="Trazado_156793" data-name="Trazado 156793" d="M17.718,34.128v-8.2a1.641,1.641,0,0,0-3.282,0V37.41a1.641,1.641,0,0,0,3.282,0Z" fill="#8aa8bd" fill-rule="evenodd"/>
      <path id="Trazado_156794" data-name="Trazado 156794" d="M24.282,25.923V37.41a1.641,1.641,0,0,0,3.282,0V25.923a1.641,1.641,0,0,0-3.282,0Z" fill="#8aa8bd" fill-rule="evenodd"/>
      <path id="Trazado_156795" data-name="Trazado 156795" d="M21,31.666H17.718v2.462a1.641,1.641,0,1,0,3.282,0Z" fill="#fff" fill-rule="evenodd"/>
      <path id="Trazado_156796" data-name="Trazado 156796" d="M21,31.666v2.462a1.641,1.641,0,0,0,3.282,0V31.666Z" fill="#fff" fill-rule="evenodd"/>
      <path id="Trazado_156797" data-name="Trazado 156797" d="M21,31.666H17.718V24.282a1.641,1.641,0,0,1,3.282,0Z" fill="#ff9171" fill-rule="evenodd"/>
      <path id="Trazado_156798" data-name="Trazado 156798" d="M21,31.666V24.282a1.641,1.641,0,0,1,3.282,0v7.384Z" fill="#ff9171" fill-rule="evenodd"/>
    </g>
    <g id="Grupo_108650" data-name="Grupo 108650">
      <path id="Trazado_156799" data-name="Trazado 156799" d="M41.184,38.23H38.089a2.449,2.449,0,0,0,.141-.82V26.6a2.474,2.474,0,0,0,3.282-2.321v-8.2a7.4,7.4,0,0,0-4.6-6.838,4.1,4.1,0,1,0-5.574,0,7.423,7.423,0,0,0-4.185,4.406,7.411,7.411,0,0,0-2.473-2.322,4.1,4.1,0,1,0-7.363,0,7.411,7.411,0,0,0-2.474,2.322A7.423,7.423,0,0,0,10.66,9.239a4.1,4.1,0,1,0-5.574,0,7.4,7.4,0,0,0-4.6,6.838v8.2A2.474,2.474,0,0,0,3.77,26.6V37.41a2.449,2.449,0,0,0,.141.82H.816a.82.82,0,0,0,0,1.641H41.184A.82.82,0,0,0,41.184,38.23ZM8.693,37.41V35.769h1.641V37.41A.82.82,0,0,1,8.693,37.41Zm-.82-8.2a.82.82,0,0,0-.82.82v4.1H5.411V23.461h4.923V34.127H8.693v-4.1A.82.82,0,0,0,7.872,29.2Zm4.1,8.2V20.895l1.641,2.965V37.41a2.449,2.449,0,0,0,.141.82H11.834a2.45,2.45,0,0,0,.141-.82ZM26.743,23.6a2.479,2.479,0,0,0-1.641,0V20.18h1.641Zm-8.2,10.526V32.487H20.18v1.641A.82.82,0,0,1,18.539,34.128Zm3.282,0V32.487h1.641v1.641A.82.82,0,0,1,21.82,34.128Zm1.641-3.282H21.82V24.282a.82.82,0,0,1,1.641,0Zm-3.282,0H18.539V24.282a.82.82,0,0,1,1.641,0ZM16.9,23.6a2.479,2.479,0,0,0-1.641,0V20.18H16.9ZM15.257,37.409V25.923a.82.82,0,0,1,1.641,0V37.409A.82.82,0,0,1,15.257,37.409Zm3.282,0v-.82h4.923v.82a2.449,2.449,0,0,0,.141.82H18.4a2.449,2.449,0,0,0,.141-.82Zm6.564,0V25.923a.82.82,0,0,1,1.641,0V37.409A.82.82,0,0,1,25.1,37.409Zm3.282,0V23.859l1.641-2.965V37.41a2.449,2.449,0,0,0,.141.82H28.244a2.45,2.45,0,0,0,.141-.821Zm8.2-3.282H34.948V23.461h1.641Zm-3.282,0H31.666V23.461h1.641ZM31.666,37.41V35.769h1.641V37.41A.82.82,0,0,1,31.666,37.41Zm3.282,0V35.769h1.641V37.41A.82.82,0,0,1,34.948,37.41Zm4.1-12.307a.821.821,0,0,1-.82-.82V18.538h1.641v5.743A.821.821,0,0,1,39.051,25.1ZM31.666,6.231a2.461,2.461,0,1,1,2.461,2.461A2.464,2.464,0,0,1,31.666,6.231Zm2.461,4.1a5.75,5.75,0,0,1,5.743,5.743V16.9H37.41a.82.82,0,0,0-.82.82v4.1H31.666v-4.1a.82.82,0,0,0-.454-.734l-2.807-1.4a5.751,5.751,0,0,1,5.722-5.247Zm-4.414,7.736-1.329,2.4V17.718q0-.159-.007-.317ZM21,7.052a2.461,2.461,0,1,1-2.461,2.461A2.464,2.464,0,0,1,21,7.052Zm-2.661,5.581a4.118,4.118,0,0,0,5.322,0,5.747,5.747,0,0,1,3.082,5.085v.821H24.282a.82.82,0,0,0-.82.82v2.6A2.478,2.478,0,0,0,21,22.449a2.478,2.478,0,0,0-2.461-.488v-2.6a.82.82,0,0,0-.82-.82H15.257v-.821A5.745,5.745,0,0,1,18.339,12.633Zm-4.723,5.085v2.753l-1.329-2.4,1.336-.668Q13.616,17.559,13.616,17.718ZM7.872,3.77A2.461,2.461,0,1,1,5.411,6.231,2.464,2.464,0,0,1,7.872,3.77Zm0,6.564a5.751,5.751,0,0,1,5.722,5.247l-2.807,1.4a.821.821,0,0,0-.454.734v4.1H5.411v-4.1a.82.82,0,0,0-.82-.82H2.129v-.821a5.75,5.75,0,0,1,5.743-5.743ZM2.95,25.1a.821.821,0,0,1-.82-.82V18.538H3.77v5.743A.822.822,0,0,1,2.95,25.1ZM5.411,37.41V35.769H7.052V37.41A.82.82,0,0,1,5.411,37.41Z"/>
      <path id="Trazado_156800" data-name="Trazado 156800" d="M8.693,26.333a.821.821,0,1,0-.82.821.82.82,0,0,0,.82-.821Z"/>
    </g>
  </g>
</svg>
