<svg xmlns="http://www.w3.org/2000/svg" width="137.997" height="138" viewBox="0 0 137.997 138">
  <g id="confidencial" transform="translate(-2.226 -2.223)">
    <path id="Trazado_155819" data-name="Trazado 155819" d="M89.031,129.094V138H31.161v-8.9h57.87Z" fill="#969faa"/>
    <g id="Grupo_108330" data-name="Grupo 108330">
      <path id="Trazado_155820" data-name="Trazado 155820" d="M82.353,120.191l6.677,8.9H69v-8.9Z" fill="#aab2bd"/>
      <path id="Trazado_155821" data-name="Trazado 155821" d="M51.193,120.191v8.9H31.161l6.677-8.9Z" fill="#aab2bd"/>
      <path id="Trazado_155822" data-name="Trazado 155822" d="M69,120.191v8.9H51.193V111.288H69Z" fill="#aab2bd"/>
    </g>
    <path id="Trazado_155823" data-name="Trazado 155823" d="M115.74,93.482v8.9a8.9,8.9,0,0,1-8.9,8.9H13.355a8.9,8.9,0,0,1-8.9-8.9v-8.9Z" fill="#ccd1d9"/>
    <path id="Trazado_155824" data-name="Trazado 155824" d="M115.74,93.482H4.452V44.515a8.9,8.9,0,0,1,8.9-8.9H115.74Z" fill="#69d6f4"/>
    <path id="Trazado_155825" data-name="Trazado 155825" d="M138,22.258V57.87a8.9,8.9,0,0,1-8.9,8.9H66.773a8.9,8.9,0,0,1-8.9-8.9V22.258Z" fill="#e6e9ed"/>
    <path id="Trazado_155826" data-name="Trazado 155826" d="M138,22.258H57.87v-8.9a8.9,8.9,0,0,1,8.9-8.9H84.579A8.9,8.9,0,0,1,91.7,8.013l4.006,5.342h33.386A8.9,8.9,0,0,1,138,22.258Z" fill="#b4dd7f"/>
    <path id="Trazado_155827" data-name="Trazado 155827" d="M129.094,51.193v4.452a2.232,2.232,0,0,1-2.226,2.226H113.514a2.232,2.232,0,0,1-2.226-2.226V51.193a2.232,2.232,0,0,1,2.226-2.226h13.355A2.232,2.232,0,0,1,129.094,51.193Z" fill="#fcd770"/>
    <path id="Trazado_155828" data-name="Trazado 155828" d="M48.967,24.483A20.113,20.113,0,0,1,35.612,43.358v5.609H31.161v8.9h4.452v8.9H31.161v8.9h4.452v4.452a4.465,4.465,0,0,1-4.452,4.452H26.709a4.465,4.465,0,0,1-4.452-4.452V43.358A20.108,20.108,0,0,1,8.9,23.838,20.273,20.273,0,0,1,28.356,4.452,20.038,20.038,0,0,1,48.967,24.483ZM35.612,20.032a6.677,6.677,0,1,0-6.677,6.677A6.668,6.668,0,0,0,35.612,20.032Z" fill="#fcd770"/>
    <path id="Trazado_155829" data-name="Trazado 155829" d="M28.935,28.935a8.9,8.9,0,1,0-8.9-8.9A8.912,8.912,0,0,0,28.935,28.935Zm0-13.355a4.452,4.452,0,1,1-4.452,4.452A4.456,4.456,0,0,1,28.935,15.58Z"/>
    <path id="Trazado_155830" data-name="Trazado 155830" d="M57.87,100.159h4.452v4.452H57.87Z"/>
    <path id="Trazado_155831" data-name="Trazado 155831" d="M48.967,100.159h4.452v4.452H48.967Z"/>
    <path id="Trazado_155832" data-name="Trazado 155832" d="M66.773,100.159h4.452v4.452H66.773Z"/>
    <path id="Trazado_155833" data-name="Trazado 155833" d="M129.094,11.129H96.821L93.482,6.677a11.185,11.185,0,0,0-8.9-4.452H66.773A11.141,11.141,0,0,0,55.644,13.355V33.386H49.287a22.217,22.217,0,0,0-21-31.152,22.545,22.545,0,0,0-21.6,21.541h0A22.221,22.221,0,0,0,8.983,34.328,11.094,11.094,0,0,0,2.226,44.515v57.87a11.141,11.141,0,0,0,11.129,11.129H48.967v4.452H36.725l-7.79,10.388v11.87H91.256v-11.87l-7.79-10.388H71.224v-4.452h35.612a11.141,11.141,0,0,0,11.129-11.129V69h11.129A11.141,11.141,0,0,0,140.223,57.87V22.258A11.141,11.141,0,0,0,129.094,11.129ZM66.773,6.677H84.579a6.714,6.714,0,0,1,5.342,2.671l4.674,6.232h34.5a6.668,6.668,0,0,1,6.268,4.452H60.1V13.355A6.685,6.685,0,0,1,66.773,6.677ZM11.14,23.914A18.028,18.028,0,0,1,28.412,6.684q.264-.007.528-.007a17.795,17.795,0,0,1,5.929,34.575l-1.482.528v4.961H28.935V60.1h4.452v4.452H28.935V77.9h4.452v2.226a2.228,2.228,0,0,1-2.226,2.226H26.709a2.228,2.228,0,0,1-2.226-2.226V41.78L23,41.255A17.752,17.752,0,0,1,11.14,23.914Zm27.811,98.5H48.967v4.452H35.612Zm-5.564,13.355V131.32H86.8v4.452ZM81.24,122.417l3.339,4.452H71.224v-4.452Zm-14.467,4.452H53.418V113.514H66.773Zm40.064-17.806H13.355a6.685,6.685,0,0,1-6.677-6.677V95.708H113.514v6.677A6.685,6.685,0,0,1,106.837,109.062Zm6.677-17.806H6.677V44.515a6.673,6.673,0,0,1,4.692-6.377,22.191,22.191,0,0,0,8.663,6.726V80.128A6.685,6.685,0,0,0,26.709,86.8h4.452a6.685,6.685,0,0,0,6.677-6.677V73.45H33.386V69h4.452V55.644H33.386V51.193h4.452V44.865a22.218,22.218,0,0,0,8.81-7.027h9V57.87A11.141,11.141,0,0,0,66.773,69h46.741Zm15.58-26.709H66.773A6.685,6.685,0,0,1,60.1,57.87V24.483h75.676V57.87A6.685,6.685,0,0,1,129.094,64.547Z"/>
    <path id="Trazado_155834" data-name="Trazado 155834" d="M64.547,11.129H69V15.58H64.547Z"/>
    <path id="Trazado_155835" data-name="Trazado 155835" d="M82.353,11.129H86.8V15.58H82.353Z"/>
    <path id="Trazado_155836" data-name="Trazado 155836" d="M73.45,11.129H77.9V15.58H73.45Z"/>
    <path id="Trazado_155837" data-name="Trazado 155837" d="M69,73.45h40.064V77.9H69Z"/>
    <path id="Trazado_155838" data-name="Trazado 155838" d="M69,82.353H91.256V86.8H69Z"/>
    <path id="Trazado_155839" data-name="Trazado 155839" d="M104.611,82.353h4.452V86.8h-4.452Z"/>
    <path id="Trazado_155840" data-name="Trazado 155840" d="M95.708,82.353h4.452V86.8H95.708Z"/>
    <path id="Trazado_155841" data-name="Trazado 155841" d="M126.869,46.741H113.514a4.456,4.456,0,0,0-4.452,4.452v4.452a4.456,4.456,0,0,0,4.452,4.452h13.355a4.456,4.456,0,0,0,4.452-4.452V51.193A4.456,4.456,0,0,0,126.869,46.741Zm-13.355,8.9V51.193h13.355l0,4.452Z"/>
    <path id="Trazado_155842" data-name="Trazado 155842" d="M64.547,55.644H69V60.1H64.547Z"/>
    <path id="Trazado_155843" data-name="Trazado 155843" d="M64.547,37.838H69V42.29H64.547Z"/>
    <path id="Trazado_155844" data-name="Trazado 155844" d="M64.547,46.741H69v4.452H64.547Z"/>
  </g>
</svg>
