<svg xmlns="http://www.w3.org/2000/svg" width="85" height="85" viewBox="0 0 85 85">
  <g id="Grupo_108899" data-name="Grupo 108899" transform="translate(-180 -4807)">
    <circle id="Elipse_4518" data-name="Elipse 4518" cx="42.5" cy="42.5" r="42.5" transform="translate(180 4807)" fill="#ff6d60"/>
    <g id="relacion" transform="translate(192 4819)">
      <g id="Grupo_108365" data-name="Grupo 108365">
        <path id="Trazado_155993" data-name="Trazado 155993" d="M25.733,13.732l-.685,18.581a6.387,6.387,0,0,1-6.089,6.146,2.389,2.389,0,0,0-2.334,1.881l-.618,1.946-6.177.574-7.241-.574,2.041-7.444-.786-21.11Z" fill="#ffcebf"/>
        <path id="Trazado_155994" data-name="Trazado 155994" d="M18.959,38.46a2.389,2.389,0,0,0-2.334,1.881l-.618,1.946-5.681.574L12,36.819a.419.419,0,0,1,.683-.2c.8.715,2.669,1.9,6.28,1.842Z" fill="#ffb09e"/>
        <path id="Trazado_155995" data-name="Trazado 155995" d="M19.915,45.239v1.706l-7.047.622L2.588,46.945V42.286H16.961a2.953,2.953,0,0,1,2.953,2.952Z" fill="#fff9df"/>
        <path id="Trazado_155996" data-name="Trazado 155996" d="M19.915,45.239v1.706l-2.588.473V45.239a2.953,2.953,0,0,0-2.953-2.952h2.588a2.953,2.953,0,0,1,2.953,2.952Z" fill="#fff0ad"/>
        <path id="Trazado_155997" data-name="Trazado 155997" d="M31.739,55.66c0,.747,0,1.352,0,1.352H2.588V46.945H23.024A8.715,8.715,0,0,1,31.739,55.66Z" fill="#a274bf"/>
        <path id="Trazado_155998" data-name="Trazado 155998" d="M31.739,55.66c0,.747,0,1.352,0,1.352H25.733l.9-.254a1.556,1.556,0,0,0,1.112-1.734c-.657-4.282-4.261-8.08-8.608-8.08h3.891A8.715,8.715,0,0,1,31.739,55.66Z" fill="#925cb4"/>
        <path id="Trazado_155999" data-name="Trazado 155999" d="M30.942,12.581a5.939,5.939,0,0,1-5.729,5.934l-4.3.136-12.707.4v4.6H5.761A1.365,1.365,0,0,0,4.4,25.023v2.758A1.364,1.364,0,0,0,5.76,29.145H8.2V31.9a2.944,2.944,0,0,1-5.875.291l-1.4-14.2a6.809,6.809,0,0,1,6.235-7.456l5.806-.465a25.7,25.7,0,0,0,8.389-2.129l1.832-.815.418-.186a3.487,3.487,0,0,1,1.411-.3,5.937,5.937,0,0,1,5.925,5.938Z" fill="#87523e"/>
        <path id="Trazado_156000" data-name="Trazado 156000" d="M30.942,12.581a5.939,5.939,0,0,1-5.729,5.934l-4.3.136.132-.136A5.939,5.939,0,0,0,23.189,7.128l.418-.186a3.487,3.487,0,0,1,1.411-.3,5.937,5.937,0,0,1,5.925,5.938Z" fill="#7c4b37"/>
        <path id="Trazado_156001" data-name="Trazado 156001" d="M60.106,6.754V21.833A2.767,2.767,0,0,1,57.34,24.6L53.773,24.6,49.8,23.987l-3.973.613H42.262A2.767,2.767,0,0,1,39.5,21.833V6.754a2.766,2.766,0,0,1,2.766-2.766H57.34A2.767,2.767,0,0,1,60.106,6.754Z" fill="#fff9df"/>
        <path id="Trazado_156002" data-name="Trazado 156002" d="M60.106,6.754V21.833A2.767,2.767,0,0,1,57.34,24.6H53.893a2.767,2.767,0,0,0,2.766-2.768V6.754a2.767,2.767,0,0,0-2.766-2.766H57.34A2.767,2.767,0,0,1,60.106,6.754Z" fill="#fff0ad"/>
        <path id="Trazado_156003" data-name="Trazado 156003" d="M53.773,19.105V24.6H45.828V19.105a3.973,3.973,0,0,1,7.945,0Z" fill="#a274bf"/>
        <path id="Trazado_156004" data-name="Trazado 156004" d="M53.773,19.105V24.6h-2.66V19.105a3.982,3.982,0,0,0-2.643-3.745,3.975,3.975,0,0,1,5.3,3.745Z" fill="#925cb4"/>
        <path id="Trazado_156005" data-name="Trazado 156005" d="M52.956,11.977a3.152,3.152,0,1,1-.923-2.231,3.147,3.147,0,0,1,.923,2.231Z" fill="#ffcebf"/>
        <path id="Trazado_156006" data-name="Trazado 156006" d="M52.956,11.977A3.155,3.155,0,0,1,48.609,14.9a3.155,3.155,0,0,0,0-5.844,3.154,3.154,0,0,1,4.346,2.921Z" fill="#ffb09e"/>
        <path id="Trazado_156007" data-name="Trazado 156007" d="M56.487,42.3v12.43a2.281,2.281,0,0,1-2.28,2.282h-2.94l-3.276-.579-3.275.579h-2.94a2.281,2.281,0,0,1-2.28-2.282V42.3a2.281,2.281,0,0,1,2.28-2.282H54.207A2.281,2.281,0,0,1,56.487,42.3Z" fill="#fff9df"/>
        <path id="Trazado_156008" data-name="Trazado 156008" d="M56.487,42.3v12.43a2.281,2.281,0,0,1-2.28,2.282H50.931a2.281,2.281,0,0,0,2.28-2.282V42.3a2.281,2.281,0,0,0-2.28-2.282h3.275A2.281,2.281,0,0,1,56.487,42.3Z" fill="#fff0ad"/>
        <path id="Trazado_156009" data-name="Trazado 156009" d="M51.266,52.482v4.53h-6.55v-4.53a3.275,3.275,0,1,1,6.55,0Z" fill="#a274bf"/>
        <path id="Trazado_156010" data-name="Trazado 156010" d="M51.266,52.482v4.53h-2.6v-4.53a3.275,3.275,0,0,0-1.974-3.006,3.275,3.275,0,0,1,4.576,3.006Z" fill="#925cb4"/>
        <path id="Trazado_156011" data-name="Trazado 156011" d="M50.592,46.606a2.6,2.6,0,1,1-3.673-2.37A2.559,2.559,0,0,1,47.991,44a2.6,2.6,0,0,1,2.6,2.6Z" fill="#ffcebf"/>
        <path id="Trazado_156012" data-name="Trazado 156012" d="M50.592,46.606a2.6,2.6,0,0,1-3.673,2.37,2.6,2.6,0,0,0,0-4.739A2.559,2.559,0,0,1,47.991,44a2.6,2.6,0,0,1,2.6,2.6Z" fill="#ffb09e"/>
        <path id="Trazado_156013" data-name="Trazado 156013" d="M60.062,30.287V34.06a1.688,1.688,0,0,1-1.688,1.688H54.6a1.689,1.689,0,0,1-1.689-1.688V30.287A1.689,1.689,0,0,1,54.6,28.6h3.773a1.688,1.688,0,0,1,1.688,1.688Z" fill="#a274bf"/>
        <path id="Trazado_156014" data-name="Trazado 156014" d="M60.062,30.287V34.06a1.688,1.688,0,0,1-1.688,1.688H55.66a1.688,1.688,0,0,0,1.688-1.688V30.287A1.688,1.688,0,0,0,55.66,28.6h2.714a1.688,1.688,0,0,1,1.688,1.688Z" fill="#925cb4"/>
      </g>
      <g id="Grupo_108366" data-name="Grupo 108366">
        <path id="Trazado_156015" data-name="Trazado 156015" d="M23.024,46.051H20.808v-.812A3.851,3.851,0,0,0,17.225,41.4c.308-.969.55-2,1.775-2.05a7.282,7.282,0,0,0,6.941-7.006l.482-13.083A6.832,6.832,0,0,0,29.815,7.73a6.5,6.5,0,0,0-5.879-1.845,19.408,19.408,0,0,0-2.942,1.241c-.234.1-.471.2-.705.3a.894.894,0,0,0,.674,1.655c.251-.1.506-.211.757-.322.736-.327,1.468-.712,2.224-.989A4.551,4.551,0,0,1,28.557,9a5.044,5.044,0,0,1-3.372,8.623l-17.01.538a.893.893,0,0,0-.865.893v3.711H5.761A2.261,2.261,0,0,0,3.5,25.022v2.759a2.261,2.261,0,0,0,2.259,2.258H7.31V31.9A2.054,2.054,0,0,1,5.258,33.95,2.077,2.077,0,0,1,3.217,32.1l-1.4-14.2A5.871,5.871,0,0,1,3.165,13.53c2.279-2.726,6.648-2.309,9.874-2.567a26.636,26.636,0,0,0,3.735-.567.894.894,0,1,0-.393-1.743,24.845,24.845,0,0,1-3.484.529c-3.836.307-8.389-.044-11.1,3.2a7.645,7.645,0,0,0-1.756,5.7l1.4,14.195a3.872,3.872,0,0,0,2.127,3.069L1.727,42.05a.9.9,0,0,0-.032.236V57.012a.893.893,0,0,0,.894.894H8.7a.894.894,0,0,0,0-1.787H3.482V47.838H23.024a7.831,7.831,0,0,1,7.822,7.822v.459H12.907a.894.894,0,1,0,0,1.787H31.74a.893.893,0,0,0,.894-.894V55.66a9.62,9.62,0,0,0-9.609-9.609ZM9.1,31.9V29.145a.894.894,0,0,0-.894-.894H5.761a.474.474,0,0,1-.472-.472V25.023a.472.472,0,0,1,.472-.472H8.2a.894.894,0,0,0,.894-.894V19.919l15.532-.491-.474,12.853a5.527,5.527,0,0,1-5.22,5.286h0c-3.143.052-4.816-.923-5.541-1.518a.893.893,0,0,0-1.128,1.385,8.5,8.5,0,0,0,3.9,1.7,10.123,10.123,0,0,0-.813,2.26H3.76l1.551-5.657A3.843,3.843,0,0,0,9.1,31.9ZM3.482,46.051V43.18h13.48a2.062,2.062,0,0,1,2.059,2.059v.812H3.482Z"/>
        <path id="Trazado_156016" data-name="Trazado 156016" d="M20.156,29.611a.894.894,0,0,0,1.721-.481l-.735-2.63a.894.894,0,1,0-1.721.481Z"/>
        <path id="Trazado_156017" data-name="Trazado 156017" d="M18.021,35.177q.135,0,.271-.01a3.891,3.891,0,0,0,1.232-.292.893.893,0,0,0-.69-1.648,2.116,2.116,0,0,1-2.434-.592.894.894,0,0,0-1.368,1.15,3.915,3.915,0,0,0,2.989,1.392Z"/>
        <path id="Trazado_156018" data-name="Trazado 156018" d="M60.106,10.782A.893.893,0,0,0,61,9.889V6.755a3.664,3.664,0,0,0-3.66-3.66H42.261a3.664,3.664,0,0,0-3.66,3.66V21.833c0,.011,0,.022,0,.032l-7.445,6.4a.893.893,0,1,0,1.165,1.355l6.825-5.865a3.661,3.661,0,0,0,3.114,1.74H57.34A3.664,3.664,0,0,0,61,21.833V14.058a.894.894,0,1,0-1.787,0v7.774a1.875,1.875,0,0,1-1.873,1.873H54.667v-4.6a4.865,4.865,0,0,0-2.211-4.075,4.049,4.049,0,1,0-5.31,0,4.865,4.865,0,0,0-2.211,4.075v4.6H42.261a1.875,1.875,0,0,1-1.873-1.873V6.755a1.875,1.875,0,0,1,1.873-1.873H57.34a1.875,1.875,0,0,1,1.873,1.873V9.889a.893.893,0,0,0,.894.894Zm-12.568,1.2A2.262,2.262,0,1,1,49.8,14.24a2.265,2.265,0,0,1-2.262-2.262Zm-.817,7.128a3.079,3.079,0,0,1,6.158,0v4.6H46.722v-4.6Z"/>
        <path id="Trazado_156019" data-name="Trazado 156019" d="M54.206,39.126H41.775A3.178,3.178,0,0,0,38.6,42.3v3.8l-6.183-7.208a.894.894,0,0,0-1.356,1.164l7.54,8.789v5.885a3.178,3.178,0,0,0,3.174,3.174H54.206a3.178,3.178,0,0,0,3.174-3.174V42.3a3.178,3.178,0,0,0-3.174-3.174Zm-8.6,16.993V52.483a2.381,2.381,0,0,1,4.763,0v3.636Zm.673-9.512a1.708,1.708,0,1,1,1.708,1.708A1.71,1.71,0,0,1,46.283,46.606Zm9.311,8.125a1.389,1.389,0,0,1-1.387,1.387H52.16V52.483a4.165,4.165,0,0,0-1.729-3.377,3.5,3.5,0,1,0-4.879,0,4.165,4.165,0,0,0-1.729,3.377v3.636H41.775a1.389,1.389,0,0,1-1.387-1.387V42.3a1.389,1.389,0,0,1,1.387-1.387H54.206A1.389,1.389,0,0,1,55.594,42.3Z"/>
        <path id="Trazado_156020" data-name="Trazado 156020" d="M58.374,27.7H54.6a2.585,2.585,0,0,0-2.582,2.582v.993H43.665a.894.894,0,0,0,0,1.787h8.354v.993A2.585,2.585,0,0,0,54.6,36.642h3.773a2.585,2.585,0,0,0,2.582-2.582V30.287A2.585,2.585,0,0,0,58.374,27.7Zm.8,6.355a.8.8,0,0,1-.8.8H54.6a.8.8,0,0,1-.8-.8V30.287a.8.8,0,0,1,.8-.8h3.773a.8.8,0,0,1,.8.8Z"/>
      </g>
    </g>
  </g>
</svg>
