<svg xmlns="http://www.w3.org/2000/svg" width="55" height="55" viewBox="0 0 55 55">
  <g id="compras_1_" data-name="compras (1)" transform="translate(-0.887 -0.887)">
    <g id="Grupo_108395" data-name="Grupo 108395">
      <g id="Grupo_108375" data-name="Grupo 108375">
        <path id="Trazado_156069" data-name="Trazado 156069" d="M11.541,41.694l.763,6.1a1.709,1.709,0,0,1,.009.213,1.647,1.647,0,0,1-.532,1.215L7.1,45.242V33.71H9.758a.89.89,0,0,1,.878.781Z" fill="#dfb28b"/>
      </g>
      <g id="Grupo_108376" data-name="Grupo 108376">
        <path id="Trazado_156070" data-name="Trazado 156070" d="M7.1,33.71V45.242L2.315,49.234H2.306a1.682,1.682,0,0,1-.532-1.224,1.709,1.709,0,0,1,.009-.213L3.451,34.49a.89.89,0,0,1,.878-.781H7.1Z" fill="#dfb28b"/>
      </g>
      <g id="Grupo_108377" data-name="Grupo 108377">
        <path id="Trazado_156071" data-name="Trazado 156071" d="M54.991,47.8A1.71,1.71,0,0,1,55,48.01a1.682,1.682,0,0,1-.532,1.224h-.009l-4.781-3.992V33.71h2.768a.89.89,0,0,1,.878.781Z" fill="#dfb28b"/>
      </g>
      <g id="Grupo_108378" data-name="Grupo 108378">
        <path id="Trazado_156072" data-name="Trazado 156072" d="M45.233,41.694l.9-7.2a.89.89,0,0,1,.878-.781h2.661V45.242l-4.693,3.983a1.688,1.688,0,0,1-.523-1.215,1.71,1.71,0,0,1,.009-.213Z" fill="#dfb28b"/>
      </g>
      <g id="Grupo_108379" data-name="Grupo 108379">
        <path id="Trazado_156073" data-name="Trazado 156073" d="M7.1,45.242l4.684,3.983a1.618,1.618,0,0,1-1.135.452h-7.2a1.644,1.644,0,0,1-1.127-.444Z" fill="#cf9e76"/>
      </g>
      <g id="Grupo_108380" data-name="Grupo 108380">
        <path id="Trazado_156074" data-name="Trazado 156074" d="M53.226,27.5A1.779,1.779,0,0,1,55,29.274a1.787,1.787,0,0,1-1.774,1.774H51.452V27.5Z" fill="#f0d0b4"/>
      </g>
      <g id="Grupo_108381" data-name="Grupo 108381">
        <path id="Trazado_156075" data-name="Trazado 156075" d="M49.677,45.242l4.781,3.992a1.644,1.644,0,0,1-1.127.444h-7.2a1.68,1.68,0,0,1-1.144-.452Z" fill="#cf9e76"/>
      </g>
      <g id="Grupo_108382" data-name="Grupo 108382">
        <path id="Trazado_156076" data-name="Trazado 156076" d="M51.452,31.048V33.71H47.9v-7.1a.89.89,0,0,1,.887-.887h1.774a.89.89,0,0,1,.887.887v4.435Z" fill="#ccd1d9"/>
      </g>
      <g id="Grupo_108383" data-name="Grupo 108383">
        <path id="Trazado_156077" data-name="Trazado 156077" d="M42,33.958l.106-.293L43.5,29.833A3.554,3.554,0,0,1,46.839,27.5H47.9v6.21h-.887a.89.89,0,0,0-.878.781l-.9,7.2-.612.31a5.457,5.457,0,0,1-6.3-1.02L36.628,39.29l.2-1.18q.173-1.025.266-2.049H37.1Z" fill="#f0d0b4"/>
      </g>
      <g id="Grupo_108384" data-name="Grupo 108384">
        <path id="Trazado_156078" data-name="Trazado 156078" d="M40.31,30.055a6.181,6.181,0,0,0-4.045-3.247l-1.3-.328-3.034-.754v2.661a1.779,1.779,0,0,1-1.774,1.774H26.613a1.757,1.757,0,0,1-.532-.08h-.009a3.6,3.6,0,0,1-1.127,1.189l-.994.665-.683-.461a4.422,4.422,0,0,1-1.978-3.69V26.613l-.781.2a6.181,6.181,0,0,0-4.045,3.247l-1.8,3.61.106.293,4.906,2.1h.009q.093,1.025.266,2.049l.2,1.18,1.144,6.84H35.484l1.144-6.84.2-1.18q.173-1.025.266-2.049H37.1L42,33.958l.106-.293Z" fill="#ff826e"/>
      </g>
      <g id="Grupo_108385" data-name="Grupo 108385">
        <path id="Trazado_156079" data-name="Trazado 156079" d="M41.694,55H15.081a19.04,19.04,0,0,1,6.156-8.827l.053-.044H35.484l.053.044A19.039,19.039,0,0,1,41.694,55Z" fill="#aab2bd"/>
      </g>
      <g id="Grupo_108386" data-name="Grupo 108386">
        <path id="Trazado_156080" data-name="Trazado 156080" d="M34.1,8.374a3.092,3.092,0,0,1-1.685.5A3.124,3.124,0,0,1,30.2,7.948,3.138,3.138,0,0,1,25.2,7.2l-1.056.213a3.544,3.544,0,0,0-2.856,3.477v5.074a7.11,7.11,0,0,0,2.076,5.021,7,7,0,0,0,2.28,1.526l-.63,2.5.506.506a3.732,3.732,0,0,1,1.091,2.644,3.792,3.792,0,0,1-1.668,3.1l-.994.665-.683-.461a4.422,4.422,0,0,1-1.978-3.69v-1.73a10.548,10.548,0,0,1-3.548-7.886V10.645a8.874,8.874,0,0,1,8.871-8.871h3.548a8.874,8.874,0,0,1,8.871,8.871v7.523a10.525,10.525,0,0,1-4.063,8.312l-3.034-.754-.807-3.211a7.088,7.088,0,0,0,4.356-6.547V11.594a4.431,4.431,0,0,0-1.3-3.131Z" fill="#fcd770"/>
      </g>
      <g id="Grupo_108387" data-name="Grupo 108387">
        <path id="Trazado_156081" data-name="Trazado 156081" d="M35.484,11.594v4.373a7.1,7.1,0,0,1-9.838,6.547,7,7,0,0,1-2.28-1.526,7.11,7.11,0,0,1-2.076-5.021V10.894a3.544,3.544,0,0,1,2.856-3.477L25.2,7.2a3.138,3.138,0,0,0,4.994.745,3.124,3.124,0,0,0,2.218.923,3.092,3.092,0,0,0,1.685-.5l.089.089a4.431,4.431,0,0,1,1.3,3.131Z" fill="#f0d0b4"/>
      </g>
      <g id="Grupo_108388" data-name="Grupo 108388">
        <path id="Trazado_156082" data-name="Trazado 156082" d="M31.935,25.726v2.661a1.779,1.779,0,0,1-1.774,1.774H26.613a1.757,1.757,0,0,1-.532-.08h-.009a3.614,3.614,0,0,0,.541-1.916,3.732,3.732,0,0,0-1.091-2.644l-.506-.506.63-2.5a7.106,7.106,0,0,0,5.482,0Z" fill="#f0d0b4"/>
      </g>
      <g id="Grupo_108389" data-name="Grupo 108389">
        <path id="Trazado_156083" data-name="Trazado 156083" d="M24.839,15.968h7.1a3.548,3.548,0,1,1-7.1,0Z" fill="#ff826e"/>
      </g>
      <g id="Grupo_108390" data-name="Grupo 108390">
        <path id="Trazado_156084" data-name="Trazado 156084" d="M28.387,40.15a2.722,2.722,0,0,1-.293,1.242L27.5,42.581l-.763-.257a2.69,2.69,0,0,1-1.375-1.011,2.791,2.791,0,0,1-.523-1.623,2.722,2.722,0,0,1,.293-1.242l.594-1.189.763.257a2.69,2.69,0,0,1,1.375,1.011A2.791,2.791,0,0,1,28.387,40.15Z" fill="#fcd770"/>
      </g>
      <g id="Grupo_108391" data-name="Grupo 108391">
        <path id="Trazado_156085" data-name="Trazado 156085" d="M26.613,34.827a2.722,2.722,0,0,1-.293,1.242l-.594,1.189L24.963,37a2.69,2.69,0,0,1-1.375-1.011,2.791,2.791,0,0,1-.523-1.623,2.722,2.722,0,0,1,.293-1.242l.594-1.189.763.257A2.69,2.69,0,0,1,26.09,33.2,2.791,2.791,0,0,1,26.613,34.827Z" fill="#fcd770"/>
      </g>
      <g id="Grupo_108392" data-name="Grupo 108392">
        <path id="Trazado_156086" data-name="Trazado 156086" d="M14.77,33.958l4.906,2.1h.009q.093,1.025.266,2.049l.2,1.18-1.694,1.694a5.457,5.457,0,0,1-6.3,1.02l-.612-.31-.9-7.2a.89.89,0,0,0-.878-.781H8.871V27.5H9.935a3.554,3.554,0,0,1,3.335,2.333l1.393,3.832Z" fill="#f0d0b4"/>
      </g>
      <g id="Grupo_108393" data-name="Grupo 108393">
        <path id="Trazado_156087" data-name="Trazado 156087" d="M8.871,27.5v6.21H5.323v-7.1a.89.89,0,0,1,.887-.887H7.984a.89.89,0,0,1,.887.887Z" fill="#ccd1d9"/>
      </g>
      <g id="Grupo_108394" data-name="Grupo 108394">
        <path id="Trazado_156088" data-name="Trazado 156088" d="M5.323,27.5v3.548H3.548a1.787,1.787,0,0,1-1.774-1.774A1.779,1.779,0,0,1,3.548,27.5Z" fill="#f0d0b4"/>
      </g>
    </g>
    <g id="Grupo_108396" data-name="Grupo 108396">
      <circle id="Elipse_4874" data-name="Elipse 4874" cx="0.887" cy="0.887" r="0.887" transform="translate(23.952 11.532)"/>
      <circle id="Elipse_4875" data-name="Elipse 4875" cx="0.887" cy="0.887" r="0.887" transform="translate(31.048 11.532)"/>
      <path id="Trazado_156089" data-name="Trazado 156089" d="M28.387,20.4a4.441,4.441,0,0,0,4.435-4.435v-.887H23.952v.887A4.441,4.441,0,0,0,28.387,20.4Zm2.51-3.548a2.662,2.662,0,0,1-5.019,0Z"/>
      <path id="Trazado_156090" data-name="Trazado 156090" d="M54.2,34.377a1.777,1.777,0,0,0-1.761-1.554h-.1v-.887h.887a2.661,2.661,0,1,0,0-5.323h-.887a1.776,1.776,0,0,0-1.774-1.774H48.79a1.776,1.776,0,0,0-1.774,1.774H46.84a4.448,4.448,0,0,0-4.168,2.919l-.687,1.889L41.1,29.657a7.083,7.083,0,0,0-4.341-3.623,11.328,11.328,0,0,0,3.157-7.867V10.645A9.77,9.77,0,0,0,30.161.887H26.613a9.77,9.77,0,0,0-9.758,9.758v7.523a11.422,11.422,0,0,0,3.16,7.866,7.084,7.084,0,0,0-4.344,3.624l-.882,1.764L14.1,29.532a4.448,4.448,0,0,0-4.168-2.919H9.758a1.776,1.776,0,0,0-1.774-1.774H6.21a1.776,1.776,0,0,0-1.774,1.774H3.548a2.661,2.661,0,1,0,0,5.323h.887v.887h-.1a1.777,1.777,0,0,0-1.76,1.554L.907,47.689a2.56,2.56,0,0,0,2.538,2.876h7.2A2.561,2.561,0,0,0,13.2,48.007a2.5,2.5,0,0,0-.02-.317l-.569-4.549a6.294,6.294,0,0,0,6.466-1.532l.478-.477.773,4.635A19.843,19.843,0,0,0,14.24,54.72l-.39,1.167H42.924l-.389-1.167a19.888,19.888,0,0,0-6.092-8.951l.773-4.637.478.478a6.3,6.3,0,0,0,6.467,1.531l-.569,4.546a2.561,2.561,0,0,0,2.537,2.877h7.2a2.56,2.56,0,0,0,2.557-2.557,2.5,2.5,0,0,0-.02-.317Zm-5.413.22V44.832l-3.416,2.9L47.016,34.6Zm.892,11.8,2.866,2.389H46.872Zm4.405,1.362-3.524-2.936V34.6h1.878Zm-.862-19.376a.887.887,0,1,1,0,1.774h-.887V28.387Zm-2.661-1.774v6.21H48.79v-6.21ZM18.629,10.645a7.993,7.993,0,0,1,7.984-7.984h3.548a7.993,7.993,0,0,1,7.984,7.984v7.523a9.575,9.575,0,0,1-3.412,7.343l-2.067-.516-.5-2a7.989,7.989,0,0,0,4.2-7.029V11.6a5.283,5.283,0,0,0-1.014-3.116l.755-.755L34.857,6.47,34,7.326a2.25,2.25,0,0,1-3.84-1.591v-1.3H28.387v1.3a3.978,3.978,0,0,0,.563,2.018,2.236,2.236,0,0,1-3.225-2.018v-1.3H23.952v1.3a3.988,3.988,0,0,0,.081.8l-.064.012A4.447,4.447,0,0,0,20.4,10.893v5.075A7.99,7.99,0,0,0,24.606,23l-.573,2.291.857.857a2.85,2.85,0,0,1-.434,4.388l-.5.336-.194-.13a3.543,3.543,0,0,1-1.58-2.954l0-2.134-.3-.264a9.656,9.656,0,0,1-3.247-7.219Zm6.178-2.46a4,4,0,0,0,5.391.9,3.981,3.981,0,0,0,3.681.387A3.513,3.513,0,0,1,34.6,11.6v4.372a6.21,6.21,0,1,1-12.419,0V10.893a2.668,2.668,0,0,1,2.139-2.61Zm1.339,16.706L26,24.745l.271-1.087a7.779,7.779,0,0,0,4.234,0l.545,2.177v2.552a.888.888,0,0,1-.887.887h-2.8a4.619,4.619,0,0,0-1.218-4.383ZM26.2,38.352A1.894,1.894,0,0,1,27.3,41l-.249.5-.029-.01a1.894,1.894,0,0,1-1.095-2.645l.249-.5Zm-.68-2.677-.249.5-.029-.01a1.894,1.894,0,0,1-1.095-2.645l.249-.5.029.01a1.894,1.894,0,0,1,1.095,2.645Zm-8.267-5.223A5.313,5.313,0,0,1,20.4,27.768v.02a5.313,5.313,0,0,0,2.37,4.428l.035.023-.243.486a3.655,3.655,0,0,0,1.918,5.035l-.144.287A3.669,3.669,0,0,0,26.46,43.17l1.489.5.938-1.874a3.7,3.7,0,0,0,.387-1.641,3.656,3.656,0,0,0-2.306-3.394l.144-.287a3.653,3.653,0,0,0-1.317-4.728,4.612,4.612,0,0,0,.691-.7c.043,0,.084.01.127.01h3.548a2.665,2.665,0,0,0,2.661-2.661V26.861l3.224.805a5.32,5.32,0,0,1,3.47,2.785L41,33.421,38.087,34.67c.035-.616.059-1.232.059-1.848H36.371a31.38,31.38,0,0,1-.425,5.141l-1.214,7.279H22.042l-1.214-7.279a31.381,31.381,0,0,1-.425-5.141H18.629c0,.616.024,1.232.059,1.848l-2.915-1.249ZM7.091,46.4,9.9,48.79H4.224Zm.892-1.569V34.6H9.758L11.4,47.736ZM3.548,30.161a.887.887,0,1,1,0-1.774h.887v1.774ZM6.21,26.613H7.984v6.21H6.21ZM4.332,34.6H6.21v10.23L2.686,47.763Zm13.495,5.758a4.542,4.542,0,0,1-3.232,1.339,4.594,4.594,0,0,1-2.044-.483l-.19-.095-.843-6.739a1.777,1.777,0,0,0-1.76-1.554V28.387h.176a2.669,2.669,0,0,1,2.5,1.752l2.7,7.422,1.668-.607-.5-1.377,2.557,1.1c.062.529.133,1.057.22,1.58l.122.727ZM40.418,54.113H16.356a18.139,18.139,0,0,1,5.26-7.1H35.161A18.059,18.059,0,0,1,40.418,54.113Zm3.806-12.9a4.594,4.594,0,0,1-2.044.483,4.544,4.544,0,0,1-3.232-1.339l-1.374-1.374.122-.727c.087-.523.158-1.051.22-1.58l2.557-1.1-.5,1.377,1.668.607,2.7-7.422a2.671,2.671,0,0,1,2.5-1.752h.176v4.435a1.777,1.777,0,0,0-1.76,1.554l-.843,6.739Z"/>
    </g>
  </g>
</svg>
