<svg xmlns="http://www.w3.org/2000/svg" width="52.08" height="55" viewBox="0 0 52.08 55">
  <g id="clasificacion" transform="translate(-1.46)">
    <g id="Grupo_108372" data-name="Grupo 108372">
      <path id="Trazado_156021" data-name="Trazado 156021" d="M52.248,49.38V37.065a7.955,7.955,0,0,0-7.141-7.913c-.267-.027-.539.039-.813.039a7.78,7.78,0,0,0-7.773,7.929V49.328Z" fill="#855b51"/>
      <path id="Trazado_156022" data-name="Trazado 156022" d="M45.154,29.158a7.954,7.954,0,0,0-7.094,7.907V49.288l-1.719.04V37.065a7.954,7.954,0,0,1,7.954-7.954,7.841,7.841,0,0,1,.859.046Z" fill="#724d44"/>
      <path id="Trazado_156023" data-name="Trazado 156023" d="M46.514,53.86V45.526l-.329-.974.329-2.861h-4.44l.188,4.525-.188,1.5V53.86l2.219.334Z" fill="#c48958"/>
      <path id="Trazado_156024" data-name="Trazado 156024" d="M41.988,46.427l-4.363,1.727.53,6.04h6.139l-.32-.352c-1.529-1.683-1.827-3.856-1.885-6.121-.013-.5-.1-.791-.1-1.294Z" fill="#ffd163"/>
      <path id="Trazado_156025" data-name="Trazado 156025" d="M42.089,47.721l-.014.005-4.331,1.78-.128-1.457,4.459-1.833.187.749Z" fill="#ffb65f"/>
      <path id="Trazado_156026" data-name="Trazado 156026" d="M51.07,48.095l-4.556-1.877c0,2.751-.03,5.581-1.915,7.643l-.305.334h7.366a1.075,1.075,0,0,0,1.075-1.075V50.58A2.688,2.688,0,0,0,51.07,48.095Z" fill="#ffd163"/>
      <path id="Trazado_156027" data-name="Trazado 156027" d="M42.075,41.693h0s0,3.828,0,3.828,0,1.7.014,2.2l1.116-.459a.43.43,0,0,0,.266-.4v-.477a.214.214,0,0,1,.251-.211,3.417,3.417,0,0,0,.57.049,4.2,4.2,0,0,0,2.22-.7V41.692H42.075Z" fill="#b27a49"/>
      <path id="Trazado_156028" data-name="Trazado 156028" d="M39.529,38.025a5.433,5.433,0,0,0-.058,1.081c.588,2.855,2.9,5.723,4.822,5.723,2.221,0,4.963-3.829,4.963-7.042a6.088,6.088,0,0,0-1.943-4.793c-.265-.218-.483-.2-.8-.351a.173.173,0,0,0-.244.115,6.689,6.689,0,0,1-5.059,4.827l-1.546.268C39.585,37.871,39.529,38.025,39.529,38.025Z" fill="#c48958"/>
      <path id="Trazado_156029" data-name="Trazado 156029" d="M41.534,38.649A7.72,7.72,0,0,0,47.313,33a4.332,4.332,0,0,0-.872-.56.173.173,0,0,0-.244.115,6.66,6.66,0,0,1-5.023,4.842l-1.706.365a.172.172,0,0,0-.136.17h0a6.673,6.673,0,0,0,.14,1.177Z" fill="#b27a49"/>
      <path id="Trazado_156030" data-name="Trazado 156030" d="M19.146,48.78l-6.22-2.216a2.866,2.866,0,0,1-4.371-.155l-4.49,1.866A2.478,2.478,0,0,0,2.373,50.58v2.432a1.075,1.075,0,0,0,1.075,1.075l.214.107H8.485l2.15-.275,2.29.275h3.968l2.253-.4Z" fill="#bae6ef"/>
      <path id="Trazado_156031" data-name="Trazado 156031" d="M12.769,42.767H8.7L8.719,46c.387.446.641.967,1.163,1.118a2.934,2.934,0,0,0,3.042-.9V44.512Z" fill="#f2d1a5"/>
      <path id="Trazado_156032" data-name="Trazado 156032" d="M9.469,47.131,4.791,49.248l-.33.138a1.286,1.286,0,0,0-.8,1.193v3.615H3.341a1.075,1.075,0,0,1-1.075-1.075V50.58a2.688,2.688,0,0,1,1.664-2.485l4.351-1.686a6.055,6.055,0,0,0,1.189.722Z" fill="#94d8e6"/>
      <path id="Trazado_156033" data-name="Trazado 156033" d="M18,48.307l-5.072,5.888H8.485L4.791,49.248l-.716-1.093,2.432-.846,1.979-1.092a2.936,2.936,0,0,0,4.439,0h0Z" fill="#f8f7f7"/>
      <path id="Trazado_156034" data-name="Trazado 156034" d="M9.883,42.768h-1.4v3.669l1.11.69a1.644,1.644,0,0,1,.287-.014v-1.8a.214.214,0,0,1,.248-.211,3.735,3.735,0,0,0,.574.045,4.545,4.545,0,0,0,2.22-.639V42.768Z" fill="#f2bb88"/>
      <g id="Grupo_108367" data-name="Grupo 108367">
        <path id="Trazado_156035" data-name="Trazado 156035" d="M9.883,47.114h0L4.791,49.248l-.86-1.153,4.556-1.878A2.815,2.815,0,0,0,9.883,47.114Z" fill="#e8e8e8"/>
      </g>
      <path id="Trazado_156036" data-name="Trazado 156036" d="M15.818,36.745c0-3.379-1.734-5.439-5.113-5.439s-5.113,2.06-5.113,5.439a6.9,6.9,0,0,0,.246,2.138c.841,2.613,3.025,4.872,4.866,4.872,1.825,0,3.986-2.219,4.843-4.8a6.934,6.934,0,0,0,.27-2.209Z" fill="#f2d1a5"/>
      <path id="Trazado_156037" data-name="Trazado 156037" d="M13.59,31.983a3.465,3.465,0,0,0-.978.252l0,.011a2.06,2.06,0,0,0-.208-.738,6.745,6.745,0,0,0-1.695-.2c-3.379,0-5.22,2.06-5.22,5.439a7.019,7.019,0,0,0,.355,2.137c.075-.068.156-.144.244-.234a10.7,10.7,0,0,1,3.121-2.4,7.737,7.737,0,0,0,2.029-.914.216.216,0,0,1,.33.053,5.135,5.135,0,0,0,1.867,1.633,7.019,7.019,0,0,1,2.116,1.93,7.058,7.058,0,0,0,.377-2.209c0-2.238-.808-3.9-2.335-4.762Z" fill="#f2bb88"/>
      <path id="Trazado_156038" data-name="Trazado 156038" d="M12.62,30.956a3.554,3.554,0,0,1,1.357-.393,3.048,3.048,0,0,1,2.228.856c2.032,2.058.965,5.231.185,6.624a.215.215,0,0,1-.349.038A13.185,13.185,0,0,0,13.4,35.8a4.969,4.969,0,0,1-1.078-.926,3.84,3.84,0,0,1-.6-1.349Z" fill="#8e868e"/>
      <path id="Trazado_156039" data-name="Trazado 156039" d="M13.761,32.579a6.034,6.034,0,0,1-1.438,2.3,3.877,3.877,0,0,1-.751-1.261l1.04-2.776a3.58,3.58,0,0,1,1.365-.276,4.425,4.425,0,0,1-.216,2.016Z" fill="#766d78"/>
      <path id="Trazado_156040" data-name="Trazado 156040" d="M12.314,29.96a2.489,2.489,0,0,0-1.77-1.029,6.1,6.1,0,0,0-4.238,1.424c-2.7,1.973-2.147,5.838-1.3,7.554a.215.215,0,0,0,.368.032c.148-.2.382-.354.71-.689a8.67,8.67,0,0,1,3.229-2.073C12.02,34.193,13.238,31.4,12.314,29.96Z" fill="#8e868e"/>
      <path id="Trazado_156041" data-name="Trazado 156041" d="M10.556,28.933a6.587,6.587,0,0,0-2.913,1.226c-2.342,1.711-2.192,5.1-1.559,7.093a7.37,7.37,0,0,0-.711.836A.216.216,0,0,1,5,38.055c-.846-1.717-1.458-5.923,1.242-7.9a5.967,5.967,0,0,1,4.31-1.226Z" fill="#766d78"/>
      <path id="Trazado_156042" data-name="Trazado 156042" d="M16.116,21.624l-2.5-.014a1.153,1.153,0,0,0-.808.331L11.13,23.593a.576.576,0,0,1-.811,0L8.672,21.947a1.152,1.152,0,0,0-.814-.337H5.266a2.074,2.074,0,0,1-2.074-2.074V12.275a2.128,2.128,0,0,1,1.289-2.068,2.073,2.073,0,0,1,.677-.113h13.2v9.55a2.07,2.07,0,0,1-.113.678,2.231,2.231,0,0,1-2.133,1.3Z" fill="#f8f7f7"/>
      <path id="Trazado_156043" data-name="Trazado 156043" d="M18.248,20.321a2.074,2.074,0,0,1-1.959,1.4H13.727a1.156,1.156,0,0,0-.809.331l-1.789,1.76a.576.576,0,0,1-.811,0L8.565,22.054a1.156,1.156,0,0,0-.814-.336H5.158a2.074,2.074,0,0,1-2.073-2.074V12.168a2.072,2.072,0,0,1,1.4-1.96v9.436a.678.678,0,0,0,.677.678H7.75a2.532,2.532,0,0,1,1.8.744l.878.877a.431.431,0,0,0,.606,0l.906-.892a2.549,2.549,0,0,1,1.788-.732Z" fill="#e8e8e8"/>
      <g id="Grupo_108368" data-name="Grupo 108368">
        <path id="Trazado_156044" data-name="Trazado 156044" d="M10.554,14.325a.251.251,0,0,0,.342,0,1.916,1.916,0,0,1,1.315-.514,1.879,1.879,0,0,1,1.876,1.885c-.019,1.357-1.467,2.518-2.457,3.154a3.891,3.891,0,0,1-.793.323.251.251,0,0,1-.227,0c-.592-.292-3.141-1.59-3.1-3.483A1.806,1.806,0,0,1,8.554,14a1.841,1.841,0,0,1,.211-.12,1.8,1.8,0,0,1,.483-.07,1.879,1.879,0,0,1,1.306.516Z" fill="#df646e"/>
        <path id="Trazado_156045" data-name="Trazado 156045" d="M11.63,18.848c-.349.225-.642.383-.794.463a.248.248,0,0,1-.227,0c-.593-.292-3.287-1.727-3.248-3.62a1.96,1.96,0,0,1,1.4-1.815,1.926,1.926,0,0,0-.437,1.171C8.3,16.583,10.482,18.151,11.63,18.848Z" fill="#dc4955"/>
      </g>
      <path id="Trazado_156046" data-name="Trazado 156046" d="M49.711,21.61H47.15a1.153,1.153,0,0,0-.808.331L44.661,23.7a.576.576,0,0,1-.811,0L42.2,21.947a1.152,1.152,0,0,0-.814-.337H38.8a2.074,2.074,0,0,1-2.074-2.074l.137-9.23,2.092-.212H49.818a2.074,2.074,0,0,1,2.074,2.074v7.476a2.07,2.07,0,0,1-.113.678,2.128,2.128,0,0,1-2.068,1.289Z" fill="#f8f7f7"/>
      <g id="Grupo_108369" data-name="Grupo 108369">
        <path id="Trazado_156047" data-name="Trazado 156047" d="M44.084,14.325a.251.251,0,0,0,.342,0,1.916,1.916,0,0,1,1.315-.514,1.879,1.879,0,0,1,1.876,1.885c-.019,1.357-1.467,2.518-2.457,3.154a3.891,3.891,0,0,1-.793.323.251.251,0,0,1-.227,0c-.592-.292-3.141-1.59-3.1-3.483A1.806,1.806,0,0,1,42.084,14a1.842,1.842,0,0,1,.211-.12,1.8,1.8,0,0,1,.483-.07,1.879,1.879,0,0,1,1.306.516Z" fill="#df646e"/>
        <path id="Trazado_156048" data-name="Trazado 156048" d="M45.16,18.848c-.349.225-.642.383-.794.463a.248.248,0,0,1-.227,0c-.593-.292-3.287-1.727-3.248-3.62a1.96,1.96,0,0,1,1.4-1.815,1.926,1.926,0,0,0-.437,1.171C41.827,16.583,44.013,18.151,45.16,18.848Z" fill="#dc4955"/>
      </g>
      <path id="Trazado_156049" data-name="Trazado 156049" d="M47.257,20.321a2.537,2.537,0,0,0-1.787.732l-1.057,1.041a.216.216,0,0,1-.3,0l-1.028-1.027a2.547,2.547,0,0,0-1.8-.744H38.689a.678.678,0,0,1-.678-.678V15.883a.215.215,0,0,1,.052-.139,2.945,2.945,0,0,0,.277-.383,4.282,4.282,0,0,0,.611-2.205V10.093H36.615v9.55a2.074,2.074,0,0,0,2.074,2.074h2.592a1.156,1.156,0,0,1,.814.336L43.85,23.8a.576.576,0,0,0,.811,0l1.789-1.76a1.155,1.155,0,0,1,.808-.331h2.561a2.074,2.074,0,0,0,1.96-1.4H47.257Z" fill="#e8e8e8"/>
      <path id="Trazado_156050" data-name="Trazado 156050" d="M34.345,15.782l-3.1.105a1.728,1.728,0,0,0-1.288.576l-1.8,1.984a.807.807,0,0,1-1.207,0l-1.668-2.019a1.728,1.728,0,0,0-1.3-.586l-3.559.2a2.881,2.881,0,0,1-2.881-2.881V3.687A2.88,2.88,0,0,1,20.418.806H34.674a2.881,2.881,0,0,1,2.881,2.881v9.469a2.868,2.868,0,0,1-.411,1.484,3.283,3.283,0,0,1-2.8,1.143Z" fill="#f8f7f7"/>
      <path id="Trazado_156051" data-name="Trazado 156051" d="M37.143,14.639a2.881,2.881,0,0,1-2.47,1.4H31.239a1.732,1.732,0,0,0-1.289.576l-1.8,2.01a.806.806,0,0,1-1.206,0l-1.756-1.995a1.727,1.727,0,0,0-1.3-.587H20.419a2.881,2.881,0,0,1-2.881-2.881V3.687a2.881,2.881,0,0,1,1.4-2.47V13.155a1.485,1.485,0,0,0,1.485,1.485h3.473a3.123,3.123,0,0,1,2.346,1.06l1.077,1.224a.321.321,0,0,0,.481,0L28.91,15.68a3.122,3.122,0,0,1,2.329-1.041Z" fill="#e8e8e8"/>
      <path id="Trazado_156052" data-name="Trazado 156052" d="M27.286,5.514a.385.385,0,0,0,.525,0,2.94,2.94,0,0,1,2.017-.788,2.882,2.882,0,0,1,2.878,2.893c-.031,2.182-2.47,4.034-3.983,4.974a7.116,7.116,0,0,1-.971.454.385.385,0,0,1-.348,0c-.909-.448-4.876-2.362-4.818-5.266a3.058,3.058,0,0,1,1.828-2.912,2.77,2.77,0,0,1,.868-.146,2.882,2.882,0,0,1,2,.792Z" fill="#df646e"/>
      <path id="Trazado_156053" data-name="Trazado 156053" d="M28.722,12.589c-.44.274-.8.471-1,.575a.386.386,0,0,1-.348,0c-.909-.449-5.042-2.649-4.984-5.553a3.006,3.006,0,0,1,2.028-2.746,2.96,2.96,0,0,0-.846,1.994C23.519,9.346,27.111,11.682,28.722,12.589Z" fill="#dc4955"/>
      <path id="Trazado_156054" data-name="Trazado 156054" d="M30.32,38.447H24.728l.264,3.728-.264,1.971h0a4.161,4.161,0,0,0,.743.844,3.921,3.921,0,0,0,4.046.151c.325-.2.537-.69.8-.994l0,0V41.779l-.226-.371Z" fill="#e3a76f"/>
      <path id="Trazado_156055" data-name="Trazado 156055" d="M36.158,46.552l-2.925-1.205-2.913-.886a3.7,3.7,0,0,1-5.591.153l-5.623,1.938a3.226,3.226,0,0,0-2,2.983l.107,4.445,1.074.215h7.058l2.284-.518,2.024.518h8.5V49.535A3.226,3.226,0,0,0,36.158,46.552Z" fill="#ccf49f"/>
      <path id="Trazado_156056" data-name="Trazado 156056" d="M26.125,38.447h-1.4v5.7c.175.2.1.544.3.7.233.176.752.158,1.012.271h0V42.465a.215.215,0,0,1,.264-.209,5.62,5.62,0,0,0,1.219.186,6.126,6.126,0,0,0,2.8-.663V38.447H26.125Z" fill="#d6995c"/>
      <path id="Trazado_156057" data-name="Trazado 156057" d="M25.918,45.116,22.684,46.5l-3.262,1.344a1.823,1.823,0,0,0-1.133,1.691v4.66h-1.4v-4.66a3.225,3.225,0,0,1,2-2.982l2.91-1.2,1.328-.41,1.543-.693a3.179,3.179,0,0,0,1.248.865Z" fill="#b3e59f"/>
      <path id="Trazado_156058" data-name="Trazado 156058" d="M33.233,45.347l-.121.141a14.907,14.907,0,0,0-3.456,8.587v.119H25.347v-.077A14.9,14.9,0,0,0,22.684,46.5a12.822,12.822,0,0,0-.731-1.069l-.032-.042,2.807-1.131a3.379,3.379,0,0,0,1.314.859,3.7,3.7,0,0,0,4.277-.968h0Z" fill="#f8f7f7"/>
      <path id="Trazado_156059" data-name="Trazado 156059" d="M26.041,45.116,22.684,46.5q-.4-.57-.852-1.1l-.032-.042,2.928-1.206a3.694,3.694,0,0,0,.868.737q.044.027.087.052a3.717,3.717,0,0,0,.358.18Z" fill="#e8e8e8"/>
      <path id="Trazado_156060" data-name="Trazado 156060" d="M33.6,32.137c0-4.046-2.035-7.289-6.081-7.289s-5.881,3.27-5.881,7.317a11.859,11.859,0,0,0-.188,2.075c.6,3.457,2.7,6.8,6.069,6.8,3.589,0,5.73-3.795,6.168-7.477a12.18,12.18,0,0,0-.086-1.43Z" fill="#e3a76f"/>
      <path id="Trazado_156061" data-name="Trazado 156061" d="M33.775,32.175c0-2.959-1.18-5.506-3.4-6.663a.108.108,0,0,1-.19-.1,6.168,6.168,0,0,0-2.665-.568c-4.046,0-6.251,3.28-6.251,7.327a12.042,12.042,0,0,0,.183,2.065,2.875,2.875,0,0,1,.345-.331c1.059-1,2.577-1.032,2.739-2.073a.215.215,0,0,1,.27-.18A3.7,3.7,0,0,0,28.623,29.9a.214.214,0,0,1,.336-.064,2.346,2.346,0,0,0,1.766.485.216.216,0,0,1,.227.144c.608,1.777,2.275,1.125,2.739,3.1a11.8,11.8,0,0,0,.084-1.393Z" fill="#d6995c"/>
      <g id="Grupo_108370" data-name="Grupo 108370">
        <path id="Trazado_156062" data-name="Trazado 156062" d="M34.328,26.673c-.056-.016-.162-.036-.249-.051A.107.107,0,0,1,34,26.472a2.256,2.256,0,0,0-3.631-2.56.107.107,0,0,1-.181-.054,2.738,2.738,0,0,0-4.408-1.6.108.108,0,0,1-.152-.015,2.253,2.253,0,0,0-3.962,1.145.108.108,0,0,1-.1.094,3.218,3.218,0,0,0-.73.127,3.172,3.172,0,0,0-2.16,3.147,2.893,2.893,0,0,0,.823,2.03.1.1,0,0,1,.027.076,9.559,9.559,0,0,0,.1,2.182,2.845,2.845,0,0,0,1.646,2.192A1.077,1.077,0,0,1,21.8,32.3c.657-.543,1.791-.641,2.077-1.642A.1.1,0,0,1,24,30.579a5.518,5.518,0,0,0,.765.09,3.868,3.868,0,0,0,3.61-2.481.1.1,0,0,1,.178-.025,2.633,2.633,0,0,0,2.779.9.106.106,0,0,1,.13.071c.659,2.154,2.309,1.459,2.309,3.469,1.08-.488,1.726-2.156,2.034-3.264a2.171,2.171,0,0,0-1.473-2.67Z" fill="#855b51"/>
      </g>
      <g id="Grupo_108371" data-name="Grupo 108371">
        <path id="Trazado_156063" data-name="Trazado 156063" d="M21.8,32.3a1.289,1.289,0,0,0-.467,1.067A3.087,3.087,0,0,1,19.5,31.1a9.7,9.7,0,0,1-.112-2.173.1.1,0,0,0-.027-.075,3.221,3.221,0,0,1,1.477-5.244,3.22,3.22,0,0,0-.3,4.6.1.1,0,0,1,.027.075,9.7,9.7,0,0,0,.112,2.173A3,3,0,0,0,21.8,32.3Z" fill="#724d44"/>
      </g>
    </g>
    <g id="Grupo_108374" data-name="Grupo 108374">
      <g id="Grupo_108373" data-name="Grupo 108373">
        <path id="Trazado_156064" data-name="Trazado 156064" d="M43.783,20.037a1.06,1.06,0,0,0,.956-.01c.856-.446,3.651-2.077,3.683-4.32a2.7,2.7,0,0,0-4.167-2.268A2.671,2.671,0,0,0,42.792,13a2.777,2.777,0,0,0-2.706,2.675c-.047,2.328,2.818,3.924,3.7,4.358Zm-1-5.422h.008a1.076,1.076,0,0,1,.74.3h0a1.058,1.058,0,0,0,1.444,0,1.088,1.088,0,0,1,1.836.771c-.015,1.062-1.52,2.186-2.567,2.778-1.059-.57-2.57-1.668-2.548-2.75a1.143,1.143,0,0,1,1.088-1.1Z"/>
        <path id="Trazado_156065" data-name="Trazado 156065" d="M10.253,20.037a1.06,1.06,0,0,0,.956-.011c.856-.446,3.651-2.077,3.683-4.32a2.7,2.7,0,0,0-4.167-2.268A2.673,2.673,0,0,0,9.242,13a2.737,2.737,0,0,0-2.687,2.675c-.047,2.328,2.819,3.924,3.7,4.358Zm-1-5.422h.008a1.075,1.075,0,0,1,.74.3h0a1.058,1.058,0,0,0,1.444,0,1.088,1.088,0,0,1,1.836.771c-.015,1.062-1.52,2.186-2.567,2.778-1.059-.57-2.569-1.668-2.548-2.75a1.143,1.143,0,0,1,1.088-1.1Z"/>
        <path id="Trazado_156066" data-name="Trazado 156066" d="M5.159,22.523H7.751a.345.345,0,0,1,.245.1L9.75,24.375a1.386,1.386,0,0,0,1.945.007l1.789-1.76a.344.344,0,0,1,.243-.1h2.561a2.883,2.883,0,0,0,2.88-2.88V16.622a3.67,3.67,0,0,0,1.251.219h3.474a.923.923,0,0,1,.693.313l1.756,2a1.613,1.613,0,0,0,1.2.547h.006a1.613,1.613,0,0,0,1.2-.537l1.8-2.01a.924.924,0,0,1,.688-.307h3.435a3.672,3.672,0,0,0,1.135-.18v2.982a2.883,2.883,0,0,0,2.88,2.88h2.592a.345.345,0,0,1,.245.1l1.755,1.751a1.386,1.386,0,0,0,1.945.007l1.789-1.76a.345.345,0,0,1,.243-.1h2.561a2.883,2.883,0,0,0,2.88-2.88V12.167a2.883,2.883,0,0,0-2.88-2.88H38.36v-5.6A3.69,3.69,0,0,0,34.674,0H28.11a.806.806,0,0,0,0,1.611h6.563a2.077,2.077,0,0,1,2.075,2.075v9.469a2.077,2.077,0,0,1-2.075,2.075H31.239a2.537,2.537,0,0,0-1.889.844l-1.8,2.01-1.756-2a2.535,2.535,0,0,0-1.9-.86H20.419a2.077,2.077,0,0,1-2.075-2.075V3.686a2.077,2.077,0,0,1,2.075-2.075h3.932a.806.806,0,0,0,0-1.611H20.419a3.69,3.69,0,0,0-3.686,3.686v5.6H5.159a2.883,2.883,0,0,0-2.88,2.88v7.476A2.883,2.883,0,0,0,5.159,22.523ZM49.819,10.9a1.27,1.27,0,0,1,1.268,1.268v7.476a1.27,1.27,0,0,1-1.268,1.268H47.257a1.946,1.946,0,0,0-1.373.562l-1.627,1.6-1.593-1.59a1.945,1.945,0,0,0-1.383-.572H38.689a1.27,1.27,0,0,1-1.268-1.268V15.61a3.671,3.671,0,0,0,.939-2.455V10.9H49.819ZM3.89,12.167A1.27,1.27,0,0,1,5.159,10.9H16.732v2.256a3.669,3.669,0,0,0,.824,2.32v4.169a1.27,1.27,0,0,1-1.268,1.268H13.727a1.947,1.947,0,0,0-1.373.562l-1.627,1.6-1.593-1.59a1.945,1.945,0,0,0-1.383-.572H5.159A1.27,1.27,0,0,1,3.89,19.643V12.167Z"/>
        <path id="Trazado_156067" data-name="Trazado 156067" d="M21.581,7.6c-.067,3.318,4.142,5.654,5.433,6.291a1.195,1.195,0,0,0,1.077-.012c1.26-.657,5.374-3.048,5.42-6.252A3.709,3.709,0,0,0,27.548,4.68a3.688,3.688,0,0,0-2.271-.763,3.766,3.766,0,0,0-3.7,3.682Zm3.707-2.071H25.3a2.079,2.079,0,0,1,1.43.572h0a1.192,1.192,0,0,0,1.627,0A2.1,2.1,0,0,1,31.9,7.6c-.026,1.784-2.325,3.644-4.364,4.746-2.07-1.061-4.381-2.891-4.344-4.718A2.17,2.17,0,0,1,25.289,5.528Z"/>
        <path id="Trazado_156068" data-name="Trazado 156068" d="M53.054,48.8V37.065a8.762,8.762,0,0,0-12.757-7.8.806.806,0,1,0,.736,1.433,7.068,7.068,0,0,1,3.261-.785,7.156,7.156,0,0,1,7.148,7.148V47.379c-.022-.01-.043-.021-.065-.03h0L47.32,45.678V44.1a9.532,9.532,0,0,0,2.743-6.315c0-2.941-1.309-5.253-3.5-6.183a.807.807,0,0,0-.624,0,.838.838,0,0,0-.477.571,5.812,5.812,0,0,1-4.452,4.43L39.162,37a.935.935,0,0,0-.635.949,9.555,9.555,0,0,0,2.742,6.164v1.565L38.064,47a4.012,4.012,0,0,0-.917-.829v-9.1a7.1,7.1,0,0,1,1.291-4.1.806.806,0,1,0-1.319-.925,8.706,8.706,0,0,0-1.583,5.024v8.359l-4.409-1.817V40.547a10.838,10.838,0,0,0,3.437-7.47,6.575,6.575,0,0,0,2.014-3.518,2.989,2.989,0,0,0-.392-2.461,2.953,2.953,0,0,0-1.213-1.041,3.09,3.09,0,0,0,.036-.821,3.06,3.06,0,0,0-4.361-2.487,3.546,3.546,0,0,0-4.854-1.469,3.062,3.062,0,0,0-4.8,1.459,4.029,4.029,0,0,0-2.421,6.422,10.176,10.176,0,0,0,.137,2.087,3.833,3.833,0,0,0,1.881,2.64,13.2,13.2,0,0,0,.308,1.56.849.849,0,0,0,.984.575.806.806,0,0,0,.575-.984,11.6,11.6,0,0,1-.309-1.674c-.036-.312.081-.448.787-.793A3.255,3.255,0,0,0,24.4,31.451a4.713,4.713,0,0,0,4.27-2.085,3.6,3.6,0,0,0,2.242.592,3.737,3.737,0,0,0,1.437,1.586c.48.331.628.434.631,1.042-.167,3.765-2.25,7.653-5.455,7.653a4.544,4.544,0,0,1-3.646-2.069.806.806,0,1,0-1.3.947,7.518,7.518,0,0,0,1.349,1.439v3.052l-5.339,2.2a4.027,4.027,0,0,0-1.611,1.206l-3.241-1.336V43.2a9.382,9.382,0,0,0,2.616-4.1.8.8,0,0,0,.564-.362c.838-1.308,2.446-5.276-.133-7.888a4,4,0,0,0-3.617-1.017,2.549,2.549,0,0,0-.169-.31c-1.088-1.7-3.9-1.938-6.4-.542a.806.806,0,1,0,.785,1.407c1.877-1.047,3.718-.843,4.26,0a1.757,1.757,0,0,1,.04,1.479,4.326,4.326,0,0,1-2.638,2.548A9.46,9.46,0,0,0,5.4,36.8a7.337,7.337,0,0,1-.061-3.961.806.806,0,0,0-1.543-.465A8.829,8.829,0,0,0,4.5,38.807a.805.805,0,0,0,.583.365A9.408,9.408,0,0,0,7.68,43.194v2.484c-.074.032-4.024,1.654-4.1,1.693A3.481,3.481,0,0,0,1.46,50.58v2.539A1.883,1.883,0,0,0,3.341,55H51.659a1.883,1.883,0,0,0,1.881-1.881V50.58a3.488,3.488,0,0,0-.486-1.779ZM32.2,28.819a.806.806,0,0,0-1.024-.549,1.827,1.827,0,0,1-2.077-.714.806.806,0,0,0-1.432.2,3.055,3.055,0,0,1-2.909,2.107,5.485,5.485,0,0,1-.708-.093.806.806,0,0,0-.938.618c-.07.315-.309.458-.879.731a3.282,3.282,0,0,0-1.35.986,2.2,2.2,0,0,1-.6-1.154,9,9,0,0,1-.1-2,.806.806,0,0,0-.212-.61,2.416,2.416,0,0,1,1.7-4.056.806.806,0,0,0,.778-.73,1.448,1.448,0,0,1,2.6-.738.806.806,0,0,0,1.172.118,1.933,1.933,0,0,1,3.193,1.234.806.806,0,0,0,1.421.424,1.437,1.437,0,0,1,1.249-.52,1.45,1.45,0,0,1,1.139,2.141.806.806,0,0,0,.622,1.189,1.352,1.352,0,0,1,.992.593,1.379,1.379,0,0,1,.18,1.136,7.6,7.6,0,0,1-.817,1.98,3.125,3.125,0,0,0-.945-.89,2.154,2.154,0,0,1-1.058-1.4Zm9.139,9.362a7.43,7.43,0,0,0,5.381-4.625,5.222,5.222,0,0,1,1.727,4.232c0,2.891-2.516,6.236-4.158,6.236-1.521,0-3.793-2.847-4.118-5.593ZM26.093,53.389a15.83,15.83,0,0,0-3-7.7l1.445-.6a4.5,4.5,0,0,0,2.985,1.134h0A4.5,4.5,0,0,0,30.511,45.1l1.422.586a15.838,15.838,0,0,0-3.025,7.706Zm7.383-7.07,2.375.979a2.412,2.412,0,0,1,1.5,2.238v3.854H30.532A14.205,14.205,0,0,1,33.476,46.319ZM27.523,41.85a5.534,5.534,0,0,0,1.991-.364v2.339a2.891,2.891,0,0,1-1.99.794h0a2.89,2.89,0,0,1-1.99-.793V41.488a5.57,5.57,0,0,0,1.989.362ZM16.088,53.389H14.683l1.405-1.631Zm.01-4.111-3.541,4.111H8.89L5.2,48.444,8.3,47.164a3.739,3.739,0,0,0,2.4.874h0a3.739,3.739,0,0,0,2.4-.874l3.128,1.289a4.037,4.037,0,0,0-.139.825Zm-.466-17.292c1.4,1.42.961,3.574.408,4.924a13.638,13.638,0,0,0-2.207-1.784,3.885,3.885,0,0,1-1.326-1.383,5.255,5.255,0,0,0,.7-1.351,4.187,4.187,0,0,0,.206-.956,2.444,2.444,0,0,1,2.224.551ZM6.443,38.043a7.826,7.826,0,0,1,3.145-2.108,6.343,6.343,0,0,0,1.77-.987,5.615,5.615,0,0,0,1.606,1.533A12.092,12.092,0,0,1,14.953,38.1c-.621,2.645-2.788,4.847-4.248,4.847s-3.658-2.24-4.262-4.906Zm4.262,6.518a3.627,3.627,0,0,0,1.415-.311v1.64a2.129,2.129,0,0,1-1.414.537h0a2.129,2.129,0,0,1-1.414-.537V44.248a3.607,3.607,0,0,0,1.413.313ZM3.071,53.119V50.58a1.875,1.875,0,0,1,.648-1.421l3.159,4.23H3.341a.27.27,0,0,1-.27-.27ZM17.7,49.535A2.412,2.412,0,0,1,19.2,47.3l2.355-.97a14.2,14.2,0,0,1,2.917,7.062H17.7V49.535Zm21.261,3.854V49.535a4.048,4.048,0,0,0-.154-1.1l2.468-1.017a11.363,11.363,0,0,0,1.348,5.971Zm3.92-7.173v-.93a3.029,3.029,0,0,0,2.828,0s0,.851,0,.935c0,2.418,0,4.913-1.414,6.751-1.414-1.836-1.414-4.333-1.414-6.753a.009.009,0,0,0,0,0Zm9.049,6.9a.27.27,0,0,1-.27.27H45.964a11.365,11.365,0,0,0,1.349-5.971l3.45,1.422h0a1.876,1.876,0,0,1,1.165,1.741Z"/>
      </g>
    </g>
  </g>
</svg>
