<svg xmlns="http://www.w3.org/2000/svg" width="154" height="154" viewBox="0 0 154 154">
  <g id="Grupo_108904" data-name="Grupo 108904" transform="translate(-372 -8006.3)">
    <g id="Grupo_108903" data-name="Grupo 108903">
      <circle id="Elipse_4706" data-name="Elipse 4706" cx="77" cy="77" r="77" transform="translate(372 8006.3)" fill="#ffc967"/>
    </g>
    <g id="cliente_1_" data-name="cliente (1)" transform="translate(372.138 8006.3)">
      <path id="Trazado_156255" data-name="Trazado 156255" d="M64.969,7.219V51.349A24.163,24.163,0,0,0,54.044,64.969H40.906v9.625l-9.625-9.625H7.219a4.827,4.827,0,0,1-4.812-4.812V7.219A4.827,4.827,0,0,1,7.219,2.406H60.156A4.827,4.827,0,0,1,64.969,7.219ZM50.531,48.125V14.438H16.844V48.125Z" fill="#d6e5ee"/>
      <g id="Grupo_108397" data-name="Grupo 108397">
        <path id="Trazado_156256" data-name="Trazado 156256" d="M122.719,2.406a28.875,28.875,0,1,1-11.358,55.416l-7.892,4.74,1.42-8.59a28.861,28.861,0,0,1,17.83-51.566Zm16.844,28.875V21.656H105.875v9.625h2.406l2.406,14.438H134.75l2.406-14.437Z" fill="#23d1d0"/>
        <path id="Trazado_156257" data-name="Trazado 156257" d="M137.156,93.844h-7.219V134.75h-9.625V93.844h-7.219l12.031-12.031Z" fill="#23d1d0"/>
        <path id="Trazado_156258" data-name="Trazado 156258" d="M40.906,93.844H33.688V134.75H24.063V93.844H16.844L28.875,81.813Z" fill="#23d1d0"/>
      </g>
      <path id="Trazado_156259" data-name="Trazado 156259" d="M139.563,21.656v9.625H105.875V21.656Z" fill="#d6e5ee"/>
      <path id="Trazado_156260" data-name="Trazado 156260" d="M137.156,31.281,134.75,45.719H110.688l-2.406-14.437Z" fill="#fc8fae"/>
      <path id="Trazado_156261" data-name="Trazado 156261" d="M28.875,14.438H38.5v7.219H28.875Z" fill="#fa984c"/>
      <path id="Trazado_156262" data-name="Trazado 156262" d="M28.875,21.656H38.5v7.219H28.875Z" fill="#fec076"/>
      <path id="Trazado_156263" data-name="Trazado 156263" d="M16.844,14.438H28.875v7.219H16.844Z" fill="#966857"/>
      <path id="Trazado_156264" data-name="Trazado 156264" d="M38.5,14.438H50.531v7.219H38.5Z" fill="#966857"/>
      <path id="Trazado_156265" data-name="Trazado 156265" d="M50.531,21.656V48.125H16.844V21.656H28.875v7.219H38.5V21.656Z" fill="#a37669"/>
      <path id="Trazado_156266" data-name="Trazado 156266" d="M117.906,151.594H103.469c0-19.25,9.625-26.469,9.625-26.469S117.906,134.75,117.906,151.594Z" fill="#a5c2da"/>
      <path id="Trazado_156267" data-name="Trazado 156267" d="M93.844,120.313l19.25,4.813s-9.625,7.219-9.625,26.469H77V125.125l7.219,7.219,9.625-9.625Z" fill="#d6e5ee"/>
      <path id="Trazado_156268" data-name="Trazado 156268" d="M103.469,79.406v7.219a4.827,4.827,0,0,1-4.812,4.813H93.844V79.406Z" fill="#faa68e"/>
      <path id="Trazado_156269" data-name="Trazado 156269" d="M54.044,64.969a24.062,24.062,0,0,1,47.018,7.219v7.219H93.844c-26.469,0-26.469-7.219-26.469-7.219a7.069,7.069,0,0,1-6.917,7.219c-.1,0-.2,0-.3,0H52.938V72.188A23.842,23.842,0,0,1,54.044,64.969Z" fill="#966857"/>
      <path id="Trazado_156270" data-name="Trazado 156270" d="M93.844,120.313v2.406l-9.625,9.625L77,125.125l7.219-7.219Z" fill="#a5c2da"/>
      <path id="Trazado_156271" data-name="Trazado 156271" d="M84.219,109.051A16.833,16.833,0,0,1,60.156,93.844V79.406a7.069,7.069,0,0,0,7.219-6.917c0-.1,0-.2,0-.3,0,0,0,7.219,26.469,7.219V93.844A16.772,16.772,0,0,1,84.219,109.051Z" fill="#ffcdbe"/>
      <path id="Trazado_156272" data-name="Trazado 156272" d="M67.375,72.188a7.069,7.069,0,0,1-6.917,7.219c-.1,0-.2,0-.3,0v7.219a7.069,7.069,0,0,0,7.219-6.917q0-.151,0-.3s0,7.219,26.469,7.219V79.406C67.375,79.406,67.375,72.188,67.375,72.188Z" fill="#ffbeaa"/>
      <path id="Trazado_156273" data-name="Trazado 156273" d="M84.219,109.051v8.855L77,125.125l-7.219-7.219v-8.855A16.743,16.743,0,0,0,84.219,109.051Z" fill="#faa68e"/>
      <path id="Trazado_156274" data-name="Trazado 156274" d="M77,125.125v26.469H50.531c0-19.25-9.625-26.469-9.625-26.469l19.25-4.812v2.406l9.625,9.625Z" fill="#f7fcff"/>
      <path id="Trazado_156275" data-name="Trazado 156275" d="M77,125.125l-7.219,7.219-9.625-9.625v-2.406l9.625-2.406Z" fill="#a5c2da"/>
      <path id="Trazado_156276" data-name="Trazado 156276" d="M60.156,79.406V91.438H55.344a4.827,4.827,0,0,1-4.812-4.812V79.406Z" fill="#faa68e"/>
      <path id="Trazado_156277" data-name="Trazado 156277" d="M50.531,151.594H36.094c0-16.844,4.813-26.469,4.813-26.469S50.531,132.344,50.531,151.594Z" fill="#a5c2da"/>
      <g id="_12-shopping">
        <path id="Trazado_156278" data-name="Trazado 156278" d="M77,113.094a19.272,19.272,0,0,1-19.25-19.25V79.406A2.406,2.406,0,0,1,60.156,77a4.529,4.529,0,0,0,4.813-4.812,2.406,2.406,0,0,1,4.8-.277c.2.407,2.989,5.089,24.079,5.089a2.406,2.406,0,0,1,2.406,2.406V93.844A19.272,19.272,0,0,1,77,113.094ZM62.563,81.509V93.844a14.438,14.438,0,0,0,28.875,0V81.791c-12.9-.226-19.56-2.269-22.965-4.473a9.423,9.423,0,0,1-5.91,4.192Z"/>
        <path id="Trazado_156279" data-name="Trazado 156279" d="M98.656,93.844H93.844V89.031h4.813a2.406,2.406,0,0,0,2.406-2.406V81.813H93.844V77h9.625a2.406,2.406,0,0,1,2.406,2.406v7.219A7.219,7.219,0,0,1,98.656,93.844Z"/>
        <path id="Trazado_156280" data-name="Trazado 156280" d="M60.156,93.844H55.344a7.219,7.219,0,0,1-7.219-7.219V79.406A2.406,2.406,0,0,1,50.531,77h9.625v4.813H52.938v4.813a2.406,2.406,0,0,0,2.406,2.406h4.813Z"/>
        <path id="Trazado_156281" data-name="Trazado 156281" d="M103.469,79.406H98.656V72.188a21.656,21.656,0,0,0-43.312,0v7.219H50.531V72.188a26.469,26.469,0,0,1,52.938,0Z"/>
        <path id="Trazado_156282" data-name="Trazado 156282" d="M77,103.469a9.625,9.625,0,0,1-9.625-9.625h4.813a4.813,4.813,0,0,0,9.625,0h4.813A9.625,9.625,0,0,1,77,103.469Z"/>
        <path id="Trazado_156283" data-name="Trazado 156283" d="M67.375,84.219h4.813v4.813H67.375Z"/>
        <path id="Trazado_156284" data-name="Trazado 156284" d="M81.813,84.219h4.813v4.813H81.813Z"/>
        <path id="Trazado_156285" data-name="Trazado 156285" d="M117.906,154H36.094a2.406,2.406,0,0,1-2.406-2.406c0-17.214,4.861-27.13,5.065-27.544a2.406,2.406,0,0,1,1.571-1.258l27.051-6.764v-7.746h4.813v9.625a2.406,2.406,0,0,1-1.824,2.334l-27.727,6.932a64.68,64.68,0,0,0-4.1,22.015h76.928a64.667,64.667,0,0,0-4.091-22.015L83.636,120.24a2.406,2.406,0,0,1-1.824-2.334v-9.625h4.813v7.746l27.051,6.764a2.406,2.406,0,0,1,1.571,1.258c.2.414,5.065,10.33,5.065,27.544A2.406,2.406,0,0,1,117.906,154Z"/>
        <path id="Trazado_156286" data-name="Trazado 156286" d="M77,127.531a2.406,2.406,0,0,1-1.7-.705l-7.219-7.219,3.4-3.4L77,121.723l5.518-5.518,3.4,3.4L78.7,126.826A2.406,2.406,0,0,1,77,127.531Z"/>
        <path id="Trazado_156287" data-name="Trazado 156287" d="M79.406,151.594H74.594V125.125a2.406,2.406,0,0,1,4.107-1.7l5.518,5.518,7.219-7.219v-1.41H96.25v2.406a2.406,2.406,0,0,1-.705,1.7l-9.625,9.625a2.406,2.406,0,0,1-3.4,0l-3.111-3.111Z"/>
        <path id="Trazado_156288" data-name="Trazado 156288" d="M52.938,151.594H48.125c0-17.647-8.321-24.279-8.675-24.544l2.9-3.85C42.781,123.525,52.938,131.381,52.938,151.594Z"/>
        <path id="Trazado_156289" data-name="Trazado 156289" d="M114.537,127.05c-.342.265-8.662,6.9-8.662,24.544h-4.812c0-20.213,10.157-28.069,10.588-28.394Z"/>
        <path id="Trazado_156290" data-name="Trazado 156290" d="M69.781,134.75a2.406,2.406,0,0,1-1.7-.705l-9.625-9.625a2.406,2.406,0,0,1-.705-1.7v-2.406h4.813v1.41l7.219,7.219,5.518-5.518,3.4,3.4-7.219,7.219A2.406,2.406,0,0,1,69.781,134.75Z"/>
        <path id="Trazado_156291" data-name="Trazado 156291" d="M139.563,33.688H105.875a2.406,2.406,0,0,1-2.406-2.406V21.656a2.406,2.406,0,0,1,2.406-2.406h33.688a2.406,2.406,0,0,1,2.406,2.406v9.625A2.406,2.406,0,0,1,139.563,33.688Zm-31.281-4.812h28.875V24.063H108.281Z"/>
        <path id="Trazado_156292" data-name="Trazado 156292" d="M134.75,48.125H110.688a2.406,2.406,0,0,1-2.373-2.009l-2.406-14.437,4.745-.794,2.072,12.428h19.986l2.072-12.428,4.745.794-2.406,14.438A2.406,2.406,0,0,1,134.75,48.125Z"/>
        <path id="Trazado_156293" data-name="Trazado 156293" d="M122.719,24.063a2.406,2.406,0,0,1-1.7-.705l-9.625-9.625,3.4-3.4,7.924,7.924,7.924-7.924,3.4,3.4-9.625,9.625a2.406,2.406,0,0,1-1.7.705Z"/>
        <path id="Trazado_156294" data-name="Trazado 156294" d="M120.313,36.094h4.813v4.813h-4.812Z"/>
        <path id="Trazado_156295" data-name="Trazado 156295" d="M127.531,36.094h4.813v4.813h-4.812Z"/>
        <path id="Trazado_156296" data-name="Trazado 156296" d="M113.094,36.094h4.813v4.813h-4.812Z"/>
        <path id="Trazado_156297" data-name="Trazado 156297" d="M103.469,64.969a2.406,2.406,0,0,1-2.373-2.8l1.2-7.219a31.053,31.053,0,1,1,9.269,5.563l-6.86,4.115a2.4,2.4,0,0,1-1.239.344Zm19.25-60.156a26.449,26.449,0,0,0-16.331,47.268,2.406,2.406,0,0,1,.885,2.288L106.7,57.82l3.424-2.055a2.406,2.406,0,0,1,2.185-.147A26.469,26.469,0,1,0,122.719,4.812Z"/>
        <path id="Trazado_156298" data-name="Trazado 156298" d="M50.531,50.531H16.844a2.406,2.406,0,0,1-2.406-2.406V14.438a2.406,2.406,0,0,1,2.406-2.406H50.531a2.406,2.406,0,0,1,2.406,2.406V48.125A2.406,2.406,0,0,1,50.531,50.531ZM19.25,45.719H48.125V16.844H19.25Z"/>
        <path id="Trazado_156299" data-name="Trazado 156299" d="M38.5,31.281H28.875a2.406,2.406,0,0,1-2.406-2.406V14.438h4.813V26.469h4.813V14.438h4.813V28.875A2.406,2.406,0,0,1,38.5,31.281Z"/>
        <path id="Trazado_156300" data-name="Trazado 156300" d="M16.844,19.25H50.531v4.813H16.844Z"/>
        <path id="Trazado_156301" data-name="Trazado 156301" d="M21.656,38.5h4.813v4.813H21.656Z"/>
        <path id="Trazado_156302" data-name="Trazado 156302" d="M28.875,38.5h4.813v4.813H28.875Z"/>
        <path id="Trazado_156303" data-name="Trazado 156303" d="M40.906,77a2.406,2.406,0,0,1-1.7-.705l-8.92-8.92H7.219A7.219,7.219,0,0,1,0,60.156V7.219A7.219,7.219,0,0,1,7.219,0H60.156a7.219,7.219,0,0,1,7.219,7.219V52.938H62.563V7.219a2.406,2.406,0,0,0-2.406-2.406H7.219A2.406,2.406,0,0,0,4.813,7.219V60.156a2.406,2.406,0,0,0,2.406,2.406H31.281a2.406,2.406,0,0,1,1.7.705L38.5,68.785V64.969a2.406,2.406,0,0,1,2.406-2.406H55.344v4.812H43.313v7.219A2.406,2.406,0,0,1,40.906,77Z"/>
        <path id="Trazado_156304" data-name="Trazado 156304" d="M132.344,134.75h-4.812V93.844a2.406,2.406,0,0,1,2.406-2.406h1.41l-6.223-6.223L118.9,91.438h1.41a2.406,2.406,0,0,1,2.406,2.406v19.25h-4.812V96.25h-4.812a2.406,2.406,0,0,1-1.7-4.107l12.031-12.031a2.406,2.406,0,0,1,3.4,0l12.031,12.031a2.406,2.406,0,0,1-1.7,4.107h-4.812Z"/>
        <path id="Trazado_156305" data-name="Trazado 156305" d="M117.906,117.906h4.813v4.813h-4.812Z"/>
        <path id="Trazado_156306" data-name="Trazado 156306" d="M26.469,134.75H21.656V96.25H16.844a2.406,2.406,0,0,1-1.7-4.107L27.174,80.111a2.406,2.406,0,0,1,3.4,0L42.607,92.143a2.406,2.406,0,0,1-1.7,4.107H36.094v16.844H31.281V93.844a2.406,2.406,0,0,1,2.406-2.406H35.1l-6.223-6.223-6.223,6.223h1.41a2.406,2.406,0,0,1,2.406,2.406Z"/>
        <path id="Trazado_156307" data-name="Trazado 156307" d="M31.281,117.906h4.813v4.813H31.281Z"/>
      </g>
    </g>
  </g>
</svg>
