<svg xmlns="http://www.w3.org/2000/svg" width="59" height="58.998" viewBox="0 0 59 58.998">
  <g id="reclutamiento" transform="translate(0 -0.001)">
    <path id="Trazado_156147" data-name="Trazado 156147" d="M20.787,43.411,7.276,56.921a3.166,3.166,0,0,1-4.478,0h0a3.166,3.166,0,0,1,0-4.478l13.51-13.51Z" fill="#58bfff"/>
    <path id="Trazado_156148" data-name="Trazado 156148" d="M52.789,27.311v.924a3.7,3.7,0,0,1-3.7,3.7h0a3.7,3.7,0,0,1-3.7-3.7v-.924a3.7,3.7,0,0,1,3.7-3.7h0A3.7,3.7,0,0,1,52.789,27.311Z" fill="#ffcdac"/>
    <path id="Trazado_156149" data-name="Trazado 156149" d="M51.585,31.932H46.6a6.263,6.263,0,0,0-6.263,6.263v2.32H57.848v-2.32A6.263,6.263,0,0,0,51.585,31.932Z" fill="#ffbc53"/>
    <path id="Trazado_156150" data-name="Trazado 156150" d="M6.211,27.311v.924a3.7,3.7,0,0,0,3.7,3.7h0a3.7,3.7,0,0,0,3.7-3.7v-.924a3.7,3.7,0,0,0-3.7-3.7h0A3.7,3.7,0,0,0,6.211,27.311Z" fill="#ffcdac"/>
    <path id="Trazado_156151" data-name="Trazado 156151" d="M7.415,31.932H12.4a6.263,6.263,0,0,1,6.263,6.263v2.32H1.152v-2.32A6.263,6.263,0,0,1,7.415,31.932Z" fill="#95e540"/>
    <circle id="Elipse_4876" data-name="Elipse 4876" cx="15.902" cy="15.902" r="15.902" transform="translate(13.598 13.399)" fill="#a5ddff"/>
    <circle id="Elipse_4877" data-name="Elipse 4877" cx="11.29" cy="11.29" r="11.29" transform="translate(18.21 18.012)" fill="#fff"/>
    <path id="Trazado_156152" data-name="Trazado 156152" d="M33.081,27.855v.9A3.581,3.581,0,0,1,29.5,32.331h0a3.581,3.581,0,0,1-3.581-3.581v-.9A3.581,3.581,0,0,1,29.5,24.275h0A3.581,3.581,0,0,1,33.081,27.855Z" fill="#ffcdac"/>
    <path id="Trazado_156153" data-name="Trazado 156153" d="M29.5,32.331h0a8.264,8.264,0,0,0-7.689,5.238,11.284,11.284,0,0,0,15.378,0A8.264,8.264,0,0,0,29.5,32.331Z" fill="#fe6663"/>
    <path id="Trazado_156154" data-name="Trazado 156154" d="M53.115,30.939a4.821,4.821,0,0,0,.826-2.7v-.924a4.847,4.847,0,0,0-8.271-3.433,17.056,17.056,0,0,0-32.341,0,4.847,4.847,0,0,0-8.271,3.433v.924a4.821,4.821,0,0,0,.826,2.7A7.427,7.427,0,0,0,0,38.195v2.32a1.152,1.152,0,0,0,1.152,1.152H7.145a1.152,1.152,0,0,0,0-2.3H2.3V38.195a5.116,5.116,0,0,1,5.11-5.11h5.454a16.959,16.959,0,0,0,2.263,5.4L1.984,51.629a4.318,4.318,0,0,0,6.107,6.107l7.249-7.249a1.152,1.152,0,1,0-1.63-1.63L6.462,56.106a2.014,2.014,0,1,1-2.848-2.848L16.521,40.352a17.047,17.047,0,0,0,29.61-7.267h5.454a5.116,5.116,0,0,1,5.11,5.11v1.168H45.863a1.152,1.152,0,0,0,0,2.3H57.848A1.152,1.152,0,0,0,59,40.515v-2.32A7.427,7.427,0,0,0,53.115,30.939Zm-6.568-3.628a2.544,2.544,0,1,1,5.089,0v.924a2.544,2.544,0,0,1-5.089,0Zm-39.184,0a2.544,2.544,0,0,1,5.089,0v.924a2.544,2.544,0,0,1-5.089,0S7.363,27.311,7.363,27.311ZM29.5,44.051A14.75,14.75,0,1,1,44.25,29.3,14.767,14.767,0,0,1,29.5,44.051Z"/>
    <path id="Trazado_156155" data-name="Trazado 156155" d="M29.5,16.856a12.439,12.439,0,0,0-8.534,21.495,1.152,1.152,0,0,0,.134.124,12.422,12.422,0,0,0,16.8,0,1.142,1.142,0,0,0,.134-.124A12.439,12.439,0,0,0,29.5,16.856Zm-6.28,20.4a7.112,7.112,0,0,1,12.56,0,10.12,10.12,0,0,1-12.56,0Zm3.852-8.507v-.9a2.428,2.428,0,0,1,4.857,0v.9a2.428,2.428,0,0,1-4.857,0ZM37.466,35.57a9.334,9.334,0,0,0-4.409-3.7,4.712,4.712,0,0,0,1.177-3.118v-.9a4.733,4.733,0,1,0-9.466,0v.9a4.712,4.712,0,0,0,1.177,3.118,9.335,9.335,0,0,0-4.409,3.7,10.141,10.141,0,1,1,15.931,0Z"/>
    <path id="Trazado_156156" data-name="Trazado 156156" d="M17.608,45.438a1.153,1.153,0,1,0,.815.338A1.161,1.161,0,0,0,17.608,45.438Z"/>
    <path id="Trazado_156157" data-name="Trazado 156157" d="M29.523,6.226a1.152,1.152,0,0,0,1.152-1.152V1.153a1.152,1.152,0,1,0-2.3,0V5.074A1.152,1.152,0,0,0,29.523,6.226Z"/>
    <path id="Trazado_156158" data-name="Trazado 156158" d="M29.523,10.026a1.153,1.153,0,1,0-.815-.338A1.158,1.158,0,0,0,29.523,10.026Z"/>
    <path id="Trazado_156159" data-name="Trazado 156159" d="M36.452,8.514a1.149,1.149,0,0,0,.815-.338l2.025-2.025a1.152,1.152,0,0,0-1.63-1.63L35.637,6.547a1.152,1.152,0,0,0,.815,1.967Z"/>
    <path id="Trazado_156160" data-name="Trazado 156160" d="M21.752,8.19a1.152,1.152,0,0,0,1.63-1.63L21.337,4.516a1.152,1.152,0,1,0-1.63,1.63Z"/>
  </g>
</svg>
