<svg xmlns="http://www.w3.org/2000/svg" width="154" height="154" viewBox="0 0 154 154">
  <g id="Grupo_108905" data-name="Grupo 108905" transform="translate(-723 -8006.3)">
    <circle id="Elipse_4707" data-name="Elipse 4707" cx="77" cy="77" r="77" transform="translate(723 8006.3)" fill="#ffc967"/>
    <g id="idea" transform="translate(723 8006.3)">
      <g id="Grupo_108404" data-name="Grupo 108404">
        <path id="Trazado_156361" data-name="Trazado 156361" d="M58.076,121.582H54.79a11.11,11.11,0,0,0-11.11,11.11v19.053h66.638V132.691a11.11,11.11,0,0,0-11.11-11.11Z" fill="#c4e2ff"/>
        <path id="Trazado_156362" data-name="Trazado 156362" d="M99.209,121.582H91.536a11.11,11.11,0,0,1,11.11,11.11v19.053h7.674V132.692A11.11,11.11,0,0,0,99.209,121.582Z" fill="#b3dafe"/>
        <path id="Trazado_156363" data-name="Trazado 156363" d="M66.707,100.187v16.685l10.255,6.837,10.255-6.837V100.187Z" fill="#ffbfb1"/>
        <path id="Trazado_156364" data-name="Trazado 156364" d="M101.713,75.939c-.115,0-.228,0-.342.009a24.753,24.753,0,0,0-48.818,0c-.114,0-.227-.009-.342-.009a8.4,8.4,0,1,0,0,16.809c.115,0,.228,0,.342-.009a24.753,24.753,0,0,0,48.818,0c.114,0,.227.009.342.009a8.4,8.4,0,1,0,0-16.809Z" fill="#ffcebf"/>
        <path id="Trazado_156365" data-name="Trazado 156365" d="M66.707,116.872l-8.669,4.71,12.23,9.116,6.694-6.989Z" fill="#b3dafe"/>
        <path id="Trazado_156366" data-name="Trazado 156366" d="M87.217,116.872l8.669,4.71L83.656,130.7l-6.694-6.989Z" fill="#b3dafe"/>
        <path id="Trazado_156367" data-name="Trazado 156367" d="M76.962,123.709,71.705,129.2l1.905,7.466h6.7l1.905-7.466Z" fill="#fd544d"/>
        <path id="Trazado_156368" data-name="Trazado 156368" d="M73.6,136.663l-2.963,15.081H83.268l-2.963-15.081Z" fill="#fd544d"/>
        <path id="Trazado_156369" data-name="Trazado 156369" d="M36.643,19.642l2.578,5.224a1.5,1.5,0,0,0,1.132.822l5.765.838a1.5,1.5,0,0,1,.833,2.564l-4.172,4.066a1.5,1.5,0,0,0-.433,1.331l.985,5.741a1.5,1.5,0,0,1-2.182,1.585L35.994,39.1a1.5,1.5,0,0,0-1.4,0l-5.156,2.711a1.5,1.5,0,0,1-2.182-1.585l.985-5.741a1.5,1.5,0,0,0-.433-1.331L23.638,29.09a1.5,1.5,0,0,1,.833-2.564l5.765-.838a1.5,1.5,0,0,0,1.132-.822l2.578-5.224a1.5,1.5,0,0,1,2.7,0Z" fill="#fe9738"/>
        <path id="Trazado_156370" data-name="Trazado 156370" d="M117.357,19.642l-2.578,5.224a1.5,1.5,0,0,1-1.132.822l-5.765.838a1.5,1.5,0,0,0-.833,2.564l4.172,4.066a1.5,1.5,0,0,1,.433,1.331l-.985,5.741a1.5,1.5,0,0,0,2.182,1.585l5.156-2.711a1.5,1.5,0,0,1,1.4,0l5.156,2.711a1.5,1.5,0,0,0,2.182-1.585l-.985-5.741a1.5,1.5,0,0,1,.433-1.331l4.172-4.066a1.5,1.5,0,0,0-.833-2.564l-5.765-.838a1.5,1.5,0,0,1-1.132-.822l-2.578-5.224a1.5,1.5,0,0,0-2.7,0Z" fill="#fe9738"/>
        <path id="Trazado_156371" data-name="Trazado 156371" d="M72.071,26.2h9.781a13.36,13.36,0,0,1,3.089-5.061,11.131,11.131,0,1,0-15.958,0A13.352,13.352,0,0,1,72.071,26.2Z" fill="#fdb97e"/>
        <path id="Trazado_156372" data-name="Trazado 156372" d="M72.071,26.2h9.781v4.005a4.891,4.891,0,1,1-9.781,0V26.2Z" fill="#537983"/>
        <g id="Grupo_108399" data-name="Grupo 108399">
          <path id="Trazado_156373" data-name="Trazado 156373" d="M62.69,96.091H59.366a2.191,2.191,0,1,1,0-4.382H62.69a2.191,2.191,0,0,1,0,4.382Z" fill="#ffb09e"/>
        </g>
        <path id="Trazado_156374" data-name="Trazado 156374" d="M101.713,75.939c-.115,0-.228,0-.342.009A24.753,24.753,0,0,0,72.7,55.678,24.769,24.769,0,0,1,92.845,75.947c.114,0,.227-.009.342-.009a8.4,8.4,0,1,1,0,16.809c-.115,0-.228,0-.342-.009A24.769,24.769,0,0,1,72.7,113.008a24.753,24.753,0,0,0,28.672-20.269c.114,0,.227.009.342.009a8.4,8.4,0,1,0,0-16.809Z" fill="#ffbfb1"/>
        <path id="Trazado_156375" data-name="Trazado 156375" d="M87.217,116.872l-3.445,2.3,4.441,2.413-7.753,5.779,3.2,3.337,12.23-9.116Z" fill="#8ac9fe"/>
        <path id="Trazado_156376" data-name="Trazado 156376" d="M47.129,55.308a18.563,18.563,0,0,0-.818,5.464V75.947H81.466a13.974,13.974,0,0,0,9.359-3.581,9.457,9.457,0,0,0,7.416,3.581h9.372V61.037a13.835,13.835,0,0,0-1.236-5.728H47.129Z" fill="#c4573a"/>
        <g id="Grupo_108400" data-name="Grupo 108400">
          <path id="Trazado_156377" data-name="Trazado 156377" d="M106.377,55.308H97a13.842,13.842,0,0,1,1.236,5.728V75.947h9.379V61.037A13.837,13.837,0,0,0,106.377,55.308Z" fill="#a74b30"/>
        </g>
        <g id="Grupo_108401" data-name="Grupo 108401">
          <path id="Trazado_156378" data-name="Trazado 156378" d="M94.558,96.091H91.234a2.191,2.191,0,1,1,0-4.382h3.323a2.191,2.191,0,0,1,0,4.382Z" fill="#ffb09e"/>
        </g>
        <path id="Trazado_156379" data-name="Trazado 156379" d="M88.082,12.9A11.132,11.132,0,0,0,73.543,2.794,11.123,11.123,0,0,1,78.12,21.143,13.364,13.364,0,0,0,75.031,26.2h6.821a13.356,13.356,0,0,1,3.089-5.061,11.093,11.093,0,0,0,3.14-8.24Z" fill="#fea95c"/>
        <path id="Trazado_156380" data-name="Trazado 156380" d="M75.031,26.2v4.005a4.874,4.874,0,0,1-1.48,3.5,4.888,4.888,0,0,0,8.3-3.5V26.2Z" fill="#3e5959"/>
        <g id="Grupo_108402" data-name="Grupo 108402">
          <path id="Trazado_156381" data-name="Trazado 156381" d="M46.951,29.09a1.5,1.5,0,0,0-.833-2.564l-5.765-.838a1.5,1.5,0,0,1-1.132-.822l-2.578-5.224a1.5,1.5,0,0,0-2.7,0L31.884,23.82l.516,1.045a1.5,1.5,0,0,0,1.132.822l5.765.838a1.5,1.5,0,0,1,.833,2.564l-4.172,4.066a1.5,1.5,0,0,0-.433,1.331l.824,4.8,4.8,2.524a1.5,1.5,0,0,0,2.181-1.585l-.985-5.741a1.5,1.5,0,0,1,.433-1.331Z" fill="#fe860a"/>
        </g>
        <g id="Grupo_108403" data-name="Grupo 108403">
          <path id="Trazado_156382" data-name="Trazado 156382" d="M130.362,29.09a1.5,1.5,0,0,0-.833-2.564l-5.765-.838a1.5,1.5,0,0,1-1.132-.822l-2.578-5.224a1.5,1.5,0,0,0-2.7,0L115.3,23.82l.516,1.045a1.5,1.5,0,0,0,1.132.822l5.765.838a1.5,1.5,0,0,1,.833,2.564l-4.171,4.066a1.5,1.5,0,0,0-.433,1.331l.824,4.8,4.8,2.524a1.5,1.5,0,0,0,2.181-1.585l-.985-5.741a1.5,1.5,0,0,1,.433-1.331Z" fill="#fe860a"/>
        </g>
      </g>
      <g id="Grupo_108405" data-name="Grupo 108405">
        <path id="Trazado_156383" data-name="Trazado 156383" d="M64.881,81.606a2.256,2.256,0,0,0-2.256,2.256v4.558a2.256,2.256,0,1,0,4.512,0V83.861A2.256,2.256,0,0,0,64.881,81.606Z"/>
        <path id="Trazado_156384" data-name="Trazado 156384" d="M89.043,90.675A2.256,2.256,0,0,0,91.3,88.419V83.861a2.256,2.256,0,0,0-4.512,0v4.558A2.256,2.256,0,0,0,89.043,90.675Z"/>
        <path id="Trazado_156385" data-name="Trazado 156385" d="M76.962,103.668a7.521,7.521,0,0,0,7.512-7.513,2.256,2.256,0,1,0-4.512,0,3,3,0,1,1-6,0,2.256,2.256,0,1,0-4.512,0,7.521,7.521,0,0,0,7.512,7.513Z"/>
        <path id="Trazado_156386" data-name="Trazado 156386" d="M74.706,42.926v6.382a2.256,2.256,0,1,0,4.512,0V42.926a2.256,2.256,0,0,0-4.512,0Z"/>
        <path id="Trazado_156387" data-name="Trazado 156387" d="M45.555,39.847,44.637,34.5l3.888-3.79a3.76,3.76,0,0,0-2.084-6.412l-5.373-.781-2.4-4.869a3.76,3.76,0,0,0-6.742,0l-2.4,4.869-5.373.781a3.759,3.759,0,0,0-2.083,6.412l3.888,3.79-.918,5.351a3.761,3.761,0,0,0,5.455,3.963l4.806-2.527L40.1,43.81a3.76,3.76,0,0,0,5.454-3.963Zm-5.431-4.979.727,4.239-3.806-2a3.759,3.759,0,0,0-3.5,0l-3.807,2,.727-4.239a3.759,3.759,0,0,0-1.081-3.327l-3.079-3,4.255-.619a3.759,3.759,0,0,0,2.831-2.056l1.9-3.857,1.9,3.857a3.759,3.759,0,0,0,2.83,2.056l4.256.619-3.079,3a3.76,3.76,0,0,0-1.081,3.328Z"/>
        <path id="Trazado_156388" data-name="Trazado 156388" d="M48.143,36.827a2.258,2.258,0,0,0,2.494,1.99C51.019,38.775,60,37.9,62.053,49.7a2.256,2.256,0,0,0,4.445-.775c-2.776-15.926-16.229-14.6-16.365-14.587a2.256,2.256,0,0,0-1.99,2.494Z"/>
        <path id="Trazado_156389" data-name="Trazado 156389" d="M129.853,24.293l-5.373-.781-2.4-4.869a3.76,3.76,0,0,0-6.742,0l-2.4,4.869-5.373.781a3.76,3.76,0,0,0-2.084,6.412l3.888,3.79-.918,5.352A3.76,3.76,0,0,0,113.9,43.81l4.806-2.527,4.806,2.527a3.76,3.76,0,0,0,5.454-3.963l-.918-5.352,3.888-3.79a3.76,3.76,0,0,0-2.083-6.412Zm-5.237,7.248a3.759,3.759,0,0,0-1.081,3.327l.727,4.239-3.806-2a3.759,3.759,0,0,0-3.5,0l-3.807,2,.727-4.239a3.758,3.758,0,0,0-1.081-3.328l-3.079-3,4.255-.619a3.759,3.759,0,0,0,2.831-2.056l1.9-3.857,1.9,3.857a3.759,3.759,0,0,0,2.83,2.056l4.256.619Z"/>
        <path id="Trazado_156390" data-name="Trazado 156390" d="M89.727,51.564a2.256,2.256,0,0,0,2.22-1.869c.863-4.95,3.017-8.274,6.4-9.878a10.628,10.628,0,0,1,5.028-1,2.256,2.256,0,0,0,.491-4.485c-.136-.016-13.589-1.339-16.365,14.587A2.257,2.257,0,0,0,89.727,51.564Z"/>
        <path id="Trazado_156391" data-name="Trazado 156391" d="M69.815,26.6v3.606a7.146,7.146,0,1,0,14.293,0V26.6a11.176,11.176,0,0,1,2.45-3.887,13.269,13.269,0,0,0,3.777-9.909,13.387,13.387,0,0,0-26.76.581,13.31,13.31,0,0,0,3.791,9.331A11.158,11.158,0,0,1,69.815,26.6ZM79.6,30.209a2.635,2.635,0,1,1-5.269,0V28.46H79.6ZM77.312,4.519A8.91,8.91,0,0,1,85.828,13a8.8,8.8,0,0,1-2.5,6.572,15.714,15.714,0,0,0-3,4.378H73.6a15.71,15.71,0,0,0-3-4.377A8.872,8.872,0,0,1,77.312,4.519Z"/>
        <path id="Trazado_156392" data-name="Trazado 156392" d="M99.209,119.326h-2.75l-6.986-3.8v-2.971A27.033,27.033,0,0,0,103.234,94.9,10.671,10.671,0,0,0,109.549,77.1a2.243,2.243,0,0,0,.321-1.155V61.037a16.027,16.027,0,0,0-1.437-6.66,2.255,2.255,0,0,0-2.055-1.325H47.129a2.256,2.256,0,0,0-2.156,1.593,20.814,20.814,0,0,0-.806,3.961,2.256,2.256,0,1,0,4.488.465q.079-.758.228-1.508h55.947a11.556,11.556,0,0,1,.529,3.473V73.691H98.242a7.188,7.188,0,0,1-5.651-2.73,2.259,2.259,0,0,0-3.271-.275,11.749,11.749,0,0,1-7.854,3h-32.9V69.363a2.256,2.256,0,0,0-4.512,0v6.584a2.244,2.244,0,0,0,.321,1.155A10.671,10.671,0,0,0,50.689,94.9a27.032,27.032,0,0,0,13.761,17.664v2.971l-6.986,3.8H54.79a13.381,13.381,0,0,0-13.366,13.366v19.053A2.256,2.256,0,0,0,43.681,154H90.6a2.256,2.256,0,1,0,0-4.512H85.124l-2.5-12.744.968-3.794A2.266,2.266,0,0,0,85,132.506l11.63-8.668h2.575a8.864,8.864,0,0,1,8.854,8.854v16.8h-6.935a2.256,2.256,0,1,0,0,4.512h9.191a2.256,2.256,0,0,0,2.256-2.256V132.691a13.381,13.381,0,0,0-13.366-13.365Zm-37,2.555,4.374-2.376,6.883,4.589-3.453,3.6-5.376-4.007ZM74.2,129.853l2.761-2.883,2.761,2.883-1.162,4.554h-3.2Zm9.7-2.156-3.453-3.6,6.883-4.589,4.374,2.376ZM54.778,92.367a2.256,2.256,0,0,0-2.224-1.884,6.148,6.148,0,1,1-.635-12.28H81.466a16.25,16.25,0,0,0,9.151-2.815A11.658,11.658,0,0,0,98.149,78.2l.092,0H102a6.147,6.147,0,0,1-.541,12.282,2.248,2.248,0,0,0-2.318,1.882,22.421,22.421,0,0,1-22.183,18.755h0A22.43,22.43,0,0,1,54.778,92.367Zm22.184,23.267a27.236,27.236,0,0,0,8-1.208v1.238l-8,5.333-8-5.333v-1.239a27.2,27.2,0,0,0,8,1.208ZM45.937,132.692a8.864,8.864,0,0,1,8.854-8.854h2.5l11.63,8.669a2.272,2.272,0,0,0,1.415.444l.96,3.763-2.51,12.775H45.937Zm27.447,16.8,2.076-10.57h2.99l2.076,10.57Z"/>
      </g>
    </g>
  </g>
</svg>
