<svg xmlns="http://www.w3.org/2000/svg" width="154" height="154" viewBox="0 0 154 154">
  <g id="Grupo_108911" data-name="Grupo 108911" transform="translate(1835 3833)">
    <circle id="Elipse_4713" data-name="Elipse 4713" cx="77" cy="77" r="77" transform="translate(-1835 -3833)" fill="#ffc967"/>
    <g id="insatisfaccion" transform="translate(-1834.489 -3832.999)">
      <g id="Grupo_108498" data-name="Grupo 108498">
        <g id="Grupo_108480" data-name="Grupo 108480">
          <path id="Trazado_156601" data-name="Trazado 156601" d="M101.163,113.5v27.141a4.949,4.949,0,0,1-4.935,4.935h-14.8l4.935-4.935-4.935-29.609,1.974-7.9,5.428,5.428,4.121-12.337H98.7a27.126,27.126,0,0,1,27.141,27.141v2.467h-14.8v-2.467A9.867,9.867,0,0,0,101.163,113.5Z" fill="#b4dd7f"/>
        </g>
        <g id="Grupo_108481" data-name="Grupo 108481">
          <path id="Trazado_156602" data-name="Trazado 156602" d="M92.946,96.228l-4.121,12.337L83.4,103.137l-6.909-6.909H92.946Z" fill="#b4dd7f"/>
        </g>
        <g id="Grupo_108482" data-name="Grupo 108482">
          <path id="Trazado_156603" data-name="Trazado 156603" d="M51.815,113.5a9.867,9.867,0,0,0-9.87,9.87v2.467h-14.8v-2.467A27.126,27.126,0,0,1,54.282,96.228h5.749l4.121,12.337,5.428-5.428,1.974,7.9-4.935,29.609,4.935,4.935H56.75a4.949,4.949,0,0,1-4.935-4.935Z" fill="#b4dd7f"/>
        </g>
        <g id="Grupo_108483" data-name="Grupo 108483">
          <path id="Trazado_156604" data-name="Trazado 156604" d="M76.489,96.228l-6.909,6.909-5.428,5.428L60.031,96.228H76.489Z" fill="#b4dd7f"/>
        </g>
        <g id="Grupo_108484" data-name="Grupo 108484">
          <path id="Trazado_156605" data-name="Trazado 156605" d="M125.837,125.837v7.4a7.4,7.4,0,0,1-14.8,0v-7.4Z" fill="#f0d0b4"/>
        </g>
        <g id="Grupo_108485" data-name="Grupo 108485">
          <path id="Trazado_156606" data-name="Trazado 156606" d="M41.946,125.837v7.4a7.4,7.4,0,0,1-14.8,0v-7.4Z" fill="#f0d0b4"/>
        </g>
        <g id="Grupo_108486" data-name="Grupo 108486">
          <path id="Trazado_156607" data-name="Trazado 156607" d="M81.424,111.032l4.935,29.609-4.935,4.935-4.935,4.935-4.935-4.935-4.935-4.935,4.935-29.609Z" fill="#ef7385"/>
        </g>
        <g id="Grupo_108487" data-name="Grupo 108487">
          <path id="Trazado_156608" data-name="Trazado 156608" d="M83.4,103.137l-1.974,7.9h-9.87l-1.974-7.9,6.909-6.909Z" fill="#ef7385"/>
        </g>
        <g id="Grupo_108488" data-name="Grupo 108488">
          <path id="Trazado_156609" data-name="Trazado 156609" d="M111.032,35.8a9.838,9.838,0,0,1-4.713,1.209c-1.8,0-3.578-.1-5.379-.271L57.49,32.15q-.74-.074-1.48-.074A14.058,14.058,0,0,0,41.946,46.14v.74H37.011a9.831,9.831,0,0,0-7.723,3.726L27.24,30.546a16.055,16.055,0,0,1-.1-1.9A18.786,18.786,0,0,1,45.918,9.87h.962l1.258-1.258A21.078,21.078,0,0,1,62.992,2.467c.765,0,1.554.049,2.319.123,0,0,30.744,3.43,40.391,4.491a50,50,0,0,0,5.774.321h.1a16.566,16.566,0,0,0,11.7-4.836l.1-.1,2.418,4.047a34.839,34.839,0,0,1,3.5,28l-5.058,16.852a9.822,9.822,0,0,0-8.266-4.491h-4.935Z" fill="#fcd770"/>
        </g>
        <g id="Grupo_108489" data-name="Grupo 108489">
          <path id="Trazado_156610" data-name="Trazado 156610" d="M111.032,61.685V46.88h4.935a9.89,9.89,0,0,1,9.87,9.87,9.856,9.856,0,0,1-9.87,9.87h-4.935Z" fill="#f0d0b4"/>
        </g>
        <g id="Grupo_108490" data-name="Grupo 108490">
          <path id="Trazado_156611" data-name="Trazado 156611" d="M56.75,49V56.75a4.971,4.971,0,0,0,4.935,4.935,4.949,4.949,0,0,0,4.935-4.935V51.815Zm39.478,0-9.87,2.813V56.75a4.949,4.949,0,0,0,4.935,4.935,4.971,4.971,0,0,0,4.935-4.935ZM41.946,46.88v-.74A14.058,14.058,0,0,1,56.01,32.076q.74,0,1.48.074l43.451,4.589c1.8.173,3.578.271,5.379.271a9.838,9.838,0,0,0,4.713-1.209V71.554A24.683,24.683,0,0,1,86.358,96.228H66.619A24.683,24.683,0,0,1,41.946,71.554V46.88ZM86.358,81.424V75.8a4.244,4.244,0,0,0-4.244-4.244,3.974,3.974,0,0,0-1.332.222L68.3,75.921a2.5,2.5,0,0,0-1.678,2.344v3.158a4.949,4.949,0,0,0,4.935,4.935h9.87A4.949,4.949,0,0,0,86.358,81.424Z" fill="#f0d0b4"/>
        </g>
        <g id="Grupo_108491" data-name="Grupo 108491">
          <path id="Trazado_156612" data-name="Trazado 156612" d="M41.946,61.685v4.935H37.011a9.856,9.856,0,0,1-9.87-9.87,9.666,9.666,0,0,1,2.147-6.119v-.025a9.831,9.831,0,0,1,7.723-3.726h4.935Z" fill="#f0d0b4"/>
        </g>
        <g id="Grupo_108492" data-name="Grupo 108492">
          <path id="Trazado_156613" data-name="Trazado 156613" d="M86.358,75.8v5.626a4.949,4.949,0,0,1-4.935,4.935h-9.87a4.949,4.949,0,0,1-4.935-4.935V78.265A2.5,2.5,0,0,1,68.3,75.921l12.485-4.145a3.974,3.974,0,0,1,1.332-.222A4.244,4.244,0,0,1,86.358,75.8Z" fill="#ef7385"/>
        </g>
        <g id="Grupo_108493" data-name="Grupo 108493">
          <path id="Trazado_156614" data-name="Trazado 156614" d="M96.228,49V56.75a4.971,4.971,0,0,1-4.935,4.935,4.949,4.949,0,0,1-4.935-4.935V51.815Z" fill="#b27946"/>
        </g>
        <g id="Grupo_108494" data-name="Grupo 108494">
          <path id="Trazado_156615" data-name="Trazado 156615" d="M66.619,51.815V56.75a4.949,4.949,0,0,1-4.935,4.935A4.971,4.971,0,0,1,56.75,56.75V49Z" fill="#b27946"/>
        </g>
        <g id="Grupo_108495" data-name="Grupo 108495">
          <path id="Trazado_156616" data-name="Trazado 156616" d="M0,86.358H2.467a9.867,9.867,0,0,0,9.87-9.87V74.022h9.87v2.467a9.867,9.867,0,0,0,9.87,9.87h2.467v9.87H32.076a9.867,9.867,0,0,0-9.87,9.87v2.467h-9.87V106.1a9.867,9.867,0,0,0-9.87-9.87H0Z" fill="#ef7385"/>
        </g>
        <g id="Grupo_108496" data-name="Grupo 108496">
          <path id="Trazado_156617" data-name="Trazado 156617" d="M118.434,76.489H120.9a9.867,9.867,0,0,0,9.87-9.87V64.152h9.87v2.467a9.867,9.867,0,0,0,9.87,9.87h2.467v9.87H150.51a9.867,9.867,0,0,0-9.87,9.87V98.7h-9.87V96.228a9.867,9.867,0,0,0-9.87-9.87h-2.467Z" fill="#ef7385"/>
        </g>
        <g id="Grupo_108497" data-name="Grupo 108497">
          <path id="Trazado_156618" data-name="Trazado 156618" d="M0,7.4H2.467A4.949,4.949,0,0,0,7.4,2.467V0h9.87V2.467A4.949,4.949,0,0,0,22.206,7.4h2.467v9.87H22.206a4.949,4.949,0,0,0-4.935,4.935v2.467H7.4V22.206a4.949,4.949,0,0,0-4.935-4.935H0Z" fill="#ef7385"/>
        </g>
      </g>
      <g id="Grupo_108499" data-name="Grupo 108499">
        <path id="Trazado_156619" data-name="Trazado 156619" d="M69.087,56.75v-6.8L50.024,44.509l-1.355,4.745,5.613,1.6V56.75a7.4,7.4,0,1,0,14.8,0Zm-4.935,0a2.467,2.467,0,1,1-4.935,0V52.267l4.935,1.409Z"/>
        <path id="Trazado_156620" data-name="Trazado 156620" d="M83.891,49.955v6.8a7.4,7.4,0,1,0,14.8,0V50.855l5.611-1.6-1.355-4.745Zm9.87,6.8a2.467,2.467,0,1,1-4.935,0V53.675l4.935-1.409Z"/>
        <path id="Trazado_156621" data-name="Trazado 156621" d="M82.112,69.087a6.638,6.638,0,0,0-2.122.345L67.525,73.587a4.928,4.928,0,0,0-3.373,4.681v3.156a7.411,7.411,0,0,0,7.4,7.4h9.87a7.411,7.411,0,0,0,7.4-7.4V75.8A6.723,6.723,0,0,0,82.112,69.087Zm1.779,12.337a2.47,2.47,0,0,1-2.467,2.467h-9.87a2.47,2.47,0,0,1-2.467-2.467V78.268l12.468-4.155A1.775,1.775,0,0,1,83.891,75.8Z"/>
        <path id="Trazado_156622" data-name="Trazado 156622" d="M125.484,1.2a2.489,2.489,0,0,0-1.86-1.13,2.581,2.581,0,0,0-2.095.753,14.227,14.227,0,0,1-10.052,4.113,48.911,48.911,0,0,1-5.5-.3L65.581.143a23.461,23.461,0,0,0-19.2,6.736l-.523.523A21.281,21.281,0,0,0,24.674,28.659c0,.718.037,1.436.109,2.149l1.947,19.154A12.313,12.313,0,0,0,37.011,69.087h2.467v2.467A27.125,27.125,0,0,0,51.267,93.914a29.651,29.651,0,0,0-26.593,29.456v9.87a9.87,9.87,0,0,0,19.739,0v-9.87a7.392,7.392,0,0,1,4.935-6.948v24.22a7.411,7.411,0,0,0,7.4,7.4H70.533L76.489,154l5.956-5.956H96.228a7.411,7.411,0,0,0,7.4-7.4v-24.22a7.392,7.392,0,0,1,4.935,6.948v9.87a9.87,9.87,0,1,0,19.739,0v-9.87a29.651,29.651,0,0,0-26.593-29.456A27.125,27.125,0,0,0,113.5,71.554V69.087h2.467A12.351,12.351,0,0,0,128.3,56.75a12.17,12.17,0,0,0-1.414-5.611l4.772-15.91a37.411,37.411,0,0,0-3.753-29.991ZM37.011,64.152a7.4,7.4,0,1,1,0-14.8h2.467v6.381l-3.19-3.19L32.8,56.027l6.679,6.679v1.446ZM89.517,98.7,87.75,104l-5.3-5.3Zm-10.02,9.87H73.481l-1.17-4.671,4.177-4.177,4.177,4.177ZM65.23,104l-1.769-5.3h7.072ZM34.543,138.174a4.94,4.94,0,0,1-4.935-4.935V128.3h9.87v4.935A4.94,4.94,0,0,1,34.543,138.174Zm22.206,4.935a2.47,2.47,0,0,1-2.467-2.467V106.1H49.348v5.184a12.358,12.358,0,0,0-9.87,12.088h-9.87A24.7,24.7,0,0,1,54.282,98.7h3.98l4.814,14.437,5.169-5.169.792,3.171-5.061,30.354,1.621,1.621Zm12.512-3.314L73.644,113.5h5.69l4.382,26.295-7.227,7.227Zm49.173-1.621a4.94,4.94,0,0,1-4.935-4.935V128.3h9.87v4.935A4.94,4.94,0,0,1,118.434,138.174Zm4.935-14.8H113.5a12.36,12.36,0,0,0-9.87-12.088V106.1H98.7v34.543a2.47,2.47,0,0,1-2.467,2.467H87.38L89,141.487,83.94,111.133l.792-3.171,5.169,5.169L94.715,98.7H98.7a24.7,24.7,0,0,1,24.674,24.674ZM86.358,93.761H66.619A22.232,22.232,0,0,1,44.413,71.554V46.143A11.664,11.664,0,0,1,57.226,34.608l43.465,4.575a53.667,53.667,0,0,0,5.633.3,11.975,11.975,0,0,0,2.24-.227v32.3A22.23,22.23,0,0,1,86.358,93.761Zm29.609-29.609H113.5V62.706l6.679-6.679-3.489-3.489-3.19,3.19V49.348h2.467a7.4,7.4,0,1,1,0,14.8Zm10.968-30.341L123.068,46.7a12.25,12.25,0,0,0-7.1-2.282H113.5V37.07a12.058,12.058,0,0,0-.459-19.779l-3.109-2.073L107.2,19.325,110.3,21.4a7.176,7.176,0,0,1-3.98,13.146,49.147,49.147,0,0,1-5.115-.269L57.747,29.7a16.3,16.3,0,0,0-1.735-.091,16.555,16.555,0,0,0-16.443,14.8H37.011a12.19,12.19,0,0,0-5.734,1.48L29.692,30.3a15.9,15.9,0,0,1-.084-1.643A16.34,16.34,0,0,1,45.928,12.337h.952a2.457,2.457,0,0,0,1.744-.723l1.246-1.246a18.568,18.568,0,0,1,15.165-5.32l40.394,4.488a54.54,54.54,0,0,0,6.159.333,19.11,19.11,0,0,0,11.16-3.644l.93,1.55a32.473,32.473,0,0,1,3.257,26.036Z"/>
        <path id="Trazado_156623" data-name="Trazado 156623" d="M9.87,76.489a7.411,7.411,0,0,1-7.4,7.4H0v4.935H2.467A12.351,12.351,0,0,0,14.8,76.489V74.022H9.87Z"/>
        <path id="Trazado_156624" data-name="Trazado 156624" d="M19.739,74.022v2.467A12.351,12.351,0,0,0,32.076,88.826h2.467V83.891H32.076a7.411,7.411,0,0,1-7.4-7.4V74.022Z"/>
        <path id="Trazado_156625" data-name="Trazado 156625" d="M2.467,93.761H0V98.7H2.467a7.411,7.411,0,0,1,7.4,7.4v2.467H14.8V106.1A12.351,12.351,0,0,0,2.467,93.761Z"/>
        <path id="Trazado_156626" data-name="Trazado 156626" d="M24.674,106.1a7.411,7.411,0,0,1,7.4-7.4h2.467V93.761H32.076A12.351,12.351,0,0,0,19.739,106.1v2.467h4.935Z"/>
        <path id="Trazado_156627" data-name="Trazado 156627" d="M128.3,66.619a7.411,7.411,0,0,1-7.4,7.4h-2.467v4.935H120.9a12.351,12.351,0,0,0,12.337-12.337V64.152H128.3Z"/>
        <path id="Trazado_156628" data-name="Trazado 156628" d="M150.51,74.022a7.411,7.411,0,0,1-7.4-7.4V64.152h-4.935v2.467A12.351,12.351,0,0,0,150.51,78.956h2.467V74.022Z"/>
        <path id="Trazado_156629" data-name="Trazado 156629" d="M120.9,83.891h-2.467v4.935H120.9a7.411,7.411,0,0,1,7.4,7.4V98.7h4.935V96.228A12.351,12.351,0,0,0,120.9,83.891Z"/>
        <path id="Trazado_156630" data-name="Trazado 156630" d="M138.174,96.228V98.7h4.935V96.228a7.411,7.411,0,0,1,7.4-7.4h2.467V83.891H150.51A12.351,12.351,0,0,0,138.174,96.228Z"/>
        <path id="Trazado_156631" data-name="Trazado 156631" d="M9.87,2.467V0H4.935V2.467A2.47,2.47,0,0,1,2.467,4.935H0V9.87H2.467A7.41,7.41,0,0,0,9.87,2.467Z"/>
        <path id="Trazado_156632" data-name="Trazado 156632" d="M22.206,9.87h2.467V4.935H22.206a2.468,2.468,0,0,1-2.467-2.467V0H14.8V2.467A7.41,7.41,0,0,0,22.206,9.87Z"/>
        <path id="Trazado_156633" data-name="Trazado 156633" d="M4.935,22.206v2.467H9.87V22.206a7.411,7.411,0,0,0-7.4-7.4H0v4.935H2.467A2.47,2.47,0,0,1,4.935,22.206Z"/>
        <path id="Trazado_156634" data-name="Trazado 156634" d="M19.739,22.206a2.47,2.47,0,0,1,2.467-2.467h2.467V14.8H22.206a7.411,7.411,0,0,0-7.4,7.4v2.467h4.935Z"/>
      </g>
    </g>
  </g>
</svg>
