<svg xmlns="http://www.w3.org/2000/svg" width="470" height="154" viewBox="0 0 470 154">
  <g id="Grupo_108917" data-name="Grupo 108917" transform="translate(3350 2511)">
    <path id="Rectángulo_36102" data-name="Rectángulo 36102" d="M0,0H393a77,77,0,0,1,77,77v0a77,77,0,0,1-77,77H0a0,0,0,0,1,0,0V0A0,0,0,0,1,0,0Z" transform="translate(-3350 -2511)" fill="#6765a9"/>
    <g id="cliente_2_" data-name="cliente (2)" transform="translate(-3249.467 -2505.467)">
      <path id="Trazado_156432" data-name="Trazado 156432" d="M51.367,78.167a8.933,8.933,0,0,0-8.933-8.933h-6.7L33.5,64.767H24.567L27,72.058a8.933,8.933,0,0,0,8.475,6.108h2.495l13.4,35.733h13.4Z" fill="#f7cca9"/>
      <path id="Trazado_156433" data-name="Trazado 156433" d="M125.067,55.833V33.5a26.8,26.8,0,1,0-53.6,0V55.833a8.933,8.933,0,0,0-8.933,8.933v4.467a8.933,8.933,0,0,0,8.933,8.933h53.6A8.933,8.933,0,0,0,134,69.233V64.767A8.933,8.933,0,0,0,125.067,55.833Z" fill="#ad6643"/>
      <path id="Trazado_156434" data-name="Trazado 156434" d="M122.833,73.7H77.156a8.934,8.934,0,0,0-8.1,5.156L55.833,104.967,67,113.9l11.167-13.4v35.733h53.6v-53.6A8.933,8.933,0,0,0,122.833,73.7Z" fill="#f7b030"/>
      <path id="Trazado_156435" data-name="Trazado 156435" d="M118.367,109.433h13.4v26.8h-13.4Z" fill="#f7cca9"/>
      <g id="Grupo_108413" data-name="Grupo 108413">
        <path id="Trazado_156436" data-name="Trazado 156436" d="M80.4,51.367a8.933,8.933,0,1,1,0-17.867h2.233V51.367Z" fill="#edc4a2"/>
        <path id="Trazado_156437" data-name="Trazado 156437" d="M116.133,33.5a8.933,8.933,0,1,1,0,17.867H113.9V33.5Z" fill="#edc4a2"/>
        <path id="Trazado_156438" data-name="Trazado 156438" d="M91.567,60.3h13.4V73.7a4.467,4.467,0,0,1-4.467,4.467H96.033A4.467,4.467,0,0,1,91.567,73.7Z" fill="#edc4a2"/>
      </g>
      <path id="Trazado_156439" data-name="Trazado 156439" d="M107.2,24.567,80.4,33.5V46.9a17.867,17.867,0,1,0,35.733,0V33.5Z" fill="#f7cca9"/>
      <path id="Trazado_156440" data-name="Trazado 156440" d="M64.767,91.567h-40.2L20.1,136.233H69.233Z" fill="#c7312e"/>
      <path id="Trazado_156441" data-name="Trazado 156441" d="M53.6,91.567H13.4L8.933,136.233H58.067Z" fill="#eb423f"/>
      <path id="Trazado_156442" data-name="Trazado 156442" d="M127.3,53.823V33.5a29.033,29.033,0,1,0-58.067,0V53.823A11.186,11.186,0,0,0,60.3,64.767v4.467a11.249,11.249,0,0,0,6.094,9.945L61.249,89.333h-3.31L53.592,77.74A11.18,11.18,0,0,0,42.433,67h-5.32L35.5,63.768a2.233,2.233,0,0,0-2-1.234H24.567a2.233,2.233,0,0,0-2.119,2.94l1.438,4.315c-.177.155-.35.315-.516.482a11.1,11.1,0,0,0-3.27,7.9V89.333H13.4a2.233,2.233,0,0,0-2.222,2.01L6.711,136.01a2.233,2.233,0,0,0,2.222,2.457h60.3a2.233,2.233,0,0,0,2.222-2.457l-2.14-21.4,6.618-7.939v29.564a2.233,2.233,0,0,0,2.233,2.233h53.6A2.233,2.233,0,0,0,134,136.233v-53.6a11.094,11.094,0,0,0-1.312-5.248,11.237,11.237,0,0,0,3.545-8.152V64.767A11.186,11.186,0,0,0,127.3,53.823Zm4.467,10.943v4.467a6.644,6.644,0,0,1-1.932,4.71,11.113,11.113,0,0,0-7-2.476H107.2V64.9a20.2,20.2,0,0,0,10.033-11.354,11.106,11.106,0,0,0,5.6-2.184v4.473a2.233,2.233,0,0,0,2.233,2.233,6.708,6.708,0,0,1,6.7,6.7Zm-33.5-2.233A15.651,15.651,0,0,1,82.633,46.9V35.11L106.6,27.122l7.3,7.3V46.9A15.651,15.651,0,0,1,98.267,62.533ZM93.8,66.494a19.952,19.952,0,0,0,8.933,0V73.7a2.236,2.236,0,0,1-2.233,2.233H96.033A2.236,2.236,0,0,1,93.8,73.7ZM118.367,46.9V36.117a6.7,6.7,0,0,1-.091,12.662c.058-.619.091-1.246.091-1.88ZM98.267,8.933A24.6,24.6,0,0,1,122.833,33.5v.006a11.108,11.108,0,0,0-5.73-2.195l-8.324-8.324a2.233,2.233,0,0,0-2.286-.539L80.009,31.277A11.105,11.105,0,0,0,73.7,33.506V33.5A24.6,24.6,0,0,1,98.267,8.933ZM78.257,48.78a6.7,6.7,0,0,1-.091-12.662V46.9C78.167,47.534,78.2,48.161,78.257,48.78ZM64.767,64.767a6.708,6.708,0,0,1,6.7-6.7A2.233,2.233,0,0,0,73.7,55.833V51.361a11.106,11.106,0,0,0,5.6,2.185A20.2,20.2,0,0,0,89.333,64.9v6.568H77.156a11.209,11.209,0,0,0-8.443,3.869,6.744,6.744,0,0,1-3.947-6.1Zm-15.633,13.4a2.234,2.234,0,0,0,.142.784l3.893,10.382H46.9V78.167A11.09,11.09,0,0,0,45.045,72a6.71,6.71,0,0,1,4.088,6.17ZM32.12,67l1.616,3.232a2.233,2.233,0,0,0,2,1.234,6.7,6.7,0,0,1,6.7,6.7v5.55l-2.375-6.335a2.233,2.233,0,0,0-2.091-1.449H35.472a6.692,6.692,0,0,1-6.355-4.581L27.665,67ZM24.567,78.167a6.656,6.656,0,0,1,1.074-3.64A11.15,11.15,0,0,0,35.472,80.4h.947l3.35,8.933h-15.2ZM11.4,134l4.02-40.2H51.579L55.6,134Zm48.687,0-4.02-40.2h6.678l4.02,40.2ZM80.4,91.567a2.233,2.233,0,0,0-4.467,0V99.69l-7.241,8.689-1.7-17.036a2.228,2.228,0,0,0-.939-1.6l5-9.876.031-.065a6.724,6.724,0,0,1,6.071-3.866H89.719A6.711,6.711,0,0,0,96.033,80.4H100.5a6.711,6.711,0,0,0,6.316-4.467h16.017a6.708,6.708,0,0,1,6.7,6.7V107.2H120.6V91.567a2.233,2.233,0,0,0-4.467,0V134H80.4ZM120.6,134V111.667h8.933V134Z"/>
      <circle id="Elipse_4886" data-name="Elipse 4886" cx="2.233" cy="2.233" r="2.233" transform="translate(87.1 40.2)"/>
      <circle id="Elipse_4887" data-name="Elipse 4887" cx="2.233" cy="2.233" r="2.233" transform="translate(104.967 40.2)"/>
    </g>
  </g>
</svg>
