<svg xmlns="http://www.w3.org/2000/svg" width="470" height="154" viewBox="0 0 470 154">
  <g id="Grupo_108915" data-name="Grupo 108915" transform="translate(-265 -8804.3)">
    <path id="Rectángulo_36096" data-name="Rectángulo 36096" d="M0,0H393a77,77,0,0,1,77,77v0a77,77,0,0,1-77,77H0a0,0,0,0,1,0,0V0A0,0,0,0,1,0,0Z" transform="translate(265 8804.3)" fill="#6765a9"/>
    <g id="cliente_1_" data-name="cliente (1)" transform="translate(370.12 8814.3)">
      <path id="Trazado_156308" data-name="Trazado 156308" d="M56.531,6.281v38.4a21.025,21.025,0,0,0-9.506,11.851H35.594v8.375l-8.375-8.375H6.281a4.2,4.2,0,0,1-4.187-4.187V6.281A4.2,4.2,0,0,1,6.281,2.094H52.344A4.2,4.2,0,0,1,56.531,6.281ZM43.969,41.875V12.563H14.656V41.875Z" fill="#d6e5ee"/>
      <g id="Grupo_108398" data-name="Grupo 108398">
        <path id="Trazado_156309" data-name="Trazado 156309" d="M106.781,2.094A25.125,25.125,0,1,1,96.9,50.313l-6.867,4.125,1.235-7.475A25.112,25.112,0,0,1,106.781,2.094Zm14.656,25.125V18.844H92.125v8.375h2.094l2.094,12.563H117.25l2.094-12.562Z" fill="#23d1d0"/>
        <path id="Trazado_156310" data-name="Trazado 156310" d="M119.344,81.656h-6.281V117.25h-8.375V81.656H98.406l10.469-10.469Z" fill="#23d1d0"/>
        <path id="Trazado_156311" data-name="Trazado 156311" d="M35.594,81.656H29.313V117.25H20.938V81.656H14.656L25.125,71.188Z" fill="#23d1d0"/>
      </g>
      <path id="Trazado_156312" data-name="Trazado 156312" d="M121.438,18.844v8.375H92.125V18.844Z" fill="#d6e5ee"/>
      <path id="Trazado_156313" data-name="Trazado 156313" d="M119.344,27.219,117.25,39.781H96.313L94.219,27.219Z" fill="#fc8fae"/>
      <path id="Trazado_156314" data-name="Trazado 156314" d="M25.125,12.563H33.5v6.281H25.125Z" fill="#fa984c"/>
      <path id="Trazado_156315" data-name="Trazado 156315" d="M25.125,18.844H33.5v6.281H25.125Z" fill="#fec076"/>
      <path id="Trazado_156316" data-name="Trazado 156316" d="M14.656,12.563H25.125v6.281H14.656Z" fill="#966857"/>
      <path id="Trazado_156317" data-name="Trazado 156317" d="M33.5,12.563H43.969v6.281H33.5Z" fill="#966857"/>
      <path id="Trazado_156318" data-name="Trazado 156318" d="M43.969,18.844V41.875H14.656V18.844H25.125v6.281H33.5V18.844Z" fill="#a37669"/>
      <path id="Trazado_156319" data-name="Trazado 156319" d="M102.594,131.906H90.031c0-16.75,8.375-23.031,8.375-23.031S102.594,117.25,102.594,131.906Z" fill="#a5c2da"/>
      <path id="Trazado_156320" data-name="Trazado 156320" d="M81.656,104.688l16.75,4.188s-8.375,6.281-8.375,23.031H67V108.875l6.281,6.281,8.375-8.375Z" fill="#d6e5ee"/>
      <path id="Trazado_156321" data-name="Trazado 156321" d="M90.031,69.094v6.281a4.2,4.2,0,0,1-4.187,4.188H81.656V69.094Z" fill="#faa68e"/>
      <path id="Trazado_156322" data-name="Trazado 156322" d="M47.026,56.531a20.937,20.937,0,0,1,40.912,6.281v6.281H81.656c-23.031,0-23.031-6.281-23.031-6.281a6.151,6.151,0,0,1-6.019,6.281c-.087,0-.175,0-.263,0H46.063V62.813A20.746,20.746,0,0,1,47.026,56.531Z" fill="#966857"/>
      <path id="Trazado_156323" data-name="Trazado 156323" d="M81.656,104.688v2.094l-8.375,8.375L67,108.875l6.281-6.281Z" fill="#a5c2da"/>
      <path id="Trazado_156324" data-name="Trazado 156324" d="M73.281,94.889A14.647,14.647,0,0,1,52.344,81.656V69.094a6.151,6.151,0,0,0,6.281-6.019c0-.087,0-.175,0-.263,0,0,0,6.281,23.031,6.281V81.656A14.593,14.593,0,0,1,73.281,94.889Z" fill="#ffcdbe"/>
      <path id="Trazado_156325" data-name="Trazado 156325" d="M58.625,62.813a6.151,6.151,0,0,1-6.019,6.281c-.087,0-.175,0-.263,0v6.281a6.151,6.151,0,0,0,6.281-6.019q0-.131,0-.263s0,6.281,23.031,6.281V69.094C58.625,69.094,58.625,62.813,58.625,62.813Z" fill="#ffbeaa"/>
      <path id="Trazado_156326" data-name="Trazado 156326" d="M73.281,94.889v7.705L67,108.875l-6.281-6.281V94.889A14.568,14.568,0,0,0,73.281,94.889Z" fill="#faa68e"/>
      <path id="Trazado_156327" data-name="Trazado 156327" d="M67,108.875v23.031H43.969c0-16.75-8.375-23.031-8.375-23.031l16.75-4.187v2.094l8.375,8.375Z" fill="#f7fcff"/>
      <path id="Trazado_156328" data-name="Trazado 156328" d="M67,108.875l-6.281,6.281-8.375-8.375v-2.094l8.375-2.094Z" fill="#a5c2da"/>
      <path id="Trazado_156329" data-name="Trazado 156329" d="M52.344,69.094V79.563H48.156a4.2,4.2,0,0,1-4.187-4.187V69.094Z" fill="#faa68e"/>
      <path id="Trazado_156330" data-name="Trazado 156330" d="M43.969,131.906H31.406c0-14.656,4.188-23.031,4.188-23.031S43.969,115.156,43.969,131.906Z" fill="#a5c2da"/>
      <g id="_12-shopping">
        <path id="Trazado_156331" data-name="Trazado 156331" d="M67,98.406a16.769,16.769,0,0,1-16.75-16.75V69.094A2.094,2.094,0,0,1,52.344,67a3.94,3.94,0,0,0,4.188-4.187,2.094,2.094,0,0,1,4.173-.241C60.876,62.926,63.3,67,81.656,67a2.094,2.094,0,0,1,2.094,2.094V81.656A16.769,16.769,0,0,1,67,98.406ZM54.438,70.924V81.656a12.563,12.563,0,0,0,25.125,0V71.169c-11.229-.2-17.02-1.974-19.983-3.892a8.2,8.2,0,0,1-5.142,3.647Z"/>
        <path id="Trazado_156332" data-name="Trazado 156332" d="M85.844,81.656H81.656V77.469h4.188a2.094,2.094,0,0,0,2.094-2.094V71.188H81.656V67h8.375a2.094,2.094,0,0,1,2.094,2.094v6.281A6.281,6.281,0,0,1,85.844,81.656Z"/>
        <path id="Trazado_156333" data-name="Trazado 156333" d="M52.344,81.656H48.156a6.281,6.281,0,0,1-6.281-6.281V69.094A2.094,2.094,0,0,1,43.969,67h8.375v4.188H46.063v4.188a2.094,2.094,0,0,0,2.094,2.094h4.188Z"/>
        <path id="Trazado_156334" data-name="Trazado 156334" d="M90.031,69.094H85.844V62.813a18.844,18.844,0,0,0-37.687,0v6.281H43.969V62.813a23.031,23.031,0,0,1,46.063,0Z"/>
        <path id="Trazado_156335" data-name="Trazado 156335" d="M67,90.031a8.375,8.375,0,0,1-8.375-8.375h4.188a4.188,4.188,0,0,0,8.375,0h4.188A8.375,8.375,0,0,1,67,90.031Z"/>
        <path id="Trazado_156336" data-name="Trazado 156336" d="M58.625,73.281h4.188v4.188H58.625Z"/>
        <path id="Trazado_156337" data-name="Trazado 156337" d="M71.188,73.281h4.188v4.188H71.188Z"/>
        <path id="Trazado_156338" data-name="Trazado 156338" d="M102.594,134H31.406a2.094,2.094,0,0,1-2.094-2.094c0-14.979,4.229-23.607,4.407-23.967a2.094,2.094,0,0,1,1.367-1.1l23.538-5.886v-6.74h4.188v8.375a2.094,2.094,0,0,1-1.587,2.031L37.1,110.657a56.28,56.28,0,0,0-3.568,19.156h66.937a56.269,56.269,0,0,0-3.559-19.156l-24.135-6.032a2.094,2.094,0,0,1-1.587-2.031V94.219h4.188v6.74l23.538,5.886a2.094,2.094,0,0,1,1.367,1.1c.178.36,4.407,8.988,4.407,23.967A2.094,2.094,0,0,1,102.594,134Z"/>
        <path id="Trazado_156339" data-name="Trazado 156339" d="M67,110.969a2.094,2.094,0,0,1-1.48-.613l-6.281-6.281,2.961-2.961,4.8,4.8,4.8-4.8,2.961,2.961-6.281,6.281A2.094,2.094,0,0,1,67,110.969Z"/>
        <path id="Trazado_156340" data-name="Trazado 156340" d="M69.094,131.906H64.906V108.875a2.094,2.094,0,0,1,3.574-1.48l4.8,4.8,6.281-6.281v-1.227H83.75v2.094a2.094,2.094,0,0,1-.613,1.48l-8.375,8.375a2.094,2.094,0,0,1-2.961,0l-2.707-2.707Z"/>
        <path id="Trazado_156341" data-name="Trazado 156341" d="M46.063,131.906H41.875c0-15.356-7.24-21.126-7.548-21.356l2.523-3.35C37.225,107.483,46.063,114.319,46.063,131.906Z"/>
        <path id="Trazado_156342" data-name="Trazado 156342" d="M99.662,110.55c-.3.23-7.537,6-7.537,21.356H87.938c0-17.588,8.838-24.424,9.213-24.706Z"/>
        <path id="Trazado_156343" data-name="Trazado 156343" d="M60.719,117.25a2.094,2.094,0,0,1-1.48-.613l-8.375-8.375a2.094,2.094,0,0,1-.613-1.48v-2.094h4.188v1.227l6.281,6.281,4.8-4.8,2.961,2.961L62.2,116.637A2.094,2.094,0,0,1,60.719,117.25Z"/>
        <path id="Trazado_156344" data-name="Trazado 156344" d="M121.438,29.313H92.125a2.094,2.094,0,0,1-2.094-2.094V18.844a2.094,2.094,0,0,1,2.094-2.094h29.313a2.094,2.094,0,0,1,2.094,2.094v8.375A2.094,2.094,0,0,1,121.438,29.313ZM94.219,25.125h25.125V20.938H94.219Z"/>
        <path id="Trazado_156345" data-name="Trazado 156345" d="M117.25,41.875H96.313a2.094,2.094,0,0,1-2.064-1.748L92.154,27.564l4.129-.691,1.8,10.814h17.391l1.8-10.814,4.129.691-2.094,12.563A2.094,2.094,0,0,1,117.25,41.875Z"/>
        <path id="Trazado_156346" data-name="Trazado 156346" d="M106.781,20.938a2.094,2.094,0,0,1-1.48-.613l-8.375-8.375,2.961-2.961,6.895,6.895,6.895-6.895,2.961,2.961-8.375,8.375a2.094,2.094,0,0,1-1.48.613Z"/>
        <path id="Trazado_156347" data-name="Trazado 156347" d="M104.688,31.406h4.188v4.188h-4.187Z"/>
        <path id="Trazado_156348" data-name="Trazado 156348" d="M110.969,31.406h4.188v4.188h-4.187Z"/>
        <path id="Trazado_156349" data-name="Trazado 156349" d="M98.406,31.406h4.188v4.188H98.406Z"/>
        <path id="Trazado_156350" data-name="Trazado 156350" d="M90.031,56.531a2.093,2.093,0,0,1-2.064-2.439l1.047-6.281a27.02,27.02,0,1,1,8.065,4.841l-5.969,3.58a2.093,2.093,0,0,1-1.078.3Zm16.75-52.344a23.014,23.014,0,0,0-14.21,41.13,2.094,2.094,0,0,1,.771,1.991l-.5,3,2.979-1.788a2.094,2.094,0,0,1,1.9-.128,23.031,23.031,0,1,0,9.06-44.207Z"/>
        <path id="Trazado_156351" data-name="Trazado 156351" d="M43.969,43.969H14.656a2.094,2.094,0,0,1-2.094-2.094V12.563a2.094,2.094,0,0,1,2.094-2.094H43.969a2.094,2.094,0,0,1,2.094,2.094V41.875A2.094,2.094,0,0,1,43.969,43.969ZM16.75,39.781H41.875V14.656H16.75Z"/>
        <path id="Trazado_156352" data-name="Trazado 156352" d="M33.5,27.219H25.125a2.094,2.094,0,0,1-2.094-2.094V12.563h4.188V23.031h4.188V12.563h4.188V25.125A2.094,2.094,0,0,1,33.5,27.219Z"/>
        <path id="Trazado_156353" data-name="Trazado 156353" d="M14.656,16.75H43.969v4.188H14.656Z"/>
        <path id="Trazado_156354" data-name="Trazado 156354" d="M18.844,33.5h4.188v4.188H18.844Z"/>
        <path id="Trazado_156355" data-name="Trazado 156355" d="M25.125,33.5h4.188v4.188H25.125Z"/>
        <path id="Trazado_156356" data-name="Trazado 156356" d="M35.594,67a2.094,2.094,0,0,1-1.48-.613l-7.762-7.762H6.281A6.281,6.281,0,0,1,0,52.344V6.281A6.281,6.281,0,0,1,6.281,0H52.344a6.281,6.281,0,0,1,6.281,6.281V46.063H54.438V6.281a2.094,2.094,0,0,0-2.094-2.094H6.281A2.094,2.094,0,0,0,4.188,6.281V52.344a2.094,2.094,0,0,0,2.094,2.094H27.219a2.094,2.094,0,0,1,1.48.613l4.8,4.8V56.531a2.094,2.094,0,0,1,2.094-2.094H48.156v4.188H37.688v6.281A2.094,2.094,0,0,1,35.594,67Z"/>
        <path id="Trazado_156357" data-name="Trazado 156357" d="M115.156,117.25h-4.187V81.656a2.094,2.094,0,0,1,2.094-2.094h1.227l-5.414-5.414-5.414,5.414h1.227a2.094,2.094,0,0,1,2.094,2.094v16.75h-4.187V83.75H98.406a2.094,2.094,0,0,1-1.48-3.574l10.469-10.469a2.094,2.094,0,0,1,2.961,0l10.469,10.469a2.094,2.094,0,0,1-1.48,3.574h-4.187Z"/>
        <path id="Trazado_156358" data-name="Trazado 156358" d="M102.594,102.594h4.188v4.188h-4.187Z"/>
        <path id="Trazado_156359" data-name="Trazado 156359" d="M23.031,117.25H18.844V83.75H14.656a2.094,2.094,0,0,1-1.48-3.574L23.645,69.707a2.094,2.094,0,0,1,2.961,0L37.074,80.176a2.094,2.094,0,0,1-1.48,3.574H31.406V98.406H27.219V81.656a2.094,2.094,0,0,1,2.094-2.094h1.227l-5.414-5.414-5.414,5.414h1.227a2.094,2.094,0,0,1,2.094,2.094Z"/>
        <path id="Trazado_156360" data-name="Trazado 156360" d="M27.219,102.594h4.188v4.188H27.219Z"/>
      </g>
    </g>
  </g>
</svg>
