<svg xmlns="http://www.w3.org/2000/svg" width="67" height="67" viewBox="0 0 67 67">
  <g id="idea-de-negocio" transform="translate(-1.081 -1.081)">
    <g id="Grupo_108347" data-name="Grupo 108347">
      <g id="Grupo_108331" data-name="Grupo 108331">
        <path id="Trazado_155888" data-name="Trazado 155888" d="M18.371,67H8.645V56.194l1.005-.5A2.1,2.1,0,0,0,10.8,54.032H28.1V67Z" fill="#969faa"/>
      </g>
      <g id="Grupo_108332" data-name="Grupo 108332">
        <path id="Trazado_155889" data-name="Trazado 155889" d="M25.935,12.968H22.121a20.4,20.4,0,0,1-9.153-2.161,3.9,3.9,0,0,0-2.161,3.5v.821H9.726A3.239,3.239,0,0,0,7.23,16.3l-.454-1.383a5.539,5.539,0,0,1-.292-1.772A5.636,5.636,0,0,1,8.126,9.164l.519-.519a6.494,6.494,0,0,1,6.484-6.484h7.035a3.768,3.768,0,0,1,3.771,3.771,4.223,4.223,0,0,1-.032.53l.854.432a6.326,6.326,0,0,1,2.831,8.494l-.324.648a3.225,3.225,0,0,0-2.248-.908H25.935Z" fill="#b27946"/>
      </g>
      <g id="Grupo_108333" data-name="Grupo 108333">
        <path id="Trazado_155890" data-name="Trazado 155890" d="M19.83,35.78l1.783,10.688L18.371,49.71l-3.242-3.242,1.783-10.72,1.459-1.167,1.47,1.178Z" fill="#e6e9ed"/>
      </g>
      <g id="Grupo_108334" data-name="Grupo 108334">
        <path id="Trazado_155891" data-name="Trazado 155891" d="M24.369,31.566a20.838,20.838,0,0,1,3.728.854c3.242,1.081,6.484,4.323,6.484,4.323L43.226,28.1l4.323,4.323-8.915,8.915a6.462,6.462,0,0,1-7.662,1.1L28.1,40.87V54.032H10.8a1.378,1.378,0,0,0,.011-.216,2.086,2.086,0,0,0-.616-1.48L8.645,50.79H2.161V40.081a8.078,8.078,0,0,1,7.067-8.008l3.058-.378a3.152,3.152,0,0,0,1.556-.627L12.968,38.9l3.944-3.155-1.783,10.72,3.242,3.242,3.242-3.242L19.83,35.78l.011-.022L23.774,38.9l-.886-7.954v-.011a3.247,3.247,0,0,0,1.48.627Z" fill="#4fc1e9"/>
      </g>
      <g id="Grupo_108335" data-name="Grupo 108335">
        <path id="Trazado_155892" data-name="Trazado 155892" d="M22.888,30.95l.886,7.954-3.934-3.145-1.47-1.178L21.8,29.437a3.16,3.16,0,0,0,1.091,1.5Z" fill="#3bafda"/>
      </g>
      <g id="Grupo_108336" data-name="Grupo 108336">
        <path id="Trazado_155893" data-name="Trazado 155893" d="M14.967,29.48l3.4,5.1-1.459,1.167L12.968,38.9l.875-7.835A3.335,3.335,0,0,0,14.967,29.48Z" fill="#3bafda"/>
      </g>
      <g id="Grupo_108337" data-name="Grupo 108337">
        <path id="Trazado_155894" data-name="Trazado 155894" d="M51.871,58.355v4.323a2.168,2.168,0,0,1-2.161,2.161H36.742a2.168,2.168,0,0,1-2.161-2.161V58.355a2.168,2.168,0,0,1,2.161-2.161h5.4l3.88-3.88a1.528,1.528,0,0,1,2.6,1.081v2.8H49.71A2.168,2.168,0,0,1,51.871,58.355Z" fill="#e6e9ed"/>
      </g>
      <g id="Grupo_108338" data-name="Grupo 108338">
        <path id="Trazado_155895" data-name="Trazado 155895" d="M67,38.9v4.323a2.168,2.168,0,0,1-2.161,2.161h-5.4l-3.88,3.88a1.528,1.528,0,0,1-2.6-1.081v-2.8H51.871a2.168,2.168,0,0,1-2.161-2.161V38.9a2.168,2.168,0,0,1,2.161-2.161H64.839A2.168,2.168,0,0,1,67,38.9Z" fill="#e6e9ed"/>
      </g>
      <g id="Grupo_108339" data-name="Grupo 108339">
        <path id="Trazado_155896" data-name="Trazado 155896" d="M55.113,22.694a3.238,3.238,0,0,1-3.242,3.242l-.216-.421a3.133,3.133,0,0,0-2.81-1.74l-.216.011V21.613h6.484Z" fill="#aab2bd"/>
      </g>
      <g id="Grupo_108340" data-name="Grupo 108340">
        <path id="Trazado_155897" data-name="Trazado 155897" d="M55.113,21.613H48.629V20.8a3.2,3.2,0,0,0-1.4-2.712,8.643,8.643,0,1,1,9.315-.011,3.163,3.163,0,0,0-1.426,2.68Z" fill="#ffeaa7"/>
      </g>
      <g id="Grupo_108341" data-name="Grupo 108341">
        <path id="Trazado_155898" data-name="Trazado 155898" d="M10.806,53.816a1.378,1.378,0,0,1-.011.216A2.1,2.1,0,0,1,9.65,55.7l-1.005.5v1.081a2.168,2.168,0,0,1-2.161,2.161H4.323a2.168,2.168,0,0,1-2.161-2.161V50.79H8.645l1.545,1.545A2.086,2.086,0,0,1,10.806,53.816Z" fill="#f0d0b4"/>
      </g>
      <g id="Grupo_108342" data-name="Grupo 108342">
        <path id="Trazado_155899" data-name="Trazado 155899" d="M51.655,25.514l.216.421h1.081A2.168,2.168,0,0,1,55.113,28.1v2.161a2.168,2.168,0,0,1-2.161,2.161h-5.4L43.226,28.1l3.4-3.4a3.149,3.149,0,0,1,2-.908l.216-.011A3.133,3.133,0,0,1,51.655,25.514Z" fill="#f0d0b4"/>
      </g>
      <g id="Grupo_108343" data-name="Grupo 108343">
        <path id="Trazado_155900" data-name="Trazado 155900" d="M15.129,28.475V26.281a7.519,7.519,0,0,0,6.484,0v2.086a3.225,3.225,0,0,0,.184,1.07l-3.426,5.144-3.4-5.1A3.109,3.109,0,0,0,15.129,28.475Z" fill="#f0d0b4"/>
      </g>
      <g id="Grupo_108344" data-name="Grupo 108344">
        <path id="Trazado_155901" data-name="Trazado 155901" d="M29.264,16.037a3.242,3.242,0,0,1-2.248,5.576H25.622a7.465,7.465,0,0,0,.313-2.161V15.129h1.081a3.225,3.225,0,0,1,2.248.908Z" fill="#f0d0b4"/>
      </g>
      <g id="Grupo_108345" data-name="Grupo 108345">
        <path id="Trazado_155902" data-name="Trazado 155902" d="M11.12,21.613H9.726a3.242,3.242,0,1,1,0-6.484h1.081v4.323A7.465,7.465,0,0,0,11.12,21.613Z" fill="#f0d0b4"/>
      </g>
      <g id="Grupo_108346" data-name="Grupo 108346">
        <path id="Trazado_155903" data-name="Trazado 155903" d="M25.935,15.129v4.323a7.556,7.556,0,0,1-10.806,6.83,7.559,7.559,0,0,1-4.009-4.668,7.465,7.465,0,0,1-.313-2.161V14.308a3.9,3.9,0,0,1,2.161-3.5,20.4,20.4,0,0,0,9.153,2.161h3.815Z" fill="#f0d0b4"/>
      </g>
    </g>
    <g id="Grupo_108348" data-name="Grupo 108348">
      <path id="Trazado_155904" data-name="Trazado 155904" d="M34.066,44.306A7.491,7.491,0,0,0,39.4,42.1L48,33.5h4.956a3.246,3.246,0,0,0,3.242-3.242V28.1a3.222,3.222,0,0,0-1.167-2.47,4.291,4.291,0,0,0,1.167-2.933V20.758a2.081,2.081,0,0,1,.932-1.772A9.727,9.727,0,1,0,46.64,19a2.126,2.126,0,0,1,.908,1.8v2.115a4.174,4.174,0,0,0-1.684,1.014l-2.638,2.638-8.673,8.672a19.578,19.578,0,0,0-6.114-3.846,22.17,22.17,0,0,0-3.923-.9,2.15,2.15,0,0,1-1.822-2.134V26.926a8.69,8.69,0,0,0,3.686-4.234h.637a4.312,4.312,0,0,0,3.529-6.8l.011-.023A7.4,7.4,0,0,0,27.244,5.93L27,5.81a4.848,4.848,0,0,0-4.837-4.729H15.129a7.574,7.574,0,0,0-7.55,7.1L7.367,8.4a6.705,6.705,0,0,0-1.62,6.86l.3.885a4.28,4.28,0,0,0-.639,2.23,4.327,4.327,0,0,0,4.323,4.323h.636a8.69,8.69,0,0,0,3.686,4.234v1.55a2.164,2.164,0,0,1-1.893,2.144L9.1,31a9.2,9.2,0,0,0-5.336,2.611,9.087,9.087,0,0,0-2.681,6.471V57.274a3.246,3.246,0,0,0,3.242,3.242H6.484a3.205,3.205,0,0,0,1.081-.2v7.763H29.177V42.689l1.279.7a7.561,7.561,0,0,0,3.609.92ZM54.032,22.694a2.159,2.159,0,0,1-1.56,2.066,4.178,4.178,0,0,0-2.762-1.969v-.1ZM44.371,9.806a7.591,7.591,0,0,1,6.614-6.513,7.487,7.487,0,0,1,5.923,1.87,7.561,7.561,0,0,1-.952,12.007,4.216,4.216,0,0,0-1.911,3.363H49.692a4.214,4.214,0,0,0-1.89-3.353,7.534,7.534,0,0,1-3.431-7.373Zm3.021,15.653a2.074,2.074,0,0,1,1.457-.6,2.047,2.047,0,0,1,1.843,1.139l.511,1.022h1.748A1.082,1.082,0,0,1,54.032,28.1v2.161a1.082,1.082,0,0,1-1.081,1.081H48L44.754,28.1ZM22.412,36.43,19.82,34.356l1.974-2.963.065.063ZM20.456,46.1l-2.085,2.085L16.286,46.1l1.627-9.767.457-.365.457.365ZM14.869,31.58c.041-.04.084-.077.124-.118l1.929,2.894L14.33,36.43ZM27.016,20.532h-.075a8.7,8.7,0,0,0,.075-1.081V16.21a2.161,2.161,0,1,1,0,4.323Zm-17.29,0a2.161,2.161,0,1,1,0-4.323v3.242A8.7,8.7,0,0,0,9.8,20.532Zm.017-6.484H9.726a4.28,4.28,0,0,0-1.939.48A4.524,4.524,0,0,1,8.895,9.922l.831-.83V8.645a5.409,5.409,0,0,1,5.4-5.4h7.038a2.687,2.687,0,0,1,.85,5.236l-.666.222.683,2.051.666-.223a4.839,4.839,0,0,0,2.837-2.512,5.206,5.206,0,0,1,2.278,6.437,4.286,4.286,0,0,0-1.8-.4V11.887H22.123a19.477,19.477,0,0,1-8.672-2.048L12.968,9.6l-.483.242a4.956,4.956,0,0,0-2.742,4.208Zm2.144,5.4V14.3a2.816,2.816,0,0,1,1.139-2.27,21.651,21.651,0,0,0,9.1,2.015h2.732v5.4a6.484,6.484,0,1,1-12.968,0ZM18.371,28.1a8.594,8.594,0,0,0,2.161-.284v.549a4.321,4.321,0,0,0,.1.881l-2.26,3.39-2.236-3.354a4.362,4.362,0,0,0,.075-.8v-.665a8.594,8.594,0,0,0,2.161.284ZM5.29,35.143a7.024,7.024,0,0,1,4.076-1.995l3.057-.383c.05-.006.094-.024.143-.031l-.961,8.643,3.781-3.025-1.415,8.486,4.4,4.4,4.4-4.4-1.415-8.486,3.781,3.025-.973-8.753c.017,0,.034.01.052.012a20.05,20.05,0,0,1,3.539.808,17.884,17.884,0,0,1,5.5,3.536l-.72,1.441,1.933.967,1-2,7.757-7.758,2.795,2.795-8.15,8.15a5.344,5.344,0,0,1-3.8,1.576,5.4,5.4,0,0,1-2.575-.656l-2.3-1.251a2.584,2.584,0,0,1,.746-1.65L28.412,37.06a4.737,4.737,0,0,0-1.4,3.372v12.52H11.75a3.181,3.181,0,0,0-.792-1.377L9.726,50.343V40.431a4.741,4.741,0,0,0-1.4-3.373L6.8,38.587a2.593,2.593,0,0,1,.764,1.845V49.71H3.242V40.085A7.039,7.039,0,0,1,5.29,35.143ZM6.484,58.355H4.323a1.082,1.082,0,0,1-1.081-1.081v-5.4H8.2L9.43,53.1a1.021,1.021,0,0,1,.3.716,1.007,1.007,0,0,1-.56.906l-1.6.8v1.748a1.082,1.082,0,0,1-1.081,1.081Zm12.968,7.565V62.852a3.658,3.658,0,0,1,2.5-3.473L21.27,57.33a5.817,5.817,0,0,0-2.9,2.145,5.806,5.806,0,0,0-2.9-2.145l-.684,2.049a3.658,3.658,0,0,1,2.5,3.473v3.067H9.726V56.861l.406-.2a3.159,3.159,0,0,0,1.482-1.545h15.4V65.919Z"/>
      <path id="Trazado_155905" data-name="Trazado 155905" d="M56.958,8.329,55.43,6.8l-5.72,5.72-1.4-1.4-1.528,1.528,2.925,2.925Z"/>
      <path id="Trazado_155906" data-name="Trazado 155906" d="M49.71,55.113V53.4a2.609,2.609,0,0,0-4.453-1.845L41.7,55.113H36.742A3.246,3.246,0,0,0,33.5,58.355v4.323a3.246,3.246,0,0,0,3.242,3.242H49.71a3.246,3.246,0,0,0,3.242-3.242V58.355A3.246,3.246,0,0,0,49.71,55.113Zm1.081,7.565a1.082,1.082,0,0,1-1.081,1.081H36.742a1.082,1.082,0,0,1-1.081-1.081V58.355a1.082,1.082,0,0,1,1.081-1.081h5.851l4.191-4.191a.464.464,0,0,1,.765.316v3.875H49.71a1.082,1.082,0,0,1,1.081,1.081Z"/>
      <path id="Trazado_155907" data-name="Trazado 155907" d="M37.823,59.435H48.629V61.6H37.823Z"/>
      <path id="Trazado_155908" data-name="Trazado 155908" d="M64.839,35.661H51.871A3.246,3.246,0,0,0,48.629,38.9v4.323a3.246,3.246,0,0,0,3.242,3.242v1.714a2.609,2.609,0,0,0,4.453,1.845l3.559-3.559h4.956a3.246,3.246,0,0,0,3.242-3.242V38.9A3.246,3.246,0,0,0,64.839,35.661Zm1.081,7.565a1.082,1.082,0,0,1-1.081,1.081H58.988L54.8,48.5a.464.464,0,0,1-.765-.316V44.306H51.871a1.082,1.082,0,0,1-1.081-1.081V38.9a1.082,1.082,0,0,1,1.081-1.081H64.839A1.082,1.082,0,0,1,65.919,38.9Z"/>
      <path id="Trazado_155909" data-name="Trazado 155909" d="M52.952,39.984H63.758v2.161H52.952Z"/>
    </g>
  </g>
</svg>
