<svg xmlns="http://www.w3.org/2000/svg" width="470" height="154" viewBox="0 0 470 154">
  <g id="Grupo_108916" data-name="Grupo 108916" transform="translate(3350 3031)">
    <path id="Rectángulo_36100" data-name="Rectángulo 36100" d="M0,0H393a77,77,0,0,1,77,77v0a77,77,0,0,1-77,77H0a0,0,0,0,1,0,0V0A0,0,0,0,1,0,0Z" transform="translate(-3350 -3031)" fill="#6765a9"/>
    <g id="desacuerdo" transform="translate(-3245 -3021)">
      <g id="Grupo_108410" data-name="Grupo 108410">
        <g id="Grupo_108409" data-name="Grupo 108409">
          <path id="Trazado_156407" data-name="Trazado 156407" d="M101.022,61.765H86.68A16.717,16.717,0,0,0,70.3,74.3a23.645,23.645,0,0,0,4.81,20.909,21.243,21.243,0,0,1,4.96,13.528c0,.219,0,.351,0,.136,13.714-.968,5.242-16.658,5.242-18.32a7.852,7.852,0,1,1,15.7,0V82.7a5.233,5.233,0,0,1,5.234-5.234H126.3a15.692,15.692,0,0,0,.892-5.234c0-9.854-12.073-23.089-26.172-10.469Z" fill="#ffda8f"/>
        </g>
        <path id="Trazado_156408" data-name="Trazado 156408" d="M116.722,114.109a5.231,5.231,0,0,1-5.232,5.234H101.022v12.039H80.082c0-7.373-.005-22.508-.005-22.508,13.714-.968,5.242-16.658,5.242-18.32a7.852,7.852,0,0,1,15.7,0V82.7a5.233,5.233,0,0,1,5.234-5.234h10.325a24,24,0,0,1,.144,2.617,23.628,23.628,0,0,1-.906,6.493l6.14,11.827h-5.237Z" fill="#fce8d0"/>
        <path id="Trazado_156409" data-name="Trazado 156409" d="M80.087,18.32,64.384,51.3V28.789h-15.7L59.15,2.617h15.7L67,18.32Z" fill="#ffda8f"/>
        <path id="Trazado_156410" data-name="Trazado 156410" d="M58.461,74.3a23.645,23.645,0,0,1-4.81,20.909,21.245,21.245,0,0,0-4.962,13.528c0,.042,0,.086,0,.136-13.714-.968-5.24-16.658-5.24-18.32a7.852,7.852,0,1,0-15.7,0V82.7a5.233,5.233,0,0,0-5.234-5.234H17.275a10.469,10.469,0,1,1,0-20.937h4.787A5.235,5.235,0,0,0,27.3,61.765h14.79A16.717,16.717,0,0,1,58.461,74.3Z" fill="#8690a6"/>
        <path id="Trazado_156411" data-name="Trazado 156411" d="M12.038,98.406H6.806l6.14-11.827a23.627,23.627,0,0,1-.906-6.493,23.867,23.867,0,0,1,.311-3.845,10.427,10.427,0,0,0,4.923,1.227h5.234A5.233,5.233,0,0,1,27.743,82.7v7.852a7.852,7.852,0,0,1,15.7,0c0,1.662-8.474,17.352,5.24,18.32,0,0-.008,14.444-.005,22.508H27.741l0-12.039H17.275a5.235,5.235,0,0,1-5.237-5.234v-15.7Z" fill="#c3906d"/>
      </g>
      <g id="Grupo_108411" data-name="Grupo 108411">
        <path id="Trazado_156412" data-name="Trazado 156412" d="M67.758,73.7a26.263,26.263,0,0,0,5.35,23.2,18.717,18.717,0,0,1,4.359,11.879c.006.511,0,3.544.008,22.559,0,.018,0,.035,0,.053A2.614,2.614,0,0,0,80.082,134h20.94a2.617,2.617,0,0,0,2.617-2.617v-9.422h7.852a7.859,7.859,0,0,0,7.849-7.852V101.023h2.62a2.617,2.617,0,0,0,2.323-3.823l-5.675-10.932a26.3,26.3,0,0,0,.735-6.183H126.3a2.617,2.617,0,0,0,2.468-1.746,18.294,18.294,0,0,0,1.042-6.106,19.589,19.589,0,0,0-10.983-16.92c-3.509-1.568-10.53-3.088-18.782,3.834H86.68a19.97,19.97,0,0,0-11.972,4A18.723,18.723,0,0,0,67.758,73.7Zm43.733,43.03H101.022a2.617,2.617,0,0,0-2.617,2.617v9.422H82.7c0-6.65,0-13.828,0-17.623a9.558,9.558,0,0,0,6.267-4.009c3.2-4.888.731-11.811-.594-15.53-.158-.444-.349-.98-.43-1.252a5.234,5.234,0,0,1,10.465.2,2.617,2.617,0,0,0,5.234,0V82.7a2.624,2.624,0,0,1,2.617-2.62h7.852a21.027,21.027,0,0,1-.805,5.777,2.619,2.619,0,0,0,.194,1.925l4.156,8h-.929a2.615,2.615,0,0,0-2.615,2.617v7.852h-7.849a2.617,2.617,0,1,0,0,5.234h7.849v2.617a2.621,2.621,0,0,1-2.617,2.617ZM86.68,64.383h14.342a2.616,2.616,0,0,0,1.745-.667c4.8-4.3,9.614-5.549,13.925-3.623a14.273,14.273,0,0,1,7.884,12.141,13.163,13.163,0,0,1-.261,2.617H106.256a7.864,7.864,0,0,0-7.766,6.69A10.465,10.465,0,0,0,82.7,90.555a8.733,8.733,0,0,0,.737,2.8c.947,2.66,2.919,8.2,1.144,10.91a3.986,3.986,0,0,1-2.1,1.5,23.933,23.933,0,0,0-5.367-12.245,21.077,21.077,0,0,1-4.269-18.62A14.159,14.159,0,0,1,86.68,64.383Z"/>
        <path id="Trazado_156413" data-name="Trazado 156413" d="M37.691,35.944l-6.347,3.664a2.617,2.617,0,1,0,2.617,4.533l6.347-3.664a2.617,2.617,0,0,0-2.617-4.533Z"/>
        <path id="Trazado_156414" data-name="Trazado 156414" d="M94.806,2.968,87.554,7.155a2.617,2.617,0,1,0,2.617,4.533L97.424,7.5a2.617,2.617,0,1,0-2.617-4.533Z"/>
        <path id="Trazado_156415" data-name="Trazado 156415" d="M40.309,6.632,33.962,2.968A2.617,2.617,0,1,0,31.345,7.5l6.347,3.664a2.617,2.617,0,1,0,2.617-4.533Z"/>
        <path id="Trazado_156416" data-name="Trazado 156416" d="M87.554,39.954l7.252,4.187a2.617,2.617,0,1,0,2.617-4.533l-7.252-4.187a2.617,2.617,0,1,0-2.617,4.533Z"/>
        <path id="Trazado_156417" data-name="Trazado 156417" d="M25.126,23.555a2.617,2.617,0,0,0,2.617,2.617h7.328a2.617,2.617,0,0,0,0-5.234H27.743a2.617,2.617,0,0,0-2.617,2.617Z"/>
        <path id="Trazado_156418" data-name="Trazado 156418" d="M90.032,23.555a2.617,2.617,0,0,0,2.617,2.617h8.375a2.617,2.617,0,0,0,0-5.234H92.65A2.617,2.617,0,0,0,90.032,23.555Z"/>
        <path id="Trazado_156419" data-name="Trazado 156419" d="M77.079,1.241A2.617,2.617,0,0,0,74.853,0H59.15a2.617,2.617,0,0,0-2.43,1.645L46.251,27.817a2.617,2.617,0,0,0,2.43,3.589H61.767V51.3a2.617,2.617,0,0,0,4.98,1.125l15.7-32.976A2.617,2.617,0,0,0,80.087,15.7H71.236L77.194,3.788a2.616,2.616,0,0,0-.115-2.546Zm-1.137,19.7L67,39.713V28.789a2.615,2.615,0,0,0-2.615-2.617H52.547L60.922,5.234h9.7L64.66,17.15A2.617,2.617,0,0,0,67,20.937Z"/>
        <circle id="Elipse_4883" data-name="Elipse 4883" cx="2.617" cy="2.617" r="2.617" transform="translate(53.127 65.953)"/>
        <path id="Trazado_156420" data-name="Trazado 156420" d="M22.062,53.914H17.275A13.085,13.085,0,0,0,9.549,77.56c-.08.84-.126,1.684-.126,2.526a26.281,26.281,0,0,0,.735,6.183L4.483,97.2a2.617,2.617,0,0,0,2.323,3.823H9.421v13.086a7.862,7.862,0,0,0,7.854,7.852h7.851l0,9.421A2.617,2.617,0,0,0,27.741,134H48.686a2.606,2.606,0,0,0,2.6-2.617c0-.018,0-.035,0-.053,0-.044.008-22.529.008-22.574a18.7,18.7,0,0,1,4.36-11.863,26.172,26.172,0,0,0,6.11-17.073,2.617,2.617,0,0,0-2.617-2.591h-.027a2.617,2.617,0,0,0-2.591,2.643,20.936,20.936,0,0,1-4.887,13.658,23.935,23.935,0,0,0-5.37,12.244,3.981,3.981,0,0,1-2.094-1.5c-1.774-2.713.2-8.249,1.145-10.909a8.735,8.735,0,0,0,.738-2.805,10.465,10.465,0,0,0-15.789-9.013,7.863,7.863,0,0,0-7.765-6.69H17.275a7.852,7.852,0,0,1,0-15.7h2.618a7.865,7.865,0,0,0,7.4,5.234h14.79a14.7,14.7,0,0,1,3.2.353,2.617,2.617,0,0,0,1.141-5.108,19.942,19.942,0,0,0-4.34-.479H27.3a2.62,2.62,0,0,1-2.617-2.617,2.617,2.617,0,0,0-2.617-2.617Zm.448,26.172A2.62,2.62,0,0,1,25.126,82.7v7.852a2.617,2.617,0,0,0,5.234,0,5.234,5.234,0,0,1,10.465-.2c-.081.272-.272.808-.43,1.252-1.325,3.72-3.791,10.643-.6,15.53a9.559,9.559,0,0,0,6.265,4.007c0,3.867,0,11.229,0,17.625H30.337l0-9.421a2.618,2.618,0,0,0-.766-1.851,2.568,2.568,0,0,0-1.829-.767H17.275a2.621,2.621,0,0,1-2.62-2.617v-2.617h7.854a2.617,2.617,0,0,0,0-5.234H14.655V98.406a2.617,2.617,0,0,0-2.617-2.617h-.924l4.155-8a2.619,2.619,0,0,0,.194-1.925,21.026,21.026,0,0,1-.805-5.774c0-.089,0-.179.005-.268a13.121,13.121,0,0,0,2.612.268h5.234Z"/>
      </g>
    </g>
  </g>
</svg>
