<svg xmlns="http://www.w3.org/2000/svg" width="154" height="154" viewBox="0 0 154 154">
  <g id="Grupo_108909" data-name="Grupo 108909" transform="translate(2537 3833)">
    <circle id="Elipse_4711" data-name="Elipse 4711" cx="77" cy="77" r="77" transform="translate(-2537 -3833)" fill="#ffc967"/>
    <g id="hablar" transform="translate(-2539.484 -3835.484)">
      <g id="Grupo_108438" data-name="Grupo 108438">
        <g id="Grupo_108420" data-name="Grupo 108420">
          <path id="Trazado_156477" data-name="Trazado 156477" d="M129.931,84.452l-5.738,14.9h-9.935l-5.738-14.9Z" fill="#ffeaa7"/>
        </g>
        <g id="Grupo_108421" data-name="Grupo 108421">
          <path id="Trazado_156478" data-name="Trazado 156478" d="M154,88.326v28.415a12.424,12.424,0,0,1-12.419,12.419H139.1V99.355h-14.9l5.738-14.9,6.16-16,.472.075,1.465.3A19.873,19.873,0,0,1,154,88.326Z" fill="#ff826e"/>
        </g>
        <g id="Grupo_108422" data-name="Grupo 108422">
          <path id="Trazado_156479" data-name="Trazado 156479" d="M109.29,114.258h4.968v14.9H96.871a12.424,12.424,0,0,1-12.419-12.419V88.326a19.3,19.3,0,0,1,2.086-8.818,18.479,18.479,0,0,1,2.881-4.322,19.7,19.7,0,0,1,11-6.359l1.937-.373,6.16,16,5.738,14.9h-2.484a2.491,2.491,0,0,0-2.484,2.484Z" fill="#ff826e"/>
        </g>
        <g id="Grupo_108423" data-name="Grupo 108423">
          <path id="Trazado_156480" data-name="Trazado 156480" d="M139.1,129.161,144.064,154H94.387l4.968-24.839h9.935v7.452a2.491,2.491,0,0,0,2.484,2.484h24.839a2.491,2.491,0,0,0,2.484-2.484Z" fill="#ff826e"/>
        </g>
        <g id="Grupo_108424" data-name="Grupo 108424">
          <path id="Trazado_156481" data-name="Trazado 156481" d="M34.774,119.226H59.613v14.9H22.255a12.32,12.32,0,0,1-12.32-12.345V93.965a25.6,25.6,0,0,1,9.439-19.846l15.4,12.817,4.148-8.271a26.06,26.06,0,0,1,4.57,5.191A25.692,25.692,0,0,1,47.74,96.076l.273,3.279H37.258a2.491,2.491,0,0,0-2.484,2.484Z" fill="#b4dd7f"/>
        </g>
        <g id="Grupo_108425" data-name="Grupo 108425">
          <path id="Trazado_156482" data-name="Trazado 156482" d="M49.677,144.064V154H14.9V131.695a12.317,12.317,0,0,0,7.352,2.434H34.774v7.452a2.491,2.491,0,0,0,2.484,2.484Z" fill="#b4dd7f"/>
        </g>
        <g id="Grupo_108426" data-name="Grupo 108426">
          <path id="Trazado_156483" data-name="Trazado 156483" d="M22.355,72.032l3.825.646a25.742,25.742,0,0,1,11.078,4.67c.571.422,1.118.845,1.664,1.316l-4.148,8.271-15.4-12.817A27.831,27.831,0,0,1,22.355,72.032Z" fill="#a0d468"/>
        </g>
        <g id="Grupo_108427" data-name="Grupo 108427">
          <path id="Trazado_156484" data-name="Trazado 156484" d="M69.548,133.707v7.874a2.491,2.491,0,0,1-2.484,2.484H37.258a2.491,2.491,0,0,1-2.484-2.484v-7.452H67.089a6.752,6.752,0,0,0,2.459-.447Z" fill="#e6e9ed"/>
        </g>
        <g id="Grupo_108428" data-name="Grupo 108428">
          <path id="Trazado_156485" data-name="Trazado 156485" d="M69.548,101.839v17.834a6.885,6.885,0,0,0-2.484-.447H34.774V101.839a2.491,2.491,0,0,1,2.484-2.484H67.065a2.491,2.491,0,0,1,2.484,2.484Z" fill="#e6e9ed"/>
        </g>
        <g id="Grupo_108429" data-name="Grupo 108429">
          <path id="Trazado_156486" data-name="Trazado 156486" d="M109.29,129.161H121.71a7.452,7.452,0,0,0,0-14.9H109.29V101.839a2.491,2.491,0,0,1,2.484-2.484H139.1v37.258a2.491,2.491,0,0,1-2.484,2.484H111.774a2.491,2.491,0,0,1-2.484-2.484Z" fill="#e6e9ed"/>
        </g>
        <g id="Grupo_108430" data-name="Grupo 108430">
          <path id="Trazado_156487" data-name="Trazado 156487" d="M94.387,14.9A9.579,9.579,0,0,0,99.653,23.5a47.431,47.431,0,0,0-2.732,6.309,46.254,46.254,0,0,0-2.26,9.935H84.452l-4.123,8.246A3.07,3.07,0,0,1,74.516,46.6V39.742H67.065a2.491,2.491,0,0,1-2.484-2.484V12.419a2.491,2.491,0,0,1,2.484-2.484H95.728A9.909,9.909,0,0,0,94.387,14.9Z" fill="#e6e9ed"/>
        </g>
        <g id="Grupo_108431" data-name="Grupo 108431">
          <path id="Trazado_156488" data-name="Trazado 156488" d="M54.645,54.645a45.4,45.4,0,0,0-.273-4.968H86.935a2.491,2.491,0,0,1,2.484,2.484V75.187a18.479,18.479,0,0,0-2.881,4.322l-.025-.025h-12L65.6,88.4a3.513,3.513,0,0,1-5.986-2.484V79.484H52.161A2.491,2.491,0,0,1,49.677,77V54.645Z" fill="#e6e9ed"/>
        </g>
        <g id="Grupo_108432" data-name="Grupo 108432">
          <path id="Trazado_156489" data-name="Trazado 156489" d="M30.8,32.812l-5.961,11.9a5,5,0,0,0-4.968,4.968,5.977,5.977,0,0,0,1.764,4.247l3.2,3.2L23.1,67.611l-8.246-5.887A23.594,23.594,0,0,1,4.968,42.5a27.611,27.611,0,0,1,1.714-9.563,27.32,27.32,0,0,1,4.943-8.4A27.6,27.6,0,0,1,32.564,14.9h19.6a2.491,2.491,0,0,1,2.484,2.484v4.968A12.378,12.378,0,0,1,42.226,34.774H35.047A5.48,5.48,0,0,1,30.8,32.812Z" fill="#656d78"/>
        </g>
        <g id="Grupo_108433" data-name="Grupo 108433">
          <path id="Trazado_156490" data-name="Trazado 156490" d="M138.675,46.9a25.52,25.52,0,0,0,2.335-3.751,27.508,27.508,0,0,0,3.055-12.618A25.569,25.569,0,0,0,118.505,4.968H104.323a10,10,0,0,0-7.029,2.906,10.5,10.5,0,0,0-1.565,2.062A9.909,9.909,0,0,0,94.387,14.9,9.579,9.579,0,0,0,99.653,23.5a12.276,12.276,0,0,0,5.713,1.341h11.128a5.549,5.549,0,0,0,3.3-1.093v.025l4.4,11a4.982,4.982,0,0,1,4.968,4.968,5.977,5.977,0,0,1-1.764,4.247l-3.2,3.2,2.484,9.935,1.714,6.88a4.98,4.98,0,0,0,3.85,3.676l3.85.77.472.075A12.412,12.412,0,0,0,138.674,46.9Z" fill="#fcd770"/>
        </g>
        <g id="Grupo_108434" data-name="Grupo 108434">
          <path id="Trazado_156491" data-name="Trazado 156491" d="M111.774,59.613A12.424,12.424,0,0,1,99.355,47.194V44.71H94.387a45.75,45.75,0,0,1,.273-4.968,46.254,46.254,0,0,1,2.26-9.935A47.433,47.433,0,0,1,99.653,23.5a12.276,12.276,0,0,0,5.713,1.341h11.128a5.549,5.549,0,0,0,3.3-1.093v.025l4.4,11a4.982,4.982,0,0,1,4.968,4.968,5.977,5.977,0,0,1-1.764,4.247l-3.2,3.2,2.484,9.935,1.714,6.88a4.98,4.98,0,0,0,3.85,3.676l3.85.77-6.16,16H108.52l-6.16-16,4.1-.82a4.977,4.977,0,0,0,3.751-3.3Z" fill="#f0d0b4"/>
        </g>
        <g id="Grupo_108435" data-name="Grupo 108435">
          <path id="Trazado_156492" data-name="Trazado 156492" d="M126.975,116.444a7.447,7.447,0,0,1-5.266,12.717h-7.452v-14.9h7.452A7.434,7.434,0,0,1,126.975,116.444Z" fill="#f0d0b4"/>
        </g>
        <g id="Grupo_108436" data-name="Grupo 108436">
          <path id="Trazado_156493" data-name="Trazado 156493" d="M69.548,119.673a7.427,7.427,0,0,1,2.782,12.27,7.048,7.048,0,0,1-2.782,1.739,6.752,6.752,0,0,1-2.459.447H59.613v-14.9h7.452A6.885,6.885,0,0,1,69.548,119.673Z" fill="#f0d0b4"/>
        </g>
        <g id="Grupo_108437" data-name="Grupo 108437">
          <path id="Trazado_156494" data-name="Trazado 156494" d="M48.634,62.1a12.429,12.429,0,0,1-11.376,7.452v7.8a25.742,25.742,0,0,0-11.078-4.67l-3.825-.646.745-4.421,1.739-10.482-3.2-3.2a5.977,5.977,0,0,1-1.764-4.247,5,5,0,0,1,4.968-4.968l5.961-11.9a5.48,5.48,0,0,0,4.247,1.962h7.178a12.51,12.51,0,0,0,6.806-2.012,46.008,46.008,0,0,1,5.34,16.915,45.4,45.4,0,0,1,.273,4.968H49.677v2.484A12.272,12.272,0,0,1,48.634,62.1Z" fill="#f0d0b4"/>
        </g>
      </g>
      <g id="Grupo_108439" data-name="Grupo 108439">
        <path id="Trazado_156495" data-name="Trazado 156495" d="M142.291,67.514a14.811,14.811,0,0,0-.335-21.113,30.012,30.012,0,0,0,4.593-15.864A28.085,28.085,0,0,0,118.493,2.484h-14.17a12.37,12.37,0,0,0-9.873,4.968H67.065A4.973,4.973,0,0,0,62.1,12.419V37.258a4.973,4.973,0,0,0,4.968,4.968h4.968v4.382a5.711,5.711,0,0,0,.06.586H56.53a49.193,49.193,0,0,0-4.359-13.771,14.852,14.852,0,0,0,4.958-11.068V17.387a4.973,4.973,0,0,0-4.968-4.968h-19.6A30.083,30.083,0,0,0,2.484,42.5,26.168,26.168,0,0,0,13.4,63.734l6.99,5-.31,1.86A28.178,28.178,0,0,0,7.452,93.967V121.8a14.768,14.768,0,0,0,4.968,11.041v23.646H52.161v-9.935h14.9a4.973,4.973,0,0,0,4.968-4.968v-6.346a9.851,9.851,0,0,0,0-17.111V101.839a4.973,4.973,0,0,0-4.968-4.968H50.306l-.082-1A28.3,28.3,0,0,0,39.742,76.136V71.824a14.813,14.813,0,0,0,7.452-3.651V77a4.973,4.973,0,0,0,4.968,4.968h4.968v3.939a6,6,0,0,0,10.236,4.24l8.179-8.179h7.37a22.151,22.151,0,0,0-.946,6.356v28.418a14.909,14.909,0,0,0,14.362,14.876l-4.973,24.866h55.738l-4.973-24.866a14.909,14.909,0,0,0,14.362-14.876V88.324a22.43,22.43,0,0,0-14.193-20.81ZM121.71,116.742a4.968,4.968,0,1,1,0,9.935h-4.968v-9.935Zm-9.935,14.9h9.935a9.935,9.935,0,1,0,0-19.871h-9.935v-9.935h24.839v34.774H111.774Zm4.19-34.774-3.823-9.935h14.166l-3.823,9.935Zm12.255-14.9H110.232l-4.486-11.662,1.2-.241a7.467,7.467,0,0,0,5.606-4.95l1.006-3.018h3.179V57.129h-4.965a9.945,9.945,0,0,1-9.935-9.935V42.226h-4.9a43.1,43.1,0,0,1,3.932-15.614,15.19,15.19,0,0,0,4.488.71h11.125a8.135,8.135,0,0,0,1.942-.258l4.079,10.194h1.682a2.486,2.486,0,0,1,2.484,2.484,3.479,3.479,0,0,1-1.028,2.484l-4.205,4.205,4.548,18.184a7.477,7.477,0,0,0,5.765,5.5l.949.189Zm13.361-24.839a9.913,9.913,0,0,1-5.392,8.808l-3.458-.693a2.492,2.492,0,0,1-1.923-1.833L129.5,58.165l4.476-3.2a30.01,30.01,0,0,0,5-4.536A9.94,9.94,0,0,1,141.581,57.129ZM104.323,7.452h14.17a23.112,23.112,0,0,1,23.088,23.085,25.1,25.1,0,0,1-10.494,20.388L128.2,52.986l-1.259-5.032,2.218-2.213a8.424,8.424,0,0,0,2.484-6,7.466,7.466,0,0,0-5.686-7.24L122.7,24.349a6.808,6.808,0,0,0,1.14-2.161,7.467,7.467,0,0,0-7.094-9.769h-2.484v4.968h2.484a2.463,2.463,0,0,1,2,1.013,2.538,2.538,0,0,1,.35,2.317,2.676,2.676,0,0,1-2.606,1.637H105.366c-4.923,0-8.495-3.135-8.495-7.452a7.461,7.461,0,0,1,7.452-7.452ZM67.065,37.258V12.419h25.09a12.3,12.3,0,0,0,0,4.968H72.032v4.968H94.5A12.13,12.13,0,0,0,96.466,24.3c-.432.919-.857,1.945-1.274,3.02H72.032V32.29H93.565A47.8,47.8,0,0,0,92.5,37.258H82.917l-4.8,9.61A.608.608,0,0,1,77,46.607V37.258Zm18.922,4.968H92c-.042.82-.092,1.634-.092,2.484v2.484h4.968a14.92,14.92,0,0,0,11.585,14.518l-.611,1.831a2.493,2.493,0,0,1-1.87,1.652L99.936,66.4A22.155,22.155,0,0,0,91.9,69.769V52.161a4.973,4.973,0,0,0-4.968-4.968H83.5Zm-69.7,17.469A21.189,21.189,0,0,1,7.452,42.5,25.111,25.111,0,0,1,32.561,17.387h19.6v4.968a9.945,9.945,0,0,1-9.935,9.935H35.037a2.68,2.68,0,0,1-2.618-1.644,2.528,2.528,0,0,1,.353-2.312,2.468,2.468,0,0,1,2-1.011h2.484V22.355H34.774a7.465,7.465,0,0,0-7.1,9.749,6.621,6.621,0,0,0,.31.763L23.214,42.4a7.462,7.462,0,0,0-5.827,7.273,8.414,8.414,0,0,0,2.484,6l2.308,2.308-.882,5.3ZM35.775,79.38l-1.821,3.641-9.8-8.169,1.624.271A23.435,23.435,0,0,1,35.775,79.38Zm11.418,72.137H17.387V135.771a14.673,14.673,0,0,0,4.873.842H32.29v4.968a4.973,4.973,0,0,0,4.968,4.968h9.935Zm-9.935-9.935v-4.968H67.065v4.968Zm29.821-9.935H62.1V121.71h4.965a4.968,4.968,0,0,1,.017,9.935Zm-.015-14.9H37.258v-14.9H67.065ZM45.276,96.285l.047.586H37.258a4.973,4.973,0,0,0-4.968,4.968v14.9H27.323V91.9H22.355V121.71H57.129v9.935H22.26a9.856,9.856,0,0,1-9.841-9.849V93.967a23.188,23.188,0,0,1,7.057-16.545l16.118,13.43,3.989-7.981a23.031,23.031,0,0,1,1.836,2.365,23.485,23.485,0,0,1,3.857,11.048Zm-8.018-29.22H34.774v5.857a28.236,28.236,0,0,0-8.184-2.7l-1.376-.229L27.5,56.28l-4.118-4.118a3.479,3.479,0,0,1-1.028-2.484,2.486,2.486,0,0,1,2.484-2.484h1.535l5.333-10.666a8.107,8.107,0,0,0,3.331.73h7.188a14.8,14.8,0,0,0,5.718-1.145,43.629,43.629,0,0,1,4.143,16.048H47.194v4.968a9.784,9.784,0,0,1-.353,2.484H45.3a6.47,6.47,0,0,1-5.817-3.594l-4.444,2.223a11.4,11.4,0,0,0,8.843,6.242,9.848,9.848,0,0,1-6.62,2.581ZM73.488,77,63.85,86.635a1.068,1.068,0,0,1-1.754-.728V77H52.161V57.129h4.968V54.645c0-.852-.06-1.662-.1-2.484H86.935V74.31A22.506,22.506,0,0,0,85.078,77Zm13.448,39.742V88.324A17.426,17.426,0,0,1,100.805,71.3L110.689,97a4.969,4.969,0,0,0-3.882,4.839v9.935h-4.968V86.935H96.871V113.23l-4.24,4.24,3.512,3.512,4.24-4.24h11.391v9.935h-14.9A9.945,9.945,0,0,1,86.935,116.742Zm10.482,34.774,3.974-19.871h5.415v4.968a4.973,4.973,0,0,0,4.968,4.968h24.839a4.905,4.905,0,0,0,2.315-.6l2.106,10.534Zm54.1-34.774a9.945,9.945,0,0,1-9.935,9.935v-9.935h4.968v-4.968h-4.968V86.935h-4.968v9.935h-8.8L137.644,71.3a17.425,17.425,0,0,1,13.872,17.019Z"/>
        <path id="Trazado_156496" data-name="Trazado 156496" d="M77,62.1h4.968v4.968H77Z"/>
        <path id="Trazado_156497" data-name="Trazado 156497" d="M67.065,62.1h4.968v4.968H67.065Z"/>
        <path id="Trazado_156498" data-name="Trazado 156498" d="M57.129,62.1H62.1v4.968H57.129Z"/>
      </g>
    </g>
  </g>
</svg>
