<svg xmlns="http://www.w3.org/2000/svg" width="470" height="154" viewBox="0 0 470 154">
  <g id="Grupo_108918" data-name="Grupo 108918" transform="translate(3350 1986)">
    <path id="Rectángulo_36104" data-name="Rectángulo 36104" d="M0,0H393a77,77,0,0,1,77,77v0a77,77,0,0,1-77,77H0a0,0,0,0,1,0,0V0A0,0,0,0,1,0,0Z" transform="translate(-3350 -1986)" fill="#6765a9"/>
    <g id="duda" transform="translate(-3247.161 -1978.161)">
      <g id="Grupo_108418" data-name="Grupo 108418">
        <path id="Trazado_156460" data-name="Trazado 156460" d="M30.258,88.613l1.664-4.582,14.632,7.327a1.9,1.9,0,0,1,.043.367l-4.971,7.5a9.334,9.334,0,0,1-16.188-.346l-9.7-17.787a2.139,2.139,0,0,0-1.88-1.124H8.645a4.354,4.354,0,0,1-4.323-4.323,4.335,4.335,0,0,1,4.323-4.323h8.969a6.482,6.482,0,0,1,5.792,3.588Z" fill="#f0d0b4"/>
        <path id="Trazado_156461" data-name="Trazado 156461" d="M108.065,88.613l6.851-13.7a6.482,6.482,0,0,1,5.792-3.588h8.969A4.335,4.335,0,0,1,134,75.645a4.354,4.354,0,0,1-4.323,4.323h-5.209a2.139,2.139,0,0,0-1.88,1.124l-9.7,17.787a9.334,9.334,0,0,1-16.188.346l-4.971-7.5a1.9,1.9,0,0,1,.043-.367L106.4,84.031Z" fill="#f0d0b4"/>
        <path id="Trazado_156462" data-name="Trazado 156462" d="M46.554,91.358,31.922,84.031l2.831-7.759A21.545,21.545,0,0,1,50.812,62.461l5.382-1.081,2.161,14.265,4.323-2.594,2.161,6.916-4.323,30.258,8.645,12.968,8.645-12.968L73.484,79.968l2.161-6.916,4.323,2.594,2.161-14.265,5.382,1.081a21.545,21.545,0,0,1,16.058,13.811l2.831,7.759L91.768,91.358a1.9,1.9,0,0,0-.043.367c-.5,5.684-.951,12.535-.951,18.5A135.471,135.471,0,0,0,92.935,134H45.387a135.471,135.471,0,0,0,2.161-23.774c0-5.965-.454-12.816-.951-18.5a1.9,1.9,0,0,0-.043-.367Z" fill="#fcd770"/>
        <path id="Trazado_156463" data-name="Trazado 156463" d="M73.484,79.968l4.323,30.258-8.645,12.968-8.645-12.968,4.323-30.258Z" fill="#b4dd7f"/>
        <path id="Trazado_156464" data-name="Trazado 156464" d="M75.645,73.052l-2.161,6.916H64.839l-2.161-6.916,6.484-3.89Z" fill="#a0d468"/>
        <path id="Trazado_156465" data-name="Trazado 156465" d="M82.129,61.381,79.968,75.645l-4.323-2.594-6.484-3.89,8.645-8.645Z" fill="#e6e9ed"/>
        <path id="Trazado_156466" data-name="Trazado 156466" d="M69.161,69.161l-6.484,3.89-4.323,2.594L56.194,61.381l4.323-.865Z" fill="#e6e9ed"/>
        <path id="Trazado_156467" data-name="Trazado 156467" d="M32.419,45.387v8.645H19.452v4.323L6.484,49.71l12.968-8.645v4.323Z" fill="#ff826e"/>
        <path id="Trazado_156468" data-name="Trazado 156468" d="M131.839,49.71l-12.968,8.645V54.032H105.9V45.387h12.968V41.065Z" fill="#ff826e"/>
        <path id="Trazado_156469" data-name="Trazado 156469" d="M51.871,28.1a6.354,6.354,0,0,0-4.3,1.664l-.022-.022s-.54-1.491-1.081-3.523a28.167,28.167,0,0,1-1.081-6.765,6.494,6.494,0,0,1,6.484-6.484l1.686-2.248a15.968,15.968,0,0,1,12.795-6.4A15.647,15.647,0,0,1,71.8,5.3l14.221,5.165a10.512,10.512,0,0,1,6.916,9.855,10.187,10.187,0,0,1-.324,2.55l-1.837,6.895A6.409,6.409,0,0,0,86.452,28.1H84.29c-5.4,0-11.347-2.161-15.95-4.323a67.494,67.494,0,0,1-7.824-4.323A14.7,14.7,0,0,0,54.443,28.1Z" fill="#656d78"/>
        <g id="Grupo_108417" data-name="Grupo 108417">
          <path id="Trazado_156470" data-name="Trazado 156470" d="M75.8,52.5l2.01,8.018-8.645,8.645-8.645-8.645,2.01-8.018a15.112,15.112,0,0,0,13.27,0Z" fill="#f0d0b4"/>
          <path id="Trazado_156471" data-name="Trazado 156471" d="M91.034,39.163a6.468,6.468,0,0,1-4.582,1.9H84.117A11.987,11.987,0,0,0,84.29,38.9V28.1h2.161a6.48,6.48,0,0,1,4.582,11.066Z" fill="#f0d0b4"/>
          <path id="Trazado_156472" data-name="Trazado 156472" d="M84.29,28.1V38.9a11.987,11.987,0,0,1-.173,2.161A15,15,0,0,1,75.8,52.5a15.112,15.112,0,0,1-13.27,0,15,15,0,0,1-8.321-11.433,11.988,11.988,0,0,1-.173-2.161V31.576a15.482,15.482,0,0,1,.411-3.48,14.7,14.7,0,0,1,6.073-8.645,67.494,67.494,0,0,0,7.824,4.323C72.944,25.935,78.887,28.1,84.29,28.1Z" fill="#f0d0b4"/>
          <path id="Trazado_156473" data-name="Trazado 156473" d="M54.032,38.9a11.988,11.988,0,0,0,.173,2.161H51.871a6.494,6.494,0,0,1-6.484-6.484A6.543,6.543,0,0,1,51.871,28.1h2.572a15.482,15.482,0,0,0-.411,3.48Z" fill="#f0d0b4"/>
        </g>
      </g>
      <g id="Grupo_108419" data-name="Grupo 108419">
        <path id="Trazado_156474" data-name="Trazado 156474" d="M21.613,56.194H34.581V43.226H21.613v-6.2L2.587,49.71,21.613,62.394ZM17.29,54.315l-6.91-4.606L17.29,45.1v2.444H30.258v4.323H17.29Z"/>
        <path id="Trazado_156475" data-name="Trazado 156475" d="M116.71,62.394,135.736,49.71,116.71,37.025v6.2H103.742V56.194H116.71Zm-8.645-10.523V47.548h12.968V45.1l6.91,4.606-6.91,4.606V51.871Z"/>
        <path id="Trazado_156476" data-name="Trazado 156476" d="M129.677,69.161h-8.961a8.6,8.6,0,0,0-7.733,4.779l-4.606,9.211L105.6,75.522A23.913,23.913,0,0,0,87.923,60.335L79.57,58.664l-1.277-5.107a17.33,17.33,0,0,0,7.588-10.331h.571A8.654,8.654,0,0,0,95.1,34.581,8.556,8.556,0,0,0,93.16,29.2l1.558-5.807A12.655,12.655,0,0,0,86.765,8.425L72.546,3.255A18.136,18.136,0,0,0,51.832,9.419l-1.1,1.461a8.659,8.659,0,0,0-7.508,8.572,36.2,36.2,0,0,0,1.882,9.81,8.559,8.559,0,0,0-1.882,5.319,8.654,8.654,0,0,0,8.645,8.645h.568a17.321,17.321,0,0,0,7.588,10.331L58.75,58.664,50.4,60.335A23.913,23.913,0,0,0,32.718,75.522l-2.775,7.629L25.337,73.94a8.592,8.592,0,0,0-7.731-4.779H8.645a6.484,6.484,0,0,0,0,12.968h5.2l9.7,17.79a11.478,11.478,0,0,0,19.869.5l1.506-2.265c.268,4.039.463,8.258.463,12.075a134.881,134.881,0,0,1-2.118,23.351l-.517,2.585H95.57l-.517-2.585a134.88,134.88,0,0,1-2.118-23.351c0-3.819.195-8.038.465-12.079l1.452,2.185a11.479,11.479,0,0,0,19.921-.413l9.7-17.79h5.2a6.484,6.484,0,0,0,0-12.968ZM79.682,63.095l-1.368,9.039-5.667-3.4,5.87-5.87ZM66.713,82.129h4.9l3.94,27.587L69.161,119.3l-6.389-9.583ZM71.9,77.806H66.427l-1.18-3.776,3.914-2.349,3.914,2.347ZM86.452,38.9V30.258a4.323,4.323,0,0,1,0,8.645Zm-38.9-4.323a4.327,4.327,0,0,1,4.323-4.323h.08c-.032.434-.08.867-.08,1.308V38.9A4.327,4.327,0,0,1,47.548,34.581Zm5.317-8.645h-.994a8.566,8.566,0,0,0-3.076.592,28.2,28.2,0,0,1-1.247-7.076,4.327,4.327,0,0,1,4.323-4.323h1.081l2.339-3.117a13.817,13.817,0,0,1,15.777-4.7l14.219,5.17a8.337,8.337,0,0,1,5.248,9.821L89.41,26.491a8.524,8.524,0,0,0-2.959-.555H84.29c-10.013,0-22.451-8.2-22.577-8.284l-1.2-.8-1.2.8A16.676,16.676,0,0,0,52.865,25.935ZM56.194,38.9V31.566a12.373,12.373,0,0,1,4.424-9.495c3.376,2.064,12.7,7.3,21.511,8.085V38.9a12.968,12.968,0,1,1-25.935,0Zm12.968,17.29a17.279,17.279,0,0,0,5.142-.78l1.111,4.441-6.253,6.25-6.25-6.25,1.111-4.441A17.254,17.254,0,0,0,69.161,56.194Zm-9.356,6.67,5.87,5.87-5.667,3.4L58.64,63.1ZM39.763,98.107a7.156,7.156,0,0,1-12.419-.257l-9.7-17.79a4.319,4.319,0,0,0-3.8-2.254h-5.2a2.161,2.161,0,1,1,0-4.323h8.961a4.3,4.3,0,0,1,3.867,2.388L30.487,93.9l3.867-1.934-1.746-3.49.517-1.418L43.617,92.3Zm29.4,33.731h-21.2a140.364,140.364,0,0,0,1.748-21.613c0-12.953-2.157-30.351-2.179-30.526l-4.288.536c.009.071.38,3.08.81,7.454l-9.443-4.72L36.781,77A19.568,19.568,0,0,1,51.246,64.573l3.149-.629L56.7,79.157l4.733-2.84,1.2,3.828-4.37,30.591,10.9,16.354,10.9-16.352-4.37-30.591,1.2-3.828,4.733,2.84,2.306-15.213,3.149.629A19.563,19.563,0,0,1,101.542,77l2.17,5.969-9.443,4.72c.43-4.374.8-7.383.81-7.454L90.791,79.7c-.022.173-2.179,17.571-2.179,30.524a140.364,140.364,0,0,0,1.748,21.613Zm60.516-54.032h-5.2a4.319,4.319,0,0,0-3.8,2.254l-9.7,17.79a7.151,7.151,0,0,1-6.283,3.73,7.246,7.246,0,0,1-6.19-3.557l-3.8-5.717L105.2,87.061l.517,1.418-1.746,3.49,3.867,1.934,9.015-18.029a4.3,4.3,0,0,1,3.867-2.39h8.961a2.161,2.161,0,1,1,0,4.323Z"/>
      </g>
    </g>
  </g>
</svg>
