<svg xmlns="http://www.w3.org/2000/svg" width="470" height="154" viewBox="0 0 470 154">
  <g id="Grupo_108920" data-name="Grupo 108920" transform="translate(3350 939)">
    <path id="Rectángulo_36108" data-name="Rectángulo 36108" d="M0,0H393a77,77,0,0,1,77,77v0a77,77,0,0,1-77,77H0a0,0,0,0,1,0,0V0A0,0,0,0,1,0,0Z" transform="translate(-3350 -939)" fill="#6765a9"/>
    <g id="Layer_31" data-name="Layer 31" transform="translate(-3245.031 -928.995)">
      <path id="Trazado_156544" data-name="Trazado 156544" d="M52.342,39.78a25.124,25.124,0,1,0-26.313,25.1,4.261,4.261,0,0,1,2.175.685L39.78,73.279V63.8a4.076,4.076,0,0,1,1.706-3.367A25.068,25.068,0,0,0,52.342,39.78Z" fill="#f8c460"/>
      <path id="Trazado_156545" data-name="Trazado 156545" d="M34.485,61.374a4.261,4.261,0,0,0-2.175-.685,25.022,25.022,0,0,1-15.543-43.7,25.086,25.086,0,0,0,9.262,47.884,4.261,4.261,0,0,1,2.175.685L39.78,73.279V64.9Z" fill="#faaf42"/>
      <path id="Trazado_156546" data-name="Trazado 156546" d="M105.794,14.675a25.361,25.361,0,0,0-24.14,24.517A25.063,25.063,0,0,0,92.482,60.419,4.093,4.093,0,0,1,94.215,63.8v9.482l11.572-7.713a4.254,4.254,0,0,1,2.184-.689,25.125,25.125,0,0,0-2.177-50.2Z" fill="#f8c460"/>
      <path id="Trazado_156547" data-name="Trazado 156547" d="M100.5,65.381v3.71l-6.281,4.187V63.794A4.116,4.116,0,0,0,92.467,60.4,25.124,25.124,0,0,1,81.653,39.194a25.388,25.388,0,0,1,14.7-22.214A24.892,24.892,0,0,0,95.262,53.3,17.168,17.168,0,0,1,100.5,65.381Z" fill="#faaf42"/>
      <path id="Trazado_156548" data-name="Trazado 156548" d="M52.342,73.279H81.653V92.122A14.656,14.656,0,0,1,67,106.778h0A14.656,14.656,0,0,1,52.342,92.122Z" fill="#ffd3b6"/>
      <path id="Trazado_156549" data-name="Trazado 156549" d="M71.185,102.59A14.656,14.656,0,0,1,56.529,87.934V73.279H52.342V92.122a14.656,14.656,0,0,0,26.9,8.052A14.578,14.578,0,0,1,71.185,102.59Z" fill="#f9b995"/>
      <path id="Trazado_156550" data-name="Trazado 156550" d="M77.466,64.9h0a4.187,4.187,0,0,0-4.187-4.187H60.717A12.562,12.562,0,0,0,48.155,73.279h0a8.375,8.375,0,0,0,8.375,8.375h5.624A16.75,16.75,0,0,0,74,76.747l1.375-1.375h0a6.281,6.281,0,0,0,6.281,6.281h0V69.091A4.187,4.187,0,0,0,77.466,64.9Z" fill="#8e969b"/>
      <path id="Trazado_156551" data-name="Trazado 156551" d="M78.245,72.5l-.061.061A16.749,16.749,0,0,1,66.34,77.466h-5.4a8.563,8.563,0,0,1-8.6-8.741,12.485,12.485,0,0,1,1.838-6.164,12.545,12.545,0,0,0-6.026,10.766,8.435,8.435,0,0,0,8.471,8.327h5.527A16.75,16.75,0,0,0,74,76.747l1.375-1.375a6.281,6.281,0,0,0,6.281,6.281V75.835a6.336,6.336,0,0,1-1.834-2.877.946.946,0,0,0-1.574-.459Z" fill="#778084"/>
      <path id="Trazado_156552" data-name="Trazado 156552" d="M81.653,81.653h2.094a4.187,4.187,0,0,1,4.187,4.187h0a4.187,4.187,0,0,1-4.187,4.187H81.653Z" fill="#ffd3b6"/>
      <path id="Trazado_156553" data-name="Trazado 156553" d="M46.061,81.653h2.094a4.187,4.187,0,0,1,4.187,4.187h0a4.187,4.187,0,0,1-4.187,4.187H46.061Z" transform="translate(98.403 171.682) rotate(180)" fill="#ffd3b6"/>
      <path id="Trazado_156554" data-name="Trazado 156554" d="M54.436,106.778H79.56a16.749,16.749,0,0,1,16.749,16.749V131.9H37.686v-8.375a16.749,16.749,0,0,1,16.749-16.749Z" fill="#f8c460"/>
      <path id="Trazado_156555" data-name="Trazado 156555" d="M52.342,125.621a8.375,8.375,0,0,1-8.375-8.375h0a16.667,16.667,0,0,1,2.2-8.275,16.735,16.735,0,0,0-8.479,14.556V131.9H96.309v-6.281Z" fill="#faaf42"/>
      <path id="Trazado_156556" data-name="Trazado 156556" d="M40.293,18.347a24.582,24.582,0,0,0-2.6,10.468,25.063,25.063,0,0,0,12.081,21.94,24.98,24.98,0,0,0-9.478-32.41Z" fill="#faaf42"/>
      <path id="Trazado_156557" data-name="Trazado 156557" d="M93.7,18.347a24.582,24.582,0,0,1,2.6,10.468,25.063,25.063,0,0,1-12.081,21.94A24.98,24.98,0,0,1,93.7,18.345Z" fill="#faaf42"/>
      <path id="Trazado_156558" data-name="Trazado 156558" d="M92.122,27.218A25.124,25.124,0,1,0,59.758,51.26a4.332,4.332,0,0,1,2.466,1.819L67,60.717l4.771-7.634a4.355,4.355,0,0,1,2.473-1.826,25.124,25.124,0,0,0,17.88-24.04Z" fill="#f8c460"/>
      <path id="Trazado_156559" data-name="Trazado 156559" d="M85.841,19.142a1.047,1.047,0,0,1-.94-.588,19.913,19.913,0,0,0-3.978-5.525,1.047,1.047,0,1,1,1.466-1.495,21.929,21.929,0,0,1,4.4,6.1,1.047,1.047,0,0,1-.482,1.4A1.062,1.062,0,0,1,85.841,19.142Z" fill="#fff"/>
      <path id="Trazado_156560" data-name="Trazado 156560" d="M72.077,52.514A24.978,24.978,0,0,0,62.059,43.4a25.093,25.093,0,0,1-13.9-22.957A24.808,24.808,0,0,1,52.761,6.616,25.036,25.036,0,0,0,59.766,51.26a4.332,4.332,0,0,1,2.466,1.819L67,60.717l4.771-7.634a3.874,3.874,0,0,1,.366-.475Z" fill="#faaf42"/>
      <path id="Trazado_156561" data-name="Trazado 156561" d="M39.78,75.372a2.094,2.094,0,0,0,2.094-2.094V63.8a1.979,1.979,0,0,1,.806-1.646,27.383,27.383,0,0,0,6.626-6.49,2.094,2.094,0,1,0-3.394-2.45,23.274,23.274,0,0,1-5.615,5.5A6.162,6.162,0,0,0,37.686,63.8v5.567l-8.32-5.548a6.361,6.361,0,0,0-3.239-1.034A23.1,23.1,0,0,1,4.2,38.88,23.393,23.393,0,0,1,26.318,16.766,22.821,22.821,0,0,1,34.9,18.06,2.094,2.094,0,1,0,36.3,14.111,27.218,27.218,0,1,0,25.939,66.968a2.19,2.19,0,0,1,1.112.335l11.574,7.717A2.094,2.094,0,0,0,39.78,75.372Z"/>
      <path id="Trazado_156562" data-name="Trazado 156562" d="M107.837,12.581a27.218,27.218,0,0,0-10.131,1.53A2.094,2.094,0,1,0,99.1,18.06a23.062,23.062,0,0,1,8.584-1.294A23.393,23.393,0,0,1,129.791,38.88,23.1,23.1,0,0,1,107.87,62.785a6.361,6.361,0,0,0-3.241,1.034l-8.32,5.548V63.8a6.166,6.166,0,0,0-2.609-5.09,23.239,23.239,0,0,1-5.617-5.5,2.094,2.094,0,1,0-3.394,2.45,27.354,27.354,0,0,0,6.629,6.49,1.981,1.981,0,0,1,.8,1.646v9.482a2.094,2.094,0,0,0,3.256,1.742L106.951,67.3a2.19,2.19,0,0,1,1.114-.335,27.218,27.218,0,0,0-.228-54.387Z"/>
      <path id="Trazado_156563" data-name="Trazado 156563" d="M68.731,12.562a4.552,4.552,0,0,1,4.547,4.545,2.094,2.094,0,0,1-.613,1.482l-2.242,2.242A18.717,18.717,0,0,0,64.9,34.154v1.438a2.094,2.094,0,1,0,4.187,0V34.154a14.568,14.568,0,0,1,4.292-10.362l2.242-2.242a6.245,6.245,0,0,0,1.84-4.443,8.743,8.743,0,0,0-8.735-8.733H65.264a8.743,8.743,0,0,0-8.735,8.733v1.736a2.094,2.094,0,1,0,4.187,0V17.107a4.552,4.552,0,0,1,4.547-4.545Z"/>
      <circle id="Elipse_4893" data-name="Elipse 4893" cx="2.094" cy="2.094" r="2.094" transform="translate(64.904 41.874)"/>
      <path id="Trazado_156564" data-name="Trazado 156564" d="M29.311,46.716A14.568,14.568,0,0,1,33.6,36.355l2.242-2.242a6.245,6.245,0,0,0,1.84-4.443,8.743,8.743,0,0,0-8.735-8.733H25.484a8.743,8.743,0,0,0-8.735,8.733v1.736a2.094,2.094,0,0,0,4.187,0V29.67a4.552,4.552,0,0,1,4.547-4.545h3.467A4.552,4.552,0,0,1,33.5,29.669a2.094,2.094,0,0,1-.613,1.482l-2.242,2.242a18.717,18.717,0,0,0-5.519,13.322v1.438a2.094,2.094,0,0,0,4.187,0Z"/>
      <circle id="Elipse_4894" data-name="Elipse 4894" cx="2.094" cy="2.094" r="2.094" transform="translate(25.124 54.436)"/>
      <path id="Trazado_156565" data-name="Trazado 156565" d="M98.4,33.5a2.094,2.094,0,0,0,2.094-2.094V29.67a4.552,4.552,0,0,1,4.547-4.545h3.467a4.552,4.552,0,0,1,4.547,4.545,2.094,2.094,0,0,1-.613,1.482L110.2,33.394a18.718,18.718,0,0,0-5.519,13.322v1.438a2.094,2.094,0,0,0,4.187,0V46.716a14.568,14.568,0,0,1,4.292-10.362l2.242-2.242a6.245,6.245,0,0,0,1.84-4.443,8.743,8.743,0,0,0-8.735-8.733h-3.467a8.743,8.743,0,0,0-8.735,8.733v1.736A2.094,2.094,0,0,0,98.4,33.5Z"/>
      <circle id="Elipse_4895" data-name="Elipse 4895" cx="2.094" cy="2.094" r="2.094" transform="translate(104.684 54.436)"/>
      <circle id="Elipse_4896" data-name="Elipse 4896" cx="2.094" cy="2.094" r="2.094" transform="translate(58.623 85.841)"/>
      <circle id="Elipse_4897" data-name="Elipse 4897" cx="2.094" cy="2.094" r="2.094" transform="translate(71.185 85.841)"/>
      <path id="Trazado_156566" data-name="Trazado 156566" d="M79.56,104.684H78.04a16.7,16.7,0,0,0,5.707-12.562,6.281,6.281,0,0,0,0-12.562V69.091a6.281,6.281,0,0,0-4.458-6.011,6.281,6.281,0,0,0-6.01-4.457H70.766l2.768-4.428a2.282,2.282,0,0,1,1.3-.932A27.208,27.208,0,0,0,65.926.021,27.557,27.557,0,0,0,39.78,26.686,27.3,27.3,0,0,0,59.155,53.263a2.278,2.278,0,0,1,1.294.925l2.78,4.434H60.717A14.672,14.672,0,0,0,46.061,73.279a10.368,10.368,0,0,0,2.389,6.574,6.264,6.264,0,0,0,1.8,12.269,16.7,16.7,0,0,0,5.707,12.562h-1.52a18.864,18.864,0,0,0-18.843,18.843V131.9A2.094,2.094,0,0,0,37.686,134H96.309A2.094,2.094,0,0,0,98.4,131.9v-8.375A18.864,18.864,0,0,0,79.56,104.684Zm-19.2-55.43A23.1,23.1,0,0,1,43.967,26.766,23.313,23.313,0,0,1,66.085,4.2c.31-.017.613-.017.913-.017a23.021,23.021,0,0,1,6.641,45.066,6.461,6.461,0,0,0-3.645,2.722l-3,4.79-3-4.795a6.44,6.44,0,0,0-3.639-2.718Zm25.48,36.587a2.094,2.094,0,0,1-2.094,2.094V83.747A2.094,2.094,0,0,1,85.841,85.841ZM60.717,62.81H73.279A2.094,2.094,0,0,1,75.372,64.9,2.094,2.094,0,0,0,77.466,67a2.094,2.094,0,0,1,2.094,2.094V79a4.187,4.187,0,0,1-2.094-3.624,2.094,2.094,0,0,0-3.574-1.48l-1.376,1.376A14.564,14.564,0,0,1,62.155,79.56H56.529a6.281,6.281,0,0,1-6.281-6.281A10.481,10.481,0,0,1,60.717,62.81ZM48.155,85.841a2.094,2.094,0,0,1,2.094-2.094v4.187A2.094,2.094,0,0,1,48.155,85.841Zm6.281,6.281V83.538a10.468,10.468,0,0,0,2.094.209h5.626a18.707,18.707,0,0,0,12.122-4.413,8.406,8.406,0,0,0,5.282,4.137v8.651a12.562,12.562,0,0,1-25.124,0Zm39.78,37.686H90.028v-6.281a2.094,2.094,0,1,0-4.187,0v6.281H48.155v-6.281a2.094,2.094,0,1,0-4.187,0v6.281H39.78v-6.281a14.675,14.675,0,0,1,14.656-14.656H79.56a14.675,14.675,0,0,1,14.656,14.656Z"/>
    </g>
  </g>
</svg>
