<svg xmlns="http://www.w3.org/2000/svg" width="90" height="75.955" viewBox="0 0 90 75.955">
  <g id="pago-en-efectivo" transform="translate(0 -7.022)">
    <g id="Grupo_108721" data-name="Grupo 108721">
      <g id="Grupo_108720" data-name="Grupo 108720">
        <g id="Grupo_108718" data-name="Grupo 108718">
          <g id="Grupo_108717" data-name="Grupo 108717">
            <path id="Trazado_156975" data-name="Trazado 156975" d="M75.049,10.246v42.64a1.9,1.9,0,0,1-1.905,1.905H31.2a1.9,1.9,0,0,1-1.905-1.905V10.246A1.9,1.9,0,0,1,31.2,8.34H73.144a1.9,1.9,0,0,1,1.905,1.905Z" fill="#fb9927"/>
            <path id="Trazado_156976" data-name="Trazado 156976" d="M33.933,30.273a3.185,3.185,0,0,1,3.329-3.029l1.26.06a13.612,13.612,0,0,0-7.631-2.34,13.223,13.223,0,0,0-1.6.095V18.666q.788-.063,1.6-.064a19.972,19.972,0,0,1,12.225,4.176l.042-.9a3.182,3.182,0,1,1,6.357.3L49.1,30.988a3.179,3.179,0,0,1-3.065,3.029,2.5,2.5,0,0,1-.262,0" fill="#f98824"/>
            <path id="Trazado_156977" data-name="Trazado 156977" d="M75.049,10.245v42.64a1.906,1.906,0,0,1-1.905,1.905H66.653a1.906,1.906,0,0,0,1.905-1.905V10.245A1.906,1.906,0,0,0,66.653,8.34h6.491a1.906,1.906,0,0,1,1.905,1.905Z" fill="#f98824"/>
            <g id="Grupo_108716" data-name="Grupo 108716">
              <path id="Trazado_156978" data-name="Trazado 156978" d="M67.33,48.8H54.077a1.905,1.905,0,0,1-1.905-1.905V39.744a1.905,1.905,0,0,1,1.905-1.905H67.33a1.905,1.905,0,0,1,1.905,1.905V46.89A1.905,1.905,0,0,1,67.33,48.8Z" fill="#68dbf9"/>
              <path id="Trazado_156979" data-name="Trazado 156979" d="M69.235,39.743v7.146a1.9,1.9,0,0,1-1.905,1.905H62.29A1.9,1.9,0,0,0,64.2,46.889V39.743a1.906,1.906,0,0,0-1.905-1.905H67.33A1.906,1.906,0,0,1,69.235,39.743Z" fill="#24d1f8"/>
            </g>
          </g>
        </g>
        <g id="Grupo_108719" data-name="Grupo 108719">
          <path id="Trazado_156980" data-name="Trazado 156980" d="M57.962,24.307V8.34H46.382V24.307a1.905,1.905,0,0,0,1.905,1.905h7.769a1.905,1.905,0,0,0,1.905-1.905Z" fill="#f98824"/>
          <path id="Trazado_156981" data-name="Trazado 156981" d="M57.962,20.306V8.34H46.382V20.306a1.905,1.905,0,0,0,1.905,1.905h7.769a1.9,1.9,0,0,0,1.905-1.905Z" fill="#fee7c9"/>
        </g>
      </g>
    </g>
    <path id="Trazado_156982" data-name="Trazado 156982" d="M46.485,14.684a3.184,3.184,0,0,0-3.327,3.028l-.042.9A20,20,0,1,0,24.5,53.389a3.181,3.181,0,1,0,2.031-6.029A13.636,13.636,0,1,1,38.521,23.138l-1.261-.059a3.181,3.181,0,1,0-.3,6.356l8.809.415q.132.006.262,0a3.182,3.182,0,0,0,3.065-3.03l.415-8.809a3.181,3.181,0,0,0-3.028-3.328Z" fill="#27e19d"/>
    <g id="Grupo_108724" data-name="Grupo 108724">
      <g id="Grupo_108723" data-name="Grupo 108723">
        <g id="Grupo_108722" data-name="Grupo 108722">
          <path id="Trazado_156983" data-name="Trazado 156983" d="M57.042,81.659H3.3a1.98,1.98,0,0,1-1.98-1.98V48.688a1.98,1.98,0,0,1,1.98-1.98H57.042a1.98,1.98,0,0,1,1.98,1.98V79.679a1.98,1.98,0,0,1-1.98,1.98Z" fill="#23f1a8"/>
          <path id="Trazado_156984" data-name="Trazado 156984" d="M59.022,48.689V79.678a1.981,1.981,0,0,1-1.979,1.981H51.861a1.981,1.981,0,0,0,1.979-1.981V48.689a1.981,1.981,0,0,0-1.979-1.981h5.182a1.981,1.981,0,0,1,1.979,1.981Z" fill="#26d192"/>
          <path id="Trazado_156985" data-name="Trazado 156985" d="M53.083,53.836V66.314a1.19,1.19,0,0,1-1.2,1.187,8.679,8.679,0,0,0-2.328.341,6.214,6.214,0,0,0-4.218,3.968,8.463,8.463,0,0,0-.475,2.7,1.2,1.2,0,0,1-1.188,1.209H8.447A1.188,1.188,0,0,1,7.259,74.53V62.053a1.184,1.184,0,0,1,1.181-1.187A7.363,7.363,0,0,0,13.449,58.9a7.191,7.191,0,0,0,1.7-2.8,8.2,8.2,0,0,0,.332-2.284,1.181,1.181,0,0,1,1.188-1.171h35.23a1.189,1.189,0,0,1,1.188,1.188Z" fill="#17998c"/>
          <path id="Trazado_156986" data-name="Trazado 156986" d="M53.082,53.836V66.313a1.188,1.188,0,0,1-1.2,1.187,8.673,8.673,0,0,0-2.328.342,6.206,6.206,0,0,0-4.219,3.968,8.438,8.438,0,0,0-.474,2.7,1.2,1.2,0,0,1-1.189,1.209H39.637a1.2,1.2,0,0,0,1.187-1.209,8.492,8.492,0,0,1,.474-2.7,6.21,6.21,0,0,1,4.219-3.968,8.674,8.674,0,0,1,2.328-.342,1.188,1.188,0,0,0,1.2-1.187V53.836a1.188,1.188,0,0,0-1.187-1.189H51.9a1.188,1.188,0,0,1,1.187,1.189Z" fill="#138b80"/>
        </g>
        <circle id="Elipse_4921" data-name="Elipse 4921" cx="11.535" cy="11.535" r="11.535" transform="translate(18.635 52.648)" fill="#fcc16d"/>
        <path id="Trazado_156987" data-name="Trazado 156987" d="M41.705,64.183A11.545,11.545,0,0,1,27.075,75.3a11.211,11.211,0,0,0,0-22.228A11.542,11.542,0,0,1,41.705,64.183Z" fill="#fca62f"/>
      </g>
      <path id="Trazado_156988" data-name="Trazado 156988" d="M88.681,57.666A20,20,0,0,1,56.456,73.491l-.042.9a3.181,3.181,0,1,1-6.355-.3l.414-8.809a3.179,3.179,0,0,1,3.065-3.029q.131-.006.262,0l8.809.416a3.181,3.181,0,1,1-.3,6.355l-1.262-.06a13.637,13.637,0,1,0,14-23.36v-6.9l.018.005A19.984,19.984,0,0,1,88.681,57.666Z" fill="#21c1f8"/>
      <path id="Trazado_156989" data-name="Trazado 156989" d="M79.4,40.787a19.959,19.959,0,0,0-4.335-2.074l-.018-.005v6.9A13.616,13.616,0,0,1,79.4,49.237v-8.45Z" fill="#1faaee"/>
    </g>
    <g id="Grupo_108725" data-name="Grupo 108725">
      <path id="Trazado_156990" data-name="Trazado 156990" d="M58.132,33.94h11.1a1.318,1.318,0,0,0,0-2.637h-11.1a1.318,1.318,0,1,0,0,2.637Z"/>
      <path id="Trazado_156991" data-name="Trazado 156991" d="M67.115,29.644h2.12a1.318,1.318,0,1,0,0-2.637h-2.12a1.318,1.318,0,0,0,0,2.637Z"/>
      <path id="Trazado_156992" data-name="Trazado 156992" d="M7.259,56.447a1.318,1.318,0,0,0,1.318-1.318V53.967H9.739a1.318,1.318,0,1,0,0-2.637H7.259a1.318,1.318,0,0,0-1.318,1.318v2.48A1.318,1.318,0,0,0,7.259,56.447Z"/>
      <path id="Trazado_156993" data-name="Trazado 156993" d="M34.988,64.98a1.318,1.318,0,0,0-1.767.6,3.142,3.142,0,1,1-1.706-4.335L29.4,63.628a1.318,1.318,0,0,0,1.974,1.748L34.5,61.853a1.318,1.318,0,0,0-.069-1.82,5.782,5.782,0,1,0,1.159,6.714A1.318,1.318,0,0,0,34.988,64.98Z"/>
      <path id="Trazado_156994" data-name="Trazado 156994" d="M76.367,37.783V10.246a3.228,3.228,0,0,0-3.224-3.224H31.2a3.228,3.228,0,0,0-3.224,3.224v3.072A21.318,21.318,0,0,0,12.6,45.39H3.3a3.3,3.3,0,0,0-3.3,3.3v30.99a3.3,3.3,0,0,0,3.3,3.3H57.043a3.3,3.3,0,0,0,3.3-3.3v-2.4A21.313,21.313,0,1,0,76.367,37.783ZM47.7,13.574V9.659h8.944V20.306a.588.588,0,0,1-.587.587H50.7l.132-2.821a4.507,4.507,0,0,0-3.129-4.5ZM30.612,10.246a.588.588,0,0,1,.587-.587H45.063v3.887a4.523,4.523,0,0,0-2.953,2.768,21.436,21.436,0,0,0-11.22-3.2c-.093,0-.185,0-.278,0V10.246Zm-18.4,24.189a18.679,18.679,0,0,1,30.1-14.781,1.318,1.318,0,0,0,2.123-.982l.042-.9a1.862,1.862,0,1,1,3.721.175l-.413,8.809A1.873,1.873,0,0,1,46,28.533c-.058,0-.114,0-.164,0l-8.81-.415a1.864,1.864,0,0,1-1.774-1.949A1.871,1.871,0,0,1,37.2,24.4l1.26.06a1.318,1.318,0,0,0,.8-2.409A14.952,14.952,0,0,0,15.934,34.435,15.04,15.04,0,0,0,20.72,45.39H15.755a18.782,18.782,0,0,1-3.547-10.954ZM57.7,79.678a.663.663,0,0,1-.661.663H3.3a.663.663,0,0,1-.663-.663V48.688a.663.663,0,0,1,.663-.661H37.851a1.318,1.318,0,0,0,0-2.637H30.612V38.5a1.318,1.318,0,1,0-2.637,0V45.39H25.259a12.315,12.315,0,0,1,2.717-22.92v9.522a1.318,1.318,0,1,0,2.637,0V22.126c.093,0,.185-.007.278-.007a12.3,12.3,0,0,1,3.549.521A4.5,4.5,0,0,0,36.9,30.752l8.818.415c.114,0,.227,0,.342,0h.02a4.525,4.525,0,0,0,4.337-4.286l.157-3.352h5.483a3.228,3.228,0,0,0,3.224-3.224V9.659H73.144a.588.588,0,0,1,.587.587V52.885a.588.588,0,0,1-.587.587H60.34V50.113H67.33a3.228,3.228,0,0,0,3.224-3.224V39.744A3.228,3.228,0,0,0,67.33,36.52H54.077a3.228,3.228,0,0,0-3.224,3.224V45.39H44.36a1.318,1.318,0,1,0,0,2.637H57.043a.662.662,0,0,1,.661.661v12.43l-3.3-.156V53.836a2.51,2.51,0,0,0-2.507-2.507H16.666a2.5,2.5,0,0,0-1.782.739,2.458,2.458,0,0,0-.725,1.753,6.929,6.929,0,0,1-.281,1.917,5.9,5.9,0,0,1-1.323,2.2,6.044,6.044,0,0,1-4.108,1.612H8.441a2.506,2.506,0,0,0-2.5,2.507V74.531a2.509,2.509,0,0,0,2.507,2.5H43.676a2.523,2.523,0,0,0,2.507-2.523,7.175,7.175,0,0,1,.4-2.281,4.856,4.856,0,0,1,2.368-2.742l-.213,4.538a4.5,4.5,0,0,0,8.72,1.76c.08.049.161.1.241.143Zm2.4-32.2a3.3,3.3,0,0,0-3.064-2.087H53.49V39.744a.588.588,0,0,1,.587-.587H67.33a.588.588,0,0,1,.587.587V46.89a.588.588,0,0,1-.587.587ZM49.157,65.219l-.065,1.387a7.516,7.516,0,0,0-5,4.779,9.85,9.85,0,0,0-.543,3.014H37.959a12.835,12.835,0,0,0,0-20.433H51.764v7.385a4.523,4.523,0,0,0-2.608,3.868ZM30.137,74.4a10.217,10.217,0,1,1,.068,0Zm-7.754,0H8.578V62.183a8.672,8.672,0,0,0,5.765-2.31,8.44,8.44,0,0,0,2.07-3.408,9.624,9.624,0,0,0,.382-2.5h5.589a12.835,12.835,0,0,0,0,20.433Zm46.3,1.947a18.769,18.769,0,0,1-11.421-3.9,1.318,1.318,0,0,0-2.123.982l-.042.9a1.863,1.863,0,1,1-3.721-.177l.414-8.81a1.87,1.87,0,0,1,1.8-1.773c.051,0,.1,0,.145,0l8.81.416a1.863,1.863,0,0,1-.174,3.721l-1.262-.06a1.318,1.318,0,0,0-.8,2.409,14.933,14.933,0,0,0,15,1.008A1.318,1.318,0,1,0,74.141,68.7a12.161,12.161,0,0,1-5.459,1.28,12.3,12.3,0,0,1-3.55-.521,4.5,4.5,0,0,0-2.461-8.111l-2.332-.11V56.109h12.8a3.228,3.228,0,0,0,3.224-3.224v-4.85a12.305,12.305,0,0,1,2.279,16.859,1.318,1.318,0,1,0,2.132,1.552,14.94,14.94,0,0,0-4.411-21.609V40.642a18.679,18.679,0,0,1-7.684,35.7Z"/>
    </g>
  </g>
</svg>
