<svg xmlns="http://www.w3.org/2000/svg" width="81.747" height="81.75" viewBox="0 0 81.747 81.75">
  <g id="clasificacion_2_" data-name="clasificacion (2)" transform="translate(0 -0.002)">
    <rect id="Rectángulo_36556" data-name="Rectángulo 36556" width="79.196" height="29.155" rx="3.88" transform="translate(1.276 51.32)" fill="#837683"/>
    <g id="Grupo_108712" data-name="Grupo 108712">
      <path id="Trazado_156953" data-name="Trazado 156953" d="M73.4,77.281H1.963a3.867,3.867,0,0,1-.635-.052,3.9,3.9,0,0,0,3.828,3.246H76.592a3.892,3.892,0,0,0,3.88-3.88V55.2a3.9,3.9,0,0,0-3.246-3.828,3.87,3.87,0,0,1,.052.635V73.4a3.891,3.891,0,0,1-3.88,3.88Z" fill="#685e68" fill-rule="evenodd"/>
      <path id="Trazado_156954" data-name="Trazado 156954" d="M41.678,31.826l15.675,9.05a1.572,1.572,0,0,1,.8,1.394v18.1a1.572,1.572,0,0,1-.8,1.394l-15.675,9.05a1.572,1.572,0,0,1-1.61,0l-15.675-9.05a1.572,1.572,0,0,1-.8-1.394V42.27a1.572,1.572,0,0,1,.8-1.394l15.675-9.05a1.572,1.572,0,0,1,1.61,0Z" fill="#f2d1a5" fill-rule="evenodd"/>
      <path id="Trazado_156955" data-name="Trazado 156955" d="M57.948,41.462a1.6,1.6,0,0,1,.211.8V60.373a1.572,1.572,0,0,1-.8,1.391l-15.675,9.05a1.6,1.6,0,0,1-.8.222V51.32Z" fill="#e3a76f" fill-rule="evenodd"/>
      <path id="Trazado_156956" data-name="Trazado 156956" d="M41.678,31.826l15.675,9.05a1.6,1.6,0,0,1,.594.586L40.874,51.32,23.8,41.462a1.6,1.6,0,0,1,.594-.586l15.675-9.05a1.572,1.572,0,0,1,1.61,0Z" fill="#c48958" fill-rule="evenodd"/>
      <path id="Trazado_156957" data-name="Trazado 156957" d="M29.725,44.883l5.013,2.894L52.022,37.8,47.01,34.9Z" fill="#d1d1d6" fill-rule="evenodd"/>
      <path id="Trazado_156958" data-name="Trazado 156958" d="M34.134,55.288l-4.007-2.313a.786.786,0,0,1-.4-.7v-7.4l5.012,2.894v7.162a.4.4,0,0,1-.6.349Z" fill="#eceff1" fill-rule="evenodd"/>
      <path id="Trazado_156959" data-name="Trazado 156959" d="M12.625,1.588l2.3,6.056a.47.47,0,0,0,.425.308l6.47.316a.479.479,0,0,1,.277.852l-5.049,4.058a.47.47,0,0,0-.162.5l1.7,6.251a.479.479,0,0,1-.725.527l-5.42-3.548a.47.47,0,0,0-.525,0L6.5,20.454a.479.479,0,0,1-.725-.527l1.7-6.25a.47.47,0,0,0-.162-.5L2.259,9.119a.479.479,0,0,1,.277-.852l6.469-.316a.47.47,0,0,0,.425-.308l2.3-6.056a.479.479,0,0,1,.9,0Zm57.392,0,2.3,6.056a.47.47,0,0,0,.425.308l6.47.316a.479.479,0,0,1,.277.852l-5.049,4.058a.471.471,0,0,0-.162.5l1.7,6.251a.479.479,0,0,1-.725.527l-5.42-3.548a.47.47,0,0,0-.525,0l-5.42,3.547a.479.479,0,0,1-.724-.527l1.7-6.251a.47.47,0,0,0-.162-.5L59.651,9.119a.479.479,0,0,1,.277-.852l6.47-.316a.47.47,0,0,0,.424-.308l2.3-6.056a.479.479,0,0,1,.9,0Zm-28.7,0,2.3,6.056a.47.47,0,0,0,.424.308l6.47.316a.479.479,0,0,1,.277.852l-5.049,4.058a.471.471,0,0,0-.162.5l1.7,6.251a.479.479,0,0,1-.724.527l-5.42-3.548a.47.47,0,0,0-.525,0l-5.42,3.547a.479.479,0,0,1-.725-.527l1.7-6.251a.47.47,0,0,0-.162-.5L30.955,9.119a.479.479,0,0,1,.277-.852l6.47-.316a.47.47,0,0,0,.425-.308l2.3-6.056a.479.479,0,0,1,.9,0Z" fill="#ffe177" fill-rule="evenodd"/>
      <path id="Trazado_156960" data-name="Trazado 156960" d="M18.584,19.927l-1.7-6.251a.47.47,0,0,1,.162-.5L22.1,9.119a.479.479,0,0,0-.277-.852l-1.041-.051a.487.487,0,0,1,.056.118.471.471,0,0,1-.155.521L15.63,12.914a.47.47,0,0,0-.162.5l1.7,6.251a.474.474,0,0,1-.023.321l.716.468a.479.479,0,0,0,.725-.527ZM72.86,13.413l1.7,6.251a.475.475,0,0,1-.023.321l.716.468a.479.479,0,0,0,.725-.527l-1.7-6.25a.471.471,0,0,1,.162-.5l5.049-4.058a.479.479,0,0,0-.277-.852l-1.041-.051a.5.5,0,0,1,.056.118.472.472,0,0,1-.156.521l-5.049,4.058a.47.47,0,0,0-.162.5ZM47.281,19.927l-1.7-6.251a.471.471,0,0,1,.162-.5l5.049-4.058a.479.479,0,0,0-.277-.852l-1.041-.051a.493.493,0,0,1,.056.118.471.471,0,0,1-.156.521l-5.049,4.058a.471.471,0,0,0-.162.5l1.7,6.251a.475.475,0,0,1-.023.321l.716.468a.479.479,0,0,0,.724-.527Z" fill="#ffd064" fill-rule="evenodd"/>
      <path id="Trazado_156961" data-name="Trazado 156961" d="M79.194,76.594a2.6,2.6,0,0,1-2.6,2.6H5.157a2.6,2.6,0,0,1-2.6-2.6V55.2a2.6,2.6,0,0,1,2.6-2.6H22.313v8.7a1.275,1.275,0,0,0,.639,1.1l17.285,9.979a1.27,1.27,0,0,0,1.277,0L58.8,62.4a1.273,1.273,0,0,0,.639-1.1V52.6H76.595a2.6,2.6,0,0,1,2.6,2.6ZM40.875,32.836,44.456,34.9,29.727,43.409l-3.581-2.068Zm1.277,19.221V69.066l14.729-8.5V43.553Zm-8.691-3.541L31,47.1v4.91l2.457,1.418ZM34.739,46.3l14.73-8.5-2.457-1.419-14.73,8.5L34.739,46.3Zm6.136,3.543,14.73-8.5-3.582-2.068-14.729,8.5ZM24.868,43.553v17.01l14.729,8.5V52.057l-3.581-2.068v5.647A1.277,1.277,0,0,1,34.1,56.743l-5.012-2.895a1.271,1.271,0,0,1-.639-1.1V45.62l-3.581-2.068Zm51.726,6.491H59.436v-8.7a1.275,1.275,0,0,0-.639-1.106L41.514,30.255a1.277,1.277,0,0,0-1.277,0L22.953,40.235a1.277,1.277,0,0,0-.639,1.106v8.7H5.157A5.163,5.163,0,0,0,0,55.2V76.594a5.163,5.163,0,0,0,5.157,5.157H76.595a5.162,5.162,0,0,0,5.152-5.157V55.2a5.161,5.161,0,0,0-5.153-5.157ZM37.764,9.229A1.756,1.756,0,0,0,39.322,8.1l1.554-4.089L42.429,8.1a1.754,1.754,0,0,0,1.555,1.132l4.371.213-3.411,2.742a1.755,1.755,0,0,0-.594,1.83L45.5,18.234l-3.661-2.4a1.75,1.75,0,0,0-1.922,0l-3.661,2.4L37.4,14.011a1.754,1.754,0,0,0-.594-1.828L33.4,9.441Zm-7.608.886L34.8,13.847l-1.563,5.746a1.758,1.758,0,0,0,2.658,1.93l4.982-3.262,4.983,3.262a1.756,1.756,0,0,0,2.655-1.931l-1.561-5.746,4.641-3.731a1.756,1.756,0,0,0-1.015-3.123L44.631,6.7,42.516,1.135a1.755,1.755,0,0,0-3.283,0L37.12,6.7l-5.948.291a1.756,1.756,0,0,0-1.015,3.123Zm36.3-.886A1.756,1.756,0,0,0,68.019,8.1L69.57,4.008,71.124,8.1a1.759,1.759,0,0,0,1.553,1.132l4.369.213-3.4,2.742a1.763,1.763,0,0,0-.6,1.83l1.145,4.222-3.659-2.4a1.753,1.753,0,0,0-1.924,0l-3.661,2.4L66.1,14.011a1.752,1.752,0,0,0-.594-1.828l-3.41-2.742Zm-7.608.886,4.642,3.731-1.562,5.746a1.755,1.755,0,0,0,2.657,1.931l4.982-3.262,4.983,3.262a1.758,1.758,0,0,0,2.659-1.931l-1.567-5.746,4.64-3.731a1.755,1.755,0,0,0-1.009-3.123L73.326,6.7,71.216,1.135a1.758,1.758,0,0,0-3.287,0L65.815,6.7l-5.948.291a1.756,1.756,0,0,0-1.015,3.123ZM9.069,9.229A1.754,1.754,0,0,0,10.625,8.1l1.554-4.089L13.731,8.1a1.756,1.756,0,0,0,1.557,1.132l4.37.213-3.41,2.741a1.756,1.756,0,0,0-.594,1.83L16.8,18.234l-3.661-2.4a1.752,1.752,0,0,0-1.924,0l-3.66,2.4,1.148-4.223a1.756,1.756,0,0,0-.6-1.828L4.7,9.441Zm-7.608.886L6.1,13.846,4.54,19.593A1.755,1.755,0,0,0,7.2,21.523l4.983-3.262,4.982,3.262a1.756,1.756,0,0,0,2.658-1.931l-1.562-5.746L22.9,10.115a1.756,1.756,0,0,0-1.015-3.123L15.935,6.7,13.821,1.135a1.756,1.756,0,0,0-3.284,0L8.424,6.7l-5.949.291a1.756,1.756,0,0,0-1.014,3.123Z" fill-rule="evenodd"/>
    </g>
  </g>
</svg>
