<svg xmlns="http://www.w3.org/2000/svg" width="81.763" height="81.75" viewBox="0 0 81.763 81.75">
  <g id="lanzar" transform="translate(-2.724 -2.716)">
    <path id="Trazado_157003" data-name="Trazado 157003" d="M16.673,55.85l-2.929-2.724H4.087V65.89L8.95,68.614l3.215,2.724L33.5,83.094l19.629-5.013L52.5,75.847a3.106,3.106,0,0,0-3.773-2.084L34.436,77.414,20.814,70.453a2.6,2.6,0,0,1-1.049-3.705,2.874,2.874,0,0,1,3.828-.981l9.1,5.067a3.337,3.337,0,0,0,4.958-3.6A3.978,3.978,0,0,0,35.69,64.8l-10.9-6.035L20.869,56.6Z" fill="#f2e6c7"/>
    <path id="Trazado_157004" data-name="Trazado 157004" d="M53.126,78.081,33.5,83.094,12.164,71.339,8.95,68.614,4.087,65.89V53.126H5.449V61.8l4.863,2.724,3.215,2.724L34.859,79.008l16.973-4.332a2.724,2.724,0,0,1,.667,1.171Z" fill="#efd59a"/>
    <path id="Trazado_157005" data-name="Trazado 157005" d="M49.039,17.709l8.173,8.173-5.449,5.449L43.59,23.157l-8.173,8.173-5.449-5.449,8.173-8.173L29.968,9.535l5.449-5.449L43.59,12.26l8.173-8.173,5.449,5.449Z" fill="#ea4450"/>
    <path id="Trazado_157006" data-name="Trazado 157006" d="M57.212,25.882l-5.449,5.449L43.59,23.157l-8.173,8.173-5.449-5.449,8.173-8.173L29.968,9.535l5.449-5.449.817.817A24.52,24.52,0,0,0,53.671,22.34Z" fill="#ce293d"/>
    <path id="Trazado_157007" data-name="Trazado 157007" d="M78.327,66.748,50.4,61.626l4.768-24.847L83.094,41.9Z" fill="#f9d53d"/>
    <path id="Trazado_157008" data-name="Trazado 157008" d="M79.662,59.787l-1.335,6.961L50.4,61.626l4.768-24.847,8.173,1.5-2.4,12.505a5.449,5.449,0,0,0,4.441,6.43Z" fill="#f7b43e"/>
    <path id="Trazado_157009" data-name="Trazado 157009" d="M69.132,39.34l-3.814-.695L63.887,46.1l4.291-1.784L71.5,47.5l1.444-7.465Z" fill="#fbb03b"/>
    <path id="Trazado_157010" data-name="Trazado 157010" d="M64.051,58.983l-7.615-1.4.954-4.958L65,54.011Z" fill="#f2e6c7"/>
    <path id="Trazado_157011" data-name="Trazado 157011" d="M64.446,56.913l-.422,2.071-7.615-1.362.954-4.958,3.705.681a5.449,5.449,0,0,0,3.378,3.569Z" fill="#efd59a"/>
    <path id="Trazado_157012" data-name="Trazado 157012" d="M53.807,75.48a4.454,4.454,0,0,0-5.449-3.038L34.6,75.97,21.441,69.254a1.362,1.362,0,0,1-.654-.79,1.212,1.212,0,0,1,.15-.967,1.567,1.567,0,0,1,2-.49l9.045,4.986a4.849,4.849,0,0,0,5.353-.436,4.441,4.441,0,0,0,1.553-4.809,5.34,5.34,0,0,0-2.615-3.283L21.4,55.292a1.362,1.362,0,0,0-.422-.15L17.3,54.488l-2.629-2.411a1.362,1.362,0,0,0-.926-.354H4.087a1.362,1.362,0,0,0-1.362,1.362V65.849a1.362,1.362,0,0,0,.708,1.2L8.173,69.7l3.106,2.724.232.163,2.724,1.458a1.379,1.379,0,1,0,1.362-2.4L13.064,70.29,9.958,67.565,9.726,67.4,5.449,65.086v-10.6h7.765l2.534,2.329a1.512,1.512,0,0,0,.695.341l3.855.654L34.968,65.9a2.724,2.724,0,0,1,1.362,1.662,1.73,1.73,0,0,1-.681,1.907,2.111,2.111,0,0,1-2.357.177l-9.031-4.972a4.087,4.087,0,0,0-2.057-.531,4.209,4.209,0,0,0-3.61,2,3.95,3.95,0,0,0-.436,3.079,4.087,4.087,0,0,0,2.016,2.493L33.8,78.681a1.362,1.362,0,0,0,.954.109l14.289-3.705a1.771,1.771,0,0,1,2.125,1.131l.245.885L33.7,81.637l-13.445-7.41a1.379,1.379,0,1,0-1.362,2.4L32.8,84.293a1.362,1.362,0,0,0,.654.163,1.457,1.457,0,0,0,.341,0l19.629-5.013a1.349,1.349,0,0,0,.967-1.689Z"/>
    <path id="Trazado_157013" data-name="Trazado 157013" d="M29,26.849,34.45,32.3a1.362,1.362,0,0,0,1.934,0l7.206-7.22L50.8,32.3a1.362,1.362,0,0,0,1.934,0l5.449-5.449a1.362,1.362,0,0,0,0-1.934l-7.22-7.206L58.18,10.5a1.362,1.362,0,0,0,0-1.934L52.731,3.119a1.362,1.362,0,0,0-1.934,0l-7.206,7.22-7.206-7.22a1.362,1.362,0,0,0-1.934,0L29,8.568A1.362,1.362,0,0,0,29,10.5l7.22,7.206L29,24.915a1.362,1.362,0,0,0,0,1.934Zm10.108-8.173a1.362,1.362,0,0,0,0-1.934l-7.22-7.206,3.528-3.528,7.206,7.22a1.362,1.362,0,0,0,1.934,0l7.206-7.22,3.528,3.528-7.22,7.206a1.362,1.362,0,0,0,0,1.934l7.22,7.206L51.764,29.41l-7.206-7.22a1.362,1.362,0,0,0-1.934,0l-7.206,7.22-3.528-3.528Z"/>
    <path id="Trazado_157014" data-name="Trazado 157014" d="M84.225,41.138a1.362,1.362,0,0,0-.885-.572L71.5,38.387l-2.125-.381-3.814-.695L55.414,35.417a1.362,1.362,0,0,0-1.58,1.076L49.039,61.367a1.346,1.346,0,0,0,1.09,1.594L78.081,68.11h.245a1.362,1.362,0,0,0,1.362-1.1l4.768-24.778a1.362,1.362,0,0,0-.232-1.09Zm-17.818-.913,4.931.913-.695,3.651-1.526-1.458a1.362,1.362,0,0,0-.94-.381,1.144,1.144,0,0,0-.518.109l-1.948.8ZM77.3,65.168,52,60.523l4.25-22.163,7.478,1.362-1.171,6.1a1.354,1.354,0,0,0,1.839,1.553l3.46-1.444,2.724,2.575a1.324,1.324,0,0,0,2.288-.667l1.171-6.116,7.478,1.362Z"/>
    <path id="Trazado_157015" data-name="Trazado 157015" d="M65.249,52.676l-7.615-1.362a1.362,1.362,0,0,0-1.58,1.09L55.1,57.362a1.351,1.351,0,0,0,1.09,1.607l7.615,1.362h.245a1.362,1.362,0,0,0,1.362-1.1l.954-4.972a1.362,1.362,0,0,0-1.09-1.594ZM62.961,57.4l-4.931-.913.436-2.288,4.945.9Z"/>
    <path id="Trazado_157016" data-name="Trazado 157016" d="M70.33,53.6a1.384,1.384,0,0,0-.49,2.724l5.081.885a.79.79,0,0,0,.245,0,1.368,1.368,0,1,0,.245-2.724Z"/>
    <path id="Trazado_157017" data-name="Trazado 157017" d="M74.444,59.515l-5.067-.94a1.384,1.384,0,0,0-.49,2.724l5.067.926h.259a1.364,1.364,0,0,0,.232-2.711Z"/>
    <path id="Trazado_157018" data-name="Trazado 157018" d="M46.315,42.228a1.362,1.362,0,0,0-1.362-1.362A13.622,13.622,0,0,0,31.331,54.488a1.362,1.362,0,0,0,2.724,0,10.9,10.9,0,0,1,10.9-10.9A1.362,1.362,0,0,0,46.315,42.228Z"/>
    <path id="Trazado_157019" data-name="Trazado 157019" d="M39.5,57.212a1.362,1.362,0,0,0,1.362-1.362A5.449,5.449,0,0,1,46.315,50.4a1.362,1.362,0,0,0,0-2.724,8.173,8.173,0,0,0-8.173,8.173A1.362,1.362,0,0,0,39.5,57.212Z"/>
  </g>
</svg>
