<svg xmlns="http://www.w3.org/2000/svg" width="190" height="171" viewBox="0 0 190 171">
  <g id="Grupo_108938" data-name="Grupo 108938" transform="translate(-180 -9971.757)">
    <rect id="Rect치ngulo_36277" data-name="Rect치ngulo 36277" width="190" height="171" transform="translate(180 9971.757)" fill="#ff6d60"/>
    <g id="Fill_out_line" data-name="Fill out line" transform="translate(215.233 9996.99)">
      <path id="Trazado_157347" data-name="Trazado 157347" d="M94.167,69.683a33.864,33.864,0,0,1-33.9,33.9,34.319,34.319,0,0,1-3.769-.207A33.9,33.9,0,1,1,94.167,69.683Z" fill="#8fd1ec"/>
      <path id="Trazado_157348" data-name="Trazado 157348" d="M67.92,90.659l-5.77,3.508v3.767H56.5v5.443a33.907,33.907,0,0,1-9.417-64.933V48.967H50.85l3.767,3.767-7.533,7.533H43.317v5.65l5.65,5.65,1.883-1.883,7.533,3.767,1.883,5.65L67.8,80.983Z" fill="#59b55d"/>
      <path id="Trazado_157349" data-name="Trazado 157349" d="M94.167,69.683a33.882,33.882,0,0,1-1.909,11.246L88.517,73.45l-7.533,1.883-7.533-5.65L79.1,56.5l-5.65-7.533,4.2-8.393A33.877,33.877,0,0,1,94.167,69.683Z" fill="#59b55d"/>
      <path id="Trazado_157350" data-name="Trazado 157350" d="M45.2,15.067H75.333V39.55H45.2Z" fill="#e94042"/>
      <path id="Trazado_157351" data-name="Trazado 157351" d="M67.8,15.067h7.533V39.55H67.8Z" fill="#d6393b"/>
      <circle id="Elipse_4933" data-name="Elipse 4933" cx="20.717" cy="20.717" r="20.717" transform="translate(5.65 67.8)" fill="#f3e19f"/>
      <path id="Trazado_157352" data-name="Trazado 157352" d="M16.95,82.867h1.883v11.3H16.95a5.65,5.65,0,1,1,0-11.3Z" fill="#e94042"/>
      <path id="Trazado_157353" data-name="Trazado 157353" d="M18.833,94.167A18.661,18.661,0,0,1,29.184,97.3l.949.633V79.1l-.949.633a18.661,18.661,0,0,1-10.351,3.134Z" fill="#c9d9e5"/>
      <rect id="Rect치ngulo_36559" data-name="Rect치ngulo 36559" width="5.65" height="26.367" rx="2.825" transform="translate(30.133 75.333)" fill="#e94042"/>
      <path id="Trazado_157354" data-name="Trazado 157354" d="M35.783,84.75h1.883a3.767,3.767,0,1,1,0,7.533H35.783Z" fill="#d6393b"/>
      <circle id="Elipse_4934" data-name="Elipse 4934" cx="20.717" cy="20.717" r="20.717" transform="translate(73.45 69.683)" fill="#f3e19f"/>
      <path id="Trazado_157355" data-name="Trazado 157355" d="M92.283,88.517V84.75L90.4,80.983l1.883-3.767h7.533v11.3Z" fill="#f7c699"/>
      <path id="Trazado_157356" data-name="Trazado 157356" d="M100.57,88.14a7.533,7.533,0,0,1,3.013,6.027V101.7H88.517V94.167A7.533,7.533,0,0,1,100.57,88.14Z" fill="#e94042"/>
      <path id="Trazado_157357" data-name="Trazado 157357" d="M29.043,62.567A32.086,32.086,0,0,1,40.7,44.338l-2.3-2.98A35.861,35.861,0,0,0,25.37,61.733Z"/>
      <path id="Trazado_157358" data-name="Trazado 157358" d="M91.841,64.345l3.715-.623a35.663,35.663,0,0,0-13.42-22.364l-2.3,2.98A31.908,31.908,0,0,1,91.84,64.345Z"/>
      <path id="Trazado_157359" data-name="Trazado 157359" d="M60.267,113a43.148,43.148,0,0,1-13.892-2.278l2.041-2.04-2.663-2.664-3.767,3.767a1.884,1.884,0,0,0-.552,1.332v5.65H45.2V114.3a47.242,47.242,0,0,0,33.914-1.459L77.6,109.391A43.006,43.006,0,0,1,60.267,113Z"/>
      <path id="Trazado_157360" data-name="Trazado 157360" d="M45.2,41.433H75.333a1.883,1.883,0,0,0,1.883-1.883V15.067a1.883,1.883,0,0,0-1.883-1.883H71.567V11.3a7.531,7.531,0,0,0-11.3-6.521A7.46,7.46,0,0,0,56.5,3.767,7.542,7.542,0,0,0,48.967,11.3v1.883H45.2a1.883,1.883,0,0,0-1.883,1.883V39.55A1.883,1.883,0,0,0,45.2,41.433ZM69.683,16.95H73.45V37.667H69.683Zm-5.65-9.417A3.772,3.772,0,0,1,67.8,11.3v1.883H64.033V11.3a7.486,7.486,0,0,0-.944-3.647,3.733,3.733,0,0,1,.944-.12ZM52.733,11.3a3.767,3.767,0,0,1,7.533,0v1.883H52.733Zm-5.65,5.65H65.917V37.667H47.083Z"/>
      <path id="Trazado_157361" data-name="Trazado 157361" d="M47.635,72.9a1.884,1.884,0,0,0,2.663,0l.924-.924,5.621,2.811L58.48,79.7a1.883,1.883,0,0,0,1.33,1.231l6.107,1.527v6.938L61.105,92.6a1.883,1.883,0,0,0-.839,1.567V96.05H56.5a1.883,1.883,0,0,0-1.883,1.883V101.2a31.76,31.76,0,0,1-5.022-1.324l-1.255,3.551a35.948,35.948,0,0,0,23.718.049l-1.241-3.557A31.948,31.948,0,0,1,60.267,101.7q-.945,0-1.883-.056V99.817H62.15a1.883,1.883,0,0,0,1.883-1.883V95.174l4.811-3.208a1.883,1.883,0,0,0,.839-1.567V80.983a1.883,1.883,0,0,0-1.427-1.827l-6.53-1.633L60.17,72.854a1.883,1.883,0,0,0-.944-1.089L51.692,68a1.884,1.884,0,0,0-2.174.353l-.552.552L45.2,65.137V62.15h1.883a1.883,1.883,0,0,0,1.332-.552l7.533-7.533a1.883,1.883,0,0,0,0-2.664l-3.767-3.767a1.883,1.883,0,0,0-1.332-.552H48.967V45.2H45.2v3.767a1.883,1.883,0,0,0,1.883,1.883H50.07l1.883,1.883-5.65,5.65H43.317a1.883,1.883,0,0,0-1.883,1.883v5.65a1.884,1.884,0,0,0,.552,1.332Z"/>
      <path id="Trazado_157362" data-name="Trazado 157362" d="M80.607,55.37l-4.951-6.6,1.363-2.725-3.369-1.685-1.883,3.766a1.883,1.883,0,0,0,.178,1.972l5,6.662L71.719,68.941a1.883,1.883,0,0,0,.6,2.249l2.511,1.883,2.26-3.014-1.327-1,5.067-11.823a1.883,1.883,0,0,0-.224-1.872Z"/>
      <path id="Trazado_157363" data-name="Trazado 157363" d="M48.967,88.517a22.6,22.6,0,1,0-22.6,22.6,22.6,22.6,0,0,0,22.6-22.6Zm-22.6,18.833A18.833,18.833,0,1,1,45.2,88.517,18.833,18.833,0,0,1,26.367,107.35Z"/>
      <path id="Trazado_157364" data-name="Trazado 157364" d="M37.667,82.867V78.158a4.707,4.707,0,1,0-9.414-.068l-.113.075a16.719,16.719,0,0,1-9.306,2.818H16.95a7.533,7.533,0,1,0,0,15.067v5.65h3.767V96.156a16.707,16.707,0,0,1,7.423,2.712l.113.075a4.707,4.707,0,1,0,9.414-.068V94.167a5.65,5.65,0,1,0,0-11.3ZM16.95,92.283a3.767,3.767,0,1,1,0-7.533Zm11.3,2.284a20.486,20.486,0,0,0-7.533-2.2v-7.7a20.486,20.486,0,0,0,7.533-2.2Zm5.65,4.308a.942.942,0,0,1-1.883,0V78.158a.942.942,0,0,1,1.883,0ZM37.667,90.4V86.633a1.883,1.883,0,0,1,0,3.767Z"/>
      <path id="Trazado_157365" data-name="Trazado 157365" d="M94.167,67.8a22.6,22.6,0,1,0,22.6,22.6A22.6,22.6,0,0,0,94.167,67.8Zm0,41.433A18.833,18.833,0,1,1,113,90.4a18.833,18.833,0,0,1-18.833,18.833Z"/>
      <path id="Trazado_157366" data-name="Trazado 157366" d="M101.7,86.633V77.217a1.883,1.883,0,0,0-1.883-1.883H86.633V79.1h2.6l-.52,1.041a1.9,1.9,0,0,0,0,1.686L90.4,85.195v1.438a9.461,9.461,0,0,0-3.767,7.533V101.7a1.883,1.883,0,0,0,1.883,1.883h15.067a1.883,1.883,0,0,0,1.883-1.883V94.167A9.455,9.455,0,0,0,101.7,86.633ZM93.449,79.1h4.485v5.85a9.481,9.481,0,0,0-3.767,0v-.2a1.9,1.9,0,0,0-.2-.843L92.5,80.983ZM101.7,99.817H96.05v-5.65H92.283v5.65H90.4v-5.65a5.65,5.65,0,0,1,11.3,0Z"/>
      <path id="Trazado_157367" data-name="Trazado 157367" d="M108.575,59.19l-2.135,1.233A47.24,47.24,0,0,0,88.22,31.782l-2.234,3.032a43.476,43.476,0,0,1,16.768,26.381l-2.788-.747-.975,3.638,5.145,1.379a1.883,1.883,0,0,0,1.429-.188l4.893-2.825Z"/>
      <path id="Trazado_157368" data-name="Trazado 157368" d="M33.8,32.657l-4.893-2.825-1.883,3.262,2.135,1.233a47.24,47.24,0,0,0-15.694,30.1l3.743.418A43.475,43.475,0,0,1,31.672,37.133l.747,2.787,3.638-.975L34.679,33.8a1.883,1.883,0,0,0-.878-1.144Z"/>
    </g>
  </g>
</svg>
