<svg xmlns="http://www.w3.org/2000/svg" width="610" height="371.499" viewBox="0 0 610 371.499">
  <g id="Grupo_103391" data-name="Grupo 103391" transform="translate(-495 -8014)">
    <g id="Grupo_108936" data-name="Grupo 108936">
      <path id="Polígono_16" data-name="Polígono 16" d="M229.5,0,459,341H0Z" transform="translate(561 8024)" fill="#fff6e6"/>
      <rect id="Rectángulo_36256" data-name="Rectángulo 36256" width="190" height="62" rx="10" transform="translate(705 8014)" fill="#ffc967"/>
      <rect id="Rectángulo_36257" data-name="Rectángulo 36257" width="190" height="62" rx="10" transform="translate(495 8323)" fill="#ffa648"/>
      <rect id="Rectángulo_36258" data-name="Rectángulo 36258" width="190" height="62" rx="10" transform="translate(915 8323)" fill="#ff6d60"/>
      <path id="Trazado_157648" data-name="Trazado 157648" d="M8.9-5.432H4.052v3.059h5.73V0H.967V-12.8H9.8v2.382H4.052v2.7H8.9ZM13.7-9.51l.1,1.116a3.27,3.27,0,0,1,2.716-1.292,2.407,2.407,0,0,1,2.435,1.433,3.165,3.165,0,0,1,2.795-1.433q2.892,0,2.971,3.5V0H21.744V-6A1.813,1.813,0,0,0,21.5-7.066a1.048,1.048,0,0,0-.9-.334,1.4,1.4,0,0,0-1.31.782L19.3-6.5V0H16.33V-5.985a1.906,1.906,0,0,0-.237-1.081,1.045,1.045,0,0,0-.905-.334,1.42,1.42,0,0,0-1.3.782V0H10.925V-9.51ZM35.235-4.685a5.735,5.735,0,0,1-1,3.538A3.2,3.2,0,0,1,31.544.176a2.742,2.742,0,0,1-2.153-.958V3.656H26.429V-9.51H29.2l.088.879a2.742,2.742,0,0,1,2.241-1.055,3.224,3.224,0,0,1,2.733,1.3,5.805,5.805,0,0,1,.976,3.564Zm-2.962-.185Q32.273-7.4,30.8-7.4a1.394,1.394,0,0,0-1.406.756V-2.9a1.439,1.439,0,0,0,1.424.791q1.415,0,1.459-2.443ZM39.665,0H36.694V-13.5h2.971ZM46.09.176a4.889,4.889,0,0,1-3.542-1.305,4.507,4.507,0,0,1-1.354-3.4v-.246a5.84,5.84,0,0,1,.541-2.575,3.955,3.955,0,0,1,1.578-1.727,4.763,4.763,0,0,1,2.461-.611,4.117,4.117,0,0,1,3.164,1.244A4.887,4.887,0,0,1,50.1-4.975v1.151H44.209A2.135,2.135,0,0,0,44.9-2.566a2.066,2.066,0,0,0,1.389.457,2.662,2.662,0,0,0,2.2-.984l1.354,1.6A3.784,3.784,0,0,1,48.274-.277,5.3,5.3,0,0,1,46.09.176ZM45.756-7.4q-1.3,0-1.547,1.723H47.2v-.229a1.467,1.467,0,0,0-.36-1.1A1.434,1.434,0,0,0,45.756-7.4ZM56.646,0a3.344,3.344,0,0,1-.281-.853A2.754,2.754,0,0,1,54.079.176a3.374,3.374,0,0,1-2.285-.813,2.588,2.588,0,0,1-.94-2.043A2.66,2.66,0,0,1,52-5.019a5.821,5.821,0,0,1,3.322-.791h.914v-.5q0-1.316-1.134-1.316a.927.927,0,0,0-1.055,1.042H51.082a2.655,2.655,0,0,1,1.173-2.239,4.931,4.931,0,0,1,2.993-.86,4.323,4.323,0,0,1,2.874.888A3.086,3.086,0,0,1,59.2-6.363v4.21a4.311,4.311,0,0,0,.4,2V0ZM54.791-1.934a1.652,1.652,0,0,0,.918-.237,1.487,1.487,0,0,0,.523-.536V-4.228h-.861q-1.547,0-1.547,1.389a.848.848,0,0,0,.272.655A.986.986,0,0,0,54.791-1.934Zm5.678-2.892a5.809,5.809,0,0,1,.976-3.56,3.211,3.211,0,0,1,2.725-1.3,2.731,2.731,0,0,1,2.145,1V-13.5h2.971V0H66.621l-.149-1.02a2.8,2.8,0,0,1-2.32,1.2,3.205,3.205,0,0,1-2.689-1.3A5.993,5.993,0,0,1,60.469-4.825Zm2.962.185q0,2.531,1.477,2.531a1.458,1.458,0,0,0,1.406-.826V-6.557A1.419,1.419,0,0,0,64.925-7.4q-1.371,0-1.485,2.215Zm7.163-.2a5.613,5.613,0,0,1,.554-2.536,3.96,3.96,0,0,1,1.591-1.709,4.791,4.791,0,0,1,2.435-.6,4.373,4.373,0,0,1,3.366,1.323,5.076,5.076,0,0,1,1.23,3.6v.105a4.925,4.925,0,0,1-1.235,3.529A4.384,4.384,0,0,1,75.19.176,4.434,4.434,0,0,1,71.93-1.042a4.761,4.761,0,0,1-1.327-3.3Zm2.962.185a3.538,3.538,0,0,0,.413,1.934,1.376,1.376,0,0,0,1.222.615q1.582,0,1.617-2.435v-.3q0-2.558-1.635-2.558-1.485,0-1.608,2.206Zm12.5,1.986a.684.684,0,0,0-.4-.606,6.016,6.016,0,0,0-1.5-.475A6.853,6.853,0,0,1,82.327-4.4a3.062,3.062,0,0,1-1.1-.971,2.319,2.319,0,0,1-.378-1.31,2.628,2.628,0,0,1,1.081-2.158,4.453,4.453,0,0,1,2.83-.848,4.934,4.934,0,0,1,3.023.853,2.666,2.666,0,0,1,1.143,2.241H85.957q0-1.143-1.2-1.143a1.194,1.194,0,0,0-.782.259.8.8,0,0,0-.316.646.737.737,0,0,0,.387.642,3.654,3.654,0,0,0,1.235.4,10.671,10.671,0,0,1,1.49.378A2.706,2.706,0,0,1,88.91-2.76,2.491,2.491,0,0,1,87.754-.642a5.068,5.068,0,0,1-2.993.817,5.172,5.172,0,0,1-2.18-.439,3.645,3.645,0,0,1-1.494-1.2,2.707,2.707,0,0,1-.536-1.591H83.32a1.145,1.145,0,0,0,.439.962,1.808,1.808,0,0,0,1.081.3,1.422,1.422,0,0,0,.91-.246A.787.787,0,0,0,86.054-2.672Z" transform="translate(539 8360)" fill="#12263f"/>
      <path id="Trazado_157649" data-name="Trazado 157649" d="M11.32-4.333a4.673,4.673,0,0,1-.721,2.36A4.35,4.35,0,0,1,8.75-.387a6.3,6.3,0,0,1-2.72.563A5.025,5.025,0,0,1,2.057-1.468,6.786,6.786,0,0,1,.606-6.108v-.633a7.746,7.746,0,0,1,.655-3.292,4.961,4.961,0,0,1,1.885-2.18,5.26,5.26,0,0,1,2.848-.769,5.516,5.516,0,0,1,3.744,1.226,4.844,4.844,0,0,1,1.608,3.379H8.271a2.292,2.292,0,0,0-.589-1.679,2.422,2.422,0,0,0-1.687-.51A1.843,1.843,0,0,0,4.307-9.7a5.536,5.536,0,0,0-.562,2.751v.905A6.125,6.125,0,0,0,4.258-3.12a1.882,1.882,0,0,0,1.771.879,2.369,2.369,0,0,0,1.626-.5,2.126,2.126,0,0,0,.6-1.591ZM15.768,0H12.8V-13.5h2.971Zm4.948,0H17.745V-9.51h2.971ZM17.569-11.962A1.322,1.322,0,0,1,18.026-13a1.724,1.724,0,0,1,1.187-.4A1.724,1.724,0,0,1,20.4-13a1.322,1.322,0,0,1,.457,1.037,1.322,1.322,0,0,1-.457,1.037,1.724,1.724,0,0,1-1.187.4,1.724,1.724,0,0,1-1.187-.4A1.322,1.322,0,0,1,17.569-11.962ZM27.141.176A4.889,4.889,0,0,1,23.6-1.129a4.507,4.507,0,0,1-1.354-3.4v-.246a5.84,5.84,0,0,1,.541-2.575,3.955,3.955,0,0,1,1.578-1.727,4.763,4.763,0,0,1,2.461-.611,4.117,4.117,0,0,1,3.164,1.244,4.887,4.887,0,0,1,1.16,3.467v1.151H25.26a2.135,2.135,0,0,0,.694,1.257,2.066,2.066,0,0,0,1.389.457,2.662,2.662,0,0,0,2.2-.984l1.354,1.6A3.784,3.784,0,0,1,29.325-.277,5.3,5.3,0,0,1,27.141.176ZM26.807-7.4q-1.3,0-1.547,1.723h2.988v-.229a1.467,1.467,0,0,0-.36-1.1A1.434,1.434,0,0,0,26.807-7.4ZM35.06-9.51l.1,1.116a3.225,3.225,0,0,1,2.716-1.292,2.713,2.713,0,0,1,2.219.888,4.226,4.226,0,0,1,.76,2.672V0H37.881V-6a1.6,1.6,0,0,0-.29-1.059A1.342,1.342,0,0,0,36.536-7.4a1.413,1.413,0,0,0-1.292.686V0H32.282V-9.51ZM45.94-11.874V-9.51H47.5v2.057H45.94V-3.1a1.111,1.111,0,0,0,.193.747,1.037,1.037,0,0,0,.765.211,4.345,4.345,0,0,0,.738-.053V-.079a5.466,5.466,0,0,1-1.67.255,3.1,3.1,0,0,1-2.259-.721,2.954,2.954,0,0,1-.729-2.188v-4.72H41.766V-9.51h1.213v-2.364ZM53.271.176a4.889,4.889,0,0,1-3.542-1.305,4.507,4.507,0,0,1-1.354-3.4v-.246a5.84,5.84,0,0,1,.541-2.575,3.955,3.955,0,0,1,1.578-1.727,4.763,4.763,0,0,1,2.461-.611,4.117,4.117,0,0,1,3.164,1.244,4.887,4.887,0,0,1,1.16,3.467v1.151H51.39a2.135,2.135,0,0,0,.694,1.257,2.066,2.066,0,0,0,1.389.457,2.662,2.662,0,0,0,2.2-.984l1.354,1.6A3.784,3.784,0,0,1,55.455-.277,5.3,5.3,0,0,1,53.271.176ZM52.937-7.4q-1.3,0-1.547,1.723h2.988v-.229a1.467,1.467,0,0,0-.36-1.1A1.434,1.434,0,0,0,52.937-7.4ZM63.448-2.672a.684.684,0,0,0-.4-.606,6.016,6.016,0,0,0-1.5-.475A6.853,6.853,0,0,1,59.722-4.4a3.062,3.062,0,0,1-1.1-.971,2.319,2.319,0,0,1-.378-1.31,2.628,2.628,0,0,1,1.081-2.158,4.453,4.453,0,0,1,2.83-.848,4.934,4.934,0,0,1,3.023.853,2.666,2.666,0,0,1,1.143,2.241H63.352q0-1.143-1.2-1.143a1.194,1.194,0,0,0-.782.259.8.8,0,0,0-.316.646.737.737,0,0,0,.387.642,3.654,3.654,0,0,0,1.235.4,10.671,10.671,0,0,1,1.49.378A2.706,2.706,0,0,1,66.3-2.76,2.491,2.491,0,0,1,65.149-.642a5.068,5.068,0,0,1-2.993.817,5.172,5.172,0,0,1-2.18-.439,3.645,3.645,0,0,1-1.494-1.2,2.707,2.707,0,0,1-.536-1.591h2.769a1.145,1.145,0,0,0,.439.962,1.808,1.808,0,0,0,1.081.3,1.422,1.422,0,0,0,.91-.246A.787.787,0,0,0,63.448-2.672Z" transform="translate(977 8360)" fill="#12263f"/>
      <path id="Trazado_157647" data-name="Trazado 157647" d="M11.32-4.333a4.673,4.673,0,0,1-.721,2.36A4.35,4.35,0,0,1,8.75-.387a6.3,6.3,0,0,1-2.72.563A5.025,5.025,0,0,1,2.057-1.468,6.786,6.786,0,0,1,.606-6.108v-.633a7.746,7.746,0,0,1,.655-3.292,4.961,4.961,0,0,1,1.885-2.18,5.26,5.26,0,0,1,2.848-.769,5.516,5.516,0,0,1,3.744,1.226,4.844,4.844,0,0,1,1.608,3.379H8.271a2.292,2.292,0,0,0-.589-1.679,2.422,2.422,0,0,0-1.687-.51A1.843,1.843,0,0,0,4.307-9.7a5.536,5.536,0,0,0-.562,2.751v.905A6.125,6.125,0,0,0,4.258-3.12a1.882,1.882,0,0,0,1.771.879,2.369,2.369,0,0,0,1.626-.5,2.126,2.126,0,0,0,.6-1.591Zm.949-.51a5.613,5.613,0,0,1,.554-2.536,3.96,3.96,0,0,1,1.591-1.709,4.791,4.791,0,0,1,2.435-.6,4.373,4.373,0,0,1,3.366,1.323,5.076,5.076,0,0,1,1.23,3.6v.105A4.925,4.925,0,0,1,20.21-1.129,4.384,4.384,0,0,1,16.866.176a4.434,4.434,0,0,1-3.261-1.217,4.761,4.761,0,0,1-1.327-3.3Zm2.962.185a3.538,3.538,0,0,0,.413,1.934,1.376,1.376,0,0,0,1.222.615q1.582,0,1.617-2.435v-.3q0-2.558-1.635-2.558-1.485,0-1.608,2.206ZM25.55-9.51l.1,1.116a3.27,3.27,0,0,1,2.716-1.292A2.407,2.407,0,0,1,30.8-8.253a3.165,3.165,0,0,1,2.795-1.433q2.892,0,2.971,3.5V0H33.592V-6a1.813,1.813,0,0,0-.246-1.063,1.048,1.048,0,0,0-.9-.334,1.4,1.4,0,0,0-1.31.782l.009.123V0H28.178V-5.985a1.906,1.906,0,0,0-.237-1.081,1.045,1.045,0,0,0-.905-.334,1.42,1.42,0,0,0-1.3.782V0H22.772V-9.51ZM47.083-4.685a5.735,5.735,0,0,1-1,3.538A3.2,3.2,0,0,1,43.392.176a2.742,2.742,0,0,1-2.153-.958V3.656H38.276V-9.51h2.769l.088.879a2.742,2.742,0,0,1,2.241-1.055,3.224,3.224,0,0,1,2.733,1.3,5.805,5.805,0,0,1,.976,3.564Zm-2.962-.185q0-2.531-1.477-2.531a1.394,1.394,0,0,0-1.406.756V-2.9a1.439,1.439,0,0,0,1.424.791q1.415,0,1.459-2.443ZM53.745,0a3.344,3.344,0,0,1-.281-.853A2.754,2.754,0,0,1,51.179.176a3.374,3.374,0,0,1-2.285-.813,2.588,2.588,0,0,1-.94-2.043A2.66,2.66,0,0,1,49.1-5.019a5.821,5.821,0,0,1,3.322-.791h.914v-.5q0-1.316-1.134-1.316a.927.927,0,0,0-1.055,1.042H48.182a2.655,2.655,0,0,1,1.173-2.239,4.931,4.931,0,0,1,2.993-.86,4.323,4.323,0,0,1,2.874.888A3.086,3.086,0,0,1,56.3-6.363v4.21a4.311,4.311,0,0,0,.4,2V0ZM51.891-1.934a1.652,1.652,0,0,0,.918-.237,1.487,1.487,0,0,0,.523-.536V-4.228h-.861q-1.547,0-1.547,1.389a.848.848,0,0,0,.272.655A.986.986,0,0,0,51.891-1.934ZM60.662-9.51l.1,1.116a3.225,3.225,0,0,1,2.716-1.292,2.713,2.713,0,0,1,2.219.888,4.226,4.226,0,0,1,.76,2.672V0H63.483V-6a1.6,1.6,0,0,0-.29-1.059A1.342,1.342,0,0,0,62.139-7.4a1.413,1.413,0,0,0-1.292.686V0H57.885V-9.51Zm4.913-3.92a2.562,2.562,0,0,1-.584,1.7,1.813,1.813,0,0,1-1.446.7,2.852,2.852,0,0,1-1.292-.369,2.7,2.7,0,0,0-1.151-.369.66.66,0,0,0-.479.193.8.8,0,0,0-.2.6l-1.644-.088a2.576,2.576,0,0,1,.584-1.687,1.793,1.793,0,0,1,1.437-.712,2.967,2.967,0,0,1,1.151.325,7.07,7.07,0,0,0,.9.369,1.74,1.74,0,0,0,.4.044.671.671,0,0,0,.483-.2.807.807,0,0,0,.2-.6ZM71.323,0H68.344V-9.51h2.979ZM70.216-13.324h3.129L70.9-10.564l-2.417,0ZM78.583,0A3.344,3.344,0,0,1,78.3-.853,2.754,2.754,0,0,1,76.017.176a3.374,3.374,0,0,1-2.285-.813,2.588,2.588,0,0,1-.94-2.043,2.66,2.66,0,0,1,1.143-2.338,5.821,5.821,0,0,1,3.322-.791h.914v-.5q0-1.316-1.134-1.316a.927.927,0,0,0-1.055,1.042H73.02a2.655,2.655,0,0,1,1.173-2.239,4.931,4.931,0,0,1,2.993-.86A4.323,4.323,0,0,1,80.06-8.8a3.086,3.086,0,0,1,1.081,2.435v4.21a4.311,4.311,0,0,0,.4,2V0ZM76.729-1.934a1.652,1.652,0,0,0,.918-.237,1.487,1.487,0,0,0,.523-.536V-4.228h-.861q-1.547,0-1.547,1.389a.848.848,0,0,0,.272.655A.986.986,0,0,0,76.729-1.934Z" transform="translate(759 8051)" fill="#12263f"/>
      <path id="Unión_9" data-name="Unión 9" d="M-5085,11789h8v-71h-8l20.5-18,20.5,18h-7v71h7l-20.5,18Z" transform="translate(-1464.313 -4384.309) rotate(-34)" fill="#373660"/>
      <path id="Unión_11" data-name="Unión 11" d="M-5085,11789h8v-71h-8l20.5-18,20.5,18h-7v71h7l-20.5,18Z" transform="translate(-10953.5 3300.5) rotate(-90)" fill="#373660"/>
      <path id="Unión_10" data-name="Unión 10" d="M-5085,11789h8v-71h-8l20.5-18,20.5,18h-7v71h7l-20.5,18Z" transform="translate(11456.133 1279.755) rotate(34)" fill="#373660"/>
      <g id="agente-de-servicio-al-cliente" transform="translate(737 8194)">
        <g id="Grupo_108732" data-name="Grupo 108732">
          <g id="Grupo_108730" data-name="Grupo 108730">
            <path id="Trazado_157038" data-name="Trazado 157038" d="M6.19,1.582H43A4.608,4.608,0,0,1,47.608,6.19V36.6A4.608,4.608,0,0,1,43,41.212H33.97v6.822l-8.731-6.822H6.19A4.608,4.608,0,0,1,1.582,36.6V6.19A4.608,4.608,0,0,1,6.19,1.582Z" fill="#f4fbff"/>
          </g>
          <g id="Grupo_108731" data-name="Grupo 108731">
            <path id="Trazado_157039" data-name="Trazado 157039" d="M43.138,24.305a8.5,8.5,0,0,0-2.983,6.469v6.819a8.468,8.468,0,0,0,.809,3.619H43A4.608,4.608,0,0,0,47.608,36.6V6.19a4.644,4.644,0,0,0-.037-.556,21.2,21.2,0,0,0-4.433,12.994Z" fill="#dfeaef"/>
          </g>
        </g>
        <g id="Grupo_108748" data-name="Grupo 108748">
          <g id="Grupo_108733" data-name="Grupo 108733">
            <path id="Trazado_157040" data-name="Trazado 157040" d="M46.553,41.641H93.835V71.046H46.553Z" fill="#934d36"/>
          </g>
          <g id="Grupo_108734" data-name="Grupo 108734">
            <path id="Trazado_157041" data-name="Trazado 157041" d="M77.652,63.376l17.693,4.718a14.916,14.916,0,0,1,11.073,14.412v23.912H33.97V82.506A14.916,14.916,0,0,1,45.043,68.094l17.693-4.718Z" fill="#d3effb"/>
          </g>
          <g id="Grupo_108736" data-name="Grupo 108736">
            <g id="Grupo_108735" data-name="Grupo 108735">
              <path id="Trazado_157042" data-name="Trazado 157042" d="M70.194,71.473l3.828,7.895a2.953,2.953,0,0,0,5.419-.242l5.253-13.871-7.042-1.878Z" fill="#f4fbff"/>
            </g>
          </g>
          <g id="Grupo_108738" data-name="Grupo 108738">
            <g id="Grupo_108737" data-name="Grupo 108737">
              <path id="Trazado_157043" data-name="Trazado 157043" d="M70.194,71.473l-3.828,7.895a2.953,2.953,0,0,1-5.419-.242L55.694,65.254l7.042-1.878Z" fill="#f4fbff"/>
            </g>
          </g>
          <g id="Grupo_108739" data-name="Grupo 108739">
            <path id="Trazado_157044" data-name="Trazado 157044" d="M96.26,68.373a14.9,14.9,0,0,1,3.552,9.659v28.387h6.606V82.506A14.914,14.914,0,0,0,96.26,68.373Z" fill="#b1e4f9"/>
          </g>
          <g id="Grupo_108740" data-name="Grupo 108740">
            <path id="Trazado_157045" data-name="Trazado 157045" d="M62.736,64.015v-9.8H77.652v9.8a7.458,7.458,0,1,1-14.916,0Z" fill="#fcd0a3"/>
          </g>
          <g id="Grupo_108741" data-name="Grupo 108741">
            <path id="Trazado_157046" data-name="Trazado 157046" d="M62.736,59.064a21.306,21.306,0,0,0,14.916,0V54.213H62.737v4.851Z" fill="#ffb983"/>
          </g>
          <g id="Grupo_108742" data-name="Grupo 108742">
            <path id="Trazado_157047" data-name="Trazado 157047" d="M53.148,21.4V39.1a17.046,17.046,0,0,0,34.093,0V21.4Z" fill="#fcd0a3"/>
          </g>
          <g id="Grupo_108743" data-name="Grupo 108743">
            <path id="Trazado_157048" data-name="Trazado 157048" d="M87.241,39.1V21.4H83.192v22.16a16.962,16.962,0,0,1-2.6,9.052A17.014,17.014,0,0,0,87.241,39.1Z" fill="#ffb983"/>
          </g>
          <g id="Grupo_108744" data-name="Grupo 108744">
            <path id="Trazado_157049" data-name="Trazado 157049" d="M47.608,22.89A21.308,21.308,0,0,1,68.916,1.582H75.1a6.392,6.392,0,0,1,6.392,6.392h2.77A8.523,8.523,0,0,1,92.781,16.5V34.183h-5.54L81.487,23.1l-3.044,3.044a8.523,8.523,0,0,1-6.027,2.5H65.956A17.046,17.046,0,0,0,55,32.629l-1.854,1.554h-5.54V22.89Z" fill="#aa593d"/>
          </g>
          <g id="Grupo_108745" data-name="Grupo 108745">
            <path id="Trazado_157050" data-name="Trazado 157050" d="M86.353,8.235a8.485,8.485,0,0,1,.888,3.788V33.97l-.108,0,.108.209,5.54-.213V16.5a8.526,8.526,0,0,0-6.428-8.263Z" fill="#934d36"/>
          </g>
          <g id="Grupo_108746" data-name="Grupo 108746">
            <path id="Trazado_157051" data-name="Trazado 157051" d="M91.5,41.854H87.241V26.513H91.5a4.262,4.262,0,0,1,4.262,4.262v6.819A4.262,4.262,0,0,1,91.5,41.854Z" fill="#e28086"/>
          </g>
          <g id="Grupo_108747" data-name="Grupo 108747">
            <path id="Trazado_157052" data-name="Trazado 157052" d="M48.886,41.854h4.262V26.513H48.886a4.262,4.262,0,0,0-4.262,4.262v6.819a4.262,4.262,0,0,0,4.262,4.262Z" fill="#e28086"/>
          </g>
        </g>
        <g id="Grupo_108753" data-name="Grupo 108753">
          <g id="Grupo_108749" data-name="Grupo 108749">
            <path id="Trazado_157053" data-name="Trazado 157053" d="M50.591,97.895H1.582v-27.7a4.262,4.262,0,0,1,4.262-4.262H46.329a4.262,4.262,0,0,1,4.262,4.262Z" fill="#a0aab7"/>
          </g>
          <g id="Grupo_108750" data-name="Grupo 108750">
            <circle id="Elipse_4925" data-name="Elipse 4925" cx="4.262" cy="4.262" r="4.262" transform="translate(21.825 77.652)" fill="#f4fbff"/>
          </g>
          <g id="Grupo_108751" data-name="Grupo 108751">
            <path id="Trazado_157054" data-name="Trazado 157054" d="M1.582,97.895h53.27v4.262a4.262,4.262,0,0,1-4.262,4.262H5.844a4.262,4.262,0,0,1-4.262-4.262Z" fill="#808b95"/>
          </g>
          <g id="Grupo_108752" data-name="Grupo 108752">
            <path id="Trazado_157055" data-name="Trazado 157055" d="M50.591,97.895v4.262a4.262,4.262,0,0,1-4.262,4.262h4.262a4.262,4.262,0,0,0,4.262-4.262V97.895Z" fill="#5e6b75"/>
          </g>
        </g>
        <g id="Grupo_108755" data-name="Grupo 108755">
          <g id="Grupo_108754" data-name="Grupo 108754">
            <circle id="Elipse_4926" data-name="Elipse 4926" cx="12.785" cy="12.785" r="12.785" transform="translate(11.914 8.612)" fill="#f6e266"/>
          </g>
        </g>
        <g id="Grupo_108756" data-name="Grupo 108756">
          <path id="Trazado_157056" data-name="Trazado 157056" d="M106.418,87.667A1.582,1.582,0,0,0,108,86.085V82.506A16.517,16.517,0,0,0,95.753,66.565l-.336-.089V41.927a5.83,5.83,0,0,0,1.929-4.334V30.774a5.847,5.847,0,0,0-2.983-5.093V16.5A10.116,10.116,0,0,0,84.258,6.392H82.912A7.988,7.988,0,0,0,75.1,0H68.916A22.9,22.9,0,0,0,49.19,11.291v-5.1A6.2,6.2,0,0,0,43,0H16.084a1.582,1.582,0,1,0,0,3.164H43a3.031,3.031,0,0,1,3.027,3.027v19.49a5.847,5.847,0,0,0-2.983,5.093v6.819A5.818,5.818,0,0,0,43.4,39.6a3.1,3.1,0,0,1-.4.028H33.97a1.582,1.582,0,0,0-1.582,1.582V44.79l-6.176-4.826a1.583,1.583,0,0,0-.974-.335H6.191A3.029,3.029,0,0,1,3.164,36.6V6.191A3.031,3.031,0,0,1,6.191,3.164h2.5A1.582,1.582,0,0,0,8.694,0h-2.5A6.2,6.2,0,0,0,0,6.191V36.6a6.2,6.2,0,0,0,6.191,6.189h18.5L33,49.28a1.582,1.582,0,0,0,2.556-1.247V42.793H43a6.186,6.186,0,0,0,1.972-.323V64.35H5.844A5.85,5.85,0,0,0,0,70.194V81.682a1.582,1.582,0,1,0,3.164,0V70.194a2.682,2.682,0,0,1,2.68-2.68H46.329a2.682,2.682,0,0,1,2.68,2.68V96.313H3.164V89.068a1.582,1.582,0,0,0-3.164,0v13.088A5.85,5.85,0,0,0,5.844,108H106.418A1.582,1.582,0,0,0,108,106.418V93.475a1.582,1.582,0,0,0-3.164,0v11.36h-10.9V97.895a1.582,1.582,0,0,0-3.164,0v6.941H55.781a5.806,5.806,0,0,0,.653-2.68V97.895a1.582,1.582,0,0,0-1.582-1.582h-2.68V70.194a5.81,5.81,0,0,0-.45-2.246l3-.8,4.748,12.536a4.474,4.474,0,0,0,4.038,2.924c.072,0,.143,0,.215,0a4.469,4.469,0,0,0,4.069-2.557l2.4-4.959,2.4,4.958a4.468,4.468,0,0,0,4.069,2.557c.071,0,.143,0,.215,0a4.474,4.474,0,0,0,4.039-2.924L85.668,67.15l9.27,2.472a13.35,13.35,0,0,1,9.9,12.884v3.579a1.582,1.582,0,0,0,1.582,1.582ZM53.27,102.156a2.683,2.683,0,0,1-2.68,2.68H5.844a2.682,2.682,0,0,1-2.68-2.68v-2.68H53.27ZM92.254,65.632,79.234,62.16V55.387a18.767,18.767,0,0,0,6.207-5.593,3.717,3.717,0,0,0,3.382-3.7V43.436H91.5a5.847,5.847,0,0,0,.751-.05ZM70.194,69.891a5.882,5.882,0,0,1-5.876-5.876V56.782a18.64,18.64,0,0,0,11.751,0v7.233A5.882,5.882,0,0,1,70.194,69.891Zm-9.04-7.731-11.68,3.113a5.823,5.823,0,0,0-1.339-.636V43.386a5.885,5.885,0,0,0,.751.05h3.189a18.7,18.7,0,0,0,9.079,11.95ZM46.206,30.774a2.682,2.682,0,0,1,2.68-2.68h2.68V40.272h-2.68a2.682,2.682,0,0,1-2.68-2.68Zm34.872-5.025,4.58,8.82V39.1a15.367,15.367,0,0,1-1.971,7.543H72.932a3.164,3.164,0,1,0,0,3.164h8.405A15.453,15.453,0,0,1,54.73,39.1V34.921l1.288-1.08a15.489,15.489,0,0,1,9.938-3.616h6.461a10.04,10.04,0,0,0,7.146-2.96ZM91.5,28.095a2.682,2.682,0,0,1,2.68,2.68v6.819a2.682,2.682,0,0,1-2.68,2.68h-2.68V28.095Zm-.3-11.6v8.433H87.241a1.582,1.582,0,0,0-1.582,1.582V27.7L83.07,22.717V9.557h1.188A6.949,6.949,0,0,1,91.2,16.5ZM68.916,3.164H75.1a4.816,4.816,0,0,1,4.81,4.81V22.448l-2.58,2.58a6.9,6.9,0,0,1-4.909,2.033H65.956A18.66,18.66,0,0,0,54.73,30.827V26.513a1.582,1.582,0,0,0-1.582-1.582H49.19V22.89A19.748,19.748,0,0,1,68.916,3.164ZM64.943,78.677a1.371,1.371,0,0,1-2.516-.112L57.794,66.33l3.468-.924a9.065,9.065,0,0,0,6.561,7.331Zm13.019-.112a1.371,1.371,0,0,1-2.516.112l-2.88-5.94a9.065,9.065,0,0,0,6.561-7.331l3.468.925Z"/>
          <path id="Trazado_157057" data-name="Trazado 157057" d="M31.93,81.914a5.844,5.844,0,1,0-5.844,5.844A5.85,5.85,0,0,0,31.93,81.914Zm-8.523,0a2.68,2.68,0,1,1,2.68,2.68A2.682,2.682,0,0,1,23.407,81.914Z"/>
          <path id="Trazado_157058" data-name="Trazado 157058" d="M30.939,26.791A1.582,1.582,0,0,0,28.7,24.556a5.651,5.651,0,0,1-8,0,1.582,1.582,0,0,0-2.239,2.235,8.815,8.815,0,0,0,12.48,0Z"/>
          <path id="Trazado_157059" data-name="Trazado 157059" d="M39.066,21.4A14.367,14.367,0,1,0,24.7,35.764,14.383,14.383,0,0,0,39.066,21.4Zm-25.57,0A11.2,11.2,0,1,1,24.7,32.6,11.216,11.216,0,0,1,13.5,21.4Z"/>
          <circle id="Elipse_4927" data-name="Elipse 4927" cx="2.131" cy="2.131" r="2.131" transform="translate(17.665 16.07)"/>
          <circle id="Elipse_4928" data-name="Elipse 4928" cx="2.131" cy="2.131" r="2.131" transform="translate(27.471 16.07)"/>
        </g>
      </g>
    </g>
  </g>
</svg>
