<svg xmlns="http://www.w3.org/2000/svg" width="224" height="252.817" viewBox="0 0 224 252.817">
  <g id="Grupo_103487" data-name="Grupo 103487" transform="translate(-48.711 -23.886)">
    <g id="Background_Complete" data-name="Background Complete" transform="translate(102.833 23.886)">
      <path id="Trazado_152614" data-name="Trazado 152614" d="M176.47,23.886l2.658,4.861,4.861,2.658-4.861,2.658-2.658,4.861-2.658-4.861-4.861-2.658,4.861-2.658Z" transform="translate(-154.939 -23.886)" fill="#f5f5f5"/>
      <path id="Trazado_152615" data-name="Trazado 152615" d="M373.558,256.273l1.994,3.645,3.645,1.994-3.645,1.994-1.994,3.645-1.994-3.645-3.645-1.994,3.645-1.994Z" transform="translate(-241.161 -124.59)" fill="#ebebeb"/>
      <path id="Trazado_152616" data-name="Trazado 152616" d="M385.876,224.508l.9,1.645,1.645.9-1.645.9-.9,1.645-.9-1.645-1.645-.9,1.645-.9Z" transform="translate(-247.841 -110.825)" fill="#e0e0e0"/>
      <path id="Trazado_152617" data-name="Trazado 152617" d="M146.768,27.112l.9,1.645,1.645.9-1.645.9-.9,1.645-.9-1.645-1.645-.9,1.645-.9Z" transform="translate(-144.223 -25.284)" fill="#e0e0e0"/>
      <g id="Grupo_103392" data-name="Grupo 103392" transform="translate(137.46 212.836)">
        <path id="Trazado_152618" data-name="Trazado 152618" d="M399.176,402.01a3.122,3.122,0,0,0-6.157.183,3.122,3.122,0,0,0-6.158-.129,4.214,4.214,0,0,0,.756,3.041,12.545,12.545,0,0,0,2.2,2.327c1.121,1,2.157,1.935,3.277,2.932,1.112-1.007,2.057-1.954,3.169-2.961a12.487,12.487,0,0,0,2.181-2.346A4.214,4.214,0,0,0,399.176,402.01Z" transform="translate(-386.806 -399.49)" fill="#ebebeb"/>
      </g>
    </g>
    <g id="Device" transform="translate(111.98 46.734)">
      <g id="Grupo_103458" data-name="Grupo 103458">
        <g id="Grupo_103457" data-name="Grupo 103457">
          <g id="Grupo_103452" data-name="Grupo 103452">
            <g id="Grupo_103400" data-name="Grupo 103400">
              <g id="Grupo_103399" data-name="Grupo 103399">
                <g id="Grupo_103395" data-name="Grupo 103395">
                  <g id="Grupo_103394" data-name="Grupo 103394">
                    <g id="Grupo_103393" data-name="Grupo 103393">
                      <path id="Trazado_152619" data-name="Trazado 152619" d="M255.509,294.176l-78.134-.046a17.02,17.02,0,0,1-17.01-17.023L160.4,81.224a17.02,17.02,0,0,1,17.03-17.017l78.134.046a17.02,17.02,0,0,1,17.01,17.023l-.039,195.883A17.019,17.019,0,0,1,255.509,294.176Z" transform="translate(-160.365 -64.207)" fill="#263238"/>
                    </g>
                  </g>
                </g>
                <g id="Grupo_103398" data-name="Grupo 103398" transform="translate(5.177 6.929)">
                  <g id="Grupo_103397" data-name="Grupo 103397">
                    <g id="Grupo_103396" data-name="Grupo 103396">
                      <path id="Trazado_152620" data-name="Trazado 152620" d="M259.444,76.48l-15.149-.008a3.763,3.763,0,0,0-3.679,3.843v2.748a3.763,3.763,0,0,1-3.679,3.843l-29.529-.018a3.766,3.766,0,0,1-3.678-3.848V80.293a3.766,3.766,0,0,0-3.678-3.848l-5.328,0-13.259-.007a11.919,11.919,0,0,0-11.927,11.917l-.037,191.2a11.92,11.92,0,0,0,11.913,11.923l77.978.045A11.92,11.92,0,0,0,271.319,279.6l.037-191.2A11.92,11.92,0,0,0,259.444,76.48Z" transform="translate(-169.502 -76.435)" fill="#fff"/>
                    </g>
                  </g>
                </g>
              </g>
            </g>
            <g id="Grupo_103410" data-name="Grupo 103410" transform="translate(87.459 22.444)">
              <g id="Grupo_103403" data-name="Grupo 103403">
                <g id="Grupo_103402" data-name="Grupo 103402">
                  <g id="Grupo_103401" data-name="Grupo 103401">
                    <path id="Trazado_152621" data-name="Trazado 152621" d="M323.51,103.878c0,.051-1.969.109-4.4.129s-4.4-.005-4.4-.057,1.969-.109,4.4-.129S323.51,103.827,323.51,103.878Z" transform="translate(-314.709 -103.815)" fill="#263238"/>
                  </g>
                </g>
              </g>
              <g id="Grupo_103406" data-name="Grupo 103406" transform="translate(0.019 2.252)">
                <g id="Grupo_103405" data-name="Grupo 103405">
                  <g id="Grupo_103404" data-name="Grupo 103404">
                    <path id="Trazado_152622" data-name="Trazado 152622" d="M323.543,107.852c0,.051-1.97.109-4.4.129s-4.4-.006-4.4-.057,1.969-.109,4.4-.129S323.542,107.8,323.543,107.852Z" transform="translate(-314.742 -107.789)" fill="#263238"/>
                  </g>
                </g>
              </g>
              <g id="Grupo_103409" data-name="Grupo 103409" transform="translate(0.037 4.504)">
                <g id="Grupo_103408" data-name="Grupo 103408">
                  <g id="Grupo_103407" data-name="Grupo 103407">
                    <path id="Trazado_152623" data-name="Trazado 152623" d="M323.576,111.826c0,.052-1.97.109-4.4.129s-4.4-.005-4.4-.056,1.969-.109,4.4-.129S323.575,111.775,323.576,111.826Z" transform="translate(-314.775 -111.763)" fill="#263238"/>
                  </g>
                </g>
              </g>
            </g>
            <g id="Grupo_103413" data-name="Grupo 103413" transform="translate(13.286 19.923)">
              <g id="Grupo_103412" data-name="Grupo 103412">
                <g id="Grupo_103411" data-name="Grupo 103411">
                  <path id="Trazado_152624" data-name="Trazado 152624" d="M183.929,108.65a1.808,1.808,0,0,1,.231-.015l.641-.021,2.369-.057-.066.067q-.013-.788-.028-1.718c0-.319-.027-.62,0-.989a.911.911,0,0,1,.8-.73c.381-.007.717-.025,1.131-.006a.92.92,0,0,1,.777.915c.009.8.019,1.637.028,2.5l-.11-.108,2.987-.031-.113.116c-.011-1.2-.022-2.447-.033-3.722q0-.477-.008-.948a.965.965,0,0,0-.42-.706l-1.306-1.287-1.26-1.243-.611-.6c-.21-.2-.375-.411-.618-.461a.8.8,0,0,0-.686.131c-.181.153-.373.369-.556.547l-1.072,1.081c-.674.7-1.376,1.34-1.887,1.945a2.112,2.112,0,0,0-.15,1.115q0,.556,0,1.053-.006.968-.011,1.7c-.005.433-.009.791-.012,1.084a3.844,3.844,0,0,1-.015.391,2.843,2.843,0,0,1-.02-.359c-.008-.288-.018-.641-.03-1.068q-.016-.733-.039-1.709-.009-.507-.02-1.074,0-.286-.009-.587a1.243,1.243,0,0,1,.165-.626c.552-.677,1.212-1.277,1.891-2l1.064-1.09c.192-.188.348-.375.577-.571a1.015,1.015,0,0,1,.866-.171,1.613,1.613,0,0,1,.717.513l.613.6,1.264,1.239,1.308,1.285a2.49,2.49,0,0,1,.334.362.979.979,0,0,1,.156.5q0,.473.008.953c.01,1.275.019,2.519.028,3.723v.114h-.114l-2.988.019h-.109V108.6c0-.867-.009-1.7-.013-2.5a.721.721,0,0,0-.6-.725c-.344-.018-.749-.006-1.083,0a.733.733,0,0,0-.644.581c-.029.3-.007.651-.013.955q0,.928,0,1.718v.067h-.066l-2.408-.017-.627-.011A1.177,1.177,0,0,1,183.929,108.65Z" transform="translate(-183.811 -99.366)" fill="#263238"/>
                </g>
              </g>
            </g>
            <g id="Grupo_103432" data-name="Grupo 103432" transform="translate(11.395 171.668)">
              <g id="Grupo_103418" data-name="Grupo 103418" transform="translate(32.716 6.793)">
                <g id="Grupo_103417" data-name="Grupo 103417">
                  <g id="Grupo_103414" data-name="Grupo 103414">
                    <path id="Trazado_152625" data-name="Trazado 152625" d="M259.046,379.293a4.343,4.343,0,0,1-.819.058l-2.233.047c-1.885.027-4.49.043-7.366.043s-5.482-.016-7.366-.043l-2.233-.047a4.342,4.342,0,0,1-.819-.058,4.377,4.377,0,0,1,.819-.057l2.233-.047c1.885-.027,4.49-.043,7.366-.043s5.481.016,7.366.043l2.233.047A4.377,4.377,0,0,1,259.046,379.293Z" transform="translate(-238.211 -379.146)" fill="#455a64"/>
                  </g>
                  <g id="Grupo_103415" data-name="Grupo 103415" transform="translate(0 5.126)">
                    <path id="Trazado_152626" data-name="Trazado 152626" d="M291.794,388.339c0,.082-12,.147-26.79.147s-26.792-.066-26.792-.147,11.993-.147,26.792-.147S291.794,388.258,291.794,388.339Z" transform="translate(-238.211 -388.192)" fill="#455a64"/>
                  </g>
                  <g id="Grupo_103416" data-name="Grupo 103416" transform="translate(0 9.948)">
                    <path id="Trazado_152627" data-name="Trazado 152627" d="M275.049,396.849c0,.081-8.247.147-18.418.147s-18.42-.066-18.42-.147,8.245-.148,18.42-.148S275.049,396.767,275.049,396.849Z" transform="translate(-238.211 -396.701)" fill="#455a64"/>
                  </g>
                </g>
              </g>
              <g id="Grupo_103419" data-name="Grupo 103419" transform="translate(84.108 21.406)">
                <path id="Trazado_152628" data-name="Trazado 152628" d="M332.155,409.8l-1.665-1.67-1.585,1.581.007-4.78,3.25.005Zm-1.664-1.878.052.052,1.465,1.47.007-4.362-2.956,0-.007,4.278Z" transform="translate(-328.905 -404.934)" fill="#263238"/>
              </g>
              <g id="Grupo_103420" data-name="Grupo 103420" transform="translate(40.034 22.359)">
                <path id="Trazado_152629" data-name="Trazado 152629" d="M254.119,409.91l-.587-.262a1.609,1.609,0,1,1,.858-1.414,1.627,1.627,0,0,1-.406,1.088Zm-1.373-3.182a1.52,1.52,0,0,0,.024,3.04,1.568,1.568,0,0,0,.732-.231l.024-.014.434.194-.1-.426.02-.022a1.518,1.518,0,0,0-1.135-2.541Z" transform="translate(-251.126 -406.616)" fill="#263238"/>
              </g>
              <g id="Grupo_103421" data-name="Grupo 103421" transform="translate(44.869 22.582)">
                <path id="Trazado_152630" data-name="Trazado 152630" d="M261.593,409.829l-.674-1.643-1.262-1.151,3.063-.024Zm-1.65-2.684,1.076.987.573,1.4.962-2.408Z" transform="translate(-259.657 -407.01)" fill="#263238"/>
              </g>
              <g id="Grupo_103422" data-name="Grupo 103422" transform="translate(46.2 22.582)">
                <rect id="Rectángulo_36268" data-name="Rectángulo 36268" width="1.992" height="0.112" transform="translate(0 1.087) rotate(-33.054)" fill="#263238"/>
              </g>
              <g id="Grupo_103423" data-name="Grupo 103423" transform="translate(34.456 22.189)">
                <path id="Trazado_152631" data-name="Trazado 152631" d="M245.034,407.077a2.1,2.1,0,0,1-2.783-.746.979.979,0,0,0-.954.776,1.278,1.278,0,0,0,.233.922,3.8,3.8,0,0,0,.67.7c.341.3.657.585,1,.886.336-.307.622-.595.958-.9a3.767,3.767,0,0,0,.66-.714A1.282,1.282,0,0,0,245.034,407.077Z" transform="translate(-241.281 -406.316)" fill="#e8505b"/>
              </g>
              <g id="Grupo_103424" data-name="Grupo 103424" transform="translate(0 0)">
                <path id="Trazado_152632" data-name="Trazado 152632" d="M271.245,397.661s-.007-.184-.01-.533-.006-.872-.01-1.55c-.006-1.367-.014-3.378-.024-5.983-.012-5.208-.031-12.785-.053-22.289l.1.1-90.617.05h-.006l.148-.148c0,10.549,0,20.783-.005,30.356l-.143-.143,64.844.066,18.929.04,5.08.019,1.316.009c.3,0,.453.009.453.009s-.144.006-.435.009l-1.3.009-5.049.018-18.9.04-64.942.066h-.143v-.143c0-9.573,0-19.806,0-30.356v-.147h.153l90.617.05h.1v.1c-.023,9.529-.041,17.126-.053,22.348-.01,2.6-.018,4.6-.024,5.961q-.007,1.006-.01,1.533C271.251,397.49,271.245,397.661,271.245,397.661Z" transform="translate(-180.475 -367.158)" fill="#263238"/>
              </g>
              <g id="Grupo_103431" data-name="Grupo 103431" transform="translate(3.652 5.086)">
                <g id="Grupo_103428" data-name="Grupo 103428">
                  <g id="Grupo_103427" data-name="Grupo 103427">
                    <g id="Grupo_103426" data-name="Grupo 103426">
                      <rect id="Rectángulo_36269" data-name="Rectángulo 36269" width="20.069" height="25.102" transform="matrix(0.006, -1, 1, 0.006, 0.15, 20.202)" fill="#ebebeb"/>
                      <g id="Grupo_103425" data-name="Grupo 103425">
                        <path id="Trazado_152633" data-name="Trazado 152633" d="M212.286,376.41a.987.987,0,0,1-.126.007l-.356.006-1.37.008-5.147.006-18.1-.037.133-.131c-.029,5.975-.063,12.822-.1,20.067.031.035-.275-.279-.142-.147h.428l.435,0,.865.005,1.718.01,3.382.02,6.513.042,11.756.085-.124.122c.061-6.026.111-11.025.146-14.535.024-1.745.042-3.119.055-4.074q.013-.692.02-1.079c.006-.245.016-.379.016-.379s.008.116.011.352q0,.38.008,1.056c0,.948.005,2.314.009,4.047-.005,3.529-.012,8.555-.02,14.613v.122h-.124l-11.756-.049-6.513-.032-3.382-.018-1.718-.01-.865,0-.435,0-.217,0h-.211c.129.133-.184-.18-.151-.15.047-7.245.091-14.092.13-20.066v-.133h.132l18.189.169,5.117.064,1.344.023.341.01A.487.487,0,0,1,212.286,376.41Z" transform="translate(-186.92 -376.134)" fill="#263238"/>
                      </g>
                    </g>
                  </g>
                </g>
                <rect id="Rectángulo_36270" data-name="Rectángulo 36270" width="17.542" height="23.339" transform="matrix(0.006, -1, 1, 0.006, 1.023, 18.943)" fill="#e0e0e0"/>
                <path id="Trazado_152634" data-name="Trazado 152634" d="M188.725,401.261l8.213-10.857,5.011,6.851,3.446-3.627,6.669,7.767Z" transform="translate(-187.702 -382.318)" fill="#f5f5f5"/>
                <g id="Grupo_103430" data-name="Grupo 103430" transform="translate(12.762 4.943)">
                  <g id="Grupo_103429" data-name="Grupo 103429">
                    <path id="Trazado_152635" data-name="Trazado 152635" d="M213.116,386.7a1.838,1.838,0,1,1-1.827-1.848A1.839,1.839,0,0,1,213.116,386.7Z" transform="translate(-209.441 -384.857)" fill="#f5f5f5"/>
                  </g>
                </g>
              </g>
            </g>
            <g id="Grupo_103447" data-name="Grupo 103447" transform="translate(15.035 42.753)">
              <g id="Grupo_103442" data-name="Grupo 103442">
                <g id="Grupo_103435" data-name="Grupo 103435" transform="translate(16.223 3.942)">
                  <g id="Grupo_103434" data-name="Grupo 103434">
                    <g id="Grupo_103433" data-name="Grupo 103433">
                      <path id="Trazado_152636" data-name="Trazado 152636" d="M241.91,146.759a.928.928,0,0,1-.268.03l-.768.028-2.827.046c-2.387.027-5.685.044-9.328.044s-6.941-.016-9.329-.044l-2.826-.046-.769-.028a.928.928,0,0,1-.268-.03.943.943,0,0,1,.268-.029l.769-.028,2.826-.047c2.387-.027,5.686-.043,9.329-.043s6.94.016,9.328.043l2.827.047.768.028A.943.943,0,0,1,241.91,146.759Z" transform="translate(-215.527 -146.612)" fill="#263238"/>
                    </g>
                  </g>
                </g>
                <g id="Grupo_103441" data-name="Grupo 103441" transform="translate(0 107.463)">
                  <g id="Grupo_103436" data-name="Grupo 103436" transform="translate(74.861 0.331)">
                    <path id="Trazado_152637" data-name="Trazado 152637" d="M323.839,337.12l-2.473-2.481-2.356,2.349.011-7.1,4.83.007Zm-2.473-2.79.077.076,2.178,2.186.01-6.481-4.393-.007-.01,6.357Z" transform="translate(-319.009 -329.885)" fill="#263238"/>
                  </g>
                  <g id="Grupo_103437" data-name="Grupo 103437" transform="translate(10.981 0.335)">
                    <path id="Trazado_152638" data-name="Trazado 152638" d="M212.168,336.376l-1.157-.516a3.167,3.167,0,1,1,1.689-2.782,3.2,3.2,0,0,1-.8,2.142Zm-2.7-6.264a2.992,2.992,0,1,0,.048,5.984,3.084,3.084,0,0,0,1.441-.454l.048-.027.852.38-.193-.838.039-.042a2.989,2.989,0,0,0-2.235-5Z" transform="translate(-206.277 -329.892)" fill="#263238"/>
                  </g>
                  <g id="Grupo_103438" data-name="Grupo 103438" transform="translate(20.496 0.775)">
                    <path id="Trazado_152639" data-name="Trazado 152639" d="M226.88,336.216l-1.325-3.235-2.485-2.265,6.028-.048Zm-3.248-5.285,2.117,1.943,1.129,2.756,1.894-4.74Z" transform="translate(-223.069 -330.668)" fill="#263238"/>
                  </g>
                  <g id="Grupo_103439" data-name="Grupo 103439" transform="translate(23.117 0.774)">
                    <rect id="Rectángulo_36271" data-name="Rectángulo 36271" width="3.921" height="0.22" transform="matrix(0.838, -0.545, 0.545, 0.838, 0, 2.139)" fill="#263238"/>
                  </g>
                  <g id="Grupo_103440" data-name="Grupo 103440">
                    <path id="Trazado_152640" data-name="Trazado 152640" d="M194.284,330.8a1.865,1.865,0,0,0-3.677.123,1.864,1.864,0,0,0-3.678-.063,2.516,2.516,0,0,0,.458,1.814,7.447,7.447,0,0,0,1.32,1.385c.671.593,1.292,1.151,1.963,1.745.662-.6,1.225-1.171,1.887-1.775a7.475,7.475,0,0,0,1.3-1.406A2.517,2.517,0,0,0,194.284,330.8Z" transform="translate(-186.898 -329.301)" fill="#e8505b"/>
                  </g>
                </g>
                <circle id="Elipse_4772" data-name="Elipse 4772" cx="4.089" cy="4.089" r="4.089" transform="translate(2.748)" fill="#ebebeb"/>
              </g>
              <g id="Grupo_103446" data-name="Grupo 103446" transform="translate(1.555 85.045)">
                <g id="Grupo_103443" data-name="Grupo 103443" transform="translate(0 6.378)">
                  <path id="Trazado_152641" data-name="Trazado 152641" d="M266.234,301.142c0,.082-17.147.147-38.294.147s-38.3-.066-38.3-.147,17.143-.148,38.3-.148S266.234,301.06,266.234,301.142Z" transform="translate(-189.643 -300.994)" fill="#455a64"/>
                </g>
                <g id="Grupo_103444" data-name="Grupo 103444">
                  <path id="Trazado_152642" data-name="Trazado 152642" d="M266.234,289.886c0,.082-17.147.148-38.294.148s-38.3-.066-38.3-.148,17.143-.147,38.3-.147S266.234,289.8,266.234,289.886Z" transform="translate(-189.643 -289.739)" fill="#455a64"/>
                </g>
                <g id="Grupo_103445" data-name="Grupo 103445" transform="translate(0 12.841)">
                  <path id="Trazado_152643" data-name="Trazado 152643" d="M231.332,312.547c0,.082-9.333.148-20.844.148s-20.845-.066-20.845-.148,9.331-.147,20.845-.147S231.332,312.466,231.332,312.547Z" transform="translate(-189.643 -312.4)" fill="#455a64"/>
                </g>
              </g>
            </g>
            <g id="Grupo_103451" data-name="Grupo 103451" transform="translate(49.881 208.616)">
              <g id="Grupo_103448" data-name="Grupo 103448">
                <path id="Trazado_152644" data-name="Trazado 152644" d="M251.646,434.022a1.627,1.627,0,1,1-1.62-1.659A1.639,1.639,0,0,1,251.646,434.022Z" transform="translate(-248.392 -432.363)" fill="#263238"/>
              </g>
              <g id="Grupo_103449" data-name="Grupo 103449" transform="translate(5.042 0.023)">
                <path id="Trazado_152645" data-name="Trazado 152645" d="M260.544,434.063a1.627,1.627,0,1,1-1.62-1.659A1.638,1.638,0,0,1,260.544,434.063Z" transform="translate(-257.29 -432.404)" fill="#263238"/>
              </g>
              <g id="Grupo_103450" data-name="Grupo 103450" transform="translate(10.084 0.046)">
                <path id="Trazado_152646" data-name="Trazado 152646" d="M269.442,434.1a1.627,1.627,0,1,1-1.62-1.659A1.637,1.637,0,0,1,269.442,434.1Z" transform="translate(-266.188 -432.445)" fill="#263238"/>
              </g>
            </g>
          </g>
          <g id="Grupo_103455" data-name="Grupo 103455" transform="translate(12.086 54.935)">
            <rect id="Rectángulo_36272" data-name="Rectángulo 36272" width="90.623" height="55.421" fill="#e0e0e0"/>
            <path id="Trazado_152647" data-name="Trazado 152647" d="M196.457,232.395l25.968-34.757,16.1,21.736,10.911-11.626,21.4,24.625Z" transform="translate(-188.091 -176.964)" fill="#f5f5f5"/>
            <g id="Grupo_103454" data-name="Grupo 103454" transform="translate(45.544 10.555)">
              <g id="Grupo_103453" data-name="Grupo 103453">
                <path id="Trazado_152648" data-name="Trazado 152648" d="M273.78,185.636a5.857,5.857,0,1,1-5.859-5.855A5.856,5.856,0,0,1,273.78,185.636Z" transform="translate(-262.067 -179.781)" fill="#f5f5f5"/>
              </g>
            </g>
          </g>
          <g id="Grupo_103456" data-name="Grupo 103456" transform="translate(11.695 36.348)">
            <path id="Trazado_152649" data-name="Trazado 152649" d="M271.773,253.866c0-1.185-.055-51.251-.134-125.366l.134.134-90.612.014h-.01l.147-.148c-.01,46.884-.02,90.274-.028,125.366l-.12-.12,90.622.12-90.622.12h-.12v-.12c-.008-35.092-.018-78.482-.028-125.366v-.147h.158l90.612.014h.134v.134c-.027,37.094-.05,68.449-.066,90.536-.015,11.027-.027,19.739-.036,25.7-.007,2.972-.012,5.256-.016,6.8q-.005,1.151-.008,1.745C271.778,253.672,271.773,253.866,271.773,253.866Z" transform="translate(-181.003 -128.353)" fill="#263238"/>
          </g>
        </g>
      </g>
    </g>
    <g id="Megaphone" transform="translate(74.944 80.081)">
      <g id="Grupo_103485" data-name="Grupo 103485" transform="translate(0)">
        <g id="Grupo_103479" data-name="Grupo 103479">
          <g id="Grupo_103477" data-name="Grupo 103477">
            <g id="Grupo_103459" data-name="Grupo 103459" transform="translate(60.204 113.303)">
              <path id="Trazado_152650" data-name="Trazado 152650" d="M237.966,353.771l2-6.736c.35-1.461.814-3.184,1.439-5.15a13.9,13.9,0,0,1,3.318-4.962c2.047-2.081,3.02-2.1,4.4-3.2.125-.08.265-.195.383-.259a2.169,2.169,0,0,0,.669-.579c1.185-1.282.047-3.267-2.36-3.078-1.813.142-4.768.661-9.574,5.619-.06.075-.123.138-.182.215-2.523,3.279-4.891-6.081-5.319-9.565a3.651,3.651,0,0,0-4.935-2.832L216.1,328.721a5.464,5.464,0,0,0-3.417.116,3.48,3.48,0,0,0-2.23,4.13l4.749,18.955-13.947,46.4h30.06Z" transform="translate(-201.252 -323.009)" fill="#ffbe9d"/>
            </g>
            <g id="Grupo_103475" data-name="Grupo 103475">
              <g id="Grupo_103467" data-name="Grupo 103467">
                <g id="Grupo_103461" data-name="Grupo 103461" transform="translate(67.254 94.895)">
                  <g id="Grupo_103460" data-name="Grupo 103460">
                    <path id="Trazado_152651" data-name="Trazado 152651" d="M266.45,297.074l-9.292,18.208-4.646-1.291-23.355,19a4.731,4.731,0,0,1-6.571-.584l-8.892-10.333s17.929-7.724,21.245-14.117-.516-7.844-.516-7.844l8.439-9.589Z" transform="translate(-213.694 -290.522)" fill="#e8505b"/>
                  </g>
                </g>
                <g id="Grupo_103462" data-name="Grupo 103462">
                  <path id="Trazado_152652" data-name="Trazado 152652" d="M202.965,187.307s-13.6-3.008-32.743-21.415-28.134-42.849-30.477-42.729-12.573-4.63-32.029,37.694-11.793,52.152-7.921,52.073,30.161-7.406,46.582-5.539S183.9,217.815,183.9,217.815Z" transform="translate(-95.007 -123.056)" fill="#e8505b"/>
                </g>
                <g id="Grupo_103463" data-name="Grupo 103463" transform="translate(85.971 56.275)">
                  <path id="Trazado_152653" data-name="Trazado 152653" d="M297.607,253.413l-4.64,8.823-2.079,3.952a11.514,11.514,0,0,1-15.009,5.1l-29.154-10.158L263.7,222.368l29.127,15.522A11.516,11.516,0,0,1,297.607,253.413Z" transform="translate(-246.725 -222.368)" fill="#e8505b"/>
                </g>
                <g id="Grupo_103464" data-name="Grupo 103464" transform="translate(85.971 56.275)" opacity="0.4">
                  <path id="Trazado_152654" data-name="Trazado 152654" d="M297.607,253.413l-4.64,8.823-2.079,3.952a11.514,11.514,0,0,1-15.009,5.1l-29.154-10.158L263.7,222.368l29.127,15.522A11.516,11.516,0,0,1,297.607,253.413Z" transform="translate(-246.725 -222.368)"/>
                </g>
                <g id="Grupo_103465" data-name="Grupo 103465" transform="translate(2.548 0.97)">
                  <path id="Trazado_152655" data-name="Trazado 152655" d="M111.236,162.369C100.882,185.3,96.571,205.726,101.609,208s17.516-14.467,27.871-37.394,14.665-43.357,9.627-45.632S121.592,139.442,111.236,162.369Z" transform="translate(-99.503 -124.769)" fill="#e8505b"/>
                </g>
                <g id="Grupo_103466" data-name="Grupo 103466" transform="translate(2.548 0.97)" opacity="0.5">
                  <path id="Trazado_152656" data-name="Trazado 152656" d="M111.236,162.369C100.882,185.3,96.571,205.726,101.609,208s17.516-14.467,27.871-37.394,14.665-43.357,9.627-45.632S121.592,139.442,111.236,162.369Z" transform="translate(-99.503 -124.769)"/>
                </g>
              </g>
              <g id="Grupo_103468" data-name="Grupo 103468" transform="translate(131.454 88.289)">
                <path id="Trazado_152657" data-name="Trazado 152657" d="M334.893,290.644l-7.9-2.482,4.89-9.3,5.926,3.684Z" transform="translate(-326.991 -278.865)" fill="#e8505b"/>
              </g>
              <g id="Grupo_103469" data-name="Grupo 103469" transform="translate(131.454 88.289)" opacity="0.6">
                <path id="Trazado_152658" data-name="Trazado 152658" d="M331.88,278.865l-4.89,9.3,1.624.51,3.976-9.367Z" transform="translate(-326.991 -278.865)"/>
              </g>
              <g id="Grupo_103470" data-name="Grupo 103470" transform="translate(113.698 82.634)">
                <path id="Trazado_152659" data-name="Trazado 152659" d="M312.857,276.685c-.116.256-4.06-1.277-8.807-3.424s-8.507-4.094-8.391-4.349,4.058,1.278,8.808,3.424S312.972,276.43,312.857,276.685Z" transform="translate(-295.656 -268.884)" fill="#e8505b"/>
              </g>
              <g id="Grupo_103471" data-name="Grupo 103471" transform="translate(117.833 77.239)">
                <path id="Trazado_152660" data-name="Trazado 152660" d="M318.449,267.022c-.125.252-3.693-1.252-7.971-3.359s-7.647-4.019-7.522-4.271,3.691,1.253,7.971,3.361S318.572,266.77,318.449,267.022Z" transform="translate(-302.952 -259.364)" fill="#e8505b"/>
              </g>
              <g id="Grupo_103472" data-name="Grupo 103472" transform="translate(112.153 89.243)">
                <path id="Trazado_152661" data-name="Trazado 152661" d="M308.61,287.548c-.042.135-.98-.082-2.478-.545-.748-.231-1.634-.524-2.615-.863s-1.986-.865-3.07-1.355c-4.323-2.007-7.624-3.972-7.516-4.2.128-.275,3.656,1.295,7.939,3.282,1.074.487,2.071,1.023,3.011,1.415s1.789.737,2.495,1.051C307.79,286.956,308.651,287.413,308.61,287.548Z" transform="translate(-292.929 -280.549)" fill="#e8505b"/>
              </g>
              <g id="Grupo_103473" data-name="Grupo 103473" transform="translate(15.238 31.793)">
                <path id="Trazado_152662" data-name="Trazado 152662" d="M142.052,180.842s-11.822-7.331-18.29,8.641,5.97,18.6,5.97,18.6A106.418,106.418,0,0,0,142.052,180.842Z" transform="translate(-121.897 -179.163)" fill="#e8505b"/>
              </g>
              <g id="Grupo_103474" data-name="Grupo 103474" transform="translate(14.093 14.436)" opacity="0.5">
                <path id="Trazado_152663" data-name="Trazado 152663" d="M153.749,148.533a17.8,17.8,0,0,1-.463,3.051c-.374,1.952-.9,4.785-1.661,8.263-.5,1.714-1.046,3.584-1.632,5.589l-.919,3.113-.482,1.627c-.177.546-.407,1.081-.613,1.633L145.31,178.7q-.348.9-.7,1.808c-.23.61-.555,1.184-.831,1.785l-1.757,3.623-1.763,3.622c-.3.589-.553,1.2-.89,1.758l-.986,1.671-3.767,6.361c-.307.5-.585,1.014-.9,1.49s-.659.932-.983,1.388l-1.882,2.651-3.389,4.743c-2.26,2.739-4.156,4.9-5.459,6.4a17.958,17.958,0,0,1-2.114,2.252,18.018,18.018,0,0,1,1.809-2.5l5.208-6.6,3.262-4.78,1.823-2.655.955-1.387c.311-.477.583-.989.881-1.492l3.691-6.348.971-1.664c.333-.555.58-1.163.878-1.749l1.745-3.6,1.749-3.6c.276-.6.6-1.166.831-1.77l.707-1.791,2.707-6.824c.21-.546.445-1.074.628-1.614s.335-1.081.5-1.61q.495-1.587.961-3.079c.625-1.982,1.208-3.831,1.742-5.524l1.967-8.159A18.254,18.254,0,0,1,153.749,148.533Z" transform="translate(-119.877 -148.533)"/>
              </g>
            </g>
            <g id="Grupo_103476" data-name="Grupo 103476" transform="translate(70.087 108.983)" opacity="0.4">
              <path id="Trazado_152664" data-name="Trazado 152664" d="M218.693,331.577a23.02,23.02,0,0,0,3.775,5.511,7.772,7.772,0,0,0,6.011,2.449,4.756,4.756,0,0,0,4.355-4.306,2.785,2.785,0,0,0,3.587-.633,6.277,6.277,0,0,0,1.277-3.721,3.51,3.51,0,0,0,4.433-1.2,5.732,5.732,0,0,0,.559-4.849,16.979,16.979,0,0,0-2.327-4.457,6.164,6.164,0,0,0,3.3-.338,2.124,2.124,0,0,0,1.09-2.783,2.773,2.773,0,0,0-1.625-1.036,10.492,10.492,0,0,0-4.8-.775c-.423,0,.729,4.8-10.7,11.366A96.03,96.03,0,0,1,218.693,331.577Z" transform="translate(-218.693 -315.383)"/>
            </g>
          </g>
          <g id="Grupo_103478" data-name="Grupo 103478" transform="translate(84.214 131.839)">
            <path id="Trazado_152665" data-name="Trazado 152665" d="M255.234,355.99c-.007.053-.768-.094-2-.06a11.315,11.315,0,0,0-8.4,4.027c-.8.941-1.16,1.625-1.206,1.6a1.75,1.75,0,0,1,.224-.5,9.048,9.048,0,0,1,.821-1.234,10.706,10.706,0,0,1,8.56-4.1,9.128,9.128,0,0,1,1.477.132A1.744,1.744,0,0,1,255.234,355.99Z" transform="translate(-243.624 -355.72)" fill="#eb996e"/>
          </g>
          <path id="Trazado_152666" data-name="Trazado 152666" d="M220.008,330.9c1.841,1.769,3.1,3.721,5.031,5.5.877.809,2.241,2.343,3.417,2.547s1.929.048,2.4-1.052c.377-.89-.3-2.107-.768-2.841-1.23-1.929-2.407-3.438-3.328-4.939-.432-.7.127-.848.331-.522.886.919,2.208,1.715,3,2.715,1.087,1.37,1.284,3.183,4.128,2.609a2.563,2.563,0,0,0,1.056-.439,2.844,2.844,0,0,0,.665-3.385,9.265,9.265,0,0,0-1.583-2.4c1.21,1.367,2.532,2.806,4.457,2.961a2.651,2.651,0,0,0,2.7-1.459c.569-1.293-.247-2.543-1.066-3.554a37.018,37.018,0,0,0-4.833-4.937,3.677,3.677,0,0,0-2.349-.871,3.425,3.425,0,0,0-2.856,1.047,3.864,3.864,0,0,0-.773,2.962s-2.5-1.266-4.5.058a6.362,6.362,0,0,0-2.5,3.6Z" transform="translate(-149.176 -208.765)" fill="#ffbe9d"/>
          <path id="Trazado_152667" data-name="Trazado 152667" d="M242.91,315.744a2.991,2.991,0,0,1-.353-3.377c.424-.832.96-1.64,1.5-1.824,2.375-.8,12.751.994,12.656,3.3-.1,2.365-.852,3.405-6.484,2.592-.991-.143-2.545-.338-2.545-.338l-1.359,2.04Z" transform="translate(-158.793 -204.219)" fill="#ffbe9d"/>
        </g>
        <g id="Grupo_103480" data-name="Grupo 103480" transform="translate(80.257 115.978)">
          <path id="Trazado_152668" data-name="Trazado 152668" d="M242.359,332.919a13.622,13.622,0,0,0-5.717-5.184,3.315,3.315,0,0,1,1.1.387,9.854,9.854,0,0,1,4.127,3.741A3.315,3.315,0,0,1,242.359,332.919Z" transform="translate(-236.641 -327.729)" fill="#eb996e"/>
        </g>
        <g id="Grupo_103481" data-name="Grupo 103481" transform="translate(84.3 112.067)">
          <path id="Trazado_152669" data-name="Trazado 152669" d="M247.2,322.851c-.052.048-.737-.511-1.671-1.082a11.744,11.744,0,0,0-1.218-.672c-.321-.151-.533-.192-.533-.236s.244-.068.6.041a5.578,5.578,0,0,1,1.3.616A4.016,4.016,0,0,1,247.2,322.851Z" transform="translate(-243.776 -320.826)" fill="#eb996e"/>
        </g>
        <g id="Grupo_103482" data-name="Grupo 103482" transform="translate(85.807 110.583)">
          <path id="Trazado_152670" data-name="Trazado 152670" d="M250.091,319.575a4.483,4.483,0,0,1-2-.225,3.652,3.652,0,0,1-1.279-.67c-.285-.242-.4-.445-.376-.469a8.363,8.363,0,0,0,1.742.857A14.9,14.9,0,0,1,250.091,319.575Z" transform="translate(-246.434 -318.208)" fill="#eb996e"/>
        </g>
        <g id="Grupo_103483" data-name="Grupo 103483" transform="translate(71.135 118.849)">
          <path id="Trazado_152671" data-name="Trazado 152671" d="M228.786,337.965a7.224,7.224,0,0,1-.946-1.23,11.158,11.158,0,0,0-2.422-2.753,4.882,4.882,0,0,0-3.431-.909,6.237,6.237,0,0,0-1.445.46c-.01-.013.1-.118.331-.262a3.229,3.229,0,0,1,1.081-.4,4.82,4.82,0,0,1,3.636.875,9.858,9.858,0,0,1,2.424,2.877A9.22,9.22,0,0,1,228.786,337.965Z" transform="translate(-220.542 -332.796)" fill="#eb996e"/>
        </g>
        <g id="Grupo_103484" data-name="Grupo 103484" transform="translate(78.803 146.945)">
          <path id="Trazado_152672" data-name="Trazado 152672" d="M242.588,382.4a62.2,62.2,0,0,1-8.514.926,62.184,62.184,0,0,1,8.514-.926Z" transform="translate(-234.074 -382.378)" fill="#eb996e"/>
        </g>
      </g>
    </g>
    <g id="Stars" transform="translate(48.711 38.595)">
      <g id="Grupo_103486" data-name="Grupo 103486">
        <path id="Trazado_152673" data-name="Trazado 152673" d="M405.248,49.844l.64,1.17,1.17.64-1.17.64-.64,1.17-.64-1.17-1.17-.64,1.17-.64Z" transform="translate(-202.431 -49.844)" fill="#e8505b"/>
        <path id="Trazado_152674" data-name="Trazado 152674" d="M428.853,101.014l.64,1.17,1.17.64-1.17.64-.64,1.17-.64-1.17-1.17-.64,1.17-.64Z" transform="translate(-212.661 -72.018)" fill="#e8505b"/>
        <path id="Trazado_152675" data-name="Trazado 152675" d="M50.52,237.533l.64,1.17,1.17.64-1.17.64-.64,1.17-.64-1.17-1.17-.64,1.17-.64Z" transform="translate(-48.711 -131.179)" fill="#e8505b"/>
        <path id="Trazado_152676" data-name="Trazado 152676" d="M372.467,62.562l1.477,2.7,2.7,1.477-2.7,1.477-1.477,2.7-1.477-2.7-2.7-1.477,2.7-1.477Z" transform="translate(-187.199 -55.355)" fill="#e8505b"/>
        <path id="Trazado_152677" data-name="Trazado 152677" d="M69.873,205.1l1.474,2.695,2.695,1.474-2.695,1.474-1.474,2.7-1.474-2.7-2.7-1.474,2.7-1.474Z" transform="translate(-56.075 -117.122)" fill="#e8505b"/>
        <path id="Trazado_152678" data-name="Trazado 152678" d="M433.47,318.565l1.474,2.695,2.695,1.474-2.695,1.474-1.474,2.7-1.474-2.7-2.7-1.474,2.7-1.474Z" transform="translate(-213.639 -166.294)" fill="#e8505b"/>
      </g>
    </g>
  </g>
</svg>
