<svg xmlns="http://www.w3.org/2000/svg" width="400.707" height="346.787" viewBox="0 0 400.707 346.787">
  <g id="Grupo_103505" data-name="Grupo 103505" transform="translate(-24.135 -55.611)">
    <g id="Grupo_103491" data-name="Grupo 103491" transform="translate(24.842 68.13)">
      <path id="Trazado_152679" data-name="Trazado 152679" d="M392.989,255.406c-3.98,85.991-80.481,110.472-175.765,112.313C71.924,370.528,55.013,324.365,55.013,238.28S86.688,63.313,170.677,69.867c39.9,3.114,85.2,69.25,119.106,91.2C336.62,191.377,395.98,190.81,392.989,255.406Z" transform="translate(-27.868 -69.525)" fill="#d4e7ff"/>
      <path id="Trazado_152680" data-name="Trazado 152680" d="M50.657,296.021s30.264-13.2,44.18-56.262,39.141-79.315,86.936-81.75,99.493.558,116.573-25.1-19.423-26.247-19.936,18.775,78.145,127.584,82.259,191.7-49,51.386-114.982,25.617-134.867,25.232-177.8,6.158S26.815,315.277,50.657,296.021Z" transform="translate(-25.75 -74.121)" fill="none" stroke="#4570b4" stroke-miterlimit="10" stroke-width="1" opacity="0.42"/>
      <circle id="Elipse_4773" data-name="Elipse 4773" cx="17.356" cy="17.356" r="17.356" transform="translate(13.976 137.29)" fill="#4570b4" opacity="0.42"/>
      <circle id="Elipse_4774" data-name="Elipse 4774" cx="22.155" cy="22.155" r="22.155" transform="translate(0 154.645) rotate(-45)" fill="none" stroke="#4570b4" stroke-miterlimit="10" stroke-width="1" opacity="0.42"/>
      <circle id="Elipse_4775" data-name="Elipse 4775" cx="20.242" cy="20.242" r="20.242" transform="translate(340.722 145.396)" fill="#4570b4" opacity="0.42"/>
      <path id="Trazado_152681" data-name="Trazado 152681" d="M268.3,192.944l-5.465,8.676h11.634Z" transform="translate(-48.713 -81.904)" fill="none" stroke="#4570b4" stroke-miterlimit="10" stroke-width="1" opacity="0.42"/>
      <path id="Trazado_152682" data-name="Trazado 152682" d="M182.437,103.152l-7.3,11.589h15.541Z" transform="translate(-39.917 -72.898)" fill="#4570b4" opacity="0.42"/>
      <g id="Grupo_103490" data-name="Grupo 103490" transform="translate(176.122 11.45)">
        <circle id="Elipse_4776" data-name="Elipse 4776" cx="21.109" cy="21.109" r="21.109" fill="#4570b4" opacity="0.42"/>
        <path id="Trazado_152683" data-name="Trazado 152683" d="M242.532,101.3l-1.187-2.271a2.981,2.981,0,0,1,1.26-4.022h0a2.03,2.03,0,0,0,.859-2.74l-1.776-3.4a2.03,2.03,0,0,0-2.74-.859l-1.546.808a8,8,0,0,0-3.4,3.413l-.452.873a5.2,5.2,0,0,0,.01,4.8l3.319,6.35,2.215,4.239,3.319,6.35a5.2,5.2,0,0,0,3.934,2.748l.975.128a8,8,0,0,0,4.743-.842l1.546-.808a2.03,2.03,0,0,0,.859-2.74l-1.776-3.4a2.03,2.03,0,0,0-2.74-.859h0a2.98,2.98,0,0,1-4.021-1.26l-1.187-2.271Z" transform="translate(-221.839 -82.807)" fill="#fff"/>
      </g>
      <path id="Trazado_152684" data-name="Trazado 152684" d="M414.695,369.856a4.37,4.37,0,1,1-4.37-4.37A4.371,4.371,0,0,1,414.695,369.856Z" transform="translate(-63.068 -99.21)" fill="none" stroke="#4570b4" stroke-miterlimit="10" stroke-width="1" opacity="0.42"/>
      <circle id="Elipse_4777" data-name="Elipse 4777" cx="8.078" cy="8.078" r="8.078" transform="translate(82.296 23.35)" fill="#fff" opacity="0.42"/>
      <circle id="Elipse_4778" data-name="Elipse 4778" cx="8.078" cy="8.078" r="8.078" transform="translate(302.84 135.608)" fill="none" stroke="#4570b4" stroke-miterlimit="10" stroke-width="1" opacity="0.42"/>
      <circle id="Elipse_4779" data-name="Elipse 4779" cx="7.873" cy="7.873" r="7.873" transform="translate(48.695 182.044)" fill="#4570b4" opacity="0.42"/>
      <circle id="Elipse_4780" data-name="Elipse 4780" cx="13.964" cy="13.964" r="13.964" transform="translate(347.001 151.675)" fill="none" stroke="#fff" stroke-miterlimit="10" stroke-width="1" opacity="0.42"/>
    </g>
    <g id="Grupo_103495" data-name="Grupo 103495" transform="translate(269.681 55.612)">
      <path id="Trazado_152685" data-name="Trazado 152685" d="M401.233,106.616H304.462a7.486,7.486,0,0,0-7.486,7.486v58.454a7.486,7.486,0,0,0,7.486,7.486h61.715v14.737a2.9,2.9,0,0,0,4.769,2.22l20.147-16.957h10.141a7.486,7.486,0,0,0,7.486-7.486V114.1A7.486,7.486,0,0,0,401.233,106.616Z" transform="translate(-296.976 -60.727)" fill="#4570b4" opacity="0.42"/>
      <g id="Grupo_103492" data-name="Grupo 103492" transform="translate(42.323 9.192)">
        <path id="Trazado_152686" data-name="Trazado 152686" d="M430.461,109.815a44.216,44.216,0,0,1-6.838,23.716c-.684,1.1-1.422,2.168-2.2,3.194a42.9,42.9,0,0,1-34.18,17.067,42.336,42.336,0,0,1-19.793-4.876A44.388,44.388,0,0,1,344.4,103.94c2.816-21.512,20.927-38.111,42.836-38.111C411.108,65.829,430.461,85.523,430.461,109.815Z" transform="translate(-344.017 -65.829)" fill="#68a8de"/>
        <path id="Trazado_152687" data-name="Trazado 152687" d="M424.031,144.238a42.9,42.9,0,0,1-34.18,17.067,42.339,42.339,0,0,1-19.793-4.876c.81-2.024,3.293-7.4,7.692-10.4,5.488-3.761,22.169-6.019,33.739-5.029C418.318,141.575,422.088,143.1,424.031,144.238Z" transform="translate(-346.629 -73.345)" fill="#c6606c"/>
        <path id="Trazado_152688" data-name="Trazado 152688" d="M370.422,89.159l.453,21.477s.681,21.941,18.538,21.552,21.629-27.494,21.629-27.494l-2.809-16.445S387.361,74.32,370.422,89.159Z" transform="translate(-346.665 -67.483)" fill="#fff"/>
        <path id="Trazado_152689" data-name="Trazado 152689" d="M391.543,131.236s1.326,8.3-.676,11.02,3.975,12.15,3.975,12.15l13.826-12.684A158.868,158.868,0,0,1,408,124.28Z" transform="translate(-348.675 -71.692)" fill="#fff"/>
        <path id="Trazado_152690" data-name="Trazado 152690" d="M369.632,93.557a30.732,30.732,0,0,0,10.634,1.154c5.495-.482,7.423-2.7,7.423-2.7a13.5,13.5,0,0,0,4.82.771,10.425,10.425,0,0,0,5.2-1.446,12.289,12.289,0,0,0-1.156,7.9c.867,4.435,3.759,5.592,3.759,5.592s1.832-4.435,5.013-4.435,4.338,3.374,3.519,7.809-5.929,5.494-5.929,5.494l2.178,5.835s8.233-8.823,9.2-18.559-3.952-12.628-3.952-12.628.411-7.23-9.242-9.736-16.014-2.314-23.244,1.831c0,0-6.073-4.626-11.182-1.831s-3.663,8.772-1.156,10.314c0,0-4.917,1.253-3.856,7.326s8.147,5.6,8.147,5.6Z" transform="translate(-345.772 -66.947)" fill="#00496a"/>
        <path id="Trazado_152691" data-name="Trazado 152691" d="M391.53,136.4s12.978-3.434,14.263-12.116c0,0,3.22,12.588-14.263,16.862C391.53,141.142,392.047,137.4,391.53,136.4Z" transform="translate(-348.783 -71.692)" fill="#d9d9d9"/>
      </g>
      <g id="Grupo_103494" data-name="Grupo 103494" transform="translate(108.748)">
        <circle id="Elipse_4781" data-name="Elipse 4781" cx="20.211" cy="20.211" r="20.211" transform="matrix(0.161, -0.987, 0.987, 0.161, 0, 39.892)" fill="#4570b4" opacity="0.42"/>
        <g id="Grupo_103493" data-name="Grupo 103493" transform="translate(17.67 10.785)">
          <path id="Trazado_152692" data-name="Trazado 152692" d="M440.741,85.462l-.072-.94a8.3,8.3,0,0,1,2.242-6.256c1.627-1.916,2.531-3.327,2.531-4.954,0-1.844-1.157-3.073-3.434-3.11a6.431,6.431,0,0,0-3.653,1.121l-.868-2.278a9.484,9.484,0,0,1,5.171-1.446c4.158,0,6.039,2.567,6.039,5.315,0,2.459-1.374,4.23-3.109,6.292a7.146,7.146,0,0,0-2.061,5.315l.036.94Zm-.794,5.063a2.137,2.137,0,0,1,2.169-2.278,2.263,2.263,0,1,1-2.169,2.278Z" transform="translate(-437.487 -67.599)" fill="#fff"/>
        </g>
      </g>
    </g>
    <g id="Grupo_103504" data-name="Grupo 103504" transform="translate(38.818 125.906)">
      <g id="Grupo_103499" data-name="Grupo 103499" transform="translate(29.751)">
        <g id="Grupo_103497" data-name="Grupo 103497" transform="translate(43.158 15.944)">
          <path id="Trazado_152693" data-name="Trazado 152693" d="M380.225,344.722a1.9,1.9,0,0,1-.241.516q-2.56,3.711-5.41,7.2h-.008c-61.751,75.886-220.561,75.886-220.561,75.886V337.751H379.984S380.853,342.682,380.225,344.722Z" transform="translate(-124.683 -170.148)" fill="#a6d6f7"/>
          <path id="Trazado_152694" data-name="Trazado 152694" d="M380.225,345.5a1.9,1.9,0,0,1-.241.516q-2.56,3.711-5.41,7.2h-.008l-220.561,25.1V345.5Z" transform="translate(-124.683 -170.925)" fill="#8cc6e5"/>
          <path id="Trazado_152695" data-name="Trazado 152695" d="M266.43,261.97,255.5,273.559a69.618,69.618,0,0,1-4.921-5.83,64.049,64.049,0,0,1-3.923-5.794,37.522,37.522,0,0,1-4.013-8.916c-2.879-10.3-1.7-32.029-1.7-32.029s4.66.5,6.253,2.276C256.164,233.252,266.43,261.97,266.43,261.97Z" transform="translate(-133.378 -158.437)" fill="#ff6a76"/>
          <path id="Trazado_152696" data-name="Trazado 152696" d="M214.091,299.406H135.814l-7.149-60.191a12.585,12.585,0,0,1,10.747-14.041l4.709-.615,59.811-7.773Z" transform="translate(-122.132 -158.015)" fill="#4570b4"/>
          <path id="Trazado_152697" data-name="Trazado 152697" d="M199.374,218.934s-25.472,8.191-26.852,10.3,10.58,39.437,10.58,39.437l-2.3,30.894h51.865l2.614-29.482a26.87,26.87,0,0,0,5.9-16.156c.345-10.064-7.088-33.2-7.088-33.2l-18.1-2.376Z" transform="translate(-126.529 -158.172)" fill="#ff6a76"/>
          <path id="Trazado_152698" data-name="Trazado 152698" d="M206.489,154.367s-17.756-7.634-30.359,10.178.449,45.817.449,45.817,32.161-4.2,41.063-5.057,10.7-.858,10.7-.858,4.586-28.133-5.2-38.477S206.489,154.367,206.489,154.367Z" transform="translate(-126.351 -151.591)" fill="#00496a"/>
          <path id="Trazado_152699" data-name="Trazado 152699" d="M216.156,229.241l-14.988-10.275a23.853,23.853,0,0,0,.926-7.863,12.353,12.353,0,0,0-.467-2.573,9.9,9.9,0,0,0-.459-1.215l14.988-.747s.1,1.215.379,2.78a20.954,20.954,0,0,0,1.062,3.914,6.831,6.831,0,0,0,1.367,2.312C221.258,217.905,216.156,229.241,216.156,229.241Z" transform="translate(-129.413 -156.99)" fill="#fff"/>
          <path id="Trazado_152700" data-name="Trazado 152700" d="M217.648,213.481c-1.925.063-10.194.189-15.5-2.159a12.355,12.355,0,0,0-.467-2.573s10.1,1.233,14.908.819A20.955,20.955,0,0,0,217.648,213.481Z" transform="translate(-129.464 -157.209)" fill="#d9d9d9"/>
          <path id="Trazado_152701" data-name="Trazado 152701" d="M223.144,161.575l2.5,20.657s3.276,21.286-13.9,23.352-22.951-17.79-22.951-17.79l-2.031-21.928S204.874,149.658,223.144,161.575Z" transform="translate(-127.968 -152.039)" fill="#fff"/>
          <path id="Trazado_152702" data-name="Trazado 152702" d="M215.085,162.729s-2.247,5.527-9.638,9.447a45.105,45.105,0,0,1-12.7,4.435s-.986,5.817-4.3,9.468c0,0-5.738-10.888-3.4-20.264s14.445-13.9,25.063-12.95,14.445,4.847,15.85,11.044-.947,14.56-.947,14.56S222.759,164.657,215.085,162.729Z" transform="translate(-127.74 -151.591)" fill="#00496a"/>
          <path id="Trazado_152703" data-name="Trazado 152703" d="M186.439,181.4s-2.045-15.71,10.072-24.052c7.891-5.432,17.82-3.987,17.82-3.987s-6.265-4.715-18.6.729-12.961,17.755-11.711,27.31Z" transform="translate(-127.648 -151.463)" fill="#68a8de"/>
          <path id="Trazado_152704" data-name="Trazado 152704" d="M153.668,300.272H135.814l-7.149-60.191a12.585,12.585,0,0,1,10.747-14.041l4.709-.615Z" transform="translate(-122.132 -158.882)" fill="#375c93"/>
          <g id="Grupo_103496" data-name="Grupo 103496" transform="translate(60.996 42.601)">
            <path id="Trazado_152705" data-name="Trazado 152705" d="M203.759,205.973c-8.194,0-14.276-5.7-14.549-5.964l1.1-1.2c.066.063,6.714,6.271,15.026,5.444l.157,1.63C204.906,205.946,204.328,205.973,203.759,205.973Z" transform="translate(-189.21 -198.813)" fill="#375c93"/>
          </g>
          <path id="Trazado_152706" data-name="Trazado 152706" d="M400.02,341.978H154.427a23.4,23.4,0,0,1-17.2-7.453L123.741,319.9c-5.233-5.675-1.067-14.664,6.8-14.664H370.292a32.55,32.55,0,0,1,22.209,8.678l13.843,12.929C412.234,332.341,408.207,341.978,400.02,341.978Z" transform="translate(-121.414 -166.886)" fill="#68a8de"/>
          <path id="Trazado_152707" data-name="Trazado 152707" d="M301.178,223.966c-.442.24-1.136.647-1.891,1.1l-.146-.235c2.246-1.431,5.573-3.666,5.348-4.213-.337-.82-2.024-.391-3.278.29-.723.392-2.037,1.174-3.3,1.939l-.092-.148c2.228-1.409,5.946-3.866,5.709-4.443-.337-.82-2.024-.391-3.278.29-.794.431-2.3,1.329-3.668,2.16l-.107-.173c2.211-1.426,5.093-3.406,4.884-3.915-.337-.82-2.024-.391-3.278.289-1.69.918-6.6,3.952-6.6,3.952l-3.573,1.3c.771-1.252,2.939-5.88,1.927-5.88s-3.808,3.229-4.964,6.554a17.834,17.834,0,0,0-.976,5.669l-31.316,39.794s.742,1.165,1.862,2.714c3.249,4.494,10.814,5.482,15.182,2.066,3.45-2.7,6.175-6.262,8.841-9.9,5.026-6.859,12.52-25.054,14.282-29.41l7.088-6.643c1.942-1.255,4.418-2.965,4.236-3.409C303.775,222.987,302.285,223.365,301.178,223.966Z" transform="translate(-134.57 -157.953)" fill="#fff"/>
          <path id="Trazado_152708" data-name="Trazado 152708" d="M212.622,315.656a17.03,17.03,0,0,1,5.109,6.363c1.446,3.663-7.809,6.022-23.256.776C183.235,318.979,202.211,307.27,212.622,315.656Z" transform="translate(-128.396 -167.635)" fill="#00496a"/>
          <path id="Trazado_152709" data-name="Trazado 152709" d="M208.183,207.422h-2.069a1.349,1.349,0,0,1-1.337-1.36v-1.273a1.348,1.348,0,0,1,1.337-1.359h2.069a1.348,1.348,0,0,1,1.337,1.359v1.273A1.349,1.349,0,0,1,208.183,207.422Z" transform="translate(-129.775 -156.675)" fill="#00496a"/>
          <path id="Trazado_152710" data-name="Trazado 152710" d="M194.623,188.94c1.145,5.725-1.834,11.175-6.655,12.173s-9.656-2.833-10.8-8.557,1.834-11.175,6.655-12.173S193.477,183.217,194.623,188.94Z" transform="translate(-126.981 -154.348)" fill="#4570b4"/>
          <path id="Trazado_152711" data-name="Trazado 152711" d="M190.033,190.457c.676,3.377-1.082,6.592-3.926,7.181s-5.7-1.672-6.371-5.048,1.081-6.592,3.925-7.181S189.357,187.08,190.033,190.457Z" transform="translate(-127.249 -154.859)" fill="#68a8de"/>
          <path id="Trazado_152712" data-name="Trazado 152712" d="M174.011,227.94s-4.375.656-6.15,3.482c-7.607,12.112-22.425,49.149-22.425,49.149l14.288,6.32s18.785-21.766,20.51-32.122S174.011,227.94,174.011,227.94Z" transform="translate(-123.823 -159.134)" fill="#ff6a76"/>
          <path id="Trazado_152713" data-name="Trazado 152713" d="M158.236,289.595l29.325,19.075-4.14,9.186s-26.393-9.478-34.5-15.622-3.623-15.8-3.623-15.8S149.783,285.909,158.236,289.595Z" transform="translate(-123.685 -164.998)" fill="#fff"/>
          <path id="Trazado_152714" data-name="Trazado 152714" d="M191.022,310.774s9.89-.468,13.455-.468,9.775,5.851,9.085,7.723-7.82-3.862-7.82-3.862l-.4.76s6.325,3.862,6.67,5.324-1.093,1.229-3.162.352a45.667,45.667,0,0,1-5.175-2.867l-.345.409s5.98,3.686,5.98,5.032S205,323,201.833,320.9l-.4.643s3.91,1.989,4.2,3.277-1.841.761-4.2-.351-4.543-1.229-7.59-1.7a21.824,21.824,0,0,1-6.663-2.723Z" transform="translate(-128.01 -167.395)" fill="#fff"/>
          <path id="Trazado_152715" data-name="Trazado 152715" d="M380.343,251.119,366.28,321.65H262.09l13.982-70.124a3.138,3.138,0,0,1,3.062-2.546h99.49A1.777,1.777,0,0,1,380.343,251.119Z" transform="translate(-135.523 -161.244)" fill="#4570b4"/>
          <path id="Trazado_152716" data-name="Trazado 152716" d="M258.71,328.179l-28.623-9.311a2.456,2.456,0,0,1-1.7-2.335h0a2.455,2.455,0,0,1,2.455-2.455h30.675Z" transform="translate(-132.143 -167.773)" fill="#00496a"/>
          <path id="Trazado_152717" data-name="Trazado 152717" d="M178.608,231.125s6.408,18.121,2.525,30.559C181.133,261.684,194.233,247.123,178.608,231.125Z" transform="translate(-127.15 -159.453)" fill="#c6606c"/>
          <path id="Trazado_152718" data-name="Trazado 152718" d="M250.85,268.555a64.054,64.054,0,0,1-3.923-5.794c2.645-10.392-3.509-33.532-3.509-33.532C256.9,246.422,253.144,262.392,250.85,268.555Z" transform="translate(-133.651 -159.263)" fill="#c6606c"/>
          <path id="Trazado_152719" data-name="Trazado 152719" d="M283.289,253.629l83.937,68.487h-95.7Z" transform="translate(-136.47 -161.71)" fill="#375c93"/>
          <circle id="Elipse_4782" data-name="Elipse 4782" cx="8.369" cy="8.369" r="8.369" transform="translate(183.156 123.257) rotate(-22.366)" fill="#a6d6f7"/>
          <path id="Trazado_152720" data-name="Trazado 152720" d="M201.7,215.754l14.16,14.409s-2.456,3.475-6.544,3.378-6.386-5.294-7.543-8a29.7,29.7,0,0,0-3.518-5.656Z" transform="translate(-129.121 -157.912)" fill="#ffa9b3"/>
          <path id="Trazado_152721" data-name="Trazado 152721" d="M217.827,230.1s3.649,2.22,7.217.677,2.6-3.9,1.35-6.384a56.306,56.306,0,0,1-2.6-6.919l-4.066-2.344S220.444,224.6,217.827,230.1Z" transform="translate(-131.084 -157.849)" fill="#ffa9b3"/>
          <path id="Trazado_152722" data-name="Trazado 152722" d="M238.118,262.7l-35.684,3.452s8,5.737,20.318,4S238.118,262.7,238.118,262.7Z" transform="translate(-129.54 -162.62)" fill="#c6606c"/>
        </g>
        <g id="Grupo_103498" data-name="Grupo 103498">
          <path id="Trazado_152723" data-name="Trazado 152723" d="M145.421,133.742H80.892a7.448,7.448,0,0,0-7.448,7.448v17.1a7.448,7.448,0,0,0,7.448,7.448h54.357l17.62,10.185V141.19A7.448,7.448,0,0,0,145.421,133.742Z" transform="translate(-73.444 -133.742)" fill="#4570b4" opacity="0.42"/>
          <line id="Línea_154" data-name="Línea 154" x2="67.219" transform="translate(4.96 7.739)" fill="none" stroke="#fff" stroke-linecap="round" stroke-linejoin="round" stroke-width="1"/>
          <line id="Línea_155" data-name="Línea 155" x2="67.219" transform="translate(4.96 15.944)" fill="none" stroke="#fff" stroke-linecap="round" stroke-linejoin="round" stroke-width="1"/>
          <line id="Línea_156" data-name="Línea 156" x2="67.219" transform="translate(4.96 24.15)" fill="none" stroke="#fff" stroke-linecap="round" stroke-linejoin="round" stroke-width="1"/>
        </g>
      </g>
      <g id="Grupo_103502" data-name="Grupo 103502" transform="translate(0 129.353)">
        <g id="Grupo_103500" data-name="Grupo 103500">
          <path id="Trazado_152724" data-name="Trazado 152724" d="M149.514,347.041c1.689-13.962-9.331-11.863-16.868-4.5s-14.923,3.252-6.565-10.507,14.481-17.992,13.324-24.92-7.2-3.9-17.655,1.864-.574-9.281-1.363-23.552-14.96-7.141-16.151,4.872,4.173,25.462-2.705,22.795S90.494,294.469,84.24,302s17.652,33.071,16.849,40.782-18-15.786-22.943-8.05,16.437,59.4,34.943,57.952C136.6,390.849,147.826,361,149.514,347.041Z" transform="translate(-44.092 -277.515)" fill="#c6606c"/>
          <path id="Trazado_152725" data-name="Trazado 152725" d="M114.979,293.59a171.256,171.256,0,0,0-1.773,36.646c1.182,20.492,3.861,72.046,3.861,72.046" transform="translate(-47.653 -279.128)" fill="none" stroke="#aa4451" stroke-miterlimit="10" stroke-width="1"/>
          <path id="Trazado_152726" data-name="Trazado 152726" d="M92.871,316.163s13.582,16.119,18.514,19.676c0,0,17.541-16.9,20.891-19.676" transform="translate(-45.642 -281.392)" fill="none" stroke="#aa4451" stroke-miterlimit="10" stroke-width="1"/>
          <path id="Trazado_152727" data-name="Trazado 152727" d="M83.954,352.035s20.423,20.545,28.409,21.909L142.415,353.8" transform="translate(-44.747 -284.99)" fill="none" stroke="#aa4451" stroke-miterlimit="10" stroke-width="1"/>
          <path id="Trazado_152728" data-name="Trazado 152728" d="M101.346,389.5s8.852-19.575,4.082-30.092-11.607-4.346-13.756,4.036-9.085,8.647-9.088-4.573,2.489-18.8-1.278-23.17-6.716.336-11.594,8.838-4.361-6.268-11-15.947-13.544,1.369-9.257,10.307,13.788,16.089,7.824,17.151-15.689-8.364-16.865-.41S66.9,371.317,69.63,377.07s-19.366-3.4-19.534,4.136S75.633,401.971,87.269,400,101.346,389.5,101.346,389.5Z" transform="translate(-40.376 -282.261)" fill="#ff6a76"/>
          <path id="Trazado_152729" data-name="Trazado 152729" d="M56.3,335.541s33.691,54.136,40.784,70.949" transform="translate(-41.974 -283.335)" fill="none" stroke="#aa4451" stroke-miterlimit="10" stroke-width="1"/>
          <path id="Trazado_152730" data-name="Trazado 152730" d="M50.168,362.3l23.7,4.223,4.873-20.379" transform="translate(-41.359 -284.399)" fill="none" stroke="#aa4451" stroke-miterlimit="10" stroke-width="1"/>
          <path id="Trazado_152731" data-name="Trazado 152731" d="M64.088,389.053,89.4,393.435l10.433-22.98" transform="translate(-42.755 -286.837)" fill="none" stroke="#aa4451" stroke-miterlimit="10" stroke-width="1"/>
        </g>
        <g id="Grupo_103501" data-name="Grupo 103501" transform="translate(42.895 121.053)">
          <path id="Trazado_152732" data-name="Trazado 152732" d="M91.411,414.4h42.82l-3.678,21.614H95.877Z" transform="translate(-88.39 -412.297)" fill="#375c93"/>
          <rect id="Rectángulo_36279" data-name="Rectángulo 36279" width="49.256" height="8.078" rx="3.214" fill="#4570b4"/>
        </g>
      </g>
      <g id="Grupo_103503" data-name="Grupo 103503" transform="translate(214.311 217.033)">
        <circle id="Elipse_4783" data-name="Elipse 4783" cx="29.73" cy="29.73" r="29.73" fill="#4570b4" opacity="0.42"/>
        <path id="Trazado_152733" data-name="Trazado 152733" d="M328.015,395.808H290.654a1.852,1.852,0,0,0-1.852,1.852v20.588a1.853,1.853,0,0,0,1.852,1.853h37.361a1.853,1.853,0,0,0,1.852-1.853V397.66A1.852,1.852,0,0,0,328.015,395.808Zm.553,2.97-17.544,11.471a.9.9,0,0,1-.492.147.893.893,0,0,1-.44-.115l-20.437-11.471a.9.9,0,1,1,.88-1.569l19.962,11.2,17.087-11.172a.9.9,0,0,1,.984,1.506Z" transform="translate(-279.605 -377.06)" fill="#fff"/>
        <circle id="Elipse_4784" data-name="Elipse 4784" cx="11.018" cy="11.018" r="11.018" transform="translate(41.66 4.487)" fill="#ffa9b3"/>
      </g>
    </g>
  </g>
</svg>
