<svg id="grupo" xmlns="http://www.w3.org/2000/svg" width="53" height="53" viewBox="0 0 53 53">
  <path id="Trazado_157060" data-name="Trazado 157060" d="M35.9,26.5V21.508a3.7,3.7,0,0,0-.71-2.188,3.75,3.75,0,0,0-1.855-1.368l-.71-.71.137-.145,5.7-1.71a3.162,3.162,0,0,0,2.565,1.71,3.162,3.162,0,0,0,2.565-1.71l6.112,1.829A3.429,3.429,0,0,1,52.145,20.5v6.856H46.161V26.5a5.129,5.129,0,0,0-10.258,0Zm0,0" fill="#ff826e"/>
  <path id="Trazado_157061" data-name="Trazado 157061" d="M17.1,23.6v2.9a5.129,5.129,0,0,0-10.258,0v.855H.855V20.5a3.429,3.429,0,0,1,2.436-3.282L9.4,15.387a3.162,3.162,0,0,0,2.565,1.71,3.162,3.162,0,0,0,2.565-1.71l5.411,1.624A9.024,9.024,0,0,0,17.1,23.6Zm0,0" fill="#ff826e"/>
  <path id="Trazado_157062" data-name="Trazado 157062" d="M47.016,47.871H42.742a1.715,1.715,0,0,0-1.71,1.71V44.255a5.128,5.128,0,0,0-3.975-4.992l-5.334-1.231-.034-.009a3.567,3.567,0,0,1,.667-.291L38.468,35.9a3.162,3.162,0,0,0,2.565,1.71A3.162,3.162,0,0,0,43.6,35.9l6.112,1.829a3.429,3.429,0,0,1,2.436,3.282v6.856Zm0,0" fill="#b4dd7f"/>
  <path id="Trazado_157063" data-name="Trazado 157063" d="M21.285,38.032l-5.343,1.231a5.128,5.128,0,0,0-3.975,4.992v5.326a1.715,1.715,0,0,0-1.71-1.71H.855V41.015a3.429,3.429,0,0,1,2.436-3.282L9.4,35.9a3.162,3.162,0,0,0,2.565,1.71,3.162,3.162,0,0,0,2.565-1.71l6.112,1.829a3.567,3.567,0,0,1,.667.291Zm0,0" fill="#b4dd7f"/>
  <path id="Trazado_157064" data-name="Trazado 157064" d="M17.952,52.145H11.968v-7.89a5.128,5.128,0,0,1,3.975-4.992l5.343-1.231,1.8-.419h6.839l1.8.436.008-.017,5.334,1.231a5.128,5.128,0,0,1,3.975,4.992v7.89Zm0,0" fill="#e6e9ed"/>
  <path id="Trazado_157065" data-name="Trazado 157065" d="M28.21,44.452l.855,7.694H23.935l.855-7.694Zm0,0" fill="#ff826e"/>
  <path id="Trazado_157066" data-name="Trazado 157066" d="M29.141,41.759l-.077.128-.855,2.565H24.79l-.855-2.565-.077-.128L26.5,40.177Zm0,0" fill="#ff826e"/>
  <path id="Trazado_157067" data-name="Trazado 157067" d="M31.689,38.023l.034.009-.008.017-.94,4.693-1.633-.983L26.5,40.177l3.419-2.565Zm0,0" fill="#ccd1d9"/>
  <path id="Trazado_157068" data-name="Trazado 157068" d="M21.311,38.023l1.769-.41L26.5,40.177l-2.641,1.582-1.633.983-.94-4.71Zm0,0" fill="#ccd1d9"/>
  <path id="Trazado_157069" data-name="Trazado 157069" d="M46.161,5.984v.855H44.8a2.919,2.919,0,0,1-2.06-.855,2.918,2.918,0,0,1-2.06.855H35.9V5.984a5.129,5.129,0,0,1,10.258,0Zm0,0" fill="#b27946"/>
  <path id="Trazado_157070" data-name="Trazado 157070" d="M17.1,6.839H12.318a2.919,2.919,0,0,1-2.06-.855,2.918,2.918,0,0,1-2.06.855H6.839V5.984a5.129,5.129,0,0,1,10.258,0Zm0,0" fill="#b27946"/>
  <path id="Trazado_157071" data-name="Trazado 157071" d="M38.468,12.985a5.095,5.095,0,0,0,5.129,0v2.4a3.162,3.162,0,0,1-2.565,1.71,3.162,3.162,0,0,1-2.565-1.71Zm0,0" fill="#f0d0b4"/>
  <path id="Trazado_157072" data-name="Trazado 157072" d="M43.6,12.985a5.095,5.095,0,0,1-5.129,0A5.115,5.115,0,0,1,35.9,8.548V6.839h4.778a2.919,2.919,0,0,0,2.06-.855,2.918,2.918,0,0,0,2.06.855h1.359v1.71a5.082,5.082,0,0,1-1.5,3.625,4.924,4.924,0,0,1-1.06.812Zm0,0" fill="#f0d0b4"/>
  <path id="Trazado_157073" data-name="Trazado 157073" d="M9.4,12.985l2.565.692a5.006,5.006,0,0,0,2.565-.692v2.4a3.162,3.162,0,0,1-2.565,1.71A3.162,3.162,0,0,1,9.4,15.387Zm0,0" fill="#f0d0b4"/>
  <path id="Trazado_157074" data-name="Trazado 157074" d="M14.532,12.985a5.006,5.006,0,0,1-2.565.692L9.4,12.985a4.924,4.924,0,0,1-1.06-.812,5.082,5.082,0,0,1-1.5-3.625V6.839H8.2a2.919,2.919,0,0,0,2.06-.855,2.918,2.918,0,0,0,2.06.855H17.1v1.71a5.115,5.115,0,0,1-2.565,4.437Zm0,0" fill="#f0d0b4"/>
  <path id="Trazado_157075" data-name="Trazado 157075" d="M39.323,26.5a2.918,2.918,0,0,1-2.06.855H35.9V26.5a5.129,5.129,0,1,1,10.258,0v.855H41.383a2.919,2.919,0,0,1-2.06-.855Zm0,0" fill="#b27946"/>
  <path id="Trazado_157076" data-name="Trazado 157076" d="M15.738,27.355a2.919,2.919,0,0,1-2.06-.855,2.918,2.918,0,0,1-2.06.855H6.839V26.5a5.129,5.129,0,0,1,10.258,0v.855Zm0,0" fill="#b27946"/>
  <path id="Trazado_157077" data-name="Trazado 157077" d="M19.943,17.011a9.048,9.048,0,0,1,9.694-1.786,9.152,9.152,0,0,1,2.941,1.966l.761.761a3.75,3.75,0,0,1,1.855,1.368,3.7,3.7,0,0,1,.71,2.188v6.7c0-.111-.008-.222-.017-.334a3.5,3.5,0,0,0-3.4-3.078.848.848,0,0,0-.145-.008H30.774l-.855-1.71a10.211,10.211,0,0,1-5.65,1.71H20.661a.848.848,0,0,0-.145.008,3.5,3.5,0,0,0-3.4,3.078c-.009.111-.017.222-.017.334V23.6a9.024,9.024,0,0,1,2.847-6.591Zm0,0" fill="#fcd770"/>
  <g id="Grupo_108757" data-name="Grupo 108757">
    <path id="Trazado_157078" data-name="Trazado 157078" d="M38.468,33.5a5.095,5.095,0,0,0,5.129,0v2.4a3.162,3.162,0,0,1-2.565,1.71,3.162,3.162,0,0,1-2.565-1.71Zm0,0" fill="#f0d0b4"/>
    <path id="Trazado_157079" data-name="Trazado 157079" d="M9.4,33.5l2.565.692a5.006,5.006,0,0,0,2.565-.692v2.4a3.162,3.162,0,0,1-2.565,1.71A3.162,3.162,0,0,1,9.4,35.9Zm0,0" fill="#f0d0b4"/>
    <path id="Trazado_157080" data-name="Trazado 157080" d="M14.532,33.5a5.006,5.006,0,0,1-2.565.692L9.4,33.5a4.924,4.924,0,0,1-1.06-.812,5.082,5.082,0,0,1-1.5-3.625v-1.71h4.778a2.919,2.919,0,0,0,2.06-.855,2.918,2.918,0,0,0,2.06.855H17.1v1.71A5.115,5.115,0,0,1,14.532,33.5Zm0,0" fill="#f0d0b4"/>
    <path id="Trazado_157081" data-name="Trazado 157081" d="M38.468,33.5A5.115,5.115,0,0,1,35.9,29.065v-1.71h1.359a2.919,2.919,0,0,0,2.06-.855,2.918,2.918,0,0,0,2.06.855h4.778v1.71a5.082,5.082,0,0,1-1.5,3.625,4.924,4.924,0,0,1-1.06.812,5.095,5.095,0,0,1-5.129,0Zm0,0" fill="#f0d0b4"/>
    <path id="Trazado_157082" data-name="Trazado 157082" d="M23.081,37.613V35.048l.077-.162c2.522.975,2.932,1.017,3.343,1.017a5.959,5.959,0,0,0,3.343-1.017l.077.162v2.565L26.5,40.177Zm0,0" fill="#f0d0b4"/>
    <path id="Trazado_157083" data-name="Trazado 157083" d="M35.9,28.21v.008a3.417,3.417,0,0,1-3.419,3.411l-.231-.06a5.827,5.827,0,0,0,.231-1.65V24.8a3.5,3.5,0,0,1,3.4,3.078c.009.111.017.222.017.334Zm0,0" fill="#f0d0b4"/>
    <path id="Trazado_157084" data-name="Trazado 157084" d="M20.516,29.919a5.827,5.827,0,0,0,.231,1.65l-.231.06A3.417,3.417,0,0,1,17.1,28.218V28.21c0-.111.008-.222.017-.334a3.5,3.5,0,0,1,3.4-3.078Zm0,0" fill="#f0d0b4"/>
    <path id="Trazado_157085" data-name="Trazado 157085" d="M32.484,24.8v5.121a5.827,5.827,0,0,1-.231,1.65A5.975,5.975,0,0,1,26.5,35.9c-.41,0-.821-.043-3.343-1.017a6.2,6.2,0,0,1-.889-.735,5.954,5.954,0,0,1-1.521-2.582,5.827,5.827,0,0,1-.231-1.65V24.8a.848.848,0,0,1,.145-.008h3.608a10.211,10.211,0,0,0,5.65-1.71l.855,1.71h1.564a.848.848,0,0,1,.145.008Zm0,0" fill="#f0d0b4"/>
  </g>
  <path id="Trazado_157086" data-name="Trazado 157086" d="M53,27.355V20.5A4.248,4.248,0,0,0,49.954,16.4l-5.5-1.651v-1.3a5.977,5.977,0,0,0,2.565-4.9V5.984a5.984,5.984,0,0,0-11.968,0V8.548a5.975,5.975,0,0,0,2.565,4.9v1.3l-4.849,1.455a9.879,9.879,0,0,0-13.029-.149l-4.348-1.3v-1.3a5.977,5.977,0,0,0,2.565-4.9V5.984a5.984,5.984,0,0,0-11.968,0V8.548a5.975,5.975,0,0,0,2.565,4.9v1.3L3.046,16.4A4.25,4.25,0,0,0,0,20.5v6.859H1.71V20.5A2.547,2.547,0,0,1,3.537,18.04l5.5-1.652a3.718,3.718,0,0,0,2.926,1.564,3.718,3.718,0,0,0,2.926-1.564L18.4,17.439a9.867,9.867,0,0,0-2.079,4.967A5.976,5.976,0,0,0,5.984,26.5v2.565a5.975,5.975,0,0,0,2.565,4.9v1.3l-5.5,1.651A4.25,4.25,0,0,0,0,41.012v7.714H10.258a.856.856,0,0,1,.855.855V53H41.887V49.581a.856.856,0,0,1,.855-.855H53V41.012a4.248,4.248,0,0,0-3.046-4.094l-5.5-1.651v-1.3a5.977,5.977,0,0,0,2.565-4.9V26.5a5.979,5.979,0,0,0-10.258-4.18v-.81A4.6,4.6,0,0,0,34.409,17.5l3.7-1.11a3.52,3.52,0,0,0,5.852,0l5.505,1.652A2.548,2.548,0,0,1,51.29,20.5v6.859ZM11.968,1.71a4.279,4.279,0,0,1,4.274,4.274h-3.92a2.078,2.078,0,0,1-1.459-.6l-.6-.6-.6.6a2.078,2.078,0,0,1-1.459.6h-.5A4.279,4.279,0,0,1,11.968,1.71ZM7.694,8.548V7.694h.5a3.744,3.744,0,0,0,2.064-.613,3.744,3.744,0,0,0,2.064.613h3.92v.855a4.274,4.274,0,1,1-8.548,0Zm4.274,7.694a2.187,2.187,0,0,1-1.71-1.09v-.871a5.933,5.933,0,0,0,3.419,0v.871A2.184,2.184,0,0,1,11.968,16.242Zm23.5,15a6.01,6.01,0,0,0,2.148,2.723v1.3l-5.5,1.651a4.2,4.2,0,0,0-.529.2l-.808-.186V35.249a6.875,6.875,0,0,0,2.076-2.8,4.257,4.257,0,0,0,2.615-1.2ZM26.5,36.758a6.792,6.792,0,0,0,2.565-.5v.931L26.5,39.109l-2.565-1.923v-.931a6.792,6.792,0,0,0,2.565.5Zm-3.614,1.777L24.97,40.1l-2.144,1.286-.542-2.711Zm2.67,6.771h1.889l.665,5.984H24.89Zm2.038-1.71H25.406l-.491-1.472,1.585-.95,1.584.95Zm.437-3.5,2.084-1.564.6.139-.542,2.711Zm6.352-10.164a2.564,2.564,0,0,1-1.08.691,6.932,6.932,0,0,0,.037-.706V25.829a2.581,2.581,0,0,1,1.7,2.125,2.55,2.55,0,0,1-.654,1.981Zm-2.753-.015a5.129,5.129,0,1,1-10.258,0V25.645h2.9a10.994,10.994,0,0,0,5.3-1.353l.676,1.353h1.383ZM19.7,30.626a2.527,2.527,0,0,1-.037-4.8v4.09a6.933,6.933,0,0,0,.037.706Zm.452,1.82a6.86,6.86,0,0,0,2.076,2.8v1.684l-.808.186a4.423,4.423,0,0,0-.528-.2l-5.5-1.651v-1.3a6.015,6.015,0,0,0,2.148-2.723,4.257,4.257,0,0,0,2.615,1.2Zm-8.182-10.22A4.279,4.279,0,0,1,16.242,26.5h-.5a2.078,2.078,0,0,1-1.459-.6l-.6-.6-.6.6a2.078,2.078,0,0,1-1.459.6H7.694a4.279,4.279,0,0,1,4.274-4.274ZM7.694,29.065V28.21h3.92a3.744,3.744,0,0,0,2.064-.613,3.744,3.744,0,0,0,2.064.613h.5v.855a4.274,4.274,0,0,1-8.548,0Zm4.274,5.984a5.948,5.948,0,0,0,1.71-.252v.871a2.184,2.184,0,0,1-1.71,1.091,2.187,2.187,0,0,1-1.71-1.09V34.8A5.977,5.977,0,0,0,11.968,35.048Zm-1.71,11.968H6.839V41.032H5.129v5.984H1.71v-6a2.547,2.547,0,0,1,1.828-2.456l5.5-1.652a3.718,3.718,0,0,0,2.926,1.564A3.718,3.718,0,0,0,14.894,36.9l3.242.973-2.384.55a5.957,5.957,0,0,0-4.638,5.831v1.049h1.71V44.258a4.256,4.256,0,0,1,3.313-4.165l4.481-1.034,1.008,5.04,1.789-1.073.506,1.518L23.17,51.29H18.806V44.452H17.1V51.29H12.823v-1.71a2.568,2.568,0,0,0-2.565-2.565Zm39.2-8.46a2.547,2.547,0,0,1,1.828,2.456v6H47.871V41.032h-1.71v5.984H42.742a2.568,2.568,0,0,0-2.565,2.565v1.71H35.9V44.452h-1.71V51.29H29.83l-.75-6.746.506-1.518L31.374,44.1l1.008-5.04,4.482,1.034a4.256,4.256,0,0,1,3.313,4.165v1.049h1.71V44.258a5.957,5.957,0,0,0-4.638-5.831l-2.384-.55,3.242-.973a3.52,3.52,0,0,0,5.852,0Zm-6.721-2.888a1.886,1.886,0,0,1-3.419,0V34.8a5.923,5.923,0,0,0,3.419,0Zm-1.71-2.33a4.279,4.279,0,0,1-4.274-4.274V28.21h.5a3.744,3.744,0,0,0,2.064-.613,3.744,3.744,0,0,0,2.064.613h3.92v.855A4.279,4.279,0,0,1,41.032,33.339Zm0-11.113A4.279,4.279,0,0,1,45.307,26.5h-3.92a2.078,2.078,0,0,1-1.459-.6l-.6-.6-.6.6a2.078,2.078,0,0,1-1.459.6h-.5a4.279,4.279,0,0,1,4.274-4.274Zm-5.984,2.637a4.491,4.491,0,0,0-2.711-.927H31.3l-1.051-2.1-.806.537a9.294,9.294,0,0,1-5.172,1.566h-3.61a4.491,4.491,0,0,0-2.711.927V23.6A8.212,8.212,0,0,1,31.97,17.792l.907.907.192.064a2.892,2.892,0,0,1,1.98,2.746ZM41.032,1.71a4.279,4.279,0,0,1,4.274,4.274h-.5a2.078,2.078,0,0,1-1.459-.6l-.6-.6-.6.6a2.078,2.078,0,0,1-1.459.6h-3.92A4.279,4.279,0,0,1,41.032,1.71ZM36.758,8.548V7.694h3.92a3.744,3.744,0,0,0,2.064-.613,3.744,3.744,0,0,0,2.064.613h.5v.855a4.274,4.274,0,0,1-8.548,0Zm4.274,7.694a2.186,2.186,0,0,1-1.71-1.09V14.28a5.923,5.923,0,0,0,3.419,0v.871a2.184,2.184,0,0,1-1.71,1.091Zm0,0"/>
  <path id="Trazado_157087" data-name="Trazado 157087" d="M19.661,0h1.71V1.71h-1.71Zm0,0"/>
  <path id="Trazado_157088" data-name="Trazado 157088" d="M19.661,3.419h1.71v9.4h-1.71Zm0,0"/>
  <path id="Trazado_157089" data-name="Trazado 157089" d="M31.629,0h1.71V1.71h-1.71Zm0,0"/>
  <path id="Trazado_157090" data-name="Trazado 157090" d="M31.629,3.419h1.71v9.4h-1.71Zm0,0"/>
  <path id="Trazado_157091" data-name="Trazado 157091" d="M23.081,3.419h1.71V9.4h-1.71Zm0,0"/>
  <path id="Trazado_157092" data-name="Trazado 157092" d="M23.081,11.113h1.71v1.71h-1.71Zm0,0"/>
  <path id="Trazado_157093" data-name="Trazado 157093" d="M28.21,3.419h1.71V9.4H28.21Zm0,0"/>
  <path id="Trazado_157094" data-name="Trazado 157094" d="M28.21,11.113h1.71v1.71H28.21Zm0,0"/>
</svg>
