<svg xmlns="http://www.w3.org/2000/svg" width="124.945" height="105.439" viewBox="0 0 124.945 105.439">
  <g id="Grupo_108940" data-name="Grupo 108940" transform="translate(-157.691 -11173.457)">
    <g id="Grupo_99206" data-name="Grupo 99206" transform="translate(0 6624.457)">
      <g id="Grupo_98723" data-name="Grupo 98723" transform="translate(68.79 4549)">
        <g id="Grupo_98687" data-name="Grupo 98687" transform="translate(179.712 90.895)">
          <g id="Grupo_98685" data-name="Grupo 98685" transform="translate(0 2.793)">
            <path id="Trazado_150424" data-name="Trazado 150424" d="M339.626,219.069h-5.112a.863.863,0,0,1,0-1.719h5.112a.863.863,0,0,1,0,1.719Z" transform="translate(-333.727 -217.35)" fill="#fff"/>
          </g>
          <g id="Grupo_98686" data-name="Grupo 98686" transform="translate(2.555)">
            <path id="Trazado_150425" data-name="Trazado 150425" d="M338.533,220.633a.825.825,0,0,1-.786-.86v-5.585a.79.79,0,1,1,1.573,0v5.585A.826.826,0,0,1,338.533,220.633Z" transform="translate(-337.747 -213.329)" fill="#fff"/>
          </g>
        </g>
        <g id="Grupo_98690" data-name="Grupo 98690" transform="translate(196.21 22.189)">
          <g id="Grupo_98688" data-name="Grupo 98688" transform="translate(0 2.793)">
            <path id="Trazado_150426" data-name="Trazado 150426" d="M712.078,104.031h-5.112a.863.863,0,0,1,0-1.719h5.112a.863.863,0,0,1,0,1.719Z" transform="translate(-706.179 -102.312)" fill="#fff"/>
          </g>
          <g id="Grupo_98689" data-name="Grupo 98689" transform="translate(2.556)">
            <path id="Trazado_150427" data-name="Trazado 150427" d="M710.986,105.6a.825.825,0,0,1-.786-.859V99.15a.79.79,0,1,1,1.573,0v5.586A.825.825,0,0,1,710.986,105.6Z" transform="translate(-710.2 -98.291)" fill="#fff"/>
          </g>
        </g>
        <g id="Grupo_98693" data-name="Grupo 98693" transform="translate(88.902 35.753)">
          <g id="Grupo_98691" data-name="Grupo 98691" transform="translate(0 3.31)">
            <path id="Trazado_150428" data-name="Trazado 150428" d="M404.11,101.938h-6.06a.6.6,0,0,1,0-1.19h6.06a.6.6,0,0,1,0,1.19Z" transform="translate(-397.506 -100.748)" fill="#fff"/>
          </g>
          <g id="Grupo_98692" data-name="Grupo 98692" transform="translate(3.03)">
            <path id="Trazado_150429" data-name="Trazado 150429" d="M402.817,103.792a.572.572,0,0,1-.545-.6v-6.62a.547.547,0,1,1,1.089,0v6.62A.571.571,0,0,1,402.817,103.792Z" transform="translate(-402.272 -95.982)" fill="#fff"/>
          </g>
        </g>
        <g id="Grupo_98699" data-name="Grupo 98699" transform="translate(141.554 18.537)" opacity="0.3">
          <g id="Grupo_98697" data-name="Grupo 98697" transform="translate(0 2.793)">
            <path id="Trazado_150432" data-name="Trazado 150432" d="M495.529,83.441h-5.112a.863.863,0,0,1,0-1.719h5.112a.863.863,0,0,1,0,1.719Z" transform="translate(-489.63 -81.722)" fill="#fff"/>
          </g>
          <g id="Grupo_98698" data-name="Grupo 98698" transform="translate(2.555)">
            <path id="Trazado_150433" data-name="Trazado 150433" d="M494.437,85.005a.826.826,0,0,1-.787-.86V78.56a.79.79,0,1,1,1.573,0v5.585A.826.826,0,0,1,494.437,85.005Z" transform="translate(-493.65 -77.701)" fill="#fff"/>
          </g>
        </g>
        <g id="Grupo_98702" data-name="Grupo 98702" transform="translate(106.499 100.293)">
          <g id="Grupo_98700" data-name="Grupo 98700" transform="translate(0 1.968)">
            <path id="Trazado_150434" data-name="Trazado 150434" d="M430.737,239.217h-3.6a.608.608,0,0,1,0-1.21h3.6a.608.608,0,0,1,0,1.21Z" transform="translate(-426.581 -238.007)" fill="#fff"/>
          </g>
          <g id="Grupo_98701" data-name="Grupo 98701" transform="translate(1.801)">
            <path id="Trazado_150435" data-name="Trazado 150435" d="M429.968,240.32a.582.582,0,0,1-.554-.6v-3.936a.556.556,0,1,1,1.109,0v3.936A.581.581,0,0,1,429.968,240.32Z" transform="translate(-429.414 -235.174)" fill="#fff"/>
          </g>
        </g>
        <g id="Grupo_98705" data-name="Grupo 98705" transform="translate(197.802 0.188)" opacity="0.3">
          <g id="Grupo_98703" data-name="Grupo 98703" transform="translate(0 1.397)">
            <path id="Trazado_150436" data-name="Trazado 150436" d="M571.766,47.642H569.21a.431.431,0,0,1,0-.859h2.556a.431.431,0,0,1,0,.859Z" transform="translate(-568.816 -46.783)" fill="#fff"/>
          </g>
          <g id="Grupo_98704" data-name="Grupo 98704" transform="translate(1.278)">
            <path id="Trazado_150437" data-name="Trazado 150437" d="M571.221,48.424a.413.413,0,0,1-.393-.43V45.2a.395.395,0,1,1,.787,0v2.793A.413.413,0,0,1,571.221,48.424Z" transform="translate(-570.827 -44.772)" fill="#fff"/>
          </g>
        </g>
        <g id="Grupo_98706" data-name="Grupo 98706" transform="translate(113.608 12.943)">
          <path id="Trazado_150438" data-name="Trazado 150438" d="M449.305,77.59a3.988,3.988,0,1,1,3.635-3.972A3.819,3.819,0,0,1,449.305,77.59Zm0-6.477a2.515,2.515,0,1,0,2.293,2.505A2.409,2.409,0,0,0,449.305,71.113Z" transform="translate(-445.669 -69.646)" fill="#fff"/>
        </g>
        <g id="Grupo_98707" data-name="Grupo 98707" transform="translate(210.21 81.559)">
          <path id="Trazado_150439" data-name="Trazado 150439" d="M714.982,238.211a1.994,1.994,0,1,1,1.818-1.986A1.91,1.91,0,0,1,714.982,238.211Zm0-3.238a1.257,1.257,0,1,0,1.146,1.253A1.2,1.2,0,0,0,714.982,234.972Z" transform="translate(-713.164 -234.239)" fill="#fff"/>
        </g>
        <g id="Grupo_98708" data-name="Grupo 98708" transform="translate(172.441)">
          <path id="Trazado_150440" data-name="Trazado 150440" d="M527.907,107.307a3.988,3.988,0,1,1,3.636-3.972A3.82,3.82,0,0,1,527.907,107.307Zm0-6.478a2.515,2.515,0,1,0,2.294,2.506A2.409,2.409,0,0,0,527.907,100.83Z" transform="translate(-524.272 -99.363)" fill="#fff"/>
        </g>
        <g id="Grupo_98712" data-name="Grupo 98712" transform="translate(205.131 66.547)">
          <path id="Trazado_150444" data-name="Trazado 150444" d="M726.036,186.188a2.786,2.786,0,1,1,2.54-2.775A2.668,2.668,0,0,1,726.036,186.188Zm0-5.121a2.354,2.354,0,1,0,2.147,2.345A2.255,2.255,0,0,0,726.036,181.067Z" transform="translate(-723.496 -180.638)" fill="#fff"/>
        </g>
        <g id="Grupo_98714" data-name="Grupo 98714" transform="translate(92.732 60.251)">
          <path id="Trazado_150446" data-name="Trazado 150446" d="M629.751,96.117a.3.3,0,0,1-.111-.022,10.3,10.3,0,0,1-.987-.464.363.363,0,0,1-.146-.465.308.308,0,0,1,.426-.159,9.606,9.606,0,0,0,.928.436.357.357,0,0,1,.188.447A.321.321,0,0,1,629.751,96.117Zm-3.088-1.956a.3.3,0,0,1-.2-.078,12.621,12.621,0,0,1-1.819-2.04.368.368,0,0,1,.055-.488.3.3,0,0,1,.446.06,11.989,11.989,0,0,0,1.722,1.931.369.369,0,0,1,.043.489A.305.305,0,0,1,626.663,94.162Zm-9.155-1.74h-.027a6.6,6.6,0,0,1-2.39-.675l-.163-.085a.363.363,0,0,1-.144-.465.308.308,0,0,1,.426-.158l.15.079a6,6,0,0,0,2.174.612.339.339,0,0,1,.29.375A.33.33,0,0,1,617.509,92.422Zm2.528-.186a.326.326,0,0,1-.311-.277.348.348,0,0,1,.247-.41,10.852,10.852,0,0,0,2.349-.833.309.309,0,0,1,.42.177.361.361,0,0,1-.161.458,11.46,11.46,0,0,1-2.48.878A.289.289,0,0,1,620.037,92.236Zm-6.975-2.216a.306.306,0,0,1-.234-.113,10.826,10.826,0,0,1-1.482-2.361.362.362,0,0,1,.137-.467.305.305,0,0,1,.428.15,10.169,10.169,0,0,0,1.385,2.208.37.37,0,0,1-.019.491A.3.3,0,0,1,613.062,90.02Zm11.58-.039a.309.309,0,0,1-.254-.139.369.369,0,0,1,.064-.486,10.618,10.618,0,0,0,1.782-1.854.3.3,0,0,1,.448-.049.37.37,0,0,1,.045.489,11.274,11.274,0,0,1-1.893,1.97A.3.3,0,0,1,624.642,89.981Zm-1.089-.16a.316.316,0,0,1-.286-.2,13.45,13.45,0,0,1-.861-2.69.349.349,0,0,1,.24-.415.316.316,0,0,1,.38.262,12.808,12.808,0,0,0,.814,2.543.361.361,0,0,1-.148.463A.292.292,0,0,1,623.553,89.821Zm4.215-4.134a.3.3,0,0,1-.114-.023.358.358,0,0,1-.183-.449,6.54,6.54,0,0,0,.381-2.163c0-.136-.005-.272-.015-.409a.339.339,0,0,1,.294-.372.327.327,0,0,1,.341.32c.011.153.016.308.016.46a7.3,7.3,0,0,1-.423,2.411A.319.319,0,0,1,627.767,85.687Zm-25.231-.063a9.569,9.569,0,0,1-1.182-.072.341.341,0,0,1-.28-.384.324.324,0,0,1,.352-.306,9.707,9.707,0,0,0,2.463-.024.327.327,0,0,1,.354.3.342.342,0,0,1-.276.386A10.951,10.951,0,0,1,602.536,85.624Zm8.167-.473a.323.323,0,0,1-.306-.253l-.083-.331a20.544,20.544,0,0,1-.429-2.439.342.342,0,0,1,.276-.388.328.328,0,0,1,.355.3,19.951,19.951,0,0,0,.413,2.349l.08.319a.353.353,0,0,1-.22.429A.313.313,0,0,1,610.7,85.151Zm-4.3-.215a.321.321,0,0,1-.3-.243.354.354,0,0,1,.207-.435,14.636,14.636,0,0,0,2.3-1.027.305.305,0,0,1,.427.153.363.363,0,0,1-.141.467,15.171,15.171,0,0,1-2.4,1.07A.308.308,0,0,1,606.407,84.937Zm-7.464-.1a.3.3,0,0,1-.13-.03,7.425,7.425,0,0,1-1.8-1.243q-.2-.185-.381-.382a.37.37,0,0,1,0-.491.3.3,0,0,1,.449,0q.167.18.348.349a6.773,6.773,0,0,0,1.648,1.138.36.36,0,0,1,.16.458A.317.317,0,0,1,598.943,84.839Zm23.515-.39h-.009a.336.336,0,0,1-.309-.358,7.216,7.216,0,0,1,.593-2.835.306.306,0,0,1,.428-.152.363.363,0,0,1,.14.467,6.454,6.454,0,0,0-.524,2.541A.332.332,0,0,1,622.459,84.448Zm-11.518-1.985a.311.311,0,0,1-.262-.151.367.367,0,0,1,.083-.483,21.9,21.9,0,0,0,1.978-1.676.3.3,0,0,1,.449.033.37.37,0,0,1-.031.49A22.416,22.416,0,0,1,611.12,82.4.3.3,0,0,1,610.941,82.463ZM595.375,81.04a.314.314,0,0,1-.284-.192,11.97,11.97,0,0,1-.843-2.706.348.348,0,0,1,.246-.41.32.32,0,0,1,.376.268,11.214,11.214,0,0,0,.79,2.539.363.363,0,0,1-.142.466A.3.3,0,0,1,595.375,81.04Zm-14.2-.18h-.187a.349.349,0,0,1,.007-.695h.178a10.7,10.7,0,0,0,2.285-.268.321.321,0,0,1,.374.272.347.347,0,0,1-.25.408A11.267,11.267,0,0,1,581.172,80.86Zm46.081-.431a.3.3,0,0,1-.219-.1,1.735,1.735,0,0,0-1.279-.52h0a2.391,2.391,0,0,0-.788.138.314.314,0,0,1-.4-.224.355.355,0,0,1,.206-.437,2.968,2.968,0,0,1,.982-.172h0a2.32,2.32,0,0,1,1.718.712.371.371,0,0,1,.01.491A.3.3,0,0,1,627.253,80.429ZM578.5,80.354a.3.3,0,0,1-.115-.024c-.1-.042-.2-.087-.3-.135a6.563,6.563,0,0,1-1.927-1.441.371.371,0,0,1-.005-.491.3.3,0,0,1,.449-.006,5.941,5.941,0,0,0,1.741,1.3c.089.043.179.084.27.122a.359.359,0,0,1,.182.449A.322.322,0,0,1,578.5,80.354Zm7.469-.483a.323.323,0,0,1-.3-.242.355.355,0,0,1,.207-.437c.794-.276,1.595-.585,2.38-.917a.31.31,0,0,1,.411.2.357.357,0,0,1-.181.449c-.8.337-1.61.65-2.417.931A.291.291,0,0,1,585.973,79.872Zm24.1-.213h-.006a.335.335,0,0,1-.311-.354,21.52,21.52,0,0,1,.238-2.813.321.321,0,0,1,.365-.286.344.344,0,0,1,.262.4,21,21,0,0,0-.229,2.715A.333.333,0,0,1,610.07,79.659Zm4.693-.841a.3.3,0,0,1-.214-.09.369.369,0,0,1-.022-.49,23.606,23.606,0,0,0,1.573-2.129.3.3,0,0,1,.444-.081.369.369,0,0,1,.073.485A24.145,24.145,0,0,1,615,78.7.3.3,0,0,1,614.763,78.818Zm-24.051-.954a.317.317,0,0,1-.289-.2.362.362,0,0,1,.156-.461c.758-.381,1.518-.794,2.259-1.227a.3.3,0,0,1,.43.142.364.364,0,0,1-.13.47c-.753.44-1.524.859-2.294,1.246A.3.3,0,0,1,590.712,77.864Zm-15.8-1.257a.317.317,0,0,1-.285-.194,10.222,10.222,0,0,1-.8-2.738.344.344,0,0,1,.264-.4.323.323,0,0,1,.364.288,9.438,9.438,0,0,0,.737,2.538.363.363,0,0,1-.144.465A.3.3,0,0,1,574.91,76.607Zm19.368-.948a.333.333,0,0,1-.318-.339q0-.216,0-.431a22.734,22.734,0,0,1,.131-2.39.324.324,0,0,1,.352-.3.342.342,0,0,1,.28.385,21.726,21.726,0,0,0-.127,2.31q0,.207,0,.415a.335.335,0,0,1-.31.356Zm.914-.417a.313.313,0,0,1-.271-.165.367.367,0,0,1,.1-.478c.713-.479,1.421-.989,2.107-1.515a.3.3,0,0,1,.443.085.368.368,0,0,1-.078.484c-.7.534-1.416,1.051-2.14,1.538A.3.3,0,0,1,595.193,75.243Zm22.523-.933a.3.3,0,0,1-.153-.043.364.364,0,0,1-.125-.472c.257-.51.5-1.033.714-1.556.126-.3.237-.608.329-.906a.312.312,0,0,1,.4-.218.355.355,0,0,1,.2.44c-.1.32-.217.647-.352.972-.223.538-.471,1.078-.736,1.6A.315.315,0,0,1,617.715,74.309Zm-6.822-.114a.284.284,0,0,1-.1-.016.355.355,0,0,1-.208-.436,20.633,20.633,0,0,1,.955-2.626.307.307,0,0,1,.425-.161.363.363,0,0,1,.148.464,19.675,19.675,0,0,0-.922,2.532A.322.322,0,0,1,610.893,74.2Zm-11.54-2.143a.31.31,0,0,1-.249-.131.369.369,0,0,1,.051-.488c.658-.573,1.306-1.172,1.925-1.781a.3.3,0,0,1,.45.026.371.371,0,0,1-.024.49c-.629.619-1.287,1.227-1.955,1.808A.3.3,0,0,1,599.353,72.052ZM574.092,71.2l-.033,0a.34.34,0,0,1-.284-.381,15.246,15.246,0,0,1,.542-2.781.312.312,0,0,1,.4-.226.354.354,0,0,1,.207.435,14.457,14.457,0,0,0-.515,2.644A.33.33,0,0,1,574.092,71.2Zm20.755-1.047a.293.293,0,0,1-.073-.01.35.35,0,0,1-.237-.418,25.727,25.727,0,0,1,.741-2.7.312.312,0,0,1,.408-.207.356.356,0,0,1,.189.445,25.112,25.112,0,0,0-.72,2.622A.325.325,0,0,1,594.847,70.153Zm18.272-.929a.3.3,0,0,1-.187-.067.369.369,0,0,1-.069-.485,6.038,6.038,0,0,1,1.966-1.963.305.305,0,0,1,.429.146.363.363,0,0,1-.133.469,5.423,5.423,0,0,0-1.749,1.758A.309.309,0,0,1,613.119,69.224Zm5.926-.166a.326.326,0,0,1-.31-.277,2.391,2.391,0,0,0-.552-1.167,1.968,1.968,0,0,0-.836-.55.355.355,0,0,1-.206-.436.312.312,0,0,1,.4-.226,2.59,2.59,0,0,1,1.1.727,3.081,3.081,0,0,1,.719,1.512.347.347,0,0,1-.246.41A.3.3,0,0,1,619.045,69.058Zm-15.915-.722a.3.3,0,0,1-.222-.1.369.369,0,0,1,0-.491c.588-.654,1.165-1.336,1.711-2.024a.3.3,0,0,1,.449-.035.37.37,0,0,1,.032.49c-.556.7-1.141,1.391-1.739,2.056A.3.3,0,0,1,603.129,68.337ZM575.58,65.918a.293.293,0,0,1-.142-.037.363.363,0,0,1-.142-.466q.113-.246.231-.488a22.2,22.2,0,0,1,1.074-1.947.3.3,0,0,1,.44-.094.366.366,0,0,1,.086.482c-.376.61-.727,1.245-1.039,1.886q-.114.234-.224.472A.315.315,0,0,1,575.58,65.918Zm21.025-.966a.289.289,0,0,1-.148-.04.364.364,0,0,1-.133-.469,17.7,17.7,0,0,1,1.387-2.391.3.3,0,0,1,.446-.067.369.369,0,0,1,.061.487,16.9,16.9,0,0,0-1.331,2.3A.315.315,0,0,1,596.605,64.952Zm9.8-.851a.292.292,0,0,1-.168-.053.366.366,0,0,1-.1-.478,5.987,5.987,0,0,0,.758-2.029,3.673,3.673,0,0,0,.041-.4.332.332,0,0,1,.335-.327.337.337,0,0,1,.3.366,4.261,4.261,0,0,1-.049.476,6.7,6.7,0,0,1-.844,2.277A.312.312,0,0,1,606.409,64.1Zm-27.995-2.779a.3.3,0,0,1-.209-.086.37.37,0,0,1-.031-.49,22.438,22.438,0,0,1,1.814-2.006.3.3,0,0,1,.449.027.372.372,0,0,1-.024.491,21.473,21.473,0,0,0-1.759,1.945A.307.307,0,0,1,578.414,61.323Zm21.274-.747a.306.306,0,0,1-.239-.119.37.37,0,0,1,.03-.49,10.718,10.718,0,0,1,2.158-1.608.307.307,0,0,1,.428.151.364.364,0,0,1-.138.468,10.032,10.032,0,0,0-2.03,1.513A.3.3,0,0,1,599.688,60.576Zm6.8-1.643a.308.308,0,0,1-.238-.117,1.955,1.955,0,0,0-.777-.591,2.426,2.426,0,0,0-1.257-.111.325.325,0,0,1-.358-.3.344.344,0,0,1,.271-.392,3,3,0,0,1,1.566.149,2.6,2.6,0,0,1,1.03.78.37.37,0,0,1-.027.49A.3.3,0,0,1,606.492,58.933Zm-24.3-1.311a.312.312,0,0,1-.261-.149.368.368,0,0,1,.079-.483,21.282,21.282,0,0,1,2.2-1.473.306.306,0,0,1,.43.144.364.364,0,0,1-.131.469,20.633,20.633,0,0,0-2.134,1.429A.3.3,0,0,1,582.192,57.623Zm4.479-2.6a.319.319,0,0,1-.3-.223.358.358,0,0,1,.183-.449,18.986,18.986,0,0,1,2.466-.836.316.316,0,0,1,.383.256.349.349,0,0,1-.235.419,18.415,18.415,0,0,0-2.388.811A.3.3,0,0,1,586.671,55.02Z" transform="translate(-573.773 -53.502)" fill="#fff"/>
        </g>
      </g>
      <g id="_5.Video" data-name="5.Video" transform="translate(178.98 4561.98)">
        <rect id="Rectángulo_36560" data-name="Rectángulo 36560" width="82.96" height="54.91" rx="5.48" transform="translate(2.04 16.065)" fill="#cfdce5"/>
        <path id="Trazado_157369" data-name="Trazado 157369" d="M81.6,64.469v.092A2.335,2.335,0,0,1,79.266,66.9H46.053a4.412,4.412,0,0,0,0-4.76H79.266A2.335,2.335,0,0,1,81.6,64.469Z" fill="#999"/>
        <path id="Trazado_157370" data-name="Trazado 157370" d="M37.91,64.515a4.38,4.38,0,0,0,.7,2.38H7.82a2.38,2.38,0,0,1,0-4.76H38.607a4.38,4.38,0,0,0-.7,2.38Z" fill="#f7f5fb"/>
        <circle id="Elipse_4935" data-name="Elipse 4935" cx="4.42" cy="4.42" r="4.42" transform="translate(37.91 60.095)" fill="#f17b89"/>
        <path id="Trazado_157371" data-name="Trazado 157371" d="M51.392,42.17,38.028,49.885a3.545,3.545,0,0,1-5.317-3.07V31.385a3.545,3.545,0,0,1,5.317-3.07L51.392,36.03a3.545,3.545,0,0,1,0,6.14Z" fill="#f17b89"/>
        <path id="Trazado_157372" data-name="Trazado 157372" d="M23.083,70.975H7.521A5.48,5.48,0,0,1,2.04,65.493V21.546a5.48,5.48,0,0,1,5.482-5.481h2.649A85.914,85.914,0,0,0,9.69,25.16,84.59,84.59,0,0,0,23.083,70.975Z" fill="#bcc6cc"/>
        <path id="Trazado_157373" data-name="Trazado 157373" d="M20.626,66.9H7.82a2.38,2.38,0,0,1,0-4.76H18.132Q19.305,64.56,20.626,66.9Z" fill="#e4e3e8"/>
        <path id="Trazado_157374" data-name="Trazado 157374" d="M79.519,72h-72a6.508,6.508,0,0,1-6.5-6.5V39.27a1.02,1.02,0,1,1,2.04,0V65.494a4.466,4.466,0,0,0,4.461,4.461h72a4.466,4.466,0,0,0,4.461-4.461V21.546a4.466,4.466,0,0,0-4.461-4.461h-72A4.466,4.466,0,0,0,3.06,21.546V30.43a1.02,1.02,0,1,1-2.04,0V21.546a6.508,6.508,0,0,1,6.5-6.5h72a6.508,6.508,0,0,1,6.5,6.5V65.494A6.508,6.508,0,0,1,79.519,72Z"/>
        <path id="Trazado_157375" data-name="Trazado 157375" d="M2.04,36.72A1.02,1.02,0,0,1,1.02,35.7V34a1.02,1.02,0,0,1,2.04,0v1.7A1.02,1.02,0,0,1,2.04,36.72Z"/>
        <path id="Trazado_157376" data-name="Trazado 157376" d="M79.266,67.915H46.053a1.02,1.02,0,0,1-.858-1.572,3.392,3.392,0,0,0,0-3.656,1.02,1.02,0,0,1,.858-1.572H79.266a3.358,3.358,0,0,1,3.354,3.354v.092A3.358,3.358,0,0,1,79.266,67.915ZM47.6,65.875H79.266a1.316,1.316,0,0,0,1.314-1.314v-.092a1.316,1.316,0,0,0-1.314-1.314H47.6a5.464,5.464,0,0,1,0,2.72Z"/>
        <path id="Trazado_157377" data-name="Trazado 157377" d="M38.607,67.915H7.82a3.4,3.4,0,1,1,0-6.8H38.607a1.02,1.02,0,0,1,.858,1.572,3.392,3.392,0,0,0,0,3.656,1.02,1.02,0,0,1-.858,1.572ZM7.82,63.155a1.36,1.36,0,0,0,0,2.72H37.062a5.464,5.464,0,0,1,0-2.72Z"/>
        <path id="Trazado_157378" data-name="Trazado 157378" d="M42.33,69.955a5.44,5.44,0,1,1,5.44-5.44,5.44,5.44,0,0,1-5.44,5.44Zm0-8.84a3.4,3.4,0,1,0,3.4,3.4,3.4,3.4,0,0,0-3.4-3.4Z"/>
        <path id="Trazado_157379" data-name="Trazado 157379" d="M36.256,51.387a4.582,4.582,0,0,1-4.565-4.572V31.385a4.565,4.565,0,0,1,6.847-3.953L51.9,35.147a4.565,4.565,0,0,1,0,7.906L38.538,50.768A4.555,4.555,0,0,1,36.256,51.387Zm0-22.531a2.534,2.534,0,0,0-2.525,2.529v15.43A2.525,2.525,0,0,0,37.518,49l13.363-7.715a2.525,2.525,0,0,0,0-4.373L37.518,29.2a2.519,2.519,0,0,0-1.262-.342Z"/>
      </g>
    </g>
  </g>
</svg>
