<svg xmlns="http://www.w3.org/2000/svg" width="60" height="60" viewBox="0 0 60 60">
  <g id="Grupo_108946" data-name="Grupo 108946" transform="translate(-1020 -13209.457)">
    <circle id="Elipse_4801" data-name="Elipse 4801" cx="30" cy="30" r="30" transform="translate(1020 13209.457)" fill="#ff6d60"/>
    <path id="Trazado_157653" data-name="Trazado 157653" d="M4.541-21.636v3.882h-.22A7.411,7.411,0,0,0-.227-16.428a5.6,5.6,0,0,0-2.19,3.684A5.773,5.773,0,0,1,1.8-14.385a5.385,5.385,0,0,1,4.409,2.021,8.153,8.153,0,0,1,1.641,5.3,7.466,7.466,0,0,1-.959,3.735A6.846,6.846,0,0,1,4.211-.667,7.7,7.7,0,0,1,.4.293,7.961,7.961,0,0,1-3.662-.74,7.1,7.1,0,0,1-6.445-3.691,9.719,9.719,0,0,1-7.471-8.115v-1.978a12.312,12.312,0,0,1,1.414-5.925,10.248,10.248,0,0,1,4.036-4.124,11.538,11.538,0,0,1,5.815-1.494ZM.088-10.605a2.824,2.824,0,0,0-1.641.454,2.883,2.883,0,0,0-.981,1.113v1.479q0,4.043,2.8,4.043A2.27,2.27,0,0,0,2.146-4.526,4.119,4.119,0,0,0,2.9-7.061a4.043,4.043,0,0,0-.769-2.556A2.46,2.46,0,0,0,.088-10.605Z" transform="translate(1049.5 13250.457)" fill="#fff"/>
  </g>
</svg>
