<svg xmlns="http://www.w3.org/2000/svg" width="60" height="60" viewBox="0 0 60 60">
  <g id="Grupo_108945" data-name="Grupo 108945" transform="translate(-600 -13209.457)">
    <circle id="Elipse_4802" data-name="Elipse 4802" cx="30" cy="30" r="30" transform="translate(600 13209.457)" fill="#ff6d60"/>
    <path id="Trazado_157654" data-name="Trazado 157654" d="M-7.09-10.418l1.3-10.91H6.68v3.838H-1.772l-.483,4.237A5.822,5.822,0,0,1-.872-13.8a6.316,6.316,0,0,1,1.677-.235,6.257,6.257,0,0,1,4.885,1.882A7.582,7.582,0,0,1,7.4-6.87a7.569,7.569,0,0,1-.916,3.713A6.293,6.293,0,0,1,3.911-.6,8.116,8.116,0,0,1,0,.293,8.733,8.733,0,0,1-3.765-.534,6.754,6.754,0,0,1-6.519-2.8,5.513,5.513,0,0,1-7.5-6.059h4.951A2.8,2.8,0,0,0-1.8-4.2a2.371,2.371,0,0,0,1.772.687q2.49,0,2.49-3.684,0-3.406-3.047-3.406A3.04,3.04,0,0,0-3.164-9.494Z" transform="translate(629.5 13250.457)" fill="#fff"/>
  </g>
</svg>
