<svg xmlns="http://www.w3.org/2000/svg" width="60" height="60" viewBox="0 0 60 60">
  <g id="Grupo_108942" data-name="Grupo 108942" transform="translate(-600 -13052.457)">
    <circle id="Elipse_4799" data-name="Elipse 4799" cx="30" cy="30" r="30" transform="translate(600 13052.457)" fill="#ff6d60"/>
    <path id="Trazado_157651" data-name="Trazado 157651" d="M7.5,0H-7.383V-3.223L-.527-10.43q2.534-2.886,2.534-4.585a3.189,3.189,0,0,0-.6-2.095,2.144,2.144,0,0,0-1.743-.718,2.171,2.171,0,0,0-1.831.959,3.943,3.943,0,0,0-.7,2.4H-7.822A7,7,0,0,1-6.841-18.1a6.882,6.882,0,0,1,2.725-2.6,8.094,8.094,0,0,1,3.9-.937,7.962,7.962,0,0,1,5.325,1.6,5.7,5.7,0,0,1,1.868,4.585A6.658,6.658,0,0,1,6.5-13a10.76,10.76,0,0,1-1.458,2.5A36.715,36.715,0,0,1,1.86-6.987L-.894-3.809H7.5Z" transform="translate(629.5 13093.457)" fill="#fff"/>
  </g>
</svg>
