<svg xmlns="http://www.w3.org/2000/svg" width="1108.161" height="497.659" viewBox="0 0 1108.161 497.659">
  <g id="Grupo_108935" data-name="Grupo 108935" transform="translate(-6847 8806.536)">
    <g id="Grupo_108076" data-name="Grupo 108076" transform="translate(5946.472 -8862.878)">
      <path id="Trazado_154246" data-name="Trazado 154246" d="M1158.265,77.189c-12.717,4.936-28.5,8.455-42.149,8.414-13.365-.04-26.182-2.988-39.787-1.878-26.093,2.129-52.924,10.622-72.919,28.052-27.429,23.91-35.827,65.909-24.336,99.656,6.091,17.885,17.227,33.828,22.364,52.01,8.1,28.681.75,60.982,13.6,87.875,5.865,12.279,15.588,22.405,26.551,30.467,42.54,31.282,102.381,31.158,151.068,10.717,20.617-8.656,40-20.644,61.7-26.039,26.015-6.468,54.02-3.094,79.359-11.843a111.9,111.9,0,0,0,62.425-53.23c6.609-12.3,10.727-29.235,11.09-43.2.851-32.656-24.754-60.807-53.869-75.622-15.022-7.644-31.651-13.008-44-24.484-21.719-20.19-24.942-54.159-44.732-76.243-17.879-19.95-48.152-26.852-73.678-18.723C1179.644,66.723,1169.33,72.894,1158.265,77.189Z" transform="translate(-29.194 0)" fill="#b3b2d4"/>
      <g id="Grupo_106963" data-name="Grupo 106963" transform="translate(1907.855 416.335)">
        <g id="Grupo_106953" data-name="Grupo 106953" transform="translate(54.196)">
          <g id="Grupo_106952" data-name="Grupo 106952">
            <path id="Trazado_154247" data-name="Trazado 154247" d="M1633.27,328.782c.047-.478-3.14-9.726.278-10.112s1.992,9.13,1.992,9.13,13.25-19.206,16.145-16.747-13.252,16.792-13.252,16.792,21.387-8.744,23.876-4.634-20.719,6.878-20.719,6.878,30.414,9.774,23.559,15.613-24.991-13.34-24.991-13.34,24.214,26.058,18.958,30.365-23-28.593-23-28.593,8.821,27.912,3.49,28.108-5.5-27.342-5.5-27.342-1.7,22.041-6.412,20.85,4.093-21.8,4.093-21.8-10.894,7.611-12.188,3.62,12.233-6.513,12.233-6.513-7.077-1.667-5.763-2.744S1633.27,328.782,1633.27,328.782Z" transform="translate(-1619.517 -310.836)" fill="#b3b2d4"/>
          </g>
        </g>
        <g id="Grupo_106954" data-name="Grupo 106954" transform="translate(0 7.913)">
          <path id="Trazado_154248" data-name="Trazado 154248" d="M1516.531,357.377s9.339-8.972,7.568-10.6-8.55,8.326-8.55,8.326,1.06-18-2.862-19.838.4,17.9.4,17.9-9.437-21.7-15.222-21.787,12.329,21.742,12.329,21.742-22.82-18.195-30.3-15.8,24.9,16.711,24.9,16.711-23.906-2.37-22.706,2.577,24.479,1.461,24.479,1.461-15.126,6.467-10.724,10.766,17.32-11.561,17.32-11.561-6.515,12.149-2.641,14.464S1516.531,357.377,1516.531,357.377Z" transform="translate(-1478.771 -331.385)" fill="#b3b2d4"/>
        </g>
        <g id="Grupo_106956" data-name="Grupo 106956" transform="translate(35.719 22.619)">
          <g id="Grupo_106955" data-name="Grupo 106955">
            <path id="Trazado_154249" data-name="Trazado 154249" d="M1579.9,456.451c.079-.639,8.531-67.99,24.3-86.084l-.906-.789c-6.732,7.726-12.839,24.018-18.15,48.422-1.643,7.55-2.95,14.744-3.917,20.582.224-5.333.375-11.715.265-18.258-.377-22.339-3.486-35.833-9.239-40.107l-.717.964c13.07,9.71,7.227,74.529,7.171,75.142Z" transform="translate(-1571.533 -369.578)" fill="#b3b2d4"/>
          </g>
        </g>
        <g id="Grupo_106958" data-name="Grupo 106958" transform="translate(43.02 71.819)">
          <g id="Grupo_106957" data-name="Grupo 106957">
            <path id="Trazado_154250" data-name="Trazado 154250" d="M1591.674,534.951c.051-.279,5.73-31.9,15.237-36.521l-.526-1.08c-4.253,2.069-8.146,8.35-11.568,18.668a148.67,148.67,0,0,0-4.325,18.715Z" transform="translate(-1590.493 -497.35)" fill="#b3b2d4"/>
          </g>
        </g>
        <g id="Grupo_106960" data-name="Grupo 106960" transform="translate(49.901 60.364)">
          <g id="Grupo_106959" data-name="Grupo 106959">
            <path id="Trazado_154251" data-name="Trazado 154251" d="M1616.129,477.909s8.412-12.991,10.107-9.806-7.685,9.879-7.685,9.879,16.751-2.443,16.04,1.341-14.114.358-14.114.358,20.311,10.648,16.839,16.923-17.708-14.076-17.708-14.076,6.2,11.006,2.906,13.78-5.594-13.712-5.594-13.712-1.534,13.758-4.68,11.686,2.771-12.713,2.771-12.713-7.342,2.2-6.6-.236S1616.129,477.909,1616.129,477.909Z" transform="translate(-1608.362 -467.6)" fill="#b3b2d4"/>
          </g>
        </g>
        <g id="Grupo_106961" data-name="Grupo 106961" transform="translate(26.997 103.877)">
          <path id="Trazado_154252" data-name="Trazado 154252" d="M1549.072,589.232h38.211l.349-8.629-38.751.27Z" transform="translate(-1548.882 -580.604)" fill="#b3b2d4"/>
        </g>
        <g id="Grupo_106962" data-name="Grupo 106962" transform="translate(30.528 109.27)">
          <path id="Trazado_154253" data-name="Trazado 154253" d="M1589.828,594.609s-2.119,27.069-3.766,27.775-23.538.941-24.244,0-3.766-27.775-3.766-27.775Z" transform="translate(-1558.051 -594.609)" fill="#b3b2d4"/>
        </g>
      </g>
      <g id="Grupo_108086" data-name="Grupo 108086" transform="translate(900.529 347.502)">
        <g id="Grupo_106953-2" data-name="Grupo 106953" transform="translate(81.294)">
          <g id="Grupo_106952-2" data-name="Grupo 106952">
            <path id="Trazado_154247-2" data-name="Trazado 154247" d="M1640.146,337.755c.071-.717-4.709-14.589.418-15.168s2.988,13.695,2.988,13.695,19.875-28.81,24.217-25.12-19.878,25.188-19.878,25.188,32.08-13.115,35.814-6.951-31.078,10.318-31.078,10.318,45.621,14.662,35.338,23.419-37.487-20.011-37.487-20.011,36.32,39.087,28.437,45.548-34.495-42.89-34.495-42.89,13.231,41.868,5.236,42.162-8.246-41.013-8.246-41.013-2.553,33.061-9.618,31.275,6.139-32.706,6.139-32.706-16.341,11.417-18.282,5.431,18.35-9.769,18.35-9.769-10.616-2.5-8.645-4.116S1640.146,337.755,1640.146,337.755Z" transform="translate(-1619.517 -310.836)" fill="#b3b2d4"/>
          </g>
        </g>
        <g id="Grupo_106954-2" data-name="Grupo 106954" transform="translate(0 11.869)">
          <path id="Trazado_154248-2" data-name="Trazado 154248" d="M1535.411,370.372s14.008-13.458,11.352-15.894-12.825,12.489-12.825,12.489,1.59-27-4.293-29.757.6,26.856.6,26.856-14.156-32.545-22.833-32.681S1525.9,364,1525.9,364s-34.23-27.292-45.45-23.7,37.348,25.067,37.348,25.067-35.859-3.555-34.06,3.866,36.718,2.191,36.718,2.191-22.688,9.7-16.085,16.149,25.98-17.341,25.98-17.341-9.773,18.224-3.961,21.7S1535.411,370.372,1535.411,370.372Z" transform="translate(-1478.771 -331.385)" fill="#b3b2d4"/>
        </g>
        <g id="Grupo_106956-2" data-name="Grupo 106956" transform="translate(53.579 33.929)">
          <g id="Grupo_106955-2" data-name="Grupo 106955">
            <path id="Trazado_154249-2" data-name="Trazado 154249" d="M1584.081,499.887c.118-.958,12.8-101.984,36.447-129.126l-1.359-1.183c-10.1,11.589-19.258,36.027-27.225,72.632-2.465,11.324-4.424,22.116-5.875,30.873.336-8,.563-17.573.4-27.388-.566-33.508-5.228-53.749-13.858-60.16l-1.075,1.446c19.605,14.566,10.841,111.793,10.757,112.714Z" transform="translate(-1571.533 -369.578)" fill="#b3b2d4"/>
          </g>
        </g>
        <g id="Grupo_106958-2" data-name="Grupo 106958" transform="translate(64.53 107.729)">
          <g id="Grupo_106957-2" data-name="Grupo 106957">
            <path id="Trazado_154250-2" data-name="Trazado 154250" d="M1592.265,553.752c.077-.418,8.6-47.843,22.855-54.782l-.788-1.62c-6.38,3.1-12.218,12.526-17.352,28-3.785,11.408-6.467,27.966-6.487,28.073Z" transform="translate(-1590.493 -497.35)" fill="#b3b2d4"/>
          </g>
        </g>
        <g id="Grupo_106960-2" data-name="Grupo 106960" transform="translate(74.851 90.545)">
          <g id="Grupo_106959-2" data-name="Grupo 106959">
            <path id="Trazado_154251-2" data-name="Trazado 154251" d="M1620.013,483.063s12.619-19.487,15.161-14.71-11.527,14.819-11.527,14.819,25.126-3.664,24.06,2.012-21.17.538-21.17.538,30.467,15.972,25.259,25.384-26.562-21.114-26.562-21.114,9.3,16.509,4.359,20.67-8.391-20.568-8.391-20.568-2.3,20.637-7.02,17.529,4.156-19.07,4.156-19.07-11.013,3.306-9.9-.354S1620.013,483.063,1620.013,483.063Z" transform="translate(-1608.362 -467.6)" fill="#b3b2d4"/>
          </g>
        </g>
        <g id="Grupo_106961-2" data-name="Grupo 106961" transform="translate(40.496 155.816)">
          <path id="Trazado_154252-2" data-name="Trazado 154252" d="M1549.167,593.547h57.317l.523-12.943-58.126.4Z" transform="translate(-1548.882 -580.604)" fill="#b3b2d4"/>
        </g>
        <g id="Grupo_106962-2" data-name="Grupo 106962" transform="translate(45.792 163.905)">
          <path id="Trazado_154253-2" data-name="Trazado 154253" d="M1605.716,594.609s-3.178,40.6-5.65,41.663-35.307,1.412-36.366,0-5.649-41.663-5.649-41.663Z" transform="translate(-1558.051 -594.609)" fill="#b3b2d4"/>
        </g>
      </g>
      <g id="Grupo_106967" data-name="Grupo 106967" transform="translate(900.529 120.972)">
        <path id="Trazado_154254" data-name="Trazado 154254" d="M1336.252,251.184c-52.907-.267-134.139-.13-187.046-.131l-157.915,0-89.08,0c-2.241,0-2.245,7.679,0,7.679l158.725,0,157.915,0c29.693,0,87.708.02,117.4-.13C1338.317,258.579,1338.32,251.194,1336.252,251.184Z" transform="translate(-900.529 -196.882)" fill="#8d8cbe"/>
        <g id="Grupo_106964" data-name="Grupo 106964" transform="translate(172.504 34.327)">
          <path id="Trazado_154255" data-name="Trazado 154255" d="M1272.952,220.132c-.39-.52-5.7-.943-14.913-1.234v8.149h15.3C1273.425,223.669,1273.371,220.69,1272.952,220.132Z" transform="translate(-1214.946 -218.459)" fill="#8d8cbe"/>
          <path id="Trazado_154256" data-name="Trazado 154256" d="M1228.153,218.534c-15.193-.426-40.077-.5-40.909-.089-.613.307-.718,4.124-.643,8.314h41.552Z" transform="translate(-1186.58 -218.17)" fill="#8d8cbe"/>
          <path id="Trazado_154257" data-name="Trazado 154257" d="M1226.563,240.929c0,1.625-1.7,1.622-1.7,0v-4.338H1189.62c.145,4.558.425,8.823.425,8.823l54.158-.264s.315-4.2.493-8.559h-18.133Z" transform="translate(-1187.787 -225.482)" fill="#8d8cbe"/>
        </g>
        <g id="Grupo_106965" data-name="Grupo 106965" transform="translate(107.819 34.327)">
          <path id="Trazado_154258" data-name="Trazado 154258" d="M1165.69,220.132c-.39-.52-5.7-.943-14.913-1.234v8.149h15.3C1166.162,223.669,1166.108,220.69,1165.69,220.132Z" transform="translate(-1107.683 -218.459)" fill="#8d8cbe"/>
          <path id="Trazado_154259" data-name="Trazado 154259" d="M1120.891,218.534c-15.193-.426-40.077-.5-40.909-.089-.613.307-.719,4.124-.644,8.314h41.552Z" transform="translate(-1079.318 -218.17)" fill="#8d8cbe"/>
          <path id="Trazado_154260" data-name="Trazado 154260" d="M1119.3,240.929c0,1.625-1.7,1.622-1.7,0v-4.338h-35.243c.145,4.558.425,8.823.425,8.823l54.158-.264s.314-4.2.493-8.559H1119.3Z" transform="translate(-1080.525 -225.482)" fill="#8d8cbe"/>
        </g>
        <g id="Grupo_106966" data-name="Grupo 106966" transform="translate(133.693 15.097)">
          <path id="Trazado_154261" data-name="Trazado 154261" d="M1208.595,188.243c-.39-.52-5.7-.944-14.913-1.234v8.15h15.3C1209.067,191.78,1209.013,188.8,1208.595,188.243Z" transform="translate(-1150.589 -186.571)" fill="#8d8cbe"/>
          <path id="Trazado_154262" data-name="Trazado 154262" d="M1163.8,186.646c-15.193-.426-40.077-.505-40.909-.089-.613.306-.718,4.124-.643,8.314H1163.8Z" transform="translate(-1122.223 -186.282)" fill="#8d8cbe"/>
          <path id="Trazado_154263" data-name="Trazado 154263" d="M1162.205,209.041c0,1.625-1.7,1.622-1.7,0V204.7h-35.243c.145,4.558.425,8.822.425,8.822l54.158-.264s.314-4.2.493-8.558h-18.132Z" transform="translate(-1123.43 -193.594)" fill="#8d8cbe"/>
        </g>
        <path id="Trazado_154264" data-name="Trazado 154264" d="M979.195,177.617c-1.566-3.29-4.352-6.959-8.88-5.885a6.9,6.9,0,0,0-.906.285,5.807,5.807,0,0,0-1.992-.028,8.578,8.578,0,0,0-5.17,3.3,11.282,11.282,0,0,0-2.655,4.7c-4.41.218-7.643.49-8.015.738-1.274.848-5.413,39.853-5.413,39.853l24.036-.046c-.426-13.014,2.29-25.94,4.571-38.758a.764.764,0,0,1,.683-.648,1.084,1.084,0,0,1,.528-.12c1.157.015,2.313-.008,3.468-.047C979.352,179.846,979.271,178.732,979.195,177.617Zm-16.7,41.561a.745.745,0,0,1-.435.522.593.593,0,0,1-.267.043,1.1,1.1,0,0,1-.595-.309,37.992,37.992,0,0,1-4.143-4.033,13.891,13.891,0,0,0-1.763-1.811,1.546,1.546,0,0,0-.634-.337c-.655-.134-1.208.42-1.6.907q-2.116,2.653-4.448,5.164c-.137.148-.373.306-.54.186-.129-.093-.088-.274-.033-.414a21.751,21.751,0,0,1,3.1-5.088c.782-1,2.228-2.769,3.864-2.256,2.358.739,3.546,2.643,4.975,4.3-.788-5.057-1.407-10.134-2-15.212-.717-6.1-1.762-12.265-1.809-18.41-.009-1.183,2.057-1.18,2.066,0,.045,5.964,1.05,11.937,1.745,17.86.383,3.27.771,6.54,1.208,9.805q.332,2.479.707,4.954c.126.825.262,1.648.392,2.473A5.2,5.2,0,0,1,962.49,219.178Zm-1.14-39.271c.8-2.39,2.893-5.278,5.456-6.115a12.819,12.819,0,0,0-2.946,6.015C963,179.837,962.161,179.871,961.35,179.906Zm4.212-.157c.6-2.287,1.821-4.838,3.968-5.984,2.387.8,3.869,3.725,4.917,5.808C971.534,179.594,968.472,179.657,965.562,179.749Zm10.856-.222c-.964-2.009-2.373-4.783-4.5-6.368,3.289.063,5.138,4.024,6.128,6.366.007.016.017.028.025.044-.536,0-1.086,0-1.642,0C976.426,179.552,976.424,179.54,976.418,179.527Z" transform="translate(-918.643 -165.334)" fill="#8d8cbe"/>
        <path id="Trazado_154265" data-name="Trazado 154265" d="M1030.755,171.277c-.3-.594-3.858-.88-8.663-.964a.844.844,0,0,0-.018-.563c-1.389-3.967-4.295-9.684-9.518-8.287a6.291,6.291,0,0,0-.906.32,5.167,5.167,0,0,0-1.992-.031,8.548,8.548,0,0,0-5.17,3.719,13.211,13.211,0,0,0-2.655,5.292c-4.409.246-7.642.552-8.015.832-1.274.955-5.413,44.9-5.413,44.9l48.294-.106S1031.71,173.187,1030.755,171.277Zm-26.023,43.637a.823.823,0,0,1-.434.588.531.531,0,0,1-.267.048,1.055,1.055,0,0,1-.595-.348,40.464,40.464,0,0,1-4.143-4.543,14.955,14.955,0,0,0-1.763-2.04,1.509,1.509,0,0,0-.634-.38c-.656-.151-1.209.473-1.6,1.022q-2.117,2.989-4.448,5.817c-.138.166-.373.346-.54.209-.128-.1-.088-.309-.033-.466a25.256,25.256,0,0,1,3.1-5.732c.782-1.13,2.228-3.12,3.865-2.542,2.358.833,3.545,2.978,4.975,4.849-.788-5.7-1.407-11.417-2-17.138-.716-6.877-1.762-13.817-1.809-20.74a1.033,1.033,0,0,1,2.065,0c.046,6.718,1.05,13.448,1.745,20.121.383,3.684.772,7.368,1.209,11.046q.332,2.793.707,5.581c.126.929.262,1.857.393,2.786A6.577,6.577,0,0,1,1004.731,214.914Zm-1.14-44.243c.8-2.692,2.894-5.945,5.456-6.889a15.247,15.247,0,0,0-2.947,6.777C1005.241,170.594,1004.4,170.632,1003.591,170.671Zm8.18-6.919c2.387.9,3.869,4.2,4.917,6.544-2.912.024-5.974.095-8.885.2C1008.4,167.917,1009.624,165.044,1011.771,163.753Zm6.9,6.534c-.005-.014-.008-.028-.014-.042-.964-2.263-2.372-5.389-4.5-7.174,3.29.071,5.138,4.533,6.128,7.171.007.018.017.033.024.049C1019.778,170.288,1019.229,170.287,1018.673,170.287Z" transform="translate(-935.411 -161.248)" fill="#8d8cbe"/>
      </g>
      <g id="Grupo_108067" data-name="Grupo 108067" transform="translate(1537.255 120.972)">
        <path id="Trazado_154254-2" data-name="Trazado 154254" d="M1336.252,251.184c-52.907-.267-134.139-.13-187.046-.131l-157.915,0-89.08,0c-2.241,0-2.245,7.679,0,7.679l158.725,0,157.915,0c29.693,0,87.708.02,117.4-.13C1338.317,258.579,1338.32,251.194,1336.252,251.184Z" transform="translate(-900.529 -196.882)" fill="#8d8cbe"/>
        <g id="Grupo_106964-2" data-name="Grupo 106964" transform="translate(172.504 34.327)">
          <path id="Trazado_154255-2" data-name="Trazado 154255" d="M1272.952,220.132c-.39-.52-5.7-.943-14.913-1.234v8.149h15.3C1273.425,223.669,1273.371,220.69,1272.952,220.132Z" transform="translate(-1214.946 -218.459)" fill="#8d8cbe"/>
          <path id="Trazado_154256-2" data-name="Trazado 154256" d="M1228.153,218.534c-15.193-.426-40.077-.5-40.909-.089-.613.307-.718,4.124-.643,8.314h41.552Z" transform="translate(-1186.58 -218.17)" fill="#8d8cbe"/>
          <path id="Trazado_154257-2" data-name="Trazado 154257" d="M1226.563,240.929c0,1.625-1.7,1.622-1.7,0v-4.338H1189.62c.145,4.558.425,8.823.425,8.823l54.158-.264s.315-4.2.493-8.559h-18.133Z" transform="translate(-1187.787 -225.482)" fill="#8d8cbe"/>
        </g>
        <g id="Grupo_106965-2" data-name="Grupo 106965" transform="translate(107.819 34.327)">
          <path id="Trazado_154258-2" data-name="Trazado 154258" d="M1165.69,220.132c-.39-.52-5.7-.943-14.913-1.234v8.149h15.3C1166.162,223.669,1166.108,220.69,1165.69,220.132Z" transform="translate(-1107.683 -218.459)" fill="#8d8cbe"/>
          <path id="Trazado_154259-2" data-name="Trazado 154259" d="M1120.891,218.534c-15.193-.426-40.077-.5-40.909-.089-.613.307-.719,4.124-.644,8.314h41.552Z" transform="translate(-1079.318 -218.17)" fill="#8d8cbe"/>
          <path id="Trazado_154260-2" data-name="Trazado 154260" d="M1119.3,240.929c0,1.625-1.7,1.622-1.7,0v-4.338h-35.243c.145,4.558.425,8.823.425,8.823l54.158-.264s.314-4.2.493-8.559H1119.3Z" transform="translate(-1080.525 -225.482)" fill="#8d8cbe"/>
        </g>
        <g id="Grupo_106966-2" data-name="Grupo 106966" transform="translate(133.693 15.097)">
          <path id="Trazado_154261-2" data-name="Trazado 154261" d="M1208.595,188.243c-.39-.52-5.7-.944-14.913-1.234v8.15h15.3C1209.067,191.78,1209.013,188.8,1208.595,188.243Z" transform="translate(-1150.589 -186.571)" fill="#8d8cbe"/>
          <path id="Trazado_154262-2" data-name="Trazado 154262" d="M1163.8,186.646c-15.193-.426-40.077-.505-40.909-.089-.613.306-.718,4.124-.643,8.314H1163.8Z" transform="translate(-1122.223 -186.282)" fill="#8d8cbe"/>
          <path id="Trazado_154263-2" data-name="Trazado 154263" d="M1162.205,209.041c0,1.625-1.7,1.622-1.7,0V204.7h-35.243c.145,4.558.425,8.822.425,8.822l54.158-.264s.314-4.2.493-8.558h-18.132Z" transform="translate(-1123.43 -193.594)" fill="#8d8cbe"/>
        </g>
        <path id="Trazado_154264-2" data-name="Trazado 154264" d="M979.195,177.617c-1.566-3.29-4.352-6.959-8.88-5.885a6.9,6.9,0,0,0-.906.285,5.807,5.807,0,0,0-1.992-.028,8.578,8.578,0,0,0-5.17,3.3,11.282,11.282,0,0,0-2.655,4.7c-4.41.218-7.643.49-8.015.738-1.274.848-5.413,39.853-5.413,39.853l24.036-.046c-.426-13.014,2.29-25.94,4.571-38.758a.764.764,0,0,1,.683-.648,1.084,1.084,0,0,1,.528-.12c1.157.015,2.313-.008,3.468-.047C979.352,179.846,979.271,178.732,979.195,177.617Zm-16.7,41.561a.745.745,0,0,1-.435.522.593.593,0,0,1-.267.043,1.1,1.1,0,0,1-.595-.309,37.992,37.992,0,0,1-4.143-4.033,13.891,13.891,0,0,0-1.763-1.811,1.546,1.546,0,0,0-.634-.337c-.655-.134-1.208.42-1.6.907q-2.116,2.653-4.448,5.164c-.137.148-.373.306-.54.186-.129-.093-.088-.274-.033-.414a21.751,21.751,0,0,1,3.1-5.088c.782-1,2.228-2.769,3.864-2.256,2.358.739,3.546,2.643,4.975,4.3-.788-5.057-1.407-10.134-2-15.212-.717-6.1-1.762-12.265-1.809-18.41-.009-1.183,2.057-1.18,2.066,0,.045,5.964,1.05,11.937,1.745,17.86.383,3.27.771,6.54,1.208,9.805q.332,2.479.707,4.954c.126.825.262,1.648.392,2.473A5.2,5.2,0,0,1,962.49,219.178Zm-1.14-39.271c.8-2.39,2.893-5.278,5.456-6.115a12.819,12.819,0,0,0-2.946,6.015C963,179.837,962.161,179.871,961.35,179.906Zm4.212-.157c.6-2.287,1.821-4.838,3.968-5.984,2.387.8,3.869,3.725,4.917,5.808C971.534,179.594,968.472,179.657,965.562,179.749Zm10.856-.222c-.964-2.009-2.373-4.783-4.5-6.368,3.289.063,5.138,4.024,6.128,6.366.007.016.017.028.025.044-.536,0-1.086,0-1.642,0C976.426,179.552,976.424,179.54,976.418,179.527Z" transform="translate(-918.643 -165.334)" fill="#8d8cbe"/>
        <path id="Trazado_154265-2" data-name="Trazado 154265" d="M1030.755,171.277c-.3-.594-3.858-.88-8.663-.964a.844.844,0,0,0-.018-.563c-1.389-3.967-4.295-9.684-9.518-8.287a6.291,6.291,0,0,0-.906.32,5.167,5.167,0,0,0-1.992-.031,8.548,8.548,0,0,0-5.17,3.719,13.211,13.211,0,0,0-2.655,5.292c-4.409.246-7.642.552-8.015.832-1.274.955-5.413,44.9-5.413,44.9l48.294-.106S1031.71,173.187,1030.755,171.277Zm-26.023,43.637a.823.823,0,0,1-.434.588.531.531,0,0,1-.267.048,1.055,1.055,0,0,1-.595-.348,40.464,40.464,0,0,1-4.143-4.543,14.955,14.955,0,0,0-1.763-2.04,1.509,1.509,0,0,0-.634-.38c-.656-.151-1.209.473-1.6,1.022q-2.117,2.989-4.448,5.817c-.138.166-.373.346-.54.209-.128-.1-.088-.309-.033-.466a25.256,25.256,0,0,1,3.1-5.732c.782-1.13,2.228-3.12,3.865-2.542,2.358.833,3.545,2.978,4.975,4.849-.788-5.7-1.407-11.417-2-17.138-.716-6.877-1.762-13.817-1.809-20.74a1.033,1.033,0,0,1,2.065,0c.046,6.718,1.05,13.448,1.745,20.121.383,3.684.772,7.368,1.209,11.046q.332,2.793.707,5.581c.126.929.262,1.857.393,2.786A6.577,6.577,0,0,1,1004.731,214.914Zm-1.14-44.243c.8-2.692,2.894-5.945,5.456-6.889a15.247,15.247,0,0,0-2.947,6.777C1005.241,170.594,1004.4,170.632,1003.591,170.671Zm8.18-6.919c2.387.9,3.869,4.2,4.917,6.544-2.912.024-5.974.095-8.885.2C1008.4,167.917,1009.624,165.044,1011.771,163.753Zm6.9,6.534c-.005-.014-.008-.028-.014-.042-.964-2.263-2.372-5.389-4.5-7.174,3.29.071,5.138,4.533,6.128,7.171.007.018.017.033.024.049C1019.778,170.288,1019.229,170.287,1018.673,170.287Z" transform="translate(-935.411 -161.248)" fill="#8d8cbe"/>
      </g>
      <g id="Grupo_106968" data-name="Grupo 106968" transform="translate(919.647 163.472)">
        <path id="Trazado_154266" data-name="Trazado 154266" d="M1299.806,326.506c-.374-5.61,2.991-10.1,2.618-20.571s-18.327-24.311-18.327-24.311c-.034-.02-.069-.034-.1-.051.069-1.541.094-3.083.127-4.625,1.89-.567,4.051-.235,6.018-.742a7.78,7.78,0,0,0,4.492-2.848c1.294-1.837,1.255-4.154,1.815-6.246a24.7,24.7,0,0,0,.376-6.72c-.05-5.333-.148-10.667-.148-16-.03-3.274.427-6.972-.135-10.2-.317-1.824-3.277-3.528-4.721-1.657a1.456,1.456,0,0,0-.2.915,276.933,276.933,0,0,1-1.015,28.989,9.2,9.2,0,0,1-1.65,5.131,3.733,3.733,0,0,1-3.811,1.249c-1.318-.485-1.948-1.746-3.606-1.6a3.98,3.98,0,0,0-2.847,1.657c-.217,1.791.154,3.755,1.726,4.691a1.149,1.149,0,0,1-1.159,1.983,6.718,6.718,0,0,1-2.906-6.268l-9.148.009a1.344,1.344,0,0,0-.181-.93,3.691,3.691,0,0,0-6.187-.309c-.521,1.459-.806,3.3.526,4.142,1.244.79.094,2.778-1.159,1.983a4.67,4.67,0,0,1-1.981-4.874l-8.156.014a3.639,3.639,0,0,0-3.48-2.059,3.407,3.407,0,0,0-2.536,1.4,6.385,6.385,0,0,0,1.69,4.168c1.01,1.077-.61,2.7-1.624,1.624a8.747,8.747,0,0,1-2.314-5.119c-3.34.007-6.781.016-10.306.027a1.217,1.217,0,0,0-.184-.519,3.439,3.439,0,0,0-3.376-1.62,3.374,3.374,0,0,0-2.641,2.157h-.127a5.48,5.48,0,0,0,1.06,3.45c.938,1.129-.678,2.762-1.624,1.624a7.911,7.911,0,0,1-1.693-5.067l-8.954.031a3.53,3.53,0,0,0-6.246-.786,5.117,5.117,0,0,0,1.443,4.045c1.1.987-.525,2.607-1.624,1.624a6.917,6.917,0,0,1-2.087-4.848l-7.582.035a1.326,1.326,0,0,0-.414-.654,4.373,4.373,0,0,0-6.552.646c-.01.014-.015.029-.025.043h-.112a6.28,6.28,0,0,0,1.043,4.3c.83,1.228-1.159,2.378-1.983,1.159a8.342,8.342,0,0,1-1.365-5.445c-3.334.019-8.228.039-14.36.061a3.4,3.4,0,0,0-6.038-.005c-.281,1.185-.43,2.684.371,2.906a1.3,1.3,0,0,1-.691,2.505c-2.374-.657-2.683-3.121-2.3-5.377l-11.509.036c-.024-.034-.042-.069-.07-.1a3.825,3.825,0,0,0-1.373-1.058.857.857,0,0,0-.213-.136,4.238,4.238,0,0,0-3.646-.275,2.609,2.609,0,0,0-.231.138,1.4,1.4,0,0,1-.057.22c-.311.889-1.178,3.551-.106,4.181a1.3,1.3,0,0,1-1.311,2.243c-1.767-1.04-1.936-3.225-1.594-5.184l-5.654.016a3.646,3.646,0,0,0-3.523-1.848,2.6,2.6,0,0,0-.985.38,1.323,1.323,0,0,1-.3,1.031c-.759.939-2.055,2.977-.631,3.853s.117,3.121-1.312,2.243c-2.229-1.371-2.19-3.615-1.307-5.635l-10.685.031a1.347,1.347,0,0,0-.15-.321,4.3,4.3,0,0,0-6.029-1.322,1.346,1.346,0,0,1-.186.4c-.929,1.373-1.394,3.135.042,4.319,1.292,1.064-.556,2.892-1.837,1.837a4.84,4.84,0,0,1-1.546-4.882l-9.74.028c-1.178-.992-2.662-1.913-4.269-1.555a3.234,3.234,0,0,0-2.155,1.575l-.606,0a3.022,3.022,0,0,0,.632,3.241c1.253,1.113-.59,2.943-1.837,1.837a5.065,5.065,0,0,1-1.4-5.071l-6.909.021a1.183,1.183,0,0,0-.582-.74,5.431,5.431,0,0,0-4.153-.846,3.738,3.738,0,0,0-.722.287c-.888,1.088-2.12,3.375-.744,4.432,1.309,1.005.014,3.261-1.311,2.243a4.651,4.651,0,0,1-1.54-5.349l-14.122.045a1.236,1.236,0,0,0-.574-.873,5.73,5.73,0,0,0-4.015-.9,1.173,1.173,0,0,1-.4.607c-1.236,1.051-2.365,2.817-1.1,4.3,1.076,1.268-.754,3.113-1.837,1.837a5.017,5.017,0,0,1-.988-4.949l-10.347.035a1.432,1.432,0,0,0-.231-.185,6.19,6.19,0,0,0-4.186-1.322,8.312,8.312,0,0,0-2.812,1.054,2.807,2.807,0,0,0,.755,3.408c1.32,1.024-.532,2.849-1.837,1.837a4.66,4.66,0,0,1-1.662-4.756l-6.523.024a4.259,4.259,0,0,0-3.452-2.1,3.569,3.569,0,0,0-2.012.623,10.045,10.045,0,0,0-1.282,2.164,7.675,7.675,0,0,0-.485,1.46c-.116.492-.024.352.129.365,1.657.139,1.666,2.738,0,2.6-3.051-.256-3.063-2.731-2.159-5.076l-9.41.038a1.193,1.193,0,0,0-.371-.762,4,4,0,0,0-3.925-1.25c-.1.031-.205.068-.3.107-.008.012-.014.025-.023.037-.8,1.187-1.965,3.852-.466,4.976,1.323.992.027,3.246-1.312,2.243a5.138,5.138,0,0,1-1.809-5.317q-5.881.026-11.427.054a1.136,1.136,0,0,0-.6-1.075,5.062,5.062,0,0,0-5.236.069c-.744,1.228-1.429,2.675-.513,3.878,1.014,1.331-1.244,2.624-2.243,1.311a4.349,4.349,0,0,1-.53-4.137l-6.142.035a1.284,1.284,0,0,0-.194-.387,4.3,4.3,0,0,0-5.6-1.344,1.4,1.4,0,0,1-.232.325,5.52,5.52,0,0,0-1.461,4.238c.07,1.674-2.529,1.666-2.6,0a8.688,8.688,0,0,1,.323-2.772c-2.716.019-5.28.037-7.675.057a1.232,1.232,0,0,0-.2-.216,1.488,1.488,0,0,0-.616-.935,4.331,4.331,0,0,0-5.706.768,9.359,9.359,0,0,0,.468,3.612c.529,1.593-1.98,2.27-2.505.691a15.42,15.42,0,0,1-.618-3.777c-2.119-.18-4.65-.029-6.082-1.968a9.387,9.387,0,0,1-1.427-4.342,91.774,91.774,0,0,1-.654-15.547q-2.709.143-5.42.218-.065,7.916.636,15.814c.28,3.149.693,6.41,2.377,9.086,2.921,4.642,8.326,4.031,13.106,4.019l18.148-.042c-.084,1.393-.241,2.8-.317,4.208-3.961.578-22.628,13.931-25.189,19.053-2.618,5.236,2.992,16.831,3.74,26.929s-4.862,47.334-2.618,49.2c1.755,1.463,9.454.867,13.444,1.074.193-2.936.271-5.886.268-8.841-.16-2.194-.379-4.388-.6-6.575-.781-7.684-.981-22.7-1.032-30.419q-.021-3.17-.008-6.341c-.115-3.676-.156-7.354-.054-11.032.039-1.437.109-2.876.237-4.3.009-.487.016-.975.026-1.462.1-4.792,1.235-9.337,4.315-13.1A26.051,26.051,0,0,1,963.173,292a32.46,32.46,0,0,1,4.759-3.759,11.545,11.545,0,0,1,3.482-1.91,1.253,1.253,0,0,1,1.014.143,1.016,1.016,0,0,1,.335,1c-.218,1.084-1.909,1.62-2.759,2.128-3.6,2.726-7.148,5.706-9.549,9.55-3.145,5.032-3.651,10.854-3.784,16.65-.365,15.992,1.73,39.23,1.613,55.222-.02,2.665-.1,5.33-.277,7.985,1.022,3.147-1.909,26.724.945,28.865,2.992,2.244,26.929,0,29.922-.748,2.1-.523,1.256-3.8.693-6.229-4.6-1.114-9.41-.273-14.08-.909-2.986-.406-5.977-1.3-7.822-3.828-3.151-4.321-2.255-10.686-1.339-15.579a137.542,137.542,0,0,1,4.928-17.327c2.819-8.616,3.571-24.865,2.992-33.892-.385-6.01-1.485-11.983-1.331-18.022.11-4.285.341-8.757,2.859-12.424a14.913,14.913,0,0,1,6.047-5.107,21.191,21.191,0,0,0,8.119-6.295c.648-.9,2.161-.034,1.505.879-1.882,2.625-4.756,4.209-7.425,5.9a47.5,47.5,0,0,0-3.823,2.856c-1.432,1.122-2.034,3.117-2.535,4.8a28.822,28.822,0,0,0-.876,9.622c.222,4.94.908,9.841,1.379,14.758a71.248,71.248,0,0,1,.183,14.443c-.476,4.427-1.5,16.077-2.679,20.363-1.238,4.495-2.646,8.945-3.7,13.489a81.43,81.43,0,0,0-1.764,12.725,17.962,17.962,0,0,0,.221,6.169c.739,2.512,2.387,2.735,4.67,2.922,5.61.46,11.16.873,16.791.908,2.284-.346,5.215-.142,5.215.794,0,1.5,1.122,10.846,3.366,13.465,1.84,2.147,22.542.773,29.933.209q-.092-.4-.174-.808a24.4,24.4,0,0,1-1.652-6.886q-.091-.87-.14-1.742c-.023-.39-.039-.779-.05-1.167a122.727,122.727,0,0,1,1.731-22.293c.537-3.418,1.179-6.83,1.791-10.248a218.418,218.418,0,0,0,2.242-26.58,48.232,48.232,0,0,0-.8-9.211c-.317-1.724-.721-3.44-1.214-5.159-1.417-4.94-2.724-10.009-2.722-15.184a24.56,24.56,0,0,1,1.264-7.938,22.652,22.652,0,0,1,2.986-5.835,47.7,47.7,0,0,1,7.01-7.621c1.429-1.12,3.029-3.759,5.058-3.737a1.388,1.388,0,0,1,1.038.455,1.051,1.051,0,0,1,.179,1.092,1.828,1.828,0,0,1-.53.6c-1.884,1.58-3.75,3.17-5.517,4.884-4.676,4.534-8.573,10.005-8.9,16.724a29.307,29.307,0,0,0,.066,3.759,63.436,63.436,0,0,0,2.1,10.818,65.047,65.047,0,0,1,2.488,13.12c.432,9.159-1.408,25.574-3.01,34.543q-1.208,6.764-1.918,13.552c-.331,3.193-.577,6.4-.722,9.62-.034.767-.062,1.56-.076,2.367a.675.675,0,0,1,.305.373.85.85,0,0,1,.038.339c-.018.209-.024.416-.035.624a23.171,23.171,0,0,0,.194,4.29,40.563,40.563,0,0,0,1.339,5.977,11.407,11.407,0,0,0,4.151,4.842c6.43,1.17,32.184-.492,37.99-5.273a3.685,3.685,0,0,0,.934-1.392c7.736.561,23.6-1,26-1.6,2.1-.523,1.256-3.8.693-6.229-4.6-1.114-9.41-.273-14.079-.909-2.986-.406-5.977-1.3-7.822-3.828-3.151-4.321-2.255-10.686-1.339-15.579a137.368,137.368,0,0,1,4.928-17.327c2.819-8.616,3.57-24.865,2.992-33.892-.386-6.01-1.485-11.983-1.331-18.022.109-4.285.341-8.757,2.859-12.424a14.912,14.912,0,0,1,6.047-5.107,21.188,21.188,0,0,0,8.119-6.295c.648-.9,2.16-.034,1.505.879-1.883,2.625-4.757,4.209-7.426,5.9a47.57,47.57,0,0,0-3.823,2.856c-1.432,1.122-2.034,3.117-2.536,4.8a28.854,28.854,0,0,0-.876,9.622c.222,4.94.907,9.841,1.379,14.758a71.2,71.2,0,0,1,.183,14.443c-.477,4.427-1.5,16.077-2.679,20.363-1.239,4.495-2.646,8.945-3.7,13.489a81.351,81.351,0,0,0-1.765,12.725,17.991,17.991,0,0,0,.221,6.169c.74,2.512,2.387,2.735,4.67,2.922,5.61.46,11.161.873,16.792.908,2.284-.346,5.214-.142,5.214.794,0,1.5,1.122,10.846,3.366,13.465,1.841,2.147,22.543.773,29.933.209-.062-.269-.119-.538-.174-.808a24.392,24.392,0,0,1-1.653-6.886q-.09-.87-.14-1.742-.032-.584-.049-1.167a122.771,122.771,0,0,1,1.731-22.293c.538-3.418,1.179-6.83,1.791-10.248a218.174,218.174,0,0,0,2.242-26.58,48.193,48.193,0,0,0-.8-9.211c-.316-1.724-.721-3.44-1.214-5.159-1.416-4.94-2.723-10.009-2.722-15.184a24.531,24.531,0,0,1,1.265-7.938,22.651,22.651,0,0,1,2.986-5.835,47.7,47.7,0,0,1,7.01-7.621c1.428-1.12,3.029-3.759,5.058-3.737a1.391,1.391,0,0,1,1.038.455,1.051,1.051,0,0,1,.179,1.092,1.836,1.836,0,0,1-.53.6c-1.884,1.58-3.75,3.17-5.516,4.884-4.676,4.534-8.574,10.005-8.905,16.724a29.373,29.373,0,0,0,.066,3.759,63.447,63.447,0,0,0,2.1,10.818,65.082,65.082,0,0,1,2.488,13.12c.432,9.159-1.408,25.574-3.01,34.543q-1.208,6.764-1.918,13.552c-.331,3.193-.577,6.4-.722,9.62-.034.767-.063,1.56-.076,2.367a.675.675,0,0,1,.3.373.848.848,0,0,1,.038.339c-.017.209-.024.416-.034.624a23.192,23.192,0,0,0,.193,4.29,40.519,40.519,0,0,0,1.339,5.977,11.412,11.412,0,0,0,4.15,4.842c6.431,1.17,32.185-.492,37.99-5.273a3.656,3.656,0,0,0,.926-1.375c7.824.51,23.373-1.024,25.746-1.617,2.1-.523,1.257-3.8.694-6.229-4.6-1.114-9.41-.273-14.08-.909-2.985-.406-5.977-1.3-7.822-3.828-3.151-4.321-2.255-10.686-1.339-15.579a137.57,137.57,0,0,1,4.927-17.327c2.819-8.616,3.571-24.865,2.992-33.892-.386-6.01-1.485-11.983-1.331-18.022.109-4.285.341-8.757,2.858-12.424a14.914,14.914,0,0,1,6.048-5.107,21.188,21.188,0,0,0,8.119-6.295c.648-.9,2.161-.034,1.505.879-1.883,2.625-4.757,4.209-7.426,5.9a47.57,47.57,0,0,0-3.823,2.856c-1.432,1.122-2.034,3.117-2.536,4.8a28.854,28.854,0,0,0-.876,9.622c.223,4.94.908,9.841,1.379,14.758a71.186,71.186,0,0,1,.183,14.443c-.477,4.427-1.5,16.077-2.679,20.363-1.239,4.495-2.646,8.945-3.7,13.489a81.352,81.352,0,0,0-1.765,12.725,17.991,17.991,0,0,0,.221,6.169c.74,2.512,2.387,2.735,4.67,2.922,5.61.46,11.16.873,16.791.908,2.284-.346,5.214-.142,5.214.794,0,1.5,1.122,10.846,3.366,13.465,1.84,2.147,22.543.773,29.933.209-.062-.269-.119-.538-.174-.808a24.392,24.392,0,0,1-1.652-6.886q-.09-.87-.139-1.742-.033-.584-.05-1.167a122.727,122.727,0,0,1,1.731-22.293c.538-3.418,1.179-6.83,1.791-10.248a218.126,218.126,0,0,0,2.242-26.58,48.193,48.193,0,0,0-.8-9.211c-.316-1.724-.721-3.44-1.214-5.159-1.417-4.94-2.724-10.009-2.722-15.184a24.557,24.557,0,0,1,1.264-7.938,22.667,22.667,0,0,1,2.986-5.835,47.7,47.7,0,0,1,7.01-7.621c1.429-1.12,3.028-3.759,5.058-3.737a1.391,1.391,0,0,1,1.039.455,1.05,1.05,0,0,1,.178,1.092,1.826,1.826,0,0,1-.53.6c-1.884,1.58-3.75,3.17-5.517,4.884-4.675,4.534-8.573,10.005-8.9,16.724a29.463,29.463,0,0,0,.066,3.759,63.446,63.446,0,0,0,2.1,10.818,65,65,0,0,1,2.488,13.12c.432,9.159-1.407,25.574-3.009,34.543q-1.208,6.764-1.918,13.552c-.33,3.193-.577,6.4-.722,9.62-.034.767-.063,1.56-.077,2.367a.675.675,0,0,1,.3.373.835.835,0,0,1,.038.339c-.017.209-.024.416-.034.624a23.214,23.214,0,0,0,.193,4.29,40.55,40.55,0,0,0,1.339,5.977,11.407,11.407,0,0,0,4.15,4.842c6.431,1.17,32.185-.492,37.99-5.273C1306.912,404.884,1300.179,332.116,1299.806,326.506ZM982.87,281.57c-2.953-.032-4.949,2.992-6.713,4.168-1.685,1.124-4.425-1.549-7.11-2.95a46,46,0,0,0,.223-4.984l13.591-.033C982.915,279.038,982.923,280.3,982.87,281.57Zm21.788-3.854,16.518-.043q-.132,1.655-.261,3.311a2.788,2.788,0,0,0-1.3.34c-1.84,1.011-2.429,3.358-4.187,4.413-1.87,1.122-5.236-2.618-10.473-3.74-.219-.047-.434-.08-.646-.107C1004.488,280.5,1004.6,279.114,1004.657,277.717Zm-18.97,4.764a44.57,44.57,0,0,0,0-4.716l16.362-.041a42.434,42.434,0,0,1-.469,4.353c-3.371.894-5.749,4.012-7.468,5.157C991.9,288.71,990.045,285.091,985.687,282.48Zm19.459,10.74a24.8,24.8,0,0,0-3.437,5.9c-2.45,5.905-2.854,12.461-2.7,18.781.335,14.015,1.62,35.272.572,49.3-.625,8.363-1.633,16.764-2.618,25.093a1.35,1.35,0,0,1-.2.569,1.469,1.469,0,0,1-1.689.567,1,1,0,0,1-.662-1.137c.117-.985.229-1.973.344-2.959.77-6.633,1.492-13.291,2.093-19.933.715-7.9.731-23.163.485-31.089-.214-6.893-.73-13.778-.881-20.673a54.378,54.378,0,0,1,1.613-16.256,27.285,27.285,0,0,1,6.142-11,33.943,33.943,0,0,1,2.561-2.5c.991-.872,2.349-2.1,3.658-1.183a.652.652,0,0,1,.318.73c-.1.734-.46.872-.97,1.281-.567.455-1.11.946-1.652,1.43A24.973,24.973,0,0,0,1005.146,293.221Zm31.412-12.155a9.476,9.476,0,0,0-2.986,1.693,39.1,39.1,0,0,0-3.18,2.644,84.352,84.352,0,0,1-8.022,6.346,34.722,34.722,0,0,0-3.482,3.082,14.033,14.033,0,0,0-3.834,10.314c0,4.422,1.262,8.658,1.95,12.991a78.936,78.936,0,0,1,.95,12.374,301.8,301.8,0,0,1-2.34,32.315c-.9,6.452-1.742,12.912-2.623,19.366-.227,1.664-.433,3.337-.577,5.014-.138,1.6-.22,3.2-.208,4.8.019,2.644.179,5.643,1.859,7.819a1.073,1.073,0,0,1-.593,1.723,1.375,1.375,0,0,1-1.61-.435c-3.18-4.12-2.336-10.831-1.826-15.625.668-6.272,1.648-12.543,2.491-18.795,1.2-8.892,2.65-25.1,2.852-34.085,0-.045,0-.091,0-.136a76.632,76.632,0,0,0-.9-14.015c-.691-4.212-1.858-8.341-1.973-12.635-.111-4.163.742-8.137,3.378-11.434a20.3,20.3,0,0,1,1.512-1.68,66.592,66.592,0,0,1,8.97-7.163.81.81,0,0,0,.4-.49.782.782,0,0,0-.288-.6,17.529,17.529,0,0,0-2.889-2.23q.132-2.279.252-4.558l12.856-.034c.051,1.116.049,2.266.115,3.4C1036.733,281.043,1036.645,281.049,1036.558,281.065Zm7.416,2.885a18.839,18.839,0,0,0-4.159-2.434,23.815,23.815,0,0,0-.267-3.892l16.137-.045c-.074,1.467-.142,2.936-.173,4.4-1.86,1.126-3.876,3.4-6.048,4.128C1047.38,286.807,1045.521,285.093,1043.974,283.951Zm23.669,112.022c-3.168.719-6.645.432-9.855.128-2.209-.209-3.584-1.169-4.123-3.367a72.46,72.46,0,0,1-1.864-14.087c-.078-1.774-.238-3.633-.138-5.4.109-1.941.325-3.883.524-5.816.394-3.829.873-7.649,1.376-11.466a277.938,277.938,0,0,0,1.819-28.435c-.04-5.576-2.038-10.611-3.369-15.953-1.209-4.851-1.672-10.2,1.458-14.452,1.831-2.489,4.474-4.458,6.881-6.357,1.5-1.186,3.037-2.332,4.584-3.46-3.538-3.408-6.5-5.687-6.5-5.687-.034-.02-.069-.034-.1-.051.06-1.332.089-2.666.115-4l21.029-.061c-.078,1.491-.254,3-.335,4.508-3.961.578-22.628,13.931-25.189,19.053-2.619,5.236,2.991,16.831,3.74,26.929.5,6.712-1.814,29.492-2.761,39.661-.011-.015-.021-.032-.033-.048q-.045.223-.087.445a39.843,39.843,0,0,0-.5,11.281q.138,1.409.378,2.807c.141.822.135,1.611.232,2.44.226,1.921.519,3.834.891,5.732.152.776.172,2.079.694,2.72.429.526,1.366.473,1.979.51,2.775.165,5.716.541,8.455-.081C1068.583,393.1,1069.272,395.6,1067.643,395.973Zm18.079-108.5c-.218,1.084-1.908,1.62-2.759,2.128-3.6,2.726-7.147,5.706-9.549,9.55-3.144,5.032-3.652,10.854-3.783,16.65-.364,15.992,1.731,39.23,1.613,55.222q-.024,3.3-.2,6.6h-2.484c.163-2.72.233-5.45.231-8.185-.16-2.194-.379-4.388-.6-6.575-.781-7.684-.98-22.7-1.032-30.419q-.021-3.17-.009-6.341c-.115-3.676-.156-7.354-.055-11.032.04-1.437.11-2.876.238-4.3.01-.487.016-.975.027-1.462.1-4.792,1.235-9.337,4.314-13.1a26.1,26.1,0,0,1,4.457-4.206,32.472,32.472,0,0,1,4.759-3.759,11.539,11.539,0,0,1,3.482-1.91,1.251,1.251,0,0,1,1.014.143A1.015,1.015,0,0,1,1085.721,287.477Zm10.108-5.906c-2.953-.032-4.949,2.992-6.714,4.168-1.685,1.124-4.425-1.549-7.11-2.95a49.6,49.6,0,0,0,.227-5.284l13.573-.041C1095.875,278.832,1095.886,280.2,1095.829,281.57Zm21.8-4.178,16.531-.057q-.146,1.825-.288,3.65a2.789,2.789,0,0,0-1.3.34c-1.839,1.011-2.429,3.358-4.187,4.413-1.87,1.122-5.236-2.618-10.473-3.74-.219-.047-.434-.08-.646-.107Q1117.557,279.65,1117.63,277.392Zm-18.984,5.088a44.834,44.834,0,0,0-.019-5.026l16.4-.052a42.7,42.7,0,0,1-.489,4.675c-3.37.894-5.749,4.012-7.467,5.157C1104.855,288.71,1103,285.091,1098.646,282.48Zm19.459,10.74a24.8,24.8,0,0,0-3.438,5.9c-2.449,5.905-2.854,12.461-2.7,18.781.335,14.015,1.62,35.272.572,49.3-.625,8.363-1.633,16.764-2.618,25.093a1.341,1.341,0,0,1-.2.569,1.47,1.47,0,0,1-1.689.567,1,1,0,0,1-.661-1.137q.175-1.478.343-2.959c.77-6.633,1.493-13.291,2.093-19.933.715-7.9.731-23.163.485-31.089-.214-6.893-.73-13.778-.881-20.673a54.373,54.373,0,0,1,1.614-16.256,27.287,27.287,0,0,1,6.141-11,34.115,34.115,0,0,1,2.561-2.5c.992-.872,2.349-2.1,3.658-1.183a.778.778,0,0,1,.283.309.786.786,0,0,1,.035.422c-.1.734-.459.872-.969,1.281-.567.455-1.111.946-1.652,1.43A24.87,24.87,0,0,0,1118.106,293.221Zm31.412-12.155a9.472,9.472,0,0,0-2.986,1.693,39.012,39.012,0,0,0-3.179,2.644,84.419,84.419,0,0,1-8.022,6.346,34.7,34.7,0,0,0-3.482,3.082,14.031,14.031,0,0,0-3.834,10.314c0,4.422,1.262,8.658,1.949,12.991a78.855,78.855,0,0,1,.95,12.374,302.025,302.025,0,0,1-2.34,32.315c-.9,6.452-1.742,12.912-2.624,19.366-.228,1.664-.433,3.337-.577,5.014-.137,1.6-.219,3.2-.208,4.8.019,2.644.179,5.643,1.859,7.819a1.072,1.072,0,0,1-.594,1.723,1.375,1.375,0,0,1-1.61-.435c-3.18-4.12-2.336-10.831-1.826-15.625.668-6.272,1.648-12.543,2.492-18.795,1.2-8.892,2.65-25.1,2.852-34.085,0-.045,0-.091,0-.136a76.68,76.68,0,0,0-.9-14.015c-.691-4.212-1.858-8.341-1.972-12.635-.111-4.163.742-8.137,3.378-11.434a20.337,20.337,0,0,1,1.512-1.68,66.606,66.606,0,0,1,8.969-7.163.809.809,0,0,0,.4-.49.781.781,0,0,0-.288-.6,17.509,17.509,0,0,0-2.889-2.23q.143-2.45.271-4.9c4.437-.016,8.721-.032,12.822-.048.071,1.225.057,2.5.13,3.755C1149.693,281.043,1149.6,281.049,1149.518,281.065ZM1180.6,395.973c-3.168.719-6.645.432-9.855.128-2.209-.209-3.583-1.169-4.122-3.367a72.5,72.5,0,0,1-1.865-14.087c-.078-1.774-.238-3.633-.139-5.4.11-1.941.326-3.883.525-5.816.394-3.829.873-7.649,1.376-11.466a277.73,277.73,0,0,0,1.819-28.435c-.04-5.576-2.037-10.611-3.369-15.953-1.209-4.851-1.671-10.2,1.458-14.452,1.83-2.489,4.474-4.458,6.881-6.357,1.5-1.186,3.037-2.332,4.584-3.46-3.538-3.408-6.495-5.687-6.495-5.687-.035-.02-.069-.034-.1-.051.065-1.445.1-2.893.122-4.339h-2.757c-.081,1.582-.157,3.167-.19,4.75-1.86,1.126-3.876,3.4-6.048,4.128-2.085.695-3.943-1.019-5.49-2.161a18.834,18.834,0,0,0-4.159-2.434,25.879,25.879,0,0,0-.313-4.251c18.143-.073,32.377-.145,39.752-.212,0,.034-.013.065-.014.1-.065,1.605-.268,3.24-.356,4.865-3.961.578-22.628,13.931-25.189,19.053-2.618,5.236,2.992,16.831,3.74,26.929.547,7.384-2.305,32.679-3,42.544a39.909,39.909,0,0,0-.112,8.8q.138,1.409.378,2.807c.141.822.134,1.611.232,2.44.226,1.921.519,3.834.891,5.732.153.776.172,2.079.694,2.72.429.526,1.367.473,1.979.51,2.775.165,5.716.541,8.456-.081C1181.542,393.1,1182.231,395.6,1180.6,395.973Zm17.816-108.5c-.218,1.084-1.908,1.62-2.759,2.128-3.6,2.726-7.148,5.706-9.55,9.55-3.145,5.032-3.651,10.854-3.783,16.65-.364,15.992,1.731,39.23,1.613,55.222q-.023,3.3-.2,6.6h-2.485c.163-2.72.233-5.45.231-8.185-.16-2.194-.378-4.388-.6-6.575-.781-7.684-.98-22.7-1.032-30.419q-.021-3.17-.008-6.341c-.116-3.676-.156-7.354-.055-11.032.04-1.437.11-2.876.238-4.3.01-.487.016-.975.026-1.462.1-4.792,1.235-9.337,4.315-13.1a26.1,26.1,0,0,1,4.457-4.206,32.472,32.472,0,0,1,4.759-3.759,11.541,11.541,0,0,1,3.482-1.91,1.251,1.251,0,0,1,1.014.143A1.015,1.015,0,0,1,1198.418,287.477Zm10.108-5.906c-2.954-.032-4.949,2.992-6.714,4.168-1.685,1.124-4.425-1.549-7.11-2.95a54.944,54.944,0,0,0,.233-5.634c0-.045-.008-.083-.01-.125,4.473-.04,9.005-.077,13.552-.111A44.807,44.807,0,0,1,1208.526,281.57Zm21.823-4.788c5.643-.027,11.192-.046,16.558-.055q-.172,2.129-.336,4.259a2.79,2.79,0,0,0-1.3.34c-1.84,1.011-2.429,3.358-4.186,4.413-1.87,1.122-5.236-2.618-10.473-3.74-.219-.047-.434-.08-.646-.107A47.25,47.25,0,0,0,1230.349,276.782Zm-19.006,5.7a44.94,44.94,0,0,0-.048-5.583c5.506-.039,11.02-.074,16.459-.1a43.145,43.145,0,0,1-.522,5.281c-3.371.894-5.749,4.012-7.467,5.157C1217.552,288.71,1215.7,285.091,1211.343,282.48Zm19.459,10.74a24.8,24.8,0,0,0-3.438,5.9c-2.449,5.905-2.854,12.461-2.7,18.781.335,14.015,1.62,35.272.572,49.3-.625,8.363-1.633,16.764-2.618,25.093a1.344,1.344,0,0,1-.2.569,1.47,1.47,0,0,1-1.689.567,1,1,0,0,1-.662-1.137c.117-.985.229-1.973.344-2.959.77-6.633,1.492-13.291,2.093-19.933.714-7.9.731-23.163.485-31.089-.213-6.893-.73-13.778-.881-20.673a54.373,54.373,0,0,1,1.614-16.256,27.29,27.29,0,0,1,6.141-11,34.023,34.023,0,0,1,2.561-2.5c.991-.872,2.349-2.1,3.658-1.183a.779.779,0,0,1,.283.309.793.793,0,0,1,.035.422c-.1.734-.46.872-.97,1.281-.566.455-1.11.946-1.652,1.43A24.9,24.9,0,0,0,1230.8,293.221Zm31.411-12.155a9.471,9.471,0,0,0-2.986,1.693,39.012,39.012,0,0,0-3.179,2.644,84.419,84.419,0,0,1-8.022,6.346,34.694,34.694,0,0,0-3.482,3.082,14.031,14.031,0,0,0-3.835,10.314c0,4.422,1.263,8.658,1.95,12.991a78.914,78.914,0,0,1,.95,12.374,301.961,301.961,0,0,1-2.34,32.315c-.9,6.452-1.741,12.912-2.624,19.366-.227,1.664-.433,3.337-.577,5.014-.137,1.6-.219,3.2-.208,4.8.019,2.644.179,5.643,1.858,7.819a1.073,1.073,0,0,1-.593,1.723,1.376,1.376,0,0,1-1.61-.435c-3.18-4.12-2.336-10.831-1.825-15.625.668-6.272,1.648-12.543,2.492-18.795,1.2-8.892,2.65-25.1,2.852-34.085,0-.045,0-.091,0-.136a76.638,76.638,0,0,0-.9-14.015c-.69-4.212-1.857-8.341-1.972-12.635-.111-4.163.742-8.137,3.378-11.434a20.381,20.381,0,0,1,1.512-1.68,66.58,66.58,0,0,1,8.97-7.163.814.814,0,0,0,.4-.49.782.782,0,0,0-.288-.6,17.509,17.509,0,0,0-2.889-2.23q.16-2.751.3-5.5c4.406-.005,8.676,0,12.756.007.118,1.386.079,2.863.162,4.3C1262.389,281.043,1262.3,281.049,1262.214,281.065Zm18.955.918c-1.86,1.126-3.876,3.4-6.048,4.128-2.085.695-3.943-1.019-5.49-2.161a18.858,18.858,0,0,0-4.159-2.434,29.816,29.816,0,0,0-.38-4.779c5.931.021,11.417.059,16.287.121C1281.289,278.565,1281.2,280.276,1281.168,281.983Z" transform="translate(-932.232 -231.723)" fill="#8d8cbe"/>
        <path id="Trazado_154267" data-name="Trazado 154267" d="M1516.79,293.825h-.015a2.79,2.79,0,0,0-.1-.27Z" transform="translate(-1164.223 -256.267)" fill="#8d8cbe"/>
        <path id="Trazado_154268" data-name="Trazado 154268" d="M1366.088,495.058c-.077-.388-.134-.782-.182-1.178a1.358,1.358,0,0,0,.164,0C1366.066,494.273,1366.069,494.667,1366.088,495.058Z" transform="translate(-1104.378 -335.785)" fill="#8d8cbe"/>
      </g>
      <g id="Grupo_107039" data-name="Grupo 107039" transform="translate(-4.056 -115.392)">
        <path id="Trazado_154387" data-name="Trazado 154387" d="M1925.382,159.58s68.278-1.508,69.8-.033.161,9.755.161,9.755-68.29.758-69.8.032S1925.382,159.58,1925.382,159.58Z" transform="translate(-31.243 12.834)" fill="#8d8cbe"/>
        <g id="Grupo_107042" data-name="Grupo 107042" transform="translate(1839.584 211.681)">
          <g id="Grupo_107041" data-name="Grupo 107041" transform="translate(13.301)">
            <path id="Trazado_154392" data-name="Trazado 154392" d="M1900.49,240.988s-.054-13.246-1.312-18.911-3.095-9.1-4.984-9.1c0,0,3.05-2.433,6.719,3.82s5.243,24.511,5.243,24.511l-9.443,6.3-19.2-6.611s3.493-10.724,4.752-16.705,3.51-9.784,7.878-11.019h0a64.551,64.551,0,0,0-3.344,9.939c-.944,4.407-2.519,17.628-2.519,17.628Z" transform="translate(-1862.575 -211.892)" fill="#6765a9"/>
            <path id="Trazado_154393" data-name="Trazado 154393" d="M1858.693,297.171c.932,1.178,9.689,1.722,20.094,1.87,1.787.025,3.626.041,5.483.044,4.946.007,10.014-.057,14.609-.173,1.855-.048,3.63-.1,5.289-.164,6.478-.243,11.191-.589,11.817-.948,2.2-1.259-.629-13.851.63-22.98s5.667-23.609,4.407-25.813c-.428-.746-7.687-1.133-17.15-1.3-1.376-.025-2.8-.044-4.255-.06-5.522-.063-11.509-.066-17.182-.031-1.445.006-2.868.016-4.259.028-11.014.095-19.951.3-20.426.422-1.26.314,1.782,13.187,3.148,22.35C1863.1,285.209,1857.037,295.074,1858.693,297.171Z" transform="translate(-1857.449 -220.855)" fill="#8d8cbe"/>
            <path id="Trazado_154394" data-name="Trazado 154394" d="M1861.527,249.135c-.107-.686.9-1,1.067-.294,1.865,8.028,3.544,16.1,5.4,24.133.023,0,.046-.01.07-.012,15.19-1.015,33.052.76,48.227-.589.727-.065.715,1.059,0,1.132-15.09,1.537-32.9-.3-48.017.689a30.357,30.357,0,0,1,.88,10.871c-.578,4.118-2.481,8.031-1.84,12.262.116.769-1.042,1.119-1.19.328-.689-3.678.6-7.176,1.408-10.719,1-4.4.405-8.692-.6-13.03C1865.021,265.687,1862.828,257.481,1861.527,249.135Z" transform="translate(-1858.489 -221.072)" fill="#b3b2d4"/>
            <path id="Trazado_154395" data-name="Trazado 154395" d="M1885.683,289.866c1.787.025,3.626.041,5.483.044,1.146-2.663.749-21.173-.658-25.841a53.678,53.678,0,0,1-1.781-19.042c.151-1.656.356-3.979.6-6.589.8-8.3,2.053-19.511,3.488-21.428,1.889-2.519,3.463-4.408,6.611-3.778s6.3,13.221,6.61,16.055c.176,1.574.35,5.48.473,9.182.094,2.959.157,5.789.157,7.187,0,3.148.63,15.111.944,19.2.309,4.017-.078,20.348-1.838,24.878,1.855-.048,3.63-.1,5.289-.164a59.741,59.741,0,0,0,1.114-8.5c.315-5.981-.315-14.166-.315-18.887,0-3.4-.327-15.268-1.1-23.654a46.918,46.918,0,0,0-1.108-7.511c-1.574-5.352-5.037-17.943-9.759-18.887s-6.925-.63-9.758,3.148c-2.144,2.858-4.108,15.088-5.072,23.188-.311,2.607-.519,4.785-.595,6.088-.315,5.352,1.668,16.445,2.094,19.712C1886.989,267.494,1885.714,289.325,1885.683,289.866Z" transform="translate(-1864.346 -211.681)" fill="#b3b2d4"/>
          </g>
        </g>
      </g>
    </g>
    <g id="Grupo_108077" data-name="Grupo 108077" transform="translate(6886.787 -8979.749)">
      <path id="Trazado_155479" data-name="Trazado 155479" d="M706.821,664.886c0,3.306,38.911,5.986,86.908,5.986s86.909-2.68,86.909-5.986-38.911-5.986-86.909-5.986S706.821,661.58,706.821,664.886Z" fill="#827993"/>
      <g id="Grupo_108024" data-name="Grupo 108024">
        <path id="Trazado_155480" data-name="Trazado 155480" d="M736.906,652.844c5.028-1.675,16.2-12.848,18.435-16.758a24.923,24.923,0,0,0,1.892-5.4c.37-1.416,1.833-6.849,2.142-8.313a43.038,43.038,0,0,0,.722-4.632l1.769-21.7c4.695.749,9.392,1.5,14.1,2.224,2.811.431,5.626.838,8.441,1.248-3.749,11.255-7.776,23.472-9.521,29.312a77.281,77.281,0,0,0-1.947,8.06,19.653,19.653,0,0,0-.288,3.107c0,4.469,1.676,7.262,2.235,9.5s1.117,6.7.558,8.937-49.147,3.352-48.588,0S731.884,654.52,736.906,652.844Z" fill="#ee9d80"/>
        <path id="Trazado_155481" data-name="Trazado 155481" d="M772.652,640q0-.528.047-1.129c-2-1-3.993-2.018-6.079-2.826-3.279-1.272-6.773-1.789-10.164-2.68a18.522,18.522,0,0,1-1.576,3.11c-2.235,3.911-12.946,14.7-17.974,16.373s-9.491,2.235-10.049,5.586,48.03,2.235,48.588,0a21.272,21.272,0,0,0,.044-8.4C774.93,647.795,772.652,644.465,772.652,640Z" fill="#fff"/>
        <path id="Trazado_155482" data-name="Trazado 155482" d="M838.986,605.75c-1.477,9.661-3.15,20.225-4.773,30.607a81.227,81.227,0,0,1-2.359,10.9c-1.117,3.352-8.374,5.586-10.049,1.117-.336-.9-.743-5.2-1.188-11.53-.576-8.255-1.215-20.368-1.844-32.962C825.5,604.6,832.239,605.237,838.986,605.75Z" fill="#ee9d80"/>
        <path id="Trazado_155483" data-name="Trazado 155483" d="M834.213,636.357c-1.2,5.971-2.05,11.78-2.321,12.588-1.117,3.351-8.629,5.553-10.3,1.084-.337-.9-.526-6.849-.971-13.184C823.03,636.037,828.1,633.759,834.213,636.357Z" fill="#fff"/>
        <g id="Grupo_108022" data-name="Grupo 108022">
          <g id="Grupo_108020" data-name="Grupo 108020">
            <path id="Trazado_155484" data-name="Trazado 155484" d="M779.817,667.13a64.68,64.68,0,0,1-6.494.207,1.265,1.265,0,0,0,.017-.156v-.118a1.893,1.893,0,0,0-.53-1.284,1.817,1.817,0,0,0-3.1,1.279v.117a1.109,1.109,0,0,0,.022.2c-2.731.023-5.852.034-9.169.034a1.877,1.877,0,0,0-.53-1.284,1.854,1.854,0,0,0-1.285-.531,1.97,1.97,0,0,0-1.273.542,1.748,1.748,0,0,0-.541,1.273c-4.121-.006-8.426-.022-12.553-.05a1.754,1.754,0,1,0-3.484-.034c-2.7-.028-5.271-.061-7.617-.1a1.748,1.748,0,0,0-3.495-.073c-5.009-.117-8.365-.274-8.571-.48-.871-.877-.436-6.561,0-7.432.347-.7,2.094-.843,2.781-.866.173-.011.279-.011.279-.011a9.815,9.815,0,0,1,.877-3.06c.877-2.189,7-3.06,10.933-3.931s10.068-10.933,11.38-11.8,5.684-.871,6.555,0,.877,6.561,3.061,7.873,16.622-2.178,16.622-2.178c1.983.458,3.306,11.135,3.474,12.536l.016.151a9.42,9.42,0,0,1,2.625.435C781.135,658.822,779.823,666.689,779.817,667.13Z" fill="#916f6e"/>
          </g>
          <g id="Grupo_108021" data-name="Grupo 108021">
            <path id="Trazado_155485" data-name="Trazado 155485" d="M842.636,665.383c-.023.463-.04.932-.062,1.4a1.543,1.543,0,0,1-.1.614c-.179.413-.548.34-.927.374-1.653.162-3.328.2-4.992.234-2.262.045-4.523.045-6.785.034q-3.644-.025-7.27-.112c-2.155-.056-4.311-.117-6.455-.2l-2.524-.117a4.11,4.11,0,0,1-1.312-.145,1.93,1.93,0,0,1-1.072-1.86,42.892,42.892,0,0,1,.039-5.282,1.975,1.975,0,0,1,.156-.782,1.036,1.036,0,0,1,.682-.508,4.2,4.2,0,0,1,.731-.017v-.078a7.429,7.429,0,0,1,2.915-5.433.345.345,0,0,1-.022-.084.847.847,0,0,1-.028-.178c-.012-.324.273-2.072.273-3.82,0-1.312,1.77-1.842,3.066-3.06,1.228-1.167,1.407-3.691,3.06-4.377a20.539,20.539,0,0,1,6.952-.816c1.239.084,3.562-.2,4.517.816a5.655,5.655,0,0,1,.821,2.116,8.289,8.289,0,0,0,1.887,3.25c1.223,1.284,2.574,1.513,3,3.316a13.575,13.575,0,0,1,.279,3.937,8.9,8.9,0,0,1,1.726,4.316c.067,0,.128.006.19.012a1.227,1.227,0,0,1,.977.53.9.9,0,0,0,.05.078,2.8,2.8,0,0,1,.246,1.15C842.753,662.25,842.691,663.813,842.636,665.383Z" fill="#916f6e"/>
            <path id="Trazado_155486" data-name="Trazado 155486" d="M830.182,652.947a21.039,21.039,0,0,0-14.3.407.687.687,0,0,1-.245.061.778.778,0,0,1-.03-.179c-.009-.32-.022-.652-.04-.993.013-.009.027-.013.04-.022a18.66,18.66,0,0,1,14.992-.8C831.52,651.792,831.179,653.24,830.182,652.947Z" fill="#6c4e4e"/>
          </g>
          <path id="Trazado_155487" data-name="Trazado 155487" d="M779.817,667.13a64.68,64.68,0,0,1-6.494.207,1.265,1.265,0,0,0,.017-.156v-.118a1.893,1.893,0,0,0-.53-1.284,1.817,1.817,0,0,0-3.1,1.279v.117a1.109,1.109,0,0,0,.022.2c-2.731.023-5.852.034-9.169.034a1.877,1.877,0,0,0-.53-1.284,1.854,1.854,0,0,0-1.285-.531,1.97,1.97,0,0,0-1.273.542,1.748,1.748,0,0,0-.541,1.273c-4.121-.006-8.426-.022-12.553-.05a1.754,1.754,0,1,0-3.484-.034c-2.7-.028-5.271-.061-7.617-.1a1.748,1.748,0,0,0-3.495-.073c-5.009-.117-8.365-.274-8.571-.48-.871-.877-.436-6.561,0-7.432.347-.7,2.094-.843,2.781-.866l.062.062,53.046-.559.073-.078.016.151a9.42,9.42,0,0,1,2.625.435C781.135,658.822,779.823,666.689,779.817,667.13Z" fill="#2e3233"/>
          <path id="Trazado_155488" data-name="Trazado 155488" d="M842.636,665.383c-.023.463-.04.932-.062,1.4a1.543,1.543,0,0,1-.1.614c-.179.413-.548.34-.927.374-1.653.162-3.328.2-4.992.234-2.262.045-4.523.045-6.785.034q-3.644-.025-7.27-.112c-2.155-.056-4.311-.117-6.455-.2l-2.524-.117a4.11,4.11,0,0,1-1.312-.145,1.93,1.93,0,0,1-1.072-1.86,42.892,42.892,0,0,1,.039-5.282,1.975,1.975,0,0,1,.156-.782,1.036,1.036,0,0,1,.682-.508,4.2,4.2,0,0,1,.731-.017v-.078l.1.056h28.477l.062-.061a1.227,1.227,0,0,1,.977.53.9.9,0,0,0,.05.078,2.8,2.8,0,0,1,.246,1.15C842.753,662.25,842.691,663.813,842.636,665.383Z" fill="#2e3233"/>
        </g>
        <g id="Grupo_108023" data-name="Grupo 108023">
          <path id="Trazado_155489" data-name="Trazado 155489" d="M809.84,504.028c-.842,23.233-6.777,21.877-11.1,48.666-3.4,21.021-7.307,58.732-14.328,77.7-2.726.908-26.036-5.773-27.6-6.518-.9-2.3-.087-5.534.027-7.932,2.919-32.845,12.533-131.14,15.651-167.721,16.31-53.825-.539-31.554,36.573-25.016.772-.11-9.492,19.223-8.825,19.627C805.164,462.33,807.931,483.723,809.84,504.028Z" fill="#fff"/>
        </g>
        <path id="Trazado_155490" data-name="Trazado 155490" d="M835.562,431.641s7.011,15.509,9.081,31.331-5.449,70.833-4.54,80.822,4.086,79.006,2.27,84-31.171,1.4-32.533-.415-5.608-122.635-5.608-122.635l-12.26-82.639A182.8,182.8,0,0,1,835.562,431.641Z" fill="#fff"/>
        <path id="Trazado_155491" data-name="Trazado 155491" d="M834.716,460.129A49.209,49.209,0,0,1,822.795,447.1c-.831-1.389-2.894.028-2.075,1.416A54.389,54.389,0,0,0,833.005,462.1C834.327,463.126,836.048,461.154,834.716,460.129Z" fill="#464e7a"/>
      </g>
      <g id="Grupo_108065" data-name="Grupo 108065">
        <g id="Grupo_108057" data-name="Grupo 108057">
          <g id="Grupo_108031" data-name="Grupo 108031">
            <g id="Grupo_108027" data-name="Grupo 108027">
              <g id="Grupo_108026" data-name="Grupo 108026">
                <g id="Grupo_108025" data-name="Grupo 108025">
                  <path id="Trazado_155492" data-name="Trazado 155492" d="M780.262,305.824a6.31,6.31,0,0,1,2.878-6.983c1.071-.583,2.521-1.093,2.608-2.321a3.529,3.529,0,0,0-.8-1.954,6.005,6.005,0,0,1-.321-5.812c1.123-2.091,3.557-3.087,5.87-3.475a18.421,18.421,0,0,1,7.549.308c5.033,1.274,7.2-2.952,11.076-5.341a11.36,11.36,0,0,1,13.322,1.506c2.733,2.569,4.095,6.324,6.775,8.948,1.962,1.922,4.5,3.116,6.781,4.649,3.807,2.563,7.054,6.448,7.483,11.017.353,3.767-1.228,7.566-.581,11.293.7,4.015,3.795,7.105,5.923,10.579a20.8,20.8,0,0,1,2.558,16.185c-.783,2.811-2.244,5.442-2.617,8.336-.406,3.156.515,6.414-.194,9.515-.847,3.7-3.961,6.581-7.479,8.012s-7.414,1.614-11.211,1.513a150.873,150.873,0,0,1-16.611-1.626c-6.414-.888-12.821-1.839-19.191-3-4.011-.733-8.147-1.608-11.442-4.009a2.433,2.433,0,0,1-.9-.983,2.4,2.4,0,0,1,.081-1.584c.684-2.21-4.053-3.5-2.559-5.262,6.9-8.153.172-9.858,1.641-14.826,1.05-3.553,3.115-6.96,3.174-9.232.052-1.96-1.876-3.687-2.426-5.568-1.956-6.681,6.263-10.987,1.341-15.935a11.5,11.5,0,0,1-2.4-3.058A5.276,5.276,0,0,1,780.262,305.824Z" fill="#1a1a1a"/>
                </g>
              </g>
            </g>
            <g id="Grupo_108030" data-name="Grupo 108030">
              <g id="Grupo_108029" data-name="Grupo 108029">
                <g id="Grupo_108028" data-name="Grupo 108028">
                  <path id="Trazado_155493" data-name="Trazado 155493" d="M787.214,298.728a.847.847,0,0,0,.192-1.626h0c-.251-.1-6.134-2.518-5.136-7.772,1.017-5.351,7.064-6.1,7.124-6.108l.026,0a.847.847,0,0,0-.218-1.68c-.072,0-7.35.914-8.6,7.476-1.009,5.31,3.6,8.643,6.176,9.663A.843.843,0,0,0,787.214,298.728Z" fill="#1a1a1a"/>
                </g>
              </g>
            </g>
          </g>
          <g id="Grupo_108033" data-name="Grupo 108033">
            <g id="Grupo_108032" data-name="Grupo 108032">
              <path id="Trazado_155494" data-name="Trazado 155494" d="M845.334,368.8c-7.781-7.21-17.451-16.8-19.9-22.043-4.254-9.117-2.093-27.71-2.093-27.71l-19.58,8.043s-.088,5.317-.446,10.252c-.278,3.826-.717,7.424-1.4,8.152a1.5,1.5,0,0,1-.6.311c-4.131,1.322-15.847,9.226-23.683,10.432-1.724.266-12.48,30.791-12.48,30.791l28.233,3.289,49.2-8.806C843.51,377.278,844.358,373.025,845.334,368.8Z" fill="#e38e6b"/>
            </g>
          </g>
          <g id="Grupo_108035" data-name="Grupo 108035">
            <g id="Grupo_108034" data-name="Grupo 108034">
              <path id="Trazado_155495" data-name="Trazado 155495" d="M816.347,333.282c-.1.615,1.686,11.2-15.033,12.525a1.492,1.492,0,0,0,.6-.311c.686-.728,1.125-4.326,1.4-8.152A115.9,115.9,0,0,1,816.347,333.282Z" fill="#391715"/>
            </g>
          </g>
          <g id="Grupo_108054" data-name="Grupo 108054">
            <g id="Grupo_108038" data-name="Grupo 108038">
              <g id="Grupo_108037" data-name="Grupo 108037">
                <g id="Grupo_108036" data-name="Grupo 108036">
                  <path id="Trazado_155496" data-name="Trazado 155496" d="M786.306,310.345c.193,3.431-3.908,27.883,13.436,31.649,6.694,1.454,14.416-1.922,19.07-7.747,2.13-2.666,3.247-3.67,3.7-7.134,0,0,8.488-5.118,3.117-11.983-1.892-2.417-4.292-.936-5.881.593a1.088,1.088,0,0,1-1.839-.694,15.3,15.3,0,0,0-1.4-5.831,4.98,4.98,0,0,0-4.885-2.316,7.859,7.859,0,0,1-5.876-1.841,5,5,0,0,0-3.681-1.027,8.448,8.448,0,0,1-7.309-3.423c-1.881-2.6-3.352-1.931-5.557-1.442C789.2,299.149,786.052,305.83,786.306,310.345Z" fill="#e38e6b"/>
                </g>
              </g>
            </g>
            <g id="Grupo_108041" data-name="Grupo 108041">
              <g id="Grupo_108040" data-name="Grupo 108040">
                <g id="Grupo_108039" data-name="Grupo 108039">
                  <path id="Trazado_155497" data-name="Trazado 155497" d="M805.286,316.242a1.247,1.247,0,0,1,1.061-.406q.069,0,.135,0a.213.213,0,0,1,.05,0c.017,0,.029.009.046.011,1.374.166,1.756,2.069,1.1,3.113a1.112,1.112,0,0,1-.439.622,1.261,1.261,0,0,1-.759.177.3.3,0,0,1-.071.028,1.205,1.205,0,0,1-1.335-.826A2.139,2.139,0,0,1,805.286,316.242Z" fill="#1a1a1a"/>
                </g>
              </g>
            </g>
            <g id="Grupo_108044" data-name="Grupo 108044">
              <g id="Grupo_108043" data-name="Grupo 108043">
                <g id="Grupo_108042" data-name="Grupo 108042">
                  <path id="Trazado_155498" data-name="Trazado 155498" d="M787.342,317.1a1.606,1.606,0,0,1,2.371-.2,1.291,1.291,0,0,1,.171.191,1.167,1.167,0,0,1,.27.787c0,.035,0,.069-.005.1,0,.011,0,.021,0,.032a3.26,3.26,0,0,1-.474,1.463,1.477,1.477,0,0,1-2.37-.109A1.9,1.9,0,0,1,787.342,317.1Z" fill="#1a1a1a"/>
                </g>
              </g>
            </g>
            <g id="Grupo_108047" data-name="Grupo 108047">
              <g id="Grupo_108046" data-name="Grupo 108046">
                <g id="Grupo_108045" data-name="Grupo 108045">
                  <path id="Trazado_155499" data-name="Trazado 155499" d="M795.283,326.288a.866.866,0,0,1,1-.719l1.385.257a.926.926,0,0,1,.737,1.024.864.864,0,0,1-1,.718l-1.385-.256A.926.926,0,0,1,795.283,326.288Z" fill="#ce7a59"/>
                </g>
              </g>
            </g>
            <g id="Grupo_108050" data-name="Grupo 108050">
              <g id="Grupo_108049" data-name="Grupo 108049">
                <g id="Grupo_108048" data-name="Grupo 108048">
                  <path id="Trazado_155500" data-name="Trazado 155500" d="M802.427,310.176c1.218.159,2.444.126,3.656.353,1.23.23,2.431.615,3.651.892,1.1.251.85,1.995-.26,1.743-1.22-.277-2.421-.667-3.651-.893-1.212-.222-2.438-.193-3.656-.353A.881.881,0,0,1,802.427,310.176Z" fill="#1a1a1a"/>
                </g>
              </g>
            </g>
            <g id="Grupo_108053" data-name="Grupo 108053">
              <g id="Grupo_108052" data-name="Grupo 108052">
                <g id="Grupo_108051" data-name="Grupo 108051">
                  <path id="Trazado_155501" data-name="Trazado 155501" d="M785.166,312.7a5.033,5.033,0,0,1,2.445-1.687c1.029-.424,1.842,1.159.8,1.588a3.636,3.636,0,0,0-1.76,1.066C786.006,314.579,784.515,313.615,785.166,312.7Z" fill="#1a1a1a"/>
                </g>
              </g>
            </g>
          </g>
          <g id="Grupo_108056" data-name="Grupo 108056">
            <g id="Grupo_108055" data-name="Grupo 108055">
              <path id="Trazado_155502" data-name="Trazado 155502" d="M793.729,331.135s2.02,5.618,5.856,5.735c4.728.143,6.178-6.766,6.178-6.766Z" fill="#fff"/>
            </g>
          </g>
        </g>
        <path id="Trazado_155503" data-name="Trazado 155503" d="M763.645,383.151c-4.037,11.085-12.473,32.809-12.473,32.809s16.69,9.145,17.472,9.23,11.567-32.242,11.808-33.887S763.645,383.151,763.645,383.151Z" fill="#e38e6b"/>
        <g id="Grupo_108059" data-name="Grupo 108059">
          <path id="Trazado_155504" data-name="Trazado 155504" d="M924.272,319.534c-2.758-2.87-8.746-8.76-11.56-8.76s-12.948-1.125-15.2-1.125-.563,3.94,4.5,4.5c-.291-.032-.858,1.463-.911,1.7a2.022,2.022,0,0,0,.267,1.621c.381.528,1.071.8,1.347,1.4.376.8-.194,1.763,0,2.629.231,1.032,1.407,1.525,2.026,2.382a7.4,7.4,0,0,1,.759,1.747c.555,1.45,2.128,2.162,3.531,2.63a43.166,43.166,0,0,0,8.462,1.381s2.355.68,4.129,4.583C926.244,344.375,929.212,324.675,924.272,319.534Z" fill="#e38e6b"/>
          <path id="Trazado_155505" data-name="Trazado 155505" d="M909.34,313.276l-.1,0a25.672,25.672,0,0,1-2.7-.131c-1.76-.133-3.681-.212-5.188.864-.939.669-.331,1.916.663,1.266,2.262-1.48,5.252-.513,7.746-1.094.3-.071.79-.183.548-.576C910.106,313.276,909.687,313.267,909.34,313.276Z" fill="#ce7a59"/>
          <g id="Grupo_108058" data-name="Grupo 108058">
            <path id="Trazado_155506" data-name="Trazado 155506" d="M928.192,335.825a39.758,39.758,0,0,0-4.257-3.271,17.464,17.464,0,0,0-8.356-3.064c-3.175-.3-7.772-.736-12.866-1.213a51.68,51.68,0,0,0,8.325,17.637,65.356,65.356,0,0,0,9.2,10.467c5.079-6.465,6.634-8.352,7.388-9.86C929.318,343.143,929.881,337.514,928.192,335.825Z" fill="#76ccc3"/>
            <path id="Trazado_155507" data-name="Trazado 155507" d="M920.124,343.382q1.1-1.843,2.233-3.667c.077-.123.15-.248.226-.371q1.248-2,2.536-3.979c.371-.569-.485-1.175-.863-.608q-1.281,1.92-2.518,3.873-1.192,1.877-2.341,3.782l-.072.116a168.4,168.4,0,0,0-12.046,23.015c-.244.574.653.9.9.334,2.529-5.652,4.338-8.878,7.28-14.3q2.239-4.127,4.643-8.165Z" fill="#338880" opacity="0.5"/>
          </g>
        </g>
        <g id="Grupo_108062" data-name="Grupo 108062">
          <g id="Grupo_108060" data-name="Grupo 108060">
            <path id="Trazado_155508" data-name="Trazado 155508" d="M709.707,392.2a1.728,1.728,0,0,1,.428-.085c.856-.085,2.54-1.755,6,1.016,4.618,3.694,7.85,8.773,12.93,8.773,4.156,0,2.309,5.542,2.309,5.542l-19.4,2.308Z" fill="#be2328"/>
            <path id="Trazado_155509" data-name="Trazado 155509" d="M742.424,352.218c-.077.186-.19.389-.366.415-.236.036-.394-.253-.493-.5a14.077,14.077,0,0,0-1.941-3.582,5.174,5.174,0,0,0-3.151-2.013,2.818,2.818,0,0,0-3.3,2.017,7.1,7.1,0,0,0,.019,3.626c.655,2.377,2.524,4.11,3.083,6.521a10.8,10.8,0,0,1,.219,2.368,32.069,32.069,0,0,1-.279,4.423.74.74,0,0,1-.094.319.522.522,0,0,1-.377.185,4.2,4.2,0,0,1-1.3,0c-.29-.493.076-1.341.131-1.876a16.542,16.542,0,0,0,.024-3.439,10.7,10.7,0,0,0-1.631-4.78,14.81,14.81,0,0,1-2.105-4.315,6.835,6.835,0,0,1,.306-4.65,4.887,4.887,0,0,1,3.309-2.587,6.393,6.393,0,0,1,4,.554C740.866,345.989,743.764,348.967,742.424,352.218Z" fill="#2f3534"/>
            <path id="Trazado_155510" data-name="Trazado 155510" d="M717.985,386.669s5.08,5.079,6,6,4.156,11.082,4.156,11.082L742,400.522l-4.617-15.239-6.927-14.315Z" fill="#e38e6b"/>
            <path id="Trazado_155511" data-name="Trazado 155511" d="M709.673,392.21s6.7-7.157,8.543-9.466,8.382-16.3,12.237-17.779c3-1.154,10.852-.231,11.775,1.616s4.618,13.854,6.465,17.086,6.927,8.774,6.927,8.774l-5.311,2.54s-7.388-6.927-8.773-10.621-2.771-9.7-4.156-10.621-4.618,0-5.08,0-6.964,10.943-10.621,14.777-10.851,8.081-10.851,8.081A18.572,18.572,0,0,1,709.673,392.21Z" fill="#2f3534"/>
            <path id="Trazado_155512" data-name="Trazado 155512" d="M740.15,399.6s-2.77-9.7-2.77-12.929-.462-6.927-1.847-8.312-3.233-6.465-4.618-7.85-3.233,1.847-2.309,5.079a15.812,15.812,0,0,1,.462,5.08c0,.461-3.233,5.079-1.386,8.773s5.542,12.468,5.542,12.468Z" fill="#e38e6b"/>
            <path id="Trazado_155513" data-name="Trazado 155513" d="M714.3,383.238a4.452,4.452,0,0,0,2.342,1.279,29.652,29.652,0,0,0,4.032.527,2.38,2.38,0,0,0,2.6-1.156,3.046,3.046,0,0,1,.429-.775,1.851,1.851,0,0,1,.486-.327,2.964,2.964,0,0,0,1.491-1.321c.293-.716.024-1.62.482-2.243.3-.4.819-.57,1.178-.917a1.933,1.933,0,0,0,.521-1.548,5.417,5.417,0,0,0-1.1-2.485,1.064,1.064,0,0,1-.234-.73c.063-.374.448-.584.747-.817a4.593,4.593,0,0,0,1.373-2.841,4.894,4.894,0,0,0-.036-2.813,1.873,1.873,0,0,0-2.282-1.169c-.834.359-1.154,1.452-1.98,1.829a4.791,4.791,0,0,1-.962.235,3.457,3.457,0,0,0-2.538,2.469,4.044,4.044,0,0,1-.348,1.172,1.911,1.911,0,0,1-.592.564,15.026,15.026,0,0,1-2.167.972,3.056,3.056,0,0,0-1.717,1.555c-.31.821-.019,1.747-.169,2.611C715.527,379.187,712.68,381.281,714.3,383.238Z" fill="#e38e6b"/>
            <path id="Trazado_155514" data-name="Trazado 155514" d="M726.522,372.2a1.513,1.513,0,0,1-1.927-.843,3.356,3.356,0,0,1,.1-2.75c.419-.712-.377-.9-.845-.266a3.628,3.628,0,0,0-.29,4.071c.764,1.208,2.4,1.018,3.685.445C727.964,372.534,727.261,371.969,726.522,372.2Z" fill="#ce7a59"/>
            <path id="Trazado_155515" data-name="Trazado 155515" d="M727.78,386.517a12.7,12.7,0,0,1,.965-3.664,13.871,13.871,0,0,0,.323-5.42c-.057-.971-.919-.9-.884.086.09,2.578-1.125,4.711-1.759,7.134a9.6,9.6,0,0,0,.678,6.082c.379,1,2.007.565,1.621-.447A10.064,10.064,0,0,1,727.78,386.517Z" fill="#ce7a59"/>
          </g>
          <g id="Grupo_108061" data-name="Grupo 108061">
            <path id="Trazado_155516" data-name="Trazado 155516" d="M775.707,439.311c-.462,2.309-16.624,18.471-18.009,18.933-1.178.392,2.318,33.506,2.535,46.819a24.026,24.026,0,0,1-.226,4.9c-.088.351-.162.7-.231,1.043-1,5.121,0,9.605-3.464,10.039-3.694.462-16.623-6.465-23.55-15.7s-19.4-13.853-21.242-19.856c-.489-1.6-.72-5.117-.822-9.453-.06-2.632-.069-5.574-.06-8.561.023-10.589.291-21.828-.5-22.623-1.385-1.385-11.544-10.159-12.468-12.929s6.465-19.857,6.927-26.783,2.309-10.621,5.079-12.93c0,0,2.54,6.234,11.775,9.005,7.837,2.35,21.935-4.387,25.167-6.234s6.751-5.135,7.532-4.415,9.554,9.494,10.477,13.188,3.233,14.777,5.542,20.78c.083.217.171.439.258.656.651,1.639,1.395,3.3,2.111,4.895C774.359,434.13,776.026,437.713,775.707,439.311Z" fill="#fa8e80"/>
            <path id="Trazado_155517" data-name="Trazado 155517" d="M709.754,426.464c-.9-6.506-2.133-13.836-1.466-20.4.106-1.048-1.016-.254-1.135.773-.738,6.365-.13,12.68.7,19,.836,6.371,1.41,12.667,1.857,19.07a.8.8,0,0,0,1.6,0C711.857,438.811,710.587,432.493,709.754,426.464Z" fill="#e66f64"/>
            <path id="Trazado_155518" data-name="Trazado 155518" d="M764.943,405.08a24.83,24.83,0,0,0-12.38,7.661,32.876,32.876,0,0,0-7.615,18.023c-.06.512.73.5.794,0a32.58,32.58,0,0,1,7.449-17.4,24.06,24.06,0,0,1,11.96-7.416Z" fill="#e66f64" opacity="0.5"/>
            <path id="Trazado_155519" data-name="Trazado 155519" d="M760.007,509.963c-.088.351-.162.7-.231,1.043-3.865.707-8.077-.859-11.314-3.3-4.964-3.741-8.88-8.686-13.553-12.764-5.019-4.378-11.433-6.345-16.591-10.482a40.132,40.132,0,0,1-7.62-8.423c-.06-2.632-.069-5.574-.06-8.561a1.9,1.9,0,0,1,.157.194c3.3,4.456,6.225,9.189,10.663,12.648,4.493,3.5,10.117,5.1,14.666,8.579,4.428,3.385,8.132,7.537,12.144,11.374,3.2,3.057,7.55,6.848,11.965,4.793A24.026,24.026,0,0,1,760.007,509.963Z" fill="#fff"/>
            <path id="Trazado_155520" data-name="Trazado 155520" d="M770.424,425.19c-4.955.2-10.2,3.7-13.742,6.867A59.24,59.24,0,0,0,745.029,446.3c.4,2.2.792,4.406,1.1,6.621A60.967,60.967,0,0,1,757.338,437.5c3.347-3.3,10.071-9.554,15.2-7.411C771.819,428.492,771.075,426.829,770.424,425.19Z" fill="#fff"/>
            <path id="Trazado_155521" data-name="Trazado 155521" d="M749.357,464.423c-1.727-1.261-1.644-4.819-1.939-6.688q-.525-3.337-1.05-6.674a62.439,62.439,0,0,1-1.014-13.977c.071-1.072-1.51-1.018-1.638,0-.678,5.414.387,10.891,1.207,16.232.432,2.819.807,5.654,1.3,8.463.307,1.755.741,3.153,2.207,4.233C749.381,466.714,750.306,465.116,749.357,464.423Z" fill="#e66f64"/>
            <path id="Trazado_155522" data-name="Trazado 155522" d="M763.239,446.238S748,461.476,750.309,463.785s26.322-21.7,25.4-24.474S763.239,446.238,763.239,446.238Z" fill="#be2328"/>
          </g>
        </g>
        <path id="Trazado_155523" data-name="Trazado 155523" d="M797.416,347.6c4.442,4.551,24.751,5.467,28.653.35,0,0,14.171,6.771,17.632,10.627s8.44,18.474,7.155,24.9-14.619,67.905-14.619,67.905-22.17.968-25.7-.134-10.763,2.2-17.51,1.676-17.912,4.1-19.036,4.742-2.984-8.328-1.452-18.848,6.194-26.745,6.433-32.207-.082-7.648-1.368-10.009-9.317-9.476-13.173-11.059l-3.855-1.584s2.731-19.277,9.639-25.864S797.416,347.6,797.416,347.6Z" fill="#5b77c6"/>
        <path id="Trazado_155524" data-name="Trazado 155524" d="M803.014,497.379a.708.708,0,0,0,.706-.675l1.535-32.942a.708.708,0,1,0-1.414-.065l-1.535,32.942a.707.707,0,0,0,.674.739Z" fill="#f0e5dc"/>
        <path id="Trazado_155525" data-name="Trazado 155525" d="M840.252,399.763a.736.736,0,0,0,.173-.021.708.708,0,0,0,.515-.859c-.034-.134-3.341-13.463-2.873-20.024a.707.707,0,0,0-.655-.757.718.718,0,0,0-.757.655c-.484,6.788,2.772,19.914,2.911,20.47A.708.708,0,0,0,840.252,399.763Z" fill="#3d5aa1"/>
        <g id="Grupo_108064" data-name="Grupo 108064">
          <g id="Grupo_108063" data-name="Grupo 108063">
            <path id="Trazado_155526" data-name="Trazado 155526" d="M869.5,282.3c.075.191.19.4.391.438.269.051.474-.228.606-.467a13.964,13.964,0,0,1,2.508-3.449,6.283,6.283,0,0,1,3.789-1.806c1.588-.111,3.294.569,3.663,2.225a6.171,6.171,0,0,1-.292,3.617c-.933,2.33-3.221,3.939-4.046,6.309a9.532,9.532,0,0,0-.429,2.35,27.659,27.659,0,0,0-.006,4.431.644.644,0,0,0,.084.324.626.626,0,0,0,.422.209,5.588,5.588,0,0,0,1.5.079c.372-.473.013-1.343-.011-1.881a14.365,14.365,0,0,1,.228-3.433,9.992,9.992,0,0,1,2.239-4.665,14.431,14.431,0,0,0,2.753-4.17,5.974,5.974,0,0,0-.007-4.661,5.465,5.465,0,0,0-3.629-2.795,8.5,8.5,0,0,0-4.66.3C871.764,276.179,868.2,278.964,869.5,282.3Z" fill="#2f3534"/>
            <path id="Trazado_155527" data-name="Trazado 155527" d="M900.689,315.583c-1.579.487-8.832,6.988-18.092,6.822-1.375,4.351-3.394,7.729-5.362,11.8-.254.526-1.179.742-1.4.193-.938-2.277-2.855-11.181-3.441-13.79-7.612-2.33-18.9-9.458-18.9-9.458l-1.188,2.789L863.5,349.6l23.975,1.922L903.978,319.6S902.39,315.058,900.689,315.583Z" fill="#bb272d"/>
            <path id="Trazado_155528" data-name="Trazado 155528" d="M849.945,311.056s12.947-10.133,16.888-12.947,8.444-5.067,11.821-3.941,12.385,10.133,15.2,12.384,9.851,8.163,9.851,8.163l-3.941,3.94s-20.828-16.324-23.643-15.762-25.146,14.7-25.146,14.7Z" fill="#2f3534"/>
            <path id="Trazado_155529" data-name="Trazado 155529" d="M898.768,382.01c-.217.434.245,5.019.975,11.147.06.356,15.418,69.433,18.189,77.745s12.93,40.636,7.85,46.177-68.8,18.933-73.422,17.086-5.541-13.392-5.541-13.392a50.438,50.438,0,0,0-10.621-5.541c-6.927-2.771-24.936-12.93-28.63-17.547-1.335-1.667-1.284-5.32-.457-9.892.069-.364.138-.734.217-1.112,1.6-7.971,5.273-18.328,8.09-25.939,4.618-12.467,32.029-81.9,32.555-86.121.24-1.907-1.995-9.919-2.027-10.293s.032-.8-.42-.9a5.893,5.893,0,0,1-2.351-.96,6.217,6.217,0,0,1-2.128-3.08c-.416-1.252-1.746-5.537-3.284-10.556-1.833-5.99-3.962-13.018-5.2-17.169-.521-1.773-.882-3.02-.988-3.445-.563-2.253,5.495-6.16,8.312-7.85s9.49-10.432,10.616-10.432,11.771,35.714,21.477,36.522c11.083.924,30.353-32.883,30.353-32.883s24.165,20.568,25.855,22.253,1.126,7.319-.564,10.7-15.155,19.386-16.282,21.071-2.909-.129-4.036-.129C906.517,367.464,902,375.545,898.768,382.01Z" fill="#e74854"/>
            <path id="Trazado_155530" data-name="Trazado 155530" d="M896.63,383.89c-16.436-7.465-29.1-9.768-47.041-11.808-1.067-.122-1.257,2.658-.207,2.786,17.613,2.147,30.182,3.242,46.338,10.58C896.769,385.924,897.687,384.37,896.63,383.89Z" fill="#bb272d"/>
            <path id="Trazado_155531" data-name="Trazado 155531" d="M848.773,409.38a486.707,486.707,0,0,0-3.522,108.78c.085,1.047,1.726,1.058,1.645,0-2.763-36.114-2.067-73.753,3.155-109.6C850.216,407.431,848.938,408.238,848.773,409.38Z" fill="#bb272d"/>
            <path id="Trazado_155532" data-name="Trazado 155532" d="M841.074,509.848c-10.076-9.12-25.43-11.143-33.963-22.055.069-.364.138-.734.217-1.112,8.367,11.359,24.192,13.294,34.393,22.515C842.164,509.6,841.508,510.245,841.074,509.848Z" fill="#bb272d"/>
            <path id="Trazado_155533" data-name="Trazado 155533" d="M926.433,508.465a157.7,157.7,0,0,1-74.925,15.071c-.527-.024-.525.793,0,.819A157.285,157.285,0,0,0,926.9,509.26C927.432,509.006,926.966,508.212,926.433,508.465Z" fill="#bb272d"/>
          </g>
          <path id="Trazado_155534" data-name="Trazado 155534" d="M845.35,351.419q.173,2.139.3,4.283c.01.144.022.288.031.433q.144,2.352.24,4.712a.528.528,0,0,0,1.055,0q-.069-2.307-.192-4.616-.116-2.22-.284-4.439c0-.045-.005-.091-.009-.136a201.784,201.784,0,0,0-4.106-28.154c-.134-.609-1.051-.352-.93.251q1.821,9.108,2.939,18.29.567,4.662.949,9.345Z" fill="#bb272d"/>
        </g>
        <path id="Trazado_155535" data-name="Trazado 155535" d="M777.6,397.3l.056,0a.708.708,0,0,0,.65-.761c-.628-8.042,1.34-19.9,1.36-20.021a.708.708,0,0,0-1.4-.235c-.083.493-2.017,12.149-1.375,20.366A.708.708,0,0,0,777.6,397.3Z" fill="#3d5aa1"/>
        <path id="Trazado_155536" data-name="Trazado 155536" d="M777.473,385.948a.714.714,0,0,0,.176-.023.706.706,0,0,0,.51-.86c-.015-.061-1.56-6.122-2.191-9.668a.708.708,0,0,0-1.394.247c.64,3.6,2.2,9.71,2.214,9.771A.707.707,0,0,0,777.473,385.948Z" fill="#3d5aa1"/>
        <path id="Trazado_155537" data-name="Trazado 155537" d="M803.781,481.716a.707.707,0,0,0,.655-.974c-.037-.091-3.7-9.214-3.237-16.194a.708.708,0,1,0-1.412-.094c-.489,7.308,3.181,16.436,3.338,16.821A.706.706,0,0,0,803.781,481.716Z" fill="#f0e5dc"/>
      </g>
      <path id="Trazado_155538" data-name="Trazado 155538" d="M805.015,535.046h.019a.709.709,0,0,0,.689-.727c-.372-13.746-1.227-27.354-1.236-27.49a.7.7,0,0,0-.751-.662.709.709,0,0,0-.662.751c.009.136.863,13.719,1.233,27.44A.709.709,0,0,0,805.015,535.046Z" fill="#f0e5dc"/>
    </g>
    <path id="Unin_14" data-name="Unin 14" d="M27.578,153H10A10,10,0,0,1,0,143V99A10,10,0,0,1,10,89H168a10,10,0,0,1,10,10v44a10,10,0,0,1-10,10H50.835c-4.6,4.911-11.234,13.737-10.335,23,.2,2.042.03,2.914-.4,2.913C38.15,178.912,30.832,161.149,27.578,153Z" transform="translate(7611.187 -8863.457)" fill="#ffa648"/>
    <path id="Trazado_157648" data-name="Trazado 157648" d="M2.729,10.744V14H.825V4.758H4.431a4.171,4.171,0,0,1,1.831.381A2.807,2.807,0,0,1,7.478,6.221a3.018,3.018,0,0,1,.425,1.6,2.654,2.654,0,0,1-.93,2.142,3.873,3.873,0,0,1-2.574.784Zm0-1.542h1.7a1.673,1.673,0,0,0,1.152-.355,1.293,1.293,0,0,0,.4-1.016,1.524,1.524,0,0,0-.4-1.1,1.494,1.494,0,0,0-1.1-.432H2.729Zm5.992,1.3a4.073,4.073,0,0,1,.394-1.822,2.881,2.881,0,0,1,1.133-1.238A3.306,3.306,0,0,1,11.965,7a3.128,3.128,0,0,1,2.269.851,3.414,3.414,0,0,1,.981,2.311l.013.47a3.59,3.59,0,0,1-.882,2.536,3.067,3.067,0,0,1-2.368.955,3.082,3.082,0,0,1-2.371-.952,3.653,3.653,0,0,1-.885-2.59Zm1.834.13a2.567,2.567,0,0,0,.368,1.5,1.323,1.323,0,0,0,2.095.006,2.809,2.809,0,0,0,.375-1.637,2.542,2.542,0,0,0-.375-1.488,1.217,1.217,0,0,0-1.054-.528,1.2,1.2,0,0,0-1.041.524A2.857,2.857,0,0,0,10.556,10.633Zm9.661-1.781a4.984,4.984,0,0,0-.66-.051,1.344,1.344,0,0,0-1.365.7V14H16.358V7.132h1.733l.051.819A1.7,1.7,0,0,1,19.671,7a1.922,1.922,0,0,1,.571.083Zm7.839,3.25a.591.591,0,0,0-.333-.53,3.785,3.785,0,0,0-1.07-.346q-2.45-.514-2.45-2.082a1.887,1.887,0,0,1,.759-1.527A3.06,3.06,0,0,1,26.946,7a3.293,3.293,0,0,1,2.092.616,1.94,1.94,0,0,1,.784,1.6H27.987a.888.888,0,0,0-.254-.651,1.075,1.075,0,0,0-.793-.257,1.1,1.1,0,0,0-.717.209.661.661,0,0,0-.254.533.565.565,0,0,0,.289.492,2.971,2.971,0,0,0,.974.324,7.958,7.958,0,0,1,1.155.308,1.9,1.9,0,0,1,1.454,1.847,1.792,1.792,0,0,1-.806,1.52,3.478,3.478,0,0,1-2.082.581,3.632,3.632,0,0,1-1.533-.308,2.572,2.572,0,0,1-1.051-.844,1.962,1.962,0,0,1-.381-1.158h1.739a.958.958,0,0,0,.362.749,1.435,1.435,0,0,0,.9.26,1.328,1.328,0,0,0,.8-.2A.622.622,0,0,0,28.057,12.1Zm7.078,1.2a2.3,2.3,0,0,1-1.879.825,2.17,2.17,0,0,1-1.685-.635,2.71,2.71,0,0,1-.594-1.86v-4.5h1.834v4.442q0,1.074.978,1.074A1.325,1.325,0,0,0,35.071,12V7.132h1.841V14H35.185Zm12.581-2.672a4.119,4.119,0,0,1-.72,2.542,2.31,2.31,0,0,1-1.946.955,2.14,2.14,0,0,1-1.682-.724v3.237H41.533V7.132h1.7L43.3,7.8A2.156,2.156,0,0,1,45.037,7a2.326,2.326,0,0,1,1.974.939,4.231,4.231,0,0,1,.7,2.59ZM45.881,10.5a2.7,2.7,0,0,0-.34-1.479,1.106,1.106,0,0,0-.987-.521,1.2,1.2,0,0,0-1.187.66v2.812a1.222,1.222,0,0,0,1.2.679Q45.881,12.648,45.881,10.5ZM52.965,13.3a2.3,2.3,0,0,1-1.879.825,2.17,2.17,0,0,1-1.685-.635,2.71,2.71,0,0,1-.594-1.86v-4.5h1.834v4.442q0,1.074.978,1.074A1.325,1.325,0,0,0,52.9,12V7.132h1.841V14H53.016Zm6.322.825a3.372,3.372,0,0,1-2.46-.927,3.294,3.294,0,0,1-.949-2.469v-.178a4.149,4.149,0,0,1,.4-1.85,2.935,2.935,0,0,1,1.133-1.257A3.18,3.18,0,0,1,59.084,7a2.85,2.85,0,0,1,2.219.889,3.611,3.611,0,0,1,.809,2.52v.749H57.738a1.7,1.7,0,0,0,.536,1.079,1.621,1.621,0,0,0,1.133.406,1.98,1.98,0,0,0,1.657-.768l.9,1.009a2.754,2.754,0,0,1-1.117.911A3.665,3.665,0,0,1,59.287,14.127Zm-.209-5.643a1.146,1.146,0,0,0-.885.37,1.915,1.915,0,0,0-.435,1.058h2.552V9.765a1.366,1.366,0,0,0-.33-.947A1.183,1.183,0,0,0,59.078,8.484ZM66.873,12.1a.591.591,0,0,0-.333-.53,3.785,3.785,0,0,0-1.07-.346q-2.45-.514-2.45-2.082a1.887,1.887,0,0,1,.759-1.527A3.06,3.06,0,0,1,65.762,7a3.293,3.293,0,0,1,2.092.616,1.94,1.94,0,0,1,.784,1.6H66.8a.888.888,0,0,0-.254-.651,1.075,1.075,0,0,0-.793-.257,1.1,1.1,0,0,0-.717.209.661.661,0,0,0-.254.533.565.565,0,0,0,.289.492,2.971,2.971,0,0,0,.974.324,7.958,7.958,0,0,1,1.155.308,1.9,1.9,0,0,1,1.454,1.847,1.792,1.792,0,0,1-.806,1.52,3.478,3.478,0,0,1-2.082.581,3.632,3.632,0,0,1-1.533-.308,2.572,2.572,0,0,1-1.051-.844,1.962,1.962,0,0,1-.381-1.158h1.739a.958.958,0,0,0,.362.749,1.435,1.435,0,0,0,.9.26,1.328,1.328,0,0,0,.8-.2A.622.622,0,0,0,66.873,12.1Zm5.161-6.659V7.132h1.174V8.478H72.033v3.428a.818.818,0,0,0,.146.546.733.733,0,0,0,.559.165,2.926,2.926,0,0,0,.54-.044v1.39a3.777,3.777,0,0,1-1.111.165A1.752,1.752,0,0,1,70.2,12.178v-3.7h-1V7.132h1V5.443Zm1.72,5.059a4.073,4.073,0,0,1,.394-1.822A2.881,2.881,0,0,1,75.28,7.443,3.306,3.306,0,0,1,77,7a3.127,3.127,0,0,1,2.269.851,3.414,3.414,0,0,1,.981,2.311l.013.47a3.59,3.59,0,0,1-.882,2.536,3.42,3.42,0,0,1-4.739,0,3.653,3.653,0,0,1-.885-2.59Zm1.834.13a2.567,2.567,0,0,0,.368,1.5,1.323,1.323,0,0,0,2.095.006,2.809,2.809,0,0,0,.375-1.637,2.542,2.542,0,0,0-.375-1.488A1.217,1.217,0,0,0,77,8.484a1.2,1.2,0,0,0-1.041.524A2.857,2.857,0,0,0,75.588,10.633Zm6.278,5.684-.958-.5.229-.413a3.3,3.3,0,0,0,.438-1.542V12.438h1.549l-.006,1.27a3.3,3.3,0,0,1-.355,1.422A3.645,3.645,0,0,1,81.866,16.317Zm8.95-2.19a3,3,0,0,1-2.272-.917,3.4,3.4,0,0,1-.876-2.453v-.216a4.121,4.121,0,0,1,.39-1.825A3.045,3.045,0,0,1,89.15,7.459,2.745,2.745,0,0,1,90.67,7a2.572,2.572,0,0,1,2.082.882,3.82,3.82,0,0,1,.743,2.526V10.9H88.842a2.441,2.441,0,0,0,.594,1.641,1.866,1.866,0,0,0,1.444.625,2.045,2.045,0,0,0,1.054-.254,2.648,2.648,0,0,0,.755-.673l.717.559A2.884,2.884,0,0,1,90.816,14.127ZM90.67,7.97a1.566,1.566,0,0,0-1.193.517,2.515,2.515,0,0,0-.6,1.45h3.44V9.849a2.237,2.237,0,0,0-.482-1.387A1.475,1.475,0,0,0,90.67,7.97Zm8.182,4.208a.864.864,0,0,0-.359-.74,3.452,3.452,0,0,0-1.25-.454,5.912,5.912,0,0,1-1.416-.457,2.014,2.014,0,0,1-.774-.635,1.518,1.518,0,0,1-.251-.876,1.782,1.782,0,0,1,.714-1.428A2.789,2.789,0,0,1,97.341,7a2.87,2.87,0,0,1,1.895.6,1.915,1.915,0,0,1,.727,1.542H98.782a1.06,1.06,0,0,0-.409-.832,1.534,1.534,0,0,0-1.031-.349,1.606,1.606,0,0,0-1,.279.879.879,0,0,0-.362.73.712.712,0,0,0,.336.641,4.139,4.139,0,0,0,1.216.413,6.334,6.334,0,0,1,1.425.47,2.079,2.079,0,0,1,.809.657,1.615,1.615,0,0,1,.263.936,1.758,1.758,0,0,1-.736,1.476,3.089,3.089,0,0,1-1.911.555,3.459,3.459,0,0,1-1.46-.292,2.375,2.375,0,0,1-.993-.816,1.966,1.966,0,0,1-.359-1.133h1.174a1.216,1.216,0,0,0,.473.936,1.835,1.835,0,0,0,1.165.346,1.894,1.894,0,0,0,1.07-.27A.829.829,0,0,0,98.852,12.178Zm11.724-1.536a4.113,4.113,0,0,1-.717,2.526,2.3,2.3,0,0,1-1.942.958,2.519,2.519,0,0,1-1.968-.793v3.307h-1.174V7.132h1.073l.057.762A2.419,2.419,0,0,1,107.9,7a2.342,2.342,0,0,1,1.958.933,4.157,4.157,0,0,1,.72,2.6Zm-1.174-.133a3.035,3.035,0,0,0-.5-1.834A1.6,1.6,0,0,0,107.548,8a1.726,1.726,0,0,0-1.6.946v3.282a1.73,1.73,0,0,0,1.612.939,1.587,1.587,0,0,0,1.343-.67A3.313,3.313,0,0,0,109.4,10.509ZM116.308,14a2.467,2.467,0,0,1-.165-.724,2.62,2.62,0,0,1-1.955.851,2.424,2.424,0,0,1-1.666-.574,1.859,1.859,0,0,1-.651-1.457,1.942,1.942,0,0,1,.816-1.666,3.846,3.846,0,0,1,2.295-.594h1.143V9.3a1.319,1.319,0,0,0-.368-.981,1.48,1.48,0,0,0-1.085-.365,1.712,1.712,0,0,0-1.054.317.935.935,0,0,0-.425.768h-1.181a1.621,1.621,0,0,1,.365-.993,2.491,2.491,0,0,1,.99-.759A3.331,3.331,0,0,1,114.74,7a2.715,2.715,0,0,1,1.86.594,2.141,2.141,0,0,1,.7,1.635v3.161a3.865,3.865,0,0,0,.241,1.5V14Zm-1.949-.9a2.064,2.064,0,0,0,1.047-.286,1.728,1.728,0,0,0,.717-.743V10.667h-.92q-2.158,0-2.158,1.263a1.069,1.069,0,0,0,.368.863A1.415,1.415,0,0,0,114.359,13.1Zm8.1-4.919a3.519,3.519,0,0,0-.578-.044,1.547,1.547,0,0,0-1.568.984V14h-1.174V7.132h1.143l.019.793A1.829,1.829,0,0,1,121.938,7a1.2,1.2,0,0,1,.521.089Zm2.99-2.717V7.132h1.282V8.04h-1.282V12.3a.953.953,0,0,0,.171.62.721.721,0,0,0,.584.207,2.843,2.843,0,0,0,.559-.076V14a3.424,3.424,0,0,1-.9.126,1.462,1.462,0,0,1-1.187-.476,2.045,2.045,0,0,1-.4-1.352V8.04h-1.25V7.132h1.25V5.469Zm5.5,8.658a3,3,0,0,1-2.272-.917,3.4,3.4,0,0,1-.876-2.453v-.216a4.121,4.121,0,0,1,.39-1.825,3.045,3.045,0,0,1,1.092-1.257A2.745,2.745,0,0,1,130.806,7a2.572,2.572,0,0,1,2.082.882,3.82,3.82,0,0,1,.743,2.526V10.9h-4.653a2.441,2.441,0,0,0,.594,1.641,1.866,1.866,0,0,0,1.444.625,2.045,2.045,0,0,0,1.054-.254,2.647,2.647,0,0,0,.755-.673l.717.559A2.884,2.884,0,0,1,130.952,14.127Zm-.146-6.157a1.566,1.566,0,0,0-1.193.517,2.515,2.515,0,0,0-.6,1.45h3.44V9.849a2.237,2.237,0,0,0-.482-1.387A1.475,1.475,0,0,0,130.806,7.97ZM.6,28.509a4.023,4.023,0,0,1,.749-2.542A2.369,2.369,0,0,1,3.313,25a2.382,2.382,0,0,1,1.911.825V22.25H6.4V32H5.319l-.057-.736a2.391,2.391,0,0,1-1.961.863,2.346,2.346,0,0,1-1.946-.978A4.069,4.069,0,0,1,.6,28.6Zm1.174.133A3.046,3.046,0,0,0,2.26,30.47a1.56,1.56,0,0,0,1.333.66,1.713,1.713,0,0,0,1.631-1V26.973A1.726,1.726,0,0,0,3.605,26a1.567,1.567,0,0,0-1.346.667A3.354,3.354,0,0,0,1.777,28.642Zm9.293,3.485A3,3,0,0,1,8.8,31.21a3.4,3.4,0,0,1-.876-2.453v-.216a4.121,4.121,0,0,1,.39-1.825A3.045,3.045,0,0,1,9.4,25.459,2.745,2.745,0,0,1,10.924,25a2.572,2.572,0,0,1,2.082.882,3.82,3.82,0,0,1,.743,2.526V28.9H9.1a2.441,2.441,0,0,0,.594,1.641,1.866,1.866,0,0,0,1.444.625,2.045,2.045,0,0,0,1.054-.254,2.648,2.648,0,0,0,.755-.673l.717.559A2.884,2.884,0,0,1,11.07,32.127Zm-.146-6.157a1.566,1.566,0,0,0-1.193.517,2.515,2.515,0,0,0-.6,1.45h3.44v-.089a2.237,2.237,0,0,0-.482-1.387A1.475,1.475,0,0,0,10.924,25.97Zm8.512-.838.038.863A2.5,2.5,0,0,1,21.531,25q2.177,0,2.2,2.457V32H22.553V27.455a1.581,1.581,0,0,0-.34-1.1A1.361,1.361,0,0,0,21.176,26a1.7,1.7,0,0,0-1,.3,2.069,2.069,0,0,0-.673.8V32H18.326V25.132Zm10.3,6.189a2.494,2.494,0,0,1-2.012.806,2.135,2.135,0,0,1-1.673-.638,2.761,2.761,0,0,1-.581-1.888V25.132h1.174v4.437q0,1.562,1.27,1.562a1.758,1.758,0,0,0,1.79-1v-5h1.174V32H29.764Zm5.776.806a3,3,0,0,1-2.272-.917,3.4,3.4,0,0,1-.876-2.453v-.216a4.121,4.121,0,0,1,.39-1.825,3.045,3.045,0,0,1,1.092-1.257A2.745,2.745,0,0,1,35.369,25a2.572,2.572,0,0,1,2.082.882,3.82,3.82,0,0,1,.743,2.526V28.9H33.541a2.441,2.441,0,0,0,.594,1.641,1.866,1.866,0,0,0,1.444.625,2.045,2.045,0,0,0,1.054-.254,2.648,2.648,0,0,0,.755-.673l.717.559A2.884,2.884,0,0,1,35.515,32.127Zm-.146-6.157a1.566,1.566,0,0,0-1.193.517,2.515,2.515,0,0,0-.6,1.45h3.44v-.089a2.237,2.237,0,0,0-.482-1.387A1.475,1.475,0,0,0,35.369,25.97Zm8.182,4.208a.865.865,0,0,0-.359-.74,3.452,3.452,0,0,0-1.25-.454,5.912,5.912,0,0,1-1.416-.457,2.014,2.014,0,0,1-.774-.635,1.518,1.518,0,0,1-.251-.876,1.782,1.782,0,0,1,.714-1.428A2.789,2.789,0,0,1,42.041,25a2.87,2.87,0,0,1,1.895.6,1.915,1.915,0,0,1,.727,1.542H43.481a1.06,1.06,0,0,0-.409-.832,1.534,1.534,0,0,0-1.031-.349,1.606,1.606,0,0,0-1,.279.879.879,0,0,0-.362.73.712.712,0,0,0,.336.641,4.139,4.139,0,0,0,1.216.413,6.334,6.334,0,0,1,1.425.47,2.079,2.079,0,0,1,.809.657,1.615,1.615,0,0,1,.263.936,1.758,1.758,0,0,1-.736,1.476,3.089,3.089,0,0,1-1.911.555,3.459,3.459,0,0,1-1.46-.292,2.375,2.375,0,0,1-.993-.816,1.966,1.966,0,0,1-.359-1.133h1.174a1.216,1.216,0,0,0,.473.936,1.835,1.835,0,0,0,1.165.346,1.894,1.894,0,0,0,1.07-.27A.829.829,0,0,0,43.551,30.178Zm4.3-6.709v1.663h1.282v.908H47.849V30.3a.953.953,0,0,0,.171.62.721.721,0,0,0,.584.207,2.843,2.843,0,0,0,.559-.076V32a3.424,3.424,0,0,1-.9.126,1.462,1.462,0,0,1-1.187-.476,2.045,2.045,0,0,1-.4-1.352V26.04h-1.25v-.908h1.25V23.469Zm5.973,2.717a3.519,3.519,0,0,0-.578-.044,1.547,1.547,0,0,0-1.568.984V32H50.5V25.132h1.143l.019.793A1.829,1.829,0,0,1,53.3,25a1.2,1.2,0,0,1,.521.089Zm.641,2.317a4.057,4.057,0,0,1,.4-1.815,2.96,2.96,0,0,1,1.1-1.244A3.007,3.007,0,0,1,57.58,25a2.9,2.9,0,0,1,2.269.971,3.736,3.736,0,0,1,.866,2.583v.083a4.092,4.092,0,0,1-.384,1.8,2.916,2.916,0,0,1-1.1,1.241,3.041,3.041,0,0,1-1.641.444,2.889,2.889,0,0,1-2.263-.971,3.718,3.718,0,0,1-.866-2.571Zm1.181.14a2.938,2.938,0,0,0,.53,1.834,1.8,1.8,0,0,0,2.841-.01,3.213,3.213,0,0,0,.527-1.965A2.933,2.933,0,0,0,59,26.671a1.705,1.705,0,0,0-1.425-.7,1.686,1.686,0,0,0-1.4.692A3.189,3.189,0,0,0,55.644,28.642Zm13.762,1.536a.864.864,0,0,0-.359-.74,3.452,3.452,0,0,0-1.25-.454,5.912,5.912,0,0,1-1.416-.457,2.014,2.014,0,0,1-.774-.635,1.518,1.518,0,0,1-.251-.876,1.782,1.782,0,0,1,.714-1.428A2.789,2.789,0,0,1,67.895,25a2.87,2.87,0,0,1,1.895.6,1.915,1.915,0,0,1,.727,1.542H69.335a1.06,1.06,0,0,0-.409-.832,1.534,1.534,0,0,0-1.031-.349,1.606,1.606,0,0,0-1,.279.879.879,0,0,0-.362.73.712.712,0,0,0,.336.641,4.139,4.139,0,0,0,1.216.413,6.334,6.334,0,0,1,1.425.47,2.079,2.079,0,0,1,.809.657,1.615,1.615,0,0,1,.263.936,1.758,1.758,0,0,1-.736,1.476,3.089,3.089,0,0,1-1.911.555,3.459,3.459,0,0,1-1.46-.292,2.375,2.375,0,0,1-.993-.816,1.966,1.966,0,0,1-.359-1.133h1.174a1.216,1.216,0,0,0,.473.936,1.835,1.835,0,0,0,1.165.346A1.894,1.894,0,0,0,69,30.9.829.829,0,0,0,69.405,30.178Zm5.554,1.949a3,3,0,0,1-2.272-.917,3.4,3.4,0,0,1-.876-2.453v-.216a4.121,4.121,0,0,1,.39-1.825,3.045,3.045,0,0,1,1.092-1.257A2.745,2.745,0,0,1,74.813,25a2.572,2.572,0,0,1,2.082.882,3.82,3.82,0,0,1,.743,2.526V28.9H72.985a2.441,2.441,0,0,0,.594,1.641,1.866,1.866,0,0,0,1.444.625,2.045,2.045,0,0,0,1.054-.254,2.648,2.648,0,0,0,.755-.673l.717.559A2.884,2.884,0,0,1,74.959,32.127Zm-.146-6.157a1.566,1.566,0,0,0-1.193.517,2.515,2.515,0,0,0-.6,1.45h3.44v-.089a2.237,2.237,0,0,0-.482-1.387A1.475,1.475,0,0,0,74.813,25.97Zm7.5.216a3.519,3.519,0,0,0-.578-.044,1.547,1.547,0,0,0-1.568.984V32H79V25.132h1.143l.019.793A1.829,1.829,0,0,1,81.8,25a1.2,1.2,0,0,1,.521.089Zm3.459,4.221,1.7-5.275h1.2L86.214,32h-.9l-2.488-6.868h1.2ZM91.083,32H89.908V25.132h1.174Zm-1.27-8.69a.7.7,0,0,1,.175-.482.655.655,0,0,1,.517-.2.666.666,0,0,1,.521.2.694.694,0,0,1,.178.482.671.671,0,0,1-.178.476.678.678,0,0,1-.521.19.667.667,0,0,1-.517-.19A.678.678,0,0,1,89.813,23.31Zm5.9,7.858a1.691,1.691,0,0,0,1.1-.381,1.34,1.34,0,0,0,.521-.952h1.111a2.13,2.13,0,0,1-.406,1.124,2.676,2.676,0,0,1-1,.851,2.885,2.885,0,0,1-1.323.317,2.829,2.829,0,0,1-2.231-.936,3.729,3.729,0,0,1-.828-2.561v-.2a4.135,4.135,0,0,1,.368-1.784,2.8,2.8,0,0,1,1.057-1.212A3,3,0,0,1,95.71,25a2.755,2.755,0,0,1,1.92.692,2.473,2.473,0,0,1,.816,1.8H97.335a1.618,1.618,0,0,0-.5-1.095,1.57,1.57,0,0,0-1.12-.428,1.644,1.644,0,0,0-1.387.644,3.026,3.026,0,0,0-.492,1.863V28.7a2.966,2.966,0,0,0,.489,1.828A1.651,1.651,0,0,0,95.716,31.168Zm5.326.832H99.868V25.132h1.174Zm-1.27-8.69a.7.7,0,0,1,.175-.482.655.655,0,0,1,.517-.2.666.666,0,0,1,.521.2.694.694,0,0,1,.178.482.671.671,0,0,1-.178.476.678.678,0,0,1-.521.19.667.667,0,0,1-.517-.19A.678.678,0,0,1,99.772,23.31ZM102.61,28.5a4.057,4.057,0,0,1,.4-1.815,2.96,2.96,0,0,1,1.1-1.244A3.007,3.007,0,0,1,105.727,25a2.9,2.9,0,0,1,2.269.971,3.736,3.736,0,0,1,.866,2.583v.083a4.092,4.092,0,0,1-.384,1.8,2.916,2.916,0,0,1-1.1,1.241,3.041,3.041,0,0,1-1.641.444,2.889,2.889,0,0,1-2.263-.971,3.718,3.718,0,0,1-.866-2.571Zm1.181.14a2.938,2.938,0,0,0,.53,1.834,1.8,1.8,0,0,0,2.841-.01,3.213,3.213,0,0,0,.527-1.965,2.933,2.933,0,0,0-.536-1.831,1.705,1.705,0,0,0-1.425-.7,1.686,1.686,0,0,0-1.4.692A3.189,3.189,0,0,0,103.791,28.642Zm6.57,2.742a.735.735,0,0,1,.181-.508.689.689,0,0,1,.543-.2.71.71,0,0,1,.549.2.721.721,0,0,1,.187.508.681.681,0,0,1-.187.489.723.723,0,0,1-.549.2.653.653,0,0,1-.724-.686Z" transform="translate(7625.187 -8758.457)" fill="#12263f"/>
    <path id="Unin_20" data-name="Unin 20" d="M485,176c.993-9.264-6.333-18.089-11.4-23H319a10,10,0,0,1-10-10V115a10,10,0,0,1,10-10H519a10,10,0,0,1,10,10v28a10,10,0,0,1-10,10H499.26c-3.591,8.149-11.667,25.912-13.817,25.914C484.966,178.914,484.781,178.043,485,176Z" transform="translate(6783.099 -8863.457)" fill="#ffc967"/>
    <path id="Trazado_157647" data-name="Trazado 157647" d="M8.341,0h-1.9L2.729-6.081V0H.825V-9.242h1.9L6.443-3.148V-9.242h1.9Zm4.7.127A3.372,3.372,0,0,1,10.585-.8a3.294,3.294,0,0,1-.949-2.469v-.178a4.149,4.149,0,0,1,.4-1.85,2.935,2.935,0,0,1,1.133-1.257A3.18,3.18,0,0,1,12.841-7a2.85,2.85,0,0,1,2.219.889,3.611,3.611,0,0,1,.809,2.52v.749H11.5a1.7,1.7,0,0,0,.536,1.079,1.621,1.621,0,0,0,1.133.406,1.98,1.98,0,0,0,1.657-.768l.9,1.009A2.754,2.754,0,0,1,14.606-.2,3.665,3.665,0,0,1,13.044.127Zm-.209-5.643a1.146,1.146,0,0,0-.885.37,1.915,1.915,0,0,0-.435,1.058h2.552v-.147a1.366,1.366,0,0,0-.33-.947A1.183,1.183,0,0,0,12.835-5.516Zm6.932,4.164a1.2,1.2,0,0,0,.825-.279.979.979,0,0,0,.33-.743h1.72a2.353,2.353,0,0,1-.381,1.279,2.513,2.513,0,0,1-1.025.9A3.208,3.208,0,0,1,19.8.127a2.982,2.982,0,0,1-2.323-.936A3.705,3.705,0,0,1,16.625-3.4v-.121a3.663,3.663,0,0,1,.844-2.533A2.947,2.947,0,0,1,19.786-7a2.889,2.889,0,0,1,2.066.733,2.6,2.6,0,0,1,.79,1.952h-1.72a1.261,1.261,0,0,0-.33-.871,1.1,1.1,0,0,0-.838-.335,1.1,1.1,0,0,0-.968.467,2.708,2.708,0,0,0-.327,1.516v.191a2.742,2.742,0,0,0,.324,1.526A1.119,1.119,0,0,0,19.767-1.352ZM26.851.127A3.372,3.372,0,0,1,24.391-.8a3.294,3.294,0,0,1-.949-2.469v-.178a4.149,4.149,0,0,1,.4-1.85,2.935,2.935,0,0,1,1.133-1.257A3.18,3.18,0,0,1,26.647-7a2.85,2.85,0,0,1,2.219.889,3.611,3.611,0,0,1,.809,2.52v.749H25.3a1.7,1.7,0,0,0,.536,1.079,1.621,1.621,0,0,0,1.133.406,1.98,1.98,0,0,0,1.657-.768l.9,1.009A2.754,2.754,0,0,1,28.412-.2,3.665,3.665,0,0,1,26.851.127Zm-.209-5.643a1.146,1.146,0,0,0-.885.37,1.915,1.915,0,0,0-.435,1.058h2.552v-.147a1.366,1.366,0,0,0-.33-.947A1.183,1.183,0,0,0,26.641-5.516ZM34.436-1.9a.591.591,0,0,0-.333-.53,3.785,3.785,0,0,0-1.07-.346q-2.45-.514-2.45-2.082a1.887,1.887,0,0,1,.759-1.527A3.06,3.06,0,0,1,33.325-7a3.293,3.293,0,0,1,2.092.616,1.94,1.94,0,0,1,.784,1.6H34.366a.888.888,0,0,0-.254-.651,1.075,1.075,0,0,0-.793-.257,1.1,1.1,0,0,0-.717.209.661.661,0,0,0-.254.533.565.565,0,0,0,.289.492,2.971,2.971,0,0,0,.974.324,7.959,7.959,0,0,1,1.155.308A1.9,1.9,0,0,1,36.22-1.974a1.792,1.792,0,0,1-.806,1.52,3.478,3.478,0,0,1-2.082.581A3.632,3.632,0,0,1,31.8-.181a2.572,2.572,0,0,1-1.051-.844,1.962,1.962,0,0,1-.381-1.158h1.739a.958.958,0,0,0,.362.749,1.435,1.435,0,0,0,.9.26,1.328,1.328,0,0,0,.8-.2A.622.622,0,0,0,34.436-1.9Zm4.9,1.9H37.5V-6.868h1.841ZM37.388-8.646a.9.9,0,0,1,.276-.679,1.037,1.037,0,0,1,.752-.267,1.04,1.04,0,0,1,.749.267.9.9,0,0,1,.279.679.9.9,0,0,1-.282.686,1.042,1.042,0,0,1-.746.267,1.042,1.042,0,0,1-.746-.267A.9.9,0,0,1,37.388-8.646Zm5.656.089v1.688h1.174v1.346H43.043v3.428a.818.818,0,0,0,.146.546.733.733,0,0,0,.559.165,2.925,2.925,0,0,0,.54-.044v1.39a3.777,3.777,0,0,1-1.111.165,1.752,1.752,0,0,1-1.968-1.949v-3.7h-1V-6.868h1V-8.557ZM44.764-3.5a4.073,4.073,0,0,1,.394-1.822A2.881,2.881,0,0,1,46.29-6.557,3.306,3.306,0,0,1,48.007-7a3.128,3.128,0,0,1,2.269.851,3.414,3.414,0,0,1,.981,2.311l.013.47a3.59,3.59,0,0,1-.882,2.536A3.067,3.067,0,0,1,48.02.127a3.082,3.082,0,0,1-2.371-.952,3.653,3.653,0,0,1-.885-2.59Zm1.834.13a2.567,2.567,0,0,0,.368,1.5,1.215,1.215,0,0,0,1.054.518,1.217,1.217,0,0,0,1.041-.512A2.809,2.809,0,0,0,49.436-3.5a2.542,2.542,0,0,0-.375-1.488,1.217,1.217,0,0,0-1.054-.528,1.2,1.2,0,0,0-1.041.524A2.857,2.857,0,0,0,46.6-3.367ZM57.573,0H55.732V-9.75h1.841Zm5.491,0a2.037,2.037,0,0,1-.184-.616,2.22,2.22,0,0,1-1.733.743,2.439,2.439,0,0,1-1.673-.584,1.878,1.878,0,0,1-.663-1.473,1.941,1.941,0,0,1,.809-1.676,3.994,3.994,0,0,1,2.339-.59H62.8v-.394a1.132,1.132,0,0,0-.244-.762.961.961,0,0,0-.771-.286,1.093,1.093,0,0,0-.727.222.755.755,0,0,0-.263.609H58.963a1.843,1.843,0,0,1,.368-1.1,2.434,2.434,0,0,1,1.041-.8A3.794,3.794,0,0,1,61.883-7a3,3,0,0,1,2.015.638,2.232,2.232,0,0,1,.746,1.793v2.977a3.284,3.284,0,0,0,.273,1.479V0ZM61.547-1.276a1.58,1.58,0,0,0,.749-.181,1.188,1.188,0,0,0,.508-.486V-3.123h-.686q-1.377,0-1.466.952l-.006.108a.734.734,0,0,0,.241.565A.937.937,0,0,0,61.547-1.276ZM72.452.127A3.372,3.372,0,0,1,69.992-.8a3.294,3.294,0,0,1-.949-2.469v-.178a4.149,4.149,0,0,1,.4-1.85,2.935,2.935,0,0,1,1.133-1.257A3.18,3.18,0,0,1,72.249-7a2.85,2.85,0,0,1,2.219.889,3.611,3.611,0,0,1,.809,2.52v.749H70.9a1.7,1.7,0,0,0,.536,1.079,1.621,1.621,0,0,0,1.133.406,1.98,1.98,0,0,0,1.657-.768l.9,1.009A2.754,2.754,0,0,1,74.014-.2,3.665,3.665,0,0,1,72.452.127Zm-.209-5.643a1.146,1.146,0,0,0-.885.37,1.915,1.915,0,0,0-.435,1.058h2.552v-.147a1.366,1.366,0,0,0-.33-.947A1.183,1.183,0,0,0,72.243-5.516Zm5.764-1.352.057.793A2.4,2.4,0,0,1,80.038-7a1.993,1.993,0,0,1,1.625.641,2.991,2.991,0,0,1,.546,1.917V0H80.374V-4.393a1.19,1.19,0,0,0-.254-.847,1.137,1.137,0,0,0-.844-.263,1.262,1.262,0,0,0-1.162.66V0H76.28V-6.868Zm7.789-1.688v1.688h1.174v1.346H85.795v3.428a.818.818,0,0,0,.146.546.733.733,0,0,0,.559.165,2.925,2.925,0,0,0,.54-.044v1.39a3.777,3.777,0,0,1-1.111.165A1.752,1.752,0,0,1,83.96-1.822v-3.7h-1V-6.868h1V-8.557Zm6.056,3.409a4.984,4.984,0,0,0-.66-.051,1.344,1.344,0,0,0-1.365.7V0H87.991V-6.868h1.733l.051.819A1.7,1.7,0,0,1,91.3-7a1.922,1.922,0,0,1,.571.083ZM95.894.127A3.372,3.372,0,0,1,93.434-.8a3.294,3.294,0,0,1-.949-2.469v-.178a4.149,4.149,0,0,1,.4-1.85,2.935,2.935,0,0,1,1.133-1.257A3.18,3.18,0,0,1,95.691-7a2.85,2.85,0,0,1,2.219.889,3.611,3.611,0,0,1,.809,2.52v.749H94.345a1.7,1.7,0,0,0,.536,1.079,1.621,1.621,0,0,0,1.133.406,1.98,1.98,0,0,0,1.657-.768l.9,1.009A2.754,2.754,0,0,1,97.456-.2,3.665,3.665,0,0,1,95.894.127Zm-.209-5.643a1.146,1.146,0,0,0-.885.37,1.915,1.915,0,0,0-.435,1.058h2.552v-.147a1.366,1.366,0,0,0-.33-.947A1.183,1.183,0,0,0,95.685-5.516Zm3.809,2.031a4.025,4.025,0,0,1,.752-2.545A2.437,2.437,0,0,1,102.273-7a2.138,2.138,0,0,1,1.758.774l.076-.647h1.663v6.64a2.935,2.935,0,0,1-.409,1.568,2.629,2.629,0,0,1-1.152,1.016,4.05,4.05,0,0,1-1.739.349A3.766,3.766,0,0,1,101,2.4a2.614,2.614,0,0,1-1.085-.778l.813-1.117a2.149,2.149,0,0,0,1.663.768,1.573,1.573,0,0,0,1.136-.39,1.464,1.464,0,0,0,.406-1.108V-.59a2.122,2.122,0,0,1-1.669.717,2.431,2.431,0,0,1-2-.968,4.024,4.024,0,0,1-.765-2.568Zm1.834.137a2.506,2.506,0,0,0,.375,1.465,1.191,1.191,0,0,0,1.028.531,1.274,1.274,0,0,0,1.2-.629V-4.874a1.271,1.271,0,0,0-1.187-.629,1.2,1.2,0,0,0-1.038.54A2.825,2.825,0,0,0,101.328-3.348ZM111.16,0a2.037,2.037,0,0,1-.184-.616,2.22,2.22,0,0,1-1.733.743,2.439,2.439,0,0,1-1.673-.584,1.878,1.878,0,0,1-.663-1.473,1.941,1.941,0,0,1,.809-1.676,3.994,3.994,0,0,1,2.339-.59h.844v-.394a1.132,1.132,0,0,0-.244-.762.961.961,0,0,0-.771-.286,1.093,1.093,0,0,0-.727.222.755.755,0,0,0-.263.609H107.06a1.843,1.843,0,0,1,.368-1.1,2.434,2.434,0,0,1,1.041-.8A3.794,3.794,0,0,1,109.979-7a3,3,0,0,1,2.015.638,2.232,2.232,0,0,1,.746,1.793v2.977a3.284,3.284,0,0,0,.273,1.479V0Zm-1.517-1.276a1.58,1.58,0,0,0,.749-.181,1.188,1.188,0,0,0,.508-.486V-3.123h-.686q-1.377,0-1.466.952l-.006.108a.734.734,0,0,0,.241.565A.937.937,0,0,0,109.643-1.276Zm10.905,1.4a3.372,3.372,0,0,1-2.46-.927,3.294,3.294,0,0,1-.949-2.469v-.178a4.149,4.149,0,0,1,.4-1.85,2.935,2.935,0,0,1,1.133-1.257A3.18,3.18,0,0,1,120.345-7a2.85,2.85,0,0,1,2.219.889,3.611,3.611,0,0,1,.809,2.52v.749H119a1.7,1.7,0,0,0,.536,1.079,1.621,1.621,0,0,0,1.133.406,1.98,1.98,0,0,0,1.657-.768l.9,1.009A2.754,2.754,0,0,1,122.11-.2,3.665,3.665,0,0,1,120.548.127Zm-.209-5.643a1.146,1.146,0,0,0-.885.37,1.915,1.915,0,0,0-.435,1.058h2.552v-.147a1.366,1.366,0,0,0-.33-.947A1.183,1.183,0,0,0,120.339-5.516ZM126.1-6.868l.057.793A2.4,2.4,0,0,1,128.134-7a1.993,1.993,0,0,1,1.625.641,2.991,2.991,0,0,1,.546,1.917V0H128.47V-4.393a1.19,1.19,0,0,0-.254-.847,1.137,1.137,0,0,0-.844-.263,1.262,1.262,0,0,0-1.162.66V0h-1.834V-6.868ZM139.312,0h-1.834V-7.071l-2.19.679V-7.884l3.828-1.371h.2Zm3.275-4.545.533-4.7h5.18v1.53h-3.675L144.4-5.726a2.908,2.908,0,0,1,1.39-.349,2.664,2.664,0,0,1,2.069.819,3.271,3.271,0,0,1,.749,2.292,3.351,3.351,0,0,1-.378,1.6,2.666,2.666,0,0,1-1.082,1.1,3.379,3.379,0,0,1-1.663.39,3.588,3.588,0,0,1-1.555-.34,2.758,2.758,0,0,1-1.133-.955,2.6,2.6,0,0,1-.441-1.4h1.815a1.356,1.356,0,0,0,.4.9,1.278,1.278,0,0,0,.9.321,1.128,1.128,0,0,0,.958-.448,2.073,2.073,0,0,0,.336-1.266,1.714,1.714,0,0,0-.387-1.206,1.421,1.421,0,0,0-1.1-.419,1.588,1.588,0,0,0-1.06.343l-.178.165ZM152.8-3.485a4.139,4.139,0,0,1,.72-2.558A2.338,2.338,0,0,1,155.492-7a2.1,2.1,0,0,1,1.657.749v-3.5h1.841V0h-1.657l-.089-.73a2.159,2.159,0,0,1-1.765.857,2.331,2.331,0,0,1-1.946-.955A4.272,4.272,0,0,1,152.8-3.485Zm1.834.137a2.711,2.711,0,0,0,.336,1.481,1.1,1.1,0,0,0,.978.515,1.227,1.227,0,0,0,1.2-.718V-4.785a1.21,1.21,0,0,0-1.187-.718Q154.635-5.5,154.635-3.348ZM162.392,0h-1.834V-6.868h1.834Zm-.54-9.655h2l-1.758,1.968H160.6ZM167.953,0a2.037,2.037,0,0,1-.184-.616,2.22,2.22,0,0,1-1.733.743,2.439,2.439,0,0,1-1.673-.584A1.878,1.878,0,0,1,163.7-1.93a1.941,1.941,0,0,1,.809-1.676,3.994,3.994,0,0,1,2.339-.59h.844v-.394a1.132,1.132,0,0,0-.244-.762.961.961,0,0,0-.771-.286,1.093,1.093,0,0,0-.727.222.755.755,0,0,0-.263.609h-1.834a1.843,1.843,0,0,1,.368-1.1,2.434,2.434,0,0,1,1.041-.8A3.794,3.794,0,0,1,166.772-7a3,3,0,0,1,2.015.638,2.232,2.232,0,0,1,.746,1.793v2.977a3.283,3.283,0,0,0,.273,1.479V0Zm-1.517-1.276a1.58,1.58,0,0,0,.749-.181,1.188,1.188,0,0,0,.508-.486V-3.123h-.686q-1.377,0-1.466.952l-.006.108a.734.734,0,0,0,.241.565A.937.937,0,0,0,166.436-1.276Zm8.227-.622a.591.591,0,0,0-.333-.53,3.785,3.785,0,0,0-1.07-.346q-2.45-.514-2.45-2.082a1.887,1.887,0,0,1,.759-1.527A3.06,3.06,0,0,1,173.551-7a3.293,3.293,0,0,1,2.092.616,1.94,1.94,0,0,1,.784,1.6h-1.834a.888.888,0,0,0-.254-.651,1.075,1.075,0,0,0-.793-.257,1.1,1.1,0,0,0-.717.209.661.661,0,0,0-.254.533.565.565,0,0,0,.289.492,2.971,2.971,0,0,0,.974.324,7.959,7.959,0,0,1,1.155.308,1.9,1.9,0,0,1,1.454,1.847,1.792,1.792,0,0,1-.806,1.52,3.478,3.478,0,0,1-2.082.581,3.632,3.632,0,0,1-1.533-.308,2.572,2.572,0,0,1-1.051-.844,1.962,1.962,0,0,1-.381-1.158h1.739a.958.958,0,0,0,.362.749,1.435,1.435,0,0,0,.9.26,1.328,1.328,0,0,0,.8-.2A.622.622,0,0,0,174.662-1.9Zm3.06,1a.924.924,0,0,1,.3-.711,1.047,1.047,0,0,1,.74-.273,1.056,1.056,0,0,1,.746.273.924.924,0,0,1,.3.711.911.911,0,0,1-.292.7,1.06,1.06,0,0,1-.749.27,1.052,1.052,0,0,1-.743-.27A.911.911,0,0,1,177.722-.9Zm3.777,0a.924.924,0,0,1,.3-.711,1.047,1.047,0,0,1,.74-.273,1.056,1.056,0,0,1,.746.273.924.924,0,0,1,.3.711.911.911,0,0,1-.292.7,1.06,1.06,0,0,1-.749.27,1.052,1.052,0,0,1-.743-.27A.911.911,0,0,1,181.5-.9Zm3.777,0a.924.924,0,0,1,.3-.711,1.047,1.047,0,0,1,.74-.273,1.056,1.056,0,0,1,.746.273.924.924,0,0,1,.3.711.911.911,0,0,1-.292.7,1.06,1.06,0,0,1-.749.27,1.052,1.052,0,0,1-.743-.27A.911.911,0,0,1,185.275-.9Z" transform="translate(7110.099 -8731.457)" fill="#12263f"/>
  </g>
</svg>
