<svg xmlns="http://www.w3.org/2000/svg" xmlns:xlink="http://www.w3.org/1999/xlink" width="1030" height="509.2" viewBox="0 0 1030 509.2">
  <defs>
    <clipPath id="clip-path">
      <rect id="Rect치ngulo_36503" data-name="Rect치ngulo 36503" width="1030" height="509" rx="10" transform="translate(285 8791.3)" fill="#ffe4b3"/>
    </clipPath>
  </defs>
  <g id="Grupo_108915" data-name="Grupo 108915" transform="translate(3350 3061.2)">
    <rect id="Rect치ngulo_36099" data-name="Rect치ngulo 36099" width="1030" height="509" rx="10" transform="translate(-3350 -3061)" fill="#ffe4b3"/>
    <g id="Enmascarar_grupo_199" data-name="Enmascarar grupo 199" transform="translate(-3635 -11852.5)" clip-path="url(#clip-path)">
      <g id="Grupo_107276" data-name="Grupo 107276" transform="translate(906.405 8535.108)">
        <path id="Trazado_154902" data-name="Trazado 154902" d="M82.261,6.534A117.774,117.774,0,0,0,9.389,72.177c-14.457,33.7-12.622,79.074,8.593,107.906,24.982,33.953,66.315,36.762,101.934,49.473,46.991,16.769,88.968,55.195,115.625,105.843,12.013,22.824,21.2,48.279,36.764,67.645a99.572,99.572,0,0,0,63.815,36.368c23.634,3.3,47.55-1.773,69.749-11.484,44.545-19.485,85.124-62.378,93.4-119.685,6.362-44.041-7.458-90.626-31.141-125.483s-56.312-59.1-90.335-76.55-69.8-28.69-105.01-41.894c-28.432-10.664-59.549-20.473-85.753-38.291C168.543,13.454,155.709,1.305,133.727.218A147.239,147.239,0,0,0,82.261,6.534Z" transform="translate(707.775 1066.363) rotate(-177)" fill="#fff6e6"/>
        <g id="Grupo_107275" data-name="Grupo 107275" transform="translate(0)" style="isolation: isolate">
          <path id="Trazado_154903" data-name="Trazado 154903" d="M-19.608,13.84c29.5,54.234,78.331,87.626,127.362,112.669s100.613,44.114,145.4,79.163,83.1,90.473,86.78,155.539c1.472,26.039-2.559,53.033,4.14,77.8,7.767,28.72,29.439,49.685,53.195,57.715s49.263,4.517,72.871-4.147c59.279-21.757,109.82-76.955,134.341-146.724s22.568-152.8-5.194-220.714C568.922,50.88,512.17-.8,457.427-49.634L294.793-194.721c-35.544-31.71-71.118-71.558-110.779-95.557C105.393-337.854-4.241-269.628-34.433-174.672-53.677-114.149-49.645-40.492-19.608,13.84Z" transform="translate(46.18 305.819)" fill="#ffedcc"/>
        </g>
      </g>
      <g id="Grupo_107316" data-name="Grupo 107316" transform="translate(847.858 8802.012)">
        <g id="Grupo_107279" data-name="Grupo 107279" transform="translate(368.547 185.261)">
          <g id="Grupo_107277" data-name="Grupo 107277" transform="translate(0 4.412)">
            <path id="Trazado_154904" data-name="Trazado 154904" d="M334.832,220.066h7.185a1.387,1.387,0,0,0,0-2.716h-7.185a1.387,1.387,0,0,0,0,2.716Z" transform="translate(-333.727 -217.35)" fill="#fff"/>
          </g>
          <g id="Grupo_107278" data-name="Grupo 107278" transform="translate(3.592)">
            <path id="Trazado_154905" data-name="Trazado 154905" d="M338.853,224.87a1.252,1.252,0,0,0,1.105-1.359v-8.825a1.129,1.129,0,1,0-2.211,0v8.825A1.252,1.252,0,0,0,338.853,224.87Z" transform="translate(-337.747 -213.329)" fill="#fff"/>
          </g>
        </g>
        <g id="Grupo_107282" data-name="Grupo 107282" transform="translate(52.147 391.355)">
          <g id="Grupo_107280" data-name="Grupo 107280" transform="translate(0 4.412)">
            <path id="Trazado_154906" data-name="Trazado 154906" d="M334.832,220.066h7.185a1.387,1.387,0,0,0,0-2.716h-7.185a1.387,1.387,0,0,0,0,2.716Z" transform="translate(-333.727 -217.35)" fill="#fff"/>
          </g>
          <g id="Grupo_107281" data-name="Grupo 107281" transform="translate(3.592)">
            <path id="Trazado_154907" data-name="Trazado 154907" d="M338.853,224.87a1.252,1.252,0,0,0,1.105-1.359v-8.825a1.129,1.129,0,1,0-2.211,0v8.825A1.252,1.252,0,0,0,338.853,224.87Z" transform="translate(-337.747 -213.329)" fill="#fff"/>
          </g>
        </g>
        <g id="Grupo_107285" data-name="Grupo 107285" transform="translate(35.799 59.025)">
          <g id="Grupo_107283" data-name="Grupo 107283" transform="translate(0 4.412)">
            <path id="Trazado_154908" data-name="Trazado 154908" d="M707.284,105.028h7.185a1.387,1.387,0,0,0,0-2.716h-7.185a1.387,1.387,0,0,0,0,2.716Z" transform="translate(-706.179 -102.312)" fill="#fff"/>
          </g>
          <g id="Grupo_107284" data-name="Grupo 107284" transform="translate(3.592)">
            <path id="Trazado_154909" data-name="Trazado 154909" d="M711.306,109.832a1.251,1.251,0,0,0,1.105-1.357V99.648a1.129,1.129,0,1,0-2.211,0v8.826A1.251,1.251,0,0,0,711.306,109.832Z" transform="translate(-710.2 -98.291)" fill="#fff"/>
          </g>
        </g>
        <g id="Grupo_107288" data-name="Grupo 107288" transform="translate(310.915 56.491)">
          <g id="Grupo_107286" data-name="Grupo 107286" transform="translate(0 5.23)">
            <path id="Trazado_154910" data-name="Trazado 154910" d="M398.271,102.629h8.517a.961.961,0,0,0,0-1.881h-8.517a.961.961,0,0,0,0,1.881Z" transform="translate(-397.506 -100.748)" fill="#fff"/>
          </g>
          <g id="Grupo_107287" data-name="Grupo 107287" transform="translate(4.258)">
            <path id="Trazado_154911" data-name="Trazado 154911" d="M403.037,108.323a.866.866,0,0,0,.766-.94V96.922a.781.781,0,1,0-1.53,0v10.46A.866.866,0,0,0,403.037,108.323Z" transform="translate(-402.272 -95.982)" fill="#fff"/>
          </g>
        </g>
        <g id="Grupo_107291" data-name="Grupo 107291" transform="translate(435.993 252.938)">
          <g id="Grupo_107289" data-name="Grupo 107289" transform="translate(0 5.23)">
            <path id="Trazado_154912" data-name="Trazado 154912" d="M258.269,281.647h8.517a.959.959,0,0,0,0-1.879h-8.517a.959.959,0,0,0,0,1.879Z" transform="translate(-257.504 -279.768)" fill="#fff"/>
          </g>
          <g id="Grupo_107290" data-name="Grupo 107290" transform="translate(4.259)">
            <path id="Trazado_154913" data-name="Trazado 154913" d="M263.035,287.341a.865.865,0,0,0,.765-.939v-10.46a.781.781,0,1,0-1.529,0V286.4A.865.865,0,0,0,263.035,287.341Z" transform="translate(-262.27 -275.002)" fill="#fff"/>
          </g>
        </g>
        <g id="Grupo_107294" data-name="Grupo 107294" transform="translate(237.57 29.289)" opacity="0.3">
          <g id="Grupo_107292" data-name="Grupo 107292" transform="translate(0 4.412)">
            <path id="Trazado_154914" data-name="Trazado 154914" d="M490.735,84.438h7.185a1.387,1.387,0,0,0,0-2.716h-7.185a1.387,1.387,0,0,0,0,2.716Z" transform="translate(-489.63 -81.722)" fill="#fff"/>
          </g>
          <g id="Grupo_107293" data-name="Grupo 107293" transform="translate(3.592)">
            <path id="Trazado_154915" data-name="Trazado 154915" d="M494.755,89.242a1.252,1.252,0,0,0,1.106-1.359V79.058a1.129,1.129,0,1,0-2.211,0v8.825A1.252,1.252,0,0,0,494.755,89.242Z" transform="translate(-493.65 -77.701)" fill="#fff"/>
          </g>
        </g>
        <g id="Grupo_107297" data-name="Grupo 107297" transform="translate(329.898 230.658)">
          <g id="Grupo_107295" data-name="Grupo 107295" transform="translate(0 3.109)">
            <path id="Trazado_154916" data-name="Trazado 154916" d="M427.36,239.92h5.062a.977.977,0,0,0,0-1.913H427.36a.977.977,0,0,0,0,1.913Z" transform="translate(-426.581 -238.007)" fill="#fff"/>
          </g>
          <g id="Grupo_107296" data-name="Grupo 107296" transform="translate(2.531)">
            <path id="Trazado_154917" data-name="Trazado 154917" d="M430.193,243.3a.881.881,0,0,0,.779-.956V236.13a.8.8,0,1,0-1.558,0v6.219A.881.881,0,0,0,430.193,243.3Z" transform="translate(-429.414 -235.174)" fill="#fff"/>
          </g>
        </g>
        <g id="Grupo_107300" data-name="Grupo 107300" transform="translate(163.214 0.297)" opacity="0.3">
          <g id="Grupo_107298" data-name="Grupo 107298" transform="translate(0 2.207)">
            <path id="Trazado_154918" data-name="Trazado 154918" d="M569.369,48.14h3.592a.693.693,0,0,0,0-1.357h-3.592a.693.693,0,0,0,0,1.357Z" transform="translate(-568.816 -46.783)" fill="#fff"/>
          </g>
          <g id="Grupo_107299" data-name="Grupo 107299" transform="translate(1.797)">
            <path id="Trazado_154919" data-name="Trazado 154919" d="M571.38,50.543a.626.626,0,0,0,.553-.679V45.451a.565.565,0,1,0-1.106,0v4.412A.626.626,0,0,0,571.38,50.543Z" transform="translate(-570.827 -44.772)" fill="#fff"/>
          </g>
        </g>
        <g id="Grupo_107301" data-name="Grupo 107301" transform="translate(276.021 20.45)">
          <path id="Trazado_154920" data-name="Trazado 154920" d="M450.777,82.2c2.819,0,5.11-2.815,5.11-6.276s-2.292-6.277-5.11-6.277-5.108,2.816-5.108,6.277S447.961,82.2,450.777,82.2Zm0-10.234c1.778,0,3.224,1.776,3.224,3.958s-1.446,3.958-3.224,3.958-3.222-1.776-3.222-3.958S449,71.965,450.777,71.965Z" transform="translate(-445.669 -69.646)" fill="#fff"/>
        </g>
        <g id="Grupo_107302" data-name="Grupo 107302" transform="translate(52.147 181.768)">
          <path id="Trazado_154921" data-name="Trazado 154921" d="M715.719,240.515a3.2,3.2,0,1,0-2.555-3.137A2.9,2.9,0,0,0,715.719,240.515Zm0-5.117a2.021,2.021,0,1,1-1.611,1.98A1.825,1.825,0,0,1,715.719,235.4Z" transform="translate(-713.164 -234.239)" fill="#fff"/>
        </g>
        <g id="Grupo_107303" data-name="Grupo 107303" transform="translate(193.337)">
          <path id="Trazado_154922" data-name="Trazado 154922" d="M529.382,111.915c2.817,0,5.109-2.816,5.109-6.276s-2.292-6.277-5.109-6.277-5.11,2.816-5.11,6.277S526.564,111.915,529.382,111.915Zm0-10.235c1.777,0,3.222,1.775,3.222,3.959s-1.445,3.958-3.222,3.958-3.224-1.775-3.224-3.958S527.605,101.681,529.382,101.681Z" transform="translate(-524.272 -99.363)" fill="#fff"/>
        </g>
        <g id="Grupo_107304" data-name="Grupo 107304" transform="translate(417.814 332.875)">
          <path id="Trazado_154923" data-name="Trazado 154923" d="M234.03,360.4c2.818,0,5.109-2.815,5.109-6.277s-2.292-6.275-5.109-6.275-5.11,2.815-5.11,6.275S231.212,360.4,234.03,360.4Zm0-10.235c1.777,0,3.222,1.775,3.222,3.958s-1.445,3.96-3.222,3.96-3.223-1.777-3.223-3.96S232.253,350.164,234.03,350.164Z" transform="translate(-228.92 -347.848)" fill="#fff"/>
        </g>
        <g id="Grupo_107305" data-name="Grupo 107305" transform="translate(0 440.002)">
          <path id="Trazado_154924" data-name="Trazado 154924" d="M234.03,360.4c2.818,0,5.109-2.815,5.109-6.277s-2.292-6.275-5.109-6.275-5.11,2.815-5.11,6.275S231.212,360.4,234.03,360.4Zm0-10.235c1.777,0,3.222,1.775,3.222,3.958s-1.445,3.96-3.222,3.96-3.223-1.777-3.223-3.96S232.253,350.164,234.03,350.164Z" transform="translate(-228.92 -347.848)" fill="#fff"/>
        </g>
        <g id="Grupo_107306" data-name="Grupo 107306" transform="translate(418.348 75.469)">
          <path id="Trazado_154925" data-name="Trazado 154925" d="M282.573,125.027c2.638,0,4.784-2.636,4.784-5.876s-2.146-5.875-4.784-5.875-4.783,2.636-4.783,5.875S279.936,125.027,282.573,125.027Zm0-11.164c2.375,0,4.306,2.372,4.306,5.288s-1.932,5.289-4.306,5.289-4.305-2.372-4.305-5.289S280.2,113.863,282.573,113.863Z" transform="translate(-277.79 -113.276)" fill="#fff"/>
        </g>
        <g id="Grupo_107307" data-name="Grupo 107307" transform="translate(22.584 149.388)">
          <path id="Trazado_154926" data-name="Trazado 154926" d="M727.066,189.407c1.968,0,3.569-1.968,3.569-4.385s-1.6-4.384-3.569-4.384-3.57,1.966-3.57,4.384S725.1,189.407,727.066,189.407Zm0-8.091c1.663,0,3.016,1.662,3.016,3.706s-1.354,3.706-3.016,3.706-3.017-1.662-3.017-3.706S725.4,181.316,727.066,181.316Z" transform="translate(-723.496 -180.638)" fill="#fff"/>
        </g>
        <g id="Grupo_107308" data-name="Grupo 107308" transform="translate(385.404 138.68)">
          <path id="Trazado_154927" data-name="Trazado 154927" d="M320.952,179.649c1.968,0,3.57-1.966,3.57-4.385s-1.6-4.384-3.57-4.384-3.569,1.966-3.569,4.384S318.984,179.649,320.952,179.649Zm0-8.09c1.664,0,3.017,1.663,3.017,3.7s-1.353,3.706-3.017,3.706-3.016-1.662-3.016-3.706S319.29,171.559,320.952,171.559Z" transform="translate(-317.383 -170.88)" fill="#fff"/>
        </g>
        <g id="Grupo_107309" data-name="Grupo 107309" transform="translate(84.367 9.877)">
          <path id="Trazado_154928" data-name="Trazado 154928" d="M574.22,120.836a.376.376,0,0,0,.155-.034,13.809,13.809,0,0,0,1.388-.733.612.612,0,0,0,.2-.734.415.415,0,0,0-.6-.251,12.874,12.874,0,0,1-1.3.689.592.592,0,0,0-.264.706A.462.462,0,0,0,574.22,120.836Zm4.339-3.09a.4.4,0,0,0,.284-.124A19.371,19.371,0,0,0,581.4,114.4a.635.635,0,0,0-.077-.77.394.394,0,0,0-.626.094,18.4,18.4,0,0,1-2.42,3.052.637.637,0,0,0-.061.773A.416.416,0,0,0,578.559,117.746ZM591.425,115l.038,0a8.517,8.517,0,0,0,3.358-1.067l.229-.135a.612.612,0,0,0,.2-.735.415.415,0,0,0-.6-.249l-.211.125a7.734,7.734,0,0,1-3.055.967.526.526,0,0,0-.407.593A.5.5,0,0,0,591.425,115Zm-3.553-.294a.479.479,0,0,0,.437-.438.556.556,0,0,0-.348-.647,14.182,14.182,0,0,1-3.3-1.317.42.42,0,0,0-.59.28.6.6,0,0,0,.227.724,14.967,14.967,0,0,0,3.485,1.387A.363.363,0,0,0,587.872,114.7Zm9.8-3.5a.414.414,0,0,0,.329-.178,17.54,17.54,0,0,0,2.083-3.73.612.612,0,0,0-.193-.739.411.411,0,0,0-.6.237,16.472,16.472,0,0,1-1.947,3.488.64.64,0,0,0,.027.776A.4.4,0,0,0,597.674,111.2ZM581.4,111.14a.424.424,0,0,0,.357-.219.635.635,0,0,0-.089-.768,16.1,16.1,0,0,1-2.5-2.93.394.394,0,0,0-.629-.078.639.639,0,0,0-.064.773,17.1,17.1,0,0,0,2.661,3.113A.4.4,0,0,0,581.4,111.14Zm1.53-.252a.448.448,0,0,0,.4-.311,23.2,23.2,0,0,0,1.211-4.251.561.561,0,0,0-.337-.656.451.451,0,0,0-.534.414,22.065,22.065,0,0,1-1.144,4.018.608.608,0,0,0,.208.732A.374.374,0,0,0,582.931,110.887Zm-5.923-6.532a.382.382,0,0,0,.16-.036.6.6,0,0,0,.257-.709,11.494,11.494,0,0,1-.535-3.418q0-.323.021-.646a.524.524,0,0,0-.413-.587.485.485,0,0,0-.479.506c-.015.243-.022.486-.022.728a12.825,12.825,0,0,0,.594,3.81A.459.459,0,0,0,577.008,104.355Zm35.46-.1a11.986,11.986,0,0,0,1.662-.114.533.533,0,0,0,.393-.607.475.475,0,0,0-.494-.483,12.147,12.147,0,0,1-3.461-.038.48.48,0,0,0-.5.48.536.536,0,0,0,.389.61A13.717,13.717,0,0,0,612.467,104.256Zm-11.478-.747a.47.47,0,0,0,.43-.4l.116-.523a36.155,36.155,0,0,0,.6-3.854.537.537,0,0,0-.388-.612.481.481,0,0,0-.5.476,35.068,35.068,0,0,1-.581,3.712l-.112.5a.575.575,0,0,0,.309.677A.4.4,0,0,0,600.989,103.509Zm6.038-.339a.466.466,0,0,0,.425-.384.58.58,0,0,0-.291-.688,19.522,19.522,0,0,1-3.239-1.623.41.41,0,0,0-.6.241.612.612,0,0,0,.2.737,20.233,20.233,0,0,0,3.373,1.691A.39.39,0,0,0,607.028,103.17Zm10.489-.155a.384.384,0,0,0,.182-.047A10.5,10.5,0,0,0,620.231,101q.279-.293.536-.6a.64.64,0,0,0,0-.776.391.391,0,0,0-.632-.007c-.156.19-.32.373-.489.551a9.576,9.576,0,0,1-2.317,1.8.6.6,0,0,0-.225.724A.451.451,0,0,0,617.517,103.015Zm-33.048-.617h.012a.514.514,0,0,0,.434-.565,12.619,12.619,0,0,0-.833-4.479.412.412,0,0,0-.6-.24.613.613,0,0,0-.2.737,11.285,11.285,0,0,1,.737,4.015A.5.5,0,0,0,584.468,102.4Zm16.187-3.136a.429.429,0,0,0,.368-.238.63.63,0,0,0-.116-.763,32.025,32.025,0,0,1-2.78-2.648.393.393,0,0,0-.631.052.64.64,0,0,0,.043.775,32.8,32.8,0,0,0,2.864,2.727A.388.388,0,0,0,600.656,99.262Zm21.876-2.25a.444.444,0,0,0,.4-.3,20.658,20.658,0,0,0,1.185-4.276.557.557,0,0,0-.346-.649.458.458,0,0,0-.529.424,19.362,19.362,0,0,1-1.11,4.012.612.612,0,0,0,.2.736A.381.381,0,0,0,622.532,97.013Zm19.961-.284.263,0a.512.512,0,0,0,.437-.561.5.5,0,0,0-.447-.537h-.01l-.24,0a13.456,13.456,0,0,1-3.212-.424.46.46,0,0,0-.525.43.554.554,0,0,0,.351.645A14.168,14.168,0,0,0,642.493,96.728Zm-64.762-.68a.407.407,0,0,0,.308-.151,2.3,2.3,0,0,1,1.8-.822h0a3.03,3.03,0,0,1,1.108.218.437.437,0,0,0,.562-.354.582.582,0,0,0-.289-.69,3.76,3.76,0,0,0-1.38-.271h0a3.092,3.092,0,0,0-2.414,1.125.641.641,0,0,0-.014.776A.41.41,0,0,0,577.731,96.048Zm68.51-.119a.378.378,0,0,0,.162-.037c.14-.067.28-.137.419-.213a9.4,9.4,0,0,0,2.709-2.277.641.641,0,0,0,.007-.776.391.391,0,0,0-.632-.009,8.506,8.506,0,0,1-2.447,2.059c-.125.068-.251.133-.379.193a.6.6,0,0,0-.256.709A.461.461,0,0,0,646.241,95.93Zm-10.5-.763a.468.468,0,0,0,.426-.382.582.582,0,0,0-.29-.69c-1.116-.436-2.242-.924-3.345-1.448a.426.426,0,0,0-.577.314.593.593,0,0,0,.255.71c1.12.532,2.262,1.027,3.4,1.47A.369.369,0,0,0,635.745,95.167Zm-33.866-.336h.009a.511.511,0,0,0,.438-.56,38.1,38.1,0,0,0-.334-4.445.464.464,0,0,0-.513-.452.546.546,0,0,0-.368.63,37.244,37.244,0,0,1,.322,4.29A.5.5,0,0,0,601.879,94.831Zm-6.6-1.329a.4.4,0,0,0,.3-.143.638.638,0,0,0,.03-.775,37.394,37.394,0,0,1-2.211-3.363.4.4,0,0,0-.624-.127.634.634,0,0,0-.1.766,38.23,38.23,0,0,0,2.276,3.462A.412.412,0,0,0,595.284,93.5ZM629.085,92a.45.45,0,0,0,.406-.319.608.608,0,0,0-.219-.729c-1.065-.6-2.133-1.254-3.175-1.939a.407.407,0,0,0-.6.225.617.617,0,0,0,.182.743c1.058.7,2.142,1.357,3.223,1.969A.378.378,0,0,0,629.085,92Zm22.208-1.986a.449.449,0,0,0,.4-.306,17.708,17.708,0,0,0,1.119-4.326.545.545,0,0,0-.372-.627.468.468,0,0,0-.512.455,16.341,16.341,0,0,1-1.036,4.011.613.613,0,0,0,.2.735A.379.379,0,0,0,651.293,90.009Zm-27.22-1.5a.5.5,0,0,0,.447-.536q.007-.341.006-.681c0-1.22-.062-2.491-.184-3.777a.475.475,0,0,0-.495-.481.535.535,0,0,0-.393.608c.119,1.243.179,2.471.179,3.65q0,.328-.006.655a.512.512,0,0,0,.436.562Zm-1.285-.658a.436.436,0,0,0,.381-.261.625.625,0,0,0-.147-.755c-1-.757-2-1.563-2.962-2.394a.4.4,0,0,0-.623.134.632.632,0,0,0,.109.765c.978.844,1.99,1.661,3.008,2.431A.383.383,0,0,0,622.788,87.853Zm-31.653-1.475a.381.381,0,0,0,.215-.068.618.618,0,0,0,.176-.745c-.361-.805-.7-1.632-1-2.458-.177-.48-.332-.961-.462-1.432a.433.433,0,0,0-.565-.345.584.584,0,0,0-.281.695c.139.506.3,1.023.495,1.536.314.85.662,1.7,1.034,2.533A.442.442,0,0,0,591.135,86.378Zm9.588-.18a.359.359,0,0,0,.134-.025.582.582,0,0,0,.292-.689,35.329,35.329,0,0,0-1.343-4.149.415.415,0,0,0-.6-.255.612.612,0,0,0-.207.733,33.632,33.632,0,0,1,1.3,4A.467.467,0,0,0,600.723,86.2Zm16.219-3.386a.423.423,0,0,0,.35-.207.636.636,0,0,0-.072-.77c-.925-.905-1.836-1.852-2.706-2.815a.392.392,0,0,0-.633.041.641.641,0,0,0,.034.775c.884.978,1.809,1.939,2.748,2.857A.4.4,0,0,0,616.942,82.812Zm35.5-1.348a.333.333,0,0,0,.046,0,.531.531,0,0,0,.4-.6,26.752,26.752,0,0,0-.761-4.395.436.436,0,0,0-.561-.357.58.58,0,0,0-.29.688A25.393,25.393,0,0,1,652,80.973.493.493,0,0,0,652.443,81.464Zm-29.169-1.654a.367.367,0,0,0,.1-.015.564.564,0,0,0,.333-.661c-.284-1.465-.634-2.9-1.042-4.266a.43.43,0,0,0-.573-.327.589.589,0,0,0-.266.7c.4,1.327.735,2.72,1.011,4.144A.477.477,0,0,0,623.274,79.811ZM597.6,78.344a.392.392,0,0,0,.263-.105.634.634,0,0,0,.1-.767,9.067,9.067,0,0,0-2.763-3.1.41.41,0,0,0-.6.23.615.615,0,0,0,.188.741,8.15,8.15,0,0,1,2.459,2.778A.424.424,0,0,0,597.6,78.344Zm-8.328-.262a.48.48,0,0,0,.436-.438,4,4,0,0,1,.776-1.845,2.765,2.765,0,0,1,1.175-.869.582.582,0,0,0,.29-.689.435.435,0,0,0-.561-.357,3.639,3.639,0,0,0-1.544,1.149,5.14,5.14,0,0,0-1.01,2.389.556.556,0,0,0,.346.649A.375.375,0,0,0,589.267,78.081Zm22.367-1.14a.4.4,0,0,0,.313-.158.639.639,0,0,0,.005-.776c-.826-1.034-1.637-2.11-2.405-3.2a.392.392,0,0,0-.631-.055.639.639,0,0,0-.045.774c.781,1.106,1.6,2.2,2.443,3.248A.41.41,0,0,0,611.634,76.941Zm38.717-3.821a.376.376,0,0,0,.2-.058.613.613,0,0,0,.2-.736q-.158-.388-.325-.77c-.454-1.047-.961-2.082-1.509-3.077a.4.4,0,0,0-.619-.148.628.628,0,0,0-.121.762c.529.963,1.021,1.966,1.461,2.98q.161.37.315.745A.445.445,0,0,0,650.351,73.12ZM620.8,71.594a.373.373,0,0,0,.208-.064.615.615,0,0,0,.187-.741,28.979,28.979,0,0,0-1.949-3.778.4.4,0,0,0-.626-.106.636.636,0,0,0-.086.769,27.692,27.692,0,0,1,1.871,3.628A.443.443,0,0,0,620.8,71.594ZM607.025,70.25a.379.379,0,0,0,.236-.083.624.624,0,0,0,.143-.755,10.225,10.225,0,0,1-1.065-3.206c-.029-.205-.048-.415-.057-.625a.5.5,0,0,0-.471-.517.518.518,0,0,0-.421.578,7.516,7.516,0,0,0,.07.753,11.452,11.452,0,0,0,1.187,3.6A.434.434,0,0,0,607.025,70.25Zm39.343-4.39a.4.4,0,0,0,.294-.136.639.639,0,0,0,.043-.774,34.356,34.356,0,0,0-2.549-3.169.391.391,0,0,0-.631.043.642.642,0,0,0,.034.776,32.885,32.885,0,0,1,2.472,3.073A.417.417,0,0,0,646.368,65.859Zm-29.9-1.18a.415.415,0,0,0,.336-.188.638.638,0,0,0-.042-.775,15.337,15.337,0,0,0-3.033-2.541.413.413,0,0,0-.6.238.615.615,0,0,0,.194.74,14.358,14.358,0,0,1,2.853,2.39A.4.4,0,0,0,616.47,64.679Zm-9.561-2.6a.417.417,0,0,0,.334-.184,2.807,2.807,0,0,1,1.092-.934,3.056,3.056,0,0,1,1.766-.176.474.474,0,0,0,.5-.469.541.541,0,0,0-.381-.619,3.785,3.785,0,0,0-2.2.235,3.735,3.735,0,0,0-1.447,1.232.639.639,0,0,0,.038.775A.4.4,0,0,0,606.909,62.083Zm34.151-2.071a.43.43,0,0,0,.367-.235.632.632,0,0,0-.111-.764,29.932,29.932,0,0,0-3.09-2.327.41.41,0,0,0-.6.227.617.617,0,0,0,.184.742,28.989,28.989,0,0,1,3,2.257A.391.391,0,0,0,641.06,60.013ZM634.765,55.9a.458.458,0,0,0,.417-.352.594.594,0,0,0-.257-.709,24.709,24.709,0,0,0-3.466-1.321.448.448,0,0,0-.539.4.563.563,0,0,0,.33.662,23.972,23.972,0,0,1,3.356,1.282A.376.376,0,0,0,634.765,55.9Z" transform="translate(-573.773 -53.502)" fill="#fff"/>
        </g>
        <g id="Grupo_107313" data-name="Grupo 107313" transform="translate(351.106 16.142)">
          <g id="Grupo_107310" data-name="Grupo 107310" transform="translate(9.497)">
            <path id="Trazado_154929" data-name="Trazado 154929" d="M352.376,60.94a.465.465,0,0,0,.423-.371.586.586,0,0,0-.28-.7c-.575-.241-1.161-.458-1.744-.642a.445.445,0,0,0-.544.394.57.57,0,0,0,.321.668c.559.178,1.125.385,1.68.618A.356.356,0,0,0,352.376,60.94Z" transform="translate(-350.218 -59.212)" fill="#fff"/>
          </g>
          <g id="Grupo_107311" data-name="Grupo 107311" transform="translate(0 2.359)">
            <path id="Trazado_154930" data-name="Trazado 154930" d="M340.381,165.876h.038a15.474,15.474,0,0,0,3.6-.823.577.577,0,0,0,.3-.68.441.441,0,0,0-.554-.374,14.66,14.66,0,0,1-3.428.783.527.527,0,0,0-.408.591A.5.5,0,0,0,340.381,165.876Zm6.847-2.408a.379.379,0,0,0,.2-.058,21.29,21.29,0,0,0,3.117-2.344.634.634,0,0,0,.1-.767.4.4,0,0,0-.625-.116,20.376,20.376,0,0,1-2.987,2.245.613.613,0,0,0-.2.736A.447.447,0,0,0,347.228,163.469Zm5.75-5.185a.409.409,0,0,0,.321-.167,25.83,25.83,0,0,0,2.309-3.48.63.63,0,0,0-.118-.763.4.4,0,0,0-.62.146,24.688,24.688,0,0,1-2.213,3.332.641.641,0,0,0,.01.776A.4.4,0,0,0,352.978,158.284Zm4-7.248a.454.454,0,0,0,.408-.327c.079-.217.153-.436.224-.655a31.576,31.576,0,0,0,.946-3.6.564.564,0,0,0-.326-.664.449.449,0,0,0-.541.4,30.27,30.27,0,0,1-.908,3.453q-.1.313-.212.62a.6.6,0,0,0,.227.724A.381.381,0,0,0,356.974,151.036Zm1.73-8.5a.494.494,0,0,0,.444-.5c.062-.865.093-1.752.093-2.639q0-.917-.044-1.836a.489.489,0,0,0-.472-.516.52.52,0,0,0-.42.579c.028.59.043,1.182.042,1.771,0,.856-.029,1.712-.089,2.546a.527.527,0,0,0,.407.594Zm-.4-8.758a.34.34,0,0,0,.087-.011.554.554,0,0,0,.353-.643,42.338,42.338,0,0,0-.921-4.321.432.432,0,0,0-.564-.349.582.582,0,0,0-.284.692,41.014,41.014,0,0,1,.892,4.187A.483.483,0,0,0,358.3,133.777Zm-2.233-8.34a.381.381,0,0,0,.19-.052.608.608,0,0,0,.214-.731,39.848,39.848,0,0,0-1.746-3.914.4.4,0,0,0-.616-.173.627.627,0,0,0-.14.757,39.108,39.108,0,0,1,1.694,3.8A.449.449,0,0,0,356.067,125.437Zm-3.808-7.428a.4.4,0,0,0,.282-.123.637.637,0,0,0,.064-.773,39.977,39.977,0,0,0-2.441-3.3.392.392,0,0,0-.633,0,.643.643,0,0,0,0,.777,38.617,38.617,0,0,1,2.377,3.21A.419.419,0,0,0,352.259,118.009Zm-18.682-3.168q.5,0,1-.021a.515.515,0,0,0,.431-.566.508.508,0,0,0-.463-.53,26.659,26.659,0,0,1-2.682-.034q-.421-.025-.849-.066a.5.5,0,0,0-.479.5.523.523,0,0,0,.411.589c.292.029.583.05.873.068C332.405,114.821,332.991,114.841,333.578,114.841Zm4.54-.51a.362.362,0,0,0,.09-.011,13.629,13.629,0,0,0,3.114-1.19c.13-.07.256-.142.383-.215a.606.606,0,0,0,.214-.73.415.415,0,0,0-.594-.262c-.12.069-.24.136-.36.2a12.854,12.854,0,0,1-2.935,1.121.556.556,0,0,0-.349.646A.481.481,0,0,0,338.118,114.331ZM327.454,114a.47.47,0,0,0,.43-.4.574.574,0,0,0-.309-.677,8.526,8.526,0,0,1-3.067-1.79.4.4,0,0,0-.625.108.636.636,0,0,0,.088.769,9.5,9.5,0,0,0,3.363,1.969A.363.363,0,0,0,327.454,114Zm19.724-2.172a.419.419,0,0,0,.348-.2.638.638,0,0,0-.068-.771c-.531-.527-1.081-1.041-1.646-1.541a20.173,20.173,0,0,0,1.505-2.146.636.636,0,0,0-.09-.768.4.4,0,0,0-.625.11,18.811,18.811,0,0,1-1.531,2.163q-.265-.224-.535-.444a.4.4,0,0,0-.62.154.63.63,0,0,0,.126.76c.12.1.24.2.358.3-.057.063-.115.124-.173.184a.638.638,0,0,0-.054.773.392.392,0,0,0,.63.066c.118-.123.235-.249.352-.376q.9.788,1.743,1.624A.394.394,0,0,0,347.178,111.828Zm-25.052-3.177a.388.388,0,0,0,.149-.032.588.588,0,0,0,.272-.7,8.6,8.6,0,0,1-.332-2.343,7.2,7.2,0,0,1,.184-1.648.574.574,0,0,0-.3-.68.44.44,0,0,0-.554.373,8.461,8.461,0,0,0-.221,1.955,9.957,9.957,0,0,0,.383,2.708A.462.462,0,0,0,322.126,108.651Zm19.1-1.691a.44.44,0,0,0,.391-.286.617.617,0,0,0-.177-.744c-1.041-.7-2.131-1.364-3.239-1.976a.418.418,0,0,0-.591.275.6.6,0,0,0,.224.725c1.088.6,2.157,1.253,3.177,1.939A.388.388,0,0,0,341.221,106.96Zm7.594-3.332a.449.449,0,0,0,.4-.309,30.912,30.912,0,0,0,1.308-4.191.577.577,0,0,0-.3-.68.439.439,0,0,0-.554.374,29.441,29.441,0,0,1-1.253,4.018.609.609,0,0,0,.207.733A.379.379,0,0,0,348.815,103.628Zm-14.119-.281a.462.462,0,0,0,.42-.361.59.59,0,0,0-.267-.7c-1.118-.5-2.274-.963-3.434-1.377a.443.443,0,0,0-.554.374.577.577,0,0,0,.3.68c1.142.406,2.278.861,3.378,1.354A.383.383,0,0,0,334.7,103.347Zm-10.418-2.177a.387.387,0,0,0,.163-.038,5.015,5.015,0,0,1,3.3-.206.469.469,0,0,0,.514-.451.547.547,0,0,0-.367-.631,5.709,5.709,0,0,0-3.77.267.6.6,0,0,0-.253.711A.459.459,0,0,0,324.278,101.17Zm26.538-5.953a.491.491,0,0,0,.442-.482q.039-.387.069-.774c.071-.91.106-1.846.106-2.778,0-.309,0-.617-.012-.924s-.227-.561-.461-.53a.513.513,0,0,0-.432.566c.008.3.011.593.012.89,0,.9-.035,1.8-.1,2.674-.018.248-.041.495-.065.742a.536.536,0,0,0,.389.611A.315.315,0,0,0,350.817,95.217Zm-.212-8.763a.325.325,0,0,0,.079-.009.549.549,0,0,0,.362-.635,39.146,39.146,0,0,0-.88-4.339.436.436,0,0,0-.562-.353.581.581,0,0,0-.289.69,37.654,37.654,0,0,1,.85,4.193A.484.484,0,0,0,350.6,86.454ZM348.419,78.1a.371.371,0,0,0,.191-.054.608.608,0,0,0,.214-.731,38.7,38.7,0,0,0-1.764-3.905.4.4,0,0,0-.617-.167.628.628,0,0,0-.135.758,37.132,37.132,0,0,1,1.708,3.785A.451.451,0,0,0,348.419,78.1Zm-3.851-7.394a.4.4,0,0,0,.286-.127.639.639,0,0,0,.057-.773,33.354,33.354,0,0,0-2.5-3.242.391.391,0,0,0-.631.029.639.639,0,0,0,.023.776,32.349,32.349,0,0,1,2.424,3.141A.419.419,0,0,0,344.569,70.707Zm-5.242-5.964a.427.427,0,0,0,.364-.232.634.634,0,0,0-.106-.765,25.884,25.884,0,0,0-3.111-2.325.413.413,0,0,0-.6.236.616.616,0,0,0,.192.74,24.8,24.8,0,0,1,3,2.246A.39.39,0,0,0,339.327,64.743Z" transform="translate(-321.321 -61.361)" fill="#fff"/>
          </g>
          <g id="Grupo_107312" data-name="Grupo 107312" transform="translate(13.212 105.224)">
            <path id="Trazado_154931" data-name="Trazado 154931" d="M348.215,156.631a.489.489,0,0,0,.442-.472.541.541,0,0,0-.38-.62,13,13,0,0,1-1.7-.418.445.445,0,0,0-.545.393.568.568,0,0,0,.32.668,13.682,13.682,0,0,0,1.8.443A.434.434,0,0,0,348.215,156.631Z" transform="translate(-346.018 -155.102)" fill="#fff"/>
          </g>
        </g>
        <g id="Grupo_107314" data-name="Grupo 107314" transform="translate(40.496 153.773)">
          <path id="Trazado_154932" data-name="Trazado 154932" d="M711.778,286.631h.028a17.175,17.175,0,0,0,3.606-.68.565.565,0,0,0,.327-.664.448.448,0,0,0-.54-.4,16.485,16.485,0,0,1-3.45.651.521.521,0,0,0-.417.582A.5.5,0,0,0,711.778,286.631Zm-3.566-.13a.492.492,0,0,0,.442-.482.539.539,0,0,0-.389-.612,16.028,16.028,0,0,1-3.4-.921.437.437,0,0,0-.561.357.58.58,0,0,0,.29.689,16.812,16.812,0,0,0,3.566.965A.32.32,0,0,0,708.213,286.5Zm10.472-1.949a.37.37,0,0,0,.18-.046,20.082,20.082,0,0,0,3.2-2.156.627.627,0,0,0,.122-.76.4.4,0,0,0-.619-.15,19.178,19.178,0,0,1-3.06,2.062.6.6,0,0,0-.229.723A.453.453,0,0,0,718.684,284.552Zm-17.248-.69a.443.443,0,0,0,.395-.292.616.616,0,0,0-.187-.742,20.226,20.226,0,0,1-2.938-2.321.394.394,0,0,0-.626.1.637.637,0,0,0,.081.77,21.051,21.051,0,0,0,3.066,2.424A.384.384,0,0,0,701.436,283.862Zm23.149-4.179a.4.4,0,0,0,.311-.156q.362-.433.7-.888a.643.643,0,0,0-.026-.777.394.394,0,0,0-.632.033c-.216.289-.44.572-.668.845a.641.641,0,0,0-.009.776A.412.412,0,0,0,724.585,279.683Zm-28.77-1.173a.4.4,0,0,0,.3-.143.64.64,0,0,0,.031-.775,23.177,23.177,0,0,1-2.09-3.424.4.4,0,0,0-.616-.181.629.629,0,0,0-.147.756,24.556,24.556,0,0,0,2.192,3.586A.413.413,0,0,0,695.815,278.51Zm-3.682-7.455a.369.369,0,0,0,.147-.03.588.588,0,0,0,.275-.7,17.972,17.972,0,0,1-.685-4.134c-.012-.3-.182-.557-.469-.52a.519.519,0,0,0-.423.576,19.291,19.291,0,0,0,.734,4.438A.463.463,0,0,0,692.132,271.055Zm3.422-7.45a.477.477,0,0,0,.435-.426.563.563,0,0,0-.336-.657,9.813,9.813,0,0,1-2.092-.89q-.476-.263-.937-.561a10.353,10.353,0,0,1,1.385-2.561.638.638,0,0,0-.025-.775.39.39,0,0,0-.631.031,11.9,11.9,0,0,0-1.9,3.949.585.585,0,0,0,.279.7.427.427,0,0,0,.558-.316q.444.283.9.538a10.69,10.69,0,0,0,2.261.959A.393.393,0,0,0,695.554,263.605Zm3.516-.171a.374.374,0,0,0,.162-.037c.06-.029.121-.059.18-.091a5.146,5.146,0,0,0,2.36-3.467.567.567,0,0,0-.319-.669.441.441,0,0,0-.544.393,4.121,4.121,0,0,1-1.857,2.739l-.144.072a.6.6,0,0,0-.255.71A.458.458,0,0,0,699.07,263.434Zm-9.792-3.881a.42.42,0,0,0,.346-.2.64.64,0,0,0-.063-.773,22.724,22.724,0,0,1-2.5-2.991.391.391,0,0,0-.63-.056.638.638,0,0,0-.045.774A23.97,23.97,0,0,0,689,259.43.4.4,0,0,0,689.279,259.553Zm10.831-3.058a.441.441,0,0,0,.392-.286.616.616,0,0,0-.179-.744,3.957,3.957,0,0,0-3.18-.44,5.785,5.785,0,0,0-.644.21.581.581,0,0,0-.29.689.439.439,0,0,0,.561.358,4.662,4.662,0,0,1,.56-.183,3.21,3.21,0,0,1,2.566.329A.378.378,0,0,0,700.11,256.494Zm-15.5-3.54a.385.385,0,0,0,.234-.081.622.622,0,0,0,.147-.754,30.987,30.987,0,0,1-1.6-3.829.419.419,0,0,0-.584-.293.6.6,0,0,0-.239.718,32,32,0,0,0,1.66,3.978A.432.432,0,0,0,684.613,252.954Zm-2.75-8.065a.371.371,0,0,0,.107-.015.566.566,0,0,0,.327-.664c-.138-.686-.255-1.384-.348-2.074-.1-.713-.172-1.443-.227-2.171a.483.483,0,0,0-.486-.5.531.531,0,0,0-.4.6c.056.754.135,1.511.236,2.251.1.718.219,1.443.362,2.156A.475.475,0,0,0,681.863,244.889Zm-.666-8.711a.5.5,0,0,0,.446-.523,42.244,42.244,0,0,1,.387-4.291.549.549,0,0,0-.363-.635.468.468,0,0,0-.517.447,43.181,43.181,0,0,0-.4,4.429.517.517,0,0,0,.425.574Zm44.826-.842a.353.353,0,0,0,.1-.014.562.562,0,0,0,.335-.658,34.807,34.807,0,0,0-1.085-4.263.425.425,0,0,0-.58-.308.6.6,0,0,0-.25.712,33.717,33.717,0,0,1,1.044,4.106A.478.478,0,0,0,726.023,235.336Zm-43.613-7.789a.469.469,0,0,0,.428-.392c.331-1.366.731-2.736,1.189-4.073a.6.6,0,0,0-.238-.719.424.424,0,0,0-.586.293c-.471,1.374-.882,2.783-1.222,4.186a.576.576,0,0,0,.3.681A.354.354,0,0,0,682.41,227.548Zm41-.346a.384.384,0,0,0,.222-.072.621.621,0,0,0,.165-.749,34.9,34.9,0,0,0-2.013-3.709.4.4,0,0,0-.626-.1.636.636,0,0,0-.082.769,33.936,33.936,0,0,1,1.947,3.588A.437.437,0,0,0,723.407,227.2Zm-4.332-6.949a.4.4,0,0,0,.314-.159.64.64,0,0,0,0-.776,32.352,32.352,0,0,0-2.711-2.958.394.394,0,0,0-.627.093.637.637,0,0,0,.076.77,31.51,31.51,0,0,1,2.628,2.868A.409.409,0,0,0,719.075,220.252Zm-33.9-.781a.443.443,0,0,0,.392-.285q.292-.652.6-1.29a26.691,26.691,0,0,1,1.27-2.35.634.634,0,0,0-.088-.768.394.394,0,0,0-.625.106c-.431.7-.852,1.48-1.323,2.449q-.319.655-.619,1.326a.619.619,0,0,0,.177.745A.379.379,0,0,0,685.174,219.471Zm28.293-4.625a.437.437,0,0,0,.383-.264.625.625,0,0,0-.151-.754,28.424,28.424,0,0,0-3.212-2.07.417.417,0,0,0-.59.277.6.6,0,0,0,.224.724,27.8,27.8,0,0,1,3.116,2.007A.383.383,0,0,0,713.467,214.846Zm-23.844-2.139a.386.386,0,0,0,.249-.093,10.352,10.352,0,0,1,3.119-1.735.576.576,0,0,0,.3-.681.442.442,0,0,0-.555-.371,11.158,11.158,0,0,0-3.365,1.876.629.629,0,0,0-.121.762A.43.43,0,0,0,689.623,212.707Zm17.337-1.444a.469.469,0,0,0,.428-.388.58.58,0,0,0-.3-.685,23.5,23.5,0,0,0-3.533-1.024.469.469,0,0,0-.515.452.547.547,0,0,0,.367.631,22.65,22.65,0,0,1,3.418.99A.366.366,0,0,0,706.96,211.263Zm-10.6-1.227a.426.426,0,0,0,.054,0,19.783,19.783,0,0,1,3.5-.2c.261.015.452-.232.458-.534a.513.513,0,0,0-.435-.563,20.739,20.739,0,0,0-3.632.206.535.535,0,0,0-.39.61A.49.49,0,0,0,696.363,210.036Z" transform="translate(-680.751 -208.727)" fill="#fff"/>
        </g>
        <g id="Grupo_107315" data-name="Grupo 107315" transform="translate(357.053 300.004)">
          <path id="Trazado_154933" data-name="Trazado 154933" d="M269.463,367.139a11.576,11.576,0,0,0,1.456-.091c.121-.013.243-.031.367-.049a.54.54,0,0,0,.388-.613.472.472,0,0,0-.5-.476c-.113.018-.228.035-.343.047a11.3,11.3,0,0,1-3.11-.049.478.478,0,0,0-.5.477.538.538,0,0,0,.389.612A12.276,12.276,0,0,0,269.463,367.139Zm-5.26-1.182a.461.461,0,0,0,.419-.358.589.589,0,0,0-.264-.7,15.131,15.131,0,0,1-3.1-1.905.4.4,0,0,0-.618.166.627.627,0,0,0,.135.758,16.005,16.005,0,0,0,3.276,2.009A.365.365,0,0,0,264.2,365.958Zm10.478-.049a.365.365,0,0,0,.163-.037,15.41,15.41,0,0,0,3.239-2.113A.626.626,0,0,0,278.2,363a.4.4,0,0,0-.62-.143,14.664,14.664,0,0,1-3.061,2,.594.594,0,0,0-.253.711A.458.458,0,0,0,274.68,365.908Zm13.723-2.04a.405.405,0,0,0,.052,0,13.145,13.145,0,0,0,3.572-1.047.594.594,0,0,0,.265-.706.432.432,0,0,0-.574-.325,12.347,12.347,0,0,1-3.364.987.534.534,0,0,0-.394.608A.492.492,0,0,0,288.4,363.868Zm-3.56-.07a.487.487,0,0,0,.44-.466.542.542,0,0,0-.374-.625,10.056,10.056,0,0,1-3.132-1.149l-.145-.084a.414.414,0,0,0-.6.256.611.611,0,0,0,.208.733l.157.091a10.785,10.785,0,0,0,3.374,1.239A.35.35,0,0,0,284.842,363.8Zm-26.605-2.549a.409.409,0,0,0,.314-.159.642.642,0,0,0,0-.776,18.277,18.277,0,0,1-2.143-3.339.4.4,0,0,0-.616-.181.626.626,0,0,0-.146.755,19.425,19.425,0,0,0,2.272,3.539A.409.409,0,0,0,258.237,361.249Zm22.3-.246a.412.412,0,0,0,.325-.173,20.76,20.76,0,0,0,2.2-3.6.622.622,0,0,0-.156-.751.4.4,0,0,0-.612.191,19.594,19.594,0,0,1-2.087,3.4.641.641,0,0,0,.02.776A.4.4,0,0,0,280.537,361Zm14.517-.127a.384.384,0,0,0,.247-.091,16.364,16.364,0,0,0,2.8-2.926.642.642,0,0,0-.028-.776.392.392,0,0,0-.633.035,15.357,15.357,0,0,1-2.632,2.751.632.632,0,0,0-.125.762A.431.431,0,0,0,295.054,360.876Zm-16.52-.886a.409.409,0,0,0,.32-.166.641.641,0,0,0-.007-.776,14.615,14.615,0,0,1-2.074-3.358.408.408,0,0,0-.608-.214.618.618,0,0,0-.174.745,15.761,15.761,0,0,0,2.231,3.611A.405.405,0,0,0,278.534,359.99Zm21.33-5.5a.442.442,0,0,0,.389-.277,25.216,25.216,0,0,0,1.479-4.107.582.582,0,0,0-.284-.692.433.433,0,0,0-.564.349,23.948,23.948,0,0,1-1.408,3.907.623.623,0,0,0,.166.75A.386.386,0,0,0,299.864,354.494Zm-15.731-.99a.467.467,0,0,0,.426-.387,21.517,21.517,0,0,0,.515-2.827c.062-.555.1-1.1.117-1.626a.518.518,0,0,0-.431-.57c-.28-.007-.455.226-.463.528-.014.489-.051,1-.109,1.518a20.252,20.252,0,0,1-.482,2.653.579.579,0,0,0,.295.686A.353.353,0,0,0,284.133,353.5Zm-9.01-1.091a.357.357,0,0,0,.095-.013.558.558,0,0,0,.341-.653,16.221,16.221,0,0,1-.249-2.8c0-.468.021-.934.064-1.386a.536.536,0,0,0-.392-.609.483.483,0,0,0-.5.482c-.046.495-.07,1-.07,1.514a17.393,17.393,0,0,0,.271,3.029A.479.479,0,0,0,275.123,352.413Zm26.984-6.2a.488.488,0,0,0,.441-.474,31.8,31.8,0,0,0,.195-3.526c0-.316,0-.633-.013-.949a.533.533,0,0,0-.462-.529.516.516,0,0,0-.431.568q.013.454.013.91a30.645,30.645,0,0,1-.186,3.378.538.538,0,0,0,.382.617A.381.381,0,0,0,302.107,346.215Zm-17.9-1.333a.355.355,0,0,0,.164-.038.594.594,0,0,0,.252-.711,8.783,8.783,0,0,0-.725-1.666,6.107,6.107,0,0,0-1.7-1.917.4.4,0,0,0-.612.194.623.623,0,0,0,.158.751,5.12,5.12,0,0,1,1.427,1.6,7.6,7.6,0,0,1,.625,1.439A.458.458,0,0,0,284.211,344.882Zm-8.223-1a.443.443,0,0,0,.392-.288,5.312,5.312,0,0,1,1.849-2.436,2.742,2.742,0,0,1,.444-.225.582.582,0,0,0,.288-.69.435.435,0,0,0-.562-.354,3.555,3.555,0,0,0-.576.292,6.3,6.3,0,0,0-2.228,2.892.617.617,0,0,0,.18.744A.386.386,0,0,0,275.988,343.885Zm25.422-6.876.443-.073.433-.133a34.717,34.717,0,0,0-1.011-4.27.43.43,0,0,0-.574-.323.592.592,0,0,0-.263.707A33.464,33.464,0,0,1,301.41,337.009Zm-2.034-7.726a.388.388,0,0,0,.213-.065.618.618,0,0,0,.181-.744,38.938,38.938,0,0,0-1.915-3.783.4.4,0,0,0-.623-.131.632.632,0,0,0-.106.765,37.642,37.642,0,0,1,1.857,3.67A.444.444,0,0,0,299.375,329.282Zm-4.109-7.159a.4.4,0,0,0,.3-.138.638.638,0,0,0,.038-.774c-.786-1.091-1.638-2.158-2.533-3.174a.391.391,0,0,0-.631.032.638.638,0,0,0,.025.775c.873.99,1.7,2.031,2.47,3.093A.412.412,0,0,0,295.267,322.123Z" transform="translate(-255.582 -317.893)" fill="#fff"/>
        </g>
      </g>
      <g id="Grupo_107356" data-name="Grupo 107356" transform="translate(315.416 8973.844)">
        <g id="Grupo_107319" data-name="Grupo 107319" transform="translate(68.097 255.752)">
          <g id="Grupo_107317" data-name="Grupo 107317" transform="translate(0 4.412)">
            <path id="Trazado_154934" data-name="Trazado 154934" d="M8.29,0H1.105A1.251,1.251,0,0,0,0,1.359,1.25,1.25,0,0,0,1.105,2.716H8.29A1.251,1.251,0,0,0,9.395,1.359,1.252,1.252,0,0,0,8.29,0Z" transform="translate(0 0)" fill="#fff"/>
          </g>
          <g id="Grupo_107318" data-name="Grupo 107318" transform="translate(3.591 0)">
            <path id="Trazado_154935" data-name="Trazado 154935" d="M1.105,0A1.252,1.252,0,0,0,0,1.359v8.825a1.251,1.251,0,0,0,1.105,1.357,1.251,1.251,0,0,0,1.106-1.357V1.359A1.252,1.252,0,0,0,1.105,0Z" transform="translate(0)" fill="#fff"/>
          </g>
        </g>
        <g id="Grupo_107322" data-name="Grupo 107322" transform="translate(384.497 49.658)">
          <g id="Grupo_107320" data-name="Grupo 107320" transform="translate(0 4.412)">
            <path id="Trazado_154936" data-name="Trazado 154936" d="M8.29,0H1.105A1.251,1.251,0,0,0,0,1.359,1.25,1.25,0,0,0,1.105,2.716H8.29A1.251,1.251,0,0,0,9.395,1.359,1.252,1.252,0,0,0,8.29,0Z" transform="translate(0 0)" fill="#fff"/>
          </g>
          <g id="Grupo_107321" data-name="Grupo 107321" transform="translate(3.591)">
            <path id="Trazado_154937" data-name="Trazado 154937" d="M1.105,0A1.252,1.252,0,0,0,0,1.359v8.825a1.251,1.251,0,0,0,1.105,1.357,1.251,1.251,0,0,0,1.106-1.357V1.359A1.252,1.252,0,0,0,1.105,0Z" transform="translate(0)" fill="#fff"/>
          </g>
        </g>
        <g id="Grupo_107325" data-name="Grupo 107325" transform="translate(400.845 381.988)">
          <g id="Grupo_107323" data-name="Grupo 107323" transform="translate(0 4.412)">
            <path id="Trazado_154938" data-name="Trazado 154938" d="M8.29,0H1.105A1.252,1.252,0,0,0,0,1.358,1.25,1.25,0,0,0,1.105,2.716H8.29A1.251,1.251,0,0,0,9.395,1.358,1.252,1.252,0,0,0,8.29,0Z" transform="translate(0 0)" fill="#fff"/>
          </g>
          <g id="Grupo_107324" data-name="Grupo 107324" transform="translate(3.592 0)">
            <path id="Trazado_154939" data-name="Trazado 154939" d="M1.105,0A1.251,1.251,0,0,0,0,1.357v8.826a1.251,1.251,0,0,0,1.105,1.357,1.251,1.251,0,0,0,1.106-1.357V1.357A1.251,1.251,0,0,0,1.105,0Z" transform="translate(0)" fill="#fff"/>
          </g>
        </g>
        <g id="Grupo_107328" data-name="Grupo 107328" transform="translate(125.077 383.722)">
          <g id="Grupo_107326" data-name="Grupo 107326" transform="translate(0 5.23)">
            <path id="Trazado_154940" data-name="Trazado 154940" d="M9.281,0H.765A.866.866,0,0,0,0,.94a.866.866,0,0,0,.765.94H9.281a.866.866,0,0,0,.765-.94A.866.866,0,0,0,9.281,0Z" transform="translate(0 0)" fill="#fff"/>
          </g>
          <g id="Grupo_107327" data-name="Grupo 107327" transform="translate(4.258)">
            <path id="Trazado_154941" data-name="Trazado 154941" d="M.766,0A.866.866,0,0,0,0,.94V11.4a.866.866,0,0,0,.766.94.866.866,0,0,0,.765-.94V.94A.866.866,0,0,0,.766,0Z" transform="translate(0)" fill="#fff"/>
          </g>
        </g>
        <g id="Grupo_107331" data-name="Grupo 107331" transform="translate(0 187.278)">
          <g id="Grupo_107329" data-name="Grupo 107329" transform="translate(0 5.23)">
            <path id="Trazado_154942" data-name="Trazado 154942" d="M9.282,0H.765A.865.865,0,0,0,0,.939a.865.865,0,0,0,.765.939H9.282a.865.865,0,0,0,.765-.939A.865.865,0,0,0,9.282,0Z" transform="translate(0 0)" fill="#fff"/>
          </g>
          <g id="Grupo_107330" data-name="Grupo 107330" transform="translate(4.258 0)">
            <path id="Trazado_154943" data-name="Trazado 154943" d="M.765,0A.865.865,0,0,0,0,.939V11.4a.865.865,0,0,0,.765.939A.865.865,0,0,0,1.53,11.4V.939A.865.865,0,0,0,.765,0Z" transform="translate(0)" fill="#fff"/>
          </g>
        </g>
        <g id="Grupo_107334" data-name="Grupo 107334" transform="translate(199.074 411.724)" opacity="0.3">
          <g id="Grupo_107332" data-name="Grupo 107332" transform="translate(0 4.412)">
            <path id="Trazado_154944" data-name="Trazado 154944" d="M8.29,0H1.105A1.252,1.252,0,0,0,0,1.359,1.251,1.251,0,0,0,1.105,2.716H8.29A1.251,1.251,0,0,0,9.395,1.359,1.251,1.251,0,0,0,8.29,0Z" transform="translate(0 0)" fill="#fff"/>
          </g>
          <g id="Grupo_107333" data-name="Grupo 107333" transform="translate(3.591 0)">
            <path id="Trazado_154945" data-name="Trazado 154945" d="M1.106,0A1.252,1.252,0,0,0,0,1.359v8.825a1.251,1.251,0,0,0,1.106,1.357,1.251,1.251,0,0,0,1.105-1.357V1.359A1.252,1.252,0,0,0,1.106,0Z" transform="translate(0)" fill="#fff"/>
          </g>
        </g>
        <g id="Grupo_107337" data-name="Grupo 107337" transform="translate(109.521 213.765)">
          <g id="Grupo_107335" data-name="Grupo 107335" transform="translate(0 3.109)">
            <path id="Trazado_154946" data-name="Trazado 154946" d="M5.841,0H.779A.882.882,0,0,0,0,.957a.881.881,0,0,0,.779.956H5.841A.881.881,0,0,0,6.62.957.881.881,0,0,0,5.841,0Z" transform="translate(0)" fill="#fff"/>
          </g>
          <g id="Grupo_107336" data-name="Grupo 107336" transform="translate(2.531 0)">
            <path id="Trazado_154947" data-name="Trazado 154947" d="M.779,0A.881.881,0,0,0,0,.956V7.174a.881.881,0,0,0,.779.956.881.881,0,0,0,.779-.956V.956A.881.881,0,0,0,.779,0Z" transform="translate(0)" fill="#fff"/>
          </g>
        </g>
        <g id="Grupo_107340" data-name="Grupo 107340" transform="translate(278.125 446.486)" opacity="0.3">
          <g id="Grupo_107338" data-name="Grupo 107338" transform="translate(0 2.207)">
            <path id="Trazado_154948" data-name="Trazado 154948" d="M4.146,0H.554A.627.627,0,0,0,0,.679a.626.626,0,0,0,.554.678H4.146A.625.625,0,0,0,4.7.679.626.626,0,0,0,4.146,0Z" transform="translate(0 0)" fill="#fff"/>
          </g>
          <g id="Grupo_107339" data-name="Grupo 107339" transform="translate(1.797 0)">
            <path id="Trazado_154949" data-name="Trazado 154949" d="M.553,0A.626.626,0,0,0,0,.679V5.092a.626.626,0,0,0,.553.679.626.626,0,0,0,.553-.679V.679A.626.626,0,0,0,.553,0Z" transform="translate(0)" fill="#fff"/>
          </g>
        </g>
        <g id="Grupo_107341" data-name="Grupo 107341" transform="translate(159.8 419.551)">
          <path id="Trazado_154950" data-name="Trazado 154950" d="M5.11,0C2.292,0,0,2.815,0,6.276s2.292,6.277,5.11,6.277,5.108-2.816,5.108-6.277S7.927,0,5.11,0Zm0,10.234c-1.778,0-3.224-1.776-3.224-3.958S3.332,2.318,5.11,2.318,8.333,4.093,8.333,6.276,6.887,10.234,5.11,10.234Z" transform="translate(0 0)" fill="#fff"/>
        </g>
        <g id="Grupo_107342" data-name="Grupo 107342" transform="translate(388.781 264.51)">
          <path id="Trazado_154951" data-name="Trazado 154951" d="M2.555,0A2.9,2.9,0,0,0,0,3.137,2.9,2.9,0,0,0,2.555,6.276,2.9,2.9,0,0,0,5.11,3.137,2.9,2.9,0,0,0,2.555,0Zm0,5.117A1.825,1.825,0,0,1,.944,3.137,1.825,1.825,0,0,1,2.555,1.159,1.825,1.825,0,0,1,4.166,3.137,1.825,1.825,0,0,1,2.555,5.117Z" transform="translate(0 0)" fill="#fff"/>
        </g>
        <g id="Grupo_107343" data-name="Grupo 107343" transform="translate(242.483 440.001)">
          <path id="Trazado_154952" data-name="Trazado 154952" d="M5.109,0C2.292,0,0,2.816,0,6.276s2.292,6.277,5.109,6.277,5.11-2.816,5.11-6.277S7.928,0,5.109,0Zm0,10.235c-1.777,0-3.223-1.775-3.223-3.959S3.332,2.318,5.109,2.318,8.334,4.093,8.334,6.276,6.886,10.235,5.109,10.235Z" transform="translate(0 0)" fill="#fff"/>
        </g>
        <g id="Grupo_107344" data-name="Grupo 107344" transform="translate(18.005 107.128)">
          <path id="Trazado_154953" data-name="Trazado 154953" d="M5.109,0C2.292,0,0,2.815,0,6.277s2.292,6.275,5.109,6.275,5.11-2.815,5.11-6.275S7.927,0,5.109,0Zm0,10.235c-1.777,0-3.222-1.775-3.222-3.958s1.445-3.96,3.222-3.96,3.223,1.777,3.223,3.96S6.886,10.235,5.109,10.235Z" transform="translate(0)" fill="#fff"/>
        </g>
        <g id="Grupo_107345" data-name="Grupo 107345" transform="translate(435.82)">
          <path id="Trazado_154954" data-name="Trazado 154954" d="M5.109,0C2.292,0,0,2.815,0,6.277s2.292,6.275,5.109,6.275,5.11-2.815,5.11-6.275S7.927,0,5.109,0Zm0,10.235c-1.777,0-3.222-1.775-3.222-3.958s1.445-3.96,3.222-3.96,3.223,1.777,3.223,3.96S6.886,10.235,5.109,10.235Z" transform="translate(0)" fill="#fff"/>
        </g>
        <g id="Grupo_107346" data-name="Grupo 107346" transform="translate(18.123 365.333)">
          <path id="Trazado_154955" data-name="Trazado 154955" d="M4.784,0C2.146,0,0,2.636,0,5.876s2.146,5.875,4.784,5.875S9.567,9.116,9.567,5.876,7.421,0,4.784,0Zm0,11.164C2.41,11.164.478,8.792.478,5.876S2.41.587,4.784.587,9.089,2.96,9.089,5.876,7.158,11.164,4.784,11.164Z" transform="translate(0)" fill="#fff"/>
        </g>
        <g id="Grupo_107347" data-name="Grupo 107347" transform="translate(416.316 294.397)">
          <path id="Trazado_154956" data-name="Trazado 154956" d="M3.569,0C1.6,0,0,1.968,0,4.385S1.6,8.769,3.569,8.769,7.139,6.8,7.139,4.385,5.537,0,3.569,0Zm0,8.091C1.907,8.091.553,6.428.553,4.385S1.907.679,3.569.679,6.586,2.342,6.586,4.385,5.234,8.091,3.569,8.091Z" transform="translate(0 0)" fill="#fff"/>
        </g>
        <g id="Grupo_107348" data-name="Grupo 107348" transform="translate(53.496 305.105)">
          <path id="Trazado_154957" data-name="Trazado 154957" d="M3.57,0C1.6,0,0,1.966,0,4.385S1.6,8.769,3.57,8.769,7.139,6.8,7.139,4.385,5.538,0,3.57,0Zm0,8.09C1.906,8.09.553,6.427.553,4.385S1.906.679,3.57.679,6.586,2.342,6.586,4.385,5.233,8.09,3.57,8.09Z" transform="translate(0 0)" fill="#fff"/>
        </g>
        <g id="Grupo_107349" data-name="Grupo 107349" transform="translate(282.554 375.343)">
          <path id="Trazado_154958" data-name="Trazado 154958" d="M78.671,0a.376.376,0,0,0-.155.034,13.808,13.808,0,0,0-1.387.733.612.612,0,0,0-.2.734.415.415,0,0,0,.6.251,12.878,12.878,0,0,1,1.3-.689A.592.592,0,0,0,79.09.358.462.462,0,0,0,78.671,0ZM74.331,3.09a.4.4,0,0,0-.284.124,19.373,19.373,0,0,0-2.556,3.224.635.635,0,0,0,.077.77.394.394,0,0,0,.626-.094,18.4,18.4,0,0,1,2.42-3.052.637.637,0,0,0,.061-.773A.416.416,0,0,0,74.331,3.09ZM61.466,5.839l-.038,0a8.517,8.517,0,0,0-3.358,1.067l-.229.135a.612.612,0,0,0-.2.735.415.415,0,0,0,.6.249l.211-.125A7.735,7.735,0,0,1,61.5,6.935a.526.526,0,0,0,.407-.593A.5.5,0,0,0,61.466,5.839Zm3.553.294a.479.479,0,0,0-.437.438.556.556,0,0,0,.348.647,14.18,14.18,0,0,1,3.3,1.317.42.42,0,0,0,.59-.28.6.6,0,0,0-.227-.724,14.968,14.968,0,0,0-3.485-1.387A.363.363,0,0,0,65.019,6.133Zm-9.8,3.5a.414.414,0,0,0-.329.178,17.539,17.539,0,0,0-2.083,3.73.612.612,0,0,0,.193.739.411.411,0,0,0,.6-.237,16.473,16.473,0,0,1,1.947-3.488.64.64,0,0,0-.027-.776A.4.4,0,0,0,55.216,9.635ZM71.49,9.7a.424.424,0,0,0-.357.219.636.636,0,0,0,.089.768,16.1,16.1,0,0,1,2.5,2.93.394.394,0,0,0,.629.078.639.639,0,0,0,.063-.773,17.1,17.1,0,0,0-2.661-3.113A.4.4,0,0,0,71.49,9.7Zm-1.53.252a.448.448,0,0,0-.4.311,23.2,23.2,0,0,0-1.211,4.251.561.561,0,0,0,.337.656.451.451,0,0,0,.534-.414,22.074,22.074,0,0,1,1.144-4.018A.608.608,0,0,0,70.154,10,.374.374,0,0,0,69.96,9.949Zm5.923,6.532a.382.382,0,0,0-.16.036.6.6,0,0,0-.257.709A11.494,11.494,0,0,1,76,20.644q0,.323-.021.646a.524.524,0,0,0,.413.587.485.485,0,0,0,.479-.506c.015-.243.022-.486.022-.728a12.824,12.824,0,0,0-.594-3.81A.459.459,0,0,0,75.883,16.481Zm-35.46.1a11.985,11.985,0,0,0-1.662.114.533.533,0,0,0-.393.607.475.475,0,0,0,.494.483,12.147,12.147,0,0,1,3.461.038.48.48,0,0,0,.5-.48.536.536,0,0,0-.389-.61A13.718,13.718,0,0,0,40.423,16.58Zm11.478.747a.47.47,0,0,0-.43.4l-.116.523a36.145,36.145,0,0,0-.6,3.854.537.537,0,0,0,.388.612.481.481,0,0,0,.5-.476,35.065,35.065,0,0,1,.581-3.712l.113-.5a.575.575,0,0,0-.309-.677A.4.4,0,0,0,51.9,17.327Zm-6.038.339a.466.466,0,0,0-.425.384.58.58,0,0,0,.291.688,19.521,19.521,0,0,1,3.239,1.623.411.411,0,0,0,.6-.241.612.612,0,0,0-.2-.737A20.234,20.234,0,0,0,46,17.691.391.391,0,0,0,45.863,17.666Zm-10.489.155a.384.384,0,0,0-.182.047,10.5,10.5,0,0,0-2.532,1.964q-.279.293-.536.6a.64.64,0,0,0,0,.776.391.391,0,0,0,.632.007q.235-.285.489-.551a9.574,9.574,0,0,1,2.317-1.8.6.6,0,0,0,.225-.724A.451.451,0,0,0,35.374,17.821Zm33.049.617H68.41a.514.514,0,0,0-.434.565,12.62,12.62,0,0,0,.833,4.479.412.412,0,0,0,.6.24.613.613,0,0,0,.2-.737,11.288,11.288,0,0,1-.737-4.015A.5.5,0,0,0,68.422,18.438ZM52.235,21.574a.429.429,0,0,0-.368.238.63.63,0,0,0,.116.763,32.022,32.022,0,0,1,2.78,2.648.393.393,0,0,0,.631-.052.64.64,0,0,0-.043-.775,32.8,32.8,0,0,0-2.864-2.727A.388.388,0,0,0,52.235,21.574Zm-21.876,2.25a.444.444,0,0,0-.4.3A20.656,20.656,0,0,0,28.774,28.4a.557.557,0,0,0,.346.649.458.458,0,0,0,.529-.424,19.363,19.363,0,0,1,1.11-4.012.613.613,0,0,0-.2-.736A.382.382,0,0,0,30.359,23.823ZM10.4,24.108l-.263,0a.512.512,0,0,0-.437.561.5.5,0,0,0,.447.537h.01l.24,0a13.457,13.457,0,0,1,3.212.424.46.46,0,0,0,.525-.43.554.554,0,0,0-.351-.645A14.167,14.167,0,0,0,10.4,24.108Zm64.762.68a.406.406,0,0,0-.308.151,2.3,2.3,0,0,1-1.8.822h0a3.03,3.03,0,0,1-1.108-.218.437.437,0,0,0-.562.354.582.582,0,0,0,.289.69,3.76,3.76,0,0,0,1.38.271h0a3.092,3.092,0,0,0,2.414-1.125.641.641,0,0,0,.014-.776A.41.41,0,0,0,75.16,24.788Zm-68.51.119a.378.378,0,0,0-.162.037c-.14.067-.28.137-.419.213A9.4,9.4,0,0,0,3.36,27.434a.641.641,0,0,0-.007.776.391.391,0,0,0,.632.009A8.505,8.505,0,0,1,6.431,26.16c.125-.068.251-.133.379-.193a.6.6,0,0,0,.256-.709A.462.462,0,0,0,6.649,24.906Zm10.5.763a.468.468,0,0,0-.426.382.582.582,0,0,0,.29.69c1.116.436,2.242.924,3.345,1.448a.426.426,0,0,0,.577-.314.593.593,0,0,0-.255-.71c-1.12-.532-2.262-1.027-3.4-1.47A.369.369,0,0,0,17.146,25.669ZM51.012,26H51a.511.511,0,0,0-.438.56A38.112,38.112,0,0,0,50.9,31.01a.464.464,0,0,0,.513.452.546.546,0,0,0,.368-.63,37.235,37.235,0,0,1-.322-4.29A.5.5,0,0,0,51.012,26Zm6.6,1.329a.4.4,0,0,0-.3.143.638.638,0,0,0-.03.775,37.4,37.4,0,0,1,2.211,3.363.4.4,0,0,0,.624.127.634.634,0,0,0,.1-.766,38.232,38.232,0,0,0-2.276-3.462A.412.412,0,0,0,57.607,27.334Zm-33.8,1.507a.45.45,0,0,0-.406.319.608.608,0,0,0,.219.729c1.065.6,2.133,1.254,3.175,1.939a.407.407,0,0,0,.6-.225.617.617,0,0,0-.182-.743c-1.058-.7-2.142-1.357-3.223-1.969A.378.378,0,0,0,23.806,28.84ZM1.6,30.827a.449.449,0,0,0-.4.306A17.7,17.7,0,0,0,.078,35.458a.545.545,0,0,0,.372.627.468.468,0,0,0,.512-.455A16.343,16.343,0,0,1,2,31.619a.613.613,0,0,0-.2-.735A.379.379,0,0,0,1.6,30.827Zm27.22,1.5a.5.5,0,0,0-.447.536q-.007.341-.006.681c0,1.22.063,2.491.184,3.777a.475.475,0,0,0,.5.481.535.535,0,0,0,.393-.608c-.119-1.243-.179-2.471-.179-3.65q0-.328.006-.655a.512.512,0,0,0-.436-.562Zm1.285.658a.436.436,0,0,0-.381.261.625.625,0,0,0,.147.755c1,.757,2,1.563,2.962,2.394a.4.4,0,0,0,.623-.134.632.632,0,0,0-.109-.765c-.978-.844-1.99-1.661-3.008-2.431A.383.383,0,0,0,30.1,32.983Zm31.653,1.475a.381.381,0,0,0-.215.068.618.618,0,0,0-.176.745c.361.805.7,1.632,1,2.458.177.48.332.961.462,1.432a.433.433,0,0,0,.565.345.584.584,0,0,0,.281-.695c-.138-.506-.3-1.023-.495-1.536-.314-.85-.662-1.7-1.034-2.533A.442.442,0,0,0,61.756,34.458Zm-9.588.18a.359.359,0,0,0-.134.025.582.582,0,0,0-.292.689A35.305,35.305,0,0,0,53.085,39.5a.415.415,0,0,0,.6.255.612.612,0,0,0,.207-.733,33.652,33.652,0,0,1-1.3-4A.467.467,0,0,0,52.168,34.638ZM35.949,38.024a.423.423,0,0,0-.35.207.636.636,0,0,0,.071.77c.925.905,1.836,1.852,2.706,2.815a.392.392,0,0,0,.633-.041A.641.641,0,0,0,38.975,41c-.884-.978-1.809-1.939-2.748-2.857A.4.4,0,0,0,35.949,38.024ZM.447,39.372a.331.331,0,0,0-.046,0,.531.531,0,0,0-.4.6,26.753,26.753,0,0,0,.761,4.395.436.436,0,0,0,.561.357.58.58,0,0,0,.29-.688,25.385,25.385,0,0,1-.724-4.178A.493.493,0,0,0,.447,39.372Zm29.169,1.654a.369.369,0,0,0-.1.015.564.564,0,0,0-.332.661c.284,1.465.633,2.9,1.042,4.266a.43.43,0,0,0,.573.327.589.589,0,0,0,.266-.7c-.4-1.327-.735-2.72-1.011-4.144A.477.477,0,0,0,29.617,41.025ZM55.3,42.492a.391.391,0,0,0-.263.105.634.634,0,0,0-.1.767,9.066,9.066,0,0,0,2.763,3.1.41.41,0,0,0,.6-.23.615.615,0,0,0-.188-.741,8.151,8.151,0,0,1-2.459-2.778A.424.424,0,0,0,55.3,42.492Zm8.328.262a.48.48,0,0,0-.436.438,4,4,0,0,1-.776,1.845,2.765,2.765,0,0,1-1.175.869.582.582,0,0,0-.29.689.435.435,0,0,0,.561.357A3.639,3.639,0,0,0,63.051,45.8a5.14,5.14,0,0,0,1.01-2.389.555.555,0,0,0-.346-.649A.376.376,0,0,0,63.624,42.755Zm-22.367,1.14a.4.4,0,0,0-.313.158.639.639,0,0,0-.005.776c.826,1.034,1.637,2.11,2.405,3.2a.392.392,0,0,0,.631.055.639.639,0,0,0,.045-.774c-.781-1.106-1.6-2.2-2.443-3.248A.409.409,0,0,0,41.257,43.895ZM2.54,47.716a.376.376,0,0,0-.2.058.613.613,0,0,0-.2.736q.158.388.325.77c.454,1.047.961,2.082,1.509,3.077a.4.4,0,0,0,.619.148.628.628,0,0,0,.121-.762c-.529-.963-1.021-1.966-1.461-2.98q-.161-.37-.314-.745A.445.445,0,0,0,2.54,47.716Zm29.548,1.526a.373.373,0,0,0-.208.064.615.615,0,0,0-.187.741,28.974,28.974,0,0,0,1.949,3.778.4.4,0,0,0,.626.106.636.636,0,0,0,.086-.769,27.688,27.688,0,0,1-1.871-3.628A.444.444,0,0,0,32.088,49.242Zm13.778,1.344a.379.379,0,0,0-.236.083.624.624,0,0,0-.143.755,10.224,10.224,0,0,1,1.065,3.206c.029.205.048.415.057.625a.5.5,0,0,0,.471.517A.518.518,0,0,0,47.5,55.2a7.53,7.53,0,0,0-.07-.753,11.452,11.452,0,0,0-1.186-3.6A.434.434,0,0,0,45.866,50.586ZM6.522,54.977a.4.4,0,0,0-.294.136.639.639,0,0,0-.043.774,34.354,34.354,0,0,0,2.549,3.169.391.391,0,0,0,.631-.043.642.642,0,0,0-.034-.776,32.885,32.885,0,0,1-2.472-3.073A.417.417,0,0,0,6.522,54.977Zm29.9,1.18a.415.415,0,0,0-.336.188.639.639,0,0,0,.042.775A15.337,15.337,0,0,0,39.16,59.66a.413.413,0,0,0,.6-.238.615.615,0,0,0-.194-.74,14.358,14.358,0,0,1-2.853-2.39A.4.4,0,0,0,36.421,56.156Zm9.561,2.6a.417.417,0,0,0-.334.184,2.807,2.807,0,0,1-1.092.934,3.056,3.056,0,0,1-1.766.176.474.474,0,0,0-.5.469.541.541,0,0,0,.381.619,3.785,3.785,0,0,0,2.2-.235,3.736,3.736,0,0,0,1.447-1.232.64.64,0,0,0-.038-.775A.4.4,0,0,0,45.982,58.753ZM11.831,60.823a.43.43,0,0,0-.367.235.632.632,0,0,0,.111.764,29.923,29.923,0,0,0,3.09,2.327.41.41,0,0,0,.6-.227.617.617,0,0,0-.184-.742,29.008,29.008,0,0,1-3-2.257A.391.391,0,0,0,11.831,60.823Zm6.295,4.112a.458.458,0,0,0-.417.352.594.594,0,0,0,.257.709,24.712,24.712,0,0,0,3.466,1.321.448.448,0,0,0,.539-.4.563.563,0,0,0-.33-.662,23.973,23.973,0,0,1-3.356-1.282A.376.376,0,0,0,18.126,64.935Z" transform="translate(0 0)" fill="#fff"/>
        </g>
        <g id="Grupo_107353" data-name="Grupo 107353" transform="translate(57.014 329.538)">
          <g id="Grupo_107350" data-name="Grupo 107350" transform="translate(25.817 105.145)">
            <path id="Trazado_154959" data-name="Trazado 154959" d="M.447,0A.465.465,0,0,0,.024.371a.586.586,0,0,0,.28.7c.575.241,1.161.458,1.744.642a.445.445,0,0,0,.544-.394A.57.57,0,0,0,2.271.647C1.712.47,1.146.262.591.03A.356.356,0,0,0,.447,0Z" transform="translate(0 0)" fill="#fff"/>
          </g>
          <g id="Grupo_107351" data-name="Grupo 107351" transform="translate(0)">
            <path id="Trazado_154960" data-name="Trazado 154960" d="M18.86,0h-.038a15.474,15.474,0,0,0-3.6.823.577.577,0,0,0-.3.68.441.441,0,0,0,.554.374A14.66,14.66,0,0,1,18.9,1.1.527.527,0,0,0,19.3.5.5.5,0,0,0,18.86,0ZM12.013,2.408a.379.379,0,0,0-.2.058A21.292,21.292,0,0,0,8.7,4.81a.634.634,0,0,0-.1.767.4.4,0,0,0,.625.116,20.376,20.376,0,0,1,2.988-2.245.613.613,0,0,0,.2-.736A.447.447,0,0,0,12.013,2.408ZM6.263,7.592a.409.409,0,0,0-.321.167,25.836,25.836,0,0,0-2.309,3.48A.63.63,0,0,0,3.751,12a.4.4,0,0,0,.62-.146A24.682,24.682,0,0,1,6.583,8.524a.641.641,0,0,0-.01-.776A.4.4,0,0,0,6.263,7.592Zm-4,7.248a.454.454,0,0,0-.408.327c-.079.217-.153.436-.224.655a31.591,31.591,0,0,0-.946,3.6.564.564,0,0,0,.326.664.449.449,0,0,0,.541-.4,30.267,30.267,0,0,1,.908-3.453q.1-.313.212-.62a.6.6,0,0,0-.227-.724A.38.38,0,0,0,2.267,14.84Zm-1.73,8.5a.494.494,0,0,0-.444.5C.031,24.708,0,25.6,0,26.482q0,.917.044,1.836a.489.489,0,0,0,.472.516.52.52,0,0,0,.42-.579c-.028-.59-.043-1.182-.042-1.771,0-.856.029-1.712.089-2.546a.527.527,0,0,0-.406-.594ZM.94,32.1a.34.34,0,0,0-.087.011.554.554,0,0,0-.353.643,42.335,42.335,0,0,0,.921,4.321.432.432,0,0,0,.564.349.581.581,0,0,0,.284-.692,41.028,41.028,0,0,1-.892-4.187A.483.483,0,0,0,.94,32.1Zm2.233,8.34a.381.381,0,0,0-.19.052.608.608,0,0,0-.214.731,39.849,39.849,0,0,0,1.746,3.914.4.4,0,0,0,.616.173.627.627,0,0,0,.14-.757,39.111,39.111,0,0,1-1.694-3.8A.449.449,0,0,0,3.173,40.439Zm3.808,7.428a.4.4,0,0,0-.282.123.637.637,0,0,0-.064.773,39.978,39.978,0,0,0,2.441,3.3.392.392,0,0,0,.633,0,.643.643,0,0,0,0-.777,38.628,38.628,0,0,1-2.377-3.21A.419.419,0,0,0,6.981,47.867Zm18.682,3.168q-.5,0-1,.021a.515.515,0,0,0-.431.566.508.508,0,0,0,.463.53,26.66,26.66,0,0,1,2.682.034q.421.025.849.066a.5.5,0,0,0,.479-.5.523.523,0,0,0-.411-.589c-.292-.029-.583-.05-.873-.068C26.835,51.055,26.249,51.035,25.663,51.035Zm-4.54.51a.362.362,0,0,0-.09.011,13.628,13.628,0,0,0-3.114,1.19c-.13.07-.256.142-.383.215a.606.606,0,0,0-.214.73.415.415,0,0,0,.594.262c.12-.069.24-.136.36-.2a12.855,12.855,0,0,1,2.935-1.121.556.556,0,0,0,.349-.646A.481.481,0,0,0,21.123,51.545Zm10.664.331a.47.47,0,0,0-.43.4.574.574,0,0,0,.309.677,8.525,8.525,0,0,1,3.067,1.79.4.4,0,0,0,.625-.108.636.636,0,0,0-.088-.769A9.5,9.5,0,0,0,31.908,51.9.363.363,0,0,0,31.786,51.877ZM12.063,54.048a.419.419,0,0,0-.348.2.638.638,0,0,0,.068.771q.8.79,1.646,1.541a20.17,20.17,0,0,0-1.505,2.146.636.636,0,0,0,.09.768.4.4,0,0,0,.625-.11,18.816,18.816,0,0,1,1.531-2.163q.265.224.535.444a.4.4,0,0,0,.62-.154.63.63,0,0,0-.126-.76c-.12-.1-.24-.2-.358-.3.057-.063.115-.124.173-.184a.638.638,0,0,0,.054-.773.392.392,0,0,0-.63-.066c-.118.123-.235.249-.352.376q-.9-.788-1.743-1.624A.394.394,0,0,0,12.063,54.048Zm25.052,3.177a.388.388,0,0,0-.149.032.588.588,0,0,0-.272.7,8.6,8.6,0,0,1,.332,2.343,7.2,7.2,0,0,1-.184,1.648.574.574,0,0,0,.3.68.44.44,0,0,0,.554-.373,8.458,8.458,0,0,0,.221-1.955,9.956,9.956,0,0,0-.383-2.708A.462.462,0,0,0,37.114,57.225Zm-19.1,1.691a.44.44,0,0,0-.391.286.617.617,0,0,0,.177.744c1.041.7,2.131,1.364,3.239,1.976a.418.418,0,0,0,.59-.275.6.6,0,0,0-.224-.725c-1.088-.6-2.157-1.253-3.177-1.939A.388.388,0,0,0,18.019,58.916Zm-7.594,3.332a.449.449,0,0,0-.4.309,30.9,30.9,0,0,0-1.308,4.191.577.577,0,0,0,.3.68.439.439,0,0,0,.554-.374,29.441,29.441,0,0,1,1.253-4.018.609.609,0,0,0-.207-.733A.379.379,0,0,0,10.425,62.248Zm14.119.281a.462.462,0,0,0-.42.361.59.59,0,0,0,.267.7c1.119.5,2.274.963,3.434,1.377a.443.443,0,0,0,.554-.374.578.578,0,0,0-.3-.68c-1.142-.406-2.278-.861-3.378-1.354A.383.383,0,0,0,24.544,62.529Zm10.418,2.177a.387.387,0,0,0-.163.038,5.015,5.015,0,0,1-3.3.206.469.469,0,0,0-.514.451.547.547,0,0,0,.367.631,5.709,5.709,0,0,0,3.77-.267.6.6,0,0,0,.253-.711A.459.459,0,0,0,34.962,64.706ZM8.424,70.659a.491.491,0,0,0-.442.482q-.039.387-.069.774c-.071.91-.106,1.846-.106,2.778,0,.309,0,.617.012.924s.227.561.461.53a.513.513,0,0,0,.432-.566c-.008-.3-.011-.593-.012-.89,0-.9.035-1.8.1-2.674.018-.248.041-.495.065-.742a.536.536,0,0,0-.389-.611A.314.314,0,0,0,8.424,70.659Zm.212,8.763a.325.325,0,0,0-.079.009.549.549,0,0,0-.362.635,39.148,39.148,0,0,0,.88,4.339.436.436,0,0,0,.562.353.581.581,0,0,0,.289-.69,37.652,37.652,0,0,1-.851-4.193A.484.484,0,0,0,8.636,79.422Zm2.185,8.353a.371.371,0,0,0-.191.054.608.608,0,0,0-.214.731,38.716,38.716,0,0,0,1.764,3.905.4.4,0,0,0,.617.167.628.628,0,0,0,.135-.758,37.12,37.12,0,0,1-1.708-3.785A.451.451,0,0,0,10.821,87.775Zm3.851,7.394a.4.4,0,0,0-.286.127.639.639,0,0,0-.057.773,33.35,33.35,0,0,0,2.5,3.242.391.391,0,0,0,.631-.029.639.639,0,0,0-.023-.776,32.357,32.357,0,0,1-2.424-3.141A.419.419,0,0,0,14.671,95.169Zm5.242,5.964a.427.427,0,0,0-.364.232.634.634,0,0,0,.106.765,25.889,25.889,0,0,0,3.111,2.325.413.413,0,0,0,.6-.236.616.616,0,0,0-.192-.74,24.8,24.8,0,0,1-3-2.246A.39.39,0,0,0,19.914,101.133Z" transform="translate(0)" fill="#fff"/>
          </g>
          <g id="Grupo_107352" data-name="Grupo 107352" transform="translate(22.064 0.121)">
            <path id="Trazado_154961" data-name="Trazado 154961" d="M.447,0A.489.489,0,0,0,0,.472a.541.541,0,0,0,.38.62,13,13,0,0,1,1.7.418.445.445,0,0,0,.545-.393.569.569,0,0,0-.32-.668A13.683,13.683,0,0,0,.51.005.433.433,0,0,0,.447,0Z" transform="translate(0)" fill="#fff"/>
          </g>
        </g>
        <g id="Grupo_107354" data-name="Grupo 107354" transform="translate(359.823 220.878)">
          <path id="Trazado_154962" data-name="Trazado 154962" d="M14.692,0h-.028a17.174,17.174,0,0,0-3.606.68.565.565,0,0,0-.327.664.448.448,0,0,0,.54.4A16.485,16.485,0,0,1,14.721,1.1a.521.521,0,0,0,.417-.582A.5.5,0,0,0,14.692,0Zm3.566.13a.492.492,0,0,0-.442.482.539.539,0,0,0,.389.612,16.028,16.028,0,0,1,3.4.921.437.437,0,0,0,.561-.357.58.58,0,0,0-.29-.689A16.813,16.813,0,0,0,18.314.134.32.32,0,0,0,18.258.13ZM7.786,2.078a.37.37,0,0,0-.18.046,20.084,20.084,0,0,0-3.2,2.156.627.627,0,0,0-.122.76.4.4,0,0,0,.619.15A19.18,19.18,0,0,1,7.966,3.13a.6.6,0,0,0,.23-.723A.453.453,0,0,0,7.786,2.078Zm17.248.69a.442.442,0,0,0-.395.292.616.616,0,0,0,.187.742,20.233,20.233,0,0,1,2.938,2.321.394.394,0,0,0,.626-.1.637.637,0,0,0-.08-.77,21.044,21.044,0,0,0-3.066-2.424A.383.383,0,0,0,25.034,2.769ZM1.885,6.947a.4.4,0,0,0-.311.156q-.362.433-.7.888A.643.643,0,0,0,.9,8.768a.394.394,0,0,0,.632-.033c.216-.289.44-.572.668-.845a.641.641,0,0,0,.009-.776A.412.412,0,0,0,1.885,6.947ZM30.655,8.12a.4.4,0,0,0-.3.143.639.639,0,0,0-.031.775,23.187,23.187,0,0,1,2.09,3.424.4.4,0,0,0,.616.181.629.629,0,0,0,.147-.756A24.558,24.558,0,0,0,30.987,8.3.414.414,0,0,0,30.655,8.12Zm3.683,7.455a.369.369,0,0,0-.147.03.588.588,0,0,0-.275.7,17.97,17.97,0,0,1,.685,4.134c.012.3.182.557.469.52a.519.519,0,0,0,.423-.576,19.285,19.285,0,0,0-.733-4.438A.463.463,0,0,0,34.338,15.576Zm-3.422,7.45a.477.477,0,0,0-.435.426.563.563,0,0,0,.336.657,9.815,9.815,0,0,1,2.092.89q.476.263.937.561a10.351,10.351,0,0,1-1.385,2.561.638.638,0,0,0,.025.775.39.39,0,0,0,.631-.031,11.9,11.9,0,0,0,1.9-3.949.585.585,0,0,0-.279-.7.427.427,0,0,0-.558.316q-.444-.283-.9-.538a10.692,10.692,0,0,0-2.261-.959A.392.392,0,0,0,30.916,23.026ZM27.4,23.2a.374.374,0,0,0-.162.037c-.06.028-.121.059-.18.091a5.146,5.146,0,0,0-2.36,3.467.567.567,0,0,0,.319.669.441.441,0,0,0,.544-.393,4.121,4.121,0,0,1,1.857-2.739l.144-.072a.6.6,0,0,0,.255-.71A.458.458,0,0,0,27.4,23.2Zm9.792,3.881a.42.42,0,0,0-.347.2.64.64,0,0,0,.063.773,22.73,22.73,0,0,1,2.5,2.991.391.391,0,0,0,.63.056.638.638,0,0,0,.046-.774A23.98,23.98,0,0,0,37.474,27.2.4.4,0,0,0,37.191,27.078ZM26.36,30.136a.441.441,0,0,0-.392.286.616.616,0,0,0,.179.744,3.958,3.958,0,0,0,3.18.44,5.782,5.782,0,0,0,.644-.21.581.581,0,0,0,.29-.689.439.439,0,0,0-.561-.358,4.654,4.654,0,0,1-.56.183,3.21,3.21,0,0,1-2.566-.329A.378.378,0,0,0,26.36,30.136Zm15.5,3.54a.386.386,0,0,0-.234.081.622.622,0,0,0-.147.754,30.986,30.986,0,0,1,1.6,3.829.419.419,0,0,0,.584.293.6.6,0,0,0,.239-.718,32,32,0,0,0-1.66-3.978A.432.432,0,0,0,41.858,33.676Zm2.75,8.065a.371.371,0,0,0-.107.015.566.566,0,0,0-.327.664c.138.686.255,1.384.348,2.074.1.713.172,1.443.227,2.171a.483.483,0,0,0,.486.5.531.531,0,0,0,.4-.6c-.056-.754-.135-1.511-.236-2.251-.1-.718-.219-1.443-.362-2.156A.475.475,0,0,0,44.608,41.742Zm.666,8.711a.5.5,0,0,0-.446.523,42.245,42.245,0,0,1-.387,4.291.549.549,0,0,0,.363.635.468.468,0,0,0,.517-.447,43.192,43.192,0,0,0,.4-4.429.517.517,0,0,0-.425-.574ZM.447,51.294a.354.354,0,0,0-.1.014.562.562,0,0,0-.335.658A34.815,34.815,0,0,0,1.1,56.23a.425.425,0,0,0,.58.308.6.6,0,0,0,.25-.712A33.718,33.718,0,0,1,.882,51.72.478.478,0,0,0,.447,51.294ZM44.06,59.083a.469.469,0,0,0-.428.392c-.33,1.366-.731,2.736-1.189,4.073a.6.6,0,0,0,.238.719.424.424,0,0,0,.586-.293c.471-1.374.882-2.783,1.222-4.186a.576.576,0,0,0-.3-.681A.354.354,0,0,0,44.06,59.083Zm-41,.346a.384.384,0,0,0-.222.072.621.621,0,0,0-.165.749A34.892,34.892,0,0,0,4.688,63.96a.4.4,0,0,0,.626.1.636.636,0,0,0,.082-.769A33.936,33.936,0,0,1,3.45,59.7.437.437,0,0,0,3.063,59.429Zm4.332,6.949a.4.4,0,0,0-.314.159.64.64,0,0,0,0,.776,32.358,32.358,0,0,0,2.711,2.958.394.394,0,0,0,.627-.093.638.638,0,0,0-.076-.77A31.5,31.5,0,0,1,7.712,66.54.409.409,0,0,0,7.395,66.378Zm33.9.781a.443.443,0,0,0-.392.285q-.292.652-.6,1.29a26.683,26.683,0,0,1-1.27,2.35.634.634,0,0,0,.088.768.394.394,0,0,0,.625-.106c.431-.7.851-1.48,1.323-2.449q.319-.655.619-1.326a.619.619,0,0,0-.177-.745A.379.379,0,0,0,41.3,67.16ZM13,71.785a.437.437,0,0,0-.382.264.625.625,0,0,0,.151.754,28.425,28.425,0,0,0,3.212,2.07.417.417,0,0,0,.59-.277.6.6,0,0,0-.224-.724,27.8,27.8,0,0,1-3.116-2.007A.383.383,0,0,0,13,71.785Zm23.844,2.139a.386.386,0,0,0-.249.093,10.353,10.353,0,0,1-3.119,1.735.576.576,0,0,0-.3.681.442.442,0,0,0,.555.371A11.157,11.157,0,0,0,37.1,74.928a.629.629,0,0,0,.121-.762A.43.43,0,0,0,36.848,73.924ZM19.51,75.368a.469.469,0,0,0-.428.388.58.58,0,0,0,.3.685,23.5,23.5,0,0,0,3.533,1.024.469.469,0,0,0,.515-.452.547.547,0,0,0-.367-.631,22.652,22.652,0,0,1-3.418-.99A.365.365,0,0,0,19.51,75.368Zm10.6,1.227a.427.427,0,0,0-.054,0,19.782,19.782,0,0,1-3.5.2c-.261-.015-.452.232-.458.534a.513.513,0,0,0,.435.563,20.739,20.739,0,0,0,3.632-.206.535.535,0,0,0,.39-.61A.49.49,0,0,0,30.107,76.594Z" transform="translate(0 0)" fill="#fff"/>
        </g>
        <g id="Grupo_107355" data-name="Grupo 107355" transform="translate(41.825 103.304)">
          <path id="Trazado_154963" data-name="Trazado 154963" d="M33.281,0a11.576,11.576,0,0,0-1.456.091C31.7.1,31.582.122,31.457.14a.54.54,0,0,0-.388.613.472.472,0,0,0,.5.476c.113-.018.228-.035.343-.047a11.3,11.3,0,0,1,3.11.049.478.478,0,0,0,.5-.477.538.538,0,0,0-.389-.612A12.276,12.276,0,0,0,33.281,0Zm5.26,1.182a.461.461,0,0,0-.419.358.589.589,0,0,0,.264.7,15.13,15.13,0,0,1,3.1,1.905.4.4,0,0,0,.618-.166.627.627,0,0,0-.135-.758A16.005,16.005,0,0,0,38.7,1.216.365.365,0,0,0,38.541,1.182Zm-10.478.049a.365.365,0,0,0-.163.037,15.41,15.41,0,0,0-3.239,2.113.626.626,0,0,0-.116.762.4.4,0,0,0,.62.143,14.664,14.664,0,0,1,3.061-2,.594.594,0,0,0,.253-.711A.458.458,0,0,0,28.063,1.231ZM14.341,3.271a.4.4,0,0,0-.052,0,13.145,13.145,0,0,0-3.572,1.047.594.594,0,0,0-.265.706.432.432,0,0,0,.575.325,12.347,12.347,0,0,1,3.364-.987.535.535,0,0,0,.394-.608A.492.492,0,0,0,14.341,3.271Zm3.56.07a.487.487,0,0,0-.44.466.542.542,0,0,0,.374.625,10.056,10.056,0,0,1,3.132,1.149l.145.084a.414.414,0,0,0,.6-.256.611.611,0,0,0-.208-.733l-.157-.091a10.786,10.786,0,0,0-3.374-1.239A.349.349,0,0,0,17.9,3.341ZM44.506,5.89a.409.409,0,0,0-.314.159.642.642,0,0,0,0,.776,18.278,18.278,0,0,1,2.143,3.339.4.4,0,0,0,.616.181.626.626,0,0,0,.147-.755,19.424,19.424,0,0,0-2.272-3.539A.409.409,0,0,0,44.506,5.89Zm-22.3.246a.412.412,0,0,0-.325.173,20.759,20.759,0,0,0-2.2,3.6.622.622,0,0,0,.156.751.4.4,0,0,0,.612-.191,19.594,19.594,0,0,1,2.087-3.4.641.641,0,0,0-.02-.776A.4.4,0,0,0,22.206,6.136ZM7.689,6.264a.384.384,0,0,0-.247.091,16.365,16.365,0,0,0-2.8,2.926.642.642,0,0,0,.028.776.392.392,0,0,0,.633-.035A15.358,15.358,0,0,1,7.937,7.27a.632.632,0,0,0,.125-.762A.431.431,0,0,0,7.689,6.264Zm16.52.886a.409.409,0,0,0-.32.166.641.641,0,0,0,.007.776,14.612,14.612,0,0,1,2.074,3.358.408.408,0,0,0,.608.214.618.618,0,0,0,.174-.745,15.76,15.76,0,0,0-2.231-3.611A.405.405,0,0,0,24.209,7.149Zm-21.33,5.5a.442.442,0,0,0-.389.277A25.222,25.222,0,0,0,1.011,17.03a.582.582,0,0,0,.284.692.433.433,0,0,0,.564-.349,23.953,23.953,0,0,1,1.408-3.907.622.622,0,0,0-.166-.75A.386.386,0,0,0,2.879,12.646Zm15.731.99a.467.467,0,0,0-.426.387,21.511,21.511,0,0,0-.515,2.827c-.062.555-.1,1.1-.117,1.626a.518.518,0,0,0,.431.57c.28.007.455-.226.463-.528.014-.489.051-1,.109-1.518a20.264,20.264,0,0,1,.482-2.653.579.579,0,0,0-.295-.686A.353.353,0,0,0,18.61,13.636Zm9.01,1.091a.358.358,0,0,0-.095.013.558.558,0,0,0-.341.653,16.218,16.218,0,0,1,.249,2.8c0,.468-.021.934-.064,1.386a.536.536,0,0,0,.392.609.483.483,0,0,0,.5-.482c.046-.495.07-1,.07-1.514a17.4,17.4,0,0,0-.271-3.029A.479.479,0,0,0,27.62,14.726ZM.636,20.924a.488.488,0,0,0-.441.474A31.8,31.8,0,0,0,0,24.924c0,.316,0,.633.013.949a.533.533,0,0,0,.462.529.516.516,0,0,0,.431-.568q-.013-.454-.013-.91a30.657,30.657,0,0,1,.186-3.378A.537.537,0,0,0,.7,20.93.381.381,0,0,0,.636,20.924Zm17.9,1.333a.354.354,0,0,0-.164.038.594.594,0,0,0-.252.711,8.779,8.779,0,0,0,.725,1.666,6.106,6.106,0,0,0,1.7,1.917.4.4,0,0,0,.612-.194A.623.623,0,0,0,21,25.645a5.12,5.12,0,0,1-1.427-1.6,7.6,7.6,0,0,1-.625-1.439A.458.458,0,0,0,18.533,22.257Zm8.223,1a.443.443,0,0,0-.392.288,5.312,5.312,0,0,1-1.849,2.436,2.742,2.742,0,0,1-.444.225.582.582,0,0,0-.288.69.435.435,0,0,0,.562.354,3.551,3.551,0,0,0,.576-.292,6.3,6.3,0,0,0,2.228-2.892.617.617,0,0,0-.18-.744A.386.386,0,0,0,26.755,23.255ZM1.334,30.131.891,30.2l-.433.133a34.73,34.73,0,0,0,1.011,4.27.43.43,0,0,0,.574.323.592.592,0,0,0,.263-.707A33.46,33.46,0,0,1,1.334,30.131Zm2.034,7.726a.388.388,0,0,0-.213.065.618.618,0,0,0-.181.744A38.929,38.929,0,0,0,4.89,42.448a.4.4,0,0,0,.623.131.632.632,0,0,0,.106-.765,37.645,37.645,0,0,1-1.857-3.67A.444.444,0,0,0,3.368,37.857Zm4.109,7.159a.4.4,0,0,0-.3.138.638.638,0,0,0-.038.774c.786,1.091,1.638,2.158,2.533,3.174a.391.391,0,0,0,.631-.032.638.638,0,0,0-.025-.775c-.873-.99-1.7-2.031-2.47-3.093A.412.412,0,0,0,7.477,45.016Z" transform="translate(0 0)" fill="#fff"/>
        </g>
      </g>
    </g>
  </g>
</svg>
