<svg xmlns="http://www.w3.org/2000/svg" xmlns:xlink="http://www.w3.org/1999/xlink" width="1030" height="507" viewBox="0 0 1030 507">
  <defs>
    <clipPath id="clip-path">
      <rect id="Rect치ngulo_35346" data-name="Rect치ngulo 35346" width="1030" height="507" rx="10" transform="translate(285 6159)" fill="#ffceca"/>
    </clipPath>
  </defs>
  <g id="Grupo_108948" data-name="Grupo 108948" transform="translate(-285 -2855)">
    <rect id="Rect치ngulo_2225" data-name="Rect치ngulo 2225" width="1030" height="506" rx="10" transform="translate(285 2855)" fill="#ffceca"/>
    <g id="Enmascarar_grupo_154" data-name="Enmascarar grupo 154" transform="translate(0 -3304)" clip-path="url(#clip-path)">
      <g id="Grupo_92983" data-name="Grupo 92983" transform="translate(1276.372 6523.181) rotate(180)">
        <path id="Trazado_143287" data-name="Trazado 143287" d="M59.272,249.654C37.747,243.93,17.508,230.734,6.993,211.1s-9.523-45.923,5.365-62.49C29.89,129.1,59.266,127.759,84.509,120.637a144.076,144.076,0,0,0,81.5-60.553c8.385-13.147,14.744-27.839,25.678-38.957C203.519,9.094,220.033,2.235,236.818.486S270.647,1.843,286.5,7.625c31.814,11.6,60.969,36.746,67.253,70.022,4.829,25.573-4.678,52.481-21.279,72.522s-39.639,33.867-63.715,43.748-49.444,16.148-74.391,23.559c-20.146,5.985-42.208,11.456-60.721,21.6-13.063,7.16-22.106,14.113-37.732,14.592A128.03,128.03,0,0,1,59.272,249.654Z" transform="translate(-323.628 58.791) rotate(-3)" fill="#ffe7e4"/>
        <g id="Grupo_92982" data-name="Grupo 92982" transform="translate(-166.561 -305.819)" style="isolation: isolate">
          <path id="Trazado_143289" data-name="Trazado 143289" d="M317.559-158.182c-16.734,25.048-44.437,40.471-72.252,52.037S188.231-85.77,162.826-69.582,115.684-27.8,113.6,2.255c-.835,12.027,1.452,24.494-2.349,35.935-4.406,13.265-16.7,22.947-30.177,26.656S53.125,66.932,39.732,62.93A122.394,122.394,0,0,1-36.479-4.835a122.393,122.393,0,0,1,2.947-101.939c17.223-34.3,49.418-58.168,80.473-80.724l92.261-67.01c20.164-14.645,40.345-33.05,62.844-44.134,44.6-21.973,106.8,9.537,123.924,53.394C336.886-217.294,334.6-183.275,317.559-158.182Z" transform="translate(46.18 305.819)" fill="#ffb6b0"/>
        </g>
      </g>
      <g id="Grupo_92984" data-name="Grupo 92984" transform="translate(1565.259 6447.982) rotate(180)">
        <g id="Grupo_92986" data-name="Grupo 92986" transform="translate(341.645 226.063)">
          <g id="Grupo_92984-2" data-name="Grupo 92984" transform="translate(0 4.325)">
            <path id="Trazado_143290" data-name="Trazado 143290" d="M343.707,220.012h-8.65a1.331,1.331,0,0,1,0-2.662h8.65a1.331,1.331,0,0,1,0,2.662Z" transform="translate(-333.727 -217.35)" fill="#ff9e95"/>
          </g>
          <g id="Grupo_92985" data-name="Grupo 92985" transform="translate(4.324)">
            <path id="Trazado_143291" data-name="Trazado 143291" d="M339.077,224.641a1.331,1.331,0,0,1-1.33-1.332v-8.65a1.331,1.331,0,0,1,2.662,0v8.65A1.331,1.331,0,0,1,339.077,224.641Z" transform="translate(-337.747 -213.329)" fill="#ff9e95"/>
          </g>
        </g>
        <g id="Grupo_93001" data-name="Grupo 93001" transform="translate(499.326 73.189)" opacity="0.3">
          <g id="Grupo_92999" data-name="Grupo 92999" transform="translate(0 4.325)">
            <path id="Trazado_143300" data-name="Trazado 143300" d="M499.61,84.384h-8.65a1.331,1.331,0,0,1,0-2.662h8.65a1.331,1.331,0,0,1,0,2.662Z" transform="translate(-489.63 -81.722)" fill="#ff9e95"/>
          </g>
          <g id="Grupo_93000" data-name="Grupo 93000" transform="translate(4.324)">
            <path id="Trazado_143301" data-name="Trazado 143301" d="M494.981,89.013a1.331,1.331,0,0,1-1.331-1.332v-8.65a1.331,1.331,0,0,1,2.662,0v8.65A1.331,1.331,0,0,1,494.981,89.013Z" transform="translate(-493.65 -77.701)" fill="#ff9e95"/>
          </g>
        </g>
        <g id="Grupo_93004" data-name="Grupo 93004" transform="translate(391.514 270.558)">
          <g id="Grupo_93002" data-name="Grupo 93002" transform="translate(0 3.047)">
            <path id="Trazado_143302" data-name="Trazado 143302" d="M433.613,239.882h-6.094a.937.937,0,1,1,0-1.875h6.094a.937.937,0,1,1,0,1.875Z" transform="translate(-426.581 -238.007)" fill="#ff9e95"/>
          </g>
          <g id="Grupo_93003" data-name="Grupo 93003" transform="translate(3.047)">
            <path id="Trazado_143303" data-name="Trazado 143303" d="M430.352,243.143a.938.938,0,0,1-.938-.937v-6.1a.938.938,0,0,1,1.876,0v6.1A.937.937,0,0,1,430.352,243.143Z" transform="translate(-429.414 -235.174)" fill="#ff9e95"/>
          </g>
        </g>
        <g id="Grupo_93007" data-name="Grupo 93007" transform="translate(594.494 44.772)" opacity="0.3">
          <g id="Grupo_93005" data-name="Grupo 93005" transform="translate(0 2.163)">
            <path id="Trazado_143304" data-name="Trazado 143304" d="M573.808,48.113h-4.325a.665.665,0,1,1,0-1.33h4.325a.665.665,0,1,1,0,1.33Z" transform="translate(-568.816 -46.783)" fill="#ff9e95"/>
          </g>
          <g id="Grupo_93006" data-name="Grupo 93006" transform="translate(2.163)">
            <path id="Trazado_143305" data-name="Trazado 143305" d="M571.493,50.428a.666.666,0,0,1-.666-.666V45.438a.666.666,0,1,1,1.331,0v4.325A.666.666,0,0,1,571.493,50.428Z" transform="translate(-570.827 -44.772)" fill="#ff9e95"/>
          </g>
        </g>
        <g id="Grupo_93008" data-name="Grupo 93008" transform="translate(452.044 64.525)">
          <path id="Trazado_143306" data-name="Trazado 143306" d="M451.821,81.949a6.152,6.152,0,1,1,6.15-6.151A6.158,6.158,0,0,1,451.821,81.949Zm0-10.031A3.879,3.879,0,1,0,455.7,75.8,3.885,3.885,0,0,0,451.821,71.919Z" transform="translate(-445.669 -69.646)" fill="#ff9e95"/>
        </g>
        <g id="Grupo_93010" data-name="Grupo 93010" transform="translate(551.585 44.481)">
          <path id="Trazado_143308" data-name="Trazado 143308" d="M530.423,111.666a6.152,6.152,0,1,1,6.152-6.151A6.159,6.159,0,0,1,530.423,111.666Zm0-10.032a3.88,3.88,0,1,0,3.882,3.881A3.884,3.884,0,0,0,530.423,101.635Z" transform="translate(-524.272 -99.363)" fill="#ff9e95"/>
        </g>
        <g id="Grupo_93013" data-name="Grupo 93013" transform="translate(281.482 118.451)">
          <path id="Trazado_143311" data-name="Trazado 143311" d="M283.55,124.794a5.759,5.759,0,1,1,5.758-5.76A5.766,5.766,0,0,1,283.55,124.794Zm0-10.943a5.184,5.184,0,1,0,5.183,5.183A5.189,5.189,0,0,0,283.55,113.851Z" transform="translate(-277.79 -113.276)" fill="#ff9e95"/>
        </g>
        <g id="Grupo_93015" data-name="Grupo 93015" transform="translate(324.066 180.407)">
          <path id="Trazado_143313" data-name="Trazado 143313" d="M321.681,179.475a4.3,4.3,0,1,1,4.3-4.3A4.3,4.3,0,0,1,321.681,179.475Zm0-7.929a3.632,3.632,0,1,0,3.631,3.631A3.636,3.636,0,0,0,321.681,171.546Z" transform="translate(-317.383 -170.88)" fill="#ff9e95"/>
        </g>
        <g id="Grupo_93020" data-name="Grupo 93020" transform="translate(328.302 60.303)">
          <g id="Grupo_93017" data-name="Grupo 93017" transform="translate(31.08)">
            <path id="Trazado_143315" data-name="Trazado 143315" d="M350.757,60.906a.537.537,0,0,1-.173-1.047c.693-.237,1.4-.448,2.1-.629a.538.538,0,0,1,.269,1.041c-.673.174-1.354.378-2.022.606A.514.514,0,0,1,350.757,60.906Z" transform="translate(-350.218 -59.212)" fill="#ff9e95"/>
          </g>
          <g id="Grupo_93018" data-name="Grupo 93018" transform="translate(0 2.312)">
            <path id="Trazado_143316" data-name="Trazado 143316" d="M344.026,163.8h-.045a22.288,22.288,0,0,1-4.339-.807.538.538,0,1,1,.3-1.034,21.112,21.112,0,0,0,4.127.768.538.538,0,0,1-.043,1.073Zm-8.243-2.36a.536.536,0,0,1-.241-.057,25.908,25.908,0,0,1-3.753-2.3.537.537,0,1,1,.637-.866,24.8,24.8,0,0,0,3.6,2.2.538.538,0,0,1-.24,1.02Zm-6.922-5.082a.536.536,0,0,1-.386-.163,25.617,25.617,0,0,1-2.78-3.411.537.537,0,1,1,.888-.6,24.475,24.475,0,0,0,2.664,3.265.539.539,0,0,1-.386.913Zm-4.811-7.1a.539.539,0,0,1-.492-.32c-.095-.213-.184-.427-.27-.642a26.472,26.472,0,0,1-1.139-3.528.538.538,0,0,1,1.044-.258,25.362,25.362,0,0,0,1.093,3.385q.123.307.255.608a.538.538,0,0,1-.492.756Zm-2.082-8.332a.537.537,0,0,1-.535-.492c-.074-.848-.112-1.718-.112-2.587q0-.9.053-1.8a.538.538,0,0,1,1.073.062c-.033.579-.052,1.158-.051,1.736,0,.839.035,1.678.108,2.5a.538.538,0,0,1-.489.582Zm.485-8.584a.5.5,0,0,1-.1-.011.538.538,0,0,1-.425-.63,34.912,34.912,0,0,1,1.109-4.235.537.537,0,1,1,1.021.337,33.845,33.845,0,0,0-1.073,4.1A.539.539,0,0,1,322.452,132.338Zm2.689-8.174a.536.536,0,0,1-.486-.767,35.917,35.917,0,0,1,2.1-3.836.537.537,0,1,1,.91.572,35.25,35.25,0,0,0-2.039,3.724A.537.537,0,0,1,325.141,124.164Zm4.584-7.28a.538.538,0,0,1-.417-.878,40.9,40.9,0,0,1,2.938-3.232.538.538,0,1,1,.757.766,39.522,39.522,0,0,0-2.862,3.146A.536.536,0,0,1,329.725,116.884Zm22.491-3.105q-.6,0-1.206-.02a.539.539,0,0,1-.519-.555.55.55,0,0,1,.557-.519c1.076.035,2.156.019,3.229-.033q.507-.024,1.022-.065a.549.549,0,0,1,.577.495.536.536,0,0,1-.495.578c-.352.028-.7.049-1.051.067C353.627,113.759,352.922,113.779,352.216,113.779Zm-5.466-.5a.532.532,0,0,1-.109-.011,18.845,18.845,0,0,1-3.749-1.166c-.156-.069-.309-.139-.461-.211a.537.537,0,1,1,.458-.972c.144.068.289.133.433.2a17.775,17.775,0,0,0,3.533,1.1.537.537,0,0,1-.105,1.064Zm12.838-.325a.538.538,0,0,1-.145-1.055,10.983,10.983,0,0,0,3.692-1.754.538.538,0,0,1,.647.859,12.232,12.232,0,0,1-4.048,1.93A.528.528,0,0,1,359.588,112.954Zm-23.745-2.129a.537.537,0,0,1-.337-.956c.639-.516,1.3-1.021,1.981-1.51a20.315,20.315,0,0,1-1.812-2.1.538.538,0,0,1,.862-.645,19.005,19.005,0,0,0,1.844,2.12q.319-.219.644-.436a.538.538,0,1,1,.595.9c-.144.1-.289.194-.431.29.069.061.139.122.209.181a.538.538,0,1,1-.694.822c-.142-.12-.283-.244-.424-.369q-1.081.773-2.1,1.592A.532.532,0,0,1,335.843,110.825ZM366,107.712a.559.559,0,0,1-.18-.031.538.538,0,0,1-.327-.686,6.984,6.984,0,0,0,.4-2.3,5.809,5.809,0,0,0-.222-1.615.537.537,0,1,1,1.031-.3,6.826,6.826,0,0,1,.266,1.917,8.082,8.082,0,0,1-.461,2.654A.538.538,0,0,1,366,107.712Zm-22.989-1.657a.538.538,0,0,1-.258-1.01c1.253-.685,2.565-1.337,3.9-1.937a.538.538,0,0,1,.441.981c-1.31.589-2.6,1.228-3.825,1.9A.545.545,0,0,1,343.014,106.054Zm-9.142-3.265a.539.539,0,0,1-.484-.3,26.368,26.368,0,0,1-1.575-4.108.538.538,0,1,1,1.034-.3,25.122,25.122,0,0,0,1.509,3.939.538.538,0,0,1-.484.772Zm17-.275a.538.538,0,0,1-.184-1.043c1.347-.49,2.737-.944,4.134-1.35a.538.538,0,0,1,.3,1.034c-1.375.4-2.743.844-4.067,1.327A.552.552,0,0,1,350.869,102.514Zm12.542-2.134a.555.555,0,0,1-.2-.038,7.326,7.326,0,0,0-3.969-.2.538.538,0,0,1-.176-1.06,8.335,8.335,0,0,1,4.539.261.538.538,0,0,1-.2,1.039Zm-31.949-5.835a.538.538,0,0,1-.532-.472q-.047-.379-.083-.758c-.085-.892-.128-1.809-.128-2.723,0-.3,0-.6.014-.906a.538.538,0,0,1,1.076.035c-.01.29-.013.581-.014.872,0,.879.042,1.761.124,2.621.022.243.049.485.079.727a.537.537,0,0,1-.468.6A.463.463,0,0,1,331.462,94.545Zm.255-8.589a.477.477,0,0,1-.095-.009.537.537,0,0,1-.436-.623,32.2,32.2,0,0,1,1.059-4.253.538.538,0,0,1,1.024.33,30.965,30.965,0,0,0-1.024,4.11A.538.538,0,0,1,331.717,85.955Zm2.631-8.187a.526.526,0,0,1-.23-.053.538.538,0,0,1-.257-.716,34.98,34.98,0,0,1,2.124-3.828.538.538,0,1,1,.906.58,33.536,33.536,0,0,0-2.056,3.71A.54.54,0,0,1,334.348,77.768Zm4.636-7.247a.538.538,0,0,1-.413-.882,34.545,34.545,0,0,1,3.013-3.177.538.538,0,0,1,.731.788,33.521,33.521,0,0,0-2.918,3.078A.538.538,0,0,1,338.984,70.521Zm6.311-5.846a.538.538,0,0,1-.311-.977,31.549,31.549,0,0,1,3.745-2.279.538.538,0,0,1,.494.956,30.228,30.228,0,0,0-3.617,2.2A.535.535,0,0,1,345.295,64.676Z" transform="translate(-321.321 -61.361)" fill="#ff9e95"/>
          </g>
          <g id="Grupo_93019" data-name="Grupo 93019" transform="translate(26.563 103.134)">
            <path id="Trazado_143317" data-name="Trazado 143317" d="M346.556,156.6a.538.538,0,0,1-.075-1.07,18.673,18.673,0,0,0,2.047-.41.537.537,0,1,1,.271,1.04,19.646,19.646,0,0,1-2.166.435A.638.638,0,0,1,346.556,156.6Z" transform="translate(-346.018 -155.102)" fill="#ff9e95"/>
          </g>
        </g>
      </g>
      <g id="Grupo_105686" data-name="Grupo 105686" transform="translate(671.482 6760.982) rotate(180)">
        <g id="Grupo_92986-2" data-name="Grupo 92986" transform="translate(341.645 226.063)">
          <g id="Grupo_92984-3" data-name="Grupo 92984" transform="translate(0 4.325)">
            <path id="Trazado_143290-2" data-name="Trazado 143290" d="M343.707,220.012h-8.65a1.331,1.331,0,0,1,0-2.662h8.65a1.331,1.331,0,0,1,0,2.662Z" transform="translate(-333.727 -217.35)" fill="#ff9e95"/>
          </g>
          <g id="Grupo_92985-2" data-name="Grupo 92985" transform="translate(4.324)">
            <path id="Trazado_143291-2" data-name="Trazado 143291" d="M339.077,224.641a1.331,1.331,0,0,1-1.33-1.332v-8.65a1.331,1.331,0,0,1,2.662,0v8.65A1.331,1.331,0,0,1,339.077,224.641Z" transform="translate(-337.747 -213.329)" fill="#ff9e95"/>
          </g>
        </g>
        <g id="Grupo_93001-2" data-name="Grupo 93001" transform="translate(499.326 73.189)" opacity="0.3">
          <g id="Grupo_92999-2" data-name="Grupo 92999" transform="translate(0 4.325)">
            <path id="Trazado_143300-2" data-name="Trazado 143300" d="M499.61,84.384h-8.65a1.331,1.331,0,0,1,0-2.662h8.65a1.331,1.331,0,0,1,0,2.662Z" transform="translate(-489.63 -81.722)" fill="#ff9e95"/>
          </g>
          <g id="Grupo_93000-2" data-name="Grupo 93000" transform="translate(4.324)">
            <path id="Trazado_143301-2" data-name="Trazado 143301" d="M494.981,89.013a1.331,1.331,0,0,1-1.331-1.332v-8.65a1.331,1.331,0,0,1,2.662,0v8.65A1.331,1.331,0,0,1,494.981,89.013Z" transform="translate(-493.65 -77.701)" fill="#ff9e95"/>
          </g>
        </g>
        <g id="Grupo_93004-2" data-name="Grupo 93004" transform="translate(391.514 270.558)">
          <g id="Grupo_93002-2" data-name="Grupo 93002" transform="translate(0 3.047)">
            <path id="Trazado_143302-2" data-name="Trazado 143302" d="M433.613,239.882h-6.094a.937.937,0,1,1,0-1.875h6.094a.937.937,0,1,1,0,1.875Z" transform="translate(-426.581 -238.007)" fill="#ff9e95"/>
          </g>
          <g id="Grupo_93003-2" data-name="Grupo 93003" transform="translate(3.047)">
            <path id="Trazado_143303-2" data-name="Trazado 143303" d="M430.352,243.143a.938.938,0,0,1-.938-.937v-6.1a.938.938,0,0,1,1.876,0v6.1A.937.937,0,0,1,430.352,243.143Z" transform="translate(-429.414 -235.174)" fill="#ff9e95"/>
          </g>
        </g>
        <g id="Grupo_93007-2" data-name="Grupo 93007" transform="translate(594.494 44.772)" opacity="0.3">
          <g id="Grupo_93005-2" data-name="Grupo 93005" transform="translate(0 2.163)">
            <path id="Trazado_143304-2" data-name="Trazado 143304" d="M573.808,48.113h-4.325a.665.665,0,1,1,0-1.33h4.325a.665.665,0,1,1,0,1.33Z" transform="translate(-568.816 -46.783)" fill="#ff9e95"/>
          </g>
          <g id="Grupo_93006-2" data-name="Grupo 93006" transform="translate(2.163)">
            <path id="Trazado_143305-2" data-name="Trazado 143305" d="M571.493,50.428a.666.666,0,0,1-.666-.666V45.438a.666.666,0,1,1,1.331,0v4.325A.666.666,0,0,1,571.493,50.428Z" transform="translate(-570.827 -44.772)" fill="#ff9e95"/>
          </g>
        </g>
        <g id="Grupo_93008-2" data-name="Grupo 93008" transform="translate(452.044 64.525)">
          <path id="Trazado_143306-2" data-name="Trazado 143306" d="M451.821,81.949a6.152,6.152,0,1,1,6.15-6.151A6.158,6.158,0,0,1,451.821,81.949Zm0-10.031A3.879,3.879,0,1,0,455.7,75.8,3.885,3.885,0,0,0,451.821,71.919Z" transform="translate(-445.669 -69.646)" fill="#ff9e95"/>
        </g>
        <g id="Grupo_93010-2" data-name="Grupo 93010" transform="translate(551.585 44.481)">
          <path id="Trazado_143308-2" data-name="Trazado 143308" d="M530.423,111.666a6.152,6.152,0,1,1,6.152-6.151A6.159,6.159,0,0,1,530.423,111.666Zm0-10.032a3.88,3.88,0,1,0,3.882,3.881A3.884,3.884,0,0,0,530.423,101.635Z" transform="translate(-524.272 -99.363)" fill="#ff9e95"/>
        </g>
        <g id="Grupo_93013-2" data-name="Grupo 93013" transform="translate(281.482 118.451)">
          <path id="Trazado_143311-2" data-name="Trazado 143311" d="M283.55,124.794a5.759,5.759,0,1,1,5.758-5.76A5.766,5.766,0,0,1,283.55,124.794Zm0-10.943a5.184,5.184,0,1,0,5.183,5.183A5.189,5.189,0,0,0,283.55,113.851Z" transform="translate(-277.79 -113.276)" fill="#ff9e95"/>
        </g>
        <g id="Grupo_93015-2" data-name="Grupo 93015" transform="translate(324.066 180.407)">
          <path id="Trazado_143313-2" data-name="Trazado 143313" d="M321.681,179.475a4.3,4.3,0,1,1,4.3-4.3A4.3,4.3,0,0,1,321.681,179.475Zm0-7.929a3.632,3.632,0,1,0,3.631,3.631A3.636,3.636,0,0,0,321.681,171.546Z" transform="translate(-317.383 -170.88)" fill="#ff9e95"/>
        </g>
        <g id="Grupo_93020-2" data-name="Grupo 93020" transform="translate(328.302 60.303)">
          <g id="Grupo_93017-2" data-name="Grupo 93017" transform="translate(31.08)">
            <path id="Trazado_143315-2" data-name="Trazado 143315" d="M350.757,60.906a.537.537,0,0,1-.173-1.047c.693-.237,1.4-.448,2.1-.629a.538.538,0,0,1,.269,1.041c-.673.174-1.354.378-2.022.606A.514.514,0,0,1,350.757,60.906Z" transform="translate(-350.218 -59.212)" fill="#ff9e95"/>
          </g>
          <g id="Grupo_93018-2" data-name="Grupo 93018" transform="translate(0 2.312)">
            <path id="Trazado_143316-2" data-name="Trazado 143316" d="M344.026,163.8h-.045a22.288,22.288,0,0,1-4.339-.807.538.538,0,1,1,.3-1.034,21.112,21.112,0,0,0,4.127.768.538.538,0,0,1-.043,1.073Zm-8.243-2.36a.536.536,0,0,1-.241-.057,25.908,25.908,0,0,1-3.753-2.3.537.537,0,1,1,.637-.866,24.8,24.8,0,0,0,3.6,2.2.538.538,0,0,1-.24,1.02Zm-6.922-5.082a.536.536,0,0,1-.386-.163,25.617,25.617,0,0,1-2.78-3.411.537.537,0,1,1,.888-.6,24.475,24.475,0,0,0,2.664,3.265.539.539,0,0,1-.386.913Zm-4.811-7.1a.539.539,0,0,1-.492-.32c-.095-.213-.184-.427-.27-.642a26.472,26.472,0,0,1-1.139-3.528.538.538,0,0,1,1.044-.258,25.362,25.362,0,0,0,1.093,3.385q.123.307.255.608a.538.538,0,0,1-.492.756Zm-2.082-8.332a.537.537,0,0,1-.535-.492c-.074-.848-.112-1.718-.112-2.587q0-.9.053-1.8a.538.538,0,0,1,1.073.062c-.033.579-.052,1.158-.051,1.736,0,.839.035,1.678.108,2.5a.538.538,0,0,1-.489.582Zm.485-8.584a.5.5,0,0,1-.1-.011.538.538,0,0,1-.425-.63,34.912,34.912,0,0,1,1.109-4.235.537.537,0,1,1,1.021.337,33.845,33.845,0,0,0-1.073,4.1A.539.539,0,0,1,322.452,132.338Zm2.689-8.174a.536.536,0,0,1-.486-.767,35.917,35.917,0,0,1,2.1-3.836.537.537,0,1,1,.91.572,35.25,35.25,0,0,0-2.039,3.724A.537.537,0,0,1,325.141,124.164Zm4.584-7.28a.538.538,0,0,1-.417-.878,40.9,40.9,0,0,1,2.938-3.232.538.538,0,1,1,.757.766,39.522,39.522,0,0,0-2.862,3.146A.536.536,0,0,1,329.725,116.884Zm22.491-3.105q-.6,0-1.206-.02a.539.539,0,0,1-.519-.555.55.55,0,0,1,.557-.519c1.076.035,2.156.019,3.229-.033q.507-.024,1.022-.065a.549.549,0,0,1,.577.495.536.536,0,0,1-.495.578c-.352.028-.7.049-1.051.067C353.627,113.759,352.922,113.779,352.216,113.779Zm-5.466-.5a.532.532,0,0,1-.109-.011,18.845,18.845,0,0,1-3.749-1.166c-.156-.069-.309-.139-.461-.211a.537.537,0,1,1,.458-.972c.144.068.289.133.433.2a17.775,17.775,0,0,0,3.533,1.1.537.537,0,0,1-.105,1.064Zm12.838-.325a.538.538,0,0,1-.145-1.055,10.983,10.983,0,0,0,3.692-1.754.538.538,0,0,1,.647.859,12.232,12.232,0,0,1-4.048,1.93A.528.528,0,0,1,359.588,112.954Zm-23.745-2.129a.537.537,0,0,1-.337-.956c.639-.516,1.3-1.021,1.981-1.51a20.315,20.315,0,0,1-1.812-2.1.538.538,0,0,1,.862-.645,19.005,19.005,0,0,0,1.844,2.12q.319-.219.644-.436a.538.538,0,1,1,.595.9c-.144.1-.289.194-.431.29.069.061.139.122.209.181a.538.538,0,1,1-.694.822c-.142-.12-.283-.244-.424-.369q-1.081.773-2.1,1.592A.532.532,0,0,1,335.843,110.825ZM366,107.712a.559.559,0,0,1-.18-.031.538.538,0,0,1-.327-.686,6.984,6.984,0,0,0,.4-2.3,5.809,5.809,0,0,0-.222-1.615.537.537,0,1,1,1.031-.3,6.826,6.826,0,0,1,.266,1.917,8.082,8.082,0,0,1-.461,2.654A.538.538,0,0,1,366,107.712Zm-22.989-1.657a.538.538,0,0,1-.258-1.01c1.253-.685,2.565-1.337,3.9-1.937a.538.538,0,0,1,.441.981c-1.31.589-2.6,1.228-3.825,1.9A.545.545,0,0,1,343.014,106.054Zm-9.142-3.265a.539.539,0,0,1-.484-.3,26.368,26.368,0,0,1-1.575-4.108.538.538,0,1,1,1.034-.3,25.122,25.122,0,0,0,1.509,3.939.538.538,0,0,1-.484.772Zm17-.275a.538.538,0,0,1-.184-1.043c1.347-.49,2.737-.944,4.134-1.35a.538.538,0,0,1,.3,1.034c-1.375.4-2.743.844-4.067,1.327A.552.552,0,0,1,350.869,102.514Zm12.542-2.134a.555.555,0,0,1-.2-.038,7.326,7.326,0,0,0-3.969-.2.538.538,0,0,1-.176-1.06,8.335,8.335,0,0,1,4.539.261.538.538,0,0,1-.2,1.039Zm-31.949-5.835a.538.538,0,0,1-.532-.472q-.047-.379-.083-.758c-.085-.892-.128-1.809-.128-2.723,0-.3,0-.6.014-.906a.538.538,0,0,1,1.076.035c-.01.29-.013.581-.014.872,0,.879.042,1.761.124,2.621.022.243.049.485.079.727a.537.537,0,0,1-.468.6A.463.463,0,0,1,331.462,94.545Zm.255-8.589a.477.477,0,0,1-.095-.009.537.537,0,0,1-.436-.623,32.2,32.2,0,0,1,1.059-4.253.538.538,0,0,1,1.024.33,30.965,30.965,0,0,0-1.024,4.11A.538.538,0,0,1,331.717,85.955Zm2.631-8.187a.526.526,0,0,1-.23-.053.538.538,0,0,1-.257-.716,34.98,34.98,0,0,1,2.124-3.828.538.538,0,1,1,.906.58,33.536,33.536,0,0,0-2.056,3.71A.54.54,0,0,1,334.348,77.768Zm4.636-7.247a.538.538,0,0,1-.413-.882,34.545,34.545,0,0,1,3.013-3.177.538.538,0,0,1,.731.788,33.521,33.521,0,0,0-2.918,3.078A.538.538,0,0,1,338.984,70.521Zm6.311-5.846a.538.538,0,0,1-.311-.977,31.549,31.549,0,0,1,3.745-2.279.538.538,0,0,1,.494.956,30.228,30.228,0,0,0-3.617,2.2A.535.535,0,0,1,345.295,64.676Z" transform="translate(-321.321 -61.361)" fill="#ff9e95"/>
          </g>
          <g id="Grupo_93019-2" data-name="Grupo 93019" transform="translate(26.563 103.134)">
            <path id="Trazado_143317-2" data-name="Trazado 143317" d="M346.556,156.6a.538.538,0,0,1-.075-1.07,18.673,18.673,0,0,0,2.047-.41.537.537,0,1,1,.271,1.04,19.646,19.646,0,0,1-2.166.435A.638.638,0,0,1,346.556,156.6Z" transform="translate(-346.018 -155.102)" fill="#ff9e95"/>
          </g>
        </g>
      </g>
    </g>
  </g>
</svg>
