<?xml version="1.0" encoding="utf-8"?>
<!-- Generator: Adobe Illustrator 26.2.1, SVG Export Plug-In . SVG Version: 6.00 Build 0)  -->
<svg version="1.1" id="Capa_1" xmlns="http://www.w3.org/2000/svg" xmlns:xlink="http://www.w3.org/1999/xlink" x="0px" y="0px"
	 viewBox="0 0 76.7 71.4" style="enable-background:new 0 0 76.7 71.4;" xml:space="preserve">
<style type="text/css">
	.st0{fill:#969FAA;}
	.st1{fill:#69D6F4;}
	.st2{fill:#FF826E;}
	.st3{fill:#D3A06C;}
	.st4{fill:#B27946;}
	.st5{fill:#E6E9ED;}
	.st6{fill:#B4DD7F;}
	.st7{fill:#F0D0B4;}
</style>
<g id="Enmascarar_grupo_211">
	<g id="sistema-de-gestion-de-contenidos" transform="translate(607.919 1211.919)">
		<g id="Grupo_108904">
			<g id="Grupo_108892">
				<path id="Trazado_157622" class="st0" d="M-555.4-1207.7h-34.5c-2.4,0-4.3,1.9-4.3,4.3l0,0v43.4c0,1.1,0.9,2,2,2
					c0.8,0,1.5-0.4,1.8-1.1c0.2-0.4,0.4-0.7,0.5-1.1v-38.9h34.6v20.7c0-1.3,1-2.3,2.3-2.3c0.6,0,1.2,0.2,1.6,0.7l0.4,0.4v-23.8
					C-551-1205.8-553-1207.7-555.4-1207.7C-555.3-1207.7-555.4-1207.7-555.4-1207.7z"/>
			</g>
			<g id="Grupo_108893">
				<path id="Trazado_157623" class="st0" d="M-552.1-1153.7l-5.1-0.7c-1.6-0.2-3.1-0.9-4.3-1.9l-2.2-1.8c-1.3-1.1-2.9-1.7-4.6-1.9
					l-1.1-0.1c-1.2,0-2.1-1-2.1-2.1c0-0.7,0.4-1.4,0.9-1.8l0.4-0.3c0.1-0.1,0.2-0.1,0.3-0.2h-12l0.5,6.9c0,0.5,0.1,1,0.1,1.4
					c0,1.6-0.2,3.2-0.6,4.7h33.4L-552.1-1153.7z"/>
			</g>
			<g id="Grupo_108894">
				<path id="Trazado_157624" class="st1" d="M-555.4-1199.1h-34.5v38.8c0.8-1.8,1.5-3.7,2-5.6l0.8-3.2c0.3-1.1,1.3-1.9,2.5-1.9
					c1.3,0,2.4,1,2.5,2.3l0.3,4.2h26.5L-555.4-1199.1L-555.4-1199.1z"/>
			</g>
			<g id="Grupo_108895">
				<path id="Trazado_157625" class="st2" d="M-568.3-1171v2.2h-4.3v-4.3h2.2L-568.3-1171z"/>
			</g>
			<g id="Grupo_108896">
				<path id="Trazado_157626" class="st2" d="M-581.3-1173.2h4.3v4.3h-4.3V-1173.2z"/>
			</g>
			<g id="Grupo_108897">
				<path id="Trazado_157627" class="st3" d="M-585.6-1194.8h13v13h-13V-1194.8z"/>
			</g>
			<g id="Grupo_108898">
				<path id="Trazado_157628" class="st4" d="M-581.3-1194.8h4.3v4.3h-4.3V-1194.8z"/>
			</g>
			<g id="Grupo_108899">
				<path id="Trazado_157629" class="st5" d="M-568.3-1160.1v4.3h-8.6v-4.3h7.7C-569-1160.2-568.6-1160.2-568.3-1160.1z"/>
			</g>
			<g id="Grupo_108900">
				<path id="Trazado_157630" class="st6" d="M-535.9-1162.4v18.4l-12.6-7.6l-3.6-2.2l11.9-11.9L-535.9-1162.4z"/>
			</g>
			<g id="Grupo_108901">
				<path id="Trazado_157631" class="st6" d="M-596.4-1147.2h13v4.3h-13V-1147.2z"/>
			</g>
			<g id="Grupo_108902">
				<path id="Trazado_157632" class="st7" d="M-554.7-1176.8c-0.9-0.9-0.9-2.3,0-3.2s2.3-0.9,3.2,0l0.4,0.4l7.4,7.4
					c0.8,0.8,1.5,1.8,1.9,2.9l1.5,3.8l-11.9,11.9l-5.1-0.7c-1.6-0.2-3.1-0.9-4.3-1.9l-2.2-1.8c-1.3-1.1-2.9-1.7-4.6-1.9v-0.1h-1.1
					c-1.2,0-2.1-1-2.1-2.1c0-0.7,0.4-1.4,0.9-1.8l0.4-0.3c0.1-0.1,0.2-0.1,0.3-0.2c3-1.8,6.8-1.3,9.2,1.1l-7.6-7.6l-2.2-2.2
					l-4.3-4.3l-0.4-0.4c-0.9-0.9-0.9-2.3,0-3.2c0.9-0.9,2.3-0.9,3.2,0l8.6,8.6c-0.9-0.9-0.9-2.3,0-3.2c0.9-0.9,2.3-0.9,3.2,0
					c-0.9-0.9-0.9-2.3,0-3.2s2.3-0.9,3.2,0L-554.7-1176.8z"/>
			</g>
			<g id="Grupo_108903">
				<path id="Trazado_157633" class="st7" d="M-581.3-1157.7c0,0.5,0.1,1,0.1,1.4c0,1.6-0.2,3.2-0.6,4.7c-0.2,0.8-0.4,1.5-0.7,2.3
					l-0.8,2.1h-13v-0.2l-1.4-3.5c-0.5-1.2-0.9-2.5-1.1-3.9l-1.7-10.1c-0.6-3.5,0.5-7,3-9.5l3.3-3.3v17.6c0,1.1,0.9,2,2,2
					c0.8,0,1.5-0.4,1.8-1.1c0.2-0.4,0.4-0.7,0.5-1.1l0,0c0.8-1.8,1.5-3.7,2-5.6l0.8-3.2c0.3-1.1,1.3-1.9,2.4-1.9
					c1.3,0,2.4,1,2.5,2.3l0.3,4.2L-581.3-1157.7z"/>
			</g>
		</g>
		<g id="Grupo_108905">
			<circle id="Elipse_4949" cx="-581.3" cy="-1203.4" r="1.1"/>
			<path id="Trazado_157634" d="M-578-1204.5h15.1v2.2H-578V-1204.5z"/>
			<path id="Trazado_157635" d="M-569.4-1195.9h10.8v2.2h-10.8V-1195.9z"/>
			<path id="Trazado_157636" d="M-560.8-1191.5h2.2v2.2h-2.2V-1191.5z"/>
			<path id="Trazado_157637" d="M-569.4-1191.5h6.5v2.2h-6.5V-1191.5z"/>
			<path id="Trazado_157638" d="M-569.4-1187.2h10.8v2.2h-10.8V-1187.2z"/>
			<path id="Trazado_157639" d="M-569.4-1182.9h10.8v2.2h-10.8V-1182.9z"/>
			<path id="Trazado_157640" d="M-534.8-1142.1v-20.8l-4.5-3.4l-1.4-3.5c-0.5-1.2-1.2-2.3-2.2-3.3l-7.1-7.1v-23.3
				c0-3-2.4-5.4-5.4-5.4h-34.5c-3,0-5.4,2.4-5.4,5.4v25.3l-3,3c-2.2,2.2-3.5,5.3-3.5,8.5c0,0.7,0.1,1.3,0.2,2l1.7,10.1
				c0.2,1.4,0.6,2.8,1.1,4.1l1.3,3.3v5.4h15.1v-5.2l0.7-1.9c0.2-0.5,0.4-1.1,0.5-1.6h32.3L-534.8-1142.1z M-537-1145.9l-13.4-8
				l10.2-10.2l3.1,2.4v15.8H-537z M-542.7-1168.9l1.2,3.1l-11,11l-4.6-0.7c-1.4-0.2-2.7-0.8-3.8-1.7l-2.2-1.8c-1.2-1-2.6-1.7-4.2-2
				v-0.2h-2.2c-0.6,0-1-0.5-1-1c0-0.3,0.2-0.7,0.5-0.9l0.4-0.3c2.6-1.7,6-1.4,8.1,0.8l1,1l1.5-1.5l-1-1l-14.5-14.5
				c-0.5-0.5-0.5-1.2,0-1.7s1.2-0.5,1.7,0l8.6,8.6l4.7,4.7l1.5-1.5l-4.7-4.7c-0.5-0.5-0.5-1.2,0-1.7c0.2-0.2,0.5-0.4,0.9-0.4
				c0.3,0,0.6,0.1,0.9,0.4l4.7,4.7l1.5-1.5l-4.7-4.7c-0.5-0.5-0.5-1.2,0-1.7s1.2-0.5,1.7,0l2.2,2.2l2.6,2.6l1.5-1.5l-2.6-2.6
				c-0.5-0.5-0.5-1.2,0-1.7s1.2-0.5,1.7,0l7.8,7.8C-543.7-1170.8-543.1-1169.9-542.7-1168.9L-542.7-1168.9z M-569.4-1159.1
				L-569.4-1159.1v2.2h-6.5v-2.2H-569.4z M-581-1167.8h5.1v-6.5h-6.5v3c-1.5-1.3-3.8-1.1-5.1,0.3c-0.4,0.4-0.6,0.9-0.8,1.5l-0.6,2.5
				v-31.2h32.4v18c-1.5-1.1-3.6-0.9-4.7,0.6c-0.4,0.6-0.7,1.2-0.7,1.9c-1.3,0-2.4,0.8-3,2l-6.4-6.4c-0.1-0.1-0.2-0.2-0.4-0.3v-13.7
				h-15.1v15.1h10c-0.3,0.7-0.3,1.5-0.1,2.2h-9.9v2.2h11.4l2.2,2.2h-0.6v6.5h6.5v-0.6l1.7,1.7c-0.2,0-0.4,0-0.5,0
				c-1.4,0-2.9,0.4-4.1,1.1h-10.7L-581-1167.8z M-580.2-1169.9v-2.2h2.2v2.2H-580.2z M-580.2-1193.7h2.2v2.2h-2.2V-1193.7z
				 M-575.9-1189.4v-4.3h2.2v10.8h-10.8v-10.8h2.2v4.3H-575.9z M-571.6-1172.1h0.6l1.5,1.5v0.6h-2.2L-571.6-1172.1z M-593.2-1203.4
				c0-1.8,1.5-3.2,3.2-3.2h34.6c1.8,0,3.2,1.5,3.2,3.2v21.8c-0.7-0.2-1.5-0.2-2.2,0.1v-18.6h-36.7v39.7c-0.1,0.3-0.3,0.6-0.4,0.9
				c-0.2,0.5-0.8,0.6-1.2,0.4c-0.3-0.2-0.5-0.5-0.5-0.8L-593.2-1203.4L-593.2-1203.4z M-584.5-1144h-10.8v-2.2h10.8V-1144z
				 M-583.6-1149.7l-0.6,1.4h-11.4l-1.2-3c-0.5-1.2-0.8-2.4-1-3.6l-1.7-10.1c-0.1-0.5-0.1-1.1-0.1-1.6c0-2.6,1-5.1,2.9-6.9l1.5-1.5
				v15c0,1.7,1.4,3.1,3.1,3.1c1.2,0,2.2-0.7,2.8-1.7c1.1-2.2,2-4.5,2.6-6.9l0.8-3.2c0.2-0.8,1-1.3,1.8-1.1c0.6,0.2,1,0.7,1.1,1.3
				l0.8,11c0,0.4,0.1,0.9,0.1,1.4C-582.4-1154-582.8-1151.8-583.6-1149.7L-583.6-1149.7z M-580.5-1152.6c0.2-1.2,0.3-2.4,0.3-3.6
				c0-0.5,0-1-0.1-1.5l-0.4-5.7h8.3c-0.1,0.4-0.2,0.7-0.2,1.1s0.1,0.7,0.2,1h-5.6v6.5h10.8v-4c1,0.3,2,0.8,2.8,1.4l2.2,1.8
				c1.4,1.2,3.1,1.9,4.9,2.2l4.9,0.7h0.1L-580.5-1152.6z"/>
		</g>
	</g>
</g>
</svg>
