<svg xmlns="http://www.w3.org/2000/svg" width="85" height="85" viewBox="0 0 85 85">
  <g id="Grupo_108902" data-name="Grupo 108902" transform="translate(-1125 -4807)">
    <circle id="Elipse_4521" data-name="Elipse 4521" cx="42.5" cy="42.5" r="42.5" transform="translate(1125 4807)" fill="#ff6d60"/>
    <g id="orden" transform="translate(1136.016 4818.016)">
      <path id="Trazado_155964" data-name="Trazado 155964" d="M1.968,1.968H41.323V53.129H1.968Z" fill="#c7e2fb"/>
      <path id="Trazado_155965" data-name="Trazado 155965" d="M1.968,43.278c.164,0,.327.013.492.013C21.206,43.29,36.4,27.873,36.4,8.855a35.123,35.123,0,0,0-.68-6.887H1.968Z" fill="#ebf7fe"/>
      <path id="Trazado_155966" data-name="Trazado 155966" d="M35.419,27.548H55.1V43.29H35.419Z" fill="#c18e5c"/>
      <path id="Trazado_155967" data-name="Trazado 155967" d="M35.419,27.548V40.224a18.034,18.034,0,0,0,1.968.115,17.7,17.7,0,0,0,17-12.79Z" fill="#cda57d"/>
      <path id="Trazado_155968" data-name="Trazado 155968" d="M39.355,43.29H61V61H39.355Z" fill="#c18e5c"/>
      <path id="Trazado_155969" data-name="Trazado 155969" d="M39.355,57.992c8.739-.6,16.155-6.462,19.593-14.7H39.355Z" fill="#cda57d"/>
      <g id="Grupo_108363" data-name="Grupo 108363">
        <path id="Trazado_155970" data-name="Trazado 155970" d="M5.9,5.9h7.871v7.871H5.9Z" fill="#4472b0"/>
        <path id="Trazado_155971" data-name="Trazado 155971" d="M5.9,17.71h7.871v7.871H5.9Z" fill="#4472b0"/>
        <path id="Trazado_155972" data-name="Trazado 155972" d="M5.9,29.516h7.871v7.871H5.9Z" fill="#4472b0"/>
        <path id="Trazado_155973" data-name="Trazado 155973" d="M5.9,41.323h7.871v7.871H5.9Z" fill="#4472b0"/>
      </g>
      <path id="Trazado_155974" data-name="Trazado 155974" d="M47.226,43.29h5.9v5.9h-5.9Z" fill="#fff"/>
      <path id="Trazado_155975" data-name="Trazado 155975" d="M17.71,43.29H39.355V61H17.71Z" fill="#c18e5c"/>
      <path id="Trazado_155976" data-name="Trazado 155976" d="M17.71,57.992c8.739-.6,16.155-6.462,19.593-14.7H17.71Z" fill="#cda57d"/>
      <path id="Trazado_155977" data-name="Trazado 155977" d="M25.581,43.29h5.9v5.9h-5.9Z" fill="#fff"/>
      <path id="Trazado_155978" data-name="Trazado 155978" d="M43.29,27.548h3.935v5.9H43.29Z" fill="#fff"/>
      <g id="Grupo_108364" data-name="Grupo 108364">
        <path id="Trazado_155979" data-name="Trazado 155979" d="M5.9,26.565h7.871a.984.984,0,0,0,.984-.984V17.71a.984.984,0,0,0-.984-.984H5.9a.984.984,0,0,0-.984.984v7.871A.984.984,0,0,0,5.9,26.565Zm.984-7.871h5.9v5.9h-5.9Z"/>
        <path id="Trazado_155980" data-name="Trazado 155980" d="M13.774,40.339H5.9a.984.984,0,0,0-.984.984v7.871a.984.984,0,0,0,.984.984h7.871a.984.984,0,0,0,.984-.984V41.323A.984.984,0,0,0,13.774,40.339ZM12.79,48.21h-5.9v-5.9h5.9Z"/>
        <path id="Trazado_155981" data-name="Trazado 155981" d="M16.726,6.887H38.371V8.855H16.726Z"/>
        <path id="Trazado_155982" data-name="Trazado 155982" d="M16.726,10.823H38.371V12.79H16.726Z"/>
        <path id="Trazado_155983" data-name="Trazado 155983" d="M16.726,18.694H38.371v1.968H16.726Z"/>
        <path id="Trazado_155984" data-name="Trazado 155984" d="M16.726,22.629H38.371V24.6H16.726Z"/>
        <path id="Trazado_155985" data-name="Trazado 155985" d="M13.367,4.919H5.9a.984.984,0,0,0-.984.984v7.871a.984.984,0,0,0,.984.984h7.871a.984.984,0,0,0,.984-.984V6.311l1.679-1.679L15.046,3.24ZM11.4,6.887,6.887,11.4V6.887Zm1.391,5.9H8.278L12.79,8.278Z"/>
        <path id="Trazado_155986" data-name="Trazado 155986" d="M15.046,26.853l-1.679,1.679H5.9a.984.984,0,0,0-.984.984v7.871a.984.984,0,0,0,.984.984h7.871a.984.984,0,0,0,.984-.984V29.923l1.679-1.679ZM11.4,30.5,6.887,35.012V30.5Zm1.391,5.9H8.278l4.512-4.512Z"/>
        <path id="Trazado_155987" data-name="Trazado 155987" d="M61,61.984A.984.984,0,0,0,61.984,61V43.29A.984.984,0,0,0,61,42.306H56.081V27.548a.984.984,0,0,0-.984-.984H42.306V1.968a.984.984,0,0,0-.984-.984H1.968a.984.984,0,0,0-.984.984V53.129a.984.984,0,0,0,.984.984H16.726V61a.984.984,0,0,0,.984.984ZM48.21,44.274h3.935V48.21H48.21ZM36.4,42.306V28.532h5.9v4.919a.984.984,0,0,0,.984.984h3.935a.984.984,0,0,0,.984-.984V28.532h5.9V42.306Zm7.871-13.774h1.968v3.935H44.274ZM16.726,43.29v8.855H2.952V2.952H40.339V26.565H35.419a.984.984,0,0,0-.984.984V30.5H16.726v1.968h17.71v1.968H16.726V36.4h17.71v5.9H17.71A.984.984,0,0,0,16.726,43.29Zm9.839.984H30.5V48.21H26.565Zm-7.871,0h5.9v4.919a.984.984,0,0,0,.984.984h5.9a.984.984,0,0,0,.984-.984V44.274h5.9V60.016H18.694ZM60.016,60.016H40.339V44.274h5.9v4.919a.984.984,0,0,0,.984.984h5.9a.984.984,0,0,0,.984-.984V44.274h5.9Z"/>
        <path id="Trazado_155988" data-name="Trazado 155988" d="M54.113,56.081h3.935v1.968H54.113Z"/>
        <path id="Trazado_155989" data-name="Trazado 155989" d="M48.21,38.371h3.935v1.968H48.21Z"/>
        <path id="Trazado_155990" data-name="Trazado 155990" d="M54.113,52.145h3.935v1.968H54.113Z"/>
        <path id="Trazado_155991" data-name="Trazado 155991" d="M32.468,56.081H36.4v1.968H32.468Z"/>
        <path id="Trazado_155992" data-name="Trazado 155992" d="M32.468,52.145H36.4v1.968H32.468Z"/>
      </g>
    </g>
  </g>
</svg>
