<svg xmlns="http://www.w3.org/2000/svg" width="67" height="50.02" viewBox="0 0 67 50.02">
  <g id="apoyo-de-equipo" transform="translate(0 -0.066)">
    <path id="Trazado_155871" data-name="Trazado 155871" d="M50.015,18.664l-.041-.052A1.837,1.837,0,0,0,48,18L33.344,26.768a2.406,2.406,0,0,0,3.406,1.643l6.178-3.022-.991,4.95,6.063.7,2.813-7.6a5,5,0,0,0-.8-4.777Zm0,0" fill="#fdb659"/>
    <path id="Trazado_155872" data-name="Trazado 155872" d="M49.369,19.772a1.836,1.836,0,0,1,1.36.117,4.99,4.99,0,0,0-.714-1.224l-.041-.052A1.838,1.838,0,0,0,48,18L33.344,26.768a2.4,2.4,0,0,0,1.464,1.718Zm0,0" fill="#fd9e28"/>
    <path id="Trazado_155873" data-name="Trazado 155873" d="M41.937,30.339l-1.686,8.169a1.774,1.774,0,0,1-.584.99l-4.8,4.111a.434.434,0,0,0,.006.664l1.249,1.03a.545.545,0,0,0,.619.053L42.59,42a3.16,3.16,0,0,0,1.477-1.268L48,31.04Zm0,0" fill="#38627c"/>
    <path id="Trazado_155874" data-name="Trazado 155874" d="M41.937,30.339l-.095.42a6.3,6.3,0,0,0,3.005,6.847l3.518,2.022A2.269,2.269,0,0,1,49.5,41.8l-.378,4.152a.169.169,0,0,0,.168.184h2.353a.168.168,0,0,0,.164-.13l1.465-6.251a1.791,1.791,0,0,0-.166-1.517L48,31.04Zm0,0" fill="#4f7693"/>
    <path id="Trazado_155875" data-name="Trazado 155875" d="M55.615,19.5l-2.08,1.2a2.044,2.044,0,0,1-2.792-.748l-.475-.823a2.044,2.044,0,0,1,.748-2.792l2.08-1.2a2.044,2.044,0,0,1,2.793.748l.475.823A2.044,2.044,0,0,1,55.615,19.5Zm0,0" fill="#fedfc5"/>
    <path id="Trazado_155876" data-name="Trazado 155876" d="M19.73,18.664l-.041-.052A1.837,1.837,0,0,0,17.715,18L3.058,26.768a2.406,2.406,0,0,0,3.406,1.643l6.179-3.022-.991,4.95,6.063.7,2.813-7.6a5,5,0,0,0-.8-4.777Zm0,0" fill="#83d9ff"/>
    <path id="Trazado_155877" data-name="Trazado 155877" d="M4.427,28.258l14.656-8.771a1.837,1.837,0,0,1,1.2.044,5.017,5.017,0,0,0-.552-.868l-.041-.052A1.837,1.837,0,0,0,17.715,18L3.058,26.768a2.394,2.394,0,0,0,1.427,1.7c-.022-.07-.042-.14-.058-.213Zm0,0" fill="#43a3f9"/>
    <path id="Trazado_155878" data-name="Trazado 155878" d="M11.652,30.339,9.966,38.507a1.774,1.774,0,0,1-.585.99l-4.8,4.111a.434.434,0,0,0,.006.664L5.833,45.3a.544.544,0,0,0,.618.053L12.3,42a3.159,3.159,0,0,0,1.478-1.268l3.933-9.694Zm0,0" fill="#38627c"/>
    <path id="Trazado_155879" data-name="Trazado 155879" d="M11.652,30.339l-.095.42a6.3,6.3,0,0,0,3.005,6.847l3.518,2.022A2.269,2.269,0,0,1,19.209,41.8l-.377,4.152a.168.168,0,0,0,.168.184h2.353a.168.168,0,0,0,.164-.13l1.465-6.251a1.788,1.788,0,0,0-.166-1.517l-5.1-7.2Zm0,0" fill="#4f7693"/>
    <path id="Trazado_155880" data-name="Trazado 155880" d="M25.33,19.5l-2.08,1.2a2.044,2.044,0,0,1-2.793-.748l-.475-.823a2.044,2.044,0,0,1,.748-2.792l2.08-1.2a2.044,2.044,0,0,1,2.793.748l.475.823A2.044,2.044,0,0,1,25.33,19.5Zm0,0" fill="#fedfc5"/>
    <path id="Trazado_155881" data-name="Trazado 155881" d="M1.532,27.677l25.98-15.484a.821.821,0,0,1,1.114.267L36.48,24.891,58.726,11.917a.291.291,0,0,1,.383.083l3.6,5.074A.437.437,0,0,0,63.5,16.9L66.012,3.265a.437.437,0,0,0-.376-.513l-13.572-1.7a.437.437,0,0,0-.409.689l3.569,4.977a.29.29,0,0,1-.088.419l-15.672,9.3a.255.255,0,0,1-.352-.093L30.794,1.819a.832.832,0,0,0-1.277-.206L1.1,27.095a.363.363,0,0,0,.428.583Zm0,0" fill="#69d998"/>
    <path id="Trazado_155882" data-name="Trazado 155882" d="M63.619,13.218l-3.6-5.074a.291.291,0,0,0-.383-.083L41.17,18.831a4.535,4.535,0,0,1-6.118-1.5L29.536,8.6a.821.821,0,0,0-1.114-.267L9.335,19.713,1.1,27.095a.363.363,0,0,0,.428.583l25.98-15.484a.821.821,0,0,1,1.114.267L36.48,24.891,58.726,11.917a.291.291,0,0,1,.383.083l3.6,5.074A.437.437,0,0,0,63.5,16.9l.652-3.535a.432.432,0,0,1-.529-.148Zm0,0" fill="#3dc5a1"/>
    <path id="Trazado_155883" data-name="Trazado 155883" d="M53.027,48.123H49.118a.981.981,0,1,0,0,1.963h3.909a.981.981,0,0,0,0-1.963Zm0,0"/>
    <path id="Trazado_155884" data-name="Trazado 155884" d="M35.959,48.08l-3.15-2.757A.982.982,0,0,0,31.517,46.8l3.15,2.756a.982.982,0,1,0,1.293-1.477Zm0,0"/>
    <path id="Trazado_155885" data-name="Trazado 155885" d="M22.741,48.123H18.832a.981.981,0,1,0,0,1.963h3.909a.981.981,0,1,0,0-1.963Zm0,0"/>
    <path id="Trazado_155886" data-name="Trazado 155886" d="M5.674,48.08l-3.15-2.757A.982.982,0,1,0,1.231,46.8l3.15,2.756A.982.982,0,0,0,5.674,48.08Zm0,0"/>
    <path id="Trazado_155887" data-name="Trazado 155887" d="M66.727,2.348a1.424,1.424,0,0,0-.968-.569L52.186.077A1.418,1.418,0,0,0,50.857,2.31l3.13,4.364L39.6,15.216,31.646,1.331A1.814,1.814,0,0,0,28.862.882L14.784,13.508a.982.982,0,1,0,1.311,1.461l13.94-12.5L38.26,16.832a1.237,1.237,0,0,0,1.7.449l15.671-9.3a1.273,1.273,0,0,0,.385-1.836L53.178,2.179,64.942,3.654l-2.178,11.8L59.91,11.432a1.265,1.265,0,0,0-1.678-.362l-5.1,2.976a3.067,3.067,0,0,0-.523.239l-2.08,1.2a3.015,3.015,0,0,0-.525.385l-1.879,1.1a2.791,2.791,0,0,0-.405.092.969.969,0,0,0-.218.1l-10.7,6.4L29.457,11.935a1.793,1.793,0,0,0-2.447-.586l-9.575,5.707-.006,0a.976.976,0,0,0-.218.1L6.53,23.547l6.809-6.106a.981.981,0,1,0-1.311-1.461L.449,26.364A1.345,1.345,0,0,0,2.035,28.52l.582-.347A3.392,3.392,0,0,0,6.9,29.292l4.4-2.149L9,38.311a.785.785,0,0,1-.259.439.981.981,0,0,0,1.271,1.5,2.752,2.752,0,0,0,.91-1.539l.566-2.745a7.272,7.272,0,0,0,2.238,2.285l-.849,2.093c-.125.253-.406.426-.886.705l-.187.11-5.586,3.2-.513-.423L6.96,42.862a.982.982,0,0,0-1.277-1.491L3.942,42.863a1.415,1.415,0,0,0,.017,2.167l1.251,1.033a1.541,1.541,0,0,0,1.73.146l5.853-3.353.012-.008.182-.106a3.662,3.662,0,0,0,1.686-1.595q.01-.021.018-.043l.753-1.858,2.146,1.233a1.292,1.292,0,0,1,.641,1.233l-.378,4.152A1.149,1.149,0,0,0,19,47.118h2.353a1.145,1.145,0,0,0,1.119-.887l1.455-6.208a2.763,2.763,0,0,0-.273-2.3c-.012-.019-.024-.037-.037-.056l-4.8-6.775,2.634-7.113,0-.013a6,6,0,0,0,.344-1.845,2.977,2.977,0,0,0,1.942-.374l2.08-1.2a3.029,3.029,0,0,0,1.107-4.133l-.475-.823a3.016,3.016,0,0,0-.834-.928l2.262-1.348,7.233,11.449L32.84,25.927a.981.981,0,0,0-.454,1.054,3.388,3.388,0,0,0,4.8,2.313l8.677-4.244a.981.981,0,1,0-.863-1.763L36.319,27.53a1.428,1.428,0,0,1-1.721-.368l2.391-1.431L48.68,18.912a.851.851,0,0,1,.525.31l.041.052a3.029,3.029,0,0,0,.17.345l.475.823,0,0a4,4,0,0,1,0,2.662l-2.543,6.87-3.757-.434-.482-.056.025-.123a.982.982,0,0,0-1.925-.385l-1.918,9.33a.793.793,0,0,1-.262.444l-4.8,4.111a1.415,1.415,0,0,0,.017,2.167l1.248,1.03a1.539,1.539,0,0,0,1.733.148l5.853-3.353.012-.007.181-.106a3.66,3.66,0,0,0,1.687-1.6c.007-.014.013-.028.018-.042l.753-1.858,2.146,1.233a1.292,1.292,0,0,1,.64,1.233l-.377,4.152a1.15,1.15,0,0,0,1.145,1.254h2.353a1.146,1.146,0,0,0,1.119-.887l1.455-6.208a2.766,2.766,0,0,0-.274-2.3c-.012-.018-.024-.037-.037-.055L49.1,30.9l2.634-7.113,0-.013a5.993,5.993,0,0,0,.344-1.845,2.977,2.977,0,0,0,1.942-.374l2.08-1.2a3.029,3.029,0,0,0,1.107-4.133l-.475-.823a3.033,3.033,0,0,0-.664-.792l2.6-1.516,3.235,4.558a1.418,1.418,0,0,0,2.552-.563L66.976,3.444a1.425,1.425,0,0,0-.25-1.1ZM22.053,39.435a.853.853,0,0,0-.027.1l-1.318,5.623H19.89l.3-3.265a3.259,3.259,0,0,0-1.618-3.113l-3.518-2.022a5.288,5.288,0,0,1-2.618-5.337l.749.086,3.985.462,4.825,6.807A.806.806,0,0,1,22.053,39.435ZM19.605,23.107l-2.544,6.869-3.932-.454-.306-.036.687-3.429,2.063-1.009a.981.981,0,1,0-.863-1.763L12.22,24.5l-.016.008L6.033,27.529a1.429,1.429,0,0,1-1.72-.367L18.169,18.9a.85.85,0,0,1,.751.318l.041.052a3.071,3.071,0,0,0,.17.345l.475.824,0,0a3.994,3.994,0,0,1,0,2.662Zm5.233-4.459-2.08,1.2a1.062,1.062,0,0,1-1.386-.29,6.007,6.007,0,0,0-.656-1.214,1.063,1.063,0,0,1,.5-1.16l2.08-1.2a1.058,1.058,0,0,1,.53-.143,1.072,1.072,0,0,1,.277.037,1.058,1.058,0,0,1,.645.495l.475.823a1.064,1.064,0,0,1-.389,1.452ZM43.169,40.34c-.125.253-.406.426-.886.706l-.187.109-5.586,3.2L36,43.932,40.3,40.245a2.767,2.767,0,0,0,.91-1.539l.566-2.744a7.272,7.272,0,0,0,2.238,2.285Zm9.17-.9a.979.979,0,0,0-.028.1l-1.318,5.623h-.818l.3-3.265a3.26,3.26,0,0,0-1.617-3.113l-3.518-2.022a5.288,5.288,0,0,1-2.618-5.337l.944.109,3.79.439,4.825,6.807a.808.808,0,0,1,.061.662Zm1.776-23.594a1.069,1.069,0,0,1,.277.037,1.058,1.058,0,0,1,.645.495l.475.823a1.064,1.064,0,0,1-.389,1.452l-2.08,1.2a1.062,1.062,0,0,1-1.386-.29A6.013,6.013,0,0,0,51,18.346a1.067,1.067,0,0,1,.214-.913L53.9,15.866a1.053,1.053,0,0,1,.212-.024Zm0,0"/>
  </g>
</svg>
