<svg xmlns="http://www.w3.org/2000/svg" width="154" height="154" viewBox="0 0 154 154">
  <g id="Grupo_108907" data-name="Grupo 108907" transform="translate(3239 3833)">
    <circle id="Elipse_4709" data-name="Elipse 4709" cx="77" cy="77" r="77" transform="translate(-3239 -3833)" fill="#ffc967"/>
    <g id="cliente_2_" data-name="cliente (2)" transform="translate(-3244.133 -3838.133)">
      <path id="Trazado_156421" data-name="Trazado 156421" d="M59.033,89.833A10.267,10.267,0,0,0,48.767,79.567h-7.7L38.5,74.433H28.233l2.793,8.38a10.267,10.267,0,0,0,9.74,7.02h2.867l15.4,41.067h15.4Z" fill="#f7cca9"/>
      <path id="Trazado_156422" data-name="Trazado 156422" d="M143.733,64.167V38.5a30.8,30.8,0,0,0-61.6,0V64.167A10.267,10.267,0,0,0,71.867,74.433v5.133A10.267,10.267,0,0,0,82.133,89.833h61.6A10.267,10.267,0,0,0,154,79.567V74.433A10.267,10.267,0,0,0,143.733,64.167Z" fill="#ad6643"/>
      <path id="Trazado_156423" data-name="Trazado 156423" d="M141.167,84.7H88.672a10.267,10.267,0,0,0-9.3,5.926l-15.2,30.008L77,130.9l12.833-15.4v41.067h61.6v-61.6A10.267,10.267,0,0,0,141.167,84.7Z" fill="#f7b030"/>
      <path id="Trazado_156424" data-name="Trazado 156424" d="M136.033,125.767h15.4v30.8h-15.4Z" fill="#f7cca9"/>
      <g id="Grupo_108412" data-name="Grupo 108412">
        <path id="Trazado_156425" data-name="Trazado 156425" d="M92.4,59.033a10.267,10.267,0,0,1,0-20.533h2.567V59.033Z" fill="#edc4a2"/>
        <path id="Trazado_156426" data-name="Trazado 156426" d="M133.467,38.5a10.267,10.267,0,1,1,0,20.533H130.9V38.5Z" fill="#edc4a2"/>
        <path id="Trazado_156427" data-name="Trazado 156427" d="M105.233,69.3h15.4V84.7a5.133,5.133,0,0,1-5.133,5.133h-5.133a5.133,5.133,0,0,1-5.133-5.133Z" fill="#edc4a2"/>
      </g>
      <path id="Trazado_156428" data-name="Trazado 156428" d="M123.2,28.233,92.4,38.5V53.9a20.533,20.533,0,1,0,41.067,0V38.5Z" fill="#f7cca9"/>
      <path id="Trazado_156429" data-name="Trazado 156429" d="M74.433,105.233h-46.2L23.1,156.567H79.567Z" fill="#c7312e"/>
      <path id="Trazado_156430" data-name="Trazado 156430" d="M61.6,105.233H15.4l-5.133,51.333H66.733Z" fill="#eb423f"/>
      <path id="Trazado_156431" data-name="Trazado 156431" d="M146.3,61.857V38.5a33.367,33.367,0,0,0-66.733,0V61.857A12.856,12.856,0,0,0,69.3,74.433v5.133A12.928,12.928,0,0,0,76.3,91l-5.913,11.671h-3.8l-5-13.323A12.849,12.849,0,0,0,48.767,77H42.653L40.8,73.285a2.567,2.567,0,0,0-2.3-1.419H28.233A2.567,2.567,0,0,0,25.8,75.245L27.451,80.2c-.2.179-.4.363-.594.554A12.751,12.751,0,0,0,23.1,89.833v12.833H15.4a2.567,2.567,0,0,0-2.554,2.31L7.713,156.31a2.567,2.567,0,0,0,2.554,2.823h69.3a2.567,2.567,0,0,0,2.554-2.823l-2.46-24.6,7.606-9.124v33.976a2.567,2.567,0,0,0,2.567,2.567h61.6A2.567,2.567,0,0,0,154,156.567v-61.6a12.75,12.75,0,0,0-1.508-6.032,12.914,12.914,0,0,0,4.075-9.368V74.433A12.856,12.856,0,0,0,146.3,61.857Zm5.133,12.577v5.133a7.636,7.636,0,0,1-2.22,5.413,12.771,12.771,0,0,0-8.046-2.846H123.2V74.585a23.219,23.219,0,0,0,11.53-13.049,12.764,12.764,0,0,0,6.437-2.51v5.14a2.567,2.567,0,0,0,2.567,2.567A7.709,7.709,0,0,1,151.433,74.433Zm-38.5-2.567A17.987,17.987,0,0,1,94.967,53.9V40.35l27.54-9.18,8.393,8.393V53.9a17.987,17.987,0,0,1-17.967,17.967ZM107.8,76.418a22.93,22.93,0,0,0,10.267,0V84.7a2.57,2.57,0,0,1-2.567,2.567h-5.133A2.57,2.57,0,0,1,107.8,84.7ZM136.033,53.9V41.508a7.7,7.7,0,0,1-.1,14.552c.066-.712.1-1.432.1-2.16Zm-23.1-43.633A28.265,28.265,0,0,1,141.167,38.5v.007a12.766,12.766,0,0,0-6.585-2.522l-9.566-9.566a2.567,2.567,0,0,0-2.627-.62L91.951,35.945A12.763,12.763,0,0,0,84.7,38.507V38.5a28.265,28.265,0,0,1,28.233-28.233Zm-23,45.794a7.7,7.7,0,0,1-.1-14.552V53.9C89.833,54.629,89.872,55.349,89.938,56.06Zm-15.5,18.373a7.709,7.709,0,0,1,7.7-7.7A2.567,2.567,0,0,0,84.7,64.167v-5.14a12.764,12.764,0,0,0,6.437,2.511,23.219,23.219,0,0,0,11.53,13.048v7.549H88.672a12.881,12.881,0,0,0-9.7,4.447,7.751,7.751,0,0,1-4.536-7.013Zm-17.967,15.4a2.567,2.567,0,0,0,.163.9L61.1,102.667H53.9V89.833a12.745,12.745,0,0,0-2.132-7.09,7.711,7.711,0,0,1,4.7,7.09ZM36.914,77l1.857,3.715a2.567,2.567,0,0,0,2.3,1.419,7.7,7.7,0,0,1,7.7,7.7v6.379l-2.73-7.28a2.567,2.567,0,0,0-2.4-1.665H40.766A7.69,7.69,0,0,1,33.463,82l-1.668-5Zm-8.68,12.833a7.649,7.649,0,0,1,1.234-4.184,12.814,12.814,0,0,0,11.3,6.75h1.088l3.85,10.267H28.233ZM13.1,154l4.62-46.2H59.277L63.9,154Zm55.953,0-4.62-46.2h7.674L76.73,154ZM92.4,105.233a2.567,2.567,0,1,0-5.133,0v9.336l-8.321,9.986-1.957-19.579a2.561,2.561,0,0,0-1.079-1.843l5.75-11.35c.012-.025.024-.049.036-.074a7.728,7.728,0,0,1,6.977-4.443h14.438a7.713,7.713,0,0,0,7.257,5.133H115.5a7.712,7.712,0,0,0,7.259-5.133h18.408a7.709,7.709,0,0,1,7.7,7.7V123.2H138.6V105.233a2.567,2.567,0,0,0-5.133,0V154H92.4ZM138.6,154V128.333h10.267V154Z"/>
      <circle id="Elipse_4884" data-name="Elipse 4884" cx="2.567" cy="2.567" r="2.567" transform="translate(100.1 46.2)"/>
      <circle id="Elipse_4885" data-name="Elipse 4885" cx="2.567" cy="2.567" r="2.567" transform="translate(120.633 46.2)"/>
    </g>
  </g>
</svg>
