<svg xmlns="http://www.w3.org/2000/svg" width="64.638" height="67" viewBox="0 0 64.638 67">
  <g id="verificado" transform="translate(-1.181)">
    <g id="Grupo_108349" data-name="Grupo 108349">
      <path id="Trazado_155910" data-name="Trazado 155910" d="M33.5.981V4.4l-9.714.658L13.47,4.4V.981Z" fill="#7ca1b1"/>
      <path id="Trazado_155911" data-name="Trazado 155911" d="M33.5.982V4.4l-4.188.262V1.8a.817.817,0,0,0-.818-.817H33.5Z" fill="#678d98"/>
      <path id="Trazado_155912" data-name="Trazado 155912" d="M44.8,8.363V61.024a3.961,3.961,0,0,1-3.961,3.961H6.125a3.962,3.962,0,0,1-3.962-3.961V8.363A3.962,3.962,0,0,1,6.125,4.4h2.09L23.484,5.409,38.4,4.4h2.443A3.961,3.961,0,0,1,44.8,8.363Z" fill="#5986cb"/>
      <path id="Trazado_155913" data-name="Trazado 155913" d="M44.8,8.363V61.024a3.961,3.961,0,0,1-3.961,3.961H38.4a3.961,3.961,0,0,0,3.961-3.961V8.363c0-4.1-3.507-3.961-3.507-3.961h1.989A3.961,3.961,0,0,1,44.8,8.363Z" fill="#4278c3"/>
      <path id="Trazado_155914" data-name="Trazado 155914" d="M40.844,6.391V56.349a1.989,1.989,0,0,1-1.989,1.989H8.114a1.988,1.988,0,0,1-1.989-1.989V6.391A1.989,1.989,0,0,1,8.114,4.4h30.74a1.99,1.99,0,0,1,1.989,1.989Z" fill="#c8effe"/>
      <path id="Trazado_155915" data-name="Trazado 155915" d="M40.844,6.391V56.349a1.989,1.989,0,0,1-1.989,1.989h-3.51a1.988,1.988,0,0,0,1.989-1.989V6.391A1.989,1.989,0,0,0,35.345,4.4h3.51a1.99,1.99,0,0,1,1.989,1.989Z" fill="#99e6fc"/>
      <path id="Trazado_155916" data-name="Trazado 155916" d="M11.241,14.219H36.326v3.926H11.241Z" fill="#7ca1b1"/>
      <path id="Trazado_155917" data-name="Trazado 155917" d="M63.823,26.059,38.051,19.154a1.368,1.368,0,0,0-1.676.967l-9.986,37.27a1.368,1.368,0,0,0,.967,1.676l25.771,6.905A1.368,1.368,0,0,0,54.8,65l9.986-37.27a1.368,1.368,0,0,0-.967-1.676Z" fill="#99e6fc"/>
      <path id="Trazado_155918" data-name="Trazado 155918" d="M61.561,22.143,51.575,59.412a1.369,1.369,0,0,1-1.675.968L24.128,53.475A1.37,1.37,0,0,1,23.16,51.8l9.986-37.269a1.369,1.369,0,0,1,1.676-.968l25.772,6.906a1.368,1.368,0,0,1,.967,1.676Z" fill="#eaf6ff"/>
      <path id="Trazado_155919" data-name="Trazado 155919" d="M61.561,22.143l-9.986,37.27a1.369,1.369,0,0,1-1.675.968l-4.13-1.107a1.37,1.37,0,0,0,1.676-.968l9.986-37.269a1.367,1.367,0,0,0-.955-1.672l4.117,1.1a1.366,1.366,0,0,1,.967,1.675Z" fill="#c8effe"/>
      <circle id="Elipse_4871" data-name="Elipse 4871" cx="9.646" cy="9.646" r="9.646" transform="translate(31.029 33.617)" fill="#46cc8d"/>
      <path id="Trazado_155920" data-name="Trazado 155920" d="M35.8,21.606H55.095v7.74H35.8Z" transform="translate(8.141 -10.893) rotate(15.009)" fill="#5986cb"/>
    </g>
    <g id="Grupo_108350" data-name="Grupo 108350">
      <path id="Trazado_155921" data-name="Trazado 155921" d="M11.241,25.6h5.473a.981.981,0,0,0,0-1.963H11.241a.981.981,0,1,0,0,1.963Z"/>
      <path id="Trazado_155922" data-name="Trazado 155922" d="M16.714,49.545H11.241a.981.981,0,1,0,0,1.963h5.473a.981.981,0,1,0,0-1.963Z"/>
      <path id="Trazado_155923" data-name="Trazado 155923" d="M65.5,26.206a2.334,2.334,0,0,0-1.427-1.095l-2.141-.574.573-2.14a2.379,2.379,0,0,0-1.661-2.878L45.786,15.483V8.364a4.949,4.949,0,0,0-4.943-4.943H34.479V.981A.981.981,0,0,0,33.5,0H13.469a.981.981,0,0,0-.981.981V3.421H6.124A4.949,4.949,0,0,0,1.181,8.364V50.992a.981.981,0,1,0,1.963,0V8.364A2.985,2.985,0,0,1,5.277,5.507a2.963,2.963,0,0,0-.135.884V56.35a2.974,2.974,0,0,0,2.971,2.971H25.971a2.333,2.333,0,0,0,1.131.694L41.612,63.9a2.991,2.991,0,0,1-.769.1H6.124a2.983,2.983,0,0,1-2.98-2.98V55.615a.981.981,0,0,0-1.963,0v5.408a4.949,4.949,0,0,0,4.943,4.943H40.843a4.917,4.917,0,0,0,3.4-1.359l8.629,2.312a2.349,2.349,0,0,0,2.878-1.662l9.986-37.269a2.334,2.334,0,0,0-.235-1.783Zm-4.929-4.611a.386.386,0,0,1,.038.294L50.627,59.159a.387.387,0,0,1-.473.274L24.382,52.527a.388.388,0,0,1-.274-.474l9.986-37.269a.406.406,0,0,1,.474-.274l25.772,6.906a.383.383,0,0,1,.234.18Zm-29.15-4.432h-19.2V15.2H31.951ZM14.451,1.963H32.516V3.421H14.451ZM17.1,5.384H29.871v.858A2.259,2.259,0,0,1,27.614,8.5H19.352A2.259,2.259,0,0,1,17.1,6.241ZM7.106,56.35V6.391A1.009,1.009,0,0,1,8.113,5.384h7.02v.858a4.224,4.224,0,0,0,4.22,4.22h8.262a4.224,4.224,0,0,0,4.22-4.22V5.384h7.02a1.009,1.009,0,0,1,1.008,1.008v3.99a.981.981,0,1,0,1.963,0V6.391a2.958,2.958,0,0,0-.135-.884,2.985,2.985,0,0,1,2.133,2.857v6.593l-8.746-2.344a2.369,2.369,0,0,0-2.284.624H11.241a.981.981,0,0,0-.981.981v3.926a.981.981,0,0,0,.981.981H30.9l-2.945,10.99H11.241a.981.981,0,1,0,0,1.963H27.428l-1.209,4.513H11.241a.981.981,0,1,0,0,1.963H25.693l-1.209,4.513H11.241a.981.981,0,1,0,0,1.963H23.957l-1.745,6.513a2.353,2.353,0,0,0,1.662,2.879l2.14.574-.573,2.14c-.02.074-.035.147-.047.221H8.113A1.009,1.009,0,0,1,7.106,56.35ZM63.842,27.481,53.856,64.75a.387.387,0,0,1-.474.273L27.611,58.118a.387.387,0,0,1-.273-.474l.573-2.14,21.735,5.824a2.348,2.348,0,0,0,2.877-1.662l8.9-33.233,2.141.574a.391.391,0,0,1,.273.474Z"/>
      <path id="Trazado_155924" data-name="Trazado 155924" d="M50.561,39.365A.994.994,0,0,0,49.17,38.9l-8.667,5-2.682-4.645a.981.981,0,0,0-1.7.981l3.172,5.495a1,1,0,0,0,1.341.359l8.461-4.885a8.663,8.663,0,1,1-2.774-4.526A.981.981,0,1,0,47.6,35.2a10.634,10.634,0,1,0,2.959,4.165Z"/>
      <path id="Trazado_155925" data-name="Trazado 155925" d="M34.273,27.2a.982.982,0,0,0,.6.457L53.5,32.655a1,1,0,0,0,1.2-.694l2-7.476a.991.991,0,0,0-.694-1.2L37.38,18.29a.982.982,0,0,0-1.2.694l-2,7.476a.982.982,0,0,0,.1.745ZM37.82,20.44l16.739,4.485-1.5,5.58L36.325,26.02Z"/>
    </g>
  </g>
</svg>
