<svg xmlns="http://www.w3.org/2000/svg" width="154" height="154" viewBox="0 0 154 154">
  <g id="Grupo_108906" data-name="Grupo 108906" transform="translate(-1074 -8006.3)">
    <circle id="Elipse_4708" data-name="Elipse 4708" cx="77" cy="77" r="77" transform="translate(1074 8006.3)" fill="#ffc967"/>
    <g id="desacuerdo" transform="translate(1074 8006.3)">
      <g id="Grupo_108407" data-name="Grupo 108407">
        <g id="Grupo_108406" data-name="Grupo 108406">
          <path id="Trazado_156393" data-name="Trazado 156393" d="M116.1,70.984H99.617c-8.8,0-16.781,5.847-18.82,14.407a27.174,27.174,0,0,0,5.528,24.029,24.413,24.413,0,0,1,5.7,15.547c0,.251,0,.4,0,.156,15.761-1.113,6.025-19.145,6.025-21.055a9.023,9.023,0,1,1,18.047,0V95.047a6.014,6.014,0,0,1,6.016-6.016h23.037a18.034,18.034,0,0,0,1.026-6.016c0-11.324-13.875-26.535-30.078-12.031Z" fill="#ffda8f"/>
        </g>
        <path id="Trazado_156394" data-name="Trazado 156394" d="M134.144,131.14a6.011,6.011,0,0,1-6.013,6.016H116.1v13.836H92.034c0-8.473-.006-25.867-.006-25.867,15.761-1.113,6.025-19.145,6.025-21.055a9.023,9.023,0,1,1,18.047,0V95.047a6.014,6.014,0,0,1,6.016-6.016h11.866a27.576,27.576,0,0,1,.165,3.008,27.154,27.154,0,0,1-1.041,7.462l7.056,13.592h-6.019Z" fill="#fce8d0"/>
        <path id="Trazado_156395" data-name="Trazado 156395" d="M92.04,21.055l-18.047,37.9V33.086H55.947L67.978,3.008H86.025L77,21.055Z" fill="#ffda8f"/>
        <path id="Trazado_156396" data-name="Trazado 156396" d="M67.187,85.392a27.174,27.174,0,0,1-5.528,24.029,24.416,24.416,0,0,0-5.7,15.547c0,.048,0,.1,0,.156-15.761-1.113-6.022-19.145-6.022-21.055a9.023,9.023,0,1,0-18.047,0V95.047a6.014,6.014,0,0,0-6.016-6.016H19.853a12.031,12.031,0,0,1,0-24.062h5.5a6.016,6.016,0,0,0,6.016,6.016h17c8.8,0,16.781,5.847,18.82,14.407Z" fill="#8690a6"/>
        <path id="Trazado_156397" data-name="Trazado 156397" d="M13.834,113.094H7.822L14.878,99.5a27.154,27.154,0,0,1-1.041-7.462A27.429,27.429,0,0,1,14.2,87.62a11.983,11.983,0,0,0,5.658,1.411h6.016a6.014,6.014,0,0,1,6.016,6.016v9.023a9.023,9.023,0,1,1,18.047,0c0,1.91-9.739,19.942,6.022,21.055,0,0-.009,16.6-.006,25.867H31.881l0-13.836H19.853a6.017,6.017,0,0,1-6.019-6.016V113.094Z" fill="#c3906d"/>
      </g>
      <g id="Grupo_108408" data-name="Grupo 108408">
        <path id="Trazado_156398" data-name="Trazado 156398" d="M77.871,84.7a30.183,30.183,0,0,0,6.149,26.657,21.511,21.511,0,0,1,5.01,13.652c.007.587,0,4.073.009,25.926,0,.02,0,.04,0,.061a3,3,0,0,0,3,3.008H116.1a3.008,3.008,0,0,0,3.008-3.008V140.164h9.023a9.032,9.032,0,0,0,9.02-9.023V116.1h3.011a3.008,3.008,0,0,0,2.669-4.394L136.31,99.145a30.231,30.231,0,0,0,.845-7.106h8a3.008,3.008,0,0,0,2.836-2.007,21.024,21.024,0,0,0,1.2-7.017c0-7.869-5.426-16.229-12.622-19.445-4.032-1.8-12.1-3.549-21.586,4.406H99.617a22.95,22.95,0,0,0-13.759,4.6A21.517,21.517,0,0,0,77.871,84.7Zm50.26,49.453H116.1a3.008,3.008,0,0,0-3.008,3.008v10.828H95.043c0-7.643,0-15.891,0-20.253a10.984,10.984,0,0,0,7.2-4.607c3.673-5.617.84-13.574-.683-17.848-.182-.51-.4-1.126-.494-1.439a6.016,6.016,0,0,1,12.027.234,3.008,3.008,0,1,0,6.016,0V95.047a3.016,3.016,0,0,1,3.008-3.011h9.023a24.165,24.165,0,0,1-.925,6.639,3.01,3.01,0,0,0,.223,2.212l4.776,9.2h-1.068a3.005,3.005,0,0,0-3,3.008v9.023h-9.02a3.008,3.008,0,1,0,0,6.016h9.02v3.008A3.013,3.013,0,0,1,128.131,134.148ZM99.617,73.992H116.1a3.006,3.006,0,0,0,2.006-.767c5.516-4.938,11.049-6.377,16-4.163,5.672,2.535,9.061,9.085,9.061,13.954a15.127,15.127,0,0,1-.3,3.008H122.115a9.038,9.038,0,0,0-8.925,7.688A12.027,12.027,0,0,0,95.045,104.07a10.036,10.036,0,0,0,.847,3.223c1.089,3.057,3.354,9.419,1.315,12.538a4.582,4.582,0,0,1-2.409,1.729,27.5,27.5,0,0,0-6.168-14.073,24.223,24.223,0,0,1-4.907-21.4c1.671-7.009,8.355-12.1,15.894-12.1Z"/>
        <path id="Trazado_156399" data-name="Trazado 156399" d="M43.317,41.309,36.023,45.52a3.008,3.008,0,0,0,3.008,5.21l7.294-4.211a3.008,3.008,0,0,0-3.008-5.21Z"/>
        <path id="Trazado_156400" data-name="Trazado 156400" d="M108.956,3.411l-8.335,4.812a3.008,3.008,0,1,0,3.008,5.21l8.335-4.812a3.008,3.008,0,1,0-3.008-5.21Z"/>
        <path id="Trazado_156401" data-name="Trazado 156401" d="M46.325,7.622,39.031,3.411a3.008,3.008,0,0,0-3.008,5.21l7.294,4.211a3.008,3.008,0,1,0,3.008-5.21Z"/>
        <path id="Trazado_156402" data-name="Trazado 156402" d="M100.622,45.917l8.335,4.812a3.008,3.008,0,1,0,3.008-5.21l-8.335-4.812a3.008,3.008,0,1,0-3.008,5.21Z"/>
        <path id="Trazado_156403" data-name="Trazado 156403" d="M28.876,27.07a3.008,3.008,0,0,0,3.008,3.008h8.422a3.008,3.008,0,0,0,0-6.016H31.884a3.008,3.008,0,0,0-3.008,3.008Z"/>
        <path id="Trazado_156404" data-name="Trazado 156404" d="M103.47,27.07a3.008,3.008,0,0,0,3.008,3.008H116.1a3.008,3.008,0,0,0,0-6.016h-9.625A3.008,3.008,0,0,0,103.47,27.07Z"/>
        <path id="Trazado_156405" data-name="Trazado 156405" d="M88.583,1.427A3.007,3.007,0,0,0,86.025,0H67.978a3.008,3.008,0,0,0-2.793,1.891L53.154,31.969a3.008,3.008,0,0,0,2.793,4.125H70.986V58.953a3.008,3.008,0,0,0,5.723,1.293l18.047-37.9a3.008,3.008,0,0,0-2.715-4.3H81.868L88.715,4.353a3.007,3.007,0,0,0-.132-2.926ZM87.277,24.062,77,45.64V33.086a3.005,3.005,0,0,0-3-3.008H60.39L70.015,6.016H81.158L74.311,19.71A3.008,3.008,0,0,0,77,24.062Z"/>
        <circle id="Elipse_4882" data-name="Elipse 4882" cx="3.008" cy="3.008" r="3.008" transform="translate(61.057 75.797)"/>
        <path id="Trazado_156406" data-name="Trazado 156406" d="M25.354,61.961h-5.5a15.038,15.038,0,0,0-8.879,27.176c-.092.966-.145,1.936-.145,2.9a30.2,30.2,0,0,0,.845,7.106L5.152,111.708A3.008,3.008,0,0,0,7.822,116.1h3v15.039a9.035,9.035,0,0,0,9.026,9.023h9.023l0,10.827A3.008,3.008,0,0,0,31.881,154H55.953a3,3,0,0,0,2.993-3.008c0-.02,0-.04,0-.061,0-.05.009-25.891.009-25.944a21.5,21.5,0,0,1,5.011-13.633,30.078,30.078,0,0,0,7.022-19.621,3.008,3.008,0,0,0-3.007-2.978h-.031a3.008,3.008,0,0,0-2.978,3.038,24.06,24.06,0,0,1-5.616,15.7,27.507,27.507,0,0,0-6.171,14.071,4.575,4.575,0,0,1-2.407-1.729c-2.039-3.118.227-9.481,1.316-12.538a10.039,10.039,0,0,0,.848-3.224A12.027,12.027,0,0,0,34.793,93.712a9.037,9.037,0,0,0-8.924-7.689H19.853a9.023,9.023,0,1,1,0-18.047h3.009a9.039,9.039,0,0,0,8.508,6.016h17a16.892,16.892,0,0,1,3.676.406,3.008,3.008,0,1,0,1.311-5.871,22.918,22.918,0,0,0-4.987-.55h-17a3.011,3.011,0,0,1-3.008-3.008,3.008,3.008,0,0,0-3.008-3.008Zm.514,30.078a3.011,3.011,0,0,1,3.008,3.008v9.023a3.008,3.008,0,0,0,6.016,0,6.016,6.016,0,0,1,12.027-.234c-.093.313-.313.929-.494,1.439-1.523,4.275-4.357,12.231-.685,17.848a10.985,10.985,0,0,0,7.2,4.6c-.005,4.444,0,12.905,0,20.256H34.865l0-10.827a3.009,3.009,0,0,0-.881-2.127,2.951,2.951,0,0,0-2.1-.881H19.853a3.013,3.013,0,0,1-3.011-3.008v-3.008h9.026a3.008,3.008,0,1,0,0-6.016H16.843v-9.023a3.008,3.008,0,0,0-3.008-3.008H12.772l4.775-9.2a3.01,3.01,0,0,0,.223-2.212,24.164,24.164,0,0,1-.925-6.636c0-.1.005-.206.006-.308a15.079,15.079,0,0,0,3,.308h6.016Z"/>
      </g>
    </g>
  </g>
</svg>
