<svg xmlns="http://www.w3.org/2000/svg" width="154" height="154" viewBox="0 0 154 154">
  <g id="Grupo_108913" data-name="Grupo 108913" transform="translate(1134 3833)">
    <circle id="Elipse_4716" data-name="Elipse 4716" cx="77" cy="77" r="77" transform="translate(-1134 -3833)" fill="#ffc967"/>
    <g id="cooperacion" transform="translate(-1134 -3833)">
      <g id="Grupo_108593" data-name="Grupo 108593">
        <g id="Grupo_108592" data-name="Grupo 108592">
          <g id="Grupo_108575" data-name="Grupo 108575">
            <g id="Grupo_108574" data-name="Grupo 108574">
              <g id="Grupo_108573" data-name="Grupo 108573">
                <g id="Grupo_108572" data-name="Grupo 108572">
                  <g id="Grupo_108571" data-name="Grupo 108571">
                    <g id="Grupo_108570" data-name="Grupo 108570">
                      <g id="Grupo_108567" data-name="Grupo 108567">
                        <g id="Grupo_108566" data-name="Grupo 108566">
                          <path id="Trazado_156691" data-name="Trazado 156691" d="M117.985,120.265,82.615,99.319a3.818,3.818,0,0,1-1.338-5.231l1.81-3.055L75.93,86.8c-4.72-2.709-6.928-3.21-11.187-1.563L60.1,87.031a9.881,9.881,0,0,1-8.6-.715L39.078,78.991,21.434,108.774l15.908,9.389a9.877,9.877,0,0,1,2.789,2.468l5.361,6.952c2.961,3.463,9.071,7.955,12.991,10.277l20.46,12.121a5.683,5.683,0,0,0,5.794-9.78l6.392,3.787a5.683,5.683,0,0,0,5.794-9.78l4.261,2.524a5.683,5.683,0,0,0,5.794-9.78l5.216,3.09a5.683,5.683,0,0,0,5.793-9.779Z" fill="#f9eae2"/>
                        </g>
                        <path id="Trazado_156692" data-name="Trazado 156692" d="M117.985,120.265,105.036,112.6a.343.343,0,0,0-.468.474,5.836,5.836,0,0,1-.176,6.263,5.67,5.67,0,0,1-7.584,1.6l-1.937-1.147a.841.841,0,0,0-1.2,1.05,6.958,6.958,0,0,1-.22,5.222,4.51,4.51,0,0,1-6.631,2.169l-.841-.5a1.591,1.591,0,0,0-1.822.141.683.683,0,0,0-.687.938,5.839,5.839,0,0,1-.637,4.682,5.953,5.953,0,0,1-8.1,1.9l-2.282-1.352a1.009,1.009,0,0,0-1.31.248,1,1,0,0,0-.181.861,5.847,5.847,0,0,1-4.829,7.248l12.7,7.525a5.773,5.773,0,0,0,7.8-1.747,5.684,5.684,0,0,0-1.884-7.963l6.275,3.717a5.773,5.773,0,0,0,7.8-1.747,5.684,5.684,0,0,0-1.884-7.963l4.261,2.524a5.683,5.683,0,1,0,5.794-9.78l5.1,3.02a5.772,5.772,0,0,0,7.794-1.747,5.683,5.683,0,0,0-1.884-7.962Z" fill="#f5dbcc"/>
                      </g>
                      <g id="Grupo_108568" data-name="Grupo 108568">
                        <path id="Trazado_156693" data-name="Trazado 156693" d="M114.922,80.769l-9.542,5.546a9.881,9.881,0,0,1-8.6.715l-5.235-2.056a8.413,8.413,0,0,0-5.14-.325l-8.02,2.03a8.413,8.413,0,0,0-6.349,8.156V105.54a2.745,2.745,0,0,0,2.74,2.746,8.261,8.261,0,0,0,8.266-8.261v-.453l34.33,20.33a9.879,9.879,0,0,1,2.167-1.739l13.026-7.611Z" fill="#ecb784"/>
                      </g>
                      <g id="Grupo_108569" data-name="Grupo 108569">
                        <path id="Trazado_156694" data-name="Trazado 156694" d="M44.314,124.471,41.1,128.954a5.682,5.682,0,1,1-9.231-6.627l3.218-4.483a5.682,5.682,0,1,1,9.231,6.627Z" fill="#ecb784"/>
                        <path id="Trazado_156695" data-name="Trazado 156695" d="M57.1,126.151l-6.771,9.431a5.682,5.682,0,0,1-9.231-6.627l6.771-9.431a5.682,5.682,0,1,1,9.231,6.627Z" fill="#ecb784"/>
                        <path id="Trazado_156696" data-name="Trazado 156696" d="M66.328,132.778l-6.771,9.431a5.682,5.682,0,1,1-9.231-6.627l6.771-9.431a5.682,5.682,0,1,1,9.231,6.627Z" fill="#ecb784"/>
                        <path id="Trazado_156697" data-name="Trazado 156697" d="M72.551,143.6,70.3,146.732a5.682,5.682,0,0,1-9.231-6.627l2.251-3.136a5.682,5.682,0,1,1,9.231,6.627Z" fill="#ecb784"/>
                      </g>
                    </g>
                  </g>
                </g>
              </g>
            </g>
          </g>
          <g id="Grupo_108578" data-name="Grupo 108578">
            <g id="Grupo_108576" data-name="Grupo 108576">
              <path id="Trazado_156698" data-name="Trazado 156698" d="M147.876,54.082,107.412,78.2a4.8,4.8,0,0,0-1.674,6.576l18.5,31.232a4.8,4.8,0,0,0,6.593,1.678L148.5,107.157a6.645,6.645,0,0,0,3.242-5.708V56.28A2.558,2.558,0,0,0,147.876,54.082Z" fill="#407093"/>
            </g>
            <path id="Trazado_156699" data-name="Trazado 156699" d="M132.567,63.208V92.564a22.285,22.285,0,0,1-10.875,19.142l2.55,4.3a4.8,4.8,0,0,0,6.593,1.678L148.5,107.157a6.645,6.645,0,0,0,3.242-5.708V56.28a2.558,2.558,0,0,0-3.868-2.2Z" fill="#365e7d"/>
            <g id="Grupo_108577" data-name="Grupo 108577">
              <path id="Trazado_156700" data-name="Trazado 156700" d="M6.124,54.082,46.588,78.2a4.8,4.8,0,0,1,1.674,6.576l-18.5,31.232a4.8,4.8,0,0,1-6.593,1.678L5.5,107.157a6.645,6.645,0,0,1-3.242-5.708V56.28a2.559,2.559,0,0,1,3.868-2.2Z" fill="#407093"/>
            </g>
          </g>
          <g id="Grupo_108591" data-name="Grupo 108591">
            <g id="Grupo_108590" data-name="Grupo 108590">
              <g id="Grupo_108589" data-name="Grupo 108589">
                <g id="Grupo_108588" data-name="Grupo 108588">
                  <g id="Grupo_108587" data-name="Grupo 108587">
                    <g id="Grupo_108586" data-name="Grupo 108586">
                      <g id="Grupo_108585" data-name="Grupo 108585">
                        <g id="Grupo_108584" data-name="Grupo 108584">
                          <g id="Grupo_108583" data-name="Grupo 108583">
                            <g id="Grupo_108582" data-name="Grupo 108582">
                              <g id="Grupo_108581" data-name="Grupo 108581">
                                <g id="Grupo_108580" data-name="Grupo 108580">
                                  <path id="Trazado_156701" data-name="Trazado 156701" d="M102.859,57.495H51.141a6.236,6.236,0,0,1-6.236-6.236V20.488a6.236,6.236,0,0,1,6.236-6.236h51.718a6.236,6.236,0,0,1,6.236,6.236V51.259A6.236,6.236,0,0,1,102.859,57.495Z" fill="#ddb7a0"/>
                                  <g id="Grupo_108579" data-name="Grupo 108579">
                                    <path id="Trazado_156702" data-name="Trazado 156702" d="M102.859,14.252H83.83a6.236,6.236,0,0,1,6.236,6.236V51.259a6.236,6.236,0,0,1-6.236,6.236h19.029a6.236,6.236,0,0,0,6.236-6.236V20.488a6.236,6.236,0,0,0-6.236-6.236Z" fill="#d6a889"/>
                                    <path id="Trazado_156703" data-name="Trazado 156703" d="M109.1,23.157V20.487a6.236,6.236,0,0,0-6.236-6.236H51.141A6.236,6.236,0,0,0,44.9,20.487v2.669a11.3,11.3,0,0,0,11.3,11.3H97.8A11.3,11.3,0,0,0,109.1,23.157Z" fill="#cc9675"/>
                                    <path id="Trazado_156704" data-name="Trazado 156704" d="M90.066,20.488V34.457H97.8a11.3,11.3,0,0,0,11.3-11.3V20.487a6.236,6.236,0,0,0-6.236-6.236H83.83A6.237,6.237,0,0,1,90.066,20.488Z" fill="#c4845c"/>
                                  </g>
                                </g>
                              </g>
                            </g>
                          </g>
                        </g>
                      </g>
                    </g>
                  </g>
                </g>
              </g>
            </g>
          </g>
        </g>
      </g>
      <g id="Grupo_108594" data-name="Grupo 108594">
        <path id="Trazado_156705" data-name="Trazado 156705" d="M146.721,52.145,106.257,76.264a7.076,7.076,0,0,0-2.979,8.589,7.565,7.565,0,0,1-5.673.078l-5.235-2.056a10.6,10.6,0,0,0-6.519-.413l-8.02,2.03q-.467.118-.914.275c-4.9-2.8-7.819-3.633-12.989-1.634l-4.642,1.794a7.585,7.585,0,0,1-6.64-.555L51.1,83.458a7.076,7.076,0,0,0-3.354-7.194L7.279,52.145A4.814,4.814,0,0,0,0,56.28v45.169a8.941,8.941,0,0,0,4.343,7.645l17.667,10.531a7.057,7.057,0,0,0,9.556-2.251l.755.446-2.291,3.191a7.938,7.938,0,0,0,7.831,12.445A7.931,7.931,0,0,0,47.1,140.08a7.936,7.936,0,0,0,11.124,6.048,7.941,7.941,0,0,0,13.637,2.279l5.934,3.516a7.939,7.939,0,0,0,11.955-6.13l.231.137a7.946,7.946,0,0,0,11.98-6.432A7.952,7.952,0,0,0,112,132.467a7.94,7.94,0,0,0,9.042-12.568l2.326-1.359a7.061,7.061,0,0,0,8.624,1.085l4.271-2.546a2.256,2.256,0,1,0-2.31-3.876l-4.271,2.546a2.549,2.549,0,0,1-3.023-.305c-.015-.127-18.978-31.817-18.978-31.817a2.553,2.553,0,0,1,.888-3.488L149.031,56.02a.3.3,0,0,1,.457.26v45.169a4.409,4.409,0,0,1-2.142,3.77l-4.265,2.542a2.256,2.256,0,0,0,2.31,3.876l4.265-2.542A8.941,8.941,0,0,0,154,101.449V56.28a4.813,4.813,0,0,0-7.279-4.135ZM86.959,86.836a6.125,6.125,0,0,1,3.762.238l5.246,2.061A12.055,12.055,0,0,0,105.5,88.8l15.382,25.963-2.493,1.456a12.08,12.08,0,0,0-1.3.89l-32.9-19.481a2.256,2.256,0,0,0-3.405,1.941v.453a6,6,0,0,1-6,6.005.5.5,0,0,1-.49-.49V94.835a6.152,6.152,0,0,1,3.3-5.457,2.257,2.257,0,0,0,.289-.141,6.2,6.2,0,0,1,1.053-.37Zm-60.7,29.2a2.534,2.534,0,0,1-1.934-.281L6.653,105.219a4.409,4.409,0,0,1-2.142-3.77V56.28a.277.277,0,0,1,.153-.263.307.307,0,0,1,.152-.044.289.289,0,0,1,.152.047L45.433,80.139a2.553,2.553,0,0,1,.888,3.488l-18.5,31.232a2.531,2.531,0,0,1-1.564,1.171Zm10.78,12.991a3.426,3.426,0,0,1-3.338-5.378l3.218-4.483a3.428,3.428,0,0,1,.251-.31,2.264,2.264,0,0,0,.19-.193,3.426,3.426,0,0,1,5.125,4.5l-.005.008-3.213,4.476A3.4,3.4,0,0,1,37.035,129.022Zm6.678,6.029a3.425,3.425,0,0,1-.785-4.781l3.218-4.483h0L49.7,120.84a3.4,3.4,0,0,1,2.228-1.383,3.454,3.454,0,0,1,.562-.046,3.427,3.427,0,0,1,2.776,5.425l-6.771,9.431a3.431,3.431,0,0,1-4.781.784ZM55.5,142.276a3.426,3.426,0,0,1-3.338-5.379l.005-.008,6.765-9.423a3.426,3.426,0,1,1,5.566,4l-6.771,9.431A3.4,3.4,0,0,1,55.5,142.276Zm8.188,3.925a3.426,3.426,0,0,1-.785-4.781l.007-.01,2.247-3.13a3.426,3.426,0,0,1,5.564,4l-1.287,1.793-.04.055-.924,1.288a3.43,3.43,0,0,1-4.781.784Zm54.352-19.3a3.431,3.431,0,0,1-4.7,1.2l-5.215-3.089-.007,0L91.968,115.44a2.256,2.256,0,0,0-2.3,3.881l16.159,9.573h0a3.428,3.428,0,0,1-3.5,5.9l-4.251-2.518-.01-.006-.007,0-11.9-7.049a2.256,2.256,0,1,0-2.3,3.881l11.9,7.05.007,0a3.428,3.428,0,0,1-3.494,5.9l-6.38-3.78-.012-.008L81.22,135.5a2.256,2.256,0,0,0-2.3,3.882l4.665,2.764.006,0a3.428,3.428,0,0,1-3.5,5.895l-5.584-3.308a7.935,7.935,0,0,0-5.429-12.3,7.936,7.936,0,0,0-8.753-10.776,7.936,7.936,0,0,0-13.635-4.247,7.935,7.935,0,0,0-11.222-2.965l-1.6-.944L49.22,87.589l1.133.668a12.069,12.069,0,0,0,10.563.879l4.642-1.794c2.775-1.072,4.265-1.123,7.066.24a10.653,10.653,0,0,0-2.842,7.254v10.706a5.007,5.007,0,0,0,4.995,5h.007A10.535,10.535,0,0,0,84.8,103.237l31.421,18.607a2.238,2.238,0,0,0,.32.157,2.282,2.282,0,0,0,.291.2,3.432,3.432,0,0,1,1.2,4.7Z"/>
        <path id="Trazado_156706" data-name="Trazado 156706" d="M51.141,59.751h51.718a8.5,8.5,0,0,0,8.492-8.492V20.488A8.5,8.5,0,0,0,102.859,12H90.409V8.422A7.459,7.459,0,0,0,82.96.971H71.04A7.459,7.459,0,0,0,63.59,8.422V12H51.14a8.5,8.5,0,0,0-8.492,8.492V37.439a2.256,2.256,0,0,0,4.512,0V33.246A13.5,13.5,0,0,0,56.2,36.713H57.97v2.481a2.256,2.256,0,0,0,4.512,0V36.713H91.517v2.481a2.256,2.256,0,1,0,4.512,0V36.713h1.765a13.5,13.5,0,0,0,9.045-3.467V51.258a3.985,3.985,0,0,1-3.98,3.98H51.141a3.985,3.985,0,0,1-3.98-3.98V47.985a2.256,2.256,0,1,0-4.512,0v3.274a8.5,8.5,0,0,0,8.492,8.492ZM68.1,8.422A2.942,2.942,0,0,1,71.04,5.483H82.96A2.942,2.942,0,0,1,85.9,8.422V12H68.1V8.422ZM97.8,32.2H96.03V29.72a2.256,2.256,0,1,0-4.512,0V32.2H62.483V29.72a2.256,2.256,0,0,0-4.512,0V32.2H56.205a9.054,9.054,0,0,1-9.044-9.044V20.488a3.985,3.985,0,0,1,3.98-3.98h51.718a3.985,3.985,0,0,1,3.98,3.98v2.669A9.055,9.055,0,0,1,97.8,32.2Z"/>
      </g>
    </g>
  </g>
</svg>
