<svg xmlns="http://www.w3.org/2000/svg" width="154" height="154" viewBox="0 0 154 154">
  <g id="Grupo_108912" data-name="Grupo 108912" transform="translate(1484 3833)">
    <circle id="Elipse_4714" data-name="Elipse 4714" cx="77" cy="77" r="77" transform="translate(-1484 -3833)" fill="#ffc967"/>
    <g id="motivacion" transform="translate(-1473.831 -3833)">
      <g id="Grupo_108515" data-name="Grupo 108515">
        <g id="Grupo_108500" data-name="Grupo 108500">
          <path id="Trazado_156635" data-name="Trazado 156635" d="M7.426,131.723h39.6v9.9H7.426Z" fill="#fcd770"/>
        </g>
        <g id="Grupo_108501" data-name="Grupo 108501">
          <path id="Trazado_156636" data-name="Trazado 156636" d="M7.426,111.921h39.6v9.9H7.426Z" fill="#fcd770"/>
        </g>
        <g id="Grupo_108502" data-name="Grupo 108502">
          <path id="Trazado_156637" data-name="Trazado 156637" d="M47.029,97.07v4.95H7.426V97.07a4.949,4.949,0,0,1,4.95-4.95h29.7A4.949,4.949,0,0,1,47.029,97.07Z" fill="#fcd770"/>
        </g>
        <g id="Grupo_108503" data-name="Grupo 108503">
          <path id="Trazado_156638" data-name="Trazado 156638" d="M47.029,141.624v4.95a4.949,4.949,0,0,1-4.95,4.95h-29.7a4.949,4.949,0,0,1-4.95-4.95v-4.95Z" fill="#ffc729"/>
        </g>
        <g id="Grupo_108504" data-name="Grupo 108504">
          <path id="Trazado_156639" data-name="Trazado 156639" d="M7.426,121.822h39.6v9.9H7.426Z" fill="#ffc729"/>
        </g>
        <g id="Grupo_108505" data-name="Grupo 108505">
          <path id="Trazado_156640" data-name="Trazado 156640" d="M7.426,102.02h39.6v9.9H7.426Z" fill="#ffc729"/>
        </g>
        <g id="Grupo_108506" data-name="Grupo 108506">
          <path id="Trazado_156641" data-name="Trazado 156641" d="M131.187,116.51v10.625a4.589,4.589,0,0,1-8.694,2.051l-1.207-2.413V111.921H126.6A4.589,4.589,0,0,1,131.187,116.51Z" fill="#d3a06c"/>
        </g>
        <g id="Grupo_108507" data-name="Grupo 108507">
          <path id="Trazado_156642" data-name="Trazado 156642" d="M76.732,141.624v5.312a4.589,4.589,0,0,1-4.588,4.588H61.518a4.589,4.589,0,0,1-2.051-8.694l2.413-1.207Z" fill="#d3a06c"/>
        </g>
        <g id="Grupo_108508" data-name="Grupo 108508">
          <path id="Trazado_156643" data-name="Trazado 156643" d="M90.581,107.639l-13.849,9.233v24.752H61.88v-28.9A21.719,21.719,0,0,1,76.732,92.12h27.227a16.906,16.906,0,0,1,4.95,11.952v7.85h12.376v14.851H106.97a15.466,15.466,0,0,1-15.219-12.7Z" fill="#969faa"/>
        </g>
        <g id="Grupo_108509" data-name="Grupo 108509">
          <circle id="Elipse_4898" data-name="Elipse 4898" cx="29.703" cy="29.703" r="29.703" transform="translate(2.475 32.714)" fill="#ffc729"/>
        </g>
        <g id="Grupo_108510" data-name="Grupo 108510">
          <circle id="Elipse_4899" data-name="Elipse 4899" cx="19.802" cy="19.802" r="19.802" transform="translate(12.376 42.615)" fill="#fcd770"/>
        </g>
        <g id="Grupo_108511" data-name="Grupo 108511">
          <path id="Trazado_156644" data-name="Trazado 156644" d="M68.758,20.378a10.854,10.854,0,0,0-6.872,9.861H61.88l-1.949-.975A14.387,14.387,0,0,1,56.194,6.223l3.212-3.212a46.9,46.9,0,0,0,20.971,4.95h2.11a18.993,18.993,0,0,1,19,19A21.719,21.719,0,0,1,86.633,47.566v-9.9a4.95,4.95,0,1,0,0-9.9,4.949,4.949,0,0,0-4.95-4.95H74.257a7.413,7.413,0,0,1-5.5-2.435Z" fill="#b27946"/>
        </g>
        <g id="Grupo_108512" data-name="Grupo 108512">
          <path id="Trazado_156645" data-name="Trazado 156645" d="M76.732,72.191a16.75,16.75,0,0,1-2.051.127H51.98l-2.042-14.3,1.5-.226,9.817-1.473,10.526-1.578,14.851-2.228a20.181,20.181,0,0,1,17.327,19.978V92.12H76.732V72.194Z" fill="#ef7385"/>
        </g>
        <g id="Grupo_108513" data-name="Grupo 108513">
          <path id="Trazado_156646" data-name="Trazado 156646" d="M49.938,58.02l2.042,14.3h-8.2a6.65,6.65,0,0,1-.987-13.227Z" fill="#f0d0b4"/>
        </g>
        <g id="Grupo_108514" data-name="Grupo 108514">
          <path id="Trazado_156647" data-name="Trazado 156647" d="M71.781,47.692a10.064,10.064,0,0,1-9.9-10.062V30.484c0-.08,0-.164.006-.244a10.854,10.854,0,0,1,6.872-9.861,7.413,7.413,0,0,0,5.5,2.435h7.426a4.949,4.949,0,0,1,4.95,4.95,4.95,4.95,0,1,1,0,9.9V52.516L71.781,54.744Z" fill="#f0d0b4"/>
        </g>
      </g>
      <path id="Trazado_156648" data-name="Trazado 156648" d="M126.6,109.446H111.385v-5.375a19.234,19.234,0,0,0-4.95-12.934V72.494A22.649,22.649,0,0,0,89.108,50.476v-1.2a24.16,24.16,0,0,0,14.851-22.316A21.5,21.5,0,0,0,82.486,5.487h-2.11A44.644,44.644,0,0,1,60.512.8l-1.6-.8L54.443,4.473a16.863,16.863,0,0,0,4.383,27.006l.58.29v5.862a12.6,12.6,0,0,0,9.9,12.255v2.726l-6.2.93a32.177,32.177,0,1,0-48.06,36.1H12.376A7.434,7.434,0,0,0,4.95,97.07v49.5A7.434,7.434,0,0,0,12.376,154h29.7a7.434,7.434,0,0,0,7.426-7.426V97.07a7.417,7.417,0,0,0-2.914-5.892A32.211,32.211,0,0,0,61.883,74.793H74.257V90.408a24.16,24.16,0,0,0-14.851,22.317v27.369l-1.045.523A7.065,7.065,0,0,0,61.519,154H72.142a7.073,7.073,0,0,0,7.065-7.065V118.2l9.611-6.407.5,2.724a17.937,17.937,0,0,0,17.656,14.735h12.787l.523,1.045a7.065,7.065,0,0,0,13.383-3.16V116.511a7.073,7.073,0,0,0-7.065-7.065ZM101.484,72.494V89.644H79.207V74.261a19.25,19.25,0,0,0,9.176-5.143l-3.5-3.5a14.332,14.332,0,0,1-10.2,4.226H54.127L52.735,60.1l33.88-5.082a17.792,17.792,0,0,1,14.869,17.472ZM43.778,69.843a4.174,4.174,0,0,1-.619-8.3l4.681-.7,1.286,9Zm-1.354-13.2a9.067,9.067,0,0,0-6.973,5.264,6.165,6.165,0,0,0-4.511-1.966A1.239,1.239,0,0,1,29.7,58.7V54.991H30.94a1.239,1.239,0,0,1,1.238,1.238v1.238h4.95V56.229a6.2,6.2,0,0,0-4.95-6.063v-2.6h-4.95v2.475H24.752V58.7a6.2,6.2,0,0,0,6.188,6.188,1.239,1.239,0,0,1,1.238,1.238v3.713H30.94A1.239,1.239,0,0,1,29.7,68.6V67.367h-4.95V68.6a6.2,6.2,0,0,0,4.95,6.063v2.6h4.95V74.793h2.475V71.907a9.1,9.1,0,0,0,6.65,2.886H44.3A17.318,17.318,0,1,1,48.19,55.78Zm17.59-30.177A11.906,11.906,0,0,1,57.944,7.974L59.919,6a49.651,49.651,0,0,0,20.457,4.439h2.11A16.542,16.542,0,0,1,99.008,26.961a19.215,19.215,0,0,1-9.9,16.823V39.716a7.427,7.427,0,0,0-.319-14.108,7.439,7.439,0,0,0-7.107-5.269H74.256a4.956,4.956,0,0,1-4.95-4.95h-4.95a9.838,9.838,0,0,0,.878,4.068,13.208,13.208,0,0,0-5.218,7.012Zm14.242,23.48a12.563,12.563,0,0,0,3.292-1.1l2.766-1.383L78.1,43.034l-2.766,1.383a7.586,7.586,0,0,1-10.979-6.785V30.484a8.325,8.325,0,0,1,4-7.148,9.849,9.849,0,0,0,5.9,1.953h7.426a2.478,2.478,0,0,1,2.475,2.475v2.475h2.475a2.475,2.475,0,1,1,0,4.95H84.157V50.384l-9.9,1.485ZM9.9,129.248V124.3H44.554v4.95Zm34.653,4.95v4.95H9.9V134.2ZM9.9,119.347V114.4H44.554v4.95Zm0-9.9V104.5H44.554v4.95Zm32.178,39.6h-29.7A2.478,2.478,0,0,1,9.9,146.574V144.1H44.554v2.475A2.478,2.478,0,0,1,42.079,149.05Zm0-54.455a2.478,2.478,0,0,1,2.475,2.475v2.475H9.9V97.07a2.478,2.478,0,0,1,2.475-2.475Zm-9.9-4.95A27.227,27.227,0,1,1,58.165,54.283l-4.968.745a22.279,22.279,0,1,0-2.5,19.765h5.73A27.284,27.284,0,0,1,32.178,89.644ZM72.142,149.05H61.519a2.114,2.114,0,0,1-.946-4l1.891-.946H74.257v2.836a2.117,2.117,0,0,1-2.114,2.114Zm22.041-35.422L91.543,99.1l-4.871.885,1.181,6.495-10.806,7.2-3.516-3.516-3.5,3.5,4.225,4.226v21.252h-9.9V112.725a19.216,19.216,0,0,1,12.8-18.13h25.724a14.318,14.318,0,0,1,3.553,9.476V110.9l-4.226,4.226,3.5,3.5,4.226-4.226h8.876v9.9H106.969A12.989,12.989,0,0,1,94.184,113.627Zm34.527,13.506a2.114,2.114,0,0,1-4,.946l-.946-1.891V114.4H126.6a2.116,2.116,0,0,1,2.114,2.114Z"/>
    </g>
  </g>
</svg>
