<svg xmlns="http://www.w3.org/2000/svg" width="154" height="154" viewBox="0 0 154 154">
  <g id="Grupo_108910" data-name="Grupo 108910" transform="translate(2186 3833)">
    <circle id="Elipse_4712" data-name="Elipse 4712" cx="77" cy="77" r="77" transform="translate(-2186 -3833)" fill="#ffc967"/>
    <g id="Layer_31" data-name="Layer 31" transform="translate(-2186.036 -3832.995)">
      <path id="Trazado_156521" data-name="Trazado 156521" d="M60.154,45.717A28.874,28.874,0,1,0,29.913,74.56a4.9,4.9,0,0,1,2.5.787l13.3,8.869V73.323a4.685,4.685,0,0,1,1.961-3.869A28.809,28.809,0,0,0,60.154,45.717Z" fill="#f8c460"/>
      <path id="Trazado_156522" data-name="Trazado 156522" d="M39.632,70.534a4.9,4.9,0,0,0-2.5-.787A28.756,28.756,0,0,1,19.269,19.528,28.831,28.831,0,0,0,29.913,74.56a4.9,4.9,0,0,1,2.5.787l13.3,8.869V74.591Z" fill="#faaf42"/>
      <path id="Trazado_156523" data-name="Trazado 156523" d="M121.584,16.865A29.146,29.146,0,0,0,93.84,45.041a28.8,28.8,0,0,0,12.445,24.4,4.7,4.7,0,0,1,1.992,3.881v10.9l13.3-8.864a4.889,4.889,0,0,1,2.51-.792,28.875,28.875,0,0,0-2.5-57.7Z" fill="#f8c460"/>
      <path id="Trazado_156524" data-name="Trazado 156524" d="M115.5,75.14V79.4l-7.218,4.812v-10.9a4.731,4.731,0,0,0-2.009-3.9A28.874,28.874,0,0,1,93.841,45.043a29.177,29.177,0,0,1,16.891-25.529,28.607,28.607,0,0,0-1.251,41.742A19.731,19.731,0,0,1,115.5,75.14Z" fill="#faaf42"/>
      <path id="Trazado_156525" data-name="Trazado 156525" d="M60.154,84.216H93.84v21.656A16.843,16.843,0,0,1,77,122.715h0a16.843,16.843,0,0,1-16.843-16.843Z" fill="#ffd3b6"/>
      <path id="Trazado_156526" data-name="Trazado 156526" d="M81.81,117.9a16.843,16.843,0,0,1-16.843-16.843V84.216H60.154v21.656a16.843,16.843,0,0,0,30.91,9.254A16.754,16.754,0,0,1,81.81,117.9Z" fill="#f9b995"/>
      <path id="Trazado_156527" data-name="Trazado 156527" d="M89.028,74.591h0a4.812,4.812,0,0,0-4.812-4.812H69.779A14.437,14.437,0,0,0,55.342,84.216h0a9.625,9.625,0,0,0,9.625,9.625h6.463A19.25,19.25,0,0,0,85.042,88.2l1.58-1.58h0A7.219,7.219,0,0,0,93.84,93.84h0V79.4A4.812,4.812,0,0,0,89.028,74.591Z" fill="#8e969b"/>
      <path id="Trazado_156528" data-name="Trazado 156528" d="M89.923,83.321l-.07.07a19.249,19.249,0,0,1-13.612,5.638h-6.2a9.841,9.841,0,0,1-9.885-10.046A14.348,14.348,0,0,1,62.267,71.9a14.418,14.418,0,0,0-6.925,12.372,9.694,9.694,0,0,0,9.735,9.569h6.352A19.25,19.25,0,0,0,85.042,88.2l1.58-1.58A7.219,7.219,0,0,0,93.84,93.84V87.154a7.281,7.281,0,0,1-2.108-3.306,1.088,1.088,0,0,0-1.809-.527Z" fill="#778084"/>
      <path id="Trazado_156529" data-name="Trazado 156529" d="M93.84,93.84h2.406a4.812,4.812,0,0,1,4.812,4.812h0a4.812,4.812,0,0,1-4.812,4.812H93.84Z" fill="#ffd3b6"/>
      <path id="Trazado_156530" data-name="Trazado 156530" d="M52.936,93.84h2.406a4.812,4.812,0,0,1,4.812,4.812h0a4.812,4.812,0,0,1-4.812,4.812H52.936Z" transform="translate(113.09 197.306) rotate(180)" fill="#ffd3b6"/>
      <path id="Trazado_156531" data-name="Trazado 156531" d="M62.56,122.714H91.434a19.249,19.249,0,0,1,19.249,19.249v9.625H43.311v-9.625A19.249,19.249,0,0,1,62.56,122.714Z" fill="#f8c460"/>
      <path id="Trazado_156532" data-name="Trazado 156532" d="M60.154,144.37a9.625,9.625,0,0,1-9.625-9.625h0a19.154,19.154,0,0,1,2.526-9.51,19.232,19.232,0,0,0-9.745,16.729v9.625h67.373V144.37Z" fill="#faaf42"/>
      <path id="Trazado_156533" data-name="Trazado 156533" d="M46.307,21.085a28.251,28.251,0,0,0-2.991,12.031A28.8,28.8,0,0,0,57.2,58.33,28.708,28.708,0,0,0,46.307,21.083Z" fill="#faaf42"/>
      <path id="Trazado_156534" data-name="Trazado 156534" d="M107.688,21.085a28.251,28.251,0,0,1,2.991,12.031A28.8,28.8,0,0,1,96.8,58.33a28.708,28.708,0,0,1,10.893-37.247Z" fill="#faaf42"/>
      <path id="Trazado_156535" data-name="Trazado 156535" d="M105.871,31.28A28.874,28.874,0,1,0,68.677,58.91,4.978,4.978,0,0,1,71.511,61L77,69.779l5.484-8.773a5,5,0,0,1,2.842-2.1A28.874,28.874,0,0,0,105.871,31.28Z" fill="#f8c460"/>
      <path id="Trazado_156536" data-name="Trazado 156536" d="M98.653,22a1.2,1.2,0,0,1-1.08-.676A22.885,22.885,0,0,0,93,14.974a1.2,1.2,0,1,1,1.684-1.718,25.2,25.2,0,0,1,5.053,7.014,1.2,1.2,0,0,1-.553,1.61A1.22,1.22,0,0,1,98.653,22Z" fill="#fff"/>
      <path id="Trazado_156537" data-name="Trazado 156537" d="M82.835,60.351A28.706,28.706,0,0,0,71.321,49.877,28.838,28.838,0,0,1,55.342,23.494,28.511,28.511,0,0,1,60.635,7.6,28.773,28.773,0,0,0,68.686,58.91,4.978,4.978,0,0,1,71.521,61L77,69.779l5.484-8.773a4.453,4.453,0,0,1,.421-.546Z" fill="#faaf42"/>
      <path id="Trazado_156538" data-name="Trazado 156538" d="M45.717,86.622a2.406,2.406,0,0,0,2.406-2.406V73.323a2.274,2.274,0,0,1,.926-1.891,31.47,31.47,0,0,0,7.616-7.459,2.406,2.406,0,1,0-3.9-2.815,26.747,26.747,0,0,1-6.453,6.321,7.081,7.081,0,0,0-3,5.845v6.4l-9.562-6.376a7.31,7.31,0,0,0-3.722-1.189A26.55,26.55,0,0,1,4.832,44.683,26.884,26.884,0,0,1,30.246,19.269a26.227,26.227,0,0,1,9.865,1.487,2.406,2.406,0,1,0,1.6-4.538,31.28,31.28,0,1,0-11.9,60.746,2.517,2.517,0,0,1,1.278.385l13.3,8.869A2.406,2.406,0,0,0,45.717,86.622Z"/>
      <path id="Trazado_156539" data-name="Trazado 156539" d="M123.932,14.459a31.28,31.28,0,0,0-11.643,1.759,2.406,2.406,0,1,0,1.6,4.538,26.5,26.5,0,0,1,9.865-1.487,26.884,26.884,0,0,1,25.407,25.414,26.55,26.55,0,0,1-25.193,27.474,7.31,7.31,0,0,0-3.725,1.189l-9.562,6.376v-6.4a7.086,7.086,0,0,0-3-5.849,26.708,26.708,0,0,1-6.456-6.321,2.406,2.406,0,1,0-3.9,2.815,31.437,31.437,0,0,0,7.618,7.459,2.276,2.276,0,0,1,.924,1.891v10.9a2.406,2.406,0,0,0,3.742,2l13.3-8.869a2.517,2.517,0,0,1,1.28-.385,31.28,31.28,0,0,0-.262-62.5Z"/>
      <path id="Trazado_156540" data-name="Trazado 156540" d="M78.99,14.437a5.231,5.231,0,0,1,5.226,5.224,2.406,2.406,0,0,1-.705,1.7l-2.577,2.577a21.511,21.511,0,0,0-6.343,15.31V40.9a2.406,2.406,0,0,0,4.812,0V39.252a16.742,16.742,0,0,1,4.933-11.908l2.577-2.577a7.178,7.178,0,0,0,2.115-5.106A10.048,10.048,0,0,0,78.99,9.625H75.005A10.048,10.048,0,0,0,64.966,19.661v1.995a2.406,2.406,0,1,0,4.812,0V19.661a5.231,5.231,0,0,1,5.226-5.224Z"/>
      <circle id="Elipse_4888" data-name="Elipse 4888" cx="2.406" cy="2.406" r="2.406" transform="translate(74.591 48.123)"/>
      <path id="Trazado_156541" data-name="Trazado 156541" d="M33.686,53.689a16.742,16.742,0,0,1,4.933-11.908L41.2,39.2A7.178,7.178,0,0,0,43.311,34.1,10.048,10.048,0,0,0,33.272,24.062H29.288A10.048,10.048,0,0,0,19.249,34.1v1.995a2.406,2.406,0,0,0,4.812,0V34.1a5.231,5.231,0,0,1,5.226-5.224h3.985A5.231,5.231,0,0,1,38.5,34.1a2.406,2.406,0,0,1-.705,1.7l-2.577,2.577a21.511,21.511,0,0,0-6.343,15.31v1.653a2.406,2.406,0,0,0,4.812,0Z"/>
      <circle id="Elipse_4889" data-name="Elipse 4889" cx="2.406" cy="2.406" r="2.406" transform="translate(28.874 62.56)"/>
      <path id="Trazado_156542" data-name="Trazado 156542" d="M113.09,38.5a2.406,2.406,0,0,0,2.406-2.406V34.1a5.231,5.231,0,0,1,5.226-5.224h3.985a5.231,5.231,0,0,1,5.226,5.224,2.406,2.406,0,0,1-.705,1.7l-2.577,2.577a21.511,21.511,0,0,0-6.343,15.31v1.653a2.406,2.406,0,0,0,4.812,0V53.689a16.742,16.742,0,0,1,4.933-11.908L132.63,39.2a7.178,7.178,0,0,0,2.115-5.106,10.048,10.048,0,0,0-10.039-10.036h-3.985A10.048,10.048,0,0,0,110.684,34.1v1.995A2.406,2.406,0,0,0,113.09,38.5Z"/>
      <circle id="Elipse_4890" data-name="Elipse 4890" cx="2.406" cy="2.406" r="2.406" transform="translate(120.308 62.56)"/>
      <circle id="Elipse_4891" data-name="Elipse 4891" cx="2.406" cy="2.406" r="2.406" transform="translate(67.373 98.653)"/>
      <circle id="Elipse_4892" data-name="Elipse 4892" cx="2.406" cy="2.406" r="2.406" transform="translate(81.81 98.653)"/>
      <path id="Trazado_156543" data-name="Trazado 156543" d="M91.434,120.308H89.687a19.192,19.192,0,0,0,6.559-14.437,7.219,7.219,0,1,0,0-14.437V79.4A7.219,7.219,0,0,0,91.123,72.5a7.218,7.218,0,0,0-6.908-5.123H81.328l3.181-5.089a2.623,2.623,0,0,1,1.5-1.071A31.269,31.269,0,0,0,75.765.024,31.67,31.67,0,0,0,45.717,30.669,31.374,31.374,0,0,0,67.984,61.213a2.618,2.618,0,0,1,1.487,1.064l3.2,5.1H69.779A16.862,16.862,0,0,0,52.936,84.216a11.915,11.915,0,0,0,2.745,7.555,7.2,7.2,0,0,0,2.067,14.1,19.192,19.192,0,0,0,6.559,14.437H62.56A21.68,21.68,0,0,0,40.9,141.964v9.625a2.406,2.406,0,0,0,2.406,2.406h67.373a2.406,2.406,0,0,0,2.406-2.406v-9.625A21.68,21.68,0,0,0,91.434,120.308ZM69.37,56.605A26.542,26.542,0,0,1,50.529,30.76,26.793,26.793,0,0,1,75.948,4.832c.356-.019.705-.019,1.049-.019A26.457,26.457,0,0,1,84.63,56.605a7.425,7.425,0,0,0-4.189,3.128L77,65.238l-3.446-5.51a7.4,7.4,0,0,0-4.182-3.123ZM98.653,98.653a2.406,2.406,0,0,1-2.406,2.406V96.247A2.406,2.406,0,0,1,98.653,98.653ZM69.779,72.185H84.216a2.406,2.406,0,0,1,2.406,2.406A2.406,2.406,0,0,0,89.028,77,2.406,2.406,0,0,1,91.434,79.4V90.787a4.812,4.812,0,0,1-2.406-4.165,2.406,2.406,0,0,0-4.107-1.7L83.34,86.5a16.737,16.737,0,0,1-11.908,4.933H64.966a7.219,7.219,0,0,1-7.219-7.218A12.045,12.045,0,0,1,69.779,72.185ZM55.342,98.653a2.406,2.406,0,0,1,2.406-2.406v4.812A2.406,2.406,0,0,1,55.342,98.653Zm7.218,7.218V96.006a12.031,12.031,0,0,0,2.406.241h6.465a21.5,21.5,0,0,0,13.932-5.072,9.661,9.661,0,0,0,6.071,4.755v9.942a14.437,14.437,0,0,1-28.874,0Zm45.717,43.311h-4.812v-7.219a2.406,2.406,0,0,0-4.812,0v7.219H55.342v-7.219a2.406,2.406,0,0,0-4.812,0v7.219H45.717v-7.219A16.865,16.865,0,0,1,62.56,125.121H91.434a16.865,16.865,0,0,1,16.843,16.843Z"/>
    </g>
  </g>
</svg>
