<svg xmlns="http://www.w3.org/2000/svg" width="154" height="154" viewBox="0 0 154 154">
  <g id="Grupo_108914" data-name="Grupo 108914" transform="translate(783 3833)">
    <circle id="Elipse_4715" data-name="Elipse 4715" cx="77" cy="77" r="77" transform="translate(-783 -3833)" fill="#ffc967"/>
    <g id="silencio" transform="translate(-789.177 -3839.181)">
      <g id="Grupo_108598" data-name="Grupo 108598">
        <path id="Trazado_156707" data-name="Trazado 156707" d="M38.014,92.352V54.509c0-25.268,20.679-46.486,45.942-46.055A45.216,45.216,0,0,1,128.339,53.61V92.352a7.8,7.8,0,0,1-7.8,7.8H45.812A7.8,7.8,0,0,1,38.014,92.352Z" fill="#537980"/>
        <path id="Trazado_156708" data-name="Trazado 156708" d="M31.441,112.419H134.912v14.3a31.191,31.191,0,0,1-31.191,31.191H62.632a31.191,31.191,0,0,1-31.191-31.191v-14.3Z" transform="translate(166.354 270.325) rotate(180)" fill="#3ea7fb"/>
        <g id="Grupo_108595" data-name="Grupo 108595">
          <path id="Trazado_156709" data-name="Trazado 156709" d="M67.581,88.862H98.773V112.9a15.6,15.6,0,1,1-31.191,0Z" fill="#e18b87"/>
          <path id="Trazado_156710" data-name="Trazado 156710" d="M117.941,52.192h5.2a7.8,7.8,0,1,1,0,15.6h-5.2Z" fill="#e18b87"/>
          <path id="Trazado_156711" data-name="Trazado 156711" d="M35.415,52.192h5.2a7.8,7.8,0,0,1,0,15.6h-5.2Z" transform="translate(83.828 119.979) rotate(180)" fill="#e18b87"/>
        </g>
        <path id="Trazado_156712" data-name="Trazado 156712" d="M120.542,54.156V69.34c0,20.951-17.146,38.6-38.092,38.2A37.362,37.362,0,0,1,45.812,70.181V54.156a7.8,7.8,0,0,1,7.8-7.8H66.165a22.458,22.458,0,0,0,17.012-7.8,22.459,22.459,0,0,0,17.013,7.8h12.555a7.8,7.8,0,0,1,7.8,7.8Z" fill="#f8b098"/>
        <g id="Grupo_108596" data-name="Grupo 108596">
          <circle id="Elipse_4904" data-name="Elipse 4904" cx="3.899" cy="3.899" r="3.899" transform="translate(96.645 58.892)" fill="#e18b87"/>
          <circle id="Elipse_4905" data-name="Elipse 4905" cx="3.899" cy="3.899" r="3.899" transform="translate(61.911 58.892)" fill="#e18b87"/>
        </g>
        <g id="Grupo_108597" data-name="Grupo 108597">
          <rect id="Rect치ngulo_36537" data-name="Rect치ngulo 36537" width="7.797" height="23.39" rx="3.898" transform="translate(88.69 75.167) rotate(45)" fill="#d63922"/>
          <rect id="Rect치ngulo_36538" data-name="Rect치ngulo 36538" width="7.797" height="23.39" rx="3.898" transform="translate(72.134 80.698) rotate(-45)" fill="#f5502f"/>
        </g>
      </g>
      <g id="Grupo_108599" data-name="Grupo 108599">
        <path id="Trazado_156713" data-name="Trazado 156713" d="M100.771,23.3a35.611,35.611,0,0,1,4.679,3.276,2.276,2.276,0,0,0,2.9-3.509,40.061,40.061,0,0,0-5.28-3.7,2.274,2.274,0,1,0-2.3,3.925Z" fill="#0b0410"/>
        <path id="Trazado_156714" data-name="Trazado 156714" d="M31.982,137.352a2.308,2.308,0,0,0,.617.084,2.276,2.276,0,0,0,2.187-1.658,28.453,28.453,0,0,1,1.371-3.817A2.274,2.274,0,1,0,32,130.124a33.3,33.3,0,0,0-1.588,4.419,2.274,2.274,0,0,0,1.571,2.81Z" fill="#0b0410"/>
        <path id="Trazado_156715" data-name="Trazado 156715" d="M103.724,110.144h-2.677V105.4a39.7,39.7,0,0,0,4.809-2.98h14.686a10.084,10.084,0,0,0,10.072-10.072V76.8a2.274,2.274,0,0,0-4.549,0V92.352a5.53,5.53,0,0,1-5.523,5.523h-9.422A41.1,41.1,0,0,0,122.8,70.064h.343a10.054,10.054,0,0,0,7.464-16.811A47.646,47.646,0,0,0,84,6.186,46.61,46.61,0,0,0,50.486,19.658a49.055,49.055,0,0,0-14.715,33.57,10.014,10.014,0,0,0-.031,13.5V92.352a10.084,10.084,0,0,0,10.072,10.072H60.247a39.982,39.982,0,0,0,5.059,3.085v4.635H62.63a33.642,33.642,0,0,0-26.852,13.494,2.275,2.275,0,0,0,3.648,2.719,28.686,28.686,0,0,1,23.2-11.664H65.4a17.869,17.869,0,0,0,35.558,0h2.768a28.95,28.95,0,0,1,28.917,28.917v12.022H113.8V142.311a2.274,2.274,0,1,0-4.549,0v13.321H57.109V142.311a2.274,2.274,0,1,0-4.549,0v13.321H33.713V143.1a2.274,2.274,0,0,0-2.242-2.306,2.32,2.32,0,0,0-2.307,2.243v14.869a2.274,2.274,0,0,0,2.274,2.274H134.916a2.274,2.274,0,0,0,2.274-2.274v-14.3a33.5,33.5,0,0,0-33.466-33.466Zm23.319-46.25a5.488,5.488,0,0,1-3.9,1.621h-.329V54.468h.325a5.53,5.53,0,0,1,5.523,5.523A5.447,5.447,0,0,1,127.044,63.894ZM53.662,22.914A41.9,41.9,0,0,1,83.918,10.735a43.092,43.092,0,0,1,42.007,39.584,10,10,0,0,0-2.784-.4h-1.272a10.076,10.076,0,0,0-9.125-5.835H100.189A20.161,20.161,0,0,1,84.9,37.075a2.277,2.277,0,0,0-3.447,0,20.1,20.1,0,0,1-13.223,6.9A2.275,2.275,0,1,0,68.7,48.5a24.613,24.613,0,0,0,14.482-6.655,24.706,24.706,0,0,0,17.012,6.784h12.555a5.53,5.53,0,0,1,5.523,5.523V69.34A36.52,36.52,0,0,1,107.35,95.231a34.069,34.069,0,0,1-24.858,10.04,35.262,35.262,0,0,1-34.405-35.09V54.156a5.53,5.53,0,0,1,5.523-5.523H57.4a2.274,2.274,0,1,0,0-4.549H53.61a10.076,10.076,0,0,0-9.125,5.835H43.213a10.027,10.027,0,0,0-2.71.381A44.552,44.552,0,0,1,53.662,22.914ZM39.3,63.886a5.436,5.436,0,0,1-1.614-3.9,5.53,5.53,0,0,1,5.523-5.523h.325V65.511h-.325A5.49,5.49,0,0,1,39.3,63.886Zm.985,28.466V69.633a10.091,10.091,0,0,0,2.924.43h.325v.117a39.535,39.535,0,0,0,11.389,27.7H45.812A5.53,5.53,0,0,1,40.289,92.352ZM96.5,112.9a13.321,13.321,0,0,1-26.643,0V107.48A39.061,39.061,0,0,0,82.4,109.82h.745A38.414,38.414,0,0,0,96.5,107.425Z" fill="#0b0410"/>
        <path id="Trazado_156716" data-name="Trazado 156716" d="M100.544,68.963a6.173,6.173,0,1,0-6.173-6.173,6.173,6.173,0,0,0,6.173,6.173Zm0-7.8a1.625,1.625,0,1,1-1.625,1.625A1.625,1.625,0,0,1,100.544,61.165Z" fill="#0b0410"/>
        <path id="Trazado_156717" data-name="Trazado 156717" d="M65.81,68.963a6.173,6.173,0,1,0-6.173-6.173A6.173,6.173,0,0,0,65.81,68.963Zm0-7.8a1.625,1.625,0,1,1-1.625,1.625A1.625,1.625,0,0,1,65.81,61.165Z" fill="#0b0410"/>
        <path id="Trazado_156718" data-name="Trazado 156718" d="M73.3,85.061l1.149,1.149L73.3,87.359a6.173,6.173,0,1,0,8.73,8.731l1.148-1.149,1.149,1.149a6.173,6.173,0,1,0,8.729-8.73l-1.15-1.148,1.149-1.149a6.173,6.173,0,1,0-8.73-8.731l-1.148,1.149-1.149-1.149a6.173,6.173,0,1,0-8.729,8.73Zm5.514,7.812a1.658,1.658,0,0,1-2.3,0,1.622,1.622,0,0,1,0-2.3l1.149-1.149,2.3,2.3Zm8.728-13.325a1.664,1.664,0,0,1,2.3,0,1.622,1.622,0,0,1,0,2.3l-1.149,1.149-2.3-2.3Zm-11.026,0a1.626,1.626,0,0,1,2.3,0L89.841,90.577a1.622,1.622,0,0,1,0,2.3,1.662,1.662,0,0,1-2.3,0L76.516,81.844a1.622,1.622,0,0,1,0-2.3Z" fill="#0b0410"/>
      </g>
    </g>
  </g>
</svg>
