<svg xmlns="http://www.w3.org/2000/svg" width="154" height="154" viewBox="0 0 154 154">
  <g id="Grupo_108908" data-name="Grupo 108908" transform="translate(2888 3833)">
    <circle id="Elipse_4710" data-name="Elipse 4710" cx="77" cy="77" r="77" transform="translate(-2888 -3833)" fill="#ffc967"/>
    <g id="duda" transform="translate(-2890.484 -3835.484)">
      <g id="Grupo_108415" data-name="Grupo 108415">
        <path id="Trazado_156443" data-name="Trazado 156443" d="M34.774,101.839l1.913-5.266,16.816,8.42a2.188,2.188,0,0,1,.05.422l-5.713,8.619a10.727,10.727,0,0,1-18.6-.4L18.083,93.195A2.459,2.459,0,0,0,15.922,91.9H9.935a5,5,0,0,1-4.968-4.968,4.982,4.982,0,0,1,4.968-4.968H20.244A7.449,7.449,0,0,1,26.9,86.091Z" fill="#f0d0b4"/>
        <path id="Trazado_156444" data-name="Trazado 156444" d="M124.194,101.839l7.874-15.748a7.449,7.449,0,0,1,6.657-4.123h10.308A4.982,4.982,0,0,1,154,86.935a5,5,0,0,1-4.968,4.968h-5.986a2.459,2.459,0,0,0-2.161,1.292l-11.153,20.442a10.727,10.727,0,0,1-18.6.4l-5.713-8.619a2.187,2.187,0,0,1,.05-.422l16.816-8.42Z" fill="#f0d0b4"/>
        <path id="Trazado_156445" data-name="Trazado 156445" d="M53.5,104.993l-16.816-8.42,3.254-8.917A24.761,24.761,0,0,1,58.4,71.784l6.185-1.242,2.484,16.394,4.968-2.981L74.516,91.9l-4.968,34.774,9.935,14.9,9.935-14.9L84.452,91.9l2.484-7.948L91.9,86.935l2.484-16.394,6.185,1.242a24.761,24.761,0,0,1,18.455,15.872l3.254,8.917-16.816,8.42a2.188,2.188,0,0,0-.05.422c-.571,6.533-1.093,14.406-1.093,21.262A155.691,155.691,0,0,0,106.806,154H52.161a155.691,155.691,0,0,0,2.484-27.323c0-6.855-.522-14.729-1.093-21.262a2.187,2.187,0,0,0-.05-.422Z" fill="#fcd770"/>
        <path id="Trazado_156446" data-name="Trazado 156446" d="M84.452,91.9l4.968,34.774-9.935,14.9-9.935-14.9L74.516,91.9Z" fill="#b4dd7f"/>
        <path id="Trazado_156447" data-name="Trazado 156447" d="M86.935,83.955,84.452,91.9H74.516l-2.484-7.948,7.452-4.471Z" fill="#a0d468"/>
        <path id="Trazado_156448" data-name="Trazado 156448" d="M94.387,70.542,91.9,86.935l-4.968-2.981-7.452-4.471,9.935-9.935Z" fill="#e6e9ed"/>
        <path id="Trazado_156449" data-name="Trazado 156449" d="M79.484,79.484l-7.452,4.471-4.968,2.981L64.581,70.542l4.968-.994Z" fill="#e6e9ed"/>
        <path id="Trazado_156450" data-name="Trazado 156450" d="M37.258,52.161V62.1h-14.9v4.968l-14.9-9.935,14.9-9.935v4.968Z" fill="#ff826e"/>
        <path id="Trazado_156451" data-name="Trazado 156451" d="M151.516,57.129l-14.9,9.935V62.1h-14.9V52.161h14.9V47.194Z" fill="#ff826e"/>
        <path id="Trazado_156452" data-name="Trazado 156452" d="M59.613,32.29A7.3,7.3,0,0,0,54.67,34.2l-.025-.025s-.621-1.714-1.242-4.049a32.371,32.371,0,0,1-1.242-7.775A7.463,7.463,0,0,1,59.613,14.9L61.55,12.32a18.352,18.352,0,0,1,14.7-7.352,17.982,17.982,0,0,1,6.259,1.118l16.344,5.936a12.081,12.081,0,0,1,7.948,11.326,11.707,11.707,0,0,1-.373,2.931L104.323,34.2a7.365,7.365,0,0,0-4.968-1.913H96.871c-6.21,0-13.04-2.484-18.331-4.968a77.567,77.567,0,0,1-8.992-4.968,16.894,16.894,0,0,0-6.98,9.935Z" fill="#656d78"/>
        <g id="Grupo_108414" data-name="Grupo 108414">
          <path id="Trazado_156453" data-name="Trazado 156453" d="M87.109,60.333l2.31,9.215-9.935,9.935-9.935-9.935,2.31-9.215a17.368,17.368,0,0,0,15.251,0Z" fill="#f0d0b4"/>
          <path id="Trazado_156454" data-name="Trazado 156454" d="M104.621,45.008a7.434,7.434,0,0,1-5.266,2.186H96.672a13.777,13.777,0,0,0,.2-2.484V32.29h2.484a7.447,7.447,0,0,1,5.266,12.717Z" fill="#f0d0b4"/>
          <path id="Trazado_156455" data-name="Trazado 156455" d="M96.871,32.29V44.71a13.776,13.776,0,0,1-.2,2.484,17.236,17.236,0,0,1-9.563,13.14,17.368,17.368,0,0,1-15.251,0A17.236,17.236,0,0,1,62.3,47.194a13.777,13.777,0,0,1-.2-2.484v-8.42a17.792,17.792,0,0,1,.472-4,16.894,16.894,0,0,1,6.98-9.935,77.568,77.568,0,0,0,8.992,4.968C83.831,29.806,90.661,32.29,96.871,32.29Z" fill="#f0d0b4"/>
          <path id="Trazado_156456" data-name="Trazado 156456" d="M62.1,44.71a13.777,13.777,0,0,0,.2,2.484H59.613a7.463,7.463,0,0,1-7.452-7.452,7.52,7.52,0,0,1,7.452-7.452h2.956a17.792,17.792,0,0,0-.472,4Z" fill="#f0d0b4"/>
        </g>
      </g>
      <g id="Grupo_108416" data-name="Grupo 108416">
        <path id="Trazado_156457" data-name="Trazado 156457" d="M24.839,64.581h14.9v-14.9h-14.9V42.551L2.973,57.129,24.839,71.707Zm-4.968-2.158L11.93,57.129l7.941-5.293v2.809h14.9v4.968h-14.9Z"/>
        <path id="Trazado_156458" data-name="Trazado 156458" d="M134.129,71.707l21.866-14.578L134.129,42.551v7.126h-14.9v14.9h14.9Zm-9.935-12.094V54.645h14.9V51.836l7.941,5.293L139.1,62.422V59.613Z"/>
        <path id="Trazado_156459" data-name="Trazado 156459" d="M149.032,79.484h-10.3a9.881,9.881,0,0,0-8.887,5.492l-5.293,10.586-3.189-8.768A27.482,27.482,0,0,0,101.046,69.34l-9.6-1.92L89.978,61.55A19.916,19.916,0,0,0,98.7,49.677h.656a9.945,9.945,0,0,0,9.935-9.935,9.833,9.833,0,0,0-2.226-6.187l1.791-6.674a14.544,14.544,0,0,0-9.141-17.2L83.374,3.741a20.843,20.843,0,0,0-23.805,7.084L58.306,12.5a9.952,9.952,0,0,0-8.629,9.851,41.6,41.6,0,0,0,2.163,11.274,9.837,9.837,0,0,0-2.163,6.113,9.945,9.945,0,0,0,9.935,9.935h.653A19.906,19.906,0,0,0,68.987,61.55L67.519,67.42l-9.6,1.92A27.482,27.482,0,0,0,37.6,86.794l-3.189,8.768L29.118,84.976a9.875,9.875,0,0,0-8.885-5.492H9.935a7.452,7.452,0,1,0,0,14.9h5.976l11.153,20.445A13.191,13.191,0,0,0,49.9,115.4l1.731-2.6c.308,4.642.532,9.491.532,13.877a155.012,155.012,0,0,1-2.434,26.836l-.594,2.971h60.7l-.594-2.971a155.011,155.011,0,0,1-2.434-26.836c0-4.389.224-9.238.534-13.882l1.669,2.511a13.192,13.192,0,0,0,22.894-.474l11.153-20.445h5.976a7.452,7.452,0,1,0,0-14.9ZM91.575,72.512,90,82.9,83.49,78.99l6.746-6.746ZM76.67,94.387H82.3l4.528,31.7L79.484,137.1l-7.342-11.013Zm5.956-4.968H76.342L74.986,85.08l4.5-2.7,4.5,2.7ZM99.355,44.71V34.774a4.968,4.968,0,0,1,0,9.935Zm-44.71-4.968a4.973,4.973,0,0,1,4.968-4.968H59.7c-.037.5-.092,1-.092,1.5V44.71A4.973,4.973,0,0,1,54.645,39.742Zm6.11-9.935H59.613a9.844,9.844,0,0,0-3.535.681,32.414,32.414,0,0,1-1.433-8.132,4.973,4.973,0,0,1,4.968-4.968h1.242l2.688-3.582a15.879,15.879,0,0,1,18.132-5.4l16.341,5.941a9.582,9.582,0,0,1,6.031,11.287l-1.292,4.809a9.8,9.8,0,0,0-3.4-.638H96.871c-11.508,0-25.8-9.424-25.947-9.521l-1.376-.917-1.376.919A19.165,19.165,0,0,0,60.755,29.806Zm3.825,14.9V36.277a14.22,14.22,0,0,1,5.084-10.912c3.88,2.372,14.593,8.391,24.722,9.292V44.71a14.9,14.9,0,1,1-29.806,0Zm14.9,19.871a19.858,19.858,0,0,0,5.909-.9l1.277,5.1-7.186,7.183L72.3,68.788l1.277-5.1A19.829,19.829,0,0,0,79.484,64.581ZM68.731,72.246l6.746,6.746L68.965,82.9,67.392,72.514ZM45.7,112.75a8.224,8.224,0,0,1-14.272-.3L20.273,92.01a4.964,4.964,0,0,0-4.362-2.591H9.935a2.484,2.484,0,1,1,0-4.968h10.3A4.945,4.945,0,0,1,24.677,87.2l10.36,20.72,4.444-2.223-2.007-4.011.594-1.629,12.059,6.028Zm33.786,38.766H55.12a161.314,161.314,0,0,0,2.009-24.839c0-14.886-2.479-34.881-2.5-35.082l-4.928.616c.01.082.437,3.54.931,8.567L39.777,95.353l2.494-6.86A22.488,22.488,0,0,1,58.9,74.211l3.619-.723,2.65,17.484,5.44-3.264,1.374,4.4-5.022,35.157,12.529,18.8,12.529-18.793L86.99,92.109l1.374-4.4,5.44,3.264,2.65-17.484,3.619.723A22.483,22.483,0,0,1,116.7,88.5l2.494,6.86-10.852,5.425c.494-5.027.922-8.485.931-8.567l-4.928-.616c-.025.2-2.5,20.194-2.5,35.08a161.315,161.315,0,0,0,2.009,24.839Zm69.548-62.1h-5.976a4.964,4.964,0,0,0-4.362,2.591l-11.153,20.445a8.218,8.218,0,0,1-7.221,4.287,8.327,8.327,0,0,1-7.114-4.088l-4.367-6.57,12.059-6.028.594,1.629-2.007,4.011,4.444,2.223L134.29,87.2a4.943,4.943,0,0,1,4.444-2.747h10.3a2.484,2.484,0,0,1,0,4.968Z"/>
      </g>
    </g>
  </g>
</svg>
