<svg xmlns="http://www.w3.org/2000/svg" width="470" height="154" viewBox="0 0 470 154">
  <g id="Grupo_108923" data-name="Grupo 108923" transform="translate(3350 -631)">
    <path id="Rectángulo_36098" data-name="Rectángulo 36098" d="M0,0H393a77,77,0,0,1,77,77v0a77,77,0,0,1-77,77H0a0,0,0,0,1,0,0V0A0,0,0,0,1,0,0Z" transform="translate(-3350 631)" fill="#6765a9"/>
    <g id="cooperacion" transform="translate(-3245 641)">
      <g id="Grupo_108559" data-name="Grupo 108559">
        <g id="Grupo_108558" data-name="Grupo 108558">
          <g id="Grupo_108541" data-name="Grupo 108541">
            <g id="Grupo_108540" data-name="Grupo 108540">
              <g id="Grupo_108539" data-name="Grupo 108539">
                <g id="Grupo_108538" data-name="Grupo 108538">
                  <g id="Grupo_108537" data-name="Grupo 108537">
                    <g id="Grupo_108536" data-name="Grupo 108536">
                      <g id="Grupo_108533" data-name="Grupo 108533">
                        <g id="Grupo_108532" data-name="Grupo 108532">
                          <path id="Trazado_156663" data-name="Trazado 156663" d="M102.662,104.646,71.885,86.42a3.322,3.322,0,0,1-1.164-4.551L72.3,79.211l-6.227-3.683c-4.107-2.357-6.028-2.793-9.734-1.36L52.3,75.728a8.6,8.6,0,0,1-7.483-.622L34,68.733,18.65,94.648l13.842,8.17a8.594,8.594,0,0,1,2.426,2.147l4.664,6.049c2.576,3.013,7.893,6.922,11.3,8.942L68.69,130.5a4.945,4.945,0,0,0,5.041-8.51l5.562,3.3a4.945,4.945,0,0,0,5.041-8.51l3.708,2.2a4.945,4.945,0,0,0,5.041-8.51l4.538,2.688a4.945,4.945,0,0,0,5.041-8.509Z" fill="#f9eae2"/>
                        </g>
                        <path id="Trazado_156664" data-name="Trazado 156664" d="M102.662,104.646,91.395,97.973a.3.3,0,0,0-.408.412,5.078,5.078,0,0,1-.153,5.449,4.934,4.934,0,0,1-6.6,1.389l-1.685-1a.731.731,0,0,0-1.047.913,6.054,6.054,0,0,1-.191,4.544,3.924,3.924,0,0,1-5.77,1.887l-.732-.433a1.384,1.384,0,0,0-1.585.122.6.6,0,0,0-.6.816,5.081,5.081,0,0,1-.555,4.074,5.18,5.18,0,0,1-7.051,1.652l-1.986-1.176a.878.878,0,0,0-1.14.216.868.868,0,0,0-.158.749,5.087,5.087,0,0,1-4.2,6.307l11.052,6.547a5.023,5.023,0,0,0,6.783-1.52,4.946,4.946,0,0,0-1.639-6.929l5.46,3.235a5.023,5.023,0,0,0,6.783-1.52,4.946,4.946,0,0,0-1.639-6.929l3.708,2.2a4.945,4.945,0,0,0,5.041-8.51l4.436,2.628a5.023,5.023,0,0,0,6.782-1.52,4.945,4.945,0,0,0-1.639-6.928Z" fill="#f5dbcc"/>
                      </g>
                      <g id="Grupo_108534" data-name="Grupo 108534">
                        <path id="Trazado_156665" data-name="Trazado 156665" d="M100,70.28l-8.3,4.826a8.6,8.6,0,0,1-7.483.622l-4.555-1.789a7.32,7.32,0,0,0-4.473-.283l-6.979,1.766a7.32,7.32,0,0,0-5.524,7.1v9.316a2.389,2.389,0,0,0,2.385,2.389,7.188,7.188,0,0,0,7.193-7.188v-.394L102.13,104.33a8.6,8.6,0,0,1,1.886-1.513L115.35,96.2Z" fill="#ecb784"/>
                      </g>
                      <g id="Grupo_108535" data-name="Grupo 108535">
                        <path id="Trazado_156666" data-name="Trazado 156666" d="M38.559,108.306l-2.8,3.9a4.944,4.944,0,1,1-8.032-5.766l2.8-3.9a4.944,4.944,0,1,1,8.032,5.766Z" fill="#ecb784"/>
                        <path id="Trazado_156667" data-name="Trazado 156667" d="M49.682,109.767l-5.891,8.206a4.944,4.944,0,0,1-8.032-5.766L41.649,104a4.944,4.944,0,0,1,8.032,5.766Z" fill="#ecb784"/>
                        <path id="Trazado_156668" data-name="Trazado 156668" d="M57.714,115.534l-5.891,8.206a4.944,4.944,0,1,1-8.032-5.766l5.891-8.206a4.944,4.944,0,1,1,8.032,5.766Z" fill="#ecb784"/>
                        <path id="Trazado_156669" data-name="Trazado 156669" d="M63.129,124.947l-1.959,2.729a4.944,4.944,0,1,1-8.032-5.766L55.1,119.18a4.944,4.944,0,1,1,8.032,5.766Z" fill="#ecb784"/>
                      </g>
                    </g>
                  </g>
                </g>
              </g>
            </g>
          </g>
          <g id="Grupo_108544" data-name="Grupo 108544">
            <g id="Grupo_108542" data-name="Grupo 108542">
              <path id="Trazado_156670" data-name="Trazado 156670" d="M128.671,47.059,93.463,68.046a4.18,4.18,0,0,0-1.456,5.722l16.1,27.176a4.181,4.181,0,0,0,5.737,1.46l15.373-9.163a5.782,5.782,0,0,0,2.821-4.966v-39.3a2.226,2.226,0,0,0-3.366-1.912Z" fill="#407093"/>
            </g>
            <path id="Trazado_156671" data-name="Trazado 156671" d="M115.35,55V80.543A19.39,19.39,0,0,1,105.888,97.2l2.219,3.745a4.181,4.181,0,0,0,5.737,1.46l15.373-9.163a5.782,5.782,0,0,0,2.821-4.966v-39.3a2.226,2.226,0,0,0-3.366-1.912Z" fill="#365e7d"/>
            <g id="Grupo_108543" data-name="Grupo 108543">
              <path id="Trazado_156672" data-name="Trazado 156672" d="M5.329,47.059,40.538,68.046a4.18,4.18,0,0,1,1.456,5.722l-16.1,27.176a4.181,4.181,0,0,1-5.737,1.46L4.784,93.24a5.782,5.782,0,0,1-2.821-4.966v-39.3a2.226,2.226,0,0,1,3.366-1.912Z" fill="#407093"/>
            </g>
          </g>
          <g id="Grupo_108557" data-name="Grupo 108557">
            <g id="Grupo_108556" data-name="Grupo 108556">
              <g id="Grupo_108555" data-name="Grupo 108555">
                <g id="Grupo_108554" data-name="Grupo 108554">
                  <g id="Grupo_108553" data-name="Grupo 108553">
                    <g id="Grupo_108552" data-name="Grupo 108552">
                      <g id="Grupo_108551" data-name="Grupo 108551">
                        <g id="Grupo_108550" data-name="Grupo 108550">
                          <g id="Grupo_108549" data-name="Grupo 108549">
                            <g id="Grupo_108548" data-name="Grupo 108548">
                              <g id="Grupo_108547" data-name="Grupo 108547">
                                <g id="Grupo_108546" data-name="Grupo 108546">
                                  <path id="Trazado_156673" data-name="Trazado 156673" d="M89.5,50.028h-45A5.426,5.426,0,0,1,39.073,44.6V17.827A5.426,5.426,0,0,1,44.5,12.4h45a5.426,5.426,0,0,1,5.426,5.426V44.6A5.426,5.426,0,0,1,89.5,50.028Z" fill="#ddb7a0"/>
                                  <g id="Grupo_108545" data-name="Grupo 108545">
                                    <path id="Trazado_156674" data-name="Trazado 156674" d="M89.5,12.4H72.943a5.426,5.426,0,0,1,5.426,5.426V44.6a5.426,5.426,0,0,1-5.426,5.426H89.5A5.426,5.426,0,0,0,94.927,44.6V17.827A5.426,5.426,0,0,0,89.5,12.4Z" fill="#d6a889"/>
                                    <path id="Trazado_156675" data-name="Trazado 156675" d="M94.927,20.15V17.827A5.426,5.426,0,0,0,89.5,12.4h-45a5.426,5.426,0,0,0-5.426,5.426V20.15a9.833,9.833,0,0,0,9.833,9.833H85.094A9.833,9.833,0,0,0,94.927,20.15Z" fill="#cc9675"/>
                                    <path id="Trazado_156676" data-name="Trazado 156676" d="M78.369,17.827V29.982h6.725a9.833,9.833,0,0,0,9.833-9.833V17.826A5.426,5.426,0,0,0,89.5,12.4H72.943A5.427,5.427,0,0,1,78.369,17.827Z" fill="#c4845c"/>
                                  </g>
                                </g>
                              </g>
                            </g>
                          </g>
                        </g>
                      </g>
                    </g>
                  </g>
                </g>
              </g>
            </g>
          </g>
        </g>
      </g>
      <g id="Grupo_108560" data-name="Grupo 108560">
        <path id="Trazado_156677" data-name="Trazado 156677" d="M127.666,45.373,92.458,66.36a6.157,6.157,0,0,0-2.592,7.474,6.582,6.582,0,0,1-4.936.068l-4.555-1.789a9.226,9.226,0,0,0-5.672-.359l-6.978,1.766q-.406.1-.8.239c-4.263-2.434-6.8-3.162-11.3-1.422L51.588,73.9a6.6,6.6,0,0,1-5.778-.483l-1.349-.8a6.157,6.157,0,0,0-2.918-6.26L6.334,45.373A4.188,4.188,0,0,0,0,48.971v39.3a7.78,7.78,0,0,0,3.779,6.652l15.373,9.164a6.14,6.14,0,0,0,8.315-1.958l.657.388L26.131,105.3a6.907,6.907,0,0,0,6.814,10.829,6.9,6.9,0,0,0,8.035,5.763,6.906,6.906,0,0,0,9.679,5.262,6.909,6.909,0,0,0,11.866,1.983l5.163,3.059a6.908,6.908,0,0,0,10.4-5.334l.2.119a6.914,6.914,0,0,0,10.424-5.6,6.919,6.919,0,0,0,8.737-6.117,6.908,6.908,0,0,0,7.868-10.936l2.024-1.182a6.144,6.144,0,0,0,7.5.944l3.716-2.215a1.963,1.963,0,1,0-2.01-3.372l-3.716,2.215a2.218,2.218,0,0,1-2.631-.266C110.2,100.341,93.7,72.767,93.7,72.767a2.221,2.221,0,0,1,.772-3.035l35.209-20.987a.262.262,0,0,1,.4.226v39.3a3.837,3.837,0,0,1-1.863,3.28L124.5,93.766a1.963,1.963,0,1,0,2.01,3.372l3.711-2.212A7.78,7.78,0,0,0,134,88.274v-39.3a4.188,4.188,0,0,0-6.334-3.6Zm-52,30.186a5.329,5.329,0,0,1,3.274.207L83.5,77.559a10.489,10.489,0,0,0,8.3-.288l13.384,22.592-2.169,1.267a10.51,10.51,0,0,0-1.132.774L73.259,84.952A1.963,1.963,0,0,0,70.3,86.641v.394a5.225,5.225,0,0,1-5.225,5.225.438.438,0,0,1-.427-.427V82.519a5.353,5.353,0,0,1,2.875-4.749,1.963,1.963,0,0,0,.252-.123,5.4,5.4,0,0,1,.917-.322Zm-52.821,25.4a2.205,2.205,0,0,1-1.683-.244L5.789,91.554a3.836,3.836,0,0,1-1.863-3.28v-39.3a.241.241,0,0,1,.133-.229.267.267,0,0,1,.133-.038.251.251,0,0,1,.132.041L39.533,69.732a2.221,2.221,0,0,1,.772,3.035l-16.1,27.176a2.2,2.2,0,0,1-1.361,1.019Zm9.38,11.3a2.981,2.981,0,0,1-2.9-4.68l2.8-3.9a2.983,2.983,0,0,1,.219-.27,1.971,1.971,0,0,0,.166-.168,2.981,2.981,0,0,1,4.459,3.915l0,.007-2.8,3.894a2.961,2.961,0,0,1-1.938,1.2Zm5.811,5.246a2.981,2.981,0,0,1-.683-4.16l2.8-3.9h0l3.09-4.3a2.962,2.962,0,0,1,1.939-1.2,3.006,3.006,0,0,1,.489-.04,2.982,2.982,0,0,1,2.415,4.721L42.2,116.829a2.985,2.985,0,0,1-4.16.683ZM48.29,123.8a2.981,2.981,0,0,1-2.9-4.68l0-.007,5.887-8.2a2.981,2.981,0,1,1,4.843,3.477L50.228,122.6a2.962,2.962,0,0,1-1.939,1.2Zm7.125,3.415a2.981,2.981,0,0,1-.683-4.16l.006-.008,1.955-2.723a2.981,2.981,0,0,1,4.841,3.48l-1.12,1.56-.035.048-.8,1.12a2.984,2.984,0,0,1-4.16.683Zm47.293-16.794a2.986,2.986,0,0,1-4.086,1.046l-4.538-2.688-.006,0-14.054-8.326a1.963,1.963,0,1,0-2,3.377l14.061,8.33h0a2.982,2.982,0,0,1-3.042,5.13l-3.7-2.191-.009-.006-.006,0-10.354-6.134a1.963,1.963,0,0,0-2,3.377l10.354,6.134.006,0a2.983,2.983,0,0,1-3.041,5.132l-5.551-3.289-.01-.007-4.06-2.4a1.963,1.963,0,1,0-2,3.378l4.06,2.4.005,0a2.983,2.983,0,0,1-3.045,5.129l-4.859-2.879a6.9,6.9,0,0,0-4.724-10.706,6.905,6.905,0,0,0-7.616-9.376,6.906,6.906,0,0,0-11.864-3.7,6.9,6.9,0,0,0-9.764-2.58l-1.392-.822L42.827,76.213l.986.581A10.5,10.5,0,0,0,53,77.559L57.044,76a6.357,6.357,0,0,1,6.149.209,9.27,9.27,0,0,0-2.473,6.312v9.316a4.356,4.356,0,0,0,4.346,4.352h.006a9.167,9.167,0,0,0,8.719-6.357l27.34,16.19a1.948,1.948,0,0,0,.279.137,1.987,1.987,0,0,0,.253.178,2.986,2.986,0,0,1,1.045,4.085Z"/>
        <path id="Trazado_156678" data-name="Trazado 156678" d="M44.5,51.991h45A7.4,7.4,0,0,0,96.89,44.6V17.827A7.4,7.4,0,0,0,89.5,10.438H78.668V7.328A6.49,6.49,0,0,0,72.186.845H61.814a6.49,6.49,0,0,0-6.482,6.483v3.11H44.5a7.4,7.4,0,0,0-7.389,7.389V32.576a1.963,1.963,0,0,0,3.926,0V28.928a11.748,11.748,0,0,0,7.87,3.017h1.536V34.1a1.963,1.963,0,1,0,3.926,0V31.945H79.632V34.1a1.963,1.963,0,1,0,3.926,0V31.945h1.536a11.748,11.748,0,0,0,7.87-3.017V44.6A3.467,3.467,0,0,1,89.5,48.065h-45A3.467,3.467,0,0,1,41.036,44.6V41.753a1.963,1.963,0,1,0-3.926,0V44.6A7.4,7.4,0,0,0,44.5,51.991ZM59.258,7.328a2.56,2.56,0,0,1,2.556-2.557H72.186a2.56,2.56,0,0,1,2.556,2.557v3.11H59.258V7.328ZM85.094,28.019H83.558V25.86a1.963,1.963,0,1,0-3.926,0v2.159H54.368V25.86a1.963,1.963,0,0,0-3.926,0v2.159H48.906a7.879,7.879,0,0,1-7.87-7.87V17.827A3.467,3.467,0,0,1,44.5,14.364h45a3.467,3.467,0,0,1,3.463,3.463V20.15a7.879,7.879,0,0,1-7.87,7.87Z"/>
      </g>
    </g>
  </g>
</svg>
