<svg xmlns="http://www.w3.org/2000/svg" width="470" height="154" viewBox="0 0 470 154">
  <g id="Grupo_108922" data-name="Grupo 108922" transform="translate(3350 -105)">
    <path id="Rectángulo_36112" data-name="Rectángulo 36112" d="M0,0H393a77,77,0,0,1,77,77v0a77,77,0,0,1-77,77H0a0,0,0,0,1,0,0V0A0,0,0,0,1,0,0Z" transform="translate(-3350 105)" fill="#6765a9"/>
    <g id="motivacion" transform="translate(-3236.152 115)">
      <g id="Grupo_108531" data-name="Grupo 108531">
        <g id="Grupo_108516" data-name="Grupo 108516">
          <path id="Trazado_156649" data-name="Trazado 156649" d="M6.461,114.616h34.46v8.615H6.461Z" fill="#fcd770"/>
        </g>
        <g id="Grupo_108517" data-name="Grupo 108517">
          <path id="Trazado_156650" data-name="Trazado 156650" d="M6.461,97.386h34.46V106H6.461Z" fill="#fcd770"/>
        </g>
        <g id="Grupo_108518" data-name="Grupo 108518">
          <path id="Trazado_156651" data-name="Trazado 156651" d="M40.921,84.464v4.308H6.461V84.464a4.306,4.306,0,0,1,4.308-4.308H36.614A4.306,4.306,0,0,1,40.921,84.464Z" fill="#fcd770"/>
        </g>
        <g id="Grupo_108519" data-name="Grupo 108519">
          <path id="Trazado_156652" data-name="Trazado 156652" d="M40.921,123.231v4.308a4.306,4.306,0,0,1-4.308,4.308H10.769a4.306,4.306,0,0,1-4.308-4.308v-4.308Z" fill="#ffc729"/>
        </g>
        <g id="Grupo_108520" data-name="Grupo 108520">
          <path id="Trazado_156653" data-name="Trazado 156653" d="M6.461,106h34.46v8.615H6.461Z" fill="#ffc729"/>
        </g>
        <g id="Grupo_108521" data-name="Grupo 108521">
          <path id="Trazado_156654" data-name="Trazado 156654" d="M6.461,88.771h34.46v8.615H6.461Z" fill="#ffc729"/>
        </g>
        <g id="Grupo_108522" data-name="Grupo 108522">
          <path id="Trazado_156655" data-name="Trazado 156655" d="M114.149,101.379v9.245a3.993,3.993,0,0,1-7.565,1.785l-1.05-2.1V97.386h4.623a3.993,3.993,0,0,1,3.993,3.993Z" fill="#d3a06c"/>
        </g>
        <g id="Grupo_108523" data-name="Grupo 108523">
          <path id="Trazado_156656" data-name="Trazado 156656" d="M66.767,123.231v4.623a3.993,3.993,0,0,1-3.993,3.993H53.529a3.993,3.993,0,0,1-1.785-7.565l2.1-1.05Z" fill="#d3a06c"/>
        </g>
        <g id="Grupo_108524" data-name="Grupo 108524">
          <path id="Trazado_156657" data-name="Trazado 156657" d="M78.817,93.66l-12.05,8.034v21.538H53.844V98.086a18.9,18.9,0,0,1,12.923-17.93H90.458a14.711,14.711,0,0,1,4.308,10.4v6.83h10.769v12.923H93.077A13.458,13.458,0,0,1,79.835,99.254Z" fill="#969faa"/>
        </g>
        <g id="Grupo_108525" data-name="Grupo 108525">
          <circle id="Elipse_4900" data-name="Elipse 4900" cx="25.845" cy="25.845" r="25.845" transform="translate(2.154 28.466)" fill="#ffc729"/>
        </g>
        <g id="Grupo_108526" data-name="Grupo 108526">
          <circle id="Elipse_4901" data-name="Elipse 4901" cx="17.23" cy="17.23" r="17.23" transform="translate(10.769 37.081)" fill="#fcd770"/>
        </g>
        <g id="Grupo_108527" data-name="Grupo 108527">
          <path id="Trazado_156658" data-name="Trazado 156658" d="M59.829,17.732a9.444,9.444,0,0,0-5.979,8.58h-.005l-1.7-.848A12.519,12.519,0,0,1,48.9,5.415L51.69,2.621A40.807,40.807,0,0,0,69.938,6.928h1.836A16.527,16.527,0,0,1,88.3,23.458a18.9,18.9,0,0,1-12.923,17.93V32.773a4.308,4.308,0,1,0,0-8.615,4.306,4.306,0,0,0-4.308-4.308H64.613a6.45,6.45,0,0,1-4.784-2.119Z" fill="#b27946"/>
        </g>
        <g id="Grupo_108528" data-name="Grupo 108528">
          <path id="Trazado_156659" data-name="Trazado 156659" d="M66.767,62.816a14.573,14.573,0,0,1-1.785.11H45.229L43.452,50.485l1.306-.2L53.3,49.007l9.159-1.373L75.382,45.7A17.56,17.56,0,0,1,90.458,63.079V80.156H66.767V62.818Z" fill="#ef7385"/>
        </g>
        <g id="Grupo_108529" data-name="Grupo 108529">
          <path id="Trazado_156660" data-name="Trazado 156660" d="M43.452,50.485l1.777,12.441H38.092a5.787,5.787,0,0,1-.859-11.509Z" fill="#f0d0b4"/>
        </g>
        <g id="Grupo_108530" data-name="Grupo 108530">
          <path id="Trazado_156661" data-name="Trazado 156661" d="M62.459,41.5a8.757,8.757,0,0,1-8.615-8.755V26.525c0-.07,0-.143.005-.213a9.444,9.444,0,0,1,5.979-8.58,6.45,6.45,0,0,0,4.784,2.119h6.461a4.306,4.306,0,0,1,4.308,4.308,4.308,4.308,0,1,1,0,8.615V45.7L62.459,47.634Z" fill="#f0d0b4"/>
        </g>
      </g>
      <path id="Trazado_156662" data-name="Trazado 156662" d="M110.156,95.232H96.919V90.555A16.736,16.736,0,0,0,92.612,79.3V63.079A19.708,19.708,0,0,0,77.535,43.921V42.877A21.022,21.022,0,0,0,90.458,23.459,18.706,18.706,0,0,0,71.773,4.775H69.937A38.846,38.846,0,0,1,52.654.695L51.265,0,47.373,3.892a14.673,14.673,0,0,0,3.814,23.5l.5.252v5.1a10.961,10.961,0,0,0,8.615,10.663v2.372l-5.393.809A28,28,0,1,0,13.094,78H10.769a6.469,6.469,0,0,0-6.461,6.461v43.075A6.469,6.469,0,0,0,10.769,134H36.614a6.469,6.469,0,0,0,6.461-6.461V84.464a6.453,6.453,0,0,0-2.535-5.127A28.028,28.028,0,0,0,53.846,65.08H64.613V78.667A21.022,21.022,0,0,0,51.69,98.085V121.9l-.91.455A6.147,6.147,0,0,0,53.53,134h9.243a6.154,6.154,0,0,0,6.147-6.147V102.846l8.363-5.575.431,2.37a15.608,15.608,0,0,0,15.363,12.822H104.2l.455.91a6.147,6.147,0,0,0,11.645-2.749v-9.243a6.154,6.154,0,0,0-6.147-6.147ZM88.3,63.079V78H68.92V64.616A16.75,16.75,0,0,0,76.9,60.141L73.859,57.1a12.471,12.471,0,0,1-8.876,3.677H47.1L45.886,52.3l29.48-4.422A15.481,15.481,0,0,1,88.3,63.079ZM38.092,60.772a3.632,3.632,0,0,1-.539-7.224l4.073-.611,1.119,7.835ZM36.915,49.288a7.889,7.889,0,0,0-6.067,4.58,5.365,5.365,0,0,0-3.925-1.711,1.078,1.078,0,0,1-1.077-1.077V47.85h1.077A1.078,1.078,0,0,1,28,48.926V50h4.308V48.926A5.394,5.394,0,0,0,28,43.651V41.388H23.691v2.154H21.538V51.08a5.391,5.391,0,0,0,5.384,5.384A1.078,1.078,0,0,1,28,57.541v3.231H26.922A1.078,1.078,0,0,1,25.845,59.7V58.618H21.538V59.7a5.394,5.394,0,0,0,4.308,5.276v2.262h4.308V65.08h2.154V62.569a7.917,7.917,0,0,0,5.786,2.511h.45a15.069,15.069,0,1,1,3.389-16.544ZM52.221,23.03a10.359,10.359,0,0,1-1.8-16.092L52.137,5.22a43.2,43.2,0,0,0,17.8,3.862h1.836A14.394,14.394,0,0,1,86.15,23.459,16.719,16.719,0,0,1,77.535,38.1V34.558a6.462,6.462,0,0,0-.278-12.276A6.473,6.473,0,0,0,71.074,17.7H64.613a4.313,4.313,0,0,1-4.308-4.308H56a8.56,8.56,0,0,0,.764,3.539,11.493,11.493,0,0,0-4.541,6.1ZM64.613,43.46a10.932,10.932,0,0,0,2.864-.96l2.407-1.2-1.926-3.853-2.407,1.2A6.6,6.6,0,0,1,56,32.744V26.525a7.244,7.244,0,0,1,3.485-6.22A8.57,8.57,0,0,0,64.613,22h6.461a2.156,2.156,0,0,1,2.154,2.154v2.154h2.154a2.154,2.154,0,1,1,0,4.308H73.228V43.841l-8.615,1.292Zm-56,69v-4.308H38.768v4.308Zm30.153,4.308v4.308H8.615V116.77ZM8.615,103.847V99.54H38.768v4.308Zm0-8.615V90.925H38.768v4.308Zm28,34.46H10.769a2.156,2.156,0,0,1-2.154-2.154v-2.154H38.768v2.154A2.156,2.156,0,0,1,36.614,129.692Zm0-47.383a2.156,2.156,0,0,1,2.154,2.154v2.154H8.615V84.464a2.156,2.156,0,0,1,2.154-2.154ZM28,78A23.691,23.691,0,1,1,50.611,47.233l-4.323.648a19.386,19.386,0,1,0-2.171,17.2H49.1A23.741,23.741,0,0,1,28,78Zm34.774,51.69H53.53a1.839,1.839,0,0,1-.823-3.485l1.645-.823h10.26v2.468a1.842,1.842,0,0,1-1.84,1.84ZM81.952,98.871l-2.3-12.638L75.416,87l1.027,5.651-9.4,6.269-3.059-3.059-3.046,3.046,3.676,3.677v18.492H56V98.085A16.721,16.721,0,0,1,67.137,82.31H89.52a12.458,12.458,0,0,1,3.092,8.245v5.939l-3.677,3.677,3.046,3.046,3.677-3.677h7.723v8.615h-10.3A11.3,11.3,0,0,1,81.952,98.871ZM112,110.623a1.839,1.839,0,0,1-3.485.823l-.823-1.645V99.54h2.468a1.842,1.842,0,0,1,1.84,1.84Z"/>
    </g>
  </g>
</svg>
