<svg xmlns="http://www.w3.org/2000/svg" width="470" height="154" viewBox="0 0 470 154">
  <g id="Grupo_108919" data-name="Grupo 108919" transform="translate(3350 1464)">
    <path id="Rectángulo_36106" data-name="Rectángulo 36106" d="M0,0H393a77,77,0,0,1,77,77v0a77,77,0,0,1-77,77H0a0,0,0,0,1,0,0V0A0,0,0,0,1,0,0Z" transform="translate(-3350 -1464)" fill="#6765a9"/>
    <g id="hablar" transform="translate(-3247.161 -1456.161)">
      <g id="Grupo_108458" data-name="Grupo 108458">
        <g id="Grupo_108440" data-name="Grupo 108440">
          <path id="Trazado_156499" data-name="Trazado 156499" d="M113.057,73.484l-4.993,12.968H99.419L94.427,73.484Z" fill="#ffeaa7"/>
        </g>
        <g id="Grupo_108441" data-name="Grupo 108441">
          <path id="Trazado_156500" data-name="Trazado 156500" d="M134,76.855v24.725a10.81,10.81,0,0,1-10.806,10.806h-2.161V86.452H108.065l4.993-12.968,5.36-13.919.411.065,1.275.259A17.292,17.292,0,0,1,134,76.855Z" fill="#ff826e"/>
        </g>
        <g id="Grupo_108442" data-name="Grupo 108442">
          <path id="Trazado_156501" data-name="Trazado 156501" d="M95.1,99.419h4.323v12.968H84.29a10.81,10.81,0,0,1-10.806-10.806V76.855A16.792,16.792,0,0,1,75.3,69.183a16.079,16.079,0,0,1,2.507-3.761,17.138,17.138,0,0,1,9.575-5.533l1.686-.324,5.36,13.919,4.993,12.968H97.258A2.168,2.168,0,0,0,95.1,88.613Z" fill="#ff826e"/>
        </g>
        <g id="Grupo_108443" data-name="Grupo 108443">
          <path id="Trazado_156502" data-name="Trazado 156502" d="M121.032,112.387,125.355,134H82.129l4.323-21.613H95.1v6.484a2.168,2.168,0,0,0,2.161,2.161h21.613a2.168,2.168,0,0,0,2.161-2.161Z" fill="#ff826e"/>
        </g>
        <g id="Grupo_108444" data-name="Grupo 108444">
          <path id="Trazado_156503" data-name="Trazado 156503" d="M30.258,103.742H51.871V116.71H19.365a10.72,10.72,0,0,1-10.72-10.742V81.762a22.276,22.276,0,0,1,8.213-17.269l13.4,11.152,3.609-7.2a22.676,22.676,0,0,1,3.977,4.517A22.355,22.355,0,0,1,41.54,83.6l.238,2.853H32.419a2.168,2.168,0,0,0-2.161,2.161Z" fill="#b4dd7f"/>
        </g>
        <g id="Grupo_108445" data-name="Grupo 108445">
          <path id="Trazado_156504" data-name="Trazado 156504" d="M43.226,125.355V134H12.968V114.592a10.718,10.718,0,0,0,6.4,2.118H30.258v6.484a2.168,2.168,0,0,0,2.161,2.161Z" fill="#b4dd7f"/>
        </g>
        <g id="Grupo_108446" data-name="Grupo 108446">
          <path id="Trazado_156505" data-name="Trazado 156505" d="M19.452,62.677l3.328.562A22.4,22.4,0,0,1,32.419,67.3c.5.367.973.735,1.448,1.145l-3.609,7.2-13.4-11.152A24.217,24.217,0,0,1,19.452,62.677Z" fill="#a0d468"/>
        </g>
        <g id="Grupo_108447" data-name="Grupo 108447">
          <path id="Trazado_156506" data-name="Trazado 156506" d="M60.516,116.342v6.851a2.168,2.168,0,0,1-2.161,2.161H32.419a2.168,2.168,0,0,1-2.161-2.161V116.71H58.376a5.875,5.875,0,0,0,2.14-.389Z" fill="#e6e9ed"/>
        </g>
        <g id="Grupo_108448" data-name="Grupo 108448">
          <path id="Trazado_156507" data-name="Trazado 156507" d="M60.516,88.613v15.518a5.991,5.991,0,0,0-2.161-.389h-28.1V88.613a2.168,2.168,0,0,1,2.161-2.161H58.355a2.168,2.168,0,0,1,2.161,2.161Z" fill="#e6e9ed"/>
        </g>
        <g id="Grupo_108449" data-name="Grupo 108449">
          <path id="Trazado_156508" data-name="Trazado 156508" d="M95.1,112.387H105.9a6.484,6.484,0,0,0,0-12.968H95.1V88.613a2.168,2.168,0,0,1,2.161-2.161h23.774v32.419a2.168,2.168,0,0,1-2.161,2.161H97.258a2.168,2.168,0,0,1-2.161-2.161Z" fill="#e6e9ed"/>
        </g>
        <g id="Grupo_108450" data-name="Grupo 108450">
          <path id="Trazado_156509" data-name="Trazado 156509" d="M82.129,12.968a8.335,8.335,0,0,0,4.582,7.478,41.273,41.273,0,0,0-2.377,5.49,40.248,40.248,0,0,0-1.967,8.645H73.484L69.9,41.756a2.672,2.672,0,0,1-5.057-1.21V34.581H58.355a2.168,2.168,0,0,1-2.161-2.161V10.806a2.168,2.168,0,0,1,2.161-2.161H83.3A8.622,8.622,0,0,0,82.129,12.968Z" fill="#e6e9ed"/>
        </g>
        <g id="Grupo_108451" data-name="Grupo 108451">
          <path id="Trazado_156510" data-name="Trazado 156510" d="M47.548,47.548a39.506,39.506,0,0,0-.238-4.323H75.645a2.168,2.168,0,0,1,2.161,2.161V65.422A16.079,16.079,0,0,0,75.3,69.183l-.022-.022H64.839L57.08,76.92a3.057,3.057,0,0,1-5.209-2.161v-5.6H45.387A2.168,2.168,0,0,1,43.226,67V47.548Z" fill="#e6e9ed"/>
        </g>
        <g id="Grupo_108452" data-name="Grupo 108452">
          <path id="Trazado_156511" data-name="Trazado 156511" d="M26.8,28.551,21.613,38.9a4.354,4.354,0,0,0-4.323,4.323,5.2,5.2,0,0,0,1.535,3.7l2.788,2.788L20.1,58.83l-7.175-5.122a20.529,20.529,0,0,1-8.6-16.728,24.025,24.025,0,0,1,1.491-8.321,23.772,23.772,0,0,1,4.3-7.305,24.015,24.015,0,0,1,18.22-8.386H45.387a2.168,2.168,0,0,1,2.161,2.161v4.323A10.771,10.771,0,0,1,36.742,30.258H30.5a4.768,4.768,0,0,1-3.7-1.707Z" fill="#656d78"/>
        </g>
        <g id="Grupo_108453" data-name="Grupo 108453">
          <path id="Trazado_156512" data-name="Trazado 156512" d="M120.665,40.805a22.206,22.206,0,0,0,2.032-3.264,23.936,23.936,0,0,0,2.658-10.979,22.248,22.248,0,0,0-22.24-22.24H90.774a8.7,8.7,0,0,0-6.116,2.529A9.132,9.132,0,0,0,83.3,8.645a8.622,8.622,0,0,0-1.167,4.323,8.335,8.335,0,0,0,4.582,7.478,10.682,10.682,0,0,0,4.971,1.167h9.683a4.828,4.828,0,0,0,2.875-.951v.022l3.825,9.575a4.335,4.335,0,0,1,4.323,4.323,5.2,5.2,0,0,1-1.535,3.7l-2.788,2.788,2.161,8.645,1.491,5.987a4.334,4.334,0,0,0,3.35,3.2l3.35.67.411.065a10.8,10.8,0,0,0,1.837-18.825Z" fill="#fcd770"/>
        </g>
        <g id="Grupo_108454" data-name="Grupo 108454">
          <path id="Trazado_156513" data-name="Trazado 156513" d="M97.258,51.871A10.81,10.81,0,0,1,86.452,41.065V38.9H82.129a39.809,39.809,0,0,1,.238-4.323,40.248,40.248,0,0,1,1.967-8.645,41.274,41.274,0,0,1,2.377-5.49,10.682,10.682,0,0,0,4.971,1.167h9.683a4.828,4.828,0,0,0,2.875-.951v.022l3.825,9.575a4.335,4.335,0,0,1,4.323,4.323,5.2,5.2,0,0,1-1.535,3.7l-2.788,2.788,2.161,8.645,1.491,5.987a4.334,4.334,0,0,0,3.35,3.2l3.35.67-5.36,13.919H94.427l-5.36-13.919,3.566-.713A4.33,4.33,0,0,0,95.9,55.977Z" fill="#f0d0b4"/>
        </g>
        <g id="Grupo_108455" data-name="Grupo 108455">
          <path id="Trazado_156514" data-name="Trazado 156514" d="M110.485,101.321a6.48,6.48,0,0,1-4.582,11.066H99.419V99.419H105.9A6.468,6.468,0,0,1,110.485,101.321Z" fill="#f0d0b4"/>
        </g>
        <g id="Grupo_108456" data-name="Grupo 108456">
          <path id="Trazado_156515" data-name="Trazado 156515" d="M60.516,104.131a6.463,6.463,0,0,1,2.421,10.677,6.133,6.133,0,0,1-2.421,1.513,5.875,5.875,0,0,1-2.14.389H51.871V103.742h6.484A5.991,5.991,0,0,1,60.516,104.131Z" fill="#f0d0b4"/>
        </g>
        <g id="Grupo_108457" data-name="Grupo 108457">
          <path id="Trazado_156516" data-name="Trazado 156516" d="M42.318,54.032a10.814,10.814,0,0,1-9.9,6.484V67.3a22.4,22.4,0,0,0-9.639-4.063l-3.328-.562L20.1,58.83l1.513-9.121-2.788-2.788a5.2,5.2,0,0,1-1.535-3.7A4.354,4.354,0,0,1,21.613,38.9L26.8,28.551a4.768,4.768,0,0,0,3.7,1.707h6.246a10.886,10.886,0,0,0,5.922-1.751,40.033,40.033,0,0,1,4.647,14.718,39.506,39.506,0,0,1,.238,4.323H43.226V49.71A10.678,10.678,0,0,1,42.318,54.032Z" fill="#f0d0b4"/>
        </g>
      </g>
      <g id="Grupo_108459" data-name="Grupo 108459">
        <path id="Trazado_156517" data-name="Trazado 156517" d="M123.812,58.746a12.887,12.887,0,0,0-.292-18.371,26.114,26.114,0,0,0,4-13.8A24.438,24.438,0,0,0,103.1,2.161H90.774a10.763,10.763,0,0,0-8.591,4.323H58.355a4.327,4.327,0,0,0-4.323,4.323V32.419a4.327,4.327,0,0,0,4.323,4.323h4.323v3.813a4.971,4.971,0,0,0,.052.51H49.189A42.8,42.8,0,0,0,45.4,29.082a12.924,12.924,0,0,0,4.314-9.631V15.129a4.327,4.327,0,0,0-4.323-4.323H28.332A26.176,26.176,0,0,0,2.161,36.98a22.77,22.77,0,0,0,9.5,18.477l6.082,4.353-.27,1.619A24.519,24.519,0,0,0,6.484,81.764v24.215a12.85,12.85,0,0,0,4.323,9.607v20.575H45.387v-8.645H58.355a4.327,4.327,0,0,0,4.323-4.323v-5.522a8.572,8.572,0,0,0,0-14.889V88.613a4.327,4.327,0,0,0-4.323-4.323H43.773l-.071-.867a24.627,24.627,0,0,0-9.121-17.176V62.5a12.889,12.889,0,0,0,6.484-3.177V67a4.327,4.327,0,0,0,4.323,4.323H49.71V74.75a5.217,5.217,0,0,0,8.907,3.689l7.117-7.117h6.413a19.274,19.274,0,0,0-.823,5.531v24.727a12.973,12.973,0,0,0,12.5,12.944l-4.327,21.637h48.5l-4.327-21.637a12.973,12.973,0,0,0,12.5-12.944V76.853a19.517,19.517,0,0,0-12.35-18.107ZM105.9,101.581a4.323,4.323,0,0,1,0,8.645h-4.323v-8.645Zm-8.645,12.968H105.9a8.645,8.645,0,0,0,0-17.29H97.258V88.613h21.613v30.258H97.258ZM100.9,84.29l-3.326-8.645H109.9l-3.326,8.645Zm10.664-12.968H95.916l-3.9-10.147,1.048-.21a6.5,6.5,0,0,0,4.878-4.307l.875-2.626h2.766V49.71H97.26a8.654,8.654,0,0,1-8.645-8.645V36.742h-4.26a37.5,37.5,0,0,1,3.421-13.586,13.218,13.218,0,0,0,3.905.618h9.68a7.078,7.078,0,0,0,1.69-.225l3.549,8.87h1.463a2.163,2.163,0,0,1,2.161,2.161,3.027,3.027,0,0,1-.895,2.161L105.672,40.4l3.957,15.823a6.506,6.506,0,0,0,5.016,4.785l.826.164ZM123.194,49.71a8.626,8.626,0,0,1-4.692,7.664l-3.009-.6a2.168,2.168,0,0,1-1.673-1.6l-1.141-4.565,3.895-2.782a26.113,26.113,0,0,0,4.353-3.947A8.649,8.649,0,0,1,123.194,49.71ZM90.774,6.484H103.1a20.111,20.111,0,0,1,20.089,20.087,21.84,21.84,0,0,1-9.131,17.74L111.553,46.1l-1.1-4.379,1.93-1.926a7.33,7.33,0,0,0,2.161-5.22,6.5,6.5,0,0,0-4.947-6.3l-2.838-7.093a5.924,5.924,0,0,0,.992-1.88,6.5,6.5,0,0,0-6.173-8.5H99.422v4.323h2.161a2.143,2.143,0,0,1,1.742.882,2.209,2.209,0,0,1,.3,2.016,2.328,2.328,0,0,1-2.267,1.424h-9.68c-4.284,0-7.392-2.728-7.392-6.484a6.492,6.492,0,0,1,6.484-6.484ZM58.355,32.419V10.806H80.186a10.7,10.7,0,0,0,0,4.323H62.677v4.323H82.231a10.554,10.554,0,0,0,1.707,1.694c-.376.8-.746,1.692-1.109,2.628H62.677V28.1H81.414a41.6,41.6,0,0,0-.923,4.323H72.148l-4.18,8.362A.529.529,0,0,1,67,40.554V32.419ZM74.82,36.742h5.23c-.037.713-.08,1.422-.08,2.161v2.161h4.323A12.982,12.982,0,0,0,94.373,53.7l-.532,1.593a2.169,2.169,0,0,1-1.627,1.437l-5.256,1.05a19.278,19.278,0,0,0-6.99,2.931V45.387a4.327,4.327,0,0,0-4.323-4.323H72.658Zm-60.646,15.2A18.437,18.437,0,0,1,6.484,36.98,21.85,21.85,0,0,1,28.332,15.129H45.387v4.323A8.654,8.654,0,0,1,36.742,28.1H30.487a2.332,2.332,0,0,1-2.278-1.431,2.2,2.2,0,0,1,.307-2.012,2.147,2.147,0,0,1,1.742-.88h2.161V19.452H30.258a6.5,6.5,0,0,0-6.179,8.483,5.76,5.76,0,0,0,.27.664L20.2,36.9a6.493,6.493,0,0,0-5.07,6.328,7.321,7.321,0,0,0,2.161,5.217L19.3,50.451l-.767,4.61ZM31.129,69.071l-1.584,3.168L21.014,65.13l1.413.236A20.392,20.392,0,0,1,31.129,69.071Zm9.935,62.768H15.129v-13.7a12.767,12.767,0,0,0,4.24.733H28.1v4.323a4.327,4.327,0,0,0,4.323,4.323h8.645Zm-8.645-8.645v-4.323H58.355v4.323Zm25.948-8.645H54.032V105.9h4.32a4.323,4.323,0,0,1,.015,8.645Zm-.013-12.968H32.419V88.613H58.355ZM39.4,83.78l.041.51H32.419A4.327,4.327,0,0,0,28.1,88.613v12.968H23.774V79.968H19.452V105.9H49.71v8.645H19.369a8.576,8.576,0,0,1-8.563-8.57V81.764a20.177,20.177,0,0,1,6.14-14.4L30.971,79.054l3.471-6.944a20.039,20.039,0,0,1,1.6,2.058A20.435,20.435,0,0,1,39.4,83.78ZM32.419,58.355H30.258v5.1A24.569,24.569,0,0,0,23.137,61.1l-1.2-.2L23.93,48.971l-3.583-3.583a3.027,3.027,0,0,1-.895-2.161,2.163,2.163,0,0,1,2.161-2.161h1.336l4.64-9.281a7.054,7.054,0,0,0,2.9.635h6.255a12.881,12.881,0,0,0,4.975-1,37.963,37.963,0,0,1,3.605,13.964H41.065V49.71a8.513,8.513,0,0,1-.307,2.161H39.413a5.63,5.63,0,0,1-5.062-3.127l-3.867,1.934a9.918,9.918,0,0,0,7.694,5.431,8.569,8.569,0,0,1-5.76,2.246ZM63.944,67l-8.386,8.384a.929.929,0,0,1-1.526-.633V67H45.387V49.71H49.71V47.548c0-.741-.052-1.446-.091-2.161H75.645V64.659A19.582,19.582,0,0,0,74.029,67Zm11.7,34.581V76.853A15.162,15.162,0,0,1,87.714,62.044l8.6,22.359a4.323,4.323,0,0,0-3.378,4.21v8.645H88.613V75.645H84.29V98.525L80.6,102.214l3.056,3.056,3.689-3.689h9.912v8.645H84.29A8.654,8.654,0,0,1,75.645,101.581Zm9.121,30.258,3.458-17.29h4.712v4.323a4.327,4.327,0,0,0,4.323,4.323h21.613a4.268,4.268,0,0,0,2.014-.521l1.833,9.166Zm47.073-30.258a8.654,8.654,0,0,1-8.645,8.645v-8.645h4.323V97.258h-4.323V75.645h-4.323V84.29h-7.66l8.557-22.246a15.162,15.162,0,0,1,12.071,14.809Z"/>
        <path id="Trazado_156518" data-name="Trazado 156518" d="M67,54.032h4.323v4.323H67Z"/>
        <path id="Trazado_156519" data-name="Trazado 156519" d="M58.355,54.032h4.323v4.323H58.355Z"/>
        <path id="Trazado_156520" data-name="Trazado 156520" d="M49.71,54.032h4.323v4.323H49.71Z"/>
      </g>
    </g>
  </g>
</svg>
