<svg xmlns="http://www.w3.org/2000/svg" width="470" height="154" viewBox="0 0 470 154">
  <g id="Grupo_108924" data-name="Grupo 108924" transform="translate(3350 -1152)">
    <path id="Rectángulo_36114" data-name="Rectángulo 36114" d="M0,0H393a77,77,0,0,1,77,77v0a77,77,0,0,1-77,77H0a0,0,0,0,1,0,0V0A0,0,0,0,1,0,0Z" transform="translate(-3350 1152)" fill="#6765a9"/>
    <g id="silencio" transform="translate(-3250.375 1156.622)">
      <g id="Grupo_108564" data-name="Grupo 108564">
        <path id="Trazado_156679" data-name="Trazado 156679" d="M33.078,80.359V47.43c0-21.986,17.993-40.448,39.976-40.074a39.344,39.344,0,0,1,38.619,39.292V80.359a6.785,6.785,0,0,1-6.785,6.785H39.863A6.785,6.785,0,0,1,33.078,80.359Z" fill="#537980"/>
        <path id="Trazado_156680" data-name="Trazado 156680" d="M27.358,97.819h90.033v12.439A27.141,27.141,0,0,1,90.25,137.4H54.5a27.141,27.141,0,0,1-27.141-27.141V97.819Z" transform="translate(144.749 235.218) rotate(180)" fill="#3ea7fb"/>
        <g id="Grupo_108561" data-name="Grupo 108561">
          <path id="Trazado_156681" data-name="Trazado 156681" d="M58.8,77.321H85.945V98.242a13.57,13.57,0,0,1-27.141,0Z" fill="#e18b87"/>
          <path id="Trazado_156682" data-name="Trazado 156682" d="M102.624,45.414h4.523a6.785,6.785,0,0,1,0,13.57h-4.523Z" fill="#e18b87"/>
          <path id="Trazado_156683" data-name="Trazado 156683" d="M30.816,45.414h4.523a6.785,6.785,0,0,1,0,13.57H30.816Z" transform="translate(72.941 104.397) rotate(180)" fill="#e18b87"/>
        </g>
        <path id="Trazado_156684" data-name="Trazado 156684" d="M104.887,47.123V60.335c0,18.231-14.919,33.586-33.145,33.238A32.51,32.51,0,0,1,39.863,61.066V47.123a6.785,6.785,0,0,1,6.785-6.785H57.572a19.542,19.542,0,0,0,14.8-6.784,19.542,19.542,0,0,0,14.8,6.784H98.1a6.785,6.785,0,0,1,6.785,6.785Z" fill="#f8b098"/>
        <g id="Grupo_108562" data-name="Grupo 108562">
          <circle id="Elipse_4902" data-name="Elipse 4902" cx="3.393" cy="3.393" r="3.393" transform="translate(84.094 51.244)" fill="#e18b87"/>
          <circle id="Elipse_4903" data-name="Elipse 4903" cx="3.393" cy="3.393" r="3.393" transform="translate(53.871 51.244)" fill="#e18b87"/>
        </g>
        <g id="Grupo_108563" data-name="Grupo 108563">
          <rect id="Rectángulo_36535" data-name="Rectángulo 36535" width="6.784" height="20.352" rx="3.392" transform="translate(77.172 65.405) rotate(45)" fill="#d63922"/>
          <rect id="Rectángulo_36536" data-name="Rectángulo 36536" width="6.784" height="20.352" rx="3.392" transform="translate(62.766 70.218) rotate(-45)" fill="#f5502f"/>
        </g>
      </g>
      <g id="Grupo_108565" data-name="Grupo 108565">
        <path id="Trazado_156685" data-name="Trazado 156685" d="M87.684,20.275a30.986,30.986,0,0,1,4.071,2.851,1.981,1.981,0,0,0,2.524-3.053,34.858,34.858,0,0,0-4.595-3.216,1.979,1.979,0,1,0-2,3.415Z" fill="#0b0410"/>
        <path id="Trazado_156686" data-name="Trazado 156686" d="M27.828,119.514a2.008,2.008,0,0,0,.537.074,1.98,1.98,0,0,0,1.9-1.443,24.758,24.758,0,0,1,1.193-3.321,1.979,1.979,0,1,0-3.619-1.6,28.979,28.979,0,0,0-1.382,3.845,1.979,1.979,0,0,0,1.367,2.445Z" fill="#0b0410"/>
        <path id="Trazado_156687" data-name="Trazado 156687" d="M90.254,95.84h-2.33V91.712a34.539,34.539,0,0,0,4.184-2.593h12.779a8.774,8.774,0,0,0,8.764-8.764V66.826a1.979,1.979,0,0,0-3.958,0V80.359a4.812,4.812,0,0,1-4.806,4.806h-8.2a35.763,35.763,0,0,0,10.164-24.2h.3a8.748,8.748,0,0,0,6.495-14.628A41.458,41.458,0,0,0,73.088,5.383,40.557,40.557,0,0,0,43.929,17.105a42.684,42.684,0,0,0-12.8,29.21A8.713,8.713,0,0,0,31.1,58.058v22.3a8.774,8.774,0,0,0,8.764,8.764h12.56a34.789,34.789,0,0,0,4.4,2.685V95.84H54.5a29.273,29.273,0,0,0-23.365,11.742,1.979,1.979,0,0,0,3.174,2.366A24.96,24.96,0,0,1,54.5,99.8H56.9a15.548,15.548,0,0,0,30.94,0h2.409a25.19,25.19,0,0,1,25.162,25.162v10.46h-16.4V123.829a1.979,1.979,0,0,0-3.958,0V135.42H49.692V123.829a1.979,1.979,0,1,0-3.958,0V135.42h-16.4v-10.9a1.979,1.979,0,0,0-1.951-2.006,2.019,2.019,0,0,0-2.007,1.952V137.4a1.979,1.979,0,0,0,1.979,1.979h90.039a1.979,1.979,0,0,0,1.979-1.979V124.96a29.152,29.152,0,0,0-29.12-29.12ZM110.544,55.6a4.776,4.776,0,0,1-3.393,1.41h-.286V47.394h.283a4.812,4.812,0,0,1,4.806,4.806A4.739,4.739,0,0,1,110.544,55.6ZM46.693,19.938a36.458,36.458,0,0,1,26.326-10.6,37.5,37.5,0,0,1,36.551,34.444,8.7,8.7,0,0,0-2.422-.348h-1.107a8.768,8.768,0,0,0-7.94-5.078H87.178a17.543,17.543,0,0,1-13.3-6.1,1.981,1.981,0,0,0-3,0A17.489,17.489,0,0,1,59.37,38.267a1.979,1.979,0,1,0,.4,3.938,21.416,21.416,0,0,0,12.6-5.791,21.5,21.5,0,0,0,14.8,5.9H98.1a4.812,4.812,0,0,1,4.806,4.806V60.335a31.777,31.777,0,0,1-9.5,22.529A29.644,29.644,0,0,1,71.779,91.6,30.682,30.682,0,0,1,41.842,61.066V47.123a4.812,4.812,0,0,1,4.806-4.806h3.3a1.979,1.979,0,1,0,0-3.958h-3.3a8.768,8.768,0,0,0-7.94,5.078H37.6a8.725,8.725,0,0,0-2.358.331,38.766,38.766,0,0,1,11.45-23.829ZM34.2,55.589a4.73,4.73,0,0,1-1.4-3.393A4.812,4.812,0,0,1,37.6,47.391h.283V57H37.6A4.777,4.777,0,0,1,34.2,55.589Zm.857,24.769V60.59a8.78,8.78,0,0,0,2.544.374h.283v.1a34.4,34.4,0,0,0,9.91,24.1H39.863A4.812,4.812,0,0,1,35.057,80.359Zm48.91,17.879a11.591,11.591,0,1,1-23.183,0V93.522A33.987,33.987,0,0,0,71.7,95.557h.648A33.425,33.425,0,0,0,83.97,93.474Z" fill="#0b0410"/>
        <path id="Trazado_156688" data-name="Trazado 156688" d="M87.486,60.007a5.372,5.372,0,1,0-5.372-5.372,5.372,5.372,0,0,0,5.372,5.372Zm0-6.785a1.414,1.414,0,1,1-1.414,1.414A1.414,1.414,0,0,1,87.486,53.221Z" fill="#0b0410"/>
        <path id="Trazado_156689" data-name="Trazado 156689" d="M57.263,60.007a5.372,5.372,0,1,0-5.372-5.372A5.372,5.372,0,0,0,57.263,60.007Zm0-6.785a1.414,1.414,0,1,1-1.414,1.414,1.414,1.414,0,0,1,1.414-1.414Z" fill="#0b0410"/>
        <path id="Trazado_156690" data-name="Trazado 156690" d="M63.78,74.014l1,1-1,1a5.372,5.372,0,1,0,7.6,7.6l1-1,1,1a5.371,5.371,0,1,0,7.6-7.6l-1-1,1-1a5.372,5.372,0,1,0-7.6-7.6l-1,1-1-1a5.371,5.371,0,1,0-7.6,7.6Zm4.8,6.8a1.443,1.443,0,0,1-2,0,1.411,1.411,0,0,1,0-2l1-1,2,2Zm7.595-11.595a1.447,1.447,0,0,1,2,0,1.411,1.411,0,0,1,0,2l-1,1-2-2Zm-9.594,0a1.415,1.415,0,0,1,2,0l9.6,9.6a1.411,1.411,0,0,1,0,2,1.446,1.446,0,0,1-2,0l-9.6-9.6a1.411,1.411,0,0,1,0-2Z" fill="#0b0410"/>
      </g>
    </g>
  </g>
</svg>
