<svg xmlns="http://www.w3.org/2000/svg" width="49.378" height="69" viewBox="0 0 49.378 69">
  <g id="ancianos" transform="translate(0 0)">
    <path id="Trazado_156933" data-name="Trazado 156933" d="M11.385,44,8.561,54.029l-6.113,4.5A3.5,3.5,0,1,0,6.6,64.172l6.719-4.952L17.755,48.5l-2.423-5.4Zm0,0" fill="#bdd9e5"/>
    <path id="Trazado_156934" data-name="Trazado 156934" d="M20.326,50.777V64.472a3.5,3.5,0,1,1-7,0V49.8" fill="#e3f4fc"/>
    <path id="Trazado_156935" data-name="Trazado 156935" d="M17.709,67.861a3.5,3.5,0,0,1-4.388-3.389V49.8l1.771.246V64.472a3.5,3.5,0,0,0,2.617,3.389Zm0,0" fill="#bdd9e5"/>
    <path id="Trazado_156936" data-name="Trazado 156936" d="M24.091,39.178h0V28.432a7.267,7.267,0,1,0-14.533,0V39.178c0,4.611-3.324,11.6-3.324,11.6a22.224,22.224,0,0,0,10.592,3.075,22.222,22.222,0,0,0,10.592-3.075s-3.324-6.988-3.324-11.6Zm0,0" fill="#f75772"/>
    <path id="Trazado_156937" data-name="Trazado 156937" d="M16.824,21.164c-1.865,0-3.374,3.254-3.374,7.268V39.178A135.989,135.989,0,0,1,12.045,53.2a22.922,22.922,0,0,1-5.812-2.419s3.324-6.987,3.324-11.6V28.432a7.268,7.268,0,0,1,7.267-7.268Zm0,0" fill="#e0244c"/>
    <path id="Trazado_156938" data-name="Trazado 156938" d="M17.948,26.829l4.9,6.533,3.912-.573s3.648.8,3.928,2.714-2.643,4.177-2.643,4.177l-6.243.914a3.5,3.5,0,0,1-3.309-1.364l-6.149-8.2" fill="#f75772"/>
    <path id="Trazado_156939" data-name="Trazado 156939" d="M28.046,39.681l-6.243.913a3.666,3.666,0,0,1-.507.036,3.5,3.5,0,0,1-2.8-1.4l-6.149-8.2,1.078-.808,5.071,6.765a3.506,3.506,0,0,0,2.8,1.4,3.439,3.439,0,0,0,.507-.038l5.836-.854,1.746.8Zm0,0" fill="#e0244c"/>
    <path id="Trazado_156940" data-name="Trazado 156940" d="M29.442,39.476l-1.4.2-1.285-6.89,1.667-.244a3.5,3.5,0,1,1,1.014,6.93Zm0,0" fill="#ffc48f"/>
    <path id="Trazado_156941" data-name="Trazado 156941" d="M29.442,39.476l-1.4.2L27.638,37.5l1.8-.263a3.506,3.506,0,0,0,2.812-2.344,3.507,3.507,0,0,1-2.812,4.588Zm0,0" fill="#e59a5c"/>
    <path id="Trazado_156942" data-name="Trazado 156942" d="M47.3,61.669a3.6,3.6,0,1,0,0,5.085A3.6,3.6,0,0,0,47.3,61.669Zm0,0" fill="#5c5e70"/>
    <path id="Trazado_156943" data-name="Trazado 156943" d="M34.615,9.958a5.913,5.913,0,0,1-2.968,3.789L26.032,9.524l-.6-.454,2.353-6.393a5.933,5.933,0,0,1,6.833,7.282Zm0,0" fill="#e6e6e6"/>
    <path id="Trazado_156944" data-name="Trazado 156944" d="M33.624,4.972c-2.01-1.691-3.814.5-5.623,5.707L25.429,9.069l2.353-6.393a5.935,5.935,0,0,1,5.842,2.3Zm0,0" fill="#ccc"/>
    <path id="Trazado_156945" data-name="Trazado 156945" d="M13.868,7.542a4.659,4.659,0,1,0,3.38,5.656,4.66,4.66,0,0,0-3.38-5.656Zm0,0" fill="#ccc"/>
    <path id="Trazado_156946" data-name="Trazado 156946" d="M25.2,5.465a8.529,8.529,0,1,0,6.187,10.354A8.529,8.529,0,0,0,25.2,5.465Zm0,0" fill="#ffc48f"/>
    <path id="Trazado_156947" data-name="Trazado 156947" d="M23.275,22.264A8.529,8.529,0,1,1,27.3,6.3a8.53,8.53,0,0,0-4.022,15.964Zm0,0" fill="#e59a5c"/>
    <path id="Trazado_156948" data-name="Trazado 156948" d="M24.981,12.577a8.534,8.534,0,0,1-10.246-.051A8.529,8.529,0,0,1,27.881,2.748a8.532,8.532,0,0,1-2.9,9.828Zm0,0" fill="#e6e6e6"/>
    <path id="Trazado_156949" data-name="Trazado 156949" d="M26.382,1.838h0s-9.144,3.273-7.559,12.354a8.51,8.51,0,0,1-4.086-1.667A8.527,8.527,0,0,1,26.382,1.838Zm0,0" fill="#ccc"/>
    <path id="Trazado_156950" data-name="Trazado 156950" d="M48.024,60.946a4.593,4.593,0,0,0-2.243-1.236V41.226a5.865,5.865,0,0,0-5.858-5.858H34.311a5.968,5.968,0,0,0-.886.067c0-.026-.006-.053-.009-.079a4.533,4.533,0,0,0-5.135-3.824l-3.165.463V28.433a8.254,8.254,0,0,0-1.8-5.147,9.554,9.554,0,0,0,9.334-8.946A6.955,6.955,0,0,0,28.034,1.6,9.532,9.532,0,0,0,13.693,6.46a5.685,5.685,0,1,0,.65,11.05,9.454,9.454,0,0,0,1.72,2.666,8.3,8.3,0,0,0-7.532,8.257v3.26a1.025,1.025,0,0,0,2.05,0v-3.26a6.242,6.242,0,1,1,12.484,0v3.509l-4.3-5.729a1.025,1.025,0,0,0-1.64,1.23l4.9,6.533a1.025,1.025,0,0,0,.968.4l2.937-.43.909,4.874-5.188.759a2.475,2.475,0,0,1-2.34-.964l-6.149-8.2a1.025,1.025,0,0,0-1.64,1.23l6.149,8.2a4.525,4.525,0,0,0,4.278,1.764l1.31-.192a40.433,40.433,0,0,0,2.835,8.93,20.926,20.926,0,0,1-9.272,2.479,21,21,0,0,1-9.271-2.481c.9-2.063,3.028-7.317,3.028-11.168V35.793a1.025,1.025,0,1,0-2.05,0v3.385c0,4.324-3.192,11.091-3.224,11.159a1.026,1.026,0,0,0,.378,1.307A19.668,19.668,0,0,0,7.849,52.78l-.178.633-5.83,4.3A4.527,4.527,0,0,0,7.211,65L12.3,61.249v3.223a4.527,4.527,0,1,0,9.054,0V54.319a23.872,23.872,0,0,0,6.613-2.675,1.026,1.026,0,0,0,.378-1.307,41.456,41.456,0,0,1-3.053-9.218l3.191-.467c-.018.19-.027.381-.027.574V45.14s0,.007,0,.011,0,.007,0,.011V67.808a1.025,1.025,0,1,0,2.05,0V46.175H43.732V59.709a4.619,4.619,0,0,0,1.015,9.123,4.652,4.652,0,0,0,.96-.1,1.025,1.025,0,1,0-.424-2.006,2.569,2.569,0,1,1,1.989-1.988,1.025,1.025,0,1,0,2.006.423,4.6,4.6,0,0,0-1.253-4.215ZM6,63.347a2.477,2.477,0,1,1-2.94-3.989l6.113-4.5a1.02,1.02,0,0,0,.378-.547l.211-.749a23.71,23.71,0,0,0,2.537.761V58.7ZM19.3,64.472a2.477,2.477,0,1,1-4.955,0V54.7a17.8,17.8,0,0,0,4.955,0Zm11.092-48.9a7.5,7.5,0,0,1-14.761-1.287,9.6,9.6,0,0,0,9.96-.882A9.528,9.528,0,0,0,28.881,8.93a7.505,7.505,0,0,1,1.512,6.639Zm3.227-5.861a4.909,4.909,0,0,1-1.144,2.116A9.555,9.555,0,0,0,29.4,6.54a9.513,9.513,0,0,0-.2-2.925,4.9,4.9,0,0,1,4.417,6.093ZM18.245,3.521a7.539,7.539,0,0,1,8.773-.131,7.5,7.5,0,0,1-11.423,8.5A7.54,7.54,0,0,1,18.245,3.521Zm-6.4,12.064a3.634,3.634,0,0,1,1.4-7.122,9.5,9.5,0,0,0,.4,4.052,9.517,9.517,0,0,0,.094,3.037,3.623,3.623,0,0,1-1.9.033ZM27.964,33.649l.612-.09a2.477,2.477,0,1,1,.718,4.9l-.421.062ZM30.5,44.125v-2.9a3.815,3.815,0,0,1,.139-1.021,4.5,4.5,0,0,0,1.924-1.49,4.557,4.557,0,0,0,.613-1.125,3.791,3.791,0,0,1,1.131-.172h5.613a3.813,3.813,0,0,1,3.808,3.808v2.9Zm0,0"/>
    <path id="Trazado_156951" data-name="Trazado 156951" d="M25.747,13.9a1.024,1.024,0,0,0-1.244.744l-.177.7a1.025,1.025,0,1,0,1.988.5l.177-.7A1.025,1.025,0,0,0,25.747,13.9Zm0,0"/>
    <path id="Trazado_156952" data-name="Trazado 156952" d="M28.758,14.658a1.025,1.025,0,0,0-1.244.743l-.177.7a1.025,1.025,0,1,0,1.988.5l.177-.7A1.025,1.025,0,0,0,28.758,14.658Zm0,0"/>
  </g>
</svg>
