<svg id="unir" xmlns="http://www.w3.org/2000/svg" width="42" height="42" viewBox="0 0 42 42">
  <g id="Grupo_108645" data-name="Grupo 108645">
    <g id="Grupo_108635" data-name="Grupo 108635">
      <g id="Grupo_108631" data-name="Grupo 108631">
        <g id="Grupo_108630" data-name="Grupo 108630">
          <g id="Grupo_108628" data-name="Grupo 108628">
            <path id="Trazado_156751" data-name="Trazado 156751" d="M13.434,34.873l6.058-6.058A1.2,1.2,0,1,0,17.8,27.121l1.544-1.544a1.2,1.2,0,0,0-1.695-1.695l-.809.809A1.2,1.2,0,0,0,15.143,23l-1,1A1.2,1.2,0,1,0,12.448,22.3l-6.57,6.57A4.318,4.318,0,0,0,4.654,31.33l-.186,1.335L.615,36.518l4.645,4.645,3.621-3.621Z" fill="#ffcec0"/>
            <g id="Grupo_108627" data-name="Grupo 108627">
              <path id="Trazado_156752" data-name="Trazado 156752" d="M19.491,28.816l-.9.9-5.513-5.513a6.4,6.4,0,0,1-1.085-1.447l.456-.456A1.2,1.2,0,0,1,14.142,24l1-1a1.2,1.2,0,1,1,1.694,1.695l.81-.809a1.2,1.2,0,0,1,1.694,1.695L17.8,27.121a1.2,1.2,0,0,1,1.695,1.695Z" fill="#fdb0a0"/>
              <path id="Trazado_156753" data-name="Trazado 156753" d="M19.491,28.816l-6.057,6.057L8.882,37.542,5.261,41.163.615,36.518h0l3.376,3.376,3.621-3.621L12.165,33.6l6.058-6.058a1.19,1.19,0,0,0,.348-.774l.073,0a1.2,1.2,0,0,1,.847,2.046Z" fill="#fdb0a0"/>
            </g>
          </g>
          <g id="Grupo_108629" data-name="Grupo 108629">
            <path id="Trazado_156754" data-name="Trazado 156754" d="M18.638,32.709,15.03,36.636a3.567,3.567,0,0,1-1.46.957l-1.716.594A2.067,2.067,0,0,1,10.3,38.1l-1.619-.763L6.99,35.653l2.025-2.025a3,3,0,0,1,4.236,0l.351.351L15.776,31.8a2,2,0,0,1,2.834,0,.661.661,0,0,1,.028.906Z" fill="#ffcec0"/>
            <path id="Trazado_156755" data-name="Trazado 156755" d="M18.8,32.271a.658.658,0,0,1-.167.438L15.03,36.636a3.563,3.563,0,0,1-1.459.957l-1.716.595A2.071,2.071,0,0,1,10.3,38.1l-1.618-.764-1.2-1.2,1.618.764a2.067,2.067,0,0,0,1.558.083l1.716-.594a3.563,3.563,0,0,0,1.459-.957l3.608-3.927a.659.659,0,0,0,.141-.259,1.992,1.992,0,0,1,1.027.549.659.659,0,0,1,.194.468Z" fill="#fdb0a0"/>
          </g>
        </g>
      </g>
      <g id="Grupo_108634" data-name="Grupo 108634">
        <g id="Grupo_108633" data-name="Grupo 108633">
          <g id="Grupo_108632" data-name="Grupo 108632">
            <path id="Trazado_156756" data-name="Trazado 156756" d="M28.566,7.127l-6.058,6.058A1.2,1.2,0,1,0,24.2,14.879l-1.544,1.544a1.2,1.2,0,0,0,1.695,1.695l.809-.809A1.2,1.2,0,0,0,26.857,19l1-1A1.2,1.2,0,1,0,29.552,19.7l6.57-6.57a4.318,4.318,0,0,0,1.223-2.457l.186-1.335,3.853-3.853L36.739.837,33.119,4.458Z" fill="#d5887a"/>
            <path id="Trazado_156757" data-name="Trazado 156757" d="M41.385,5.482,37.532,9.335l-.185,1.335a4.314,4.314,0,0,1-1.224,2.457L29.553,19.7a1.2,1.2,0,0,1-2.041-.95,1.2,1.2,0,0,0,.745-.346l6.57-6.571A4.319,4.319,0,0,0,36.05,9.374l.185-1.335,3.853-3.853Z" fill="#c86f5c"/>
          </g>
          <path id="Trazado_156758" data-name="Trazado 156758" d="M23.363,9.291l3.608-3.927a3.567,3.567,0,0,1,1.46-.957l1.716-.594A2.067,2.067,0,0,1,31.7,3.9l1.619.763L35.01,6.347,32.985,8.373a3,3,0,0,1-4.236,0L28.4,8.022,26.224,10.2a2,2,0,0,1-2.834,0,.661.661,0,0,1-.028-.906Z" fill="#d5887a"/>
        </g>
      </g>
    </g>
    <g id="Grupo_108644" data-name="Grupo 108644">
      <g id="Grupo_108638" data-name="Grupo 108638">
        <g id="Grupo_108637" data-name="Grupo 108637">
          <g id="Grupo_108636" data-name="Grupo 108636">
            <path id="Trazado_156759" data-name="Trazado 156759" d="M7.127,13.434l6.058,6.058A1.2,1.2,0,0,0,14.879,17.8l1.544,1.544a1.2,1.2,0,0,0,1.695-1.695l-.809-.809A1.2,1.2,0,0,0,19,15.143l-1-1A1.2,1.2,0,1,0,19.7,12.448l-6.57-6.57A4.318,4.318,0,0,0,10.67,4.654L9.335,4.468,5.482.615.837,5.261,4.458,8.882Z" fill="#a34f41"/>
            <path id="Trazado_156760" data-name="Trazado 156760" d="M20.048,13.295a1.2,1.2,0,0,1-1.508,1.157,1.192,1.192,0,0,0-.31-.538L11.66,7.344A4.314,4.314,0,0,0,9.2,6.12L7.868,5.935,4.015,2.082,5.482.615,9.335,4.468l1.335.185a4.314,4.314,0,0,1,2.457,1.224l6.571,6.57a1.2,1.2,0,0,1,.351.847Z" fill="#873f30"/>
          </g>
          <path id="Trazado_156761" data-name="Trazado 156761" d="M9.291,18.638,5.364,15.03a3.567,3.567,0,0,1-.957-1.46l-.594-1.716A2.067,2.067,0,0,1,3.9,10.3l.763-1.619L6.347,6.99,8.373,9.015a3,3,0,0,1,0,4.236l-.351.351L10.2,15.776a2,2,0,0,1,0,2.834.661.661,0,0,1-.906.028Z" fill="#a34f41"/>
        </g>
      </g>
      <g id="Grupo_108643" data-name="Grupo 108643">
        <g id="Grupo_108642" data-name="Grupo 108642">
          <g id="Grupo_108640" data-name="Grupo 108640">
            <path id="Trazado_156762" data-name="Trazado 156762" d="M34.873,28.566l-6.058-6.058A1.2,1.2,0,1,0,27.121,24.2l-1.544-1.544a1.2,1.2,0,1,0-1.695,1.695l.809.809A1.2,1.2,0,0,0,23,26.857l1,1A1.2,1.2,0,1,0,22.3,29.552l6.57,6.57a4.318,4.318,0,0,0,2.457,1.223l1.335.186,3.853,3.853,4.645-4.645-3.621-3.621Z" fill="#ffdfd0"/>
            <g id="Grupo_108639" data-name="Grupo 108639">
              <path id="Trazado_156763" data-name="Trazado 156763" d="M29.648,23.34a6.444,6.444,0,0,1-.723.864l-5.986,5.985-.637-.637A1.2,1.2,0,0,1,24,27.858l-1-1a1.2,1.2,0,1,1,1.695-1.694l-.809-.81a1.2,1.2,0,1,1,1.695-1.694L27.121,24.2a1.2,1.2,0,0,1,1.695-1.695Z" fill="#ffcec0"/>
              <path id="Trazado_156764" data-name="Trazado 156764" d="M36.518,41.385l3.376-3.377-3.621-3.621L33.6,29.835l-6.058-6.058a1.19,1.19,0,0,0-.774-.348c0-.025,0-.048,0-.073a1.2,1.2,0,0,1,2.046-.847l6.057,6.057,2.669,4.553,3.621,3.621Z" fill="#ffcec0"/>
            </g>
          </g>
          <g id="Grupo_108641" data-name="Grupo 108641">
            <path id="Trazado_156765" data-name="Trazado 156765" d="M32.709,23.363l3.927,3.608a3.567,3.567,0,0,1,.957,1.46l.594,1.716A2.067,2.067,0,0,1,38.1,31.7l-.763,1.619L35.653,35.01l-2.025-2.025a3,3,0,0,1,0-4.236l.351-.351L31.8,26.224a2,2,0,0,1,0-2.834.661.661,0,0,1,.906-.028Z" fill="#ffdfd0"/>
            <path id="Trazado_156766" data-name="Trazado 156766" d="M38.1,31.7l-.764,1.618L36.072,34.59l.763-1.618a2.063,2.063,0,0,0,.084-1.558L36.325,29.7a3.568,3.568,0,0,0-.957-1.459l-3.927-3.609a.656.656,0,0,0-.2-.122A2,2,0,0,1,31.8,23.39a.66.66,0,0,1,.906-.027l3.927,3.608a3.563,3.563,0,0,1,.957,1.459l.595,1.716A2.071,2.071,0,0,1,38.1,31.7Z" fill="#ffcec0"/>
          </g>
        </g>
      </g>
    </g>
  </g>
  <g id="Grupo_108647" data-name="Grupo 108647">
    <path id="Trazado_156767" data-name="Trazado 156767" d="M27.763,23.045A4.782,4.782,0,0,0,21,16.282a4.782,4.782,0,0,0-6.763,6.763l6.114,6.115a.918.918,0,0,0,1.3,0Z" fill="#fc78a8"/>
    <path id="Trazado_156768" data-name="Trazado 156768" d="M27.764,23.045,21.649,29.16a.917.917,0,0,1-1.3,0l-.751-.751,5.967-5.968a4.786,4.786,0,0,0-1.051-7.553,4.782,4.782,0,0,1,3.248,8.157Z" fill="#fc5a95"/>
    <g id="Grupo_108646" data-name="Grupo 108646">
      <path id="Trazado_156769" data-name="Trazado 156769" d="M5.077,32.75l.186-1.335a3.725,3.725,0,0,1,1.049-2.107l2.672-2.672a.615.615,0,1,0-.87-.87L5.442,28.438a4.962,4.962,0,0,0-1.4,2.807l-.158,1.13L.18,36.083a.615.615,0,1,0,.87.87L4.9,33.1a.615.615,0,0,0,.174-.35Z"/>
      <path id="Trazado_156770" data-name="Trazado 156770" d="M16.831,30.606a2.7,2.7,0,0,0-1.49.762L13.6,33.109a3.585,3.585,0,0,0-3.333-.869.615.615,0,1,0,.294,1.195,2.364,2.364,0,0,1,2.255.628l.35.35a.615.615,0,0,0,.87,0l2.175-2.175a1.39,1.39,0,0,1,1.964,0,.046.046,0,0,1,0,.061l-3.6,3.92a2.963,2.963,0,0,1-1.208.792l-1.716.594a1.444,1.444,0,0,1-1.094-.059L9.037,36.83,7.425,35.218a.615.615,0,0,0-.87.87L8.01,37.543,4.826,40.728a.615.615,0,1,0,.87.87l3.387-3.387.952.449a2.668,2.668,0,0,0,2.021.108l1.716-.594a4.2,4.2,0,0,0,1.711-1.122l3.608-3.927.008-.008a1.278,1.278,0,0,0-.053-1.749,2.6,2.6,0,0,0-.725-.512l1.429-1.429.167.167a1.532,1.532,0,0,0,1.829.255,1.8,1.8,0,0,0,.123.138l6.57,6.57a4.962,4.962,0,0,0,2.807,1.4l1.13.158,3.707,3.707a.615.615,0,0,0,.87-.87L33.1,37.1a.615.615,0,0,0-.35-.174l-1.335-.186a3.725,3.725,0,0,1-2.107-1.049l-6.57-6.57a.585.585,0,0,1-.078-.1l.815-.815,3.81,3.81a.615.615,0,1,0,.87-.87l-3.81-3.81.825-.825L29.1,30.437a.615.615,0,1,0,.87-.87L26.039,25.64l.825-.825,3.891,3.891a.615.615,0,1,0,.87-.87l-3.891-3.891.465-.465h0c.121-.121.234-.247.341-.377l2.091,2.091a2.6,2.6,0,0,0,.737,1.465L33.109,28.4a3.584,3.584,0,0,0-.869,3.333.615.615,0,0,0,1.195-.294,2.365,2.365,0,0,1,.628-2.255l.35-.35a.615.615,0,0,0,0-.87l-2.175-2.175a1.39,1.39,0,0,1,0-1.964.046.046,0,0,1,.061,0l1.073.986a.615.615,0,1,0,.832-.906l-1.08-.992-.008-.008a1.278,1.278,0,0,0-1.749.053,2.609,2.609,0,0,0-.512.725l-1.606-1.606-.03-.028a5.392,5.392,0,0,0,.507-1.7,1.823,1.823,0,0,0,.26-.214l6.57-6.57a4.962,4.962,0,0,0,1.4-2.807l.158-1.13L41.82,5.917a.615.615,0,1,0-.87-.87L37.1,8.9a.615.615,0,0,0-.174.35l-.186,1.335a3.725,3.725,0,0,1-1.049,2.107l-6,6a5.387,5.387,0,0,0-.391-1.258l2.723-2.723a.615.615,0,1,0-.87-.87l-2.509,2.509a5.419,5.419,0,0,0-.442-.5q-.178-.178-.368-.336L30.437,12.9a.615.615,0,0,0-.87-.87l-2.8,2.8A5.377,5.377,0,0,0,25.55,14.4l3.157-3.157a.615.615,0,0,0-.87-.87l-3.915,3.917a5.431,5.431,0,0,0-.959.168l-.019-.017a.584.584,0,0,1,0-.825l2.251-2.251a2.6,2.6,0,0,0,1.465-.737L28.4,8.891a3.585,3.585,0,0,0,3.333.869.615.615,0,0,0-.294-1.195,2.365,2.365,0,0,1-2.255-.628l-.35-.35a.615.615,0,0,0-.87,0L25.789,9.762a1.39,1.39,0,0,1-1.964,0,.046.046,0,0,1,0-.061l3.6-3.92a2.963,2.963,0,0,1,1.208-.792l1.716-.594a1.444,1.444,0,0,1,1.094.059l1.522.718,1.612,1.612a.615.615,0,1,0,.87-.87L33.99,4.457l3.185-3.185A.615.615,0,0,0,36.3.4L32.918,3.788l-.952-.449a2.667,2.667,0,0,0-2.021-.108l-1.716.594a4.2,4.2,0,0,0-1.711,1.122L22.909,8.875l-.008.008a1.278,1.278,0,0,0,.053,1.749,2.608,2.608,0,0,0,.725.512l-1.606,1.606a1.815,1.815,0,0,0-.288,2.185,5.356,5.356,0,0,0-.785.523,5.351,5.351,0,0,0-1.1-.683,1.81,1.81,0,0,0,.235-2.762L18.8,10.685a.615.615,0,0,0-.87.87l1.328,1.328a.583.583,0,1,1-.825.825L14.716,9.985a.615.615,0,1,0-.87.87l3.43,3.43a5.421,5.421,0,0,0-1.38.27L12.9,11.563a.615.615,0,0,0-.87.87l2.685,2.685a5.389,5.389,0,0,0-.914.733l-2.56-2.558a.615.615,0,1,0-.87.87l2.661,2.661a5.354,5.354,0,0,0-.527,1.122s-1.116-1.112-1.138-1.129a2.6,2.6,0,0,0-.739-1.476L8.891,13.6a3.584,3.584,0,0,0,.869-3.333.615.615,0,0,0-1.195.294,2.365,2.365,0,0,1-.628,2.255l-.35.35a.615.615,0,0,0,0,.87l2.175,2.175a1.39,1.39,0,0,1,0,1.964.046.046,0,0,1-.061,0l-3.92-3.6a2.963,2.963,0,0,1-.792-1.208l-.594-1.716a1.444,1.444,0,0,1,.059-1.094L5.17,9.037,6.782,7.425a.615.615,0,0,0-.87-.87L4.457,8.01,1.272,4.826A.615.615,0,0,0,.4,5.7L3.788,9.082l-.449.952a2.667,2.667,0,0,0-.108,2.021l.594,1.716a4.2,4.2,0,0,0,1.122,1.711L8.883,19.1a1.278,1.278,0,0,0,1.749-.053,2.609,2.609,0,0,0,.512-.725l1.091,1.091a5.428,5.428,0,0,0,.313,2.087,1.806,1.806,0,0,0-.534.369l-1.845,1.845a.615.615,0,1,0,.87.87l1.845-1.845a.574.574,0,0,1,.21-.135,5.393,5.393,0,0,0,.7.871l-3.81,3.81a.615.615,0,1,0,.87.87l3.81-3.81.825.825L11.563,29.1a.615.615,0,1,0,.87.87l3.927-3.927.825.825-3.891,3.891a.615.615,0,1,0,.87.87l3.891-3.891.825.825Zm3.955-1.881-6.114-6.114a4.167,4.167,0,0,1,5.893-5.893.615.615,0,0,0,.869,0,4.167,4.167,0,0,1,5.894,5.893l-6.114,6.115a.3.3,0,0,1-.428,0Z"/>
      <path id="Trazado_156771" data-name="Trazado 156771" d="M8.9,4.9a.615.615,0,0,0,.35.174l1.335.186a3.725,3.725,0,0,1,2.107,1.049l3.19,3.19a.615.615,0,1,0,.87-.87l-3.19-3.19a4.962,4.962,0,0,0-2.807-1.4l-1.13-.158L5.917.18a.615.615,0,0,0-.87.87Z"/>
      <path id="Trazado_156772" data-name="Trazado 156772" d="M38.212,32.918l.449-.952a2.667,2.667,0,0,0,.108-2.021l-.594-1.716a4.2,4.2,0,0,0-1.122-1.711l-.709-.652a.615.615,0,1,0-.832.906l.709.652a2.963,2.963,0,0,1,.792,1.208l.594,1.716a1.444,1.444,0,0,1-.059,1.094l-.718,1.522-1.612,1.612a.615.615,0,1,0,.87.87l1.456-1.455,3.185,3.185a.615.615,0,0,0,.87-.87Z"/>
    </g>
  </g>
</svg>
