<svg xmlns="http://www.w3.org/2000/svg" width="42" height="42" viewBox="0 0 42 42">
  <g id="creatividad" transform="translate(-0.677 -0.677)">
    <g id="Grupo_108685" data-name="Grupo 108685">
      <g id="Grupo_108651" data-name="Grupo 108651">
        <path id="Trazado_156801" data-name="Trazado 156801" d="M10.161,33.194l2.974,1.192a5.323,5.323,0,0,0-.671.569,5.543,5.543,0,0,0-1.626,3.922V42H1.355V35.49a3.9,3.9,0,0,1,3.272-3.855l1.511-.251.637,3.164Z" fill="#4fc1e9"/>
      </g>
      <g id="Grupo_108652" data-name="Grupo 108652">
        <path id="Trazado_156802" data-name="Trazado 156802" d="M15.7,31.635a3.881,3.881,0,0,1,2.127,1.091l.061.061-1.009.251-1.274.318-.562.142a5.367,5.367,0,0,0-1.389.555l.535-2.669Z" fill="#4fc1e9"/>
      </g>
      <g id="Grupo_108653" data-name="Grupo 108653">
        <path id="Trazado_156803" data-name="Trazado 156803" d="M14.185,31.378v.007l-.535,2.669a4.734,4.734,0,0,0-.515.332l-2.974-1.192,2.71-2.032Z" fill="#69d6f4"/>
      </g>
      <g id="Grupo_108654" data-name="Grupo 108654">
        <path id="Trazado_156804" data-name="Trazado 156804" d="M10.161,33.194,6.774,34.548l-.637-3.164v-.007l1.314-.217Z" fill="#69d6f4"/>
      </g>
      <g id="Grupo_108655" data-name="Grupo 108655">
        <path id="Trazado_156805" data-name="Trazado 156805" d="M30.9,29.895l-.42,1.267-2.825.474a4.156,4.156,0,0,0-.589.142,19.754,19.754,0,0,1-.928-3.089,4.1,4.1,0,0,0,.224-.915h.007l2.08-3.048v1.016A4.74,4.74,0,0,0,30.9,29.895Z" fill="#b27946"/>
      </g>
      <g id="Grupo_108656" data-name="Grupo 108656">
        <path id="Trazado_156806" data-name="Trazado 156806" d="M42,35.49V42H32.516V38.877a5.742,5.742,0,0,0-.3-1.8A2.707,2.707,0,0,0,35.9,34.548V31.161l2.825.474a4.156,4.156,0,0,1,.589.142A3.911,3.911,0,0,1,42,35.49Z" fill="#5cd6b3"/>
      </g>
      <g id="Grupo_108657" data-name="Grupo 108657">
        <path id="Trazado_156807" data-name="Trazado 156807" d="M27.659,31.635l2.825-.474v3.428A5.423,5.423,0,0,0,28.316,33.5l-.562-.142-1.274-.318-1.009-.251.061-.061a3.908,3.908,0,0,1,1.538-.948,4.156,4.156,0,0,1,.589-.142Z" fill="#5cd6b3"/>
      </g>
      <g id="Grupo_108658" data-name="Grupo 108658">
        <path id="Trazado_156808" data-name="Trazado 156808" d="M30.484,34.548H35.9a2.707,2.707,0,0,1-3.685,2.527c-.041-.108-.081-.217-.122-.318a5.613,5.613,0,0,0-1.206-1.8,5.213,5.213,0,0,0-.406-.366v-.041Z" fill="#ccd1d9"/>
      </g>
      <g id="Grupo_108659" data-name="Grupo 108659">
        <path id="Trazado_156809" data-name="Trazado 156809" d="M18.412,39.473,17.782,42H10.839V38.877a5.543,5.543,0,0,1,1.626-3.922,5.323,5.323,0,0,1,.671-.569,4.734,4.734,0,0,1,.515-.332,5.367,5.367,0,0,1,1.389-.555l.562-.142.657,5.257Z" fill="#ffeaa7"/>
      </g>
      <g id="Grupo_108660" data-name="Grupo 108660">
        <path id="Trazado_156810" data-name="Trazado 156810" d="M32.218,37.075a5.742,5.742,0,0,1,.3,1.8V42H25.573l-.63-2.527,2.154-.86.657-5.257.562.142a5.423,5.423,0,0,1,2.168,1.091,5.211,5.211,0,0,1,.406.366,5.613,5.613,0,0,1,1.206,1.8C32.137,36.858,32.177,36.967,32.218,37.075Z" fill="#ffeaa7"/>
      </g>
      <g id="Grupo_108661" data-name="Grupo 108661">
        <path id="Trazado_156811" data-name="Trazado 156811" d="M18.473,37.15l1.084,2.784-1.145-.461-2.154-.86L15.6,33.356l1.274-.318Z" fill="#fcd770"/>
      </g>
      <g id="Grupo_108662" data-name="Grupo 108662">
        <path id="Trazado_156812" data-name="Trazado 156812" d="M19.875,40.747,20.363,42H17.782l.63-2.527,1.145.461Z" fill="#fcd770"/>
      </g>
      <g id="Grupo_108663" data-name="Grupo 108663">
        <path id="Trazado_156813" data-name="Trazado 156813" d="M23.479,40.747l.318-.813,1.145-.461L25.573,42H22.992Z" fill="#fcd770"/>
      </g>
      <g id="Grupo_108664" data-name="Grupo 108664">
        <path id="Trazado_156814" data-name="Trazado 156814" d="M23.8,39.934l1.084-2.784,1.6-4.112,1.274.318L27.1,38.613l-2.154.86Z" fill="#fcd770"/>
      </g>
      <g id="Grupo_108665" data-name="Grupo 108665">
        <path id="Trazado_156815" data-name="Trazado 156815" d="M19.9,36.289,21,37.935l-1.125,2.811-.318-.813L18.473,37.15Z" fill="#ccd1d9"/>
      </g>
      <g id="Grupo_108666" data-name="Grupo 108666">
        <path id="Trazado_156816" data-name="Trazado 156816" d="M24.882,37.15,23.8,39.934l-.318.813-1.125-2.811,1.1-1.646Z" fill="#ccd1d9"/>
      </g>
      <g id="Grupo_108667" data-name="Grupo 108667">
        <path id="Trazado_156817" data-name="Trazado 156817" d="M21,37.935h1.355l1.125,2.811L22.992,42H20.363l-.488-1.253Z" fill="#ff826e"/>
      </g>
      <g id="Grupo_108668" data-name="Grupo 108668">
        <path id="Trazado_156818" data-name="Trazado 156818" d="M22.355,37.935H21l-1.1-1.646,1.775-1.064,1.775,1.064Z" fill="#ff826e"/>
      </g>
      <g id="Grupo_108669" data-name="Grupo 108669">
        <path id="Trazado_156819" data-name="Trazado 156819" d="M21.677,35.226l2.71-2.71,1.084.271,1.009.251-1.6,4.112-1.429-.86Z" fill="#ccd1d9"/>
      </g>
      <g id="Grupo_108670" data-name="Grupo 108670">
        <path id="Trazado_156820" data-name="Trazado 156820" d="M18.968,32.516l2.71,2.71L19.9,36.289l-1.429.86-1.6-4.112,1.009-.251Z" fill="#ccd1d9"/>
      </g>
      <g id="Grupo_108671" data-name="Grupo 108671">
        <path id="Trazado_156821" data-name="Trazado 156821" d="M16.17,19.056l-.84.84a3.756,3.756,0,0,0-.935,1.558,2.71,2.71,0,0,0-2.2-1.131H8.129a2.709,2.709,0,0,0-2.71,2.71v1.355a6.77,6.77,0,0,1-2.71-5.419v-2.71a6.1,6.1,0,0,0,2.838.677c1.971,0,1.9-1.355,4.742-1.355h.291a4.3,4.3,0,0,1,3.563,1.9l.081.129a2.035,2.035,0,0,1,1.944,1.443Z" fill="#b27946"/>
      </g>
      <g id="Grupo_108672" data-name="Grupo 108672">
        <path id="Trazado_156822" data-name="Trazado 156822" d="M40.645,22.355V24.8a19.058,19.058,0,0,1-1.328,6.977,4.156,4.156,0,0,0-.589-.142L35.9,31.161l-.42-1.267a4.735,4.735,0,0,0,2.452-4.153V22.355l-.339-.088a14.017,14.017,0,0,1-4.4-1.944,14.2,14.2,0,0,1-4.085,1.863,3.767,3.767,0,0,0-1.084-2.29l-1.064-1.064a.438.438,0,0,0-.061-.054,6.081,6.081,0,0,1,4.938-2.52h2.71a6.1,6.1,0,0,1,6.1,6.1Z" fill="#b27946"/>
      </g>
      <g id="Grupo_108673" data-name="Grupo 108673">
        <path id="Trazado_156823" data-name="Trazado 156823" d="M16.935,24.855V27.1a3.708,3.708,0,0,0,.054.677h-.007L14.9,24.726l-.041-.061a3.764,3.764,0,0,1-.467-3.211A3.756,3.756,0,0,1,15.33,19.9l.84-.84.224-.224a4.167,4.167,0,0,1,4.81-.779l.474.237.474-.237a4.158,4.158,0,0,1,4.749.725.438.438,0,0,1,.061.054L28.025,19.9a3.767,3.767,0,0,1,1.084,2.29,3.465,3.465,0,0,1,.02.379,3.807,3.807,0,0,1-.637,2.1l-.041.061-2.08,3.048h-.007a3.708,3.708,0,0,0,.054-.677v-1.87a3.4,3.4,0,0,0-2.832-3.346l-1.023-.169h-.007a2.249,2.249,0,0,1-1.545.867l-2.269.251a2.038,2.038,0,0,0-1.809,2.025Z" fill="#656d78"/>
      </g>
      <g id="Grupo_108674" data-name="Grupo 108674">
        <path id="Trazado_156824" data-name="Trazado 156824" d="M10.161,30.484l2.29-.589.42,1.267-2.71,2.032-2.71-2.032.42-1.267a4.662,4.662,0,0,0,2.29.589Z" fill="#f0d0b4"/>
      </g>
      <g id="Grupo_108675" data-name="Grupo 108675">
        <path id="Trazado_156825" data-name="Trazado 156825" d="M5.419,24.387V23.032a2.709,2.709,0,0,1,2.71-2.71h4.065a2.71,2.71,0,0,1,2.2,1.131,3.764,3.764,0,0,0,.467,3.211l.041.061v1.016a4.74,4.74,0,0,1-2.452,4.153l-2.29.589a4.662,4.662,0,0,1-2.29-.589,4.735,4.735,0,0,1-2.452-4.153Z" fill="#f0d0b4"/>
      </g>
      <g id="Grupo_108676" data-name="Grupo 108676">
        <path id="Trazado_156826" data-name="Trazado 156826" d="M35.9,31.161v3.387H30.484V31.161l.42-1.267,2.29.589a4.662,4.662,0,0,0,2.29-.589Z" fill="#f0d0b4"/>
      </g>
      <g id="Grupo_108677" data-name="Grupo 108677">
        <path id="Trazado_156827" data-name="Trazado 156827" d="M37.935,22.355v3.387a4.735,4.735,0,0,1-2.452,4.153,4.662,4.662,0,0,1-2.29.589l-2.29-.589a4.74,4.74,0,0,1-2.452-4.153V24.726l.041-.061a3.807,3.807,0,0,0,.637-2.1,3.465,3.465,0,0,0-.02-.379,14.2,14.2,0,0,0,4.085-1.863,14.017,14.017,0,0,0,4.4,1.944Z" fill="#f0d0b4"/>
      </g>
      <g id="Grupo_108678" data-name="Grupo 108678">
        <path id="Trazado_156828" data-name="Trazado 156828" d="M24.387,32.516l-2.71,2.71-2.71-2.71.589-1.179a4.724,4.724,0,0,0,2.12.5l2.12-.5Z" fill="#f0d0b4"/>
      </g>
      <g id="Grupo_108679" data-name="Grupo 108679">
        <path id="Trazado_156829" data-name="Trazado 156829" d="M16.935,27.1V24.855a2.038,2.038,0,0,1,1.809-2.025l2.269-.251a2.249,2.249,0,0,0,1.545-.867h.007l1.023.169a3.4,3.4,0,0,1,2.832,3.346V27.1a3.708,3.708,0,0,1-.054.677,4.1,4.1,0,0,1-.224.915,4.7,4.7,0,0,1-1.111,1.761,4.574,4.574,0,0,1-1.233.887l-2.12.5a4.736,4.736,0,0,1-4.688-4.065,3.708,3.708,0,0,1-.054-.677Z" fill="#f0d0b4"/>
      </g>
      <g id="Grupo_108680" data-name="Grupo 108680">
        <path id="Trazado_156830" data-name="Trazado 156830" d="M5.419,10.161V3.387A.679.679,0,0,1,6.1,2.71H16.935a.683.683,0,0,1,.657.508,5.406,5.406,0,0,0,0,7.113.683.683,0,0,1-.657.508H14.9v1.809a.9.9,0,0,1-.9.9.915.915,0,0,1-.725-.359l-1.761-2.351H6.1A.679.679,0,0,1,5.419,10.161Z" fill="#e6e9ed"/>
      </g>
      <g id="Grupo_108681" data-name="Grupo 108681">
        <path id="Trazado_156831" data-name="Trazado 156831" d="M37.935,3.387v6.774a.679.679,0,0,1-.677.677H31.839l-1.761,2.351a.915.915,0,0,1-.725.359.9.9,0,0,1-.9-.9V10.839H26.419a.689.689,0,0,1-.657-.508,5.406,5.406,0,0,0,0-7.113.689.689,0,0,1,.657-.508H37.258A.679.679,0,0,1,37.935,3.387Z" fill="#e6e9ed"/>
      </g>
      <g id="Grupo_108682" data-name="Grupo 108682">
        <path id="Trazado_156832" data-name="Trazado 156832" d="M18.968,13.548V11.516l.02-.041a5.32,5.32,0,0,0,2.689.718,5.388,5.388,0,0,0,2.689-.718l.02.041v2.032A1.359,1.359,0,0,1,23.032,14.9h-2.71A1.359,1.359,0,0,1,18.968,13.548Z" fill="#ccd1d9"/>
      </g>
      <g id="Grupo_108683" data-name="Grupo 108683">
        <path id="Trazado_156833" data-name="Trazado 156833" d="M21.677,12.194a5.431,5.431,0,0,1-4.085-1.863,5.419,5.419,0,1,1,8.17,0,5.3,5.3,0,0,1-1.4,1.145,5.388,5.388,0,0,1-2.689.718Z" fill="#ffeaa7"/>
      </g>
      <g id="Grupo_108684" data-name="Grupo 108684">
        <circle id="Elipse_4912" data-name="Elipse 4912" cx="1.355" cy="1.355" r="1.355" transform="translate(20.323 5.419)" fill="#fcd770"/>
      </g>
    </g>
    <g id="Grupo_108686" data-name="Grupo 108686">
      <circle id="Elipse_4913" data-name="Elipse 4913" cx="0.677" cy="0.677" r="0.677" transform="translate(18.968 25.065)"/>
      <circle id="Elipse_4914" data-name="Elipse 4914" cx="0.677" cy="0.677" r="0.677" transform="translate(23.032 25.065)"/>
      <path id="Trazado_156834" data-name="Trazado 156834" d="M23.032,27.614a1.515,1.515,0,0,1-2.71,0l-.071-.143-1.212.606.071.143a2.87,2.87,0,0,0,5.133,0l.071-.143L23.1,27.471Z"/>
      <circle id="Elipse_4915" data-name="Elipse 4915" cx="0.677" cy="0.677" r="0.677" transform="translate(30.484 23.71)"/>
      <circle id="Elipse_4916" data-name="Elipse 4916" cx="0.677" cy="0.677" r="0.677" transform="translate(34.548 23.71)"/>
      <path id="Trazado_156835" data-name="Trazado 156835" d="M31.768,26.117l-1.212.606.071.143a2.87,2.87,0,0,0,5.133,0l.071-.143-1.212-.606-.071.144a1.515,1.515,0,0,1-2.71,0Z"/>
      <circle id="Elipse_4917" data-name="Elipse 4917" cx="0.677" cy="0.677" r="0.677" transform="translate(7.452 23.71)"/>
      <circle id="Elipse_4918" data-name="Elipse 4918" cx="0.677" cy="0.677" r="0.677" transform="translate(11.516 23.71)"/>
      <path id="Trazado_156836" data-name="Trazado 156836" d="M8.735,26.117l-1.212.606.071.143a2.87,2.87,0,0,0,5.133,0l.071-.143-1.212-.606-.071.144a1.515,1.515,0,0,1-2.71,0Z"/>
      <path id="Trazado_156837" data-name="Trazado 156837" d="M6.1,11.516h5.081l1.558,2.077a1.58,1.58,0,0,0,2.845-.948V11.516h1.355a1.351,1.351,0,0,0,.694-.2,6.276,6.276,0,0,0,.66.52v1.708a2.035,2.035,0,0,0,2.032,2.032h2.71a2.035,2.035,0,0,0,2.032-2.032V11.84a6.129,6.129,0,0,0,.661-.52,1.345,1.345,0,0,0,.694.2h1.355v1.129a1.58,1.58,0,0,0,2.845.948l1.558-2.077h5.081a1.356,1.356,0,0,0,1.355-1.355V3.387a1.356,1.356,0,0,0-1.355-1.355H26.419a1.351,1.351,0,0,0-.694.2,6.061,6.061,0,0,0-8.1,0,1.351,1.351,0,0,0-.694-.2H6.1A1.356,1.356,0,0,0,4.742,3.387v6.774A1.356,1.356,0,0,0,6.1,11.516ZM23.71,13.548a.678.678,0,0,1-.677.677h-2.71a.678.678,0,0,1-.677-.677V12.515a5.984,5.984,0,0,0,4.065,0ZM21,6.774a.677.677,0,1,1,.677.677A.678.678,0,0,1,21,6.774Zm16.258,3.387H31.5l-1.964,2.62a.235.235,0,0,1-.407-.135V10.161H26.743a6.08,6.08,0,0,0,0-6.775H37.258ZM21.677,2.032a4.739,4.739,0,0,1,.677,9.43V8.682a2.032,2.032,0,1,0-1.355,0v2.78a4.739,4.739,0,0,1,.677-9.43ZM6.1,3.387H16.612a6.08,6.08,0,0,0,0,6.775H14.226v2.484a.235.235,0,0,1-.407.135l-1.964-2.62H6.1Z"/>
      <path id="Trazado_156838" data-name="Trazado 156838" d="M7.452,4.742h6.774V6.1H7.452Z"/>
      <path id="Trazado_156839" data-name="Trazado 156839" d="M7.452,7.452h2.71V8.806H7.452Z"/>
      <path id="Trazado_156840" data-name="Trazado 156840" d="M11.516,7.452h2.71V8.806h-2.71Z"/>
      <path id="Trazado_156841" data-name="Trazado 156841" d="M34.548,6.1H35.9V7.452H34.548Z"/>
      <path id="Trazado_156842" data-name="Trazado 156842" d="M31.839,6.1h1.355V7.452H31.839Z"/>
      <path id="Trazado_156843" data-name="Trazado 156843" d="M29.129,6.1h1.355V7.452H29.129Z"/>
      <path id="Trazado_156844" data-name="Trazado 156844" d="M41.333,32.247a4.579,4.579,0,0,0-1.159-.843,19.515,19.515,0,0,0,1.148-6.6V22.355a6.782,6.782,0,0,0-6.774-6.774h-2.71a6.8,6.8,0,0,0-5.032,2.246,4.827,4.827,0,0,0-4.957-.38l-.172.086-.172-.086a4.829,4.829,0,0,0-5.152.525A2.68,2.68,0,0,0,14.6,16.961,4.947,4.947,0,0,0,10.58,14.9h-.291a5.482,5.482,0,0,0-3.2.862,2.627,2.627,0,0,1-1.547.492,5.526,5.526,0,0,1-2.494-.583.677.677,0,0,0-1.019.585v2.708A7.48,7.48,0,0,0,4.742,24.7v1.043a5.416,5.416,0,0,0,2.322,4.44l-.126.377-2.426.4A4.591,4.591,0,0,0,.677,35.491v7.186h42V35.491a4.559,4.559,0,0,0-1.344-3.245ZM31.839,16.935h2.71a5.426,5.426,0,0,1,5.419,5.419V24.8a18.156,18.156,0,0,1-1.079,6.172c-.016,0-.03-.009-.046-.012l-2.425-.4-.126-.377a5.416,5.416,0,0,0,2.322-4.44V21.826l-.854-.213a13.411,13.411,0,0,1-4.191-1.853l-.375-.251-.376.251a13.408,13.408,0,0,1-3.191,1.553,4.436,4.436,0,0,0-1.125-1.9l-.685-.685A5.438,5.438,0,0,1,31.839,16.935ZM8.28,30.818a5.322,5.322,0,0,0,3.762,0l.032.095-1.912,1.434L8.248,30.912Zm7.2-4.046.866,1.269A5.427,5.427,0,0,0,18.668,31.6l-.167.334-.437.109a4.558,4.558,0,0,0-2.254-1.08l-2.425-.4-.126-.378a5.42,5.42,0,0,0,2.221-3.409Zm17.714-5.644a14.718,14.718,0,0,0,4.065,1.754v2.86a4.065,4.065,0,1,1-8.129,0v-.83a4.434,4.434,0,0,0,.669-2.233A14.749,14.749,0,0,0,33.194,21.128ZM31.161,33.871v-2.6l.152-.455a5.322,5.322,0,0,0,3.762,0l.151.454v2.6Zm-8.045,4.144.543-.816.385.234L23.472,38.9Zm-1.124-.757h-.629l-.5-.753.833-.5.807.49Zm-1.754.757-.356.889-.571-1.469L19.7,37.2ZM15.587,32.3a3.182,3.182,0,0,1,.665.2l-1.378.344c-.107.026-.209.069-.314.1l.157-.786Zm6.09.215a5.387,5.387,0,0,0,1.8-.312l.089.179-1.885,1.885-1.885-1.885.089-.179A5.387,5.387,0,0,0,21.677,32.516Zm4.228-2.037c.094.311.211.614.32.92a4.539,4.539,0,0,0-.934.645l-.437-.109-.167-.334a5.48,5.48,0,0,0,1.218-1.122Zm-1.364,5.675-1.785-1.071,1.836-1.818.978.245ZM18.76,33.266l1.825,1.825-1.771,1.063-1.028-2.645Zm-2.3.575,1.9,4.883-1.479-.591-.533-4.264ZM25,38.724l1.9-4.883.113.028-.532,4.263ZM27.1,32.5a3.2,3.2,0,0,1,.667-.2l2.04-.34v1.391a6.175,6.175,0,0,0-1.326-.51Zm.776-5.725A5.426,5.426,0,0,0,30.1,30.182l-.126.378-2.426.4-.035.009a18.3,18.3,0,0,1-.66-2.257,5.421,5.421,0,0,0,.159-.674Zm-2.133.325a4.065,4.065,0,0,1-8.129,0V24.852a1.353,1.353,0,0,1,1.205-1.347l2.269-.252a2.942,2.942,0,0,0,1.727-.812l.664.11a2.7,2.7,0,0,1,2.264,2.672ZM8.791,33.012l-1.512.6-.337-1.684.335-.056Zm4.254-1.135.335.056-.337,1.684-1.512-.6Zm-.1,3.558a4.86,4.86,0,0,1,2.084-1.223l.61,4.881,1.977.791-.359,1.438H11.516V38.877A4.835,4.835,0,0,1,12.941,35.436Zm5.94,4.956.15.06.339.87h-.721Zm1.721.362.856-2.141H21.9l.856,2.141-.221.568H20.824Zm3.721-.3.15-.06.232.93h-.721Zm1.419-.568,1.977-.791.61-4.88a4.836,4.836,0,0,1,3.509,4.664v2.445H26.1ZM32,35.226h3.1a2.029,2.029,0,0,1-1.908,1.355,2.053,2.053,0,0,1-.461-.058A6.121,6.121,0,0,0,32,35.226ZM20.9,18.659l.778.389.778-.389a3.576,3.576,0,0,1,4.028.654l1.059,1.059a3.1,3.1,0,0,1,.392,3.908L27.1,25.508v-.285a4.051,4.051,0,0,0-3.4-4.009l-.122-.02a2.924,2.924,0,0,0,.131-.872H22.355a1.591,1.591,0,0,1-1.417,1.583l-2.269.252a2.708,2.708,0,0,0-2.41,2.694v.657l-.834-1.223a3.1,3.1,0,0,1,.387-3.913l1.059-1.059a3.577,3.577,0,0,1,4.029-.654Zm-17.513.309V17.274a7.1,7.1,0,0,0,2.158.339,3.953,3.953,0,0,0,2.235-.679,4.149,4.149,0,0,1,2.508-.675h.291a3.6,3.6,0,0,1,3,1.605l.084.126a.677.677,0,0,0,.563.3,1.359,1.359,0,0,1,1.13.622l-.5.5a4.486,4.486,0,0,0-.678.879,3.39,3.39,0,0,0-1.982-.648H8.129a3.381,3.381,0,0,0-3.365,3.173,6.127,6.127,0,0,1-1.377-3.85ZM6.1,25.742v-2.71A2.035,2.035,0,0,1,8.129,21h4.065a2.025,2.025,0,0,1,1.454.633,4.491,4.491,0,0,0-.1.933,4.442,4.442,0,0,0,.677,2.346v.831a4.065,4.065,0,0,1-8.129,0ZM2.032,35.491a3.235,3.235,0,0,1,2.7-3.191l.87-.145L6.27,35.48l3.892-1.557,1.706.683a6.172,6.172,0,0,0-1.706,4.271v2.445H2.032Zm39.29,5.831H33.194V38.877a6.206,6.206,0,0,0-.079-.948c.027,0,.053.007.079.007a3.391,3.391,0,0,0,3.387-3.387V31.961l2.039.339a3.234,3.234,0,0,1,2.7,3.191Z"/>
    </g>
  </g>
</svg>
