<svg xmlns="http://www.w3.org/2000/svg" width="81.759" height="81.75" viewBox="0 0 81.759 81.75">
  <g id="sello" transform="translate(0 -0.004)">
    <g id="Grupo_108727" data-name="Grupo 108727">
      <g id="Grupo_108726" data-name="Grupo 108726">
        <path id="Trazado_156995" data-name="Trazado 156995" d="M63.626,49.484,32.26,18.118l4.847-4.847a3.205,3.205,0,0,1,4.533,0L68.474,40.1a3.205,3.205,0,0,1,0,4.533Z" fill="#d1aee5"/>
        <path id="Trazado_156996" data-name="Trazado 156996" d="M77.566,16.712A8.863,8.863,0,1,0,62.653,8.494a21.12,21.12,0,0,1-5.6,10.358l-4.917,4.917,5.837,5.838,4.839-4.839A20.466,20.466,0,0,1,73.1,19.124a8.823,8.823,0,0,0,4.468-2.413Z" fill="#e0c9ed"/>
      </g>
      <path id="Trazado_156997" data-name="Trazado 156997" d="M38.029,33.506l-8.284-8.284,4.81-4.81L61.332,47.189,56.522,52l-8.284-8.284" fill="#faf7f5"/>
      <circle id="Elipse_4922" data-name="Elipse 4922" cx="21.58" cy="21.58" r="21.58" transform="translate(1.597 36.998)" fill="#ff7d97"/>
      <circle id="Elipse_4923" data-name="Elipse 4923" cx="14.551" cy="14.551" r="14.551" transform="translate(5.66 69.412) rotate(-76.7)" fill="#faf7f5"/>
    </g>
    <g id="Grupo_108728" data-name="Grupo 108728">
      <path id="Trazado_156998" data-name="Trazado 156998" d="M23.177,35.4A23.177,23.177,0,1,0,46.353,58.578,23.2,23.2,0,0,0,23.177,35.4Zm0,43.159A19.983,19.983,0,1,1,43.159,58.578,20.006,20.006,0,0,1,23.177,78.561Z"/>
      <path id="Trazado_156999" data-name="Trazado 156999" d="M23.177,42.428a16.15,16.15,0,1,0,16.15,16.15A16.169,16.169,0,0,0,23.177,42.428Zm0,29.107A12.957,12.957,0,1,1,36.133,58.578,12.971,12.971,0,0,1,23.177,71.535Z"/>
      <path id="Trazado_157000" data-name="Trazado 157000" d="M81.756,10.2A10.379,10.379,0,0,0,78.34,2.709,10.461,10.461,0,0,0,61.1,8.144a19.527,19.527,0,0,1-5.169,9.579l-3.788,3.788-9.369-9.369a4.8,4.8,0,0,0-6.791,0l-4.847,4.847a1.6,1.6,0,0,0,0,2.258L32.3,20.413l-3.68,3.68a1.6,1.6,0,0,0,0,2.258L36.9,34.636a1.6,1.6,0,1,0,2.258-2.258L32,25.223l2.551-2.551L59.073,47.189l-2.551,2.551-7.155-7.155a1.6,1.6,0,1,0-2.258,2.258l8.284,8.284a1.6,1.6,0,0,0,2.258,0l3.68-3.68L62.5,50.614a1.6,1.6,0,0,0,2.258,0L69.6,45.767a4.8,4.8,0,0,0,0-6.791l-9.369-9.369,3.71-3.71a18.805,18.805,0,0,1,9.477-5.208A10.462,10.462,0,0,0,81.756,10.2ZM67.815,42.371a1.6,1.6,0,0,1-.471,1.137l-3.718,3.718L34.518,18.118,38.236,14.4a1.608,1.608,0,0,1,2.275,0L67.344,41.234a1.6,1.6,0,0,1,.471,1.137Zm8.622-26.788a7.231,7.231,0,0,1-3.661,1.978,21.99,21.99,0,0,0-11.09,6.078l-3.71,3.71L54.4,23.769l3.788-3.788A22.715,22.715,0,0,0,64.211,8.844a7.266,7.266,0,1,1,12.226,6.739Z"/>
      <path id="Trazado_157001" data-name="Trazado 157001" d="M41.826,39.518a1.6,1.6,0,1,0,.2-2.015A1.611,1.611,0,0,0,41.826,39.518Z"/>
      <path id="Trazado_157002" data-name="Trazado 157002" d="M28.013,53.673a1.6,1.6,0,0,0-2.258.007l-2.472,2.488L20.81,53.68a1.6,1.6,0,0,0-2.266,2.251l2.487,2.5-2.487,2.5a1.6,1.6,0,0,0,2.266,2.251L23.282,60.7l2.472,2.488a1.6,1.6,0,0,0,2.266-2.251l-2.487-2.5,2.487-2.5a1.6,1.6,0,0,0-.007-2.258Z"/>
    </g>
  </g>
</svg>
