<svg xmlns="http://www.w3.org/2000/svg" width="76.476" height="81.75" viewBox="0 0 76.476 81.75">
  <g id="el-tiempo-de-entrega" transform="translate(-3.956 -1.318)">
    <g id="Grupo_108714" data-name="Grupo 108714">
      <g id="Grupo_108713" data-name="Grupo 108713">
        <path id="Trazado_156962" data-name="Trazado 156962" d="M44.705,29.008H7.911a2.637,2.637,0,0,0-2.637,2.637V79.113A2.637,2.637,0,0,0,7.911,81.75H55.379a2.637,2.637,0,0,0,2.637-2.637V44.5" fill="#a0815c"/>
        <path id="Trazado_156963" data-name="Trazado 156963" d="M39.556,55.379,31.645,50.1l-7.911,5.274V29.008H39.556Z" fill="#ffda44"/>
        <path id="Trazado_156964" data-name="Trazado 156964" d="M9.23,67.246H22.415V77.794H9.23Z" fill="#2488ff"/>
      </g>
      <circle id="Elipse_4919" data-name="Elipse 4919" cx="17.141" cy="17.141" r="17.141" transform="translate(44.831 10.548)" fill="#57565c"/>
      <circle id="Elipse_4920" data-name="Elipse 4920" cx="13.185" cy="13.185" r="13.185" transform="translate(48.786 14.504)" fill="#e0e0e2"/>
      <path id="Trazado_156965" data-name="Trazado 156965" d="M61.972,22.415V27.69l2.637,2.637" fill="#e0e0e2"/>
      <path id="Trazado_156966" data-name="Trazado 156966" d="M58.016,2.637h7.911V6.593H58.016Z" fill="#ff9811"/>
      <path id="Trazado_156967" data-name="Trazado 156967" d="M75.157,15.823l2.637-2.637" fill="#e0e0e2"/>
    </g>
    <g id="Grupo_108715" data-name="Grupo 108715">
      <path id="Trazado_156968" data-name="Trazado 156968" d="M22.415,65.927H9.23a1.319,1.319,0,0,0-1.319,1.319V77.794A1.319,1.319,0,0,0,9.23,79.113H22.415a1.319,1.319,0,0,0,1.319-1.319V67.246A1.319,1.319,0,0,0,22.415,65.927ZM21.1,76.476H10.548V68.565H21.1Z"/>
      <path id="Trazado_156969" data-name="Trazado 156969" d="M36.919,65.927H26.371a1.319,1.319,0,0,0,0,2.637H36.919a1.319,1.319,0,0,0,0-2.637Z"/>
      <path id="Trazado_156970" data-name="Trazado 156970" d="M31.645,69.883H26.371a1.319,1.319,0,0,0,0,2.637h5.274a1.319,1.319,0,0,0,0-2.637Z"/>
      <path id="Trazado_156971" data-name="Trazado 156971" d="M29.008,73.839H26.371a1.319,1.319,0,1,0,0,2.637h2.637a1.319,1.319,0,1,0,0-2.637Z"/>
      <path id="Trazado_156972" data-name="Trazado 156972" d="M61.972,13.185a14.5,14.5,0,1,0,14.5,14.5,14.5,14.5,0,0,0-14.5-14.5Zm0,26.371A11.867,11.867,0,1,1,73.839,27.69,11.867,11.867,0,0,1,61.972,39.556Z"/>
      <path id="Trazado_156973" data-name="Trazado 156973" d="M76.514,16.332l2.214-2.214a1.319,1.319,0,1,0-1.866-1.866l-2.12,2.12A18.4,18.4,0,0,0,63.29,9.278V7.911h2.637a1.319,1.319,0,0,0,1.319-1.319V2.637a1.319,1.319,0,0,0-1.319-1.319H58.016A1.319,1.319,0,0,0,56.7,2.637V6.593a1.319,1.319,0,0,0,1.319,1.319h2.637V9.278A18.483,18.483,0,0,0,43.512,27.69H7.911a3.961,3.961,0,0,0-3.956,3.956V79.113a3.961,3.961,0,0,0,3.956,3.956H55.379a3.961,3.961,0,0,0,3.956-3.956V45.96A18.451,18.451,0,0,0,76.514,16.332ZM59.335,5.274V3.956h5.274V5.274ZM25.052,30.327H38.238V52.915l-5.861-3.908a1.323,1.323,0,0,0-1.464,0l-5.861,3.908ZM56.7,79.113a1.32,1.32,0,0,1-1.319,1.319H7.911a1.32,1.32,0,0,1-1.319-1.319V31.645a1.32,1.32,0,0,1,1.319-1.319h14.5V55.379a1.32,1.32,0,0,0,2.05,1.1l7.18-4.788,7.179,4.788a1.32,1.32,0,0,0,2.05-1.1V30.327H43.7a18.509,18.509,0,0,0,13,15.053Zm5.274-35.6A15.823,15.823,0,1,1,77.794,27.69,15.823,15.823,0,0,1,61.972,43.512Z"/>
      <path id="Trazado_156974" data-name="Trazado 156974" d="M63.29,27.143V22.415a1.319,1.319,0,1,0-2.637,0V27.69a1.319,1.319,0,0,0,.386.932l2.637,2.637a1.319,1.319,0,1,0,1.865-1.865Z"/>
    </g>
  </g>
</svg>
