<svg xmlns="http://www.w3.org/2000/svg" width="1240" height="484.898" viewBox="0 0 1240 484.898">
  <g id="Grupo_108935" data-name="Grupo 108935" transform="translate(-180 -4718.252)">
    <rect id="Rectángulo_36248" data-name="Rectángulo 36248" width="1240" height="432" transform="translate(180 4753.757)" fill="#fff6e6"/>
    <g id="Grupo_102717" data-name="Grupo 102717" transform="translate(433.089 4682.219)">
      <g id="Background_Complete" data-name="Background Complete" transform="translate(-226.089 43.533)">
        <g id="Grupo_102424" data-name="Grupo 102424" transform="translate(118.992 260)">
          <g id="Grupo_102423" data-name="Grupo 102423">
            <path id="Trazado_152397" data-name="Trazado 152397" d="M35.338,423.9v29.519h6.818s-.654-5.877,0-9.36S50.21,431.6,49.992,423.9Z" transform="translate(-30.701 -236.016)" fill="#ebebeb"/>
            <path id="Trazado_152398" data-name="Trazado 152398" d="M81.655,423.9v29.519h6.818s-.652-5.877,0-9.36S96.527,431.6,96.309,423.9Z" transform="translate(-22.479 -236.016)" fill="#e0e0e0"/>
            <path id="Trazado_152399" data-name="Trazado 152399" d="M129.2,423.9v29.519h-6.818s.654-5.877,0-9.36-8.054-12.456-7.836-20.159Z" transform="translate(-16.642 -236.016)" fill="#ebebeb"/>
            <path id="Trazado_152400" data-name="Trazado 152400" d="M169.29,423.9v29.519h-6.818s.654-5.877,0-9.36-8.053-12.456-7.836-20.159Z" transform="translate(-9.525 -236.016)" fill="#e0e0e0"/>
            <rect id="Rectángulo_36242" data-name="Rectángulo 36242" width="163.339" height="146.683" transform="translate(0 42.15)" fill="#f5f5f5"/>
            <path id="Trazado_152401" data-name="Trazado 152401" d="M132.745,300.135l1.216,146.684h42.788V300.13Z" transform="translate(-13.41 -257.985)" fill="#e0e0e0"/>
            <rect id="Rectángulo_36243" data-name="Rectángulo 36243" width="104.869" height="37.324" transform="translate(7.35 52.941)" fill="#ebebeb"/>
            <rect id="Rectángulo_36244" data-name="Rectángulo 36244" width="104.869" height="37.324" transform="translate(7.35 97.706)" fill="#ebebeb"/>
            <rect id="Rectángulo_36245" data-name="Rectángulo 36245" width="104.869" height="37.324" transform="translate(7.35 142.47)" fill="#ebebeb"/>
            <g id="Grupo_102422" data-name="Grupo 102422" transform="translate(43.027)">
              <g id="Grupo_102417" data-name="Grupo 102417">
                <g id="Grupo_102416" data-name="Grupo 102416">
                  <path id="Trazado_152402" data-name="Trazado 152402" d="M72.464,264.338,67.94,306.315H125.9l4.806-41.976Z" transform="translate(-67.94 -264.338)" fill="#e0e0e0"/>
                </g>
              </g>
              <g id="Grupo_102419" data-name="Grupo 102419" transform="translate(2.506 3.015)">
                <g id="Grupo_102418" data-name="Grupo 102418">
                  <path id="Trazado_152403" data-name="Trazado 152403" d="M74.469,266.9l-4.4,36.731h52.3L126.6,266.9Z" transform="translate(-70.068 -266.899)" fill="#fff"/>
                </g>
              </g>
              <g id="Grupo_102421" data-name="Grupo 102421" transform="translate(13 9.194)">
                <g id="Grupo_102420" data-name="Grupo 102420">
                  <path id="Trazado_152404" data-name="Trazado 152404" d="M81.689,272.146l-2.708,24.375h33.007l1.694-24.375Z" transform="translate(-78.981 -272.146)" fill="#ebebeb"/>
                </g>
              </g>
            </g>
            <path id="Trazado_152405" data-name="Trazado 152405" d="M119.9,279.691l11.971,24.067-14.707-.168,2.737-23.9" transform="translate(-16.177 -261.613)" fill="#ebebeb"/>
          </g>
          <path id="Trazado_152406" data-name="Trazado 152406" d="M86.587,327.382a3.836,3.836,0,1,1-3.836-3.836A3.836,3.836,0,0,1,86.587,327.382Z" transform="translate(-22.966 -253.828)" fill="#e0e0e0"/>
          <path id="Trazado_152407" data-name="Trazado 152407" d="M86.587,365.775a3.836,3.836,0,1,1-3.836-3.836A3.836,3.836,0,0,1,86.587,365.775Z" transform="translate(-22.966 -247.013)" fill="#e0e0e0"/>
          <path id="Trazado_152408" data-name="Trazado 152408" d="M86.587,404.168a3.836,3.836,0,1,1-3.836-3.835A3.837,3.837,0,0,1,86.587,404.168Z" transform="translate(-22.966 -240.198)" fill="#e0e0e0"/>
        </g>
        <g id="Grupo_102433" data-name="Grupo 102433" transform="translate(42 84.801)">
          <g id="Grupo_102426" data-name="Grupo 102426">
            <g id="Grupo_102425" data-name="Grupo 102425">
              <path id="Trazado_152409" data-name="Trazado 152409" d="M140.525,97.767l-92.617-.9,2.586,120.7,92.6.34Z" transform="translate(-47.908 -96.867)" fill="#e0e0e0"/>
            </g>
          </g>
          <g id="Grupo_102428" data-name="Grupo 102428" transform="translate(5.568 4.178)">
            <g id="Grupo_102427" data-name="Grupo 102427">
              <path id="Trazado_152410" data-name="Trazado 152410" d="M133.71,102.521l-81.074-2.107,2.345,109.468,81.05,1Z" transform="translate(-52.637 -100.415)" fill="#fafafa"/>
            </g>
          </g>
          <g id="Grupo_102430" data-name="Grupo 102430" transform="translate(19.012 21.742)">
            <g id="Grupo_102429" data-name="Grupo 102429">
              <path id="Trazado_152411" data-name="Trazado 152411" d="M117.845,116.226l-53.791-.895,1.639,76.512,53.747-1.151Z" transform="translate(-64.054 -115.332)" fill="#ebebeb"/>
            </g>
          </g>
          <g id="Grupo_102432" data-name="Grupo 102432" transform="translate(19.012 21.742)">
            <g id="Grupo_102431" data-name="Grupo 102431">
              <path id="Trazado_152412" data-name="Trazado 152412" d="M65.694,191.844l52.9-40.459L64.054,115.332Z" transform="translate(-64.054 -115.332)" fill="#f5f5f5"/>
            </g>
          </g>
        </g>
        <g id="Grupo_102442" data-name="Grupo 102442" transform="translate(1087.808)">
          <g id="Grupo_102435" data-name="Grupo 102435">
            <g id="Grupo_102434" data-name="Grupo 102434">
              <path id="Trazado_152413" data-name="Trazado 152413" d="M477.254,44.323,396,43.533l2.269,105.885,81.239.3Z" transform="translate(-396.004 -43.533)" fill="#e0e0e0"/>
            </g>
          </g>
          <g id="Grupo_102437" data-name="Grupo 102437" transform="translate(4.884 3.665)">
            <g id="Grupo_102436" data-name="Grupo 102436">
              <path id="Trazado_152414" data-name="Trazado 152414" d="M471.276,48.494l-71.123-1.848,2.058,96.032,71.1.875Z" transform="translate(-400.153 -46.646)" fill="#fafafa"/>
            </g>
          </g>
          <g id="Grupo_102439" data-name="Grupo 102439" transform="translate(16.679 19.074)">
            <g id="Grupo_102438" data-name="Grupo 102438">
              <path id="Trazado_152415" data-name="Trazado 152415" d="M457.357,60.517l-47.189-.785,1.438,67.122,47.15-1.01Z" transform="translate(-410.169 -59.732)" fill="#ebebeb"/>
            </g>
          </g>
          <g id="Grupo_102441" data-name="Grupo 102441" transform="translate(16.679 19.074)">
            <g id="Grupo_102440" data-name="Grupo 102440">
              <path id="Trazado_152416" data-name="Trazado 152416" d="M411.607,126.854,458.018,91.36,410.169,59.732Z" transform="translate(-410.169 -59.732)" fill="#f5f5f5"/>
            </g>
          </g>
        </g>
        <g id="Grupo_102449" data-name="Grupo 102449" transform="translate(1003 356.886)">
          <g id="Grupo_102443" data-name="Grupo 102443" transform="translate(0 26.015)">
            <path id="Trazado_152417" data-name="Trazado 152417" d="M387.712,382.3c-.346,1.04,11.775,47.1,11.775,47.1l8.312-1.732L396.37,382.3Z" transform="translate(-387.705 -382.3)" fill="#ebebeb"/>
          </g>
          <g id="Grupo_102444" data-name="Grupo 102444" transform="translate(47.802 19.435)">
            <path id="Trazado_152418" data-name="Trazado 152418" d="M444.925,376.712,428.3,430.395H438l15.932-49.873Z" transform="translate(-428.301 -376.712)" fill="#f5f5f5"/>
          </g>
          <g id="Grupo_102445" data-name="Grupo 102445" transform="translate(60.616 11.122)">
            <path id="Trazado_152419" data-name="Trazado 152419" d="M458.232,369.653l-19.049,61.995h9.7l18.356-58.185Z" transform="translate(-439.183 -369.653)" fill="#ebebeb"/>
          </g>
          <g id="Grupo_102446" data-name="Grupo 102446" transform="translate(5.895 69.308)">
            <path id="Trazado_152420" data-name="Trazado 152420" d="M392.711,419.067l9.7,33.6h48.834l9-33.6Z" transform="translate(-392.711 -419.067)" fill="#e0e0e0"/>
          </g>
          <g id="Grupo_102448" data-name="Grupo 102448" transform="translate(6.83)">
            <g id="Grupo_102447" data-name="Grupo 102447">
              <path id="Trazado_152421" data-name="Trazado 152421" d="M417.761,429.515a1.747,1.747,0,0,1-.107-.346l-.259-1.027c-.223-.944-.537-2.274-.937-3.968-.8-3.494-1.943-8.491-3.356-14.671-2.792-12.465-6.652-29.692-10.96-48.924l.3.24h-8.551l.3-.374c4.336,19.25,8.218,36.492,11.027,48.967,1.367,6.2,2.473,11.209,3.245,14.713.363,1.705.648,3.041.85,3.992.085.431.153.774.206,1.04a1.771,1.771,0,0,1,.051.359,1.637,1.637,0,0,1-.109-.346c-.068-.261-.154-.6-.264-1.027-.228-.944-.55-2.273-.958-3.967-.817-3.494-1.986-8.49-3.431-14.671-2.857-12.464-6.8-29.691-11.213-48.923l-.085-.374h9.181l.053.24c4.236,19.247,8.028,36.49,10.774,48.964,1.334,6.2,2.414,11.209,3.169,14.713.354,1.705.632,3.041.829,3.992l.2,1.04A1.646,1.646,0,0,1,417.761,429.515Z" transform="translate(-393.505 -360.207)" fill="#e0e0e0"/>
            </g>
          </g>
        </g>
      </g>
      <g id="Checklist" transform="translate(83.656 49.756)">
        <g id="Grupo_102508" data-name="Grupo 102508">
          <g id="Grupo_102450" data-name="Grupo 102450" transform="translate(0 31.054)">
            <rect id="Rectángulo_36246" data-name="Rectángulo 36246" width="285.554" height="391.29" fill="#373660"/>
          </g>
          <g id="Grupo_102451" data-name="Grupo 102451" transform="translate(23.777 46.869)">
            <path id="Trazado_152422" data-name="Trazado 152422" d="M408.415,440.824H157.926V88.621h250.49v352.2Z" transform="translate(-157.926 -88.621)" fill="#e0e0e0"/>
          </g>
          <g id="Grupo_102452" data-name="Grupo 102452" transform="translate(22.078 42.211)">
            <path id="Trazado_152423" data-name="Trazado 152423" d="M404.715,434.992H156.482V84.666H404.715V434.992Z" transform="translate(-156.482 -84.666)" fill="#ebebeb"/>
          </g>
          <g id="Grupo_102456" data-name="Grupo 102456" transform="translate(17.137 42.793)">
            <g id="Grupo_102453" data-name="Grupo 102453" transform="translate(0.306 0.307)">
              <path id="Trazado_152424" data-name="Trazado 152424" d="M378.739,407.6l-28.591,23.281h-197.6V85.421h250.49V387.9Z" transform="translate(-152.546 -85.421)" fill="#fafafa"/>
            </g>
            <g id="Grupo_102455" data-name="Grupo 102455">
              <g id="Grupo_102454" data-name="Grupo 102454">
                <path id="Trazado_152425" data-name="Trazado 152425" d="M378.786,407.642s.506-.432,1.526-1.271l4.581-3.744L403.02,387.87l-.035.075c-.029-49.686-.1-160.09-.18-302.478l.278.277-248.3.029h-2.187l.306-.306c-.022,129.873-.044,249.685-.06,345.455l-.246-.245,197.6.14-.066.024L371.6,413.423q3.582-2.893,5.38-4.346c1.2-.964,1.806-1.435,1.806-1.435s-.585.5-1.772,1.478l-5.346,4.389L350.26,431l-.028.024h-.038l-197.6.141h-.245v-.246c-.016-95.77-.038-215.582-.06-345.455V85.16h2.493l248.3.029h.277v.278c-.085,142.388-.15,252.792-.179,302.478v.047l-.037.029L384.956,402.7l-4.611,3.707C379.313,407.236,378.786,407.642,378.786,407.642Z" transform="translate(-152.286 -85.16)" fill="#263238"/>
              </g>
            </g>
          </g>
          <g id="Grupo_102457" data-name="Grupo 102457" transform="translate(91.518 18.957)">
            <path id="Rectángulo_36247" data-name="Rectángulo 36247" d="M14.757,0H88.364a14.154,14.154,0,0,1,14.154,14.154v20.99a0,0,0,0,1,0,0H0a0,0,0,0,1,0,0V14.757A14.757,14.757,0,0,1,14.757,0Z" fill="#ff6d60"/>
          </g>
          <g id="Grupo_102458" data-name="Grupo 102458" transform="translate(112.879)">
            <path id="Trazado_152426" data-name="Trazado 152426" d="M237.343,67.775,233.6,48.818h59.028l-3.279,18.957Z" transform="translate(-233.596 -48.818)" fill="#ff6d60"/>
          </g>
          <g id="Grupo_102468" data-name="Grupo 102468" transform="translate(43.642 98.137)">
            <g id="Grupo_102459" data-name="Grupo 102459">
              <path id="Trazado_152427" data-name="Trazado 152427" d="M217,174.362H174.8v-42.2H217Zm-41.023-1.178h39.846V133.339H175.974Z" transform="translate(-174.796 -132.161)" fill="#ffc967"/>
            </g>
          </g>
          <g id="Grupo_102479" data-name="Grupo 102479" transform="translate(43.642 163.174)">
            <g id="Grupo_102469" data-name="Grupo 102469">
              <path id="Trazado_152432" data-name="Trazado 152432" d="M217,229.595H174.8v-42.2H217Zm-41.023-1.178h39.846V188.572H175.974Z" transform="translate(-174.796 -187.394)" fill="#ff9e95"/>
            </g>
            <g id="Grupo_102470" data-name="Grupo 102470" transform="translate(8.392 2.672)">
              <path id="Trazado_152433" data-name="Trazado 152433" d="M181.923,208.96l5.6-6.017,9.337,7.47,21.371-20.749,5.12,6.034L196.447,222.24Z" transform="translate(-181.923 -189.664)" fill="#ff9e95"/>
            </g>
          </g>
          <g id="Grupo_102490" data-name="Grupo 102490" transform="translate(43.642 226.11)">
            <g id="Grupo_102480" data-name="Grupo 102480">
              <path id="Trazado_152438" data-name="Trazado 152438" d="M217,283.043H174.8v-42.2H217Zm-41.023-1.177h39.846V242.02H175.974Z" transform="translate(-174.796 -240.842)" fill="#ffa648"/>
            </g>
            <g id="Grupo_102481" data-name="Grupo 102481" transform="translate(8.392 2.673)">
              <path id="Trazado_152439" data-name="Trazado 152439" d="M181.923,262.408l5.6-6.017,9.337,7.47,21.371-20.749,5.12,6.034-26.907,26.542Z" transform="translate(-181.923 -243.112)" fill="#ffa648"/>
            </g>
          </g>
          <g id="Grupo_102501" data-name="Grupo 102501" transform="translate(43.642 286.876)">
            <g id="Grupo_102491" data-name="Grupo 102491">
              <path id="Trazado_152444" data-name="Trazado 152444" d="M217,334.648H174.8v-42.2H217Zm-41.023-1.178h39.846V293.626H175.974Z" transform="translate(-174.796 -292.448)" fill="#6765a9"/>
            </g>
            <g id="Grupo_102492" data-name="Grupo 102492" transform="translate(8.392 2.672)">
              <path id="Trazado_152445" data-name="Trazado 152445" d="M181.923,314.014l5.6-6.017,9.337,7.47,21.371-20.749,5.12,6.034-26.907,26.542Z" transform="translate(-181.923 -294.717)" fill="#6765a9"/>
            </g>
            <g id="Grupo_102494" data-name="Grupo 102494" transform="translate(60.113 9.884)">
              <g id="Grupo_102493" data-name="Grupo 102493">
                <path id="Trazado_152446" data-name="Trazado 152446" d="M357.057,301.149c0,.168-29.374.306-65.6.306s-65.608-.138-65.608-.306,29.368-.307,65.608-.307S357.057,300.98,357.057,301.149Z" transform="translate(-225.847 -300.842)" fill="#263238"/>
              </g>
            </g>
            <g id="Grupo_102496" data-name="Grupo 102496" transform="translate(60.113 18.653)">
              <g id="Grupo_102495" data-name="Grupo 102495">
                <path id="Trazado_152447" data-name="Trazado 152447" d="M357.057,308.6c0,.17-29.374.306-65.6.306s-65.608-.137-65.608-.306,29.368-.307,65.608-.307S357.057,308.427,357.057,308.6Z" transform="translate(-225.847 -308.289)" fill="#263238"/>
              </g>
            </g>
            <g id="Grupo_102498" data-name="Grupo 102498" transform="translate(60.113 27.423)">
              <g id="Grupo_102497" data-name="Grupo 102497">
                <path id="Trazado_152448" data-name="Trazado 152448" d="M357.057,316.043c0,.17-29.374.306-65.6.306s-65.608-.137-65.608-.306,29.368-.306,65.608-.306S357.057,315.874,357.057,316.043Z" transform="translate(-225.847 -315.737)" fill="#263238"/>
              </g>
            </g>
            <g id="Grupo_102500" data-name="Grupo 102500" transform="translate(60.113 36.192)">
              <g id="Grupo_102499" data-name="Grupo 102499">
                <path id="Trazado_152449" data-name="Trazado 152449" d="M357.057,323.49c0,.17-29.374.307-65.6.307s-65.608-.138-65.608-.307,29.368-.306,65.608-.306S357.057,323.322,357.057,323.49Z" transform="translate(-225.847 -323.184)" fill="#263238"/>
              </g>
            </g>
          </g>
          <g id="Grupo_102502" data-name="Grupo 102502" transform="translate(195.438 331.36)">
            <path id="Trazado_152450" data-name="Trazado 152450" d="M331.17,330.226,303.708,387.1h19.607Z" transform="translate(-303.708 -330.226)" fill="#e0e0e0"/>
          </g>
          <g id="Grupo_102506" data-name="Grupo 102506" transform="translate(215.044 331.305)">
            <g id="Grupo_102503" data-name="Grupo 102503" transform="translate(0.001 0.376)">
              <path id="Trazado_152451" data-name="Trazado 152451" d="M320.36,387.373l7.855-56.875,45.033,13.9Z" transform="translate(-320.36 -330.498)" fill="#fafafa"/>
            </g>
            <g id="Grupo_102505" data-name="Grupo 102505">
              <g id="Grupo_102504" data-name="Grupo 102504">
                <path id="Trazado_152452" data-name="Trazado 152452" d="M320.36,387.429,335.5,374.966l37.555-30.745.1.518-17.387-5.358c-9.746-3.016-19.1-5.908-27.643-8.55l.371-.237c-2.353,16.52-4.37,30.672-5.8,40.731-1.42,9.78-2.153,14.828-2.337,16.1a2.19,2.19,0,0,1,.025-.252l.1-.788c.1-.736.231-1.771.405-3.1.364-2.762.888-6.734,1.546-11.723,1.357-10.139,3.265-24.4,5.493-41.054l.045-.337.326.1,27.654,8.516,17.382,5.372.538.166-.438.353-38.01,30.659-11.1,8.92-2.96,2.374c-.317.251-.566.45-.758.6C320.439,387.374,320.355,387.438,320.36,387.429Z" transform="translate(-320.359 -330.179)" fill="#263238"/>
              </g>
            </g>
          </g>
          <g id="Grupo_102507" data-name="Grupo 102507" transform="translate(164.574)" opacity="0.3">
            <path id="Trazado_152453" data-name="Trazado 152453" d="M280.753,48.818,277.5,67.775h4.053l3.279-18.957h-5.163" transform="translate(-277.498 -48.818)"/>
          </g>
        </g>
      </g>
      <g id="Grupo_102523" data-name="Grupo 102523" transform="translate(18.513 168.416)">
        <g id="Grupo_102514" data-name="Grupo 102514" transform="translate(18.228 15.626)">
          <g id="Grupo_102513" data-name="Grupo 102513">
            <g id="Grupo_102512" data-name="Grupo 102512">
              <g id="Grupo_102511" data-name="Grupo 102511">
                <g id="Grupo_102510" data-name="Grupo 102510">
                  <g id="Grupo_102509" data-name="Grupo 102509">
                    <path id="Trazado_152454" data-name="Trazado 152454" d="M134.774,228.128h0a10.592,10.592,0,0,0,11.394-10.156c.223-5.766.416-11.595.416-11.595s8.737-.818,9.371-9.466.345-28.61.345-28.61h0a30.132,30.132,0,0,0-30.452,1.958l.538,30.433v16.373C126.443,222.557,129.3,227.707,134.774,228.128Z" transform="translate(-125.847 -165.078)" fill="#ffbe9d"/>
                  </g>
                </g>
              </g>
            </g>
          </g>
        </g>
        <g id="Grupo_102515" data-name="Grupo 102515" transform="translate(13.737 8.374)">
          <path id="Trazado_152455" data-name="Trazado 152455" d="M148.012,187.448c-1.491-1.849-3.916-2.585-5.909-1.291a5.028,5.028,0,0,0-1.674,6.284,6.621,6.621,0,0,0,4.243,3.208,3.322,3.322,0,0,1,2.6,3.576,11.069,11.069,0,0,1-3.036,6.022,15.963,15.963,0,0,1-10.01,4.742c-3.682.436-7.9-.332-10.044-3.359-1.559-2.2-1.672-5.081-1.727-7.779l-.4-19.127a27.41,27.41,0,0,1,.436-6.863,9.213,9.213,0,0,1,3.62-5.676c2.1-1.384,4.768-1.5,7.164-2.276,2.994-.969,5.538-2.956,8.34-4.389s6.236-2.29,9.049-.878c2.019,1.014,3.374,3.029,5.336,4.145,2.8,1.591,6.6,1.229,7.96,5.34a6.969,6.969,0,0,1-.047,4.4c-1.9,5.594-8.824,7.85-13.815,5.432-.1.948.835,3.057-.162,6.05-.319.956-.432,2.415-1.928,2.442" transform="translate(-122.032 -158.92)" fill="#263238"/>
        </g>
        <g id="Grupo_102516" data-name="Grupo 102516" transform="translate(1.169)">
          <path id="Trazado_152456" data-name="Trazado 152456" d="M126.045,170.91a29.448,29.448,0,0,0,2.779-8.686c.309-3.037-.463-6.344-2.726-8.394a8.19,8.19,0,0,0-5.7-2.017,9.64,9.64,0,0,0-8.689,6.885,10.381,10.381,0,0,0,3.495,10.638,11.256,11.256,0,0,0,11.2,1.461" transform="translate(-111.359 -151.808)" fill="#263238"/>
        </g>
        <g id="Grupo_102518" data-name="Grupo 102518" transform="translate(13.455 15.947)">
          <g id="Grupo_102517" data-name="Grupo 102517">
            <path id="Trazado_152457" data-name="Trazado 152457" d="M125.892,165.352c.164,0,.024,1.539-1.275,2.793-1.286,1.269-2.831,1.373-2.822,1.209-.042-.175,1.266-.522,2.394-1.647C125.341,166.606,125.718,165.306,125.892,165.352Z" transform="translate(-121.793 -165.351)" fill="#e8505b"/>
          </g>
        </g>
        <g id="Grupo_102520" data-name="Grupo 102520" transform="translate(4.864 10.198)">
          <g id="Grupo_102519" data-name="Grupo 102519">
            <path id="Trazado_152458" data-name="Trazado 152458" d="M124.342,168.331a8.126,8.126,0,0,1-2.348,1.718,6.786,6.786,0,0,1-3.094.876,4.307,4.307,0,0,1-3.609-1.619,4.805,4.805,0,0,1-.639-3.911,7.6,7.6,0,0,1,1.454-2.863,8.962,8.962,0,0,1,2.047-2.063,27.573,27.573,0,0,1-1.7,2.319,7.777,7.777,0,0,0-1.253,2.729,4.366,4.366,0,0,0,.583,3.425,3.82,3.82,0,0,0,3.113,1.417,6.789,6.789,0,0,0,2.9-.7C123.377,168.9,124.284,168.241,124.342,168.331Z" transform="translate(-114.498 -160.468)" fill="#263238"/>
          </g>
        </g>
        <g id="Grupo_102522" data-name="Grupo 102522" transform="translate(0 19.076)">
          <g id="Grupo_102521" data-name="Grupo 102521">
            <path id="Trazado_152459" data-name="Trazado 152459" d="M110.378,176.76a3.808,3.808,0,0,1,.42.958,9.887,9.887,0,0,0,1.274,2.463,3.574,3.574,0,0,0,3.387,1.558,4.645,4.645,0,0,0,3.258-3.282,33.817,33.817,0,0,0,.885-5.023,7.756,7.756,0,0,1,1.651-3.961,4.251,4.251,0,0,1,2.518-1.435,1.662,1.662,0,0,1,1.059.089c0,.059-.383-.016-1.014.145a4.284,4.284,0,0,0-2.234,1.482,7.651,7.651,0,0,0-1.422,3.77,30.013,30.013,0,0,1-.862,5.132,5.146,5.146,0,0,1-3.74,3.639,3.449,3.449,0,0,1-2.344-.453,4.879,4.879,0,0,1-1.49-1.4,8.493,8.493,0,0,1-1.152-2.647A3.235,3.235,0,0,1,110.378,176.76Z" transform="translate(-110.366 -168.008)" fill="#263238"/>
          </g>
        </g>
      </g>
      <g id="Grupo_102524" data-name="Grupo 102524" transform="translate(12.316 268.888)">
        <path id="Trazado_152460" data-name="Trazado 152460" d="M107.062,237.134s-4.407,32.287,0,36.38,8.651,2.734,8.651,2.734l8.392-7.018,1.652-32.1Z" transform="translate(-105.103 -237.134)" fill="#ffbe9d"/>
      </g>
      <g id="Grupo_102525" data-name="Grupo 102525" transform="translate(137.576 147.312)">
        <path id="Trazado_152461" data-name="Trazado 152461" d="M184.223,163.068l5.6-6.017,9.337,7.47,21.372-20.749,5.12,6.034-26.906,26.542Z" transform="translate(-184.223 -143.771)" fill="#ffc967"/>
      </g>
      <g id="Grupo_102526" data-name="Grupo 102526" transform="translate(84.049 179.888)">
        <path id="Trazado_152462" data-name="Trazado 152462" d="M213.779,161.551l-8.125,5.214c-.367-3.211-2.819-6.4-2.693-4.782s.015,9.983.015,9.983l-14.489,30.488c-1.97,4.83-5.959,7.866-8.94,8.583l-13.525,4.021,5.287,17.88,18.8-6.233a16.21,16.21,0,0,0,10.3-10.333L213.367,176.9a61.235,61.235,0,0,0,2.095-7.777C216.015,165.833,213.779,161.551,213.779,161.551Z" transform="translate(-166.023 -161.55)" fill="#ffbe9d"/>
      </g>
      <g id="Grupo_102599" data-name="Grupo 102599" transform="translate(48.008 504.288)">
        <g id="Grupo_102598" data-name="Grupo 102598">
          <g id="Grupo_102534" data-name="Grupo 102534" transform="translate(0.089)">
            <g id="Grupo_102530" data-name="Grupo 102530">
              <g id="Grupo_102529" data-name="Grupo 102529">
                <g id="Grupo_102528" data-name="Grupo 102528">
                  <path id="Trazado_152463" data-name="Trazado 152463" d="M152.63,446.088l-.2-9.041-16.936.271.155,13.229,1.052.051c4.677.185,23.8.61,26.906-.387C167.072,449.1,152.63,446.088,152.63,446.088Z" transform="translate(-135.491 -437.047)" fill="#e8505b"/>
                </g>
              </g>
            </g>
            <g id="Grupo_102533" data-name="Grupo 102533" transform="translate(0.097 8.5)" opacity="0.5">
              <g id="Grupo_102532" data-name="Grupo 102532">
                <g id="Grupo_102531" data-name="Grupo 102531">
                  <path id="Trazado_152464" data-name="Trazado 152464" d="M141.77,449.035a5.875,5.875,0,0,0-2.218-3.577,5.712,5.712,0,0,0-3.979-1.168l.072,4.734Z" transform="translate(-135.573 -444.265)" fill="#fff"/>
                </g>
              </g>
            </g>
          </g>
          <g id="Grupo_102537" data-name="Grupo 102537" transform="translate(0.245 10.762)" opacity="0.4">
            <g id="Grupo_102536" data-name="Grupo 102536">
              <g id="Grupo_102535" data-name="Grupo 102535">
                <path id="Trazado_152465" data-name="Trazado 152465" d="M159.667,446.187s5.067,1.374,4.451,2.215-19.954,1.137-28.495.523l.021-.379,22.559-.154S158.681,446.244,159.667,446.187Z" transform="translate(-135.623 -446.187)" fill="#fff"/>
              </g>
            </g>
          </g>
          <g id="Grupo_102541" data-name="Grupo 102541" transform="translate(0 12.687)">
            <g id="Grupo_102540" data-name="Grupo 102540">
              <g id="Grupo_102539" data-name="Grupo 102539">
                <g id="Grupo_102538" data-name="Grupo 102538">
                  <path id="Trazado_152466" data-name="Trazado 152466" d="M135.415,448.25a1.526,1.526,0,0,0,.292.027l.836.038,3.08.085c2.6.054,6.2.08,10.167.022s7.564-.19,10.163-.319l3.076-.175.836-.062a1.6,1.6,0,0,0,.291-.035,1.522,1.522,0,0,0-.293-.006l-.837.024-3.078.109c-2.6.093-6.191.2-10.16.26s-7.561.054-10.162.038l-3.08-.02h-.838A1.562,1.562,0,0,0,135.415,448.25Z" transform="translate(-135.415 -447.822)" fill="#263238"/>
                </g>
              </g>
            </g>
          </g>
          <g id="Grupo_102545" data-name="Grupo 102545" transform="translate(22.791 10.552)">
            <g id="Grupo_102544" data-name="Grupo 102544">
              <g id="Grupo_102543" data-name="Grupo 102543">
                <g id="Grupo_102542" data-name="Grupo 102542">
                  <path id="Trazado_152467" data-name="Trazado 152467" d="M154.8,448.686a4.484,4.484,0,0,1,1.584-2.672,2.739,2.739,0,0,0-1.584,2.672Z" transform="translate(-154.77 -446.009)" fill="#263238"/>
                </g>
              </g>
            </g>
          </g>
          <g id="Grupo_102549" data-name="Grupo 102549" transform="translate(17.779 9.346)">
            <g id="Grupo_102548" data-name="Grupo 102548">
              <g id="Grupo_102547" data-name="Grupo 102547">
                <g id="Grupo_102546" data-name="Grupo 102546">
                  <path id="Trazado_152468" data-name="Trazado 152468" d="M150.522,446.409c.048.031.284-.264.524-.657s.4-.736.35-.765-.283.265-.524.658S150.474,446.379,150.522,446.409Z" transform="translate(-150.514 -444.984)" fill="#263238"/>
                </g>
              </g>
            </g>
          </g>
          <g id="Grupo_102553" data-name="Grupo 102553" transform="translate(16.401 9.095)">
            <g id="Grupo_102552" data-name="Grupo 102552">
              <g id="Grupo_102551" data-name="Grupo 102551">
                <g id="Grupo_102550" data-name="Grupo 102550">
                  <path id="Trazado_152469" data-name="Trazado 152469" d="M149.348,445.744c.039.041.3-.141.591-.407s.49-.517.451-.559-.3.141-.59.409S149.31,445.7,149.348,445.744Z" transform="translate(-149.343 -444.771)" fill="#263238"/>
                </g>
              </g>
            </g>
          </g>
          <g id="Grupo_102557" data-name="Grupo 102557" transform="translate(15.514 8.376)">
            <g id="Grupo_102556" data-name="Grupo 102556">
              <g id="Grupo_102555" data-name="Grupo 102555">
                <g id="Grupo_102554" data-name="Grupo 102554">
                  <path id="Trazado_152470" data-name="Trazado 152470" d="M148.59,444.266a3.875,3.875,0,1,0,.884-.106A2.007,2.007,0,0,0,148.59,444.266Z" transform="translate(-148.59 -444.16)" fill="#263238"/>
                </g>
              </g>
            </g>
          </g>
          <g id="Grupo_102561" data-name="Grupo 102561" transform="translate(15.199 7.341)">
            <g id="Grupo_102560" data-name="Grupo 102560">
              <g id="Grupo_102559" data-name="Grupo 102559">
                <g id="Grupo_102558" data-name="Grupo 102558">
                  <path id="Trazado_152471" data-name="Trazado 152471" d="M148.323,443.3a2.484,2.484,0,0,0,2.006.12,70.457,70.457,0,0,1-2.006-.12Z" transform="translate(-148.322 -443.282)" fill="#263238"/>
                </g>
              </g>
            </g>
          </g>
          <g id="Grupo_102565" data-name="Grupo 102565" transform="translate(18.34 7.729)">
            <g id="Grupo_102564" data-name="Grupo 102564">
              <g id="Grupo_102563" data-name="Grupo 102563">
                <g id="Grupo_102562" data-name="Grupo 102562">
                  <path id="Trazado_152472" data-name="Trazado 152472" d="M150.99,445.167a3.1,3.1,0,0,0,1.088-.024,6.316,6.316,0,0,0,1.155-.273,3.177,3.177,0,0,0,.659-.284.588.588,0,0,0,.264-.341.428.428,0,0,0-.172-.432,2,2,0,0,0-2.459.62,1.952,1.952,0,0,0-.344.732c-.041.187-.036.293-.024.294a3.02,3.02,0,0,1,.48-.936,1.969,1.969,0,0,1,.921-.618,1.687,1.687,0,0,1,1.3.068c.174.125.111.33-.08.447a3.322,3.322,0,0,1-.608.271,7.576,7.576,0,0,1-1.116.308C151.4,445.127,150.989,445.134,150.99,445.167Z" transform="translate(-150.99 -443.611)" fill="#263238"/>
                </g>
              </g>
            </g>
          </g>
          <g id="Grupo_102569" data-name="Grupo 102569" transform="translate(17.176 7.244)">
            <g id="Grupo_102568" data-name="Grupo 102568">
              <g id="Grupo_102567" data-name="Grupo 102567">
                <g id="Grupo_102566" data-name="Grupo 102566">
                  <path id="Trazado_152473" data-name="Trazado 152473" d="M151.448,445.289a1.075,1.075,0,0,0,.114-.757,1.782,1.782,0,0,0-.31-.79,1.094,1.094,0,0,0-.915-.542.435.435,0,0,0-.327.508,1.187,1.187,0,0,0,.192.484,3.313,3.313,0,0,0,.525.651,1.587,1.587,0,0,0,.629.431c.019-.027-.219-.192-.525-.532a3.781,3.781,0,0,1-.465-.646c-.153-.227-.261-.639.011-.692.272-.031.553.235.724.451a1.782,1.782,0,0,1,.318.7A3.918,3.918,0,0,1,151.448,445.289Z" transform="translate(-150.002 -443.199)" fill="#263238"/>
                </g>
              </g>
            </g>
          </g>
          <g id="Grupo_102573" data-name="Grupo 102573" transform="translate(0.274 8.348)">
            <g id="Grupo_102572" data-name="Grupo 102572">
              <g id="Grupo_102571" data-name="Grupo 102571">
                <g id="Grupo_102570" data-name="Grupo 102570">
                  <path id="Trazado_152474" data-name="Trazado 152474" d="M135.648,444.264c0,.038.484-.054,1.252.025a5.306,5.306,0,0,1,4.49,3.468c.27.722.3,1.209.34,1.2a.98.98,0,0,0,0-.343,4.436,4.436,0,0,0-.2-.91,5.149,5.149,0,0,0-4.615-3.564,4.561,4.561,0,0,0-.931.038A.969.969,0,0,0,135.648,444.264Z" transform="translate(-135.648 -444.136)" fill="#263238"/>
                </g>
              </g>
            </g>
          </g>
          <g id="Grupo_102577" data-name="Grupo 102577" transform="translate(1.828 1.4)">
            <g id="Grupo_102576" data-name="Grupo 102576">
              <g id="Grupo_102575" data-name="Grupo 102575">
                <g id="Grupo_102574" data-name="Grupo 102574">
                  <path id="Trazado_152475" data-name="Trazado 152475" d="M137.061,438.236a59.211,59.211,0,0,0,.019,6.963,59.2,59.2,0,0,0-.019-6.963Z" transform="translate(-136.968 -438.236)" fill="#263238"/>
                </g>
              </g>
            </g>
          </g>
          <g id="Grupo_102581" data-name="Grupo 102581" transform="translate(8.49 11.535)">
            <g id="Grupo_102580" data-name="Grupo 102580">
              <g id="Grupo_102579" data-name="Grupo 102579">
                <g id="Grupo_102578" data-name="Grupo 102578">
                  <path id="Trazado_152476" data-name="Trazado 152476" d="M142.625,446.894a13.911,13.911,0,0,0,4.95-.029c-.007-.06-1.112.025-2.475.031S142.631,446.834,142.625,446.894Z" transform="translate(-142.625 -446.843)" fill="#263238"/>
                </g>
              </g>
            </g>
          </g>
          <g id="Grupo_102585" data-name="Grupo 102585" transform="translate(5.163 11.624)">
            <g id="Grupo_102584" data-name="Grupo 102584">
              <g id="Grupo_102583" data-name="Grupo 102583">
                <g id="Grupo_102582" data-name="Grupo 102582">
                  <path id="Trazado_152477" data-name="Trazado 152477" d="M139.807,446.926c-.041.041.094.232.211.485s.181.476.24.471.082-.27-.054-.559S139.842,446.884,139.807,446.926Z" transform="translate(-139.8 -446.919)" fill="#263238"/>
                </g>
              </g>
            </g>
          </g>
          <g id="Grupo_102589" data-name="Grupo 102589" transform="translate(3.887 10.085)">
            <g id="Grupo_102588" data-name="Grupo 102588">
              <g id="Grupo_102587" data-name="Grupo 102587">
                <g id="Grupo_102586" data-name="Grupo 102586">
                  <path id="Trazado_152478" data-name="Trazado 152478" d="M138.724,445.62c-.04.04.072.214.25.39s.354.284.394.244-.072-.215-.25-.39S138.764,445.58,138.724,445.62Z" transform="translate(-138.716 -445.612)" fill="#263238"/>
                </g>
              </g>
            </g>
          </g>
          <g id="Grupo_102593" data-name="Grupo 102593" transform="translate(2.093 9.308)">
            <g id="Grupo_102592" data-name="Grupo 102592">
              <g id="Grupo_102591" data-name="Grupo 102591">
                <g id="Grupo_102590" data-name="Grupo 102590">
                  <path id="Trazado_152479" data-name="Trazado 152479" d="M137.193,445.053c.013.058.238.052.489.135s.431.214.475.174-.1-.271-.412-.37S137.175,445,137.193,445.053Z" transform="translate(-137.192 -444.952)" fill="#263238"/>
                </g>
              </g>
            </g>
          </g>
          <g id="Grupo_102597" data-name="Grupo 102597" transform="translate(0.812 9.053)">
            <g id="Grupo_102596" data-name="Grupo 102596">
              <g id="Grupo_102595" data-name="Grupo 102595">
                <g id="Grupo_102594" data-name="Grupo 102594">
                  <path id="Trazado_152480" data-name="Trazado 152480" d="M136.107,444.776c-.02.053.079.139.22.191s.272.052.292,0-.079-.139-.221-.192S136.127,444.723,136.107,444.776Z" transform="translate(-136.105 -444.736)" fill="#263238"/>
                </g>
              </g>
            </g>
          </g>
        </g>
      </g>
      <g id="Grupo_102671" data-name="Grupo 102671" transform="translate(-10.314 492.61)">
        <g id="Grupo_102670" data-name="Grupo 102670">
          <g id="Grupo_102606" data-name="Grupo 102606">
            <g id="Grupo_102602" data-name="Grupo 102602">
              <g id="Grupo_102601" data-name="Grupo 102601">
                <g id="Grupo_102600" data-name="Grupo 102600">
                  <path id="Trazado_152481" data-name="Trazado 152481" d="M101.668,444.956l5.743-6.985L94.395,427.13l-8.51,10.131.764.723c3.425,3.191,17.641,15.982,20.649,17.255C110.653,456.657,101.668,444.956,101.668,444.956Z" transform="translate(-85.885 -427.13)" fill="#e8505b"/>
                </g>
              </g>
            </g>
            <g id="Grupo_102605" data-name="Grupo 102605" transform="translate(0.168 6.321)" opacity="0.5">
              <g id="Grupo_102604" data-name="Grupo 102604">
                <g id="Grupo_102603" data-name="Grupo 102603">
                  <path id="Trazado_152482" data-name="Trazado 152482" d="M90.664,440.137a5.879,5.879,0,0,0,.651-4.159,5.711,5.711,0,0,0-2.255-3.48l-3.032,3.635Z" transform="translate(-86.028 -432.498)" fill="#fff"/>
                </g>
              </g>
            </g>
          </g>
          <g id="Grupo_102609" data-name="Grupo 102609" transform="translate(0 9.857)" opacity="0.4">
            <g id="Grupo_102608" data-name="Grupo 102608">
              <g id="Grupo_102607" data-name="Grupo 102607">
                <path id="Trazado_152483" data-name="Trazado 152483" d="M105.9,449.38s2.944,4.346,1.929,4.582-15.868-12.151-21.942-18.187l.264-.274,17.2,14.6S105.114,448.781,105.9,449.38Z" transform="translate(-85.885 -435.501)" fill="#fff"/>
              </g>
            </g>
          </g>
          <g id="Grupo_102613" data-name="Grupo 102613" transform="translate(0.066 9.679)">
            <g id="Grupo_102612" data-name="Grupo 102612">
              <g id="Grupo_102611" data-name="Grupo 102611">
                <g id="Grupo_102610" data-name="Grupo 102610">
                  <path id="Trazado_152484" data-name="Trazado 152484" d="M85.941,435.35a1.65,1.65,0,0,0,.2.211c.183.172.383.362.61.575l2.28,2.074c1.937,1.737,4.645,4.1,7.691,6.647s5.858,4.789,7.913,6.386q1.447,1.107,2.446,1.873l.675.5a1.751,1.751,0,0,0,.243.163,1.484,1.484,0,0,0-.218-.2l-.65-.529-2.406-1.924c-2.03-1.625-4.823-3.886-7.87-6.429s-5.766-4.89-7.728-6.6l-2.322-2.024-.636-.545A1.507,1.507,0,0,0,85.941,435.35Z" transform="translate(-85.941 -435.35)" fill="#263238"/>
                </g>
              </g>
            </g>
          </g>
          <g id="Grupo_102617" data-name="Grupo 102617" transform="translate(17.29 23.538)">
            <g id="Grupo_102616" data-name="Grupo 102616">
              <g id="Grupo_102615" data-name="Grupo 102615">
                <g id="Grupo_102614" data-name="Grupo 102614">
                  <path id="Trazado_152485" data-name="Trazado 152485" d="M100.571,448.233a7,7,0,0,1,1.384-.759,6.9,6.9,0,0,1,1.56-.233,2.74,2.74,0,0,0-2.944.993Z" transform="translate(-100.568 -447.12)" fill="#263238"/>
                </g>
              </g>
            </g>
          </g>
          <g id="Grupo_102621" data-name="Grupo 102621" transform="translate(15.079 18.975)">
            <g id="Grupo_102620" data-name="Grupo 102620">
              <g id="Grupo_102619" data-name="Grupo 102619">
                <g id="Grupo_102618" data-name="Grupo 102618">
                  <path id="Trazado_152486" data-name="Trazado 152486" d="M98.691,443.773a1.785,1.785,0,0,0,.825-.157c.439-.141.782-.3.764-.353a1.8,1.8,0,0,0-.827.158C99.015,443.561,98.673,443.718,98.691,443.773Z" transform="translate(-98.69 -443.245)" fill="#263238"/>
                </g>
              </g>
            </g>
          </g>
          <g id="Grupo_102625" data-name="Grupo 102625" transform="translate(14.489 17.936)">
            <g id="Grupo_102624" data-name="Grupo 102624">
              <g id="Grupo_102623" data-name="Grupo 102623">
                <g id="Grupo_102622" data-name="Grupo 102622">
                  <path id="Trazado_152487" data-name="Trazado 152487" d="M98.19,442.494c0,.056.323.091.715.077s.708-.072.705-.128-.321-.091-.714-.077S98.189,442.437,98.19,442.494Z" transform="translate(-98.19 -442.362)" fill="#263238"/>
                </g>
              </g>
            </g>
          </g>
          <g id="Grupo_102629" data-name="Grupo 102629" transform="translate(14.845 16.279)">
            <g id="Grupo_102628" data-name="Grupo 102628">
              <g id="Grupo_102627" data-name="Grupo 102627">
                <g id="Grupo_102626" data-name="Grupo 102626">
                  <path id="Trazado_152488" data-name="Trazado 152488" d="M98.5,440.961c-.038.044.234.336.606.652s.7.539.739.5-.234-.334-.606-.652S98.532,440.917,98.5,440.961Z" transform="translate(-98.492 -440.955)" fill="#263238"/>
                </g>
              </g>
            </g>
          </g>
          <g id="Grupo_102633" data-name="Grupo 102633" transform="translate(15.335 15.227)">
            <g id="Grupo_102632" data-name="Grupo 102632">
              <g id="Grupo_102631" data-name="Grupo 102631">
                <g id="Grupo_102630" data-name="Grupo 102630">
                  <path id="Trazado_152489" data-name="Trazado 152489" d="M98.915,440.063a2.488,2.488,0,0,0,1.442,1.4c.029-.051-.336-.312-.727-.695S98.964,440.032,98.915,440.063Z" transform="translate(-98.908 -440.061)" fill="#263238"/>
                </g>
              </g>
            </g>
          </g>
          <g id="Grupo_102637" data-name="Grupo 102637" transform="translate(16.402 18.48)">
            <g id="Grupo_102636" data-name="Grupo 102636">
              <g id="Grupo_102635" data-name="Grupo 102635">
                <g id="Grupo_102634" data-name="Grupo 102634">
                  <path id="Trazado_152490" data-name="Trazado 152490" d="M99.879,443.081a3.144,3.144,0,0,0,.841.692,6.377,6.377,0,0,0,1.053.545,3.207,3.207,0,0,0,.685.215.589.589,0,0,0,.423-.087.429.429,0,0,0,.152-.44,2,2,0,0,0-2.269-1.133,1.956,1.956,0,0,0-.738.331c-.152.115-.218.2-.21.207a3.1,3.1,0,0,1,.975-.394,1.96,1.96,0,0,1,1.1.131,1.683,1.683,0,0,1,.94.9c.052.21-.131.323-.352.287a3.269,3.269,0,0,1-.637-.191,7.46,7.46,0,0,1-1.048-.495C100.219,443.32,99.9,443.055,99.879,443.081Z" transform="translate(-99.814 -442.824)" fill="#263238"/>
                </g>
              </g>
            </g>
          </g>
          <g id="Grupo_102641" data-name="Grupo 102641" transform="translate(16.378 16.596)">
            <g id="Grupo_102640" data-name="Grupo 102640">
              <g id="Grupo_102639" data-name="Grupo 102639">
                <g id="Grupo_102638" data-name="Grupo 102638">
                  <path id="Trazado_152491" data-name="Trazado 152491" d="M100.065,443.586c0,.02.3-.091.581-.5a1.794,1.794,0,0,0,.28-.8,1.092,1.092,0,0,0-.34-1.007.433.433,0,0,0-.579.171,1.189,1.189,0,0,0-.17.492,3.3,3.3,0,0,0-.027.835,1.558,1.558,0,0,0,.2.737c.031-.008-.042-.289-.052-.745a3.815,3.815,0,0,1,.068-.794c.033-.272.219-.655.46-.518a.971.971,0,0,1,.254.814,1.77,1.77,0,0,1-.217.741A4.013,4.013,0,0,1,100.065,443.586Z" transform="translate(-99.794 -441.224)" fill="#263238"/>
                </g>
              </g>
            </g>
          </g>
          <g id="Grupo_102645" data-name="Grupo 102645" transform="translate(3.299 6.339)">
            <g id="Grupo_102644" data-name="Grupo 102644">
              <g id="Grupo_102643" data-name="Grupo 102643">
                <g id="Grupo_102642" data-name="Grupo 102642">
                  <path id="Trazado_152492" data-name="Trazado 152492" d="M88.687,432.515c-.021.032.4.275.933.835a5.3,5.3,0,0,1,1.142,5.558c-.266.723-.559,1.114-.528,1.134.011.008.093-.081.22-.261a4.551,4.551,0,0,0,.443-.82,5.15,5.15,0,0,0-1.174-5.712,4.46,4.46,0,0,0-.731-.579A.973.973,0,0,0,88.687,432.515Z" transform="translate(-88.686 -432.514)" fill="#263238"/>
                </g>
              </g>
            </g>
          </g>
          <g id="Grupo_102649" data-name="Grupo 102649" transform="translate(4.635 2.05)">
            <g id="Grupo_102648" data-name="Grupo 102648">
              <g id="Grupo_102647" data-name="Grupo 102647">
                <g id="Grupo_102646" data-name="Grupo 102646">
                  <path id="Trazado_152493" data-name="Trazado 152493" d="M94.349,428.872a29.677,29.677,0,0,0-2.341,2.579,29.659,29.659,0,0,0-2.185,2.712,29.573,29.573,0,0,0,2.342-2.579A29.273,29.273,0,0,0,94.349,428.872Z" transform="translate(-89.821 -428.871)" fill="#263238"/>
                </g>
              </g>
            </g>
          </g>
          <g id="Grupo_102653" data-name="Grupo 102653" transform="translate(7.498 14.054)">
            <g id="Grupo_102652" data-name="Grupo 102652">
              <g id="Grupo_102651" data-name="Grupo 102651">
                <g id="Grupo_102650" data-name="Grupo 102650">
                  <path id="Trazado_152494" data-name="Trazado 152494" d="M92.254,439.067a13.9,13.9,0,0,0,3.772,3.206c.033-.049-.86-.705-1.9-1.591S92.3,439.026,92.254,439.067Z" transform="translate(-92.253 -439.066)" fill="#263238"/>
                </g>
              </g>
            </g>
          </g>
          <g id="Grupo_102657" data-name="Grupo 102657" transform="translate(4.659 11.926)">
            <g id="Grupo_102656" data-name="Grupo 102656">
              <g id="Grupo_102655" data-name="Grupo 102655">
                <g id="Grupo_102654" data-name="Grupo 102654">
                  <path id="Trazado_152495" data-name="Trazado 152495" d="M90.135,437.258c-.058.006-.08.238-.157.505s-.172.479-.125.515.239-.15.323-.459S90.189,437.25,90.135,437.258Z" transform="translate(-89.842 -437.258)" fill="#263238"/>
                </g>
              </g>
            </g>
          </g>
          <g id="Grupo_102661" data-name="Grupo 102661" transform="translate(4.917 9.929)">
            <g id="Grupo_102660" data-name="Grupo 102660">
              <g id="Grupo_102659" data-name="Grupo 102659">
                <g id="Grupo_102658" data-name="Grupo 102658">
                  <path id="Trazado_152496" data-name="Trazado 152496" d="M90.133,435.562c-.057,0-.086.211-.065.459s.084.446.14.442.086-.211.065-.459S90.189,435.557,90.133,435.562Z" transform="translate(-90.061 -435.562)" fill="#263238"/>
                </g>
              </g>
            </g>
          </g>
          <g id="Grupo_102665" data-name="Grupo 102665" transform="translate(4.067 8.222)">
            <g id="Grupo_102664" data-name="Grupo 102664">
              <g id="Grupo_102663" data-name="Grupo 102663">
                <g id="Grupo_102662" data-name="Grupo 102662">
                  <path id="Trazado_152497" data-name="Trazado 152497" d="M89.341,434.126c-.027.052.147.194.281.422s.188.443.247.442.1-.271-.072-.549S89.363,434.075,89.341,434.126Z" transform="translate(-89.339 -434.112)" fill="#263238"/>
                </g>
              </g>
            </g>
          </g>
          <g id="Grupo_102669" data-name="Grupo 102669" transform="translate(3.279 7.157)">
            <g id="Grupo_102668" data-name="Grupo 102668">
              <g id="Grupo_102667" data-name="Grupo 102667">
                <g id="Grupo_102666" data-name="Grupo 102666">
                  <path id="Trazado_152498" data-name="Trazado 152498" d="M88.7,433.213c-.049.028-.031.157.042.289s.172.217.221.19.031-.157-.042-.289S88.747,433.186,88.7,433.213Z" transform="translate(-88.67 -433.208)" fill="#263238"/>
                </g>
              </g>
            </g>
          </g>
        </g>
      </g>
      <g id="Grupo_102684" data-name="Grupo 102684" transform="translate(-8.888 311.503)">
        <g id="Grupo_102672" data-name="Grupo 102672" transform="translate(0 8.671)">
          <path id="Trazado_152499" data-name="Trazado 152499" d="M136.7,281.746s-5.638,23.86-4.044,28.581,11.927,7.449,11.927,7.449l-.35,65.335L87.1,453.738,108.2,471s61.855-70.759,67.308-83.571-3.476-106.74-3.476-106.74Z" transform="translate(-87.096 -280.689)" fill="#263238"/>
        </g>
        <g id="Grupo_102673" data-name="Grupo 102673" transform="translate(31.049)">
          <path id="Trazado_152500" data-name="Trazado 152500" d="M161.2,273.325,164,471.767l-29.068.147-14.587-161.62h0c-3.084-2.943-7.421-7.983-6.824-19.225l.709-13.06Z" transform="translate(-113.465 -273.325)" fill="#263238"/>
        </g>
        <g id="Grupo_102675" data-name="Grupo 102675" transform="translate(48.138 40.162)">
          <g id="Grupo_102674" data-name="Grupo 102674">
            <path id="Trazado_152501" data-name="Trazado 152501" d="M127.978,389.411a1.112,1.112,0,0,1,.167-.294l.552-.814,2.161-3.057,7.886-10.917-.049.15c-.632-6.887-1.4-15.241-2.228-24.246-1.054-11.8-1.909-22.5-2.412-30.245-.257-3.874-.426-7.012-.519-9.182-.035-1.037-.064-1.868-.085-2.5a4.643,4.643,0,0,1,.012-.874,4.642,4.642,0,0,1,.111.867c.051.63.118,1.458.2,2.492.173,2.233.416,5.346.712,9.165.613,7.737,1.537,18.422,2.591,30.223.792,9.037,1.6,17.377,2.122,24.3l.006.076-.055.073c-3.324,4.451-6.085,8.146-8.059,10.79l-2.271,2.976-.612.77C128.067,389.335,127.989,389.418,127.978,389.411Z" transform="translate(-127.977 -307.433)" fill="#455a64"/>
          </g>
        </g>
        <g id="Grupo_102677" data-name="Grupo 102677" transform="translate(41.858 36.945)">
          <g id="Grupo_102676" data-name="Grupo 102676">
            <path id="Trazado_152502" data-name="Trazado 152502" d="M137.847,307.918c-.026.164-3.489-.259-7.7-1.146s-7.549-1.888-7.507-2.048,3.439.57,7.633,1.448S137.875,307.747,137.847,307.918Z" transform="translate(-122.644 -304.701)" fill="#455a64"/>
          </g>
        </g>
        <g id="Grupo_102679" data-name="Grupo 102679" transform="translate(61.045 105.203)">
          <g id="Grupo_102678" data-name="Grupo 102678">
            <path id="Trazado_152503" data-name="Trazado 152503" d="M154.864,365.38c-.078.187-3.338-1.719-7.849-2.045-4.509-.389-8.028.981-8.075.783a6.641,6.641,0,0,1,2.266-.888,17.854,17.854,0,0,1,11.562.917A6.639,6.639,0,0,1,154.864,365.38Z" transform="translate(-138.938 -362.669)" fill="#455a64"/>
          </g>
        </g>
        <g id="Grupo_102681" data-name="Grupo 102681" transform="translate(50.211 117.11)">
          <g id="Grupo_102680" data-name="Grupo 102680">
            <path id="Trazado_152504" data-name="Trazado 152504" d="M166.75,372.781c.134.1-8.042,11.077-18.261,24.509s-18.615,24.243-18.749,24.14,8.04-11.074,18.262-24.511S166.614,372.679,166.75,372.781Z" transform="translate(-129.738 -372.78)" fill="#455a64"/>
          </g>
        </g>
        <g id="Grupo_102683" data-name="Grupo 102683" transform="translate(68.643 13.197)">
          <g id="Grupo_102682" data-name="Grupo 102682">
            <path id="Trazado_152505" data-name="Trazado 152505" d="M160.033,286.078a4.876,4.876,0,0,1-1.636,2.158,8.1,8.1,0,0,1-11.848-1.249,4.874,4.874,0,0,1-1.149-2.453,25.542,25.542,0,0,0,1.486,2.178,8.073,8.073,0,0,0,11.238,1.186A25.548,25.548,0,0,0,160.033,286.078Z" transform="translate(-145.391 -284.533)" fill="#455a64"/>
          </g>
        </g>
      </g>
      <g id="Grupo_102685" data-name="Grupo 102685" transform="translate(26.788 188.791)">
        <path id="Trazado_152506" data-name="Trazado 152506" d="M125.287,204.463a25.348,25.348,0,0,1-1.375-35.352" transform="translate(-117.393 -169.111)" fill="#263238"/>
      </g>
      <g id="Grupo_102715" data-name="Grupo 102715" transform="translate(10.733 229.244)">
        <g id="Grupo_102696" data-name="Grupo 102696">
          <g id="Grupo_102686" data-name="Grupo 102686" transform="translate(0 13.411)">
            <path id="Trazado_152507" data-name="Trazado 152507" d="M111.382,214.855s-6.315,7.132-7.623,34.419c0,0,17.984,3.411,18.313,2.43S111.382,214.855,111.382,214.855Z" transform="translate(-103.759 -214.855)" fill="#d57f24"/>
          </g>
          <g id="Grupo_102693" data-name="Grupo 102693" transform="translate(5.648)">
            <g id="Grupo_102692" data-name="Grupo 102692">
              <g id="Grupo_102691" data-name="Grupo 102691">
                <g id="Grupo_102688" data-name="Grupo 102688" transform="translate(7.06 47.829)">
                  <path id="Trazado_152509" data-name="Trazado 152509" d="M114.551,244.085" transform="translate(-114.551 -244.085)" fill="#455a64"/>
                </g>
                <g id="Grupo_102689" data-name="Grupo 102689">
                  <path id="Trazado_152510" data-name="Trazado 152510" d="M113.444,296.34h55.211l-.891-8.624S161.454,254.9,161.5,254.47l.994-2.089a20.813,20.813,0,0,0,.243-17.364h0l27.034-9.245-6.619-22.307c-12.267,2.071-30.811,4.381-30.811,4.381l-2.761.232s-19.142,1-19.55,1.047c-8.008.968-17.325,1.583-20.73,10.152-1.82,4.583-.091,11.462,2.881,18.553l7.078,21.78c2.826,11.972-1.684,11.4-4.159,23.452C114.726,284.886,113.407,294.668,113.444,296.34Z" transform="translate(-108.555 -203.466)" fill="#ffa648"/>
                </g>
              </g>
            </g>
          </g>
          <g id="Grupo_102695" data-name="Grupo 102695" transform="translate(55.572 22.66)">
            <g id="Grupo_102694" data-name="Grupo 102694">
              <path id="Trazado_152512" data-name="Trazado 152512" d="M181.992,222.718a5.312,5.312,0,0,1-1.2.5c-.784.287-1.925.683-3.339,1.159-2.827.955-6.752,2.221-11.085,3.606s-8.208,2.764-10.959,3.9c-1.38.557-2.477,1.054-3.244,1.381a5.333,5.333,0,0,1-1.21.476,5.386,5.386,0,0,1,1.1-.69c.737-.394,1.812-.954,3.179-1.565a104.34,104.34,0,0,1,10.941-4.085c4.339-1.388,8.281-2.587,11.143-3.436,1.431-.424,2.592-.756,3.4-.973A5.33,5.33,0,0,1,181.992,222.718Z" transform="translate(-150.953 -222.71)" fill="#263238"/>
            </g>
          </g>
        </g>
        <g id="Grupo_102698" data-name="Grupo 102698" transform="translate(10.487 10.486)">
          <g id="Grupo_102697" data-name="Grupo 102697">
            <path id="Trazado_152513" data-name="Trazado 152513" d="M185.58,212.677c0,.17-16.324.306-36.456.306s-36.459-.137-36.459-.306,16.32-.306,36.459-.306S185.58,212.508,185.58,212.677Z" transform="translate(-112.665 -212.371)" fill="#fafafa"/>
          </g>
        </g>
        <g id="Grupo_102700" data-name="Grupo 102700" transform="translate(3.943 21.329)">
          <g id="Grupo_102699" data-name="Grupo 102699">
            <path id="Trazado_152514" data-name="Trazado 152514" d="M188.249,221.886c0,.17-18.165.306-40.569.306s-40.572-.137-40.572-.306,18.162-.306,40.572-.306S188.249,221.717,188.249,221.886Z" transform="translate(-107.108 -221.58)" fill="#fafafa"/>
          </g>
        </g>
        <g id="Grupo_102702" data-name="Grupo 102702" transform="translate(1.7 33.668)">
          <g id="Grupo_102701" data-name="Grupo 102701">
            <path id="Trazado_152515" data-name="Trazado 152515" d="M111.964,232.365a9.566,9.566,0,0,1-3.381.307,9.566,9.566,0,0,1-3.381-.307,9.584,9.584,0,0,1,3.381-.306A9.584,9.584,0,0,1,111.964,232.365Z" transform="translate(-105.203 -232.059)" fill="#fafafa"/>
          </g>
        </g>
        <g id="Grupo_102704" data-name="Grupo 102704" transform="translate(8.462 34.042)">
          <g id="Grupo_102703" data-name="Grupo 102703">
            <path id="Trazado_152516" data-name="Trazado 152516" d="M164.011,232.683c0,.168-11.88.306-26.532.306s-26.534-.138-26.534-.306,11.878-.307,26.534-.307S164.011,232.514,164.011,232.683Z" transform="translate(-110.945 -232.376)" fill="#fafafa"/>
          </g>
        </g>
        <g id="Grupo_102706" data-name="Grupo 102706" transform="translate(12.731 46.755)">
          <g id="Grupo_102705" data-name="Grupo 102705">
            <path id="Trazado_152517" data-name="Trazado 152517" d="M162.2,243.479c0,.17-10.662.307-23.813.307s-23.814-.138-23.814-.307,10.66-.306,23.814-.306S162.2,243.311,162.2,243.479Z" transform="translate(-114.571 -243.173)" fill="#fafafa"/>
          </g>
        </g>
        <g id="Grupo_102708" data-name="Grupo 102708" transform="translate(16.844 58.534)">
          <g id="Grupo_102707" data-name="Grupo 102707">
            <path id="Trazado_152518" data-name="Trazado 152518" d="M161.233,253.482c0,.17-9.665.307-21.584.307s-21.585-.138-21.585-.307,9.661-.306,21.585-.306S161.233,253.313,161.233,253.482Z" transform="translate(-118.064 -253.176)" fill="#fafafa"/>
          </g>
        </g>
        <g id="Grupo_102710" data-name="Grupo 102710" transform="translate(15.722 68.068)">
          <g id="Grupo_102709" data-name="Grupo 102709">
            <path id="Trazado_152519" data-name="Trazado 152519" d="M163.291,261.58c0,.17-10.339.306-23.089.306s-23.091-.137-23.091-.306,10.336-.307,23.091-.307S163.291,261.411,163.291,261.58Z" transform="translate(-117.111 -261.273)" fill="#fafafa"/>
          </g>
        </g>
        <g id="Grupo_102712" data-name="Grupo 102712" transform="translate(12.357 80.221)">
          <g id="Grupo_102711" data-name="Grupo 102711">
            <path id="Trazado_152520" data-name="Trazado 152520" d="M166.789,271.9c0,.17-11.761.307-26.267.307s-26.269-.138-26.269-.307,11.759-.306,26.269-.306S166.789,271.731,166.789,271.9Z" transform="translate(-114.253 -271.594)" fill="#fafafa"/>
          </g>
        </g>
        <g id="Grupo_102714" data-name="Grupo 102714" transform="translate(6.258 26.614)">
          <g id="Grupo_102713" data-name="Grupo 102713">
            <path id="Trazado_152521" data-name="Trazado 152521" d="M118.837,254.581a4.481,4.481,0,0,1-.487-1.086q-.486-1.259-1.161-3.012c-.971-2.547-2.34-6.057-3.762-9.971s-2.6-7.5-3.344-10.134c-.369-1.316-.646-2.387-.8-3.136a4.426,4.426,0,0,1-.193-1.175,43.235,43.235,0,0,1,1.412,4.184c.845,2.589,2.079,6.143,3.507,10.051s2.725,7.444,3.593,10.034c.437,1.293.769,2.348.98,3.084A4.5,4.5,0,0,1,118.837,254.581Z" transform="translate(-109.073 -226.068)" fill="#263238"/>
          </g>
        </g>
      </g>
    </g>
    <text id="Título" transform="translate(627.511 4856.757)" fill="#12263f" font-size="18" font-family="Roboto-Black, Roboto" font-weight="800"><tspan x="0" y="0">Título</tspan></text>
    <path id="Trazado_157647" data-name="Trazado 157647" d="M4.052-4.342V0H.967V-12.8H6.073a5.948,5.948,0,0,1,2.6.541,4.074,4.074,0,0,1,1.749,1.538,4.2,4.2,0,0,1,.62,2.263A3.7,3.7,0,0,1,9.7-5.462,5.561,5.561,0,0,1,6.021-4.342Zm0-2.382H6.073A1.906,1.906,0,0,0,7.44-7.172a1.665,1.665,0,0,0,.47-1.266A2.059,2.059,0,0,0,7.427-9.87a1.712,1.712,0,0,0-1.318-.545H4.052ZM18.3-6.829l-.976-.07a1.752,1.752,0,0,0-1.793.879V0H12.568V-9.51h2.777l.1,1.222a2.294,2.294,0,0,1,2.083-1.4,2.888,2.888,0,0,1,.826.105Zm.378,1.986a5.613,5.613,0,0,1,.554-2.536,3.96,3.96,0,0,1,1.591-1.709,4.791,4.791,0,0,1,2.435-.6,4.373,4.373,0,0,1,3.366,1.323,5.076,5.076,0,0,1,1.23,3.6v.105a4.925,4.925,0,0,1-1.235,3.529A4.384,4.384,0,0,1,23.273.176a4.434,4.434,0,0,1-3.261-1.217,4.761,4.761,0,0,1-1.327-3.3Zm2.962.185a3.538,3.538,0,0,0,.413,1.934,1.376,1.376,0,0,0,1.222.615q1.582,0,1.617-2.435v-.3q0-2.558-1.635-2.558-1.485,0-1.608,2.206Zm10.969-7.216V-9.51h1.564v2.057H32.607V-3.1a1.111,1.111,0,0,0,.193.747,1.037,1.037,0,0,0,.765.211A4.345,4.345,0,0,0,34.3-2.2V-.079a5.466,5.466,0,0,1-1.67.255,3.1,3.1,0,0,1-2.259-.721,2.954,2.954,0,0,1-.729-2.188v-4.72H28.433V-9.51h1.213v-2.364ZM34.7-4.843a5.613,5.613,0,0,1,.554-2.536,3.96,3.96,0,0,1,1.591-1.709,4.791,4.791,0,0,1,2.435-.6,4.373,4.373,0,0,1,3.366,1.323,5.076,5.076,0,0,1,1.23,3.6v.105A4.925,4.925,0,0,1,42.64-1.129,4.384,4.384,0,0,1,39.3.176a4.434,4.434,0,0,1-3.261-1.217,4.761,4.761,0,0,1-1.327-3.3Zm2.962.185a3.538,3.538,0,0,0,.413,1.934,1.376,1.376,0,0,0,1.222.615q1.582,0,1.617-2.435v-.3q0-2.558-1.635-2.558-1.485,0-1.608,2.206ZM49.2-2.109a1.317,1.317,0,0,0,.967-.338,1.241,1.241,0,0,0,.334-.945h2.777A3.288,3.288,0,0,1,52.159-.826a4.168,4.168,0,0,1-2.887,1A4.22,4.22,0,0,1,46-1.125a5.125,5.125,0,0,1-1.2-3.6v-.123A5.792,5.792,0,0,1,45.338-7.4a3.872,3.872,0,0,1,1.534-1.7,4.573,4.573,0,0,1,2.373-.593,4.116,4.116,0,0,1,2.944,1.028,3.647,3.647,0,0,1,1.09,2.786H50.5A1.626,1.626,0,0,0,50.142-7a1.244,1.244,0,0,0-.967-.4q-1.151,0-1.345,1.468a10.357,10.357,0,0,0-.062,1.283,4.068,4.068,0,0,0,.343,1.986A1.187,1.187,0,0,0,49.2-2.109Zm4.957-2.733a5.613,5.613,0,0,1,.554-2.536A3.96,3.96,0,0,1,56.3-9.088a4.791,4.791,0,0,1,2.435-.6A4.373,4.373,0,0,1,62.1-8.363a5.076,5.076,0,0,1,1.23,3.6v.105A4.925,4.925,0,0,1,62.1-1.129,4.384,4.384,0,0,1,58.755.176a4.434,4.434,0,0,1-3.261-1.217,4.761,4.761,0,0,1-1.327-3.3Zm2.962.185a3.538,3.538,0,0,0,.413,1.934,1.376,1.376,0,0,0,1.222.615q1.582,0,1.617-2.435v-.3q0-2.558-1.635-2.558-1.485,0-1.608,2.206ZM67.764,0H64.793V-13.5h2.971Zm1.45-4.843a5.613,5.613,0,0,1,.554-2.536,3.96,3.96,0,0,1,1.591-1.709,4.791,4.791,0,0,1,2.435-.6,4.373,4.373,0,0,1,3.366,1.323,5.076,5.076,0,0,1,1.23,3.6v.105a4.925,4.925,0,0,1-1.235,3.529A4.384,4.384,0,0,1,73.811.176,4.434,4.434,0,0,1,70.55-1.042a4.761,4.761,0,0,1-1.327-3.3Zm2.962.185a3.538,3.538,0,0,0,.413,1.934,1.376,1.376,0,0,0,1.222.615q1.582,0,1.617-2.435v-.3q0-2.558-1.635-2.558-1.485,0-1.608,2.206ZM83.8-4.825a5.809,5.809,0,0,1,.976-3.56,3.211,3.211,0,0,1,2.725-1.3,2.731,2.731,0,0,1,2.145,1V-13.5h2.971V0H89.956l-.149-1.02a2.8,2.8,0,0,1-2.32,1.2,3.205,3.205,0,0,1-2.689-1.3A5.993,5.993,0,0,1,83.8-4.825Zm2.962.185q0,2.531,1.477,2.531a1.458,1.458,0,0,0,1.406-.826V-6.557A1.419,1.419,0,0,0,88.26-7.4q-1.371,0-1.485,2.215ZM98.9.176a4.889,4.889,0,0,1-3.542-1.305,4.507,4.507,0,0,1-1.354-3.4v-.246a5.84,5.84,0,0,1,.541-2.575,3.955,3.955,0,0,1,1.578-1.727,4.763,4.763,0,0,1,2.461-.611,4.117,4.117,0,0,1,3.164,1.244,4.887,4.887,0,0,1,1.16,3.467v1.151H97.022a2.135,2.135,0,0,0,.694,1.257,2.066,2.066,0,0,0,1.389.457,2.662,2.662,0,0,0,2.2-.984l1.354,1.6a3.784,3.784,0,0,1-1.569,1.217A5.3,5.3,0,0,1,98.9.176ZM98.569-7.4q-1.3,0-1.547,1.723h2.988v-.229a1.467,1.467,0,0,0-.36-1.1A1.434,1.434,0,0,0,98.569-7.4Zm14.994,4.729a.684.684,0,0,0-.4-.606,6.016,6.016,0,0,0-1.5-.475,6.853,6.853,0,0,1-1.828-.646,3.062,3.062,0,0,1-1.1-.971,2.319,2.319,0,0,1-.378-1.31,2.628,2.628,0,0,1,1.081-2.158,4.453,4.453,0,0,1,2.83-.848,4.934,4.934,0,0,1,3.023.853,2.666,2.666,0,0,1,1.143,2.241h-2.971q0-1.143-1.2-1.143a1.194,1.194,0,0,0-.782.259.8.8,0,0,0-.316.646.737.737,0,0,0,.387.642,3.654,3.654,0,0,0,1.235.4,10.671,10.671,0,0,1,1.49.378A2.706,2.706,0,0,1,116.42-2.76a2.491,2.491,0,0,1-1.156,2.118,5.068,5.068,0,0,1-2.993.817,5.172,5.172,0,0,1-2.18-.439,3.645,3.645,0,0,1-1.494-1.2,2.707,2.707,0,0,1-.536-1.591h2.769a1.145,1.145,0,0,0,.439.962,1.808,1.808,0,0,0,1.081.3,1.422,1.422,0,0,0,.91-.246A.787.787,0,0,0,113.563-2.672ZM122.405.176a4.889,4.889,0,0,1-3.542-1.305,4.507,4.507,0,0,1-1.354-3.4v-.246a5.84,5.84,0,0,1,.541-2.575,3.955,3.955,0,0,1,1.578-1.727,4.763,4.763,0,0,1,2.461-.611,4.117,4.117,0,0,1,3.164,1.244,4.887,4.887,0,0,1,1.16,3.467v1.151h-5.889a2.135,2.135,0,0,0,.694,1.257,2.066,2.066,0,0,0,1.389.457,2.662,2.662,0,0,0,2.2-.984l1.354,1.6a3.784,3.784,0,0,1-1.569,1.217A5.3,5.3,0,0,1,122.405.176ZM122.071-7.4q-1.3,0-1.547,1.723h2.988v-.229a1.467,1.467,0,0,0-.36-1.1A1.434,1.434,0,0,0,122.071-7.4Zm11.285.571-.976-.07a1.752,1.752,0,0,0-1.793.879V0h-2.962V-9.51H130.4l.1,1.222a2.294,2.294,0,0,1,2.083-1.4,2.888,2.888,0,0,1,.826.105Zm5.019,3.3,1.5-5.985H143L139.9,0h-3.023l-3.1-9.51H136.9ZM147.006,0h-2.971V-9.51h2.971Zm-3.146-11.962A1.322,1.322,0,0,1,144.316-13a1.724,1.724,0,0,1,1.187-.4,1.724,1.724,0,0,1,1.187.4,1.322,1.322,0,0,1,.457,1.037,1.322,1.322,0,0,1-.457,1.037,1.724,1.724,0,0,1-1.187.4,1.724,1.724,0,0,1-1.187-.4A1.322,1.322,0,0,1,143.859-11.962Zm8.991,9.853a1.317,1.317,0,0,0,.967-.338,1.241,1.241,0,0,0,.334-.945h2.777a3.288,3.288,0,0,1-1.121,2.566,4.168,4.168,0,0,1-2.887,1,4.22,4.22,0,0,1-3.27-1.3,5.125,5.125,0,0,1-1.2-3.6v-.123a5.792,5.792,0,0,1,.532-2.544,3.872,3.872,0,0,1,1.534-1.7,4.573,4.573,0,0,1,2.373-.593,4.116,4.116,0,0,1,2.944,1.028,3.647,3.647,0,0,1,1.09,2.786h-2.777A1.626,1.626,0,0,0,153.791-7a1.244,1.244,0,0,0-.967-.4q-1.151,0-1.345,1.468a10.357,10.357,0,0,0-.062,1.283,4.068,4.068,0,0,0,.343,1.986A1.187,1.187,0,0,0,152.851-2.109ZM161.306,0h-2.971V-9.51h2.971Zm-3.146-11.962A1.322,1.322,0,0,1,158.616-13a1.724,1.724,0,0,1,1.187-.4,1.724,1.724,0,0,1,1.187.4,1.322,1.322,0,0,1,.457,1.037,1.322,1.322,0,0,1-.457,1.037,1.724,1.724,0,0,1-1.187.4,1.724,1.724,0,0,1-1.187-.4A1.322,1.322,0,0,1,158.159-11.962Zm4.6,7.119a5.613,5.613,0,0,1,.554-2.536A3.96,3.96,0,0,1,164.9-9.088a4.791,4.791,0,0,1,2.435-.6A4.373,4.373,0,0,1,170.7-8.363a5.076,5.076,0,0,1,1.23,3.6v.105A4.925,4.925,0,0,1,170.7-1.129,4.384,4.384,0,0,1,167.353.176a4.434,4.434,0,0,1-3.261-1.217,4.761,4.761,0,0,1-1.327-3.3Zm2.962.185a3.538,3.538,0,0,0,.413,1.934,1.376,1.376,0,0,0,1.222.615q1.582,0,1.617-2.435v-.3q0-2.558-1.635-2.558-1.485,0-1.608,2.206ZM183.076,0a3.344,3.344,0,0,1-.281-.853A2.754,2.754,0,0,1,180.51.176a3.374,3.374,0,0,1-2.285-.813,2.588,2.588,0,0,1-.94-2.043,2.66,2.66,0,0,1,1.143-2.338,5.821,5.821,0,0,1,3.322-.791h.914v-.5q0-1.316-1.134-1.316a.927.927,0,0,0-1.055,1.042h-2.962a2.655,2.655,0,0,1,1.173-2.239,4.931,4.931,0,0,1,2.993-.86,4.323,4.323,0,0,1,2.874.888,3.086,3.086,0,0,1,1.081,2.435v4.21a4.311,4.311,0,0,0,.4,2V0Zm-1.854-1.934a1.652,1.652,0,0,0,.918-.237,1.487,1.487,0,0,0,.523-.536V-4.228H181.8q-1.547,0-1.547,1.389a.848.848,0,0,0,.272.655A.986.986,0,0,0,181.222-1.934ZM190.4,0h-2.971V-13.5H190.4Zm10.327-2.109a1.317,1.317,0,0,0,.967-.338,1.241,1.241,0,0,0,.334-.945H204.8a3.288,3.288,0,0,1-1.121,2.566,4.168,4.168,0,0,1-2.887,1,4.22,4.22,0,0,1-3.27-1.3,5.125,5.125,0,0,1-1.2-3.6v-.123a5.792,5.792,0,0,1,.532-2.544,3.872,3.872,0,0,1,1.534-1.7,4.573,4.573,0,0,1,2.373-.593,4.116,4.116,0,0,1,2.944,1.028,3.647,3.647,0,0,1,1.09,2.786h-2.777A1.626,1.626,0,0,0,201.665-7a1.244,1.244,0,0,0-.967-.4q-1.151,0-1.345,1.468a10.357,10.357,0,0,0-.062,1.283,4.068,4.068,0,0,0,.343,1.986A1.187,1.187,0,0,0,200.725-2.109ZM209.18,0h-2.971V-13.5h2.971Zm4.948,0h-2.971V-9.51h2.971Zm-3.146-11.962A1.322,1.322,0,0,1,211.438-13a1.724,1.724,0,0,1,1.187-.4,1.724,1.724,0,0,1,1.187.4,1.322,1.322,0,0,1,.457,1.037,1.322,1.322,0,0,1-.457,1.037,1.724,1.724,0,0,1-1.187.4,1.724,1.724,0,0,1-1.187-.4A1.322,1.322,0,0,1,210.981-11.962ZM220.553.176a4.889,4.889,0,0,1-3.542-1.305,4.507,4.507,0,0,1-1.354-3.4v-.246a5.84,5.84,0,0,1,.541-2.575,3.955,3.955,0,0,1,1.578-1.727,4.763,4.763,0,0,1,2.461-.611A4.117,4.117,0,0,1,223.4-8.442a4.887,4.887,0,0,1,1.16,3.467v1.151h-5.889a2.135,2.135,0,0,0,.694,1.257,2.066,2.066,0,0,0,1.389.457,2.662,2.662,0,0,0,2.2-.984l1.354,1.6a3.784,3.784,0,0,1-1.569,1.217A5.3,5.3,0,0,1,220.553.176ZM220.219-7.4q-1.3,0-1.547,1.723h2.988v-.229a1.467,1.467,0,0,0-.36-1.1A1.434,1.434,0,0,0,220.219-7.4Zm8.253-2.109.1,1.116a3.225,3.225,0,0,1,2.716-1.292A2.713,2.713,0,0,1,233.5-8.8a4.226,4.226,0,0,1,.76,2.672V0h-2.971V-6A1.6,1.6,0,0,0,231-7.062a1.342,1.342,0,0,0-1.055-.338,1.413,1.413,0,0,0-1.292.686V0h-2.962V-9.51Zm10.881-2.364V-9.51h1.564v2.057h-1.564V-3.1a1.111,1.111,0,0,0,.193.747,1.037,1.037,0,0,0,.765.211,4.345,4.345,0,0,0,.738-.053V-.079a5.466,5.466,0,0,1-1.67.255,3.1,3.1,0,0,1-2.259-.721,2.954,2.954,0,0,1-.729-2.188v-4.72h-1.213V-9.51h1.213v-2.364Zm7.33,12.05a4.889,4.889,0,0,1-3.542-1.305,4.507,4.507,0,0,1-1.354-3.4v-.246a5.84,5.84,0,0,1,.541-2.575,3.955,3.955,0,0,1,1.578-1.727,4.763,4.763,0,0,1,2.461-.611,4.117,4.117,0,0,1,3.164,1.244,4.887,4.887,0,0,1,1.16,3.467v1.151H244.8a2.135,2.135,0,0,0,.694,1.257,2.066,2.066,0,0,0,1.389.457,2.662,2.662,0,0,0,2.2-.984l1.354,1.6a3.784,3.784,0,0,1-1.569,1.217A5.3,5.3,0,0,1,246.683.176ZM246.349-7.4q-1.3,0-1.547,1.723h2.988v-.229a1.467,1.467,0,0,0-.36-1.1A1.434,1.434,0,0,0,246.349-7.4Z" transform="translate(285 4731.752)" fill="#12263f"/>
    <text id="Definición" transform="translate(627.511 4923.757)" fill="#12263f" font-size="18" font-family="Roboto-Black, Roboto" font-weight="800"><tspan x="0" y="0">Definición</tspan></text>
    <text id="Política" transform="translate(627.511 4984.757)" fill="#12263f" font-size="18" font-family="Roboto-Black, Roboto" font-weight="800"><tspan x="0" y="0">Política</tspan></text>
  </g>
</svg>
