<svg xmlns="http://www.w3.org/2000/svg" width="73.454" height="81.75" viewBox="0 0 73.454 81.75">
  <g id="caja-de-entrega" transform="translate(-4.148)">
    <path id="Trazado_157020" data-name="Trazado 157020" d="M25.226,10.878H70.009V60.643H25.226Z" fill="#edba94"/>
    <path id="Trazado_157021" data-name="Trazado 157021" d="M39.115,13.366a15.693,15.693,0,0,0-.2-2.488H25.226V28.913A15.668,15.668,0,0,0,39.115,13.366Z" fill="#e5a87f"/>
    <path id="Trazado_157022" data-name="Trazado 157022" d="M5.35,53.178H15.3V80.548H5.35Z" fill="#9dc6fb"/>
    <path id="Trazado_157023" data-name="Trazado 157023" d="M5.35,53.178h3.2V80.548H5.35Z" fill="#80b4fb"/>
    <path id="Trazado_157024" data-name="Trazado 157024" d="M25.226,10.878h3.2V60.643h-3.2Z" fill="#e5a87f"/>
    <path id="Trazado_157025" data-name="Trazado 157025" d="M15.3,55.666h5V80.548h-5Z" fill="#f1f6f7"/>
    <path id="Trazado_157026" data-name="Trazado 157026" d="M52.6,24.162l-4.981-2.285-4.981,2.285V10.878H52.6Z" fill="#fd6930"/>
    <path id="Trazado_157027" data-name="Trazado 157027" d="M43.314,39.9l-6.352-6.352L30.609,39.9h3.864V50.69H39.45V39.9Z" fill="#f1f6f7"/>
    <path id="Trazado_157028" data-name="Trazado 157028" d="M55.114,45.658h9.953v5.087H55.114Z" fill="#e5a87f"/>
    <path id="Trazado_157029" data-name="Trazado 157029" d="M20.279,60.642S25.052,55.8,34.693,55.8a14.928,14.928,0,0,1,5.381,1l3.817,1.475h7.557a3.2,3.2,0,0,1,3.2,3.2,6.131,6.131,0,0,1-.14.937h0l6.072-3.505,11.08-6.4a3.2,3.2,0,0,1,4.369,1.173,3.311,3.311,0,0,1-1.17,4.369L54.605,73.88A7.963,7.963,0,0,1,49.7,75.572H20.279V60.643Z" fill="#ffcebf"/>
    <path id="Trazado_157030" data-name="Trazado 157030" d="M36.042,55.858q-.672-.061-1.349-.061c-9.641,0-14.414,4.846-14.414,4.846V75.572h3.2V60.643S27.644,56.419,36.042,55.858Z" fill="#ffb09e"/>
    <path id="Trazado_157031" data-name="Trazado 157031" d="M10.387,61.844a1.2,1.2,0,1,1,1.2-1.2A1.2,1.2,0,0,1,10.387,61.844Z"/>
    <circle id="Elipse_4924" data-name="Elipse 4924" cx="12.441" cy="12.441" r="12.441" transform="translate(11.028 0.925)" fill="#ade194"/>
    <path id="Trazado_157032" data-name="Trazado 157032" d="M14.233,13.366A12.443,12.443,0,0,1,25.072,1.027a12.442,12.442,0,1,0-1.6,24.78,12.558,12.558,0,0,0,1.6-.1A12.444,12.444,0,0,1,14.233,13.366Z" fill="#7dce6f"/>
    <g id="Grupo_108729" data-name="Grupo 108729">
      <path id="Trazado_157033" data-name="Trazado 157033" d="M34.473,51.891H39.45a1.2,1.2,0,0,0,1.2-1.2V41.1h2.663c1.176.008,1.9-1.06.85-2.051L37.811,32.7a1.2,1.2,0,0,0-1.7,0L29.76,39.052c-.63,1.062-.326,1.823.85,2.051h2.663V50.69A1.2,1.2,0,0,0,34.473,51.891Zm2.488-16.643L40.413,38.7H39.45a1.2,1.2,0,0,0-1.2,1.2v9.587H35.675V39.9a1.2,1.2,0,0,0-1.2-1.2H33.51Z"/>
      <path id="Trazado_157034" data-name="Trazado 157034" d="M65.067,44.457H55.114a1.2,1.2,0,0,0-1.2,1.2v5.087a1.2,1.2,0,0,0,1.2,1.2h9.953a1.2,1.2,0,0,0,1.2-1.2V45.658A1.2,1.2,0,0,0,65.067,44.457Zm-1.2,5.087h-7.55V46.86h7.55Z"/>
      <path id="Trazado_157035" data-name="Trazado 157035" d="M65.067,39.535H55.114a1.2,1.2,0,1,0,0,2.4h9.953a1.2,1.2,0,1,0,0-2.4Z"/>
      <path id="Trazado_157036" data-name="Trazado 157036" d="M77.07,53.081a4.487,4.487,0,0,0-5.858-1.7V32.705a1.2,1.2,0,0,0-2.4,0V52.768L57.252,59.441H55.345a4.4,4.4,0,0,0-3.9-2.366H44.115c-2.961-1.265-6.166-2.48-9.422-2.48a26.322,26.322,0,0,0-8.265,1.27V26.681A13.8,13.8,0,0,0,37.05,12.08h4.385V24.162a1.2,1.2,0,0,0,1.7,1.092l4.48-2.055,4.48,2.055a1.226,1.226,0,0,0,1.7-1.092V12.08H68.809V27.468a1.2,1.2,0,1,0,2.4,0V10.878a1.2,1.2,0,0,0-1.2-1.2H36.6A13.9,13.9,0,0,0,26.34.027a1.2,1.2,0,1,0-.5,2.35,11.239,11.239,0,1,1-4.734,0,1.2,1.2,0,1,0-.5-2.35A13.852,13.852,0,0,0,9.827,13.366a13.848,13.848,0,0,0,14.2,13.628V56.807A20.2,20.2,0,0,0,21.5,58.188V55.666a1.2,1.2,0,0,0-1.2-1.2H16.5V53.178a1.2,1.2,0,0,0-1.2-1.2H5.35a1.2,1.2,0,0,0-1.2,1.2V80.548a1.2,1.2,0,0,0,1.2,1.2H20.3a1.2,1.2,0,0,0,1.2-1.2V76.774h12.84a1.2,1.2,0,1,0,0-2.4H21.5V61.163C22.753,60.131,27.166,57,34.693,57c3.28,0,8.864,2.443,9.2,2.48h7.557c2.252,0,2.945,3.994.022,3.994H36.961a1.2,1.2,0,0,0,0,2.4H51.47a4.372,4.372,0,0,0,4.036-2.651L72.261,53.55c2.253-1.3,4.19,2.194,2,3.46-.049.028-20.393,15.925-20.393,15.925A6.792,6.792,0,0,1,49.7,74.371H39.58a1.2,1.2,0,1,0,0,2.4H49.7a9.2,9.2,0,0,0,5.649-1.947L75.539,59.044a4.516,4.516,0,0,0,1.53-5.963ZM51.4,22.288l-3.279-1.5a1.2,1.2,0,0,0-1,0l-3.279,1.5V12.08H51.4ZM6.551,54.379H14.1V79.347H6.551ZM16.5,79.347V56.868h2.6V79.347H16.5Z"/>
      <path id="Trazado_157037" data-name="Trazado 157037" d="M18.235,13.174a1.2,1.2,0,1,0-1.83,1.558l3.738,4.389a1.2,1.2,0,0,0,.915.422h.021A1.2,1.2,0,0,0,22,19.09l7.388-9.3a1.2,1.2,0,1,0-1.881-1.5l-6.479,8.153Z"/>
    </g>
  </g>
</svg>
