<svg xmlns="http://www.w3.org/2000/svg" width="190" height="171" viewBox="0 0 190 171">
  <g id="Grupo_108939" data-name="Grupo 108939" transform="translate(-180 -10192.757)">
    <rect id="Rectángulo_36278" data-name="Rectángulo 36278" width="190" height="171" transform="translate(180 10192.757)" fill="#373660"/>
    <g id="bullhorn" transform="translate(216.221 10219.904)">
      <g id="Fill_Outline" data-name="Fill Outline">
        <path id="Trazado_157270" data-name="Trazado 157270" d="M11.115,61.131H62.984v40.754H11.115Z" fill="#aae1f9"/>
        <path id="Trazado_157271" data-name="Trazado 157271" d="M5.557,101.885H68.541v3.7a7.41,7.41,0,0,1-7.41,7.41H12.967a7.41,7.41,0,0,1-7.41-7.41Z" fill="#f9e109"/>
        <path id="Trazado_157272" data-name="Trazado 157272" d="M18.525,75.951V61.131h-7.41v40.754H62.984v-7.41H37.049A18.525,18.525,0,0,1,18.525,75.951Z" fill="#57b7eb"/>
        <path id="Trazado_157273" data-name="Trazado 157273" d="M16.672,107.443a5.557,5.557,0,0,1-5.557-5.557H5.557v3.7a7.41,7.41,0,0,0,7.41,7.41H61.131a7.41,7.41,0,0,0,7.15-5.557Z" fill="#fcbc04"/>
        <rect id="Rectángulo_36557" data-name="Rectángulo 36557" width="29.639" height="29.639" rx="3.705" transform="translate(83.361 62.984)" fill="#c4f236"/>
        <circle id="Elipse_4929" data-name="Elipse 4929" cx="5.557" cy="5.557" r="5.557" transform="translate(92.623 72.246)" fill="#57b7eb"/>
        <path id="Trazado_157274" data-name="Trazado 157274" d="M88.918,72.246V62.984H87.066a3.7,3.7,0,0,0-3.7,3.7v22.23a3.7,3.7,0,0,0,3.7,3.7H109.3a3.7,3.7,0,0,0,3.7-3.7V87.066h-9.262A14.82,14.82,0,0,1,88.918,72.246Z" fill="#a1d51c"/>
        <circle id="Elipse_4930" data-name="Elipse 4930" cx="1.852" cy="1.852" r="1.852" transform="translate(98.18 74.098)" fill="#aae1f9"/>
        <path id="Trazado_157275" data-name="Trazado 157275" d="M5.557,22.23h22.23V51.869H5.557Z" fill="#c4f236"/>
        <circle id="Elipse_4931" data-name="Elipse 4931" cx="14.82" cy="14.82" r="14.82" transform="translate(35.197 3.705)" fill="#f89c8d"/>
        <path id="Trazado_157276" data-name="Trazado 157276" d="M46.311,24.082V12.967l11.115,5.557Z" fill="#aae1f9"/>
        <path id="Trazado_157277" data-name="Trazado 157277" d="M55.574,27.787a14.82,14.82,0,0,1-14.82-14.82A14.634,14.634,0,0,1,42.7,5.65,14.82,14.82,0,1,0,62.984,25.934a14.634,14.634,0,0,1-7.41,1.852Z" fill="#f8664f"/>
        <rect id="Rectángulo_36558" data-name="Rectángulo 36558" width="29.639" height="29.639" rx="3.705" transform="translate(83.361 5.557)" fill="#aae1f9"/>
        <path id="Trazado_157278" data-name="Trazado 157278" d="M88.918,14.82V5.557H87.066a3.7,3.7,0,0,0-3.7,3.7v22.23a3.7,3.7,0,0,0,3.7,3.7H109.3a3.7,3.7,0,0,0,3.7-3.7V29.639h-9.262a14.82,14.82,0,0,1-14.82-14.82Z" fill="#57b7eb"/>
        <path id="Trazado_157279" data-name="Trazado 157279" d="M11.115,35.2V22.23H5.557V51.869h22.23V46.311H22.23A11.115,11.115,0,0,1,11.115,35.2Z" fill="#a1d51c"/>
        <path id="Trazado_157280" data-name="Trazado 157280" d="M39.438,76.857h7.41V91.676a3.7,3.7,0,0,1-7.41,0Z" transform="translate(-37.271 33.122) rotate(-30.001)" fill="#f8664f"/>
        <path id="Trazado_157281" data-name="Trazado 157281" d="M46.423,84.38l-4.687-8.132-6.428,3.7,4.39,7.6,3.2-1.852Z" fill="#cc5144"/>
        <path id="Trazado_157282" data-name="Trazado 157282" d="M74.561,70.134,42.9,81.99,33.641,65.948l26.1-21.489Z" fill="#c4f236"/>
        <path id="Trazado_157283" data-name="Trazado 157283" d="M30.009,68.41h9.262V86.934H30.009a5.557,5.557,0,0,1-5.557-5.557v-7.41A5.557,5.557,0,0,1,30.009,68.41Z" transform="translate(-34.567 26.342) rotate(-30.001)" fill="#f89c8d"/>
        <path id="Trazado_157284" data-name="Trazado 157284" d="M22.229,79.524h3.7v7.41h-3.7a3.7,3.7,0,1,1,0-7.41Z" transform="translate(-38.642 22.267) rotate(-30.001)" fill="#cc5144"/>
        <path id="Trazado_157285" data-name="Trazado 157285" d="M45.052,76.321a3.872,3.872,0,0,0-.556.259l-3.538,2.038L42.9,81.99,74.561,70.134l-2.316-4Z" fill="#a1d51c"/>
        <path id="Trazado_157286" data-name="Trazado 157286" d="M39.939,79.211A9.262,9.262,0,0,1,26.12,70.282l-.5.3a5.557,5.557,0,0,0-2.038,7.6l3.7,6.41a5.557,5.557,0,0,0,7.6,2.038L42.9,81.99l-1.945-3.371Z" fill="#f8664f"/>
        <g id="Grupo_108763" data-name="Grupo 108763">
          <path id="Trazado_157287" data-name="Trazado 157287" d="M68.541,100.033h-3.7V81.879a1.852,1.852,0,0,0-3.7,0v18.154H12.967V62.984H28.38a1.852,1.852,0,0,0,0-3.7H11.115a1.852,1.852,0,0,0-1.852,1.852v38.9h-3.7A1.852,1.852,0,0,0,3.7,101.885v3.7a9.262,9.262,0,0,0,9.262,9.262H61.131a9.262,9.262,0,0,0,9.262-9.262v-3.7A1.852,1.852,0,0,0,68.541,100.033Zm-1.852,5.557a5.557,5.557,0,0,1-5.557,5.557h-3.7V109.3a1.852,1.852,0,0,0-3.7,0v1.852H20.377V109.3a1.852,1.852,0,0,0-3.7,0v1.852h-3.7A5.557,5.557,0,0,1,7.41,105.59v-1.852H66.689Z" fill="#031240"/>
          <path id="Trazado_157288" data-name="Trazado 157288" d="M100.033,14.82h3.7a1.852,1.852,0,1,0,0-3.7h-3.7a5.557,5.557,0,0,0-5.557,5.557v1.852H92.623a1.852,1.852,0,0,0,0,3.7h1.852v5.557a1.852,1.852,0,0,0,3.7,0V22.23h1.852a1.852,1.852,0,0,0,0-3.7H98.18V16.672A1.852,1.852,0,0,1,100.033,14.82Z" fill="#031240"/>
          <path id="Trazado_157289" data-name="Trazado 157289" d="M109.3,3.7H87.066a5.557,5.557,0,0,0-5.557,5.557v3.7a1.852,1.852,0,1,0,3.7,0v-3.7A1.852,1.852,0,0,1,87.066,7.41H109.3a1.852,1.852,0,0,1,1.852,1.852v22.23a1.852,1.852,0,0,1-1.852,1.852H87.066a1.852,1.852,0,0,1-1.852-1.852V20.377a1.852,1.852,0,1,0-3.7,0V31.492a5.557,5.557,0,0,0,5.557,5.557H109.3a5.557,5.557,0,0,0,5.557-5.557V9.262A5.557,5.557,0,0,0,109.3,3.7Z" fill="#031240"/>
          <path id="Trazado_157290" data-name="Trazado 157290" d="M90.77,77.8a7.41,7.41,0,1,0,7.41-7.41A7.41,7.41,0,0,0,90.77,77.8Zm11.115,0a3.7,3.7,0,1,1-3.7-3.7A3.7,3.7,0,0,1,101.885,77.8Z" fill="#031240"/>
          <path id="Trazado_157291" data-name="Trazado 157291" d="M109.3,61.131H87.066a5.557,5.557,0,0,0-5.557,5.557v22.23a5.557,5.557,0,0,0,5.557,5.557H109.3a5.557,5.557,0,0,0,5.557-5.557v-3.7a1.852,1.852,0,0,0-3.7,0v3.7A1.852,1.852,0,0,1,109.3,90.77H87.066a1.852,1.852,0,0,1-1.852-1.852V66.689a1.852,1.852,0,0,1,1.852-1.852H109.3a1.852,1.852,0,0,1,1.852,1.852V77.8a1.852,1.852,0,0,0,3.7,0V66.689a5.557,5.557,0,0,0-5.557-5.557Z" fill="#031240"/>
          <path id="Trazado_157292" data-name="Trazado 157292" d="M45.33,25.657a1.843,1.843,0,0,0,1.815.074L58.26,20.173a1.852,1.852,0,0,0,0-3.3L47.145,11.319a1.852,1.852,0,0,0-2.686,1.649V24.082A1.852,1.852,0,0,0,45.33,25.657Zm2.834-9.688,5.113,2.556-5.113,2.556Z" fill="#031240"/>
          <path id="Trazado_157293" data-name="Trazado 157293" d="M50.016,35.2A16.672,16.672,0,1,0,33.344,18.525,16.672,16.672,0,0,0,50.016,35.2Zm0-29.639A12.967,12.967,0,1,1,37.049,18.525,12.967,12.967,0,0,1,50.016,5.557Z" fill="#031240"/>
          <path id="Trazado_157294" data-name="Trazado 157294" d="M68.541,42.607a1.852,1.852,0,0,0,1.482-.741l5.557-7.41a1.852,1.852,0,1,0-2.964-2.223l-5.557,7.41a1.852,1.852,0,0,0,1.482,2.964Z" fill="#031240"/>
          <path id="Trazado_157295" data-name="Trazado 157295" d="M72.616,49.275a1.852,1.852,0,0,0,2.593.37l7.41-5.557A1.852,1.852,0,1,0,80.4,41.125l-7.41,5.557a1.852,1.852,0,0,0-.37,2.593Z" fill="#031240"/>
          <path id="Trazado_157296" data-name="Trazado 157296" d="M90.77,53.351a1.852,1.852,0,0,0-2.223-1.482l-9.262,1.852a1.862,1.862,0,0,0,.37,3.7h.37l9.262-1.852a1.852,1.852,0,0,0,1.482-2.223Z" fill="#031240"/>
          <path id="Trazado_157297" data-name="Trazado 157297" d="M5.557,53.721h22.23a1.852,1.852,0,0,0,1.852-1.852V22.23a1.852,1.852,0,0,0-1.852-1.852H5.557A1.852,1.852,0,0,0,3.7,22.23V51.869A1.852,1.852,0,0,0,5.557,53.721ZM7.41,24.082H25.934V50.016H7.41Z" fill="#031240"/>
          <path id="Trazado_157298" data-name="Trazado 157298" d="M20.377,27.787h-3.7a1.852,1.852,0,0,0,0,3.7h3.7a1.852,1.852,0,0,0,0-3.7Z" fill="#031240"/>
          <path id="Trazado_157299" data-name="Trazado 157299" d="M20.377,35.2h-7.41a1.852,1.852,0,1,0,0,3.7h7.41a1.852,1.852,0,1,0,0-3.7Z" fill="#031240"/>
          <path id="Trazado_157300" data-name="Trazado 157300" d="M20.377,42.607h-7.41a1.852,1.852,0,0,0,0,3.7h7.41a1.852,1.852,0,1,0,0-3.7Z" fill="#031240"/>
          <path id="Trazado_157301" data-name="Trazado 157301" d="M66.911,53.166a1.859,1.859,0,1,0-3.223,1.852l8.169,14.134L42.218,80.267H41.94l-4.816,2.779-3.2,1.852a3.7,3.7,0,0,1-5.057-1.352l-3.7-6.41a3.7,3.7,0,0,1,1.389-4.89l6.41-3.7,4.631,8.021A1.859,1.859,0,0,0,40.81,74.71L36.03,66.448,59.279,47.275l.76,1.315a1.859,1.859,0,0,0,3.223-1.852l-1.852-3.2a1.877,1.877,0,0,0-2.8-.5L32.677,64.41l-7.891,4.557a7.41,7.41,0,0,0-3.409,8.392l-1.852,1.056A5.553,5.553,0,0,0,22.3,88.788a5.669,5.669,0,0,0,2.779-.741l1.852-1.056a7.187,7.187,0,0,0,3.242,1.927,7.021,7.021,0,0,0,1.945.259,7.3,7.3,0,0,0,3.7-1l1.612-.926,3.7,6.428a5.552,5.552,0,1,0,9.614-5.557l-3.371-5.872L75.173,71.82a1.858,1.858,0,0,0,.963-2.649ZM23.156,84.824a1.851,1.851,0,1,1-1.852-3.2l1.612-.926,1.852,3.2Zm24.378,5.187a1.851,1.851,0,0,1-3.2,1.852l-3.7-6.428,3.075-1.76h.148Z" fill="#031240"/>
        </g>
      </g>
    </g>
  </g>
</svg>
